<svg id="Layer_1" data-name="Layer 1" xmlns="http://www.w3.org/2000/svg" xmlns:xlink="http://www.w3.org/1999/xlink" viewBox="0 0 437.46 405.11"><defs><linearGradient id="linear-gradient" x1="341.77" y1="260.18" x2="373.21" y2="345.89" gradientUnits="userSpaceOnUse"><stop offset="0" stop-color="#010101" stop-opacity="0"/><stop offset="0.95" stop-color="#010101"/></linearGradient><linearGradient id="linear-gradient-2" x1="224.16" y1="256.29" x2="185.83" y2="282.56" xlink:href="#linear-gradient"/><linearGradient id="linear-gradient-3" x1="169.9" y1="266.17" x2="230.86" y2="266.17" xlink:href="#linear-gradient"/><linearGradient id="linear-gradient-4" x1="209.93" y1="263.86" x2="164.85" y2="297.17" xlink:href="#linear-gradient"/><linearGradient id="linear-gradient-5" x1="161.08" y1="273.03" x2="218.69" y2="273.03" xlink:href="#linear-gradient"/><linearGradient id="linear-gradient-6" x1="177.85" y1="287.77" x2="214.03" y2="249.58" xlink:href="#linear-gradient"/><linearGradient id="linear-gradient-7" x1="193.41" y1="265.89" x2="136.85" y2="338.54" xlink:href="#linear-gradient"/><linearGradient id="linear-gradient-8" x1="144.3" y1="280.05" x2="204.96" y2="280.05" xlink:href="#linear-gradient"/><linearGradient id="linear-gradient-9" x1="183.49" y1="291.53" x2="170.57" y2="350.68" xlink:href="#linear-gradient"/><linearGradient id="linear-gradient-10" x1="314.2" y1="250.19" x2="232.37" y2="357.86" xlink:href="#linear-gradient"/><linearGradient id="linear-gradient-11" x1="294.07" y1="243.31" x2="201.03" y2="298.87" xlink:href="#linear-gradient"/><linearGradient id="linear-gradient-12" x1="220.02" y1="259.65" x2="292.06" y2="259.65" xlink:href="#linear-gradient"/><linearGradient id="linear-gradient-13" x1="265.78" y1="258.4" x2="209.36" y2="298.67" xlink:href="#linear-gradient"/><linearGradient id="linear-gradient-14" x1="209.6" y1="267.76" x2="277.68" y2="267.76" xlink:href="#linear-gradient"/><linearGradient id="linear-gradient-15" x1="229.56" y1="287.29" x2="263.45" y2="244.22" xlink:href="#linear-gradient"/><linearGradient id="linear-gradient-16" x1="227.86" y1="240.19" x2="224.41" y2="323.46" xlink:href="#linear-gradient"/><linearGradient id="linear-gradient-17" x1="254.26" y1="281.5" x2="242.77" y2="348.69" xlink:href="#linear-gradient"/><linearGradient id="linear-gradient-18" x1="168.5" y1="244.28" x2="128.87" y2="419.15" xlink:href="#linear-gradient"/></defs><title>Australia</title><g id="fHONLE"><path d="M363,.89h1.31V2.7c1.71,1,3.22,1.76,3.4,3.75.21,2.23.14,4.49.53,6.68a4.8,4.8,0,0,0,1.84,2.65c.55.41,1.64.08,2.48.08-2.06,2.05-2.63,3.66-1.52,4.84,1.87,2,3.84,4,2.29,7.5l2.35-1.31c-1.53,4.09,1.29,7.63-.33,11.29-.14.33.07.85.19,1.26a45,45,0,0,0,1.62,5.17c.44,1,1.19,2.37,2.11,2.69.74.26,2-.76,2.93-1.28.46-.25.78-.82,1.25-1,1-.28,2.07-.37,3.61-.62.19.57.51,1.52.85,2.47.19.53.25,1.26.64,1.53,1.95,1.4,4,2.64,6,4,.54.38,1.33,1.3,1.19,1.62-.6,1.38.13,3.41-.19,3.85-1.56,2.1.23,3.75.16,5.55-.1,2.45,1.54,4.68.37,7.35-1.28,2.9,3,3.89,2.89,6.58,0,.12.15.24.22.36l1.65.23c.5,2,.78,3.54,1.3,5,.93,2.69,1.53,5.54.3,8.06a4.37,4.37,0,0,0,.25,5c.66,1,1.44,1.81,2.28,2.84-1.41,2.12-.93,4,1.14,5.55,1.89,1.42,3.58,3.27,6.32,2.65.78,2.5,2.27,3.2,4.45,2.1,1.36,1.65.13,4.6,2.75,5.54l1.37-1.3c.33,1.68.69,2.92,2.62,2.64a2.14,2.14,0,0,1,1.71,1.2c.31,2.81,1.6,2.39,3.41.88.11,2.59,3.94,2.55,3.17,5.55-1.42-1.09-2.2.3-2.05,1a5.32,5.32,0,0,0,2.43,3.91c1.41.83,3.09,1.56,2.91,4-.09,1.29,1.08,2.67,1.62,4a12,12,0,0,1,.79,2.67c.2,1.54.05,3.14.36,4.65a32.72,32.72,0,0,0,1.58,4.44c2.17-2,1.84,1.2,2.82,1.71v-5.81l6.73,7.32c-.14-1.63-.24-2.87-.35-4.11l.8-.13c.41,1.39.85,2.78,1.21,4.19a6.41,6.41,0,0,1,.3,2.16c-.12,1.44-.5,2.86-.57,4.3-.17,3.51.35,4,4,3.82.21,1.17.89,2.51.55,3.51-.73,2.2,1.24,2.66,2.05,3.8.25.36,1.45.05,2.54.05.66,1.2,1.87,2.65,2.24,4.28a9.22,9.22,0,0,0,3.23,4.93,9.33,9.33,0,0,1,1.54,2.39c.84,1.46,1.29,3.46,2.54,4.27s1.24,1.12,1.18,2.39a12.27,12.27,0,0,0,.95,5.29c.24.56,1.89.67,1,1.95a9.49,9.49,0,0,0-1.31,6c0,1.33-.54,2.67-.68,4-.19,1.75-.93,4-.16,5.19,2.28,3.65,2,7.88,3.37,11.7a3.29,3.29,0,0,1-.05,1.28c-.22,3.23-.68,6.36-2.69,9.09a10.7,10.7,0,0,0-.94,2.88c-1.1,3.15-2,6.36-3.37,9.4-1.21,2.75-3.38,5.18-2.12,8.54a1.53,1.53,0,0,1-.22,1.05c-1.66,3.38-3.34,6.74-5,10.11a17.24,17.24,0,0,0-1.5,3c-.44,1.61-.74,3-2.46,4-1.43.87-2.5,1.9-3.7,1.21-1,1-1.66,1.86-2.45,2.59s-2.23,1.33-2.64,2.29c-.9,2.14-1.44,4.4-4.16,5,1.21,2,.15,4.62-1.29,5-1.15,2-2.2,3.63-3,5.35s-1.34,3.49-2.1,5.51c.12.31.41,1,.77,1.88l-1.42-.51c.18.58.3,1,.26.84a20.69,20.69,0,0,0-2.34,2.2,31.74,31.74,0,0,0-2.78,4.13c-.84,1.54-2,3.18-2.07,4.83a27,27,0,0,1-2.25,8.24c-.5,1.3-1.27,3.4-.7,4,1.6,1.71-1,3.13.11,4.57,0,0-.46.61-.54.57-1.8-.86-2.18,1.09-3.19,1.69-2,1.19-3.94.61-6,.49a81.17,81.17,0,0,0-10.06.6c-.94.07-2.67-2-2.58,1l-.7-.18c-2.22,2-4.26,3.85-6.23,5.72-2.25,2.14-4.94,2.51-8,2.08,0,.65,0,1.19.07,1.65h-3.54l.36-.36-5.08-4.1,1.72-2.19a6.86,6.86,0,0,0-1.84-1.21c-.31-.09-.83.62-1.26,1-.86.69-1.68,1.78-2.63,1.93-.64.1-1.48-1.15-2.56-2.08,3,.14,4.59-1.82,3.73-3.93-.56-1.39-1.24-1.84-2.58-.77a29,29,0,0,1-3.11,2l2.44.4.2.73a24.32,24.32,0,0,1-2.31,1.22c-.93.37-2.09.37-2.85.93-2.31,1.7-4.49,3.6-6.72,5.42a12.59,12.59,0,0,0-1.36-1.1q-3.77-2.3-7.57-4.51c-.68-.39-1.59-1-2.18-.81-1.49.47-2.42-.36-3.6-.89a5,5,0,0,0-2.75-.21c-.55,2.14-1.94.73-2.93.95-.32-2.47-2.45-4.46-4.57-4.07-2.58.48-3.83-1.18-5.15-2.78s-2.34-3.4-3.75-4.87c-2.35-2.43-2.76-4.33-1.36-7.58a4.26,4.26,0,0,0,.18-2.35,21.31,21.31,0,0,0-4.8-9.89,26.57,26.57,0,0,0-3.21-2.74l4.3-2c-2.45-1.42-4-1-4.16.95-3-.81-5.41,3-8.8,1.15a8,8,0,0,1,1.13-1.35,7.51,7.51,0,0,0,2.71-5.91c.11-2.13.32-4.33-1.91-5.78-.45-.29-.52-1.16-.74-1.76-.35-1-.67-1.93-1-2.9h-.7c-1.2,4-2.39,8.05-3.37,11.35l-8.7,2.73c.54-1.91,1-3.39,1.42-5l4.51.5c.08-1.7.23-3.39.23-5.09s-.65-3.45-.07-4.78c1.09-2.52,2.86-4.74,4.55-7.4-1.35-3.72-1.35-3.72.93-4.44-.75-2.21-1.49-4.39-2.22-6.58l-.61.1c1.34,2.21.91,3.77-1.29,5a5.59,5.59,0,0,0-2,2.74c-1,2.43-1.4,4.64-4.51,5.95a15.12,15.12,0,0,0-7.57,7.06,55.76,55.76,0,0,1-4.13,6l2.17-.29v2.11l-3.65-.93a5.38,5.38,0,0,0-1.79-1.63c-.42-.3-.8-.68-1.2-1l1.36-.76a34.69,34.69,0,0,1-1.58-4.59c-.54-2.68-1.72-4.71-4.3-5.9-.41-.19-.43-1.18-.71-1.76-.58-1.27-1-2.74-1.9-3.68-.69-.71-2.1-.72-3.19-1l-.41.66L269.13,266c1.07-.28,2-.27,2.18-.64a2.45,2.45,0,0,0,0-2c-.18-.33-1.15-.35-1.76-.3a15.63,15.63,0,0,0-2.22.41c-.06-1,.18-2.28-.21-2.52-1.21-.72-2.28-2.59-3.94-1.6-2,1.17-3.43.71-5-.55a12,12,0,0,0-2-1.35,2.63,2.63,0,0,0-3.93,1.46c-2-1-4-1.92-5.9-2.94-2.59-1.37-5.14-2.81-7.75-4.25-1.31,2.14-2.88,2.21-4.66,2.19a73.1,73.1,0,0,0-10.47.37,24.67,24.67,0,0,0-7.2,2.28c-4.05,1.94-7.82,4.48-11.91,6.3a34.75,34.75,0,0,1-15.29,2.74,6.26,6.26,0,0,0-4,1.56,35.07,35.07,0,0,1-11.92,7.43c-3.52,1.27-4.65,3.81-5.44,7.15-.53,2.21-2.12,4.17-3.25,6.22-.09.15-.37.21-.58.27l-3.61.94c-.66-1.36-1.94-1.14-3.4-.39-1.93,1-4.51.12-6.14,2.1a1.59,1.59,0,0,1-1.16-.51c-.58-1.35-1.28-1.23-2.4-.59a3.39,3.39,0,0,1-2.31.25c-3.56-1-6.79.48-9.9,1.63a12.09,12.09,0,0,1-4.69,1.13,6.06,6.06,0,0,0-5.63,4.72c-.29,2.25-1.36,3.13-3.59,3.16-.89,0-2.11.06-2.59.61-1.43,1.63-2.55,3.52-3.82,5.29a2.68,2.68,0,0,1-.84.58,14.53,14.53,0,0,0-3.2,1.92c-1.09,1.11-.94,1.26-2.13.64-.56.36-1.16,1-1.44.88-2.47-1.05-4.7.13-7.06.44-1.75.23-3.62-.36-5.43-.65a10.69,10.69,0,0,1-2.29-.65,6.06,6.06,0,0,1-2.31-1.25,8.87,8.87,0,0,0-8.24-3.24c-.49.06-1.43-.36-1.52-.73-.7-2.64-1.23-5.33-1.91-8.42,3.08,1.59,4.61,1,5.29-1.72.58-2.35.8-4.72-.4-7a7,7,0,0,1-.64-2.73c-.2-2.88-.25-5.77-.46-8.66a4.77,4.77,0,0,0-.71-2.25c-1.91-2.81-4-5.53-5.88-8.33a59.28,59.28,0,0,1-3.5-5.49c-1.86-3.47-2.58-7.31-3.31-11.14a7.15,7.15,0,0,0-3.31-5.15,4,4,0,0,1-1.53-2.27,8.47,8.47,0,0,0-3.65-5.22,7,7,0,0,1-3.46-5.26,9.19,9.19,0,0,0-1.16-3.67,29.42,29.42,0,0,0-10.32-10.65c-.7-.4-1.06-1.43-1.49-2.22-.07-.12.33-.58.59-.76a8.55,8.55,0,0,1,1.09-.6l3.83,4.64c1.67-.71,2-1.71,1.27-2.92a19.55,19.55,0,0,0-2.1-2.38l-.06.06,1.71-1.47L53,214.91l.88-.36c-.14-1.5-.26-3-.43-4.5-.1-.93.06-2.13-.45-2.74-2.27-2.71-4.81-5.19-7.1-7.88-1.6-1.89-3-4-4.43-6a2.46,2.46,0,0,1-.42-1c-.43-2.32-.93-4.63-1.16-7-.07-.64.73-1.35,1-2.06a16.19,16.19,0,0,0,1.28-3.27c.33-1.65-1.59-3.35,0-5.08a2.41,2.41,0,0,0-.93-1.31c-2.62-1.24-3.17-3.36-1.35-5.47.35-.4.82-1.23.67-1.43-1.75-2.35.65-3.75,1.21-5.54.17-.52.75-.91,1.1-1.31l1.51,8.67c1.25-1.16,2.43-1.74,2.67-2.59a51.37,51.37,0,0,0,1.1-6.48,55.18,55.18,0,0,0,5.36-3.51c2.34-1.9,4.46-4,6.61-6.17.2-.2-.12-.9-.17-1.38-.07-.72-.12-1.45-.18-2.18l.34,0,.5,1.72c2.22-1.78,4.31-3.45,6.39-5.13l-.79-1.3,2.73.59.53-1.82c.85.43,2.19,1.18,2.23,1.12,1.1-1.76,2.34-1.63,3.8-.52a1.3,1.3,0,0,0,1,0c2.28-.91,4.76-1.46,6-4,.72-1.49,2-2,3.75-2.42,2.32-.59,5.15-.64,6.4-3.67,1.08-2.6,2.16-2.89,5-2.11,1.47.41,2.82.85,3.83-.81a1.73,1.73,0,0,1,.94-.52c4-1.3,7.92-2.61,11.43-5.18a19.77,19.77,0,0,0,7.17-10.11c.51-1.52.76-3.12,1.18-4.68a1.91,1.91,0,0,1,.6-.9c1.54-1.38,3.15-2.67,4.63-4.11a7.18,7.18,0,0,0,1-2l-2-.78c-.25-1.16-.2-2.72-.9-3.78-1.64-2.46,0-6.94,2.23-8.81a12.89,12.89,0,0,0,1.24-1.41l-.25-.2,2.31-1-.6-.42c.66-1.5,1.31-3,2-4.47a7.88,7.88,0,0,1,1.19.39c-1.06,1.93.77,2.39,1.6,3.5,1.68,2.23,3,4.71,4.52,7.07.35.55.78,1,1.18,1.56l.52-.24V86.76c1.85.38,1.85.38,3.07-2.55-1,.26-5.6-2.54-5.65-3.59l1.61-.21-.89-1.08,2.48-.39-3.08-1.65,2.31-1.6,1.82,2.66.29-.73c.81-.3,1.75-1,2.41-.82,1,.32,1.84,1.26,3.23,2.3a23.9,23.9,0,0,0,.1-2.46c-.08-1.06-.84-2.49,1.38-2,.19,0,.69-.65.79-1.06.25-1,.35-1.94.57-3.34l-1.57,2.34c-.56-.52-1-.91-1.42-1.34-.84-.91-.42-4.18.59-4.14,2.3.1,1.93-1.49,2.12-2.8,1.46,0,3.39.44,1.78-1.79l1.91-2,4.09,1.27.1-1.76-1.06,1-2.26-3.59a8.23,8.23,0,0,0,1.21-1.32,7.94,7.94,0,0,0,.47-1.57c2.57.7,3.41-.07,3.08-2.7a2.47,2.47,0,0,1,.18-1.13c0-.07.68-.06.73.05a3.1,3.1,0,0,1,.18,1.1c0,.57,0,1.13,0,1.66,2.38-1.88,2,1,3,1.56.34-1.05.67-2.07,1-3.09s.75-2.2,1.14-3.33l-2.14-1.28L167,45.91a18.62,18.62,0,0,1,1.1,1.58c.34.6.59,1.25.8,1.7l2.92-4.09c.38,1.55.67,2.73,1,3.9,1.07-1.43,2-2.68,2.9-3.89L174,43.83c1.13-.43,2-1,2.14-.79,1.82,1.69,4.46,1,6.28,2.07,2.14,1.27,3.77,3.41,5.66,5.13.63.58,1.51.91,2.07,1.54.89,1,3.11,1.35,1.71,3.68-.62,1-.35,2.61-.48,3.8l2.35.42c-2.19-2.67,2-3.41,1.61-5.62a16.3,16.3,0,0,1,2.84-.18,20,20,0,0,1,2.65.78c.95.24,2.14.14,2.81.7s.85,1.73,1.31,2.77c.15-1.3.29-2.52.52-4.49,1.43,1.22,2.35,2,3.29,2.82.61.51,1.26,1,1.89,1.49-.65-1.91-2.4-3.45.38-4.88l-1.11-.94,1.81-2.63c-2,.75-4.76.6-5.29-.86-.32-.89.57-2.47,1.32-3.44,1.26-1.65,2.45-3.25,2.71-5.38.15-1.27-.53-3,2.16-2.54,1,.17,2.24-1.4,3.4-2.13.06,0,.37.34.57.52l.45-.5a24.51,24.51,0,0,1-2.47-2.06c-1.31-1.37-1.06-2.22.58-3.13a2.71,2.71,0,0,0,1.24-1.55c.52-2.36.66-2.49,2.85-1.63l.2-3.3c1.84-1.06,1.74,3.13,3.59.9l-.87-1.33,2.1-1.33-.34-2,2.65.78L227.78,18c.09,3.52,2.13,2.95,3.82,2.95s3.21-.09,4.81-.18a5.72,5.72,0,0,0,1-.34c1.11-.27,2.22-.52,3.64-.85.49-1.95,2.18-1.12,3.81-.51-2.1-2.24-1.53-4.56-.9-6.92-.52-.18-1.39-.23-1.5-.55-.71-2-2.19-1.33-3.48-1.08a6.65,6.65,0,0,0-1.73.83L233,8.28l2.69-1.79,2.16,2.6-.41-2c.83-.07,1.7-.42,2.2-.12a13.22,13.22,0,0,1,2.95,2.44c1,1.05,1.83,1.62,3,.23a8.09,8.09,0,0,1,1.53-1.07c2.33,5.64,6.77,6,12,4.38l-.74,2.12c2.07-.74,3.58-.48,4.19,1.6.52-.19,1.23-.69,1.5-.52,1.92,1.26,3.58,1.21,4.9-.77,1.18,1.11,2.25,2.07,3.25,3.09,1.26,1.28,2.23.76,3.4-.24a8.79,8.79,0,0,1,2.75-1.15c.64-.22,1.35-.26,2-.51a9.68,9.68,0,0,0,1.5-.91c-1.35,2.27-1.35,2.27-.33,3.44l3-2.05c.11,1.54.2,2.84.29,4.13.72,0,1.34,0,2,0,1.1,0,2.34-1.61,1.75-2.53a17.72,17.72,0,0,0-2.34-2.47l4.4-1.46,1.82,4.07,1.43-.84c1.82,1,2.2,2.47.9,3.57a15.63,15.63,0,0,0-1.57,1.77c-.75.88-1.48,1.77-2.29,2.75l1.82,1.67-1.76.44c.65,1.89-.34,2.59-1.71,3.15-.08-.85-.15-1.54-.21-2.24-.86.71-1.63,1.29-2.35,1.93s-3.58-.69-2.23,2.17c-2.81,1.06-.45,2.54-.53,4l1.71-.91c-1.3,4.43-1.73,5.11-4.06,8.13-.95,1.23-1.38,2.87-2.38,4-1.41,1.64-1.36,3.19.47,4.25,3.3,1.9,7.39,2.72,9.17,6.7,2.94.81,4.48,4.85,8.34,3.65.28-.09.73.4,1.12.59,2,1,4,1.93,6,2.93a4.68,4.68,0,0,1,1.9,1.27c2.28,3.72,5.52,5.53,9.85,6.27,2.92.5,6.5,1.08,6.91,5.4.06.64,1.23,1.29,2,1.71,2,1.1,4.33,1.79,6.06,3.21a4.19,4.19,0,0,0,3.74,1c3.64-.7,7.57-1.77,8.49-6.71.31-1.69,1.8-3.13,2.5-4.79,1.19-2.84,2.74-5.69,3.1-8.66s.39-6,2-8.63a6.3,6.3,0,0,0,.68-5.38,12.17,12.17,0,0,1-.35-5.52c.38-1.89.58-3.42-.51-5.17-1.39-2.22.35-6.83,2.6-7.38-.41-1.71-.83-3.43-1.16-4.81a20.91,20.91,0,0,0,2.92-3.53c.94-1.85-1.68-2.13-1.95-3.69l2.54-5.3,1.37,1L359.79,3.7Z" transform="translate(-38.41 -0.89)" fill="#68e1fd" opacity="0.4" style="isolation:isolate"/><path d="M391.18,406h2.62l.14-.49c-1.56-.5-3.12-1-4.69-1.48-1-.28-2.1-.33-1.7-1.91a1.41,1.41,0,0,0-.62-1.14c-3.55-1.92-4.73-5.35-5.83-8.87-.53-1.69-1.24-3.31-1.88-5l3.12,1.9c-.1-.78,0-1.46-.23-1.63-3.37-2.33-3.36-6.5-5.26-9.64a31.81,31.81,0,0,1-3.05-7.68c-1.11-3.86.66-5.69,4.41-4.43a41.52,41.52,0,0,1,8.6,4.07c2.72,1.69,5.28,2.18,8.26,1,1.53-.63,3.2-.9,4.78-1.41,1.08-.35,2.1-.91,3.18-1.26a16,16,0,0,1,2.58-.56,9.43,9.43,0,0,0,1.88-.19c2.68-1.05,4.56.39,4.33,3.31s-.48,5.94-.5,8.92c0,1.87.39,3.75.56,5.63a7.21,7.21,0,0,1-.35,1.58l-1.18-2.12c-2.64,2.62-3.71,7.52-2.55,8.2a42.46,42.46,0,0,1-.05,4.85,7.59,7.59,0,0,1-1.1,2.28c-.63-.36-1.81-.78-1.78-1.05a8.05,8.05,0,0,1,1.22-2.42l-1-.79a26.64,26.64,0,0,1-2.74.59c-1.49.13-2.43,2.44-1.46,4a2.59,2.59,0,0,1-.24,3.57c-.59-1.37-1.16-2.68-1.73-4l-.45.3L397.15,406" transform="translate(-38.41 -0.89)" fill="#68e1fd" opacity="0.4" style="isolation:isolate"/><path d="M475.87,183.75,471.5,191l-.35,0a12,12,0,0,1,.34-3.42c.59-1.52.56-3.45,2.49-4.32.31-.14.13-1.3.23-2s.26-1.11.4-1.66l.6.17.66,2.56Z" transform="translate(-38.41 -0.89)" fill="#68e1fd"/><path d="M38.41,206.06c.39.12,1,.13,1.15.39a35.31,35.31,0,0,1,3.24,6.68l-4.39-5.32Z" transform="translate(-38.41 -0.89)" fill="#68e1fd"/><path d="M215.66,7.87l4.74,4.05.26-.15-1-1.74a21.39,21.39,0,0,0,3.45,0,3.57,3.57,0,0,0,2.19-1.1c1.2-1.78,2.57-.78,3.33,0,1.54,1.54,1.18,2.64-.48,4-1.31,1-2.42,2.35-3.69,3.45-.41.35-1.23.73-1.59.55C219.39,15.06,216.08,13.06,215.66,7.87Z" transform="translate(-38.41 -0.89)" fill="#68e1fd" opacity="0.4" style="isolation:isolate"/><path d="M293.59,42.41l2.78-.34v1.87l-6.68-1,.42-4.14a20.45,20.45,0,0,1,2.05-2.19c1.72-1.38,1.08.92,1.72,1.17l1.83-.38c-.29.59-.61,1.16-.86,1.75C294.45,40.13,294.09,41.11,293.59,42.41Z" transform="translate(-38.41 -0.89)" fill="#68e1fd" opacity="0.4" style="isolation:isolate"/><path d="M407.86,352.19c1.22,1.59,2.49,3.13,3.59,4.78a1.72,1.72,0,0,1-.35,1.64,2.7,2.7,0,0,1-2.07.63C406.81,358.47,406.07,354,407.86,352.19Z" transform="translate(-38.41 -0.89)" fill="#68e1fd" opacity="0.4" style="isolation:isolate"/><path d="M218.88,16l-1.77.16c-1.17.08-2.34.19-3.51.22a7.4,7.4,0,0,1-1.37-.23c.23-.44.34-1.08.7-1.3,1.52-.92,1.09-1.93.26-3.12l1.55-1.63C216.15,12.11,217.45,14,218.88,16Z" transform="translate(-38.41 -0.89)" fill="#68e1fd" opacity="0.4" style="isolation:isolate"/><path d="M366.49,357.73a46.18,46.18,0,0,1-1.06-4.88c-.05-.46.7-1,1.09-1.56.55.48,1.54.95,1.55,1.44a34.76,34.76,0,0,1-.47,4.86Z" transform="translate(-38.41 -0.89)" fill="#68e1fd" opacity="0.4" style="isolation:isolate"/><path d="M48.41,212.24c-2.41-1.31-4.07-4.1-3.81-6.39,3.73,2.73,3.73,2.73,3.75,6.45Z" transform="translate(-38.41 -0.89)" fill="#68e1fd"/><path d="M329,70.92l-2.19-.12c-1.82,2.88-2.55,3.17-4.17,1.56C324.35,69.74,326.63,69,329,70.92Z" transform="translate(-38.41 -0.89)" fill="#68e1fd" opacity="0.4" style="isolation:isolate"/><path d="M413.63,361.53l-2.83,2.35a9.25,9.25,0,0,1-1.68-1.23,1.86,1.86,0,0,1-.52-1.43c.1-.33.88-.68,1.3-.63A36.18,36.18,0,0,1,413.63,361.53Z" transform="translate(-38.41 -0.89)" fill="#68e1fd" opacity="0.4" style="isolation:isolate"/><path d="M242.51,4.15c.34,1.71.57,2.85.79,4C241.76,7.25,240.74,6.26,242.51,4.15Z" transform="translate(-38.41 -0.89)" fill="#68e1fd" opacity="0.4" style="isolation:isolate"/></g><path d="M396.78,288.39a3.66,3.66,0,0,1-1.26,2,8.46,8.46,0,0,1-4.27,1.42c-5.19.69-10.59.89-15.53-.84-2.74-.95-5-3.94-7.2-5.79a31.64,31.64,0,0,1-5.46-5.26c-7.33-10-16.77-19.36-20.8-30.6-5.63-15.8-8-33-10.16-49.73-2.19-16.41-.39-15.45-17-9.2-.83.33-1.62.76-2.45,1.15-8.79,4.63-11.38,10.6-7.79,19.83,2.66,6.93,5,14.47,9.41,20.18,9,11.45,7.4,21.08-.65,32.28-4.74,6.61-6.64,15.3-10.48,24.71h7.5a24.18,24.18,0,0,0-3.84,1.4c-2.33,1.11-4.49,2.58-7,3.3-4.2,1.15-8.83-.68-11.7-3.95,4.7-.5,7.75-2.44,8.26-9.77.43-6.21,3.77-12.71,7.32-18.1,5.32-8.11,4.78-15.9.61-23.59-4.67-8.58-10.23-16.66-15.47-24.92-3.81-6-8.26-11.74-11.35-18.14-3-6.14-6.93-9.48-13.86-9.05-2.09.15-4.21,0-6.29.18-17.63,1.26-23.7,11.46-17,28.34.5,1.25.36,2.73.65,4.85-8.48-1.58-11.06-6.14-9.77-13.47,3.09-17.2,2.87-16.91-10.74-26.47-4.52-3.16-8.11-7.93-11.42-12.49-5-6.83-11.31-8.91-19.46-7.8-2.76.4-5.82-1.18-8.73-1.83,1.4-2.4,2.23-5.78,4.31-7,12-7.14,24.21-13.79,36.38-20.61.83.93,1.62,1.9,2.44,2.84-1.25,2.69-1.87,6.21-4,7.9-5.46,4.38-3.12,8-.11,12.21,3.56,4.85,7.62,4.92,12.5,2.15,10.34-5.85,20.36-12.67,31.35-17,25.93-10.2,64.68,5.92,75.27,31.53,3.91,9.41,5.67,20.29,5.82,30.52.21,19.75,2.91,39,11.42,56.56A105.17,105.17,0,0,0,368,274.07a98.52,98.52,0,0,0,6.5,8.27c2,2.11,5.39,3.07,8.24,3.41a34.68,34.68,0,0,0,9-.33c1.66-.24,3.68-.37,4.66,1A2.46,2.46,0,0,1,396.78,288.39Z" transform="translate(-38.41 -0.89)" fill="#68e1fd" opacity="0.4" style="isolation:isolate"/><path d="M346.24,280.35s22.22.52,47.06,29.11l-8.95,1.59Z" transform="translate(-38.41 -0.89)" fill="#68e1fd"/><path d="M363.89,289.2s8.77-10.7,20.68-12c0,0,8.95,12.43,8.73,32.28H376.63Z" transform="translate(-38.41 -0.89)" fill="#68e1fd"/><path d="M337.24,305.49s-1.32-11.91,9-25.14c0,0,13.23,1.06,38.11,30.7H337.19Z" transform="translate(-38.41 -0.89)" fill="#68e1fd"/><path d="M338.79,309.46l0-4v-.1c0-.1-1-11,8.08-23.21,3,.79,14.74,5.1,34,27.36Z" transform="translate(-38.41 -0.89)" fill="#68e1fd"/><path d="M338.79,309.46l0-4v-.1c0-.1-1-11,8.08-23.21,3,.79,14.74,5.1,34,27.36Z" transform="translate(-38.41 -0.89)" fill="url(#linear-gradient)"/><path d="M384.35,311.05a46.78,46.78,0,0,0-18.29-24.15s19.73,7.7,27.24,22.56Z" transform="translate(-38.41 -0.89)" fill="#68e1fd"/><path d="M221.74,261.75s10.28-6.59,27.42-8.49c0,0,12.89,17.91,12.58,46.49h-24Z" transform="translate(-38.41 -0.89)" fill="#68e1fd"/><path d="M208,257.83s40.78,14.1,50.68,43.44h-37Z" transform="translate(-38.41 -0.89)" fill="#68e1fd"/><path d="M190.7,227.38s29.31,9.49,43.71,71.3l-3.55.31Z" transform="translate(-38.41 -0.89)" fill="#68e1fd"/><path d="M169.73,273.43s2.16-23.88,21-46.05c0,0,25.51,21.83,42.7,74.41l-65.62-17.46Z" transform="translate(-38.41 -0.89)" fill="#68e1fd"/><path d="M169.73,273.43s2.16-23.88,21-46.05c0,0,25.51,21.83,42.7,74.41l-65.62-17.46Z" transform="translate(-38.41 -0.89)" fill="url(#linear-gradient-2)"/><path d="M230.86,301.27l-23.13-.87L169.9,299,172,273.86l0-.19a78.19,78.19,0,0,1,5.73-20.33c1-2.4,2.18-4.93,3.56-7.53A90,90,0,0,1,191,231.06s4.78,4.5,11.88,14.88C210.55,257.07,220.87,275,230.86,301.27Z" transform="translate(-38.41 -0.89)" fill="#68e1fd"/><path d="M230.86,301.27l-23.13-.87L169.9,299,172,273.86l0-.19a78.19,78.19,0,0,1,5.73-20.33c1-2.4,2.18-4.93,3.56-7.53A90,90,0,0,1,191,231.06s4.78,4.5,11.88,14.88C210.55,257.07,220.87,275,230.86,301.27Z" transform="translate(-38.41 -0.89)" fill="url(#linear-gradient-3)"/><path d="M230.86,301.27l-23.13-.87-30-47.06-5.89-9.23a88.58,88.58,0,0,1,9.45,1.7,84.24,84.24,0,0,1,16.45,5.54l5.2-5.41C210.55,257.07,220.87,275,230.86,301.27Z" transform="translate(-38.41 -0.89)" fill="#68e1fd"/><path d="M158.86,291.23s-1.9-22.32,13-47.12c0,0,25.89,13.72,51.82,57.54H158.78Z" transform="translate(-38.41 -0.89)" fill="#68e1fd"/><path d="M158.86,291.23s-1.9-22.32,13-47.12c0,0,25.89,13.72,51.82,57.54H158.78Z" transform="translate(-38.41 -0.89)" fill="url(#linear-gradient-4)"/><path d="M218.69,298.68h-57.6l.06-7.6v-.18c0-.12-.58-7.91,2-19.2a89.43,89.43,0,0,1,3.94-12.6,91.56,91.56,0,0,1,5.65-11.72s4.72,2.13,12.62,8.76l.84.71C194.86,264.39,204.5,277.33,218.69,298.68Z" transform="translate(-38.41 -0.89)" fill="#68e1fd"/><path d="M218.69,298.68h-57.6l.06-7.6v-.18c0-.12-.58-7.91,2-19.2a89.43,89.43,0,0,1,3.94-12.6,91.56,91.56,0,0,1,5.65-11.72s4.72,2.13,12.62,8.76l.84.71C194.86,264.39,204.5,277.33,218.69,298.68Z" transform="translate(-38.41 -0.89)" fill="url(#linear-gradient-5)"/><path d="M218.69,298.68H179l-15.85-27L155,257.83a119.5,119.5,0,0,1,12.08,1.27,57.92,57.92,0,0,1,10.79,2.65,35.76,35.76,0,0,1,7.48-5.61l.84.71C194.86,264.39,204.5,277.33,218.69,298.68Z" transform="translate(-38.41 -0.89)" fill="#68e1fd"/><path d="M218.69,298.68H179l-15.85-27L155,257.83a119.5,119.5,0,0,1,12.08,1.27,57.92,57.92,0,0,1,10.79,2.65,35.76,35.76,0,0,1,7.48-5.61l.84.71C194.86,264.39,204.5,277.33,218.69,298.68Z" transform="translate(-38.41 -0.89)" fill="url(#linear-gradient-6)"/><path d="M142.09,294s-1.91-17.14,12.95-36.2c0,0,19.05,1.53,54.87,44.21H142Z" transform="translate(-38.41 -0.89)" fill="#68e1fd"/><path d="M142.09,294s-1.91-17.14,12.95-36.2c0,0,19.05,1.53,54.87,44.21H142Z" transform="translate(-38.41 -0.89)" fill="url(#linear-gradient-7)"/><path d="M144.32,299.75l.05-5.83v-.14c0-.15-1.5-15.86,11.64-33.43,4.36,1.14,21.21,7.35,49,39.4Z" transform="translate(-38.41 -0.89)" fill="#68e1fd"/><path d="M144.32,299.75l.05-5.83v-.14c0-.15-1.5-15.86,11.64-33.43,4.36,1.14,21.21,7.35,49,39.4Z" transform="translate(-38.41 -0.89)" fill="url(#linear-gradient-8)"/><polygon points="178.94 297.79 169.59 297.79 168.16 292.69 168.08 292.38 174.75 292.38 178.94 297.79" fill="#68e1fd"/><polygon points="177.18 297.79 169.59 297.79 168.16 292.69 173.22 292.69 177.18 297.79" fill="#68e1fd"/><polygon points="191.58 298.1 190.09 298.03 185.23 297.79 183.44 292.69 183.34 292.38 187.51 292.38 191.58 298.1" fill="#68e1fd"/><polygon points="190.09 298.03 185.23 297.79 183.44 292.69 186.28 292.69 190.09 298.03" fill="#68e1fd"/><polygon points="217.42 297.79 198.87 297.79 201.19 290.97 201.42 290.29 210.38 292.38 214.19 291.24 217.42 297.79" fill="#68e1fd"/><polygon points="216.43 297.79 198.87 297.79 201.19 290.97 209.66 292.95 213.47 291.81 216.43 297.79" fill="#68e1fd"/><polygon points="244.1 306.44 232.14 298.87 146.07 298.87 135.35 292.09 81.78 292.09 81.78 306.44 68.72 306.44 68.72 313.75 290.14 313.75 290.14 306.44 244.1 306.44" fill="#68e1fd"/><polygon points="244.1 306.44 232.14 298.87 146.07 298.87 135.35 292.09 81.78 292.09 81.78 306.44 68.72 306.44 68.72 313.75 290.14 313.75 290.14 306.44 244.1 306.44" fill="url(#linear-gradient-9)"/><path d="M281.28,254.43s12.14-7.78,32.4-10c0,0,15.23,21.16,14.86,54.94H300.18Z" transform="translate(-38.41 -0.89)" fill="#68e1fd"/><path d="M265.05,249.8s48.18,16.66,59.88,51.33H281.25Z" transform="translate(-38.41 -0.89)" fill="#68e1fd"/><path d="M265.05,249.8s48.18,16.66,59.88,51.33H281.25Z" transform="translate(-38.41 -0.89)" fill="url(#linear-gradient-10)"/><path d="M244.6,213.82s34.64,11.22,51.65,84.25l-4.19.36Z" transform="translate(-38.41 -0.89)" fill="#68e1fd"/><path d="M219.82,268.23s2.55-28.21,24.78-54.41c0,0,30.15,25.79,50.46,87.93l-77.54-20.64Z" transform="translate(-38.41 -0.89)" fill="#68e1fd"/><path d="M219.82,268.23s2.55-28.21,24.78-54.41c0,0,30.15,25.79,50.46,87.93l-77.54-20.64Z" transform="translate(-38.41 -0.89)" fill="url(#linear-gradient-11)"/><path d="M292.06,301.13l-27.34-1L220,298.43l2.44-29.69,0-.22c0-.17,1.07-10.4,6.77-24,1.19-2.84,2.58-5.83,4.21-8.9A105.47,105.47,0,0,1,245,218.17s5.65,5.32,14,17.58C268.05,248.9,280.25,270,292.06,301.13Z" transform="translate(-38.41 -0.89)" fill="#68e1fd"/><path d="M292.06,301.13l-27.34-1L220,298.43l2.44-29.69,0-.22c0-.17,1.07-10.4,6.77-24,1.19-2.84,2.58-5.83,4.21-8.9A105.47,105.47,0,0,1,245,218.17s5.65,5.32,14,17.58C268.05,248.9,280.25,270,292.06,301.13Z" transform="translate(-38.41 -0.89)" fill="url(#linear-gradient-12)"/><path d="M292.06,301.13l-27.34-1L229.25,244.5l-7-10.92a104.09,104.09,0,0,1,11.17,2,99.3,99.3,0,0,1,19.44,6.55l6.14-6.4C268.05,248.9,280.25,270,292.06,301.13Z" transform="translate(-38.41 -0.89)" fill="#68e1fd"/><path d="M207,289.27s-2.25-26.38,15.31-55.69c0,0,30.6,16.22,61.24,68H206.89Z" transform="translate(-38.41 -0.89)" fill="#68e1fd"/><path d="M207,289.27s-2.25-26.38,15.31-55.69c0,0,30.6,16.22,61.24,68H206.89Z" transform="translate(-38.41 -0.89)" fill="url(#linear-gradient-13)"/><path d="M277.68,298.07H209.62l.07-9,0-.21c0-.15-.68-9.35,2.41-22.7a106.4,106.4,0,0,1,11.33-28.72S229,240,238.33,247.8l1,.84C249.52,257.56,260.9,272.84,277.68,298.07Z" transform="translate(-38.41 -0.89)" fill="#68e1fd"/><path d="M277.68,298.07H209.62l.07-9,0-.21c0-.15-.68-9.35,2.41-22.7a106.4,106.4,0,0,1,11.33-28.72S229,240,238.33,247.8l1,.84C249.52,257.56,260.9,272.84,277.68,298.07Z" transform="translate(-38.41 -0.89)" fill="url(#linear-gradient-14)"/><path d="M277.68,298.07H230.82l-18.74-31.89-9.61-16.38a139.72,139.72,0,0,1,14.27,1.5,68.22,68.22,0,0,1,12.74,3.13,42.15,42.15,0,0,1,8.85-6.63l1,.84C249.52,257.56,260.9,272.84,277.68,298.07Z" transform="translate(-38.41 -0.89)" fill="#68e1fd"/><path d="M277.68,298.07H230.82l-18.74-31.89-9.61-16.38a139.72,139.72,0,0,1,14.27,1.5,68.22,68.22,0,0,1,12.74,3.13,42.15,42.15,0,0,1,8.85-6.63l1,.84C249.52,257.56,260.9,272.84,277.68,298.07Z" transform="translate(-38.41 -0.89)" fill="url(#linear-gradient-15)"/><path d="M187.16,292.58s-2.25-20.26,15.31-42.78c0,0,22.51,1.81,64.84,52.24H187.06Z" transform="translate(-38.41 -0.89)" fill="#68e1fd"/><path d="M189.79,299.34l.07-6.9,0-.16c0-.18-1.77-18.74,13.75-39.5,5.16,1.34,25.08,8.68,57.86,46.56Z" transform="translate(-38.41 -0.89)" fill="#68e1fd"/><path d="M189.79,299.34l.07-6.9,0-.16c0-.18-1.77-18.74,13.75-39.5,5.16,1.34,25.08,8.68,57.86,46.56Z" transform="translate(-38.41 -0.89)" fill="url(#linear-gradient-16)"/><polygon points="237.68 297.19 226.64 297.19 224.94 291.15 224.85 290.79 232.73 290.79 237.68 297.19" fill="#68e1fd"/><polygon points="235.6 297.19 226.64 297.19 224.94 291.15 230.93 291.15 235.6 297.19" fill="#68e1fd"/><polygon points="252.62 297.55 250.85 297.46 245.12 297.19 243 291.15 242.88 290.79 247.81 290.79 252.62 297.55" fill="#68e1fd"/><polygon points="250.85 297.46 245.12 297.19 243 291.15 246.36 291.15 250.85 297.46" fill="#68e1fd"/><polygon points="283.16 297.19 261.24 297.19 263.98 289.13 264.25 288.31 274.83 290.79 279.33 289.44 283.16 297.19" fill="#68e1fd"/><polygon points="281.98 297.19 261.24 297.19 263.98 289.13 273.98 291.47 278.48 290.12 281.98 297.19" fill="#68e1fd"/><polygon points="376.74 313.75 122.18 313.75 122.18 305.35 137.19 305.35 137.19 288.85 198.78 288.85 211.1 296.64 310.06 296.64 323.81 305.35 361.42 305.35 376.74 313.75" fill="#68e1fd"/><polygon points="376.74 313.75 122.18 313.75 122.18 305.35 137.19 305.35 137.19 288.85 198.78 288.85 211.1 296.64 310.06 296.64 323.81 305.35 361.42 305.35 376.74 313.75" fill="url(#linear-gradient-17)"/><polygon points="181.61 305.35 181.61 289.13 180.57 288.85 137.19 288.85 137.19 295.36 135.02 295.36 135.02 300.24 132.76 300.24 132.76 305.35 122.18 305.35 122.18 313.75 185.23 313.75 185.23 305.35 181.61 305.35" fill="#68e1fd"/><polygon points="181.61 305.35 181.61 289.13 180.57 288.85 137.19 288.85 137.19 295.36 135.02 295.36 135.02 300.24 132.76 300.24 132.76 305.35 122.18 305.35 122.18 313.75 185.23 313.75 185.23 305.35 181.61 305.35" fill="url(#linear-gradient-18)"/><rect x="139.89" y="293.15" width="40.39" height="2.2" fill="#68e1fd"/><rect x="137.19" y="298.04" width="42.19" height="2.2" fill="#68e1fd"/><rect x="135.39" y="302.92" width="43.1" height="2.2" fill="#68e1fd"/><rect x="85.7" y="296.08" width="40.39" height="2.2" fill="#68e1fd"/><rect x="208.15" y="304.02" width="58.36" height="1.1" fill="#68e1fd"/><rect x="289.25" y="304.02" width="22.31" height="1.1" fill="#68e1fd"/><polygon points="376.74 313.75 336.63 313.75 323.81 305.35 361.42 305.35 376.74 313.75" fill="#68e1fd"/><rect x="63.2" y="309.55" width="319.24" height="4.2" fill="#68e1fd"/></svg>