<svg id="Layer_1" data-name="Layer 1" xmlns="http://www.w3.org/2000/svg" xmlns:xlink="http://www.w3.org/1999/xlink" viewBox="0 0 688.75 424.62"><defs><clipPath id="clip-path" transform="translate(99.04 -38.67)"><path d="M499,344.08c-7.65,13.86-18.75,25.49-30.26,36.35C428,418.79,378,450.61,322.27,455.51c-21.79,1.92-43.7-.34-65.46-2.6C209.2,448,161.31,443,115.22,430c-16.2-4.55-32.36-10.19-46.08-19.92C33.6,384.9,21.53,338,16.94,294.66c-4.9-46.18-4-94.13,13-137.34,3.07-7.83,6.88-15.75,13.47-21,5.3-4.2,11.91-6.29,18.21-8.75,36.32-14.17,65.65-42.67,102-56.85,16.81-6.56,34.7-9.88,52.56-12.45,38.23-5.52,77.42-7.78,115.32-.32a230.14,230.14,0,0,1,122,67.42C503.82,178.79,537.26,274.65,499,344.08Z" fill="none"/></clipPath><linearGradient id="linear-gradient" x1="422.68" y1="203.62" x2="430.21" y2="99.71" gradientUnits="userSpaceOnUse"><stop offset="0.02" stop-color="#fff" stop-opacity="0"/><stop offset="0.49" stop-color="#fff" stop-opacity="0.68"/><stop offset="1" stop-color="#fff"/></linearGradient><linearGradient id="linear-gradient-2" x1="6578.37" y1="235.15" x2="6583.62" y2="162.73" gradientTransform="matrix(-1, 0, 0, 1, 6635.29, 0)" xlink:href="#linear-gradient"/><linearGradient id="linear-gradient-3" x1="6617.93" y1="191.76" x2="6623.18" y2="119.34" gradientTransform="matrix(-1, 0, 0, 1, 6635.29, 0)" xlink:href="#linear-gradient"/><linearGradient id="linear-gradient-4" x1="354.77" y1="223.23" x2="362.42" y2="529.5" gradientUnits="userSpaceOnUse"><stop offset="0.01"/><stop offset="0.13" stop-opacity="0.69"/><stop offset="1" stop-opacity="0"/></linearGradient><linearGradient id="linear-gradient-5" x1="255.01" y1="327.69" x2="257.56" y2="441.91" xlink:href="#linear-gradient-4"/><linearGradient id="linear-gradient-6" x1="561.5" y1="272.62" x2="592.76" y2="233.38" xlink:href="#linear-gradient-4"/><linearGradient id="linear-gradient-7" x1="571.99" y1="247.12" x2="581.56" y2="229.46" xlink:href="#linear-gradient-4"/><linearGradient id="linear-gradient-8" x1="559.51" y1="244.87" x2="565.3" y2="238.22" xlink:href="#linear-gradient-4"/><linearGradient id="linear-gradient-9" x1="536.46" y1="220.24" x2="543.69" y2="318.5" xlink:href="#linear-gradient-4"/><linearGradient id="linear-gradient-10" x1="381.55" y1="189.25" x2="368.36" y2="311.76" xlink:href="#linear-gradient-4"/><linearGradient id="linear-gradient-11" x1="377.03" y1="208.92" x2="375.54" y2="174.68" xlink:href="#linear-gradient-4"/><linearGradient id="linear-gradient-12" x1="376.75" y1="197.75" x2="376.97" y2="182.33" xlink:href="#linear-gradient-4"/><linearGradient id="linear-gradient-13" x1="375.93" y1="194.88" x2="377.53" y2="173.08" xlink:href="#linear-gradient-4"/><linearGradient id="linear-gradient-14" x1="386.68" y1="170.33" x2="366.9" y2="303.68" xlink:href="#linear-gradient-4"/><linearGradient id="linear-gradient-15" x1="390.39" y1="170.88" x2="370.61" y2="304.23" xlink:href="#linear-gradient-4"/><linearGradient id="linear-gradient-16" x1="394.45" y1="171.48" x2="374.67" y2="304.83" xlink:href="#linear-gradient-4"/><linearGradient id="linear-gradient-17" x1="399.12" y1="172.17" x2="379.34" y2="305.52" xlink:href="#linear-gradient-4"/><linearGradient id="linear-gradient-18" x1="301.01" y1="270.47" x2="413.95" y2="199.65" xlink:href="#linear-gradient-4"/><linearGradient id="linear-gradient-19" x1="372.69" y1="195.04" x2="347.81" y2="336.05" xlink:href="#linear-gradient-4"/><linearGradient id="linear-gradient-20" x1="277.52" y1="252.85" x2="321.54" y2="221.91" xlink:href="#linear-gradient-4"/><linearGradient id="linear-gradient-21" x1="276.64" y1="217.03" x2="288.55" y2="265.95" xlink:href="#linear-gradient-4"/><linearGradient id="linear-gradient-22" x1="228.82" y1="213.86" x2="229.25" y2="192.06" xlink:href="#linear-gradient-4"/><linearGradient id="linear-gradient-23" x1="231.72" y1="322.2" x2="235.55" y2="162.37" xlink:href="#linear-gradient-4"/><linearGradient id="linear-gradient-24" x1="246.71" y1="207.12" x2="243.21" y2="299.64" xlink:href="#linear-gradient-4"/><linearGradient id="linear-gradient-25" x1="214.47" y1="289.64" x2="206.5" y2="160.12" xlink:href="#linear-gradient-4"/><linearGradient id="linear-gradient-26" x1="171.91" y1="209.38" x2="171.91" y2="190.56" xlink:href="#linear-gradient-4"/><linearGradient id="linear-gradient-27" x1="179.31" y1="291.75" x2="172.61" y2="231.77" xlink:href="#linear-gradient-4"/><linearGradient id="linear-gradient-28" x1="207.76" y1="242.51" x2="104.4" y2="244.21" xlink:href="#linear-gradient-4"/><linearGradient id="linear-gradient-29" x1="235.17" y1="240.67" x2="419.57" y2="393.17" xlink:href="#linear-gradient-4"/><linearGradient id="linear-gradient-30" x1="272.49" y1="257.12" x2="271.85" y2="228.62" xlink:href="#linear-gradient-4"/><linearGradient id="linear-gradient-31" x1="226.92" y1="290.95" x2="226.92" y2="201.94" xlink:href="#linear-gradient-4"/><linearGradient id="linear-gradient-32" x1="377.64" y1="295.14" x2="376.36" y2="212.83" xlink:href="#linear-gradient-4"/><linearGradient id="linear-gradient-33" x1="383.56" y1="280.84" x2="332.09" y2="221.29" xlink:href="#linear-gradient-4"/><linearGradient id="linear-gradient-34" x1="377.47" y1="246.59" x2="378.1" y2="207.67" xlink:href="#linear-gradient-4"/><linearGradient id="linear-gradient-35" x1="395.98" y1="278.74" x2="438.52" y2="137.09" xlink:href="#linear-gradient-4"/><linearGradient id="linear-gradient-36" x1="406.04" y1="281.76" x2="448.58" y2="140.11" xlink:href="#linear-gradient-4"/><linearGradient id="linear-gradient-37" x1="272.78" y1="207.06" x2="285.54" y2="239.37" xlink:href="#linear-gradient-4"/><linearGradient id="linear-gradient-38" x1="269.86" y1="209.43" x2="279.82" y2="234.68" xlink:href="#linear-gradient-4"/><linearGradient id="linear-gradient-39" x1="507.46" y1="292.94" x2="381.13" y2="81.43" xlink:href="#linear-gradient-4"/><linearGradient id="linear-gradient-40" x1="446.57" y1="217" x2="629.48" y2="154.47" xlink:href="#linear-gradient-4"/><linearGradient id="linear-gradient-41" x1="466.77" y1="253.68" x2="562.8" y2="256.23" xlink:href="#linear-gradient-4"/><linearGradient id="linear-gradient-42" x1="445.93" y1="252.59" x2="582.7" y2="256.23" xlink:href="#linear-gradient-4"/><linearGradient id="linear-gradient-43" x1="420.36" y1="219.66" x2="539.04" y2="116.94" xlink:href="#linear-gradient-4"/><linearGradient id="linear-gradient-44" x1="452.3" y1="230.56" x2="452.73" y2="249.65" xlink:href="#linear-gradient-4"/><linearGradient id="linear-gradient-45" x1="429.06" y1="241.02" x2="433.85" y2="214.7" xlink:href="#linear-gradient-4"/><linearGradient id="linear-gradient-46" x1="430.88" y1="222.99" x2="430.88" y2="272.12" xlink:href="#linear-gradient-4"/><linearGradient id="linear-gradient-47" x1="260.41" y1="377.54" x2="261.37" y2="221.53" xlink:href="#linear-gradient-4"/><linearGradient id="linear-gradient-48" x1="311.19" y1="307.91" x2="310.55" y2="203.26" xlink:href="#linear-gradient-4"/><linearGradient id="linear-gradient-49" x1="543.03" y1="291.06" x2="547.71" y2="252.13" xlink:href="#linear-gradient-4"/><linearGradient id="linear-gradient-50" x1="518.24" y1="306.12" x2="315.34" y2="750.21" xlink:href="#linear-gradient-4"/><linearGradient id="linear-gradient-51" x1="218.24" y1="298.76" x2="15.33" y2="742.85" xlink:href="#linear-gradient-4"/><linearGradient id="linear-gradient-52" x1="415.22" y1="259.04" x2="212.31" y2="703.13" xlink:href="#linear-gradient-4"/><linearGradient id="linear-gradient-53" x1="34.65" y1="315.15" x2="34.01" y2="431.28" xlink:href="#linear-gradient-4"/><linearGradient id="linear-gradient-54" x1="164.75" y1="342.23" x2="172.41" y2="423.9" xlink:href="#linear-gradient-4"/><linearGradient id="linear-gradient-55" x1="324.9" y1="271.37" x2="392.53" y2="668.88" xlink:href="#linear-gradient-4"/><linearGradient id="linear-gradient-56" x1="483.57" y1="319.27" x2="490.59" y2="411.15" xlink:href="#linear-gradient-4"/><linearGradient id="linear-gradient-57" x1="321.06" y1="293.32" x2="375.08" y2="238.45" xlink:href="#linear-gradient-4"/><linearGradient id="linear-gradient-58" x1="518.48" y1="288.69" x2="562.72" y2="269.97" xlink:href="#linear-gradient-4"/><linearGradient id="linear-gradient-59" x1="205.67" y1="290.95" x2="205.67" y2="201.94" xlink:href="#linear-gradient-4"/><linearGradient id="linear-gradient-60" x1="453.72" y1="118.35" x2="453.72" y2="171.95" xlink:href="#linear-gradient-4"/><linearGradient id="linear-gradient-61" x1="574.94" y1="300.15" x2="576.65" y2="224.85" xlink:href="#linear-gradient-4"/><linearGradient id="linear-gradient-62" x1="331.4" y1="291.28" x2="405.84" y2="259.8" xlink:href="#linear-gradient-4"/><linearGradient id="linear-gradient-63" x1="224.67" y1="303.76" x2="239.4" y2="303.76" xlink:href="#linear-gradient-4"/><linearGradient id="linear-gradient-64" x1="242.86" y1="303.76" x2="257.58" y2="303.76" xlink:href="#linear-gradient-4"/><linearGradient id="linear-gradient-65" x1="431.46" y1="298.26" x2="496.97" y2="157.46" xlink:href="#linear-gradient-4"/><linearGradient id="linear-gradient-66" x1="481.76" y1="314.34" x2="541.1" y2="226.93" xlink:href="#linear-gradient-4"/><linearGradient id="linear-gradient-67" x1="423.8" y1="303.76" x2="438.53" y2="303.76" xlink:href="#linear-gradient-4"/><linearGradient id="linear-gradient-68" x1="396.92" y1="303.76" x2="411.65" y2="303.76" xlink:href="#linear-gradient-4"/><linearGradient id="linear-gradient-69" x1="398.63" y1="285.36" x2="284.41" y2="359.37" xlink:href="#linear-gradient-4"/><linearGradient id="linear-gradient-70" x1="581.54" y1="285.36" x2="467.32" y2="359.37" xlink:href="#linear-gradient-4"/><linearGradient id="linear-gradient-71" x1="245.07" y1="285.36" x2="130.85" y2="359.37" xlink:href="#linear-gradient-4"/><linearGradient id="linear-gradient-72" x1="452.3" y1="166.17" x2="452.73" y2="185.26" xlink:href="#linear-gradient-4"/><linearGradient id="linear-gradient-73" x1="452.3" y1="196.32" x2="452.73" y2="215.41" xlink:href="#linear-gradient-4"/><linearGradient id="linear-gradient-74" x1="430.7" y1="227.21" x2="430.28" y2="284.85" xlink:href="#linear-gradient-4"/><linearGradient id="linear-gradient-75" x1="430.73" y1="227.21" x2="430.3" y2="284.85" xlink:href="#linear-gradient-4"/><linearGradient id="linear-gradient-76" x1="430.75" y1="227.21" x2="430.33" y2="284.85" xlink:href="#linear-gradient-4"/><linearGradient id="linear-gradient-77" x1="430.77" y1="227.21" x2="430.35" y2="284.85" xlink:href="#linear-gradient-4"/><linearGradient id="linear-gradient-78" x1="430.8" y1="227.21" x2="430.37" y2="284.85" xlink:href="#linear-gradient-4"/><linearGradient id="linear-gradient-79" x1="430.82" y1="227.21" x2="430.4" y2="284.85" xlink:href="#linear-gradient-4"/></defs><title>Boston</title><g clip-path="url(#clip-path)"><rect x="93.63" width="530.83" height="355.71" fill="#68e1fd" opacity="0.32" style="isolation:isolate"/><path d="M589.71,228v0a218.72,218.72,0,0,1-7.36,36.67c-50.77,3.11-101.86-3.05-152.81-4.95-52.46-2-105,.57-157.45-2-4.67-.23-10-.83-12.71-4.61s-1.67-9.33-3.71-13.63c-1.11-2.34-3.13-4.24-3.64-6.75-.66-3.15,1.15-6.22,2.88-8.89q18-27.88,37.3-54.93c3.18-4.45,6.5-9,11.19-11.88s11.07-3.61,15.49-.34a9.17,9.17,0,0,1,8.68-6.84c1.4,0,2.88.33,4.16-.25,1.52-.67,2.21-2.4,3-3.84,3.72-6.49,12.9-9.14,19.5-5.66a30.75,30.75,0,0,1,25.09-11.37c11.75.56,22.17,7.86,33.79,9.7a42,42,0,0,0,17.93-1.23c3.24-.9,6.47-2.19,9.83-2.44a16.67,16.67,0,0,1,9.06,2c1.25.67,2.49,1.55,3.91,1.57,1.62,0,3-1.09,4.3-2.07a49,49,0,0,1,42.66-7.74c2.31.67,4.67,1.56,7.05,1.35,3.34-.27,6.12-2.52,8.81-4.5.75-.53,1.51-1.07,2.28-1.59h0a224,224,0,0,1,26,29.87C561.87,177.08,574,203.82,589.71,228Z" transform="translate(99.04 -38.67)" fill="url(#linear-gradient)"/><path d="M-59.49,252.13v0a153,153,0,0,0,5.13,25.55c35.39,2.17,71-2.13,106.5-3.45,36.56-1.38,73.2.4,109.73-1.42,3.25-.16,6.95-.57,8.86-3.21s1.16-6.5,2.58-9.5c.78-1.63,2.18-3,2.54-4.71.46-2.19-.8-4.33-2-6.19q-12.58-19.42-26-38.28c-2.22-3.11-4.53-6.29-7.8-8.28s-7.72-2.52-10.79-.24a6.4,6.4,0,0,0-6-4.77,7.09,7.09,0,0,1-2.91-.17c-1-.47-1.53-1.67-2.11-2.68a10.58,10.58,0,0,0-13.59-3.94,21.41,21.41,0,0,0-17.49-7.92c-8.19.38-15.45,5.47-23.55,6.75a29.17,29.17,0,0,1-12.49-.85,35.74,35.74,0,0,0-6.85-1.7,11.56,11.56,0,0,0-6.32,1.39,6.33,6.33,0,0,1-2.73,1.1,5.24,5.24,0,0,1-3-1.45,34.1,34.1,0,0,0-29.73-5.39,13.8,13.8,0,0,1-4.91.94c-2.33-.19-4.27-1.76-6.14-3.14l-1.6-1.11h0A156.76,156.76,0,0,0-28.3,200.3C-40.09,216.65-48.55,235.29-59.49,252.13Z" transform="translate(99.04 -38.67)" fill="url(#linear-gradient-2)"/><path d="M-99,208.74v0a152,152,0,0,0,5.12,25.55c35.39,2.17,71-2.12,106.5-3.45,36.56-1.38,73.2.4,109.73-1.42,3.25-.16,6.95-.57,8.86-3.21s1.16-6.5,2.58-9.5c.78-1.63,2.18-2.95,2.55-4.71.45-2.19-.81-4.33-2-6.19q-12.58-19.43-26-38.28c-2.22-3.1-4.53-6.29-7.8-8.28s-7.72-2.52-10.79-.24a6.4,6.4,0,0,0-6-4.77,7.09,7.09,0,0,1-2.91-.17c-1-.47-1.53-1.67-2.11-2.67A10.58,10.58,0,0,0,65,147.47a21.44,21.44,0,0,0-17.49-7.92C39.36,139.94,32.1,145,24,146.3a29.17,29.17,0,0,1-12.49-.85,35.74,35.74,0,0,0-6.85-1.7,11.65,11.65,0,0,0-6.32,1.39,6.33,6.33,0,0,1-2.73,1.1,5.24,5.24,0,0,1-3-1.45,34.1,34.1,0,0,0-29.73-5.39,13.8,13.8,0,0,1-4.91.94c-2.33-.19-4.27-1.76-6.14-3.13-.53-.38-1.06-.75-1.6-1.11h0a156,156,0,0,0-18.09,20.81C-79.65,173.26-88.11,191.9-99,208.74Z" transform="translate(99.04 -38.67)" fill="url(#linear-gradient-3)"/><rect x="92.31" y="311.39" width="532.15" height="113.23" fill="#68e1fd"/><rect x="92.31" y="311.39" width="532.15" height="113.23" opacity="0.58" fill="url(#linear-gradient-4)"/><path d="M-13.5,383.16c18.88,7,39.31,8.56,59.44,9.42,90.88,3.91,181.81-4.12,272.75-6.22,65.64-1.51,131.34.07,197-2.43,2.81-.11,5.81-.29,8.06-2s3.09-5.49.91-7.27a1445.85,1445.85,0,0,1-170.11-4.9A52.83,52.83,0,0,0,377,367.65q-40.78-1.57-81.61,0,24.88,1.72,49.66,4.5c-6.21,5.5-15.34,5.7-23.63,5.59-45.51-.58-91-1.36-136.5.55-27.08,1.14-54.31,3.24-81.36.48-23.27-2.37-45.89-2.2-69.36-.81Q10.23,379.41-13.5,383.16Z" transform="translate(99.04 -38.67)" opacity="0.58" fill="url(#linear-gradient-5)"/><rect x="581.86" y="244.37" width="6.22" height="33.98" fill="#68e1fd"/><rect x="559.53" y="243.73" width="22.33" height="34.61" fill="#68e1fd"/><rect x="559.56" y="243.73" width="22.33" height="34.61" opacity="0.58" fill="url(#linear-gradient-6)"/><rect x="569.02" y="238.47" width="12.36" height="5.42" fill="#68e1fd"/><rect x="569.02" y="238.47" width="12.36" height="5.42" opacity="0.58" fill="url(#linear-gradient-7)"/><rect x="559.55" y="241.26" width="4.04" height="2.5" fill="#68e1fd"/><rect x="559.55" y="241.26" width="4.04" height="2.5" opacity="0.58" fill="url(#linear-gradient-8)"/><rect x="518.54" y="232.14" width="41" height="46.21" fill="#68e1fd"/><rect x="518.54" y="232.14" width="41" height="46.21" opacity="0.58" fill="url(#linear-gradient-9)"/><rect x="356.26" y="200.02" width="40.62" height="71.04" fill="#68e1fd"/><rect x="356.26" y="200.02" width="40.62" height="71.04" opacity="0.58" fill="url(#linear-gradient-10)"/><rect x="357.85" y="194.07" width="37.33" height="6.17" fill="#68e1fd"/><rect x="357.85" y="194.07" width="37.33" height="6.17" opacity="0.58" fill="url(#linear-gradient-11)"/><rect x="361.73" y="187.58" width="30.23" height="6.51" fill="#68e1fd"/><rect x="361.73" y="187.58" width="30.23" height="6.51" opacity="0.58" fill="url(#linear-gradient-12)"/><rect x="364.92" y="181.36" width="23.53" height="6.3" fill="#68e1fd"/><rect x="364.92" y="181.36" width="23.53" height="6.3" opacity="0.58" fill="url(#linear-gradient-13)"/><rect x="380.72" y="181.2" width="7.74" height="6.46" fill="#68e1fd"/><rect x="382.95" y="187.58" width="9.01" height="6.14" fill="#68e1fd"/><rect x="386.14" y="194.07" width="9.04" height="5.88" fill="#68e1fd"/><rect x="387.58" y="200.02" width="9.31" height="37.17" fill="#68e1fd"/><rect x="380.72" y="181.2" width="7.74" height="6.46" opacity="0.58" fill="url(#linear-gradient-14)"/><rect x="382.95" y="187.58" width="9.01" height="6.14" opacity="0.58" fill="url(#linear-gradient-15)"/><rect x="386.14" y="194.07" width="9.04" height="5.88" opacity="0.58" fill="url(#linear-gradient-16)"/><rect x="387.58" y="200.02" width="9.31" height="37.17" opacity="0.58" fill="url(#linear-gradient-17)"/><rect x="326.16" y="214.59" width="21.59" height="66.67" fill="#68e1fd"/><rect x="347.75" y="214.55" width="28.07" height="84.6" fill="#68e1fd"/><rect x="326.16" y="214.59" width="21.59" height="66.67" opacity="0.58" fill="url(#linear-gradient-18)"/><rect x="347.75" y="214.55" width="28.07" height="84.6" opacity="0.58" fill="url(#linear-gradient-19)"/><rect x="349.93" y="216.88" width="23.93" height="0.54" fill="#fff" opacity="0.25"/><rect x="349.93" y="218.44" width="23.93" height="0.54" fill="#fff" opacity="0.25"/><rect x="349.93" y="220" width="23.93" height="0.54" fill="#fff" opacity="0.25"/><rect x="349.93" y="221.56" width="23.93" height="0.54" fill="#fff" opacity="0.25"/><rect x="349.93" y="223.13" width="23.93" height="0.54" fill="#fff" opacity="0.25"/><rect x="349.93" y="224.69" width="23.93" height="0.54" fill="#fff" opacity="0.25"/><rect x="349.93" y="226.37" width="23.93" height="0.54" fill="#fff" opacity="0.25"/><rect x="349.93" y="227.93" width="23.93" height="0.54" fill="#fff" opacity="0.25"/><rect x="349.93" y="229.49" width="23.93" height="0.54" fill="#fff" opacity="0.25"/><rect x="349.93" y="231.05" width="23.93" height="0.54" fill="#fff" opacity="0.25"/><rect x="349.93" y="232.62" width="23.93" height="0.54" fill="#fff" opacity="0.25"/><rect x="349.93" y="234.18" width="23.93" height="0.54" fill="#fff" opacity="0.25"/><rect x="349.93" y="235.86" width="23.93" height="0.54" fill="#fff" opacity="0.25"/><rect x="349.93" y="237.42" width="23.93" height="0.54" fill="#fff" opacity="0.25"/><rect x="349.93" y="238.98" width="23.93" height="0.54" fill="#fff" opacity="0.25"/><rect x="349.93" y="240.55" width="23.93" height="0.54" fill="#fff" opacity="0.25"/><rect x="349.93" y="242.11" width="23.93" height="0.54" fill="#fff" opacity="0.25"/><rect x="349.93" y="243.67" width="23.93" height="0.54" fill="#fff" opacity="0.25"/><rect x="349.93" y="245.35" width="23.93" height="0.54" fill="#fff" opacity="0.25"/><rect x="349.93" y="246.91" width="23.93" height="0.54" fill="#fff" opacity="0.25"/><rect x="349.93" y="248.48" width="23.93" height="0.54" fill="#fff" opacity="0.25"/><rect x="349.93" y="250.04" width="23.93" height="0.54" fill="#fff" opacity="0.25"/><rect x="349.93" y="251.6" width="23.93" height="0.54" fill="#fff" opacity="0.25"/><rect x="349.93" y="253.16" width="23.93" height="0.54" fill="#fff" opacity="0.25"/><rect x="349.93" y="254.84" width="23.93" height="0.54" fill="#fff" opacity="0.25"/><rect x="349.93" y="256.41" width="23.93" height="0.54" fill="#fff" opacity="0.25"/><rect x="349.93" y="257.97" width="23.93" height="0.54" fill="#fff" opacity="0.25"/><rect x="349.93" y="259.53" width="23.93" height="0.54" fill="#fff" opacity="0.25"/><rect x="349.93" y="261.09" width="23.93" height="0.54" fill="#fff" opacity="0.25"/><rect x="349.93" y="262.65" width="23.93" height="0.54" fill="#fff" opacity="0.25"/><rect x="282.53" y="219.25" width="27.04" height="41.15" fill="#68e1fd"/><rect x="282.53" y="219.25" width="27.04" height="41.15" opacity="0.58" fill="url(#linear-gradient-20)"/><rect x="277.19" y="234.16" width="18.18" height="44.98" fill="#68e1fd"/><polyline points="277.19 279.14 277.19 234.16 295.38 234.16" opacity="0.58" fill="url(#linear-gradient-21)"/><rect x="220.99" y="203.85" width="15.95" height="5.53" fill="#68e1fd"/><rect x="220.99" y="203.85" width="15.95" height="5.53" opacity="0.58" fill="url(#linear-gradient-22)"/><rect x="204.19" y="207.89" width="58.7" height="76.97" fill="#68e1fd"/><rect x="204.19" y="207.89" width="58.7" height="76.97" opacity="0.58" fill="url(#linear-gradient-23)"/><rect x="233.7" y="207.89" width="23.93" height="54.08" opacity="0.58" fill="url(#linear-gradient-24)"/><rect x="204.45" y="208.32" width="13.24" height="52.16" opacity="0.58" fill="url(#linear-gradient-25)"/><rect x="157.24" y="198.59" width="29.35" height="4.15" fill="#68e1fd"/><rect x="157.24" y="198.59" width="29.35" height="4.15" opacity="0.58" fill="url(#linear-gradient-26)"/><rect x="151.01" y="201.73" width="45.73" height="82.84" fill="#68e1fd"/><rect x="151.01" y="201.73" width="45.73" height="82.84" opacity="0.58" fill="url(#linear-gradient-27)"/><rect x="151.01" y="201.95" width="22.65" height="82.62" opacity="0.58" fill="url(#linear-gradient-28)"/><rect x="243.96" y="246.6" width="46.15" height="40.84" fill="#68e1fd"/><rect x="243.96" y="246.6" width="46.15" height="40.84" opacity="0.58" fill="url(#linear-gradient-29)"/><rect x="259.91" y="240.97" width="24.57" height="5.96" fill="#68e1fd"/><rect x="259.91" y="240.97" width="24.57" height="5.96" opacity="0.58" fill="url(#linear-gradient-30)"/><rect x="214.66" y="246.39" width="24.51" height="35.94" fill="#68e1fd"/><rect x="214.66" y="246.39" width="24.51" height="35.94" opacity="0.58" fill="url(#linear-gradient-31)"/><rect x="302.45" y="227.25" width="21.06" height="36.16" fill="#68e1fd"/><rect x="355.19" y="233.2" width="43.71" height="48.03" fill="#68e1fd"/><rect x="355.19" y="233.2" width="43.71" height="48.03" opacity="0.58" fill="url(#linear-gradient-32)"/><rect x="355.19" y="233.2" width="15.89" height="48.03" opacity="0.58" fill="url(#linear-gradient-33)"/><rect x="362.64" y="226.61" width="30.2" height="6.81" fill="#68e1fd"/><rect x="362.64" y="226.61" width="30.2" height="6.81" opacity="0.58" fill="url(#linear-gradient-34)"/><rect x="399.43" y="223.42" width="10.42" height="52.96" fill="#68e1fd"/><rect x="409.85" y="223.52" width="11.49" height="52.85" fill="#68e1fd"/><rect x="399.43" y="223.42" width="10.42" height="52.96" opacity="0.58" fill="url(#linear-gradient-35)"/><rect x="409.85" y="223.52" width="11.49" height="52.85" opacity="0.58" fill="url(#linear-gradient-36)"/><path d="M371.78,174.5h9.81a6.86,6.86,0,0,1,6.86,6.86v0a0,0,0,0,1,0,0H364.92a0,0,0,0,1,0,0v0a6.86,6.86,0,0,1,6.86-6.86Z" fill="#68e1fd"/><path d="M289.4,220H265.88a6.85,6.85,0,0,1,6.86-6.85h9.81A6.85,6.85,0,0,1,289.4,220Z" transform="translate(99.04 -38.67)" opacity="0.58" fill="url(#linear-gradient-37)"/><path d="M281.68,220h-15.8a6.85,6.85,0,0,1,6.86-6.85h2.07A6.86,6.86,0,0,1,281.68,220Z" transform="translate(99.04 -38.67)" opacity="0.58" fill="url(#linear-gradient-38)"/><rect x="426.66" y="142.28" width="53.28" height="119.96" fill="#68e1fd"/><rect x="426.66" y="142.28" width="53.28" height="119.96" opacity="0.58" fill="url(#linear-gradient-39)"/><rect x="478.13" y="139.62" width="29.99" height="122.93" fill="#68e1fd"/><rect x="478.13" y="139.62" width="29.99" height="122.93" opacity="0.58" fill="url(#linear-gradient-40)"/><rect x="478.18" y="227.14" width="40.36" height="54.12" fill="#68e1fd"/><rect x="478.18" y="227.14" width="16.37" height="54.12" opacity="0.58" fill="url(#linear-gradient-41)"/><rect x="494.45" y="227.14" width="23.92" height="54.12" opacity="0.58" fill="url(#linear-gradient-42)"/><rect x="518.43" y="228.42" width="22.23" height="3.72" fill="#68e1fd"/><rect x="478.2" y="221.56" width="15.62" height="6.06" fill="#68e1fd"/><rect x="502.11" y="221.88" width="16.43" height="5.26" fill="#68e1fd"/><rect x="426.66" y="142.81" width="27.01" height="119.42" fill="#68e1fd"/><rect x="426.66" y="142.81" width="27.01" height="119.42" opacity="0.58" fill="url(#linear-gradient-43)"/><rect x="456.49" y="212.04" width="19.94" height="1.44" fill="#fff" opacity="0.25"/><rect x="456.49" y="216.19" width="19.94" height="1.44" fill="#fff" opacity="0.25"/><rect x="456.49" y="220.34" width="19.94" height="1.44" fill="#fff" opacity="0.25"/><rect x="456.49" y="224.48" width="19.94" height="1.44" fill="#fff" opacity="0.25"/><rect x="456.49" y="228.63" width="19.94" height="1.44" fill="#fff" opacity="0.25"/><rect x="456.49" y="232.78" width="19.94" height="1.44" fill="#fff" opacity="0.25"/><rect x="483.07" y="143.98" width="19.94" height="0.85" fill="#fff" opacity="0.25"/><rect x="483.07" y="146.44" width="19.94" height="0.85" fill="#fff" opacity="0.25"/><rect x="483.07" y="148.9" width="19.94" height="0.85" fill="#fff" opacity="0.25"/><rect x="483.07" y="151.37" width="19.94" height="0.85" fill="#fff" opacity="0.25"/><rect x="483.07" y="153.83" width="19.94" height="0.85" fill="#fff" opacity="0.25"/><rect x="483.07" y="156.29" width="19.94" height="0.85" fill="#fff" opacity="0.25"/><rect x="483.07" y="158.44" width="19.94" height="0.85" fill="#fff" opacity="0.25"/><rect x="483.07" y="160.9" width="19.94" height="0.85" fill="#fff" opacity="0.25"/><rect x="483.07" y="163.37" width="19.94" height="0.85" fill="#fff" opacity="0.25"/><rect x="483.07" y="165.83" width="19.94" height="0.85" fill="#fff" opacity="0.25"/><rect x="483.07" y="168.29" width="19.94" height="0.85" fill="#fff" opacity="0.25"/><rect x="483.07" y="170.75" width="19.94" height="0.85" fill="#fff" opacity="0.25"/><rect x="483.07" y="172.91" width="19.94" height="0.85" fill="#fff" opacity="0.25"/><rect x="483.07" y="175.37" width="19.94" height="0.85" fill="#fff" opacity="0.25"/><rect x="483.07" y="177.83" width="19.94" height="0.85" fill="#fff" opacity="0.25"/><rect x="483.07" y="180.29" width="19.94" height="0.85" fill="#fff" opacity="0.25"/><rect x="483.07" y="182.75" width="19.94" height="0.85" fill="#fff" opacity="0.25"/><rect x="483.07" y="185.21" width="19.94" height="0.85" fill="#fff" opacity="0.25"/><rect x="483.07" y="187.37" width="19.94" height="0.85" fill="#fff" opacity="0.25"/><rect x="483.07" y="189.83" width="19.94" height="0.85" fill="#fff" opacity="0.25"/><rect x="483.07" y="192.29" width="19.94" height="0.85" fill="#fff" opacity="0.25"/><rect x="483.07" y="194.75" width="19.94" height="0.85" fill="#fff" opacity="0.25"/><rect x="483.07" y="197.22" width="19.94" height="0.85" fill="#fff" opacity="0.25"/><rect x="483.07" y="199.68" width="19.94" height="0.85" fill="#fff" opacity="0.25"/><rect x="483.07" y="201.83" width="19.94" height="0.85" fill="#fff" opacity="0.25"/><rect x="483.07" y="204.29" width="19.94" height="0.85" fill="#fff" opacity="0.25"/><rect x="483.07" y="206.75" width="19.94" height="0.85" fill="#fff" opacity="0.25"/><rect x="483.07" y="209.22" width="19.94" height="0.85" fill="#fff" opacity="0.25"/><rect x="483.07" y="211.68" width="19.94" height="0.85" fill="#fff" opacity="0.25"/><rect x="483.07" y="214.14" width="19.94" height="0.85" fill="#fff" opacity="0.25"/><rect x="430.48" y="212.04" width="19.94" height="1.44" fill="#fff" opacity="0.25"/><rect x="430.48" y="216.19" width="19.94" height="1.44" fill="#fff" opacity="0.25"/><rect x="430.48" y="220.34" width="19.94" height="1.44" fill="#fff" opacity="0.25"/><rect x="430.48" y="224.48" width="19.94" height="1.44" fill="#fff" opacity="0.25"/><rect x="430.48" y="228.63" width="19.94" height="1.44" fill="#fff" opacity="0.25"/><rect x="430.48" y="232.78" width="19.94" height="1.44" fill="#fff" opacity="0.25"/><rect x="426.98" y="237.94" width="51.04" height="2.55" fill="url(#linear-gradient-44)"/><rect x="417.17" y="227.14" width="27.6" height="6.86" fill="#68e1fd"/><rect x="417.17" y="227.14" width="27.6" height="6.86" opacity="0.58" fill="url(#linear-gradient-45)"/><rect x="520.13" y="233.52" width="3.83" height="3.83" fill="#68e1fd"/><rect x="525.82" y="233.52" width="3.83" height="3.83" fill="#68e1fd"/><rect x="531.5" y="233.52" width="3.83" height="3.83" fill="#68e1fd"/><rect x="537.18" y="233.52" width="3.83" height="3.83" fill="#68e1fd"/><rect x="542.86" y="233.52" width="3.83" height="3.83" fill="#68e1fd"/><rect x="548.55" y="233.52" width="3.83" height="3.83" fill="#68e1fd"/><rect x="554.23" y="233.52" width="3.83" height="3.83" fill="#68e1fd"/><rect x="410.39" y="234" width="41" height="33.98" fill="#68e1fd"/><rect x="410.39" y="234" width="41" height="33.98" opacity="0.58" fill="url(#linear-gradient-46)"/><path d="M-4.94,324.38l15.43-2a17.83,17.83,0,0,1,4.61-.2c1.67.21,3.25.89,4.9,1.22a24.62,24.62,0,0,0,7.22-.05c36.16-3.66,72.66-1.39,108.93-3.57a59.52,59.52,0,0,1,12.59.08,50.3,50.3,0,0,0,6.86,1c3,.06,5.85-.85,8.79-1.16,9.45-1,18.91,4.12,28.26,2.39,3.93-.73,7.58-2.64,11.55-3.16a39.53,39.53,0,0,1,9,.32,228.17,228.17,0,0,0,25.49.59l69.32-1c9.25-.13,19.68.65,28.92,1.14,23.05,1.21,46.15-.38,69.17-2,8.95-.61,17.91-1.23,26.87-1.57A438.64,438.64,0,0,1,526.85,323a50,50,0,0,1-.19,15.73A4693.53,4693.53,0,0,1-7,339C-6.76,334.69-5.15,328.68-4.94,324.38Z" transform="translate(99.04 -38.67)" fill="#68e1fd"/><path d="M-4.47,324.44l15.43-2a17.83,17.83,0,0,1,4.61-.2c1.67.21,3.25.89,4.9,1.22a24.61,24.61,0,0,0,7.22,0c36.15-3.67,72.65-1.4,108.93-3.57a58.22,58.22,0,0,1,12.59.08,53.35,53.35,0,0,0,6.86,1c3,.06,5.84-.85,8.79-1.17,9.45-1,18.91,4.12,28.26,2.39,3.93-.72,7.58-2.63,11.54-3.16a39.6,39.6,0,0,1,9,.32,228.12,228.12,0,0,0,25.49.59l69.31-1c9.26-.13,19.69.65,28.93,1.14,23.05,1.21,46.14-.37,69.17-2,9-.62,17.9-1.24,26.87-1.58a438.69,438.69,0,0,1,93.86,6.52,50,50,0,0,1-.2,15.73,4693.36,4693.36,0,0,1-533.62.26C-6.29,334.75-4.68,328.74-4.47,324.44Z" transform="translate(99.04 -38.67)" opacity="0.58" fill="url(#linear-gradient-47)"/><rect x="290.11" y="256.17" width="48.17" height="31.27" fill="#68e1fd"/><rect x="286.92" y="263.19" width="48.17" height="31.27" opacity="0.58" fill="url(#linear-gradient-48)"/><rect x="529.38" y="261.7" width="30.41" height="26.59" fill="#68e1fd"/><rect x="529.76" y="261.7" width="30.41" height="26.59" opacity="0.58" fill="url(#linear-gradient-49)"/><path d="M525.41,347v14.87c-25.12-16.85-57.58-8.59-57.58-8.59l1.33-11.07s20.2,1.28,50.41,4C521.64,346.4,523.58,346.65,525.41,347Z" transform="translate(99.04 -38.67)" fill="#68e1fd"/><path d="M153.21,351s35.09-2.13,60.61,18.5H228.5S234.24,353.76,204,351s-50.41-4-50.41-4Z" transform="translate(99.04 -38.67)" fill="#68e1fd"/><polygon points="332.86 330.67 312.6 330.67 312.6 340.24 326.69 341.89 332.86 330.67" fill="#68e1fd"/><path d="M326.76,351s35.09-2.13,60.62,18.5l25.09.32s-4.68-16.05-34.88-18.82-50.4-4-50.4-4Z" transform="translate(99.04 -38.67)" fill="#68e1fd"/><path d="M525.41,347v14.87c-25.12-16.85-57.58-8.59-57.58-8.59l1.33-11.07s20.2,1.28,50.41,4C521.64,346.4,523.58,346.65,525.41,347Z" transform="translate(99.04 -38.67)" opacity="0.58" fill="url(#linear-gradient-50)"/><path d="M153.21,351s35.09-2.13,60.61,18.5H228.5S234.24,353.76,204,351s-50.41-4-50.41-4Z" transform="translate(99.04 -38.67)" opacity="0.58" fill="url(#linear-gradient-51)"/><path d="M326.76,351s35.09-2.13,60.62,18.5l25.09.32s-4.68-16.05-34.88-18.82-50.4-4-50.4-4Z" transform="translate(99.04 -38.67)" opacity="0.58" fill="url(#linear-gradient-52)"/><polygon points="512.48 330.99 486.16 330.67 486.16 340.24 510.08 341.99 512.48 330.99" fill="#68e1fd"/><rect x="173.82" y="303.71" width="9.09" height="38.18" fill="#68e1fd"/><rect x="91.36" y="299.34" width="533.15" height="5.34" fill="#68e1fd"/><rect x="182.92" y="303.81" width="21.06" height="38.07" fill="#68e1fd"/><rect x="326.69" y="303.81" width="40.77" height="38.07" fill="#68e1fd"/><rect x="509.18" y="303.81" width="40.77" height="38.07" fill="#68e1fd"/><path d="M-7,361.52s15.47-8.3,38.28-6.38S74,366.78,76.06,370.45V342.38H-7.21Z" transform="translate(99.04 -38.67)" fill="#68e1fd"/><path d="M-7,361.52s15.47-8.3,38.28-6.38S74,366.78,76.06,370.45V342.38H-7.21Z" transform="translate(99.04 -38.67)" opacity="0.58" fill="url(#linear-gradient-53)"/><path d="M104.93,342.48H228.5v28.29S204,349.08,164.27,349.93s-60.41,22.54-60.41,22.54Z" transform="translate(99.04 -38.67)" fill="#68e1fd"/><path d="M104.93,342.48H228.5v28.29S204,349.08,164.27,349.93s-60.41,22.54-60.41,22.54Z" transform="translate(99.04 -38.67)" opacity="0.58" fill="url(#linear-gradient-54)"/><path d="M267.63,342.48l143.89.32v28.29s-29.69-22-75-21.16-68.86,22.54-68.86,22.54Z" transform="translate(99.04 -38.67)" fill="#68e1fd"/><path d="M267.63,342.48l143.89.32v28.29s-29.69-22-75-21.16-68.86,22.54-68.86,22.54Z" transform="translate(99.04 -38.67)" opacity="0.58" fill="url(#linear-gradient-55)"/><path d="M525.41,342.49v7.57c-2.91-.14-5.9-.19-9-.13-45.35.85-68.86,22.54-68.86,22.54v-30Z" transform="translate(99.04 -38.67)" fill="#68e1fd"/><path d="M525.41,342.49v7.57c-2.91-.14-5.9-.19-9-.13-45.35.85-68.86,22.54-68.86,22.54v-30Z" transform="translate(99.04 -38.67)" opacity="0.58" fill="url(#linear-gradient-56)"/><rect x="323.72" y="268.51" width="12.76" height="31.27" fill="#68e1fd"/><rect x="323.72" y="268.51" width="12.76" height="31.27" opacity="0.58" fill="url(#linear-gradient-57)"/><path d="M231.5,300.34s-6.88,2.74-6.83,6.84H239.4A10.38,10.38,0,0,0,231.5,300.34Z" transform="translate(99.04 -38.67)" fill="#68e1fd"/><rect x="335.97" y="268.51" width="2.47" height="31.45" fill="#68e1fd"/><rect x="522.84" y="268.51" width="12.76" height="31.27" fill="#68e1fd"/><rect x="522.84" y="268.51" width="12.76" height="31.27" opacity="0.58" fill="url(#linear-gradient-58)"/><path d="M430.63,300.34s-6.88,2.74-6.83,6.84h14.73A10.38,10.38,0,0,0,430.63,300.34Z" transform="translate(99.04 -38.67)" fill="#68e1fd"/><rect x="535.1" y="268.51" width="2.47" height="31.45" fill="#68e1fd"/><path d="M403.67,300.34s-6.88,2.74-6.83,6.84h14.73A10.38,10.38,0,0,0,403.67,300.34Z" transform="translate(99.04 -38.67)" fill="#68e1fd"/><rect x="196.68" y="255.55" width="17.98" height="26.78" fill="#68e1fd"/><rect x="196.68" y="255.55" width="17.98" height="26.78" opacity="0.58" fill="url(#linear-gradient-59)"/><rect x="429.77" y="130.71" width="24.11" height="7.26" fill="#68e1fd"/><rect x="453.85" y="130.71" width="21.85" height="7.34" fill="#68e1fd"/><rect x="434.31" y="136.64" width="38.82" height="5.64" fill="#68e1fd"/><rect x="434.31" y="136.64" width="38.82" height="5.64" opacity="0.58" fill="url(#linear-gradient-60)"/><rect x="599.57" y="270.69" width="25.84" height="21.85" fill="#68e1fd"/><rect x="606.59" y="268.3" width="5.9" height="2.79" fill="#68e1fd"/><rect x="614.73" y="267.58" width="5.42" height="3.27" fill="#68e1fd"/><rect x="557.67" y="269.57" width="35.52" height="18.08" fill="#68e1fd"/><rect x="557.67" y="269.57" width="35.52" height="18.08" opacity="0.58" fill="url(#linear-gradient-61)"/><rect x="592.98" y="276.48" width="6.27" height="11.7" fill="#68e1fd"/><rect x="398.58" y="258.88" width="91.88" height="22.59" fill="#68e1fd"/><rect x="341.9" y="268.51" width="12.76" height="31.27" fill="#68e1fd"/><rect x="341.9" y="268.51" width="12.76" height="31.27" opacity="0.58" fill="url(#linear-gradient-62)"/><path d="M249.69,300.34s-6.89,2.74-6.83,6.84h14.72A10.35,10.35,0,0,0,249.69,300.34Z" transform="translate(99.04 -38.67)" fill="#68e1fd"/><path d="M231.5,300.34s-6.88,2.74-6.83,6.84H239.4A10.38,10.38,0,0,0,231.5,300.34Z" transform="translate(99.04 -38.67)" opacity="0.58" fill="url(#linear-gradient-63)"/><path d="M249.69,300.34s-6.89,2.74-6.83,6.84h14.72A10.35,10.35,0,0,0,249.69,300.34Z" transform="translate(99.04 -38.67)" opacity="0.58" fill="url(#linear-gradient-64)"/><rect x="354.16" y="268.51" width="2.47" height="31.45" fill="#68e1fd"/><rect x="398.58" y="258.88" width="91.88" height="22.59" opacity="0.58" fill="url(#linear-gradient-65)"/><rect x="495.89" y="268.51" width="12.76" height="31.27" fill="#68e1fd"/><rect x="495.89" y="268.51" width="12.76" height="31.27" opacity="0.58" fill="url(#linear-gradient-66)"/><rect x="508.14" y="268.51" width="2.47" height="31.45" fill="#68e1fd"/><path d="M403.75,300.34s-6.88,2.74-6.83,6.84h14.73A10.38,10.38,0,0,0,403.75,300.34Z" transform="translate(99.04 -38.67)" fill="#68e1fd"/><path d="M430.63,300.34s-6.88,2.74-6.83,6.84h14.73A10.38,10.38,0,0,0,430.63,300.34Z" transform="translate(99.04 -38.67)" opacity="0.58" fill="url(#linear-gradient-67)"/><path d="M403.75,300.34s-6.88,2.74-6.83,6.84h14.73A10.38,10.38,0,0,0,403.75,300.34Z" transform="translate(99.04 -38.67)" opacity="0.58" fill="url(#linear-gradient-68)"/><rect x="329.37" y="303.78" width="22.85" height="38.1" fill="url(#linear-gradient-69)"/><rect x="512.28" y="303.78" width="22.85" height="38.1" fill="url(#linear-gradient-70)"/><rect x="175.81" y="303.78" width="22.85" height="38.1" fill="url(#linear-gradient-71)"/><rect x="438.67" y="128.67" width="28.61" height="2.13" fill="#68e1fd"/><rect x="451.97" y="88.36" width="1.01" height="41.37" fill="#68e1fd"/><rect x="438.99" y="118.35" width="0.64" height="11.06" fill="#68e1fd"/><rect x="426.98" y="173.54" width="51.04" height="2.55" fill="url(#linear-gradient-72)"/><rect x="426.98" y="203.69" width="51.04" height="2.55" fill="url(#linear-gradient-73)"/><rect x="456.49" y="147.38" width="19.94" height="1.44" fill="#fff" opacity="0.25"/><rect x="456.49" y="151.53" width="19.94" height="1.44" fill="#fff" opacity="0.25"/><rect x="456.49" y="155.68" width="19.94" height="1.44" fill="#fff" opacity="0.25"/><rect x="456.49" y="159.83" width="19.94" height="1.44" fill="#fff" opacity="0.25"/><rect x="456.49" y="163.97" width="19.94" height="1.44" fill="#fff" opacity="0.25"/><rect x="456.49" y="168.12" width="19.94" height="1.44" fill="#fff" opacity="0.25"/><rect x="375.24" y="239.26" width="19.94" height="1.44" fill="#fff" opacity="0.25"/><rect x="375.24" y="243.41" width="19.94" height="1.44" fill="#fff" opacity="0.25"/><rect x="375.24" y="247.56" width="19.94" height="1.44" fill="#fff" opacity="0.25"/><rect x="375.24" y="251.71" width="19.94" height="1.44" fill="#fff" opacity="0.25"/><rect x="375.24" y="255.85" width="19.94" height="1.44" fill="#fff" opacity="0.25"/><rect x="375.24" y="260" width="19.94" height="1.44" fill="#fff" opacity="0.25"/><rect x="177.02" y="209.91" width="15.79" height="1.32" fill="#fff" opacity="0.25"/><rect x="177.02" y="213.72" width="15.79" height="1.32" fill="#fff" opacity="0.25"/><rect x="177.02" y="217.54" width="15.79" height="1.32" fill="#fff" opacity="0.25"/><rect x="177.02" y="221.35" width="15.79" height="1.32" fill="#fff" opacity="0.25"/><rect x="177.02" y="225.16" width="15.79" height="1.32" fill="#fff" opacity="0.25"/><rect x="177.02" y="228.97" width="15.79" height="1.32" fill="#fff" opacity="0.25"/><rect x="237.13" y="212.04" width="8" height="0.92" fill="#fff" opacity="0.25"/><rect x="237.13" y="214.69" width="8" height="0.92" fill="#fff" opacity="0.25"/><rect x="237.13" y="217.33" width="8" height="0.92" fill="#fff" opacity="0.25"/><rect x="237.13" y="219.98" width="8" height="0.92" fill="#fff" opacity="0.25"/><rect x="237.13" y="222.62" width="8" height="0.92" fill="#fff" opacity="0.25"/><rect x="237.13" y="225.27" width="8" height="0.92" fill="#fff" opacity="0.25"/><rect x="237.13" y="228.15" width="8" height="0.92" fill="#fff" opacity="0.25"/><rect x="237.13" y="230.8" width="8" height="0.92" fill="#fff" opacity="0.25"/><rect x="237.13" y="233.44" width="8" height="0.92" fill="#fff" opacity="0.25"/><rect x="237.13" y="236.09" width="8" height="0.92" fill="#fff" opacity="0.25"/><rect x="237.13" y="238.73" width="8" height="0.92" fill="#fff" opacity="0.25"/><rect x="237.13" y="241.38" width="8" height="0.92" fill="#fff" opacity="0.25"/><rect x="247.49" y="212.04" width="8" height="0.92" fill="#fff" opacity="0.25"/><rect x="247.49" y="214.69" width="8" height="0.92" fill="#fff" opacity="0.25"/><rect x="247.49" y="217.33" width="8" height="0.92" fill="#fff" opacity="0.25"/><rect x="247.49" y="219.98" width="8" height="0.92" fill="#fff" opacity="0.25"/><rect x="247.49" y="222.62" width="8" height="0.92" fill="#fff" opacity="0.25"/><rect x="247.49" y="225.27" width="8" height="0.92" fill="#fff" opacity="0.25"/><rect x="247.49" y="228.15" width="8" height="0.92" fill="#fff" opacity="0.25"/><rect x="247.49" y="230.8" width="8" height="0.92" fill="#fff" opacity="0.25"/><rect x="247.49" y="233.44" width="8" height="0.92" fill="#fff" opacity="0.25"/><rect x="247.49" y="236.09" width="8" height="0.92" fill="#fff" opacity="0.25"/><rect x="247.49" y="238.73" width="8" height="0.92" fill="#fff" opacity="0.25"/><rect x="247.49" y="241.38" width="8" height="0.92" fill="#fff" opacity="0.25"/><rect x="221.83" y="212.04" width="8" height="0.92" fill="#fff" opacity="0.25"/><rect x="221.83" y="214.69" width="8" height="0.92" fill="#fff" opacity="0.25"/><rect x="221.83" y="217.33" width="8" height="0.92" fill="#fff" opacity="0.25"/><rect x="221.83" y="219.98" width="8" height="0.92" fill="#fff" opacity="0.25"/><rect x="221.83" y="222.62" width="8" height="0.92" fill="#fff" opacity="0.25"/><rect x="221.83" y="225.27" width="8" height="0.92" fill="#fff" opacity="0.25"/><rect x="221.83" y="228.15" width="8" height="0.92" fill="#fff" opacity="0.25"/><rect x="221.83" y="230.8" width="8" height="0.92" fill="#fff" opacity="0.25"/><rect x="221.83" y="233.44" width="8" height="0.92" fill="#fff" opacity="0.25"/><rect x="221.83" y="236.09" width="8" height="0.92" fill="#fff" opacity="0.25"/><rect x="221.83" y="238.73" width="8" height="0.92" fill="#fff" opacity="0.25"/><rect x="221.83" y="241.38" width="8" height="0.92" fill="#fff" opacity="0.25"/><rect x="206.99" y="212.04" width="8" height="0.92" fill="#fff" opacity="0.25"/><rect x="206.99" y="214.69" width="8" height="0.92" fill="#fff" opacity="0.25"/><rect x="206.99" y="217.33" width="8" height="0.92" fill="#fff" opacity="0.25"/><rect x="206.99" y="219.98" width="8" height="0.92" fill="#fff" opacity="0.25"/><rect x="206.99" y="222.62" width="8" height="0.92" fill="#fff" opacity="0.25"/><rect x="206.99" y="225.27" width="8" height="0.92" fill="#fff" opacity="0.25"/><rect x="206.99" y="228.15" width="8" height="0.92" fill="#fff" opacity="0.25"/><rect x="206.99" y="230.8" width="8" height="0.92" fill="#fff" opacity="0.25"/><rect x="206.99" y="233.44" width="8" height="0.92" fill="#fff" opacity="0.25"/><rect x="206.99" y="236.09" width="8" height="0.92" fill="#fff" opacity="0.25"/><rect x="206.99" y="238.73" width="8" height="0.92" fill="#fff" opacity="0.25"/><rect x="206.99" y="241.38" width="8" height="0.92" fill="#fff" opacity="0.25"/><rect x="177.02" y="232.8" width="15.79" height="1.32" fill="#fff" opacity="0.25"/><rect x="177.02" y="236.61" width="15.79" height="1.32" fill="#fff" opacity="0.25"/><rect x="177.02" y="240.42" width="15.79" height="1.32" fill="#fff" opacity="0.25"/><rect x="177.02" y="244.23" width="15.79" height="1.32" fill="#fff" opacity="0.25"/><rect x="177.02" y="248.04" width="15.79" height="1.32" fill="#fff" opacity="0.25"/><rect x="177.02" y="251.85" width="15.79" height="1.32" fill="#fff" opacity="0.25"/><rect x="177.02" y="255.68" width="15.79" height="1.32" fill="#fff" opacity="0.25"/><rect x="177.02" y="259.49" width="15.79" height="1.32" fill="#fff" opacity="0.25"/><rect x="177.02" y="263.31" width="15.79" height="1.32" fill="#fff" opacity="0.25"/><rect x="177.02" y="267.12" width="15.79" height="1.32" fill="#fff" opacity="0.25"/><rect x="177.02" y="270.93" width="15.79" height="1.32" fill="#fff" opacity="0.25"/><rect x="177.02" y="274.74" width="15.79" height="1.32" fill="#fff" opacity="0.25"/><rect x="154.36" y="209.91" width="15.79" height="1.32" fill="#fff" opacity="0.25"/><rect x="154.36" y="213.72" width="15.79" height="1.32" fill="#fff" opacity="0.25"/><rect x="154.36" y="217.54" width="15.79" height="1.32" fill="#fff" opacity="0.25"/><rect x="154.36" y="221.35" width="15.79" height="1.32" fill="#fff" opacity="0.25"/><rect x="154.36" y="225.16" width="15.79" height="1.32" fill="#fff" opacity="0.25"/><rect x="154.36" y="228.97" width="15.79" height="1.32" fill="#fff" opacity="0.25"/><rect x="154.36" y="232.8" width="15.79" height="1.32" fill="#fff" opacity="0.25"/><rect x="154.36" y="236.61" width="15.79" height="1.32" fill="#fff" opacity="0.25"/><rect x="154.36" y="240.42" width="15.79" height="1.32" fill="#fff" opacity="0.25"/><rect x="154.36" y="244.23" width="15.79" height="1.32" fill="#fff" opacity="0.25"/><rect x="154.36" y="248.04" width="15.79" height="1.32" fill="#fff" opacity="0.25"/><rect x="154.36" y="251.85" width="15.79" height="1.32" fill="#fff" opacity="0.25"/><rect x="154.36" y="255.68" width="15.79" height="1.32" fill="#fff" opacity="0.25"/><rect x="154.36" y="259.49" width="15.79" height="1.32" fill="#fff" opacity="0.25"/><rect x="154.36" y="263.31" width="15.79" height="1.32" fill="#fff" opacity="0.25"/><rect x="154.36" y="267.12" width="15.79" height="1.32" fill="#fff" opacity="0.25"/><rect x="154.36" y="270.93" width="15.79" height="1.32" fill="#fff" opacity="0.25"/><rect x="154.36" y="274.74" width="15.79" height="1.32" fill="#fff" opacity="0.25"/><g opacity="0.58"><rect x="414.37" y="238.2" width="32.49" height="1.12" opacity="0.25" fill="url(#linear-gradient-74)"/><rect x="414.37" y="241.44" width="32.49" height="1.12" opacity="0.25" fill="url(#linear-gradient-75)"/><rect x="414.37" y="244.68" width="32.49" height="1.12" opacity="0.25" fill="url(#linear-gradient-76)"/><rect x="414.37" y="247.91" width="32.49" height="1.12" opacity="0.25" fill="url(#linear-gradient-77)"/><rect x="414.37" y="251.15" width="32.49" height="1.12" opacity="0.25" fill="url(#linear-gradient-78)"/><rect x="414.37" y="254.39" width="32.49" height="1.12" opacity="0.25" fill="url(#linear-gradient-79)"/></g><rect x="430.48" y="147.38" width="19.94" height="1.44" fill="#fff" opacity="0.25"/><rect x="430.48" y="151.53" width="19.94" height="1.44" fill="#fff" opacity="0.25"/><rect x="430.48" y="155.68" width="19.94" height="1.44" fill="#fff" opacity="0.25"/><rect x="430.48" y="159.83" width="19.94" height="1.44" fill="#fff" opacity="0.25"/><rect x="430.48" y="163.97" width="19.94" height="1.44" fill="#fff" opacity="0.25"/><rect x="430.48" y="168.12" width="19.94" height="1.44" fill="#fff" opacity="0.25"/><rect x="456.49" y="179.71" width="19.94" height="1.44" fill="#fff" opacity="0.25"/><rect x="456.49" y="183.86" width="19.94" height="1.44" fill="#fff" opacity="0.25"/><rect x="456.49" y="188.01" width="19.94" height="1.44" fill="#fff" opacity="0.25"/><rect x="456.49" y="192.15" width="19.94" height="1.44" fill="#fff" opacity="0.25"/><rect x="456.49" y="196.3" width="19.94" height="1.44" fill="#fff" opacity="0.25"/><rect x="456.49" y="200.45" width="19.94" height="1.44" fill="#fff" opacity="0.25"/><rect x="430.48" y="179.71" width="19.94" height="1.44" fill="#fff" opacity="0.25"/><rect x="430.48" y="183.86" width="19.94" height="1.44" fill="#fff" opacity="0.25"/><rect x="430.48" y="188.01" width="19.94" height="1.44" fill="#fff" opacity="0.25"/><rect x="430.48" y="192.15" width="19.94" height="1.44" fill="#fff" opacity="0.25"/><rect x="430.48" y="196.3" width="19.94" height="1.44" fill="#fff" opacity="0.25"/><rect x="430.48" y="200.45" width="19.94" height="1.44" fill="#fff" opacity="0.25"/><rect x="329.03" y="217.52" width="16.43" height="0.55" fill="#fff" opacity="0.25"/><rect x="329.03" y="219.11" width="16.43" height="0.55" fill="#fff" opacity="0.25"/><rect x="329.03" y="220.7" width="16.43" height="0.55" fill="#fff" opacity="0.25"/><rect x="329.03" y="222.29" width="16.43" height="0.55" fill="#fff" opacity="0.25"/><rect x="329.03" y="223.88" width="16.43" height="0.55" fill="#fff" opacity="0.25"/><rect x="329.03" y="225.47" width="16.43" height="0.55" fill="#fff" opacity="0.25"/><rect x="329.03" y="226.93" width="16.43" height="0.55" fill="#fff" opacity="0.25"/><rect x="329.03" y="228.52" width="16.43" height="0.55" fill="#fff" opacity="0.25"/><rect x="329.03" y="230.11" width="16.43" height="0.55" fill="#fff" opacity="0.25"/><rect x="329.03" y="231.7" width="16.43" height="0.55" fill="#fff" opacity="0.25"/><rect x="329.03" y="233.29" width="16.43" height="0.55" fill="#fff" opacity="0.25"/><rect x="329.03" y="234.89" width="16.43" height="0.55" fill="#fff" opacity="0.25"/><rect x="329.03" y="236.34" width="16.43" height="0.55" fill="#fff" opacity="0.25"/><rect x="329.03" y="237.93" width="16.43" height="0.55" fill="#fff" opacity="0.25"/><rect x="329.03" y="239.52" width="16.43" height="0.55" fill="#fff" opacity="0.25"/><rect x="329.03" y="241.11" width="16.43" height="0.55" fill="#fff" opacity="0.25"/><rect x="329.03" y="242.71" width="16.43" height="0.55" fill="#fff" opacity="0.25"/><rect x="329.03" y="244.3" width="16.43" height="0.55" fill="#fff" opacity="0.25"/><rect x="329.03" y="245.75" width="16.43" height="0.55" fill="#fff" opacity="0.25"/><rect x="329.03" y="247.34" width="16.43" height="0.55" fill="#fff" opacity="0.25"/><rect x="329.03" y="248.93" width="16.43" height="0.55" fill="#fff" opacity="0.25"/><rect x="329.03" y="250.53" width="16.43" height="0.55" fill="#fff" opacity="0.25"/><rect x="329.03" y="252.12" width="16.43" height="0.55" fill="#fff" opacity="0.25"/><rect x="329.03" y="253.71" width="16.43" height="0.55" fill="#fff" opacity="0.25"/></g></svg>