<svg id="Layer_1" data-name="Layer 1" xmlns="http://www.w3.org/2000/svg" xmlns:xlink="http://www.w3.org/1999/xlink" viewBox="0 0 635.82 395.82"><defs><clipPath id="clip-path" transform="translate(29.5 -73.27)"><path d="M129.55,113.62c-32.26,11.06-62.65,30-82.5,57.7-25.15,35.13-31,80.1-35.56,123.06C8.61,321.46,5.93,349,10.55,375.8s17.49,53.37,40,68.74C68.94,457.13,91.8,461.1,114,463.44c49.21,5.2,98.85,3.93,148.31,2.65l97.82-2.52c50.08-1.29,100.53-2.63,149.41-13.59,19.4-4.35,39.61-10.92,52.42-26.13C577,406,578.35,380,573.47,357.12s-15.09-44.27-20.77-66.95c-10.3-41.08-5.93-86.53-26.51-123.54-17.39-31.27-50.16-51.24-84-62.95-54.88-19-114.07-19.34-171.13-12.27C224,97.24,174.75,98.12,129.55,113.62Z" fill="none"/></clipPath><linearGradient id="linear-gradient" x1="269.09" y1="293.32" x2="249.78" y2="101.99" gradientUnits="userSpaceOnUse"><stop offset="0.02" stop-color="#fff" stop-opacity="0"/><stop offset="0.58" stop-color="#fff" stop-opacity="0.39"/><stop offset="0.68" stop-color="#fff" stop-opacity="0.68"/><stop offset="1" stop-color="#fff"/></linearGradient><linearGradient id="linear-gradient-2" x1="297.95" y1="312.56" x2="288.29" y2="515.29" gradientUnits="userSpaceOnUse"><stop offset="0.01"/><stop offset="0.13" stop-opacity="0.69"/><stop offset="1" stop-opacity="0"/></linearGradient><linearGradient id="linear-gradient-3" x1="538.31" y1="404.4" x2="575.17" y2="259.59" xlink:href="#linear-gradient-2"/><linearGradient id="linear-gradient-4" x1="55.42" y1="400.12" x2="13.88" y2="303.58" xlink:href="#linear-gradient-2"/><linearGradient id="linear-gradient-5" x1="292.27" y1="62.47" x2="328.54" y2="161.15" xlink:href="#linear-gradient-2"/><linearGradient id="linear-gradient-6" x1="458.1" y1="171.54" x2="234.6" y2="115.96" xlink:href="#linear-gradient-2"/><linearGradient id="linear-gradient-7" x1="329.6" y1="-27.42" x2="333.11" y2="455.86" xlink:href="#linear-gradient-2"/><linearGradient id="linear-gradient-8" x1="282.62" y1="161.87" x2="260.39" y2="90.49" xlink:href="#linear-gradient-2"/><linearGradient id="linear-gradient-9" x1="398.44" y1="109.5" x2="231.11" y2="156.31" xlink:href="#linear-gradient-2"/><linearGradient id="linear-gradient-10" x1="313.5" y1="120.9" x2="416.48" y2="234.7" xlink:href="#linear-gradient-2"/><linearGradient id="linear-gradient-11" x1="385.89" y1="176.32" x2="274.14" y2="371.74" xlink:href="#linear-gradient-2"/><linearGradient id="linear-gradient-12" x1="65.89" y1="193.5" x2="383.6" y2="304.08" xlink:href="#linear-gradient-2"/><linearGradient id="linear-gradient-13" x1="291.7" y1="151.23" x2="587.46" y2="153.86" xlink:href="#linear-gradient-2"/><linearGradient id="linear-gradient-14" x1="291.66" y1="155.34" x2="587.42" y2="157.98" xlink:href="#linear-gradient-2"/><linearGradient id="linear-gradient-15" x1="291.63" y1="158.9" x2="587.39" y2="161.53" xlink:href="#linear-gradient-2"/><linearGradient id="linear-gradient-16" x1="291.6" y1="162.45" x2="587.36" y2="165.09" xlink:href="#linear-gradient-2"/><linearGradient id="linear-gradient-17" x1="291.56" y1="166.01" x2="587.33" y2="168.64" xlink:href="#linear-gradient-2"/><linearGradient id="linear-gradient-18" x1="291.53" y1="169.56" x2="587.29" y2="172.2" xlink:href="#linear-gradient-2"/><linearGradient id="linear-gradient-19" x1="291.5" y1="173.12" x2="587.26" y2="175.75" xlink:href="#linear-gradient-2"/><linearGradient id="linear-gradient-20" x1="291.47" y1="176.67" x2="587.23" y2="179.31" xlink:href="#linear-gradient-2"/><linearGradient id="linear-gradient-21" x1="291.44" y1="180.23" x2="587.2" y2="182.86" xlink:href="#linear-gradient-2"/><linearGradient id="linear-gradient-22" x1="291.41" y1="183.78" x2="587.17" y2="186.42" xlink:href="#linear-gradient-2"/><linearGradient id="linear-gradient-23" x1="291.37" y1="187.34" x2="587.14" y2="189.97" xlink:href="#linear-gradient-2"/><linearGradient id="linear-gradient-24" x1="291.34" y1="190.89" x2="587.1" y2="193.53" xlink:href="#linear-gradient-2"/><linearGradient id="linear-gradient-25" x1="291.31" y1="194.45" x2="587.07" y2="197.08" xlink:href="#linear-gradient-2"/><linearGradient id="linear-gradient-26" x1="291.28" y1="198" x2="587.04" y2="200.64" xlink:href="#linear-gradient-2"/><linearGradient id="linear-gradient-27" x1="291.25" y1="201.56" x2="587.01" y2="204.19" xlink:href="#linear-gradient-2"/><linearGradient id="linear-gradient-28" x1="291.22" y1="205.11" x2="586.98" y2="207.75" xlink:href="#linear-gradient-2"/><linearGradient id="linear-gradient-29" x1="291.18" y1="208.67" x2="586.95" y2="211.3" xlink:href="#linear-gradient-2"/><linearGradient id="linear-gradient-30" x1="291.15" y1="212.23" x2="586.91" y2="214.86" xlink:href="#linear-gradient-2"/><linearGradient id="linear-gradient-31" x1="291.12" y1="215.78" x2="586.88" y2="218.41" xlink:href="#linear-gradient-2"/><linearGradient id="linear-gradient-32" x1="291.09" y1="219.34" x2="586.85" y2="221.97" xlink:href="#linear-gradient-2"/><linearGradient id="linear-gradient-33" x1="291.06" y1="222.89" x2="586.82" y2="225.52" xlink:href="#linear-gradient-2"/><linearGradient id="linear-gradient-34" x1="291.03" y1="226.45" x2="586.79" y2="229.08" xlink:href="#linear-gradient-2"/><linearGradient id="linear-gradient-35" x1="290.99" y1="230" x2="586.76" y2="232.63" xlink:href="#linear-gradient-2"/><linearGradient id="linear-gradient-36" x1="290.96" y1="233.56" x2="586.72" y2="236.19" xlink:href="#linear-gradient-2"/><linearGradient id="linear-gradient-37" x1="290.93" y1="237.11" x2="586.69" y2="239.74" xlink:href="#linear-gradient-2"/><linearGradient id="linear-gradient-38" x1="290.9" y1="240.67" x2="586.66" y2="243.3" xlink:href="#linear-gradient-2"/><linearGradient id="linear-gradient-39" x1="290.87" y1="244.22" x2="586.63" y2="246.85" xlink:href="#linear-gradient-2"/><linearGradient id="linear-gradient-40" x1="290.84" y1="247.78" x2="586.6" y2="250.41" xlink:href="#linear-gradient-2"/><linearGradient id="linear-gradient-41" x1="290.8" y1="251.33" x2="586.57" y2="253.96" xlink:href="#linear-gradient-2"/><linearGradient id="linear-gradient-42" x1="290.77" y1="254.89" x2="586.53" y2="257.52" xlink:href="#linear-gradient-2"/><linearGradient id="linear-gradient-43" x1="290.74" y1="258.44" x2="586.5" y2="261.07" xlink:href="#linear-gradient-2"/><linearGradient id="linear-gradient-44" x1="290.71" y1="262" x2="586.47" y2="264.63" xlink:href="#linear-gradient-2"/><linearGradient id="linear-gradient-45" x1="290.68" y1="265.55" x2="586.44" y2="268.18" xlink:href="#linear-gradient-2"/><linearGradient id="linear-gradient-46" x1="290.65" y1="269.11" x2="586.41" y2="271.74" xlink:href="#linear-gradient-2"/><linearGradient id="linear-gradient-47" x1="290.61" y1="272.66" x2="586.38" y2="275.29" xlink:href="#linear-gradient-2"/><linearGradient id="linear-gradient-48" x1="290.58" y1="276.22" x2="586.34" y2="278.85" xlink:href="#linear-gradient-2"/><linearGradient id="linear-gradient-49" x1="290.55" y1="279.77" x2="586.31" y2="282.4" xlink:href="#linear-gradient-2"/><linearGradient id="linear-gradient-50" x1="290.52" y1="283.33" x2="586.28" y2="285.96" xlink:href="#linear-gradient-2"/><linearGradient id="linear-gradient-51" x1="290.49" y1="286.88" x2="586.25" y2="289.51" xlink:href="#linear-gradient-2"/><linearGradient id="linear-gradient-52" x1="290.46" y1="290.44" x2="586.22" y2="293.07" xlink:href="#linear-gradient-2"/><linearGradient id="linear-gradient-53" x1="290.42" y1="293.99" x2="586.19" y2="296.62" xlink:href="#linear-gradient-2"/><linearGradient id="linear-gradient-54" x1="290.39" y1="297.55" x2="586.15" y2="300.18" xlink:href="#linear-gradient-2"/><linearGradient id="linear-gradient-55" x1="290.36" y1="301.1" x2="586.12" y2="303.73" xlink:href="#linear-gradient-2"/><linearGradient id="linear-gradient-56" x1="290.33" y1="304.66" x2="586.09" y2="307.29" xlink:href="#linear-gradient-2"/><linearGradient id="linear-gradient-57" x1="290.3" y1="308.21" x2="586.06" y2="310.85" xlink:href="#linear-gradient-2"/><linearGradient id="linear-gradient-58" x1="290.27" y1="311.77" x2="586.03" y2="314.4" xlink:href="#linear-gradient-2"/><linearGradient id="linear-gradient-59" x1="290.23" y1="315.32" x2="586" y2="317.96" xlink:href="#linear-gradient-2"/><linearGradient id="linear-gradient-60" x1="290.2" y1="318.88" x2="585.96" y2="321.51" xlink:href="#linear-gradient-2"/><linearGradient id="linear-gradient-61" x1="290.17" y1="322.43" x2="585.93" y2="325.07" xlink:href="#linear-gradient-2"/><linearGradient id="linear-gradient-62" x1="290.14" y1="325.99" x2="585.9" y2="328.62" xlink:href="#linear-gradient-2"/><linearGradient id="linear-gradient-63" x1="404.81" y1="218.1" x2="262.63" y2="272.52" xlink:href="#linear-gradient-2"/><linearGradient id="linear-gradient-64" x1="112.33" y1="173.14" x2="264.16" y2="354.81" xlink:href="#linear-gradient-2"/><linearGradient id="linear-gradient-65" x1="104.41" y1="43.69" x2="244.83" y2="413.47" xlink:href="#linear-gradient-2"/><linearGradient id="linear-gradient-66" x1="441.72" y1="244.87" x2="446.11" y2="171.15" xlink:href="#linear-gradient"/><linearGradient id="linear-gradient-67" x1="56.44" y1="263.01" x2="60.83" y2="189.29" xlink:href="#linear-gradient"/></defs><title>Chichen Itza</title><g clip-path="url(#clip-path)"><path d="M23.31,198.79c-.18-10-1.08-20.13,1.58-29.72,4.83-17.43,10.89-68.6,28.06-74.3s35.61-5.8,53.69-6.25c129.78-3.24,260.4-27.7,388.56-7,7.83,1.26,25.75,41.43,32.67,45.3,9,5,15.43,13.69,20.45,22.71,12.28,22,17.63,47.24,21.14,72.24a563.34,563.34,0,0,1,3.66,123c-.44,5.51-1,11.25-4.06,15.88-4.91,7.53-14.63,10-23.46,11.6-80.49,14.73-163.07,9.45-244.89,10.31-66.27.69-132.81,5.44-198.66-2.11-24-2.75-50.76-3-74.29-7.9C11,369.07,9.13,356.65,8.66,341.22,7.19,293.25,24.15,246.77,23.31,198.79Z" transform="translate(29.5 -73.27)" fill="#68e1fd" opacity="0.42" style="isolation:isolate"/><path d="M456.21,146.69c.48-9.43-9.72-16.27-19.14-16.85s-18.58,2.94-27.95,4.06c-24.58,2.94-48.14-10.55-72.82-12.43-28.71-2.18-56.55,11.44-85.34,11.31-14.8-.07-29.38-3.79-44.18-4.08s-30.91,3.7-39.82,15.52c-3.43,4.54-5.73,10.13-10.39,13.4-6.41,4.49-15.21,3.18-22.56,5.88-8.34,3.07-14.11,11-22.31,14.39-9.06,3.76-19.35,1.41-29.15,1.68S61.21,185,60.47,194.78q29.18,6.21,58.34,12.38A44.55,44.55,0,0,0,101.32,222l53.88-.45c-7.18,10.65-21.86,15.55-34,11.34a11.48,11.48,0,0,0,11.88,7.74,357.71,357.71,0,0,0-80,11.1c15.92,4.8,32.94,3.86,49.54,2.87,23.1-1.37,49.26-4.31,63.1-22.85,2.75-3.67,5-8,9-10.25,5.14-2.93,11.54-1.63,17.32-.38a395.38,395.38,0,0,0,142.75,4.32c3.73-.57,7.61-1.18,11.19,0s6.26,3.92,9.31,6.06c9.59,6.73,22.12,7.2,33.83,6.91a392.55,392.55,0,0,0,85.07-11.51l-57.49-5c-4.94-.43-10.59-1.27-13.24-5.46s2.29-11.38,6.3-8.47a31.81,31.81,0,0,1-21.14-10.45C387.72,196.56,455.74,155.8,456.21,146.69Z" transform="translate(29.5 -73.27)" fill="url(#linear-gradient)"/><path d="M-.66,408s572.22-7,584.5-7h21.07l-2.64,68.15H-.37Z" transform="translate(29.5 -73.27)" fill="#68e1fd"/><path d="M98.31,420.58c8.38-1.74,16.62-4.18,25-5.71,11.38-2.07,23-2.47,34.54-2.84q181.65-5.82,363.46-3.4c17,.23,34,.52,50.71,3.46,4,.71,8.34,1.53,12-.24s5.57-7.44,2.36-10c-1.44-1.13-3.39-1.27-5.22-1.37C416.79,391.91,252,395,87.42,399.05c-12.33.3-94.34-8-88.2,10.18S83.06,423.75,98.31,420.58Z" transform="translate(29.5 -73.27)" fill="url(#linear-gradient-2)"/><path d="M512.88,332.86l3.13.4c5.14.64,10.3,1.29,15.46,1.76a7.52,7.52,0,0,0,3.95-.37c2.94-1.43,3-5.94,5.74-7.72,3.08-2,7.68,2.27,5.9,5.48a26.24,26.24,0,0,1,11.2-2.71l-.43-8.22A31.2,31.2,0,0,1,571.25,319c1-2.08,2.09-4.27,4-5.51s5-1,6.05,1.07A35.19,35.19,0,0,1,605,303.77c-3.5,15.35-.18,31.29.92,47A165.3,165.3,0,0,1,602.64,397c-.31,1.48-.74,3.1-2,4a6.12,6.12,0,0,1-3.31.77l-26.29,1a8.31,8.31,0,0,1-4.38-.64c-2.4-1.34-2.81-4.52-3.56-7.16-3.31-11.71-16.4-17-27.21-22.56a111.12,111.12,0,0,1-33.42-26.55c-2.37-2.78-10.67-10.74-7.67-15.12C497.52,326.79,508.82,332.36,512.88,332.86Z" transform="translate(29.5 -73.27)" fill="#68e1fd"/><path d="M512.88,332.86l3.13.4c5.14.64,10.3,1.29,15.46,1.76a7.52,7.52,0,0,0,3.95-.37c2.94-1.43,3-5.94,5.74-7.72,3.08-2,7.68,2.27,5.9,5.48a26.24,26.24,0,0,1,11.2-2.71l-.43-8.22A31.2,31.2,0,0,1,571.25,319c1-2.08,2.09-4.27,4-5.51s5-1,6.05,1.07A35.19,35.19,0,0,1,605,303.77c-3.5,15.35-.18,31.29.92,47A165.3,165.3,0,0,1,602.64,397c-.31,1.48-.74,3.1-2,4a6.12,6.12,0,0,1-3.31.77l-26.29,1a8.31,8.31,0,0,1-4.38-.64c-2.4-1.34-2.81-4.52-3.56-7.16-3.31-11.71-16.4-17-27.21-22.56a111.12,111.12,0,0,1-33.42-26.55c-2.37-2.78-10.67-10.74-7.67-15.12C497.52,326.79,508.82,332.36,512.88,332.86Z" transform="translate(29.5 -73.27)" fill="url(#linear-gradient-3)"/><path d="M30,341.69c10.12,4.12,21.31,4.5,32.23,4.82,4.74.14,9.58.27,14.12-1.08a78.48,78.48,0,0,0,16.45,1.86c-11.73,11.51-18.06,24.07-31.74,33.17-10.2,6.79-7.91,10-11.7,21.65-.45,1.36-21,4.47-21.95,5.57-1.82,2.22-5.12,2.31-8,2.22l-20.21-.67A43.67,43.67,0,0,1-.51,390a15.72,15.72,0,0,0,.75-5.15c-.9-9-10.17-19.69,0-27.12,4.11-3,10.21-3.5,14.81-5.62C16.77,351.26,29.79,341.6,30,341.69Z" transform="translate(29.5 -73.27)" fill="#68e1fd"/><path d="M30,341.69c10.12,4.12,21.31,4.5,32.23,4.82,4.74.14,9.58.27,14.12-1.08a78.48,78.48,0,0,0,16.45,1.86c-11.73,11.51-18.06,24.07-31.74,33.17-10.2,6.79-7.91,10-11.7,21.65-.45,1.36-21,4.47-21.95,5.57-1.82,2.22-5.12,2.31-8,2.22l-20.21-.67A43.67,43.67,0,0,1-.51,390a15.72,15.72,0,0,0,.75-5.15c-.9-9-10.17-19.69,0-27.12,4.11-3,10.21-3.5,14.81-5.62C16.77,351.26,29.79,341.6,30,341.69Z" transform="translate(29.5 -73.27)" fill="url(#linear-gradient-4)"/><polygon points="249.71 119.82 249.71 128.45 292.71 110.31 376.23 117.48 376.23 109.14 292.71 100.51 249.71 119.82" fill="#68e1fd"/><polygon points="249.71 119.82 249.71 128.45 292.71 110.31 376.23 117.48 376.23 109.14 292.71 100.51 249.71 119.82" fill="url(#linear-gradient-5)"/><polygon points="251.03 154.19 251.46 126.84 292.71 110.31 375.06 116.75 374.33 146.88 375.5 152.58 292.27 146.29 251.03 154.19" fill="#68e1fd"/><polygon points="251.03 154.19 251.46 126.84 292.71 110.31 375.06 116.75 374.33 146.88 375.5 152.58 292.27 146.29 251.03 154.19" fill="url(#linear-gradient-6)"/><polygon points="223.77 164.63 277.79 145.32 393.44 153.12 402.03 170.67 418.8 171.84 425.43 190.56 443.37 192.9 450.39 210.07 451.17 211.43 466.78 211.72 475.55 230.74 491.35 230.35 501.69 249.85 517.48 250.24 527.43 270.33 541.86 269.55 555.71 289.64 569.56 290.22 582.62 308.75 596.67 307.97 608.37 329.04 187.88 333.71 56.05 334.11 221.43 173.01 223.77 164.63" fill="#68e1fd"/><polygon points="223.77 164.63 277.79 145.32 393.44 153.12 402.03 170.67 418.8 171.84 425.43 190.56 443.37 192.9 450.39 210.07 451.17 211.43 466.78 211.72 475.55 230.74 491.35 230.35 501.69 249.85 517.48 250.24 527.43 270.33 541.86 269.55 555.71 289.64 569.56 290.22 582.62 308.75 596.67 307.97 608.37 329.04 187.88 333.71 56.05 334.11 221.43 173.01 223.77 164.63" fill="url(#linear-gradient-7)"/><polygon points="292.71 100.51 293.15 120.26 293.74 138.69 292.27 146.29 277.79 145.32 251.03 154.19 251.46 126.84 249.71 128.45 249.71 119.82 292.71 100.51" fill="#68e1fd"/><polygon points="292.71 100.51 293.15 120.26 293.74 138.69 292.27 146.29 277.79 145.32 251.03 154.19 251.46 126.84 249.71 128.45 249.71 119.82 292.71 100.51" fill="url(#linear-gradient-8)"/><polygon points="248.83 138.59 293.15 120.26 376.67 127.76 376.28 134.4 293.39 127.37 249.03 144.63 248.83 138.59" fill="#68e1fd"/><polygon points="248.83 138.59 293.15 120.26 376.67 127.76 376.28 134.4 293.39 127.37 249.03 144.63 248.83 138.59" fill="url(#linear-gradient-9)"/><polygon points="328.4 148.34 325.87 140.15 326.45 134.69 335.91 134.69 335.81 141.81 338.06 149.51 328.4 148.34" fill="#68e1fd"/><polygon points="328.4 148.34 325.87 140.15 326.45 134.69 335.91 134.69 335.81 141.81 338.06 149.51 328.4 148.34" fill="url(#linear-gradient-10)"/><polygon points="298.34 146.59 401.64 330.99 414.51 330.6 307.24 147.27 298.34 146.59" fill="#68e1fd"/><polygon points="365.26 150.97 479.06 330.6 489.5 330.11 374.72 152.04 365.26 150.97" fill="#68e1fd"/><polygon points="378.04 330.4 372.58 330.16 370.53 308.51 366.58 308.07 364.82 288.03 355.46 287.44 351.22 269.16 347.42 267.4 343.47 246.93 336.89 245.27 332.99 226.06 328.4 225.57 324.31 205.39 321.38 204.9 315.38 186.15 311.51 185.57 307.05 165.67 302.95 165.23 298.37 147.17 401.64 330.99 378.04 330.4" fill="#68e1fd"/><polygon points="378.04 330.4 372.58 330.16 370.53 308.51 366.58 308.07 364.82 288.03 355.46 287.44 351.22 269.16 347.42 267.4 343.47 246.93 336.89 245.27 332.99 226.06 328.4 225.57 324.31 205.39 321.38 204.9 315.38 186.15 311.51 185.57 307.05 165.67 302.95 165.23 298.37 147.17 401.64 330.99 378.04 330.4" fill="url(#linear-gradient-11)"/><polygon points="255.56 153.31 74.77 334.4 79.74 334.11 262.39 152.73 255.56 153.31" fill="#68e1fd"/><polygon points="236.25 159.75 58.19 334.3 56.05 334.11 233.03 161.07 236.25 159.75" fill="#68e1fd"/><polygon points="278.18 148.63 276.23 164.63 269.41 163.84 267.07 183.35 260.82 183.74 256.73 201.68 249.12 202.66 244.05 222.74 237.81 223.72 235.47 243.42 227.87 244 224.75 264.48 216.36 264.29 212.65 286.91 205.05 287.3 199.1 310.12 191.49 310.7 187.88 333.71 125.28 332.94 114.55 324.16 262.39 152.73 278.18 148.63" fill="url(#linear-gradient-12)"/><polygon points="306.37 112.84 306.17 120.45 316.9 121.13 316.8 113.43 306.37 112.84" fill="#68e1fd"/><polygon points="352.2 117.23 351.9 124.16 362.24 125.03 362.53 118.01 352.2 117.23" fill="#68e1fd"/><path d="M252.11,207.35a29.54,29.54,0,0,1-7.18,1.93l5.62.27a10.11,10.11,0,0,1,.27,3.87,10.06,10.06,0,0,0-4,0c1.32,0,2.65,0,4,.1a.35.35,0,0,1,.17.06.23.23,0,0,1,.06.18,25,25,0,0,1-.07,4.89,20.22,20.22,0,0,1,2.46.08,82.52,82.52,0,0,0-.34-11.66,6.24,6.24,0,0,0-1.7.68" transform="translate(29.5 -73.27)" fill="#68e1fd"/><path d="M243.87,211.19a10.17,10.17,0,0,0-.33,2.8,10.67,10.67,0,0,1,2.33,0,9,9,0,0,1,.53,4.49.88.88,0,0,1-.18.48,1.05,1.05,0,0,1-.31.18,19.91,19.91,0,0,1-4.48,1.2,13,13,0,0,1,.12-3.17l.76-.1a10.3,10.3,0,0,0-.25-2.87,1.48,1.48,0,0,0-.27-.74c-.33-.4-1.85-.73-1-1.31A10.48,10.48,0,0,1,243.87,211.19Z" transform="translate(29.5 -73.27)" fill="#68e1fd"/><path d="M237.4,216.37a2.22,2.22,0,0,0,0,.63c.08.46.48.8.68,1.22a2.94,2.94,0,0,1,.18,1.11l.06,2.08a.5.5,0,0,1-.07.36.54.54,0,0,1-.45.15L236,222a.28.28,0,0,1-.2-.05.28.28,0,0,1-.06-.16,24.43,24.43,0,0,1-.23-4.76.83.83,0,0,1,.09-.39,1,1,0,0,1,.41-.26c.5-.25.58-.88,1-1.11C237.63,214.92,237.44,216,237.4,216.37Z" transform="translate(29.5 -73.27)" fill="#68e1fd"/><path d="M230.31,218.75a12.63,12.63,0,0,0-.41,1.9,6.19,6.19,0,0,0,.44,3,11.59,11.59,0,0,1,1.56-.29c.31-1.44-.14-3,.09-4.41.1-.63.77-2.16-.29-2.25S230.51,218,230.31,218.75Z" transform="translate(29.5 -73.27)" fill="#68e1fd"/><polygon points="262.78 155.46 278.77 150.39 299.64 151.95 298.37 147.17 277.79 145.32 262.58 150.97 262.78 155.46" fill="#68e1fd"/><polygon points="377.55 156.97 395.69 158.43 393.44 153.12 375.5 152.58 377.55 156.97" fill="#68e1fd"/><polygon points="253.22 168.92 269.41 163.84 307.05 165.67 307.34 170.87 269.31 169.11 251.17 173.79 253.22 168.92" fill="#68e1fd"/><polygon points="385.84 169.31 418.99 170.48 420.16 176.91 390.13 175.35 385.84 169.31" fill="#68e1fd"/><polygon points="236.74 189.69 260.82 183.74 315.04 184.32 315.63 191.15 259.65 188.61 234.69 194.85 236.74 189.69" fill="#68e1fd"/><polygon points="399.1 189 443.76 190.95 445.91 196.81 402.42 194.46 399.1 189" fill="#68e1fd"/><polygon points="219.48 209.87 252.34 201.29 324.31 205.39 326.06 212.11 249.71 207.43 216.65 215.33 219.48 209.87" fill="#68e1fd"/><polygon points="411.78 209.19 466.78 211.72 469.7 217.67 414.41 214.46 411.78 209.19" fill="#68e1fd"/><polygon points="203.49 229.76 244.05 222.74 332.99 226.06 334.16 232.69 239.37 228.4 199.98 235.42 203.49 229.76" fill="#68e1fd"/><polygon points="424.94 228.5 491.35 230.35 494.86 236.69 427.57 234.64 424.94 228.5" fill="#68e1fd"/><polygon points="193.74 249.85 233.62 243.12 339.52 245.46 344.49 251.31 227.77 249.27 183.3 257.17 185.54 252.19 193.74 249.85" fill="#68e1fd"/><polygon points="436.35 246.63 517.48 250.24 520.9 257.46 438.99 252.49 436.35 246.63" fill="#68e1fd"/><polygon points="169.55 272.67 218.41 263.89 350.05 265.94 353.56 274.13 214.31 270.62 164.58 278.23 169.55 272.67" fill="#68e1fd"/><polygon points="447.66 265.06 541.86 269.55 548.69 277.94 453.9 275.99 447.66 265.06" fill="#68e1fd"/><polygon points="150.83 292.76 205.05 287.3 364.82 288.03 365.26 293.15 202.9 294.03 148.2 298.42 150.83 292.76" fill="#68e1fd"/><polygon points="132.5 312.85 199.68 308.07 370.53 306.61 371.11 312.16 189.74 314.8 130.35 318.89 132.5 312.85" fill="#68e1fd"/><polygon points="473.8 305.73 596.67 307.97 599.88 313.63 479.06 312.75 473.8 305.73" fill="#68e1fd"/><polygon points="462.97 288.47 569.56 290.22 573.85 295.2 466.48 295.49 462.97 288.47" fill="#68e1fd"/><polygon points="308.8 149.36 366 152.37 366.97 153.92 309.82 151.25 308.8 149.36" fill="#68e1fd"/><polygon points="311.13 153.5 368.32 156.51 369.29 158.05 312.15 155.38 311.13 153.5" fill="#68e1fd"/><polygon points="313.36 157.07 370.55 160.08 371.52 161.63 314.38 158.96 313.36 157.07" fill="#68e1fd"/><polygon points="315.59 160.65 372.78 163.66 373.75 165.2 316.61 162.53 315.59 160.65" fill="#68e1fd"/><polygon points="317.82 164.22 375.01 167.23 375.98 168.78 318.84 166.11 317.82 164.22" fill="#68e1fd"/><polygon points="320.05 167.8 377.24 170.81 378.21 172.35 321.06 169.69 320.05 167.8" fill="#68e1fd"/><polygon points="322.28 171.37 379.47 174.38 380.44 175.93 323.3 173.26 322.28 171.37" fill="#68e1fd"/><polygon points="324.51 174.95 381.7 177.96 382.67 179.5 325.52 176.84 324.51 174.95" fill="#68e1fd"/><polygon points="326.74 178.53 383.93 181.53 384.9 183.08 327.75 180.41 326.74 178.53" fill="#68e1fd"/><polygon points="328.97 182.1 386.16 185.11 387.13 186.66 329.98 183.99 328.97 182.1" fill="#68e1fd"/><polygon points="331.19 185.68 388.39 188.69 389.36 190.23 332.21 187.56 331.19 185.68" fill="#68e1fd"/><polygon points="333.43 189.25 390.62 192.26 391.59 193.81 334.44 191.14 333.43 189.25" fill="#68e1fd"/><polygon points="335.65 192.83 392.85 195.84 393.82 197.38 336.67 194.71 335.65 192.83" fill="#68e1fd"/><polygon points="337.88 196.4 395.08 199.41 396.05 200.96 338.9 198.29 337.88 196.4" fill="#68e1fd"/><polygon points="340.11 199.98 397.31 202.99 398.28 204.53 341.13 201.86 340.11 199.98" fill="#68e1fd"/><polygon points="342.34 203.55 399.54 206.56 400.51 208.11 343.36 205.44 342.34 203.55" fill="#68e1fd"/><polygon points="344.57 207.13 401.77 210.14 402.74 211.68 345.59 209.01 344.57 207.13" fill="#68e1fd"/><polygon points="346.8 210.7 404 213.71 404.97 215.26 347.82 212.59 346.8 210.7" fill="#68e1fd"/><polygon points="349.03 214.28 406.23 217.29 407.19 218.83 350.05 216.16 349.03 214.28" fill="#68e1fd"/><polygon points="351.26 217.85 408.46 220.86 409.43 222.41 352.28 219.74 351.26 217.85" fill="#68e1fd"/><polygon points="353.49 221.43 410.69 224.44 411.65 225.98 354.51 223.31 353.49 221.43" fill="#68e1fd"/><polygon points="355.72 225 412.92 228.01 413.88 229.56 356.74 226.89 355.72 225" fill="#68e1fd"/><polygon points="357.95 228.58 415.14 231.59 416.11 233.13 358.97 230.46 357.95 228.58" fill="#68e1fd"/><polygon points="360.18 232.15 417.37 235.16 418.34 236.71 361.2 234.04 360.18 232.15" fill="#68e1fd"/><polygon points="362.41 235.73 419.6 238.74 420.57 240.28 363.43 237.62 362.41 235.73" fill="#68e1fd"/><polygon points="364.64 239.3 421.83 242.31 422.8 243.86 365.66 241.19 364.64 239.3" fill="#68e1fd"/><polygon points="366.87 242.88 424.06 245.89 425.03 247.43 367.89 244.76 366.87 242.88" fill="#68e1fd"/><polygon points="369.1 246.45 426.29 249.46 427.26 251.01 370.12 248.34 369.1 246.45" fill="#68e1fd"/><polygon points="371.33 250.03 428.52 253.04 429.49 254.58 372.35 251.91 371.33 250.03" fill="#68e1fd"/><polygon points="373.56 253.6 430.75 256.61 431.72 258.16 374.58 255.49 373.56 253.6" fill="#68e1fd"/><polygon points="375.79 257.18 432.98 260.19 433.95 261.74 376.81 259.07 375.79 257.18" fill="#68e1fd"/><polygon points="378.02 260.75 435.21 263.76 436.18 265.31 379.04 262.64 378.02 260.75" fill="#68e1fd"/><polygon points="380.25 264.33 437.44 267.34 438.41 268.88 381.26 266.22 380.25 264.33" fill="#68e1fd"/><polygon points="382.48 267.9 439.67 270.92 440.64 272.46 383.49 269.79 382.48 267.9" fill="#68e1fd"/><polygon points="384.71 271.48 441.9 274.49 442.87 276.04 385.72 273.37 384.71 271.48" fill="#68e1fd"/><polygon points="386.94 275.06 444.13 278.06 445.1 279.61 387.95 276.94 386.94 275.06" fill="#68e1fd"/><polygon points="389.17 278.63 446.36 281.64 447.33 283.19 390.18 280.52 389.17 278.63" fill="#68e1fd"/><polygon points="391.39 282.21 448.59 285.21 449.56 286.76 392.41 284.09 391.39 282.21" fill="#68e1fd"/><polygon points="393.62 285.78 450.82 288.79 451.79 290.34 394.64 287.67 393.62 285.78" fill="#68e1fd"/><polygon points="395.85 289.36 453.05 292.37 454.02 293.91 396.87 291.24 395.85 289.36" fill="#68e1fd"/><polygon points="398.08 292.93 455.28 295.94 456.25 297.49 399.1 294.82 398.08 292.93" fill="#68e1fd"/><polygon points="400.31 296.51 457.51 299.52 458.48 301.06 401.33 298.39 400.31 296.51" fill="#68e1fd"/><polygon points="402.54 300.08 459.74 303.09 460.71 304.64 403.56 301.97 402.54 300.08" fill="#68e1fd"/><polygon points="404.77 303.66 461.97 306.67 462.94 308.21 405.79 305.54 404.77 303.66" fill="#68e1fd"/><polygon points="407 307.23 464.19 310.24 465.17 311.79 408.02 309.12 407 307.23" fill="#68e1fd"/><polygon points="409.23 310.81 466.43 313.82 467.39 315.36 410.25 312.69 409.23 310.81" fill="#68e1fd"/><polygon points="411.46 314.38 468.65 317.39 469.62 318.94 412.48 316.27 411.46 314.38" fill="#68e1fd"/><polygon points="413.69 317.96 470.88 320.97 471.85 322.51 414.71 319.84 413.69 317.96" fill="#68e1fd"/><polygon points="415.92 321.53 473.11 324.54 474.08 326.09 416.94 323.42 415.92 321.53" fill="#68e1fd"/><polygon points="418.15 325.11 475.34 328.12 476.31 329.66 419.17 327 418.15 325.11" fill="#68e1fd"/><polygon points="308.8 149.36 366 152.37 366.97 153.92 309.82 151.25 308.8 149.36" fill="url(#linear-gradient-13)"/><polygon points="311.13 153.5 368.32 156.51 369.29 158.05 312.15 155.38 311.13 153.5" fill="url(#linear-gradient-14)"/><polygon points="313.36 157.07 370.55 160.08 371.52 161.63 314.38 158.96 313.36 157.07" fill="url(#linear-gradient-15)"/><polygon points="315.59 160.65 372.78 163.66 373.75 165.2 316.61 162.53 315.59 160.65" fill="url(#linear-gradient-16)"/><polygon points="317.82 164.22 375.01 167.23 375.98 168.78 318.84 166.11 317.82 164.22" fill="url(#linear-gradient-17)"/><polygon points="320.05 167.8 377.24 170.81 378.21 172.35 321.06 169.69 320.05 167.8" fill="url(#linear-gradient-18)"/><polygon points="322.28 171.37 379.47 174.38 380.44 175.93 323.3 173.26 322.28 171.37" fill="url(#linear-gradient-19)"/><polygon points="324.51 174.95 381.7 177.96 382.67 179.5 325.52 176.84 324.51 174.95" fill="url(#linear-gradient-20)"/><polygon points="326.74 178.53 383.93 181.53 384.9 183.08 327.75 180.41 326.74 178.53" fill="url(#linear-gradient-21)"/><polygon points="328.97 182.1 386.16 185.11 387.13 186.66 329.98 183.99 328.97 182.1" fill="url(#linear-gradient-22)"/><polygon points="331.19 185.68 388.39 188.69 389.36 190.23 332.21 187.56 331.19 185.68" fill="url(#linear-gradient-23)"/><polygon points="333.43 189.25 390.62 192.26 391.59 193.81 334.44 191.14 333.43 189.25" fill="url(#linear-gradient-24)"/><polygon points="335.65 192.83 392.85 195.84 393.82 197.38 336.67 194.71 335.65 192.83" fill="url(#linear-gradient-25)"/><polygon points="337.88 196.4 395.08 199.41 396.05 200.96 338.9 198.29 337.88 196.4" fill="url(#linear-gradient-26)"/><polygon points="340.11 199.98 397.31 202.99 398.28 204.53 341.13 201.86 340.11 199.98" fill="url(#linear-gradient-27)"/><polygon points="342.34 203.55 399.54 206.56 400.51 208.11 343.36 205.44 342.34 203.55" fill="url(#linear-gradient-28)"/><polygon points="344.57 207.13 401.77 210.14 402.74 211.68 345.59 209.01 344.57 207.13" fill="url(#linear-gradient-29)"/><polygon points="346.8 210.7 404 213.71 404.97 215.26 347.82 212.59 346.8 210.7" fill="url(#linear-gradient-30)"/><polygon points="349.03 214.28 406.23 217.29 407.19 218.83 350.05 216.16 349.03 214.28" fill="url(#linear-gradient-31)"/><polygon points="351.26 217.85 408.46 220.86 409.43 222.41 352.28 219.74 351.26 217.85" fill="url(#linear-gradient-32)"/><polygon points="353.49 221.43 410.69 224.44 411.65 225.98 354.51 223.31 353.49 221.43" fill="url(#linear-gradient-33)"/><polygon points="355.72 225 412.92 228.01 413.88 229.56 356.74 226.89 355.72 225" fill="url(#linear-gradient-34)"/><polygon points="357.95 228.58 415.14 231.59 416.11 233.13 358.97 230.46 357.95 228.58" fill="url(#linear-gradient-35)"/><polygon points="360.18 232.15 417.37 235.16 418.34 236.71 361.2 234.04 360.18 232.15" fill="url(#linear-gradient-36)"/><polygon points="362.41 235.73 419.6 238.74 420.57 240.28 363.43 237.62 362.41 235.73" fill="url(#linear-gradient-37)"/><polygon points="364.64 239.3 421.83 242.31 422.8 243.86 365.66 241.19 364.64 239.3" fill="url(#linear-gradient-38)"/><polygon points="366.87 242.88 424.06 245.89 425.03 247.43 367.89 244.76 366.87 242.88" fill="url(#linear-gradient-39)"/><polygon points="369.1 246.45 426.29 249.46 427.26 251.01 370.12 248.34 369.1 246.45" fill="url(#linear-gradient-40)"/><polygon points="371.33 250.03 428.52 253.04 429.49 254.58 372.35 251.91 371.33 250.03" fill="url(#linear-gradient-41)"/><polygon points="373.56 253.6 430.75 256.61 431.72 258.16 374.58 255.49 373.56 253.6" fill="url(#linear-gradient-42)"/><polygon points="375.79 257.18 432.98 260.19 433.95 261.74 376.81 259.07 375.79 257.18" fill="url(#linear-gradient-43)"/><polygon points="378.02 260.75 435.21 263.76 436.18 265.31 379.04 262.64 378.02 260.75" fill="url(#linear-gradient-44)"/><polygon points="380.25 264.33 437.44 267.34 438.41 268.88 381.26 266.22 380.25 264.33" fill="url(#linear-gradient-45)"/><polygon points="382.48 267.9 439.67 270.92 440.64 272.46 383.49 269.79 382.48 267.9" fill="url(#linear-gradient-46)"/><polygon points="384.71 271.48 441.9 274.49 442.87 276.04 385.72 273.37 384.71 271.48" fill="url(#linear-gradient-47)"/><polygon points="386.94 275.06 444.13 278.06 445.1 279.61 387.95 276.94 386.94 275.06" fill="url(#linear-gradient-48)"/><polygon points="389.17 278.63 446.36 281.64 447.33 283.19 390.18 280.52 389.17 278.63" fill="url(#linear-gradient-49)"/><polygon points="391.39 282.21 448.59 285.21 449.56 286.76 392.41 284.09 391.39 282.21" fill="url(#linear-gradient-50)"/><polygon points="393.62 285.78 450.82 288.79 451.79 290.34 394.64 287.67 393.62 285.78" fill="url(#linear-gradient-51)"/><polygon points="395.85 289.36 453.05 292.37 454.02 293.91 396.87 291.24 395.85 289.36" fill="url(#linear-gradient-52)"/><polygon points="398.08 292.93 455.28 295.94 456.25 297.49 399.1 294.82 398.08 292.93" fill="url(#linear-gradient-53)"/><polygon points="400.31 296.51 457.51 299.52 458.48 301.06 401.33 298.39 400.31 296.51" fill="url(#linear-gradient-54)"/><polygon points="402.54 300.08 459.74 303.09 460.71 304.64 403.56 301.97 402.54 300.08" fill="url(#linear-gradient-55)"/><polygon points="404.77 303.66 461.97 306.67 462.94 308.21 405.79 305.54 404.77 303.66" fill="url(#linear-gradient-56)"/><polygon points="407 307.23 464.19 310.24 465.17 311.79 408.02 309.12 407 307.23" fill="url(#linear-gradient-57)"/><polygon points="409.23 310.81 466.43 313.82 467.39 315.36 410.25 312.69 409.23 310.81" fill="url(#linear-gradient-58)"/><polygon points="411.46 314.38 468.65 317.39 469.62 318.94 412.48 316.27 411.46 314.38" fill="url(#linear-gradient-59)"/><polygon points="413.69 317.96 470.88 320.97 471.85 322.51 414.71 319.84 413.69 317.96" fill="url(#linear-gradient-60)"/><polygon points="415.92 321.53 473.11 324.54 474.08 326.09 416.94 323.42 415.92 321.53" fill="url(#linear-gradient-61)"/><polygon points="418.15 325.11 475.34 328.12 476.31 329.66 419.17 327 418.15 325.11" fill="url(#linear-gradient-62)"/><polygon points="247.95 126.25 293.15 106.51 377.84 114.84 377.75 116.16 292.91 108.55 247.88 128.15 247.95 126.25" fill="#68e1fd"/><polygon points="298.37 147.17 291.15 164.72 303.54 165.5 294.66 184.42 305.58 184.03 296.81 203.92 312.02 204.51 301.49 224.69 316.99 225.28 310.26 244.88 321.38 244.88 312.31 265.65 328.99 264.77 320.5 287.88 336.59 287.3 325.19 306.9 345.66 306.31 332.79 332.64 372.58 330.16 401.64 330.99 298.37 147.17" fill="url(#linear-gradient-63)"/><polygon points="79.74 334.11 262.39 152.73 261.7 166.09 253.22 168.92 243.76 188.13 236.74 189.69 228.06 207.92 219.48 209.87 211.09 228.59 203.49 229.76 193.74 249.85 185.54 252.19 176.57 271.31 169.55 272.67 158.04 292.56 150.83 292.76 140.49 313.04 132.5 312.85 125.28 332.94 79.74 334.11" fill="#68e1fd"/><polygon points="79.74 334.11 262.39 152.73 261.7 166.09 253.22 168.92 243.76 188.13 236.74 189.69 228.06 207.92 219.48 209.87 211.09 228.59 203.49 229.76 193.74 249.85 185.54 252.19 176.57 271.31 169.55 272.67 158.04 292.56 150.83 292.76 140.49 313.04 132.5 312.85 125.28 332.94 79.74 334.11" fill="url(#linear-gradient-64)"/><polygon points="249.71 119.82 249.71 125.38 247.95 126.25 247.88 128.15 249.64 127.35 249.71 128.45 251.54 127.79 251.17 137.52 248.83 138.59 249.03 144.63 251.1 143.66 251.1 154.85 223.77 164.63 221.43 173.01 48.93 336.63 187.88 333.71 191.49 310.7 199.68 308.07 202.9 294.03 205.05 287.3 212.65 286.91 216.36 264.29 224.75 264.48 227.87 244 235.47 243.42 237.81 223.72 244.05 222.74 249.12 202.66 256.73 201.68 260.82 183.74 267.07 183.35 269.41 163.84 276.23 164.63 277.79 145.32 292.27 146.29 293.15 120.26 292.71 100.51 249.71 119.82" fill="url(#linear-gradient-65)"/><path d="M392.51,177.44c6,2.52,11.74,6.49,18.23,6.32,8.88-.23,15.8-8.06,24.47-10,9.74-2.14,19.26,3.43,28.59,6.93,19.57,7.35,41.24,5.79,61.81,9.55,3,.54,6.32,1.49,7.63,4.22,1.44,3-.52,6.73-3.39,8.4s-6.35,1.82-9.67,1.92l-28.66.89c-4.79.14-9.69.31-14.14,2.1-5.17,2.07-9.24,6.12-13.8,9.33-14.29,10.08-32.73,11.55-50.18,12.68-6.26.41-12.66.8-18.71-.85-4.89-1.33-9.31-3.93-13.67-6.52-12.26-7.29-29-19.65-24.47-36.49C360.63,170.83,381.17,172.66,392.51,177.44Z" transform="translate(29.5 -73.27)" fill="url(#linear-gradient-66)"/><path d="M7.23,195.58c6,2.52,11.74,6.49,18.23,6.32,8.88-.23,15.8-8.07,24.47-10,9.74-2.15,19.26,3.43,28.59,6.93,19.57,7.35,41.24,5.79,61.81,9.55,3,.54,6.32,1.49,7.63,4.22,1.44,3-.52,6.73-3.39,8.4s-6.35,1.82-9.67,1.92l-28.66.88c-4.79.15-9.69.32-14.14,2.1-5.17,2.08-9.24,6.13-13.8,9.34C64,245.33,45.57,246.8,28.12,247.94c-6.26.41-12.66.8-18.71-.85-4.89-1.33-9.31-3.93-13.67-6.52-12.26-7.29-29-19.66-24.47-36.49C-24.65,189-4.11,190.8,7.23,195.58Z" transform="translate(29.5 -73.27)" fill="url(#linear-gradient-67)"/></g></svg>