<svg id="Layer_1" data-name="Layer 1" xmlns="http://www.w3.org/2000/svg" xmlns:xlink="http://www.w3.org/1999/xlink" viewBox="0 0 521.72 368.47"><defs><linearGradient id="linear-gradient" x1="216.93" y1="185.53" x2="197.56" y2="445.42" gradientUnits="userSpaceOnUse"><stop offset="0" stop-color="#010101" stop-opacity="0"/><stop offset="0.95" stop-color="#010101"/></linearGradient><linearGradient id="linear-gradient-2" x1="141.71" y1="266.76" x2="132.56" y2="389.5" xlink:href="#linear-gradient"/><linearGradient id="linear-gradient-3" x1="285.23" y1="190.62" x2="265.85" y2="450.52" xlink:href="#linear-gradient"/><linearGradient id="linear-gradient-4" x1="286.6" y1="190.72" x2="267.23" y2="450.62" xlink:href="#linear-gradient"/><linearGradient id="linear-gradient-5" x1="447.44" y1="224.32" x2="428.07" y2="484.22" xlink:href="#linear-gradient"/><linearGradient id="linear-gradient-6" x1="451.3" y1="203" x2="431.93" y2="462.89" xlink:href="#linear-gradient"/><linearGradient id="linear-gradient-7" x1="358.94" y1="217.72" x2="339.57" y2="477.62" xlink:href="#linear-gradient"/></defs><title>CHINA</title><path d="M503.36,375.93c-4.41,1.49-9.2,1.64-13.87,1.75-58.89,1.44-117.79,2.87-176.68,3.81a2.33,2.33,0,0,0,.41-.94l.22-1.29a3.09,3.09,0,0,1,2.73-2.5l4.1-.45,13.64-4.07a4.6,4.6,0,0,0,2.15-1.47l2-2.49a2.77,2.77,0,0,0,.6-2.06l-.23-1.87a.91.91,0,0,1,1.55-.74l.31.34a2.23,2.23,0,0,0,2.84.32l2.84-1.84a1.69,1.69,0,0,1,2.47.69.91.91,0,0,0,1.54.11l.4-.54a1.76,1.76,0,0,1,2.36-.46l.45.29a1.31,1.31,0,0,0,1.95-.72v0a1.18,1.18,0,0,1,1.67-.66l0,0a3.16,3.16,0,0,0,2.5.2l3.47-1.17a1.21,1.21,0,0,0,.83-1.32,3,3,0,0,1,.6-2.21l2.32-2.92a3.8,3.8,0,0,1,2.55-1.49,4.09,4.09,0,0,0,2.3-1.18l18.14-18.95a.73.73,0,0,0,.12-.94,3.32,3.32,0,0,1-.09-3.19l.26-.48-.23-.35a2.9,2.9,0,0,1,0-3.47l2.38-3.06a2.71,2.71,0,0,0,.57-1.78l0-1.66a2.58,2.58,0,0,1,1.61-2.5l1.66-.71,4.67-11.33,1.21-.66a1.57,1.57,0,0,0,2.55-.17l2.55-3.95a3,3,0,0,0,.32-2.53l-.72-2.2a1.14,1.14,0,0,1,.83-1.44,3.19,3.19,0,0,0,2.64-3l0-1.17-.8-.26a1.15,1.15,0,0,1-.14-2.12l.29-.14a1.21,1.21,0,0,0-.21-2.27l-2.78-.8-1.23-2.29a2.19,2.19,0,0,0-3.09-.78l-1.95,1.26-.63-.08a1.25,1.25,0,0,1-.69-2.15l5.27-5.08a2.73,2.73,0,0,1,2.24-.8l.26,0a1.29,1.29,0,0,0,1.09-2.09l-4.33-5.25a.72.72,0,0,1,.91-1.09l1.9,1a1.78,1.78,0,0,0,2.58-1.92l-.29-1.37a2.38,2.38,0,0,0-1.15-1.58l-3.38-2a2.83,2.83,0,0,0-1.23-3.44c-.52-.31-1.06-.63-1.58-.92a2.6,2.6,0,0,1-1.23-2.66l0,0a5.71,5.71,0,0,0-.29-2.92l-4.36-11.59a6.56,6.56,0,0,0-2.32-3l-3.44-2.4a5.31,5.31,0,0,1-1.17-7.49l4.41-5.93c1.38.8,2.75,1.66,4.07,2.58,19.92,13.65,31.45,38.24,53.44,48.22,8.34,3.81,17.6,5.16,26.22,8.22,26,9.18,45.21,35,46.56,62.5C523.68,353.86,517.58,371.09,503.36,375.93Z" transform="translate(-1.28 -21.71)" fill="#68e1fd" opacity="0.43" style="isolation:isolate"/><path d="M517.09,83.82a3.87,3.87,0,0,1-2,3.79l-.48.25a5.16,5.16,0,0,0-2.53,3.39l-2.52,11a3.65,3.65,0,0,1-.69,1.54L504.28,110a3.28,3.28,0,0,0-.63,2.61v0a2.9,2.9,0,0,1-1.52,3l-.52.29a2.83,2.83,0,0,0-1.26,1.32l-1.17,2.46a2.28,2.28,0,0,1-2.93,1.12l-.11-.06a2.46,2.46,0,0,1-1.35-3.18l.14-.4a2.15,2.15,0,0,0-.17-1.86l-.92-1.49a1.65,1.65,0,0,0-2.83,0l-.58,1a3,3,0,0,1-2.09,1.52l-.57.14a3,3,0,0,0-2.18,4l1.66,4.15a5.11,5.11,0,0,1,.26,2.76l-.69,3.58a2.07,2.07,0,0,0,.95,2.18.83.83,0,0,1,.34,1l-1.29,3.58a2.68,2.68,0,0,1-2.29,1.81l-.43,0a2.15,2.15,0,0,0-1.92,2.49l.25,1.47a1.13,1.13,0,0,1-1,1.29,1.08,1.08,0,0,1-1.2-.78l-1.35-4.27a2.47,2.47,0,0,0-1.38-1.55l-.06,0a1.61,1.61,0,0,0-2.2,1.18c-.2,1-.46,2.23-.66,3.32a2.36,2.36,0,0,1-3,1.81l-.86-.26-1.9,3a3.66,3.66,0,0,1-3,1.67l-3.9,0a1.8,1.8,0,0,0-1.74,2V151a1.89,1.89,0,0,0,1,1.49l.09.06a1.71,1.71,0,0,1,.57,2.46l0,0a2,2,0,0,1-2,.83l-5.36-.89a3.13,3.13,0,0,1-2.43-2.09v-.06a2,2,0,0,0-2.7-1.17,7,7,0,0,1-.69.31,2.68,2.68,0,0,0-1.23,1.15l-4.24,7.71a4.34,4.34,0,0,1-1.75,1.75L431,168.44a5.19,5.19,0,0,0-2.61,4l-2.44,1.26a.86.86,0,0,1-.46.12L423,173.6a6.5,6.5,0,0,0-2.72.46l-6.42,2.73a5.9,5.9,0,0,0-2.44,1.92l-2.44,3.15a1.54,1.54,0,0,1-2.32.17l-.43,2.1-3.61,1.31a1.25,1.25,0,0,1-1.64-1.43l.09-.46,3.84-3a2.1,2.1,0,0,0,.17-3.15l-.34-.32a2.61,2.61,0,0,1-.11-3.67l5.73-6.25a2.49,2.49,0,0,0-.09-3.44l-1.66-1.69a3.22,3.22,0,0,0-2.64-.91c-1.89.2-2.43-.15-4.47.37-.31.08-3.12,4.3-4.47,6.33a4.27,4.27,0,0,1-1.86,1.61L389,172.26a5.81,5.81,0,0,0-3,3.18L385,178a4.47,4.47,0,0,1-4.62,2.81l-2.38-.26a4.26,4.26,0,0,0-4.7,4.21v1.84a5.54,5.54,0,0,0,5.16,5.5l4,.26a2.65,2.65,0,0,1,2,1.18l.06.05a2.83,2.83,0,0,1,.46,1.52,2.73,2.73,0,0,1-2.35,2.76.21.21,0,0,0-.12.17l.17,2.12a4.64,4.64,0,0,0,2.33,3.58l.05,0a4.56,4.56,0,0,0,4.22.09c.63-.29,1.26-.58,1.69-.81a4.74,4.74,0,0,0,1.09-.71l5.56-5.05a3.67,3.67,0,0,1,5,.15l1,1a4.51,4.51,0,0,0,2.81,1.29l6.31.52a2.11,2.11,0,0,1,1.86,2.72l-.23.66a3.09,3.09,0,0,1-3.41,2.12l-1.38-.23a4.42,4.42,0,0,0-2.49.37l-6.14,3a4.17,4.17,0,0,0-2.35,3.9,2.62,2.62,0,0,1-2.06,2.61c-.46.12-.92.2-1.35.32a4.5,4.5,0,0,0-2.52,1.6l0,0-4.41,5.93a5.31,5.31,0,0,0,1.17,7.49l3.44,2.4a6.56,6.56,0,0,1,2.32,3l4.36,11.59a5.71,5.71,0,0,1,.29,2.92l0,0a2.6,2.6,0,0,0,1.23,2.66c.52.29,1.06.61,1.58.92a2.83,2.83,0,0,1,1.23,3.44l3.38,2a2.38,2.38,0,0,1,1.15,1.58l.29,1.37a1.78,1.78,0,0,1-2.58,1.92l-1.9-1a.72.72,0,0,0-.91,1.09l4.33,5.25A1.29,1.29,0,0,1,406.5,272l-.26,0a2.73,2.73,0,0,0-2.24.8l-5.27,5.08a1.25,1.25,0,0,0,.69,2.15l.63.08,1.95-1.26a2.19,2.19,0,0,1,3.09.78l1.23,2.29,2.78.8a1.21,1.21,0,0,1,.21,2.27l-.29.14a1.15,1.15,0,0,0,.14,2.12l.8.26,0,1.17a3.19,3.19,0,0,1-2.64,3,1.14,1.14,0,0,0-.83,1.44l.72,2.2a3,3,0,0,1-.32,2.53l-2.55,3.95a1.57,1.57,0,0,1-2.55.17l-1.21.66L395.86,314l-1.66.71a2.58,2.58,0,0,0-1.61,2.5l0,1.66a2.71,2.71,0,0,1-.57,1.78l-2.38,3.06a2.9,2.9,0,0,0,0,3.47l.23.35-.26.48a3.32,3.32,0,0,0,.09,3.19.73.73,0,0,1-.12.94l-18.14,18.95a4.09,4.09,0,0,1-2.3,1.18,3.8,3.8,0,0,0-2.55,1.49l-2.32,2.92a3,3,0,0,0-.6,2.21,1.21,1.21,0,0,1-.83,1.32l-3.47,1.17a3.16,3.16,0,0,1-2.5-.2l0,0a1.18,1.18,0,0,0-1.67.66v0a1.31,1.31,0,0,1-1.95.72l-.45-.29a1.76,1.76,0,0,0-2.36.46l-.4.54a.91.91,0,0,1-1.54-.11,1.69,1.69,0,0,0-2.47-.69l-2.84,1.84a2.23,2.23,0,0,1-2.84-.32l-.31-.34a.91.91,0,0,0-1.55.74l.23,1.87a2.77,2.77,0,0,1-.6,2.06l-2,2.49a4.6,4.6,0,0,1-2.15,1.47l-13.64,4.07-4.1.45a3.09,3.09,0,0,0-2.73,2.5l-.22,1.29a2.33,2.33,0,0,1-.41.94c-2.6.06-5.21.09-7.79.15-86.58,1.32-173.15,1.52-259.66-.95-3.79-.11-7.8-.28-11-2.38-2.38-1.57-4-4-5.48-6.45-6.79-10.8-13.47-22.62-13-35.37.57-15.68,11.49-28.1,21.18-39.45A141.83,141.83,0,0,0,54.39,272.5l-9.24-8.25a2.43,2.43,0,0,1-.77-2.27l.17-1a2.53,2.53,0,0,0-.28-1.63l-2.21-4.05a1.67,1.67,0,0,1,.83-2.37l0,0a1.64,1.64,0,0,1,1.89.48l.49.61a2.78,2.78,0,0,0,3.21.71l2.23-.8a1.65,1.65,0,0,0,1-2.09l-.92-2.5A3.37,3.37,0,0,0,49,247.36l-1-.23A2.87,2.87,0,0,1,45.79,245l-1.24-4.84A4.86,4.86,0,0,1,46,235.44l.26-.23a1.56,1.56,0,0,0-.43-2.55l-4.59-2.15a3.38,3.38,0,0,1-1.89-2.64l-.4-3.18a4.84,4.84,0,0,0-3.13-3.93l-9.26-2.12a6.09,6.09,0,0,1-4.7-5.73L21.76,211a3.92,3.92,0,0,0-2.66-3.59L9.12,204a1.7,1.7,0,0,1,.8-3.29l.15,0a3.84,3.84,0,0,0,4.21-4.95l-2.15-7.2a1.67,1.67,0,0,0-.86-.95L7.92,186.1a1.52,1.52,0,0,0-2,.69,1.54,1.54,0,0,1-2.09.63l-1-.57a1.62,1.62,0,0,1-.8-1.12l-.75-5.56a2.21,2.21,0,0,1,1.61-2.41,1.9,1.9,0,0,0,1.38-2.26l-.4-2a3.21,3.21,0,0,1,2.8-3.87l1.7-.2a2.89,2.89,0,0,0,1.92-1l.45-.58a4.11,4.11,0,0,1,1.5-1.11l3.06-1.27a2.64,2.64,0,0,1,3.62,2.1.77.77,0,0,0,.91.66l3.27-.52a5,5,0,0,0,3.81-3l.78-1.95a5,5,0,0,1,4.47-3l5,0A4.86,4.86,0,0,0,41.34,157a5,5,0,0,1,1-1.49c.31-.09,6-2.38,8.57-3.41a4,4,0,0,0,2-1.72l.11-.18a2.75,2.75,0,0,1,2.9-1.37h0A1.54,1.54,0,0,0,57.71,147L57,143.53a4.78,4.78,0,0,1,.25-3.32.78.78,0,0,1,.49-.37c.86-.18,3.21-.66,2.87-.78a.32.32,0,0,1-.17-.14,1.6,1.6,0,0,1,1.2-2.64.54.54,0,0,0,.52-.63L58.8,122.06a3.53,3.53,0,0,1,.8-3.21l-5.42-.71a1.59,1.59,0,0,1,1.12-2l12-3.36a4.35,4.35,0,0,1,4.3,1.15l.15.11.2,0a3.9,3.9,0,0,1,3.9.74.5.5,0,0,0,.83-.26l.17-.71A3.17,3.17,0,0,0,75,110.14l0,0a1.23,1.23,0,0,1-.66-1.61c1.15-2.81,4.21-10.17,6-14.47a3.37,3.37,0,0,1,4.5-1.81l4.36,2,4.33-.52a3.12,3.12,0,0,1,2.6.89,1.09,1.09,0,0,0,1.32.15l4-2.38a3.61,3.61,0,0,0,1.66-3.93l-1-4.33a3.53,3.53,0,0,1,.11-2.06l.69-2a3.69,3.69,0,0,1,3.64-2.47l2.18.15a1.62,1.62,0,0,0,1.34-.58l.89-1c1.06-1,1.64-1.92,1.09-3.24l-.17-.31a1.06,1.06,0,0,1,.46-1.47l2-1a1.87,1.87,0,0,1,1.57,0l1.24.6a1.69,1.69,0,0,0,1.29,0l2.06-.77a1,1,0,0,1,1.29.54L122,71a1.06,1.06,0,0,1-.46,1.32l-.17.08a.9.9,0,0,0-.2,1.44l8.94,8.45a1.93,1.93,0,0,0,1.46.52l3.82-.4a1.54,1.54,0,0,1,1.43.71l.46.75a2,2,0,0,0,1.2.86l.72.17a2.34,2.34,0,0,1,1.38,1l4.47,6.79a2.22,2.22,0,0,0,1.72,1,1.12,1.12,0,0,1,1.06,1l.69,9.32a2.45,2.45,0,0,1-.43,1.58L145.66,109a2.11,2.11,0,0,0,0,2.38l1.35,2a2.77,2.77,0,0,0,2.18,1.2l18,.86A3.82,3.82,0,0,1,169,116l11.32,6.88a2.53,2.53,0,0,0,1.43.43l2.41.09a2,2,0,0,1,1.81,1.2l6.9,15a3.18,3.18,0,0,0,2.76,1.87l42.05,1.8a3,3,0,0,1,2.44,1.44l1.17,2a3,3,0,0,0,2.24,1.41l16.42,1.92a2,2,0,0,1,1.72,1.86v0a1.59,1.59,0,0,0,1.21,1.49c.69.17,1.55.43,2.26.6a3.57,3.57,0,0,0,2.55-.28l17.18-9.2a7.17,7.17,0,0,1,3.61-.81l16.42.75a7.7,7.7,0,0,0,5.48-1.95L323.25,131a2.78,2.78,0,0,0,.14-4l-2.26-2.35a3.26,3.26,0,0,1-.58-3.82l2.5-4.87a2.52,2.52,0,0,1,3.07-1.23L337,118.45a2.94,2.94,0,0,0,2.81-.52l7-5.79a4.59,4.59,0,0,1,3.76-1l2.61.49a4.46,4.46,0,0,0,4.36-1.67l5.73-7.48a8.18,8.18,0,0,1,3.52-2.58L377,96.26a5.49,5.49,0,0,1,3.95.09l5.54,2.26a3.62,3.62,0,0,0,3.29-.28l1.44-.92a3.21,3.21,0,0,0,1.46-3.33l-.32-1.77a4.79,4.79,0,0,0-2.18-3.13l-10.89-6.59a3.25,3.25,0,0,0-1.55-.49l-2.46-.2a2.75,2.75,0,0,0-2.61,1.35L372,84.42a2.27,2.27,0,0,1-3.35.61l-2.09-1.67a2.07,2.07,0,0,0-1.44-.43l-3.49.26a2.24,2.24,0,0,0-1.84,1.23l-.43.86a1.26,1.26,0,0,1-2.06.29L355.81,84a2.77,2.77,0,0,1-.45-3.21l8-15.59a3.86,3.86,0,0,1,4.7-1.9l4.59,1.55a3.26,3.26,0,0,0,2.95-.4l4.42-3a4,4,0,0,1,2-.72l3.56-.2a2.18,2.18,0,0,0,2-1.83l0-.09a2.35,2.35,0,0,0-.91-2.2l0,0a2.18,2.18,0,0,1-.58-2.93c1.72-2.66,4.93-7.79,6.57-10.46a6.93,6.93,0,0,1,2.89-2.58l2.1-1a2.66,2.66,0,0,0,1.43-2.84L398.44,33a1.88,1.88,0,0,0-2.09-1.5l-3.38.44a.86.86,0,0,1-1-1V30.9a2.48,2.48,0,0,1,.77-1.49l4.88-4.33a8.07,8.07,0,0,1,4.67-2l19.92-1.38a6.23,6.23,0,0,1,2.44.29l13.53,4.35A7.89,7.89,0,0,1,443,30.82l10.09,24a3.79,3.79,0,0,0,3.29,2.32c.06,0,.12.09.09.14l-.37,1.49a3.82,3.82,0,0,0,0,2l.54,1.81a4.56,4.56,0,0,0,3.7,3.18l1.86.28,8.26.55a4.88,4.88,0,0,1,3.58,1.89L476.84,72a3.05,3.05,0,0,0,2.78,1.12h.18a1.68,1.68,0,0,1,1.86,2.12l0,.11a2.46,2.46,0,0,0,.69,2.5l.06,0a1.5,1.5,0,0,1,.37,1.72l0,0a4.72,4.72,0,0,0,.06,4.07l.08.18a4.85,4.85,0,0,0,4.71,2.75l9.25-.58a4.39,4.39,0,0,0,1.64-.4l14.59-6.36a2.76,2.76,0,0,1,3.84,2.24Z" transform="translate(-1.28 -21.71)" fill="#68e1fd" opacity="0.43" style="isolation:isolate"/><path d="M517.1,83.81l-.22-2.22a2.73,2.73,0,0,0-3.82-2.24l-14.59,6.38a4.86,4.86,0,0,1-1.64.39l-9.25.58A4.91,4.91,0,0,1,482.86,84l-.09-.19a4.73,4.73,0,0,1,0-4.06l0,0a1.49,1.49,0,0,0-.36-1.72l-.06-.06a2.44,2.44,0,0,1-.68-2.49l0-.1a1.68,1.68,0,0,0-1.86-2.14l-.16,0A3,3,0,0,1,476.85,72l-2.75-3.46a5.06,5.06,0,0,0-3.6-1.9l-8.24-.55-1.88-.27a4.53,4.53,0,0,1-3.69-3.19l-.54-1.79a3.86,3.86,0,0,1,0-2l.39-1.48a.12.12,0,0,0-.11-.15,3.78,3.78,0,0,1-3.27-2.31L443,30.81a7.86,7.86,0,0,0-4.82-4.43L424.67,22a6.21,6.21,0,0,0-2.42-.3l-19.93,1.4a7.91,7.91,0,0,0-4.69,2l-4.85,4.32a2.33,2.33,0,0,0-.79,1.48V31a.87.87,0,0,0,1,1l3.38-.45a1.89,1.89,0,0,1,2.1,1.52l.68,3.53a2.63,2.63,0,0,1-1.42,2.85l-2.11,1A7,7,0,0,0,392.72,43c-1.66,2.66-4.86,7.79-6.56,10.46a2.16,2.16,0,0,0,.54,2.93l.05,0a2.29,2.29,0,0,1,.9,2.19l0,.1a2.16,2.16,0,0,1-2,1.82l-3.56.22a3.94,3.94,0,0,0-2,.7l-4.4,3a3.29,3.29,0,0,1-2.95.41l-4.58-1.58a3.92,3.92,0,0,0-4.73,1.9l-8,15.61a2.81,2.81,0,0,0,.45,3.2l1.45,1.55a1.26,1.26,0,0,0,2.06-.3l.43-.85a2.24,2.24,0,0,1,1.84-1.24l3.5-.26a2.08,2.08,0,0,1,1.44.44L368.6,85a2.28,2.28,0,0,0,3.36-.61l.7-1.17a2.79,2.79,0,0,1,2.63-1.35l2.47.21a3.41,3.41,0,0,1,1.52.49l10.89,6.58a4.66,4.66,0,0,1,2.18,3.14l.33,1.78a3.25,3.25,0,0,1-1.46,3.33l-1.44.91a3.61,3.61,0,0,1-3.3.28L381,96.36a5.52,5.52,0,0,0-4-.09l-10.23,3.67a7.83,7.83,0,0,0-3.53,2.58L357.49,110a4.44,4.44,0,0,1-4.35,1.66l-2.59-.49a4.58,4.58,0,0,0-3.77,1l-7,5.8a2.92,2.92,0,0,1-2.81.51l-10.9-3.78a2.52,2.52,0,0,0-3.05,1.23l-2.51,4.86a3.33,3.33,0,0,0,.58,3.84l2.27,2.33a2.8,2.8,0,0,1-.13,4l-12.92,11.58a7.66,7.66,0,0,1-5.46,1.94l-16.43-.74a6.85,6.85,0,0,0-3.61.82l-17.18,9.18a3.51,3.51,0,0,1-2.54.3l-2.27-.6a1.61,1.61,0,0,1-1.2-1.49v0a2,2,0,0,0-1.71-1.85l-16.44-1.92a3,3,0,0,1-2.22-1.43l-1.2-2a3,3,0,0,0-2.44-1.45l-42.06-1.8a3.14,3.14,0,0,1-2.74-1.85l-6.9-15.07a2,2,0,0,0-1.8-1.19l-2.42-.08a2.93,2.93,0,0,1-1.43-.42L169,116a3.81,3.81,0,0,0-1.82-.56l-18-.86a2.81,2.81,0,0,1-2.16-1.22l-1.34-2a2.08,2.08,0,0,1,0-2.37l2.44-3.43a2.36,2.36,0,0,0,.43-1.55l-.7-9.33a1.12,1.12,0,0,0-1-1,2.24,2.24,0,0,1-1.74-1l-4.47-6.81a2.21,2.21,0,0,0-1.37-1l-.72-.17a1.93,1.93,0,0,1-1.19-.86l-.48-.76a1.5,1.5,0,0,0-1.44-.7l-3.79.38a1.87,1.87,0,0,1-1.47-.51l-8.94-8.46a.9.9,0,0,1,.2-1.44l.16-.08A1,1,0,0,0,122,71l-.21-.47a1,1,0,0,0-1.3-.55l-2.07.8a1.63,1.63,0,0,1-1.28-.05l-1.23-.59a1.84,1.84,0,0,0-1.57,0l-2,1a1.06,1.06,0,0,0-.48,1.46l.17.33c.56,1.32,0,2.27-1.06,3.23l-.91,1a1.67,1.67,0,0,1-1.34.56l-2.19-.14A3.66,3.66,0,0,0,102.92,80l-.69,2a3.87,3.87,0,0,0-.12,2.08l1,4.33a3.62,3.62,0,0,1-1.66,3.91l-4,2.4a1.07,1.07,0,0,1-1.32-.16,3.16,3.16,0,0,0-2.59-.9l-4.35.52-4.34-1.93A3.39,3.39,0,0,0,80.32,94c-1.78,4.3-4.85,11.69-6,14.49a1.22,1.22,0,0,0,.66,1.6l0,0a3.19,3.19,0,0,1,1.86,3.69l-.17.7a.52.52,0,0,1-.85.27A3.91,3.91,0,0,0,72,114l-.2.07-.13-.13a4.43,4.43,0,0,0-4.31-1.13l-12,3.35a1.58,1.58,0,0,0-1.11,2l5.43.69a3.6,3.6,0,0,0-.81,3.22l3.31,13.59a.51.51,0,0,1-.49.63,1.6,1.6,0,0,0-1.23,2.63.76.76,0,0,0,.2.16c.34.11-2,.6-2.89.77a.65.65,0,0,0-.46.36,4.74,4.74,0,0,0-.27,3.33l.75,3.45a1.56,1.56,0,0,1-1.81,1.87h-.07A2.74,2.74,0,0,0,53,150.2l-.1.18a4,4,0,0,1-2,1.72c-2.6,1.05-8.24,3.32-8.56,3.42a5.17,5.17,0,0,0-1,1.49,4.88,4.88,0,0,1-4.23,2.6l-4.94.06a4.87,4.87,0,0,0-4.47,3.05l-.79,1.93a5,5,0,0,1-3.81,3l-3.28.53a.78.78,0,0,1-.91-.67,2.62,2.62,0,0,0-3.6-2.08l-3.07,1.26a3.78,3.78,0,0,0-1.5,1.12l-.46.56a2.87,2.87,0,0,1-1.92,1.05l-1.68.18a3.24,3.24,0,0,0-2.82,3.89l.42,2a1.94,1.94,0,0,1-1.39,2.27,2.19,2.19,0,0,0-1.6,2.41l.75,5.55a1.55,1.55,0,0,0,.78,1.14l1,.55A1.53,1.53,0,0,0,6,186.78a1.53,1.53,0,0,1,2-.68l3.35,1.49a1.6,1.6,0,0,1,.84,1l2.16,7.18a3.85,3.85,0,0,1-4.21,5l-.15,0A1.71,1.71,0,0,0,9.13,204l10,3.38A3.94,3.94,0,0,1,21.76,211l.06,1.95a6,6,0,0,0,4.69,5.71l9.28,2.14a4.78,4.78,0,0,1,3.12,3.92l.4,3.19a3.3,3.3,0,0,0,1.9,2.62l4.59,2.15a1.56,1.56,0,0,1,.4,2.56l-.24.22a4.87,4.87,0,0,0-1.4,4.75L45.79,245a2.92,2.92,0,0,0,2.15,2.11l1,.24a3.25,3.25,0,0,1,1.88,1.94l.9,2.49a1.64,1.64,0,0,1-1,2.1l-2.23.79a2.75,2.75,0,0,1-3.2-.72l-.51-.61a1.62,1.62,0,0,0-1.88-.46h0a1.71,1.71,0,0,0-.83,2.4l2.22,4a2.53,2.53,0,0,1,.27,1.64l-.17,1a2.46,2.46,0,0,0,.79,2.27l17.29,15.46a2.79,2.79,0,0,0,4.36-.86A3.45,3.45,0,0,1,71,277.09l1.34.44a1.73,1.73,0,0,1,1.19,1.9v0a2.24,2.24,0,0,0,1.19,2.31l8.83,4.57a2.25,2.25,0,0,1,1.21,1.73v.06a1.89,1.89,0,0,0,3,1.26l0,0a1.53,1.53,0,0,1,1.5-.21,1.56,1.56,0,0,1,1,1.46v.79a5.34,5.34,0,0,0,2.38,4.45L94.37,297a2.25,2.25,0,0,0,2.44,0l0,0a1,1,0,0,1,1.54,1V298a1.93,1.93,0,0,0,2.26,2.09l.64-.12a2.44,2.44,0,0,1,2.81,1.85l.59,2.5a.86.86,0,0,0,.68.64.84.84,0,0,0,1-.78c.06-.88.27-2.07,1-2.24l.08,1.35a1.48,1.48,0,0,0,2.76.65c.3-.53.7-1.09,1.07-1.17s2,1.52,3.31,2.89a3.7,3.7,0,0,0,4.09.87l8.8-3.64a2,2,0,0,1,2.48.89l0,0a2.07,2.07,0,0,1,.12,1.62l-1,2.92a2.63,2.63,0,0,0,.46,2.54l0,.05a1.22,1.22,0,0,0,2.15-.84l0-.44a2.71,2.71,0,0,1,.31-1.42l2.24-4.28a3.51,3.51,0,0,1,1.37-1.41l1.43-.8a3.48,3.48,0,0,1,2.47-.35l10.7,2.5a2.41,2.41,0,0,1,1,.47c1.08.85,3.83,3,4.17,2.87s5.72-.77,5.72-.77l1.88-1.61-.22-.71a1.61,1.61,0,0,1,.42-2.49l2.51-1.35a2,2,0,0,0,1-1.41v0a2.27,2.27,0,0,1,2-1.9l2.26-.24a3.34,3.34,0,0,0,2.82-2.3l.57-1.76a3.23,3.23,0,0,1,1-1.53l.87-.72a3.16,3.16,0,0,1,3.44-.38l3.77,1.93a2,2,0,0,0,2.81-1.14l.1-.27a1.84,1.84,0,0,1,1-1.09l2.54-1.16a1.87,1.87,0,0,1,2.44.83l.23.44a1.25,1.25,0,0,1-.33,1.56l-.74.6a1.93,1.93,0,0,0-.68,1.12l-.09.49a.69.69,0,0,0,1.09.68l1.56-1.17a1.08,1.08,0,0,1,1.71.73l.12,1a1.25,1.25,0,0,1-.29,1l-2.23,2.6a1.15,1.15,0,0,0,1.65,1.59l.25-.23a2.68,2.68,0,0,1,2.83-.54l3.48,1.4a1.1,1.1,0,0,0,1.49-.79,1.64,1.64,0,0,1,2.59-.95l2.51,1.92a2.33,2.33,0,0,1,.89,1.52l.76,5.51a.91.91,0,0,0,1.62.45,1.42,1.42,0,0,1,2.63.76l-.22,16.27a6,6,0,0,1-2.09,4.47l-4.19,3.6a6,6,0,0,0-1.23,1.47l-2.14,3.59a3.24,3.24,0,0,0-.18,2.95l1.71,3.91a1.84,1.84,0,0,1-.52,2.14l-1.58,1.3a1,1,0,0,0,.22,1.73,1.54,1.54,0,0,0,1.65-.23l2.53-2.18a2.86,2.86,0,0,1,1.76-.7l3.52-.15a1,1,0,0,1,.8,1.53l-.11.15a3.16,3.16,0,0,0-.57,2.59l1,4.55a2.43,2.43,0,0,0,1.91,1.86l2,.39a2,2,0,0,1,1.51,2.53l-1.67,5.27a2.84,2.84,0,0,0,2.33,3.67l2.09.28a2.66,2.66,0,0,1,2.23,2l.81,3.48a1.68,1.68,0,0,0,2.66.95l2.57-2a2.17,2.17,0,0,1,3.44,1.18l.59,2.26a2.59,2.59,0,0,0,1.93,1.86l.71.15a1.91,1.91,0,0,0,2.31-1.78l.17-4.48a2.43,2.43,0,0,0-.29-1.21l-1.74-3.11a2.18,2.18,0,0,1,0-2.13l.12-.22a2.07,2.07,0,0,1,2.08-1l1.13.15a2.32,2.32,0,0,0,2.39-1.29l.23-.47a2.15,2.15,0,0,1,3.22-.79l.83.61a2.26,2.26,0,0,0,3.27-.61l.07-.1a1.05,1.05,0,0,1,1.91.28l.48,1.68.41-1.86a1.14,1.14,0,0,1,2-.3l.41.58a1,1,0,0,0,1.89-.57v-.32a1.26,1.26,0,0,1,.41-.88l.15-.13a1.09,1.09,0,0,1,1.68.25h0a1.59,1.59,0,0,0,2,.64l1.9-.82a1.57,1.57,0,0,0,1-1.51l0-1.06a3.19,3.19,0,0,1,1.39-2.76l1.16-.78a1.44,1.44,0,0,1,2.06.48l.77,1.37a3.31,3.31,0,0,0,.68.85l1,.92a3.3,3.3,0,0,0,2.49.81l3.76-.34a2.2,2.2,0,0,1,1.66.57l.72.69a1.22,1.22,0,0,1-.14,1.89l-1.14.81-.34,1a1.59,1.59,0,0,0,.53,1.77l0,0a2.28,2.28,0,0,1,.84,2.15l-.12.73a2.29,2.29,0,0,0,1,1.8l4.9,3.4a2.19,2.19,0,0,0,2.1.22l.42-.18a2.44,2.44,0,0,1,2.17.13l.71.4a2.2,2.2,0,0,0,2.29-.07l1.21-.81a2.18,2.18,0,0,1,2.69.21l1,.95a3.6,3.6,0,0,0,3.7.74l1.88-.7a2.85,2.85,0,0,1,1.87,0l.1,0c.91.45.8,1.5.33,2.39l-1.16,2.18a2.7,2.7,0,0,0-.21,1.95l1.84,6.57a2.11,2.11,0,0,0,2.46,1.5l.88-.18a2.38,2.38,0,0,0,1.71-1.43l.17-.41a2.57,2.57,0,0,0-.46-2.68l-1.36-1.51a.89.89,0,0,1,.66-1.48,2.29,2.29,0,0,0,2.25-1.88l.23-1.29a3.08,3.08,0,0,1,2.69-2.52l4.13-.45,13.62-4.07a4.38,4.38,0,0,0,2.16-1.45l2-2.5a2.78,2.78,0,0,0,.59-2.06l-.23-1.87a.9.9,0,0,1,1.55-.73l.33.33a2.23,2.23,0,0,0,2.83.33l2.83-1.85a1.73,1.73,0,0,1,2.48.68.91.91,0,0,0,1.55.12l.39-.53a1.76,1.76,0,0,1,2.35-.46l.47.28a1.3,1.3,0,0,0,1.93-.71l0,0a1.15,1.15,0,0,1,1.66-.65h0a3.06,3.06,0,0,0,2.49.23l3.47-1.19a1.23,1.23,0,0,0,.83-1.32,3,3,0,0,1,.61-2.21l2.3-2.94a4,4,0,0,1,2.56-1.47,4,4,0,0,0,2.29-1.18l18.16-18.94a.79.79,0,0,0,.11-1,3.25,3.25,0,0,1-.08-3.18l.26-.48-.25-.33a2.91,2.91,0,0,1,.05-3.49l2.38-3.07a2.76,2.76,0,0,0,.57-1.77l-.05-1.67a2.63,2.63,0,0,1,1.61-2.5l1.68-.7,4.67-11.33,1.19-.66a1.6,1.6,0,0,0,2.57-.17l2.53-3.95a3,3,0,0,0,.32-2.52l-.71-2.22a1.09,1.09,0,0,1,.84-1.41,3.21,3.21,0,0,0,2.63-3.05l0-1.19-.79-.25a1.14,1.14,0,0,1-.15-2.11l.29-.14a1.22,1.22,0,0,0-.2-2.28l-2.78-.8-1.25-2.28a2.18,2.18,0,0,0-3.08-.78l-1.94,1.25-.63-.08a1.26,1.26,0,0,1-.71-2.15l5.28-5.09a2.81,2.81,0,0,1,2.24-.79l.26,0a1.27,1.27,0,0,0,1.09-2.08l-4.33-5.24a.72.72,0,0,1,.9-1.09l1.9,1a1.77,1.77,0,0,0,2.58-1.92l-.28-1.36a2.39,2.39,0,0,0-1.13-1.58l-3.41-2a2.82,2.82,0,0,0-1.21-3.44l-1.58-.93a2.56,2.56,0,0,1-1.23-2.66v0a5.51,5.51,0,0,0-.28-2.9l-4.35-11.59a6.51,6.51,0,0,0-2.33-3l-3.43-2.42a5.27,5.27,0,0,1-1.18-7.46l4.44-5.95a4.28,4.28,0,0,1,2.52-1.63l1.36-.31a2.6,2.6,0,0,0,2-2.62,4.2,4.2,0,0,1,2.36-3.9l6.14-3a4.27,4.27,0,0,1,2.49-.37l1.37.22a3.1,3.1,0,0,0,3.43-2.13l.21-.64a2.12,2.12,0,0,0-1.85-2.75l-6.32-.49a4.53,4.53,0,0,1-2.79-1.29l-1-1a3.65,3.65,0,0,0-5-.13l-5.58,5a4.62,4.62,0,0,1-1.08.72l-1.69.81a4.57,4.57,0,0,1-4.21-.11l-.05,0a4.56,4.56,0,0,1-2.33-3.57l-.18-2.11a.16.16,0,0,1,.13-.17h0a2.77,2.77,0,0,0,1.87-4.29l0-.06a2.65,2.65,0,0,0-2-1.17l-4-.26a5.52,5.52,0,0,1-5.16-5.51V184.8a4.25,4.25,0,0,1,4.7-4.23l2.38.26A4.43,4.43,0,0,0,385,178l1-2.57a5.81,5.81,0,0,1,3-3.2l6.15-2.8a4.42,4.42,0,0,0,1.87-1.61c1.33-2,4.14-6.24,4.46-6.32,2-.52,2.59-.2,4.47-.39a3.22,3.22,0,0,1,2.63.93l1.68,1.69a2.46,2.46,0,0,1,.08,3.42l-5.74,6.27a2.63,2.63,0,0,0,.11,3.66l.35.33a2.08,2.08,0,0,1-.17,3.14l-3.83,3-.09.45a1.24,1.24,0,0,0,1.64,1.43l3.61-1.33.42-2.09a1.55,1.55,0,0,0,2.33-.15l2.42-3.17a6.07,6.07,0,0,1,2.44-1.91l6.42-2.72a6.12,6.12,0,0,1,2.74-.46l2.5.17a1,1,0,0,0,.48-.1l2.43-1.28a5.11,5.11,0,0,1,2.6-4l10.51-5.89a4.39,4.39,0,0,0,1.73-1.74l4.25-7.72A2.69,2.69,0,0,1,448.7,152l.67-.31a2,2,0,0,1,2.69,1.18l0,0a3.1,3.1,0,0,0,2.43,2.08l5.36.91a2,2,0,0,0,2-.83l0,0a1.69,1.69,0,0,0-.56-2.47l-.1-.05a1.93,1.93,0,0,1-1-1.5v0a1.81,1.81,0,0,1,1.76-2l3.9-.07a3.61,3.61,0,0,0,3-1.67l1.89-3,.87.25a2.35,2.35,0,0,0,3-1.81c.21-1.07.46-2.31.65-3.32a1.62,1.62,0,0,1,2.23-1.17l0,0a2.44,2.44,0,0,1,1.39,1.55l1.33,4.27a1.12,1.12,0,0,0,2.18-.52l-.25-1.45a2.14,2.14,0,0,1,1.92-2.5l.42,0a2.72,2.72,0,0,0,2.31-1.8l1.28-3.59a.83.83,0,0,0-.34-1,2.08,2.08,0,0,1-1-2.19l.7-3.57a4.88,4.88,0,0,0-.26-2.75l-1.65-4.16a3,3,0,0,1,2.16-4l.58-.12a3.12,3.12,0,0,0,2.1-1.52l.57-1a1.64,1.64,0,0,1,2.82,0l.93,1.5a2.13,2.13,0,0,1,.18,1.87l-.15.4a2.47,2.47,0,0,0,1.35,3.18l.1,0a2.27,2.27,0,0,0,2.93-1.12l1.17-2.46a2.85,2.85,0,0,1,1.27-1.32l.52-.28a2.87,2.87,0,0,0,1.51-3v0a3.52,3.52,0,0,1,.64-2.61l4.61-6.22a4,4,0,0,0,.71-1.54l2.51-11a5.17,5.17,0,0,1,2.52-3.37l.5-.28A3.88,3.88,0,0,0,517.1,83.81Z" transform="translate(-1.28 -21.71)" fill="#68e1fd" opacity="0.43" style="isolation:isolate"/><path d="M311.67,385.42a2.58,2.58,0,0,1,.48,2.7l-.17.4a2.4,2.4,0,0,1-1.72,1.43l-.89.17a2.11,2.11,0,0,1-2.46-1.49l-1.84-6.56a3.34,3.34,0,0,1-.05-.43c2.58-.06,5.19-.09,7.79-.15a2.24,2.24,0,0,1-1.83.95.89.89,0,0,0-.66,1.49Z" transform="translate(-1.28 -21.71)" fill="#68e1fd" opacity="0.43" style="isolation:isolate"/><polygon points="244.86 330.33 167.42 330.33 174.69 320.21 237.59 320.21 244.86 330.33" fill="#68e1fd"/><path d="M173.61,353.9v28.46h21.87v-9.72a11.93,11.93,0,0,1,11.93-11.93h0a11.93,11.93,0,0,1,11.93,11.93v9.72h21.87V353.9Zm10.49,11.87a4,4,0,1,1,4-4A4,4,0,0,1,184.1,365.77Zm46.63,0a4,4,0,1,1,4-4A4,4,0,0,1,230.73,365.77Z" transform="translate(-1.28 -21.71)" fill="#68e1fd"/><polygon points="304.21 325.75 246.09 325.75 254.46 314.11 295.85 314.11 304.21 325.75" fill="#68e1fd"/><rect x="251.76" y="327.89" width="46.8" height="32.76" fill="#68e1fd"/><path d="M157.49,306.85h1.24l7.51-10.05H164a14.73,14.73,0,0,1-11.26-5.23l0,0a4,4,0,0,0,.79-4.58,2.65,2.65,0,0,1-.67,1.78,3.24,3.24,0,0,1-2.49,1.12h-23a3.25,3.25,0,0,1-2.49-1.12,2.7,2.7,0,0,1-.66-1.78,4,4,0,0,0,.82,4.62h0a14.74,14.74,0,0,1-7.49,4.74V284.55h1.24l7.51-10.05h-2.3a14.73,14.73,0,0,1-11.26-5.23l0,0a4,4,0,0,0,.78-4.59,2.72,2.72,0,0,1-.66,1.79,3.28,3.28,0,0,1-2.49,1.11h-23a3.26,3.26,0,0,1-2.49-1.11,2.68,2.68,0,0,1-.67-1.79,4,4,0,0,0,.83,4.63,14.73,14.73,0,0,1-11.26,5.23h-2.3l7.51,10.05h2.32v12a14.75,14.75,0,0,1-8.57-5l0,0a4,4,0,0,0,.79-4.58,2.65,2.65,0,0,1-.67,1.78,3.24,3.24,0,0,1-2.49,1.12h-23a3.25,3.25,0,0,1-2.49-1.12,2.7,2.7,0,0,1-.66-1.78,4,4,0,0,0,.82,4.62h0a14.73,14.73,0,0,1-11.26,5.23h-2.3l7.52,10.05h2.32v8.34H36.67v13.54h5.06v44.66H36.67v9H79.4V328.73h38.8v53.63h60.48v-9H155.87V328.73h5.06V315.19h-3.44Zm-1.67,0v8.34H150v-8.34Zm-7.52,0v8.34H130.43v-8.34Zm-19.54,0v8.34h-5.85v-8.34Zm-9.84,0h2.32v8.34h-3.77V304.91Zm-3.12-22.3v12.1a14.62,14.62,0,0,1-2.1.15h-2.3l4.4,5.88v12.51H110V284.55Zm-7.52,0v30.64H90.4V284.55Zm-25.4,0h5.85v30.64H82.88v-14l3.32-4.43H83.9c-.34,0-.68,0-1,0Zm-1.67,18.92v11.72H77.44v-8.34h1.24Zm-5.44,3.38v8.34H69.92v-8.34Zm-7.52,0v8.34H50.38v-8.34Zm-25.39,0h5.85v8.34H42.86Zm30.2,66.54h-25V328.73h25Zm76.47,0h-25V328.73h25Z" transform="translate(-1.28 -21.71)" fill="#68e1fd"/><path d="M479.33,316.26v-8.92h-7v-32c9.18-1.49,17.28-5,19.16-12.61a42.75,42.75,0,0,1-15.9,5.5v-8h-6.33V231.45c8.27-1.35,15.58-4.53,17.27-11.36a38.53,38.53,0,0,1-14.71,5v-6.92h-5.64V189.88c3.25-1.29,5.73-3.31,6.5-6.45,0,0-10.23,6.52-20.16,2.08,0,0,7.52-3.86,8.43-6.83,0,0-8.37,5.75-17.42-4.08a3.26,3.26,0,0,0-1.84-5.38V143.39a.6.6,0,0,0-.34-.53v-9.44h-.53v9.44a.6.6,0,0,0-.34.53v25.83a3.26,3.26,0,0,0-1.84,5.38c-9.05,9.83-17.42,4.08-17.42,4.08.9,3,8.43,6.83,8.43,6.83-9.93,4.44-20.16-2.08-20.16-2.08.77,3.14,3.25,5.16,6.5,6.45v28.29h-5.64v6.92a38.53,38.53,0,0,1-14.71-5c1.69,6.83,9,10,17.27,11.36v28.83h-6.33v8a42.75,42.75,0,0,1-15.9-5.5c1.88,7.58,10,11.12,19.16,12.61v32h-7v8.92a48.74,48.74,0,0,1-19.36-6.42c2.15,8.67,11.41,12.71,21.9,14.41v36.47H402.5L397.71,374h86.71l-4.79-13.23h-2.84V324.25c10.49-1.7,19.75-5.74,21.89-14.41A48.65,48.65,0,0,1,479.33,316.26Zm-65-7.41v5.42h-4v-5.42Zm26.76-30h0a7.15,7.15,0,0,1,7.15,7.14v21.3H433.92V286A7.14,7.14,0,0,1,441.06,278.9Zm30.75,30v5.42h-4v-5.42Zm-40.26,0v5.42h-4v-5.42Zm23,0v5.42h-4v-5.42Zm-5.75,0v5.42h-4v-5.42Zm-5.75,5.42h-4v-5.42h4Zm-5.76,0h-4v-5.42h4Zm28.76,0h-4v-5.42h4Zm-5.75,0h-4v-5.42h4Zm-34.51-5.42v5.42h-4v-5.42Zm-5.75,5.42h-4v-5.42h4Zm57.51,0h-4v-5.42h4Zm-21.22-6.93V289.81a6.07,6.07,0,0,1,12.13,0v17.53Zm-39.41-45.7v4.89h-3.59v-4.89Zm24.13-27h0a6.44,6.44,0,0,1,6.44,6.44v19.2H434.62v-19.2A6.45,6.45,0,0,1,441.06,234.64Zm27.72,27v4.89H465.2v-4.89Zm-36.29,0v4.89H428.9v-4.89Zm20.74,0v4.89h-3.59v-4.89Zm-5.19,0v4.89h-3.59v-4.89Zm-5.18,4.89h-3.59v-4.89h3.59Zm-5.19,0h-3.59v-4.89h3.59Zm25.93,0H460v-4.89h3.59Zm-5.19,0h-3.59v-4.89h3.59Zm-31.11-4.89v4.89h-3.59v-4.89Zm-5.18,4.89h-3.59v-4.89h3.59Zm51.85,0h-3.59v-4.89H474Zm-19.13-6.25v-15.8a5.47,5.47,0,1,1,10.93,0v15.8Zm-35.27-40.9v4.35h-3.2v-4.35Zm21.49-24h0a5.74,5.74,0,0,1,5.74,5.74v17.1H435.33v-17.1A5.74,5.74,0,0,1,441.06,195.33Zm24.7,24v4.35h-3.2v-4.35Zm-32.33,0v4.35h-3.2v-4.35Zm18.47,0v4.35h-3.2v-4.35Zm-4.62,0v4.35h-3.2v-4.35Zm-4.62,4.35h-3.19v-4.35h3.19Zm-4.62,0h-3.19v-4.35H438Zm23.1,0h-3.2v-4.35h3.2Zm-4.62,0h-3.2v-4.35h3.2Zm-27.71-4.35v4.35h-3.2v-4.35Zm-4.62,4.35H421v-4.35h3.2Zm46.18,0h-3.19v-4.35h3.19Zm-17-5.56V204.09a4.87,4.87,0,1,1,9.74,0v14.08Zm-34.27-14.08a4.87,4.87,0,1,1,9.74,0v14.08h-9.74Zm-7.31,15.29H415v4.35h-3.2Zm4.61,25.1a5.47,5.47,0,1,1,10.93,0v15.8H416.36Zm-8.2,17.16h3.59v4.89h-3.59Zm5.5,28.17a6.07,6.07,0,0,1,12.13,0v17.53H413.66Zm-9.09,19h4v5.42h-4Zm44.66,51.87H432.9V336.47a8.16,8.16,0,0,1,8.16-8.17h0a8.17,8.17,0,0,1,8.17,8.17Zm-39.49-20a6.93,6.93,0,1,1,13.86,0v20H409.74Zm48.79,20v-20a6.93,6.93,0,1,1,13.86,0v20Z" transform="translate(-1.28 -21.71)" fill="#68e1fd"/><rect x="387.8" y="354.32" width="103.97" height="6.34" fill="#68e1fd"/><path d="M378.83,369.35h-2.57V346.82h2.57l10.83-14.49h-3.31a21.26,21.26,0,0,1-16.24-7.55l-.05-.06a5.8,5.8,0,0,0,1.13-6.61,3.92,3.92,0,0,1-1,2.58,4.71,4.71,0,0,1-3.59,1.6H333.47a4.71,4.71,0,0,1-3.59-1.6,3.92,3.92,0,0,1-1-2.58,5.82,5.82,0,0,0,1.2,6.67,21.28,21.28,0,0,1-16.25,7.55h-3.31l10.84,14.49H324v22.53H321.4V378h-7.68v4.34H386.5V378h-7.67Zm-5-22.53v22.53h-8.43V346.82Zm-10.84,0v22.53H337.22V346.82Zm-36.64,0h8.44v22.53h-8.44Z" transform="translate(-1.28 -21.71)" fill="#68e1fd"/><g opacity="0.37"><polygon points="244.86 330.33 167.42 330.33 174.69 320.21 237.59 320.21 244.86 330.33" fill="url(#linear-gradient)"/><path d="M230.74,357.82a4,4,0,1,0,4,4A4,4,0,0,0,230.74,357.82Zm-46.64,0a4,4,0,1,0,4,4A4,4,0,0,0,184.1,357.82Zm46.64,0a4,4,0,1,0,4,4A4,4,0,0,0,230.74,357.82Zm-46.64,0a4,4,0,1,0,4,4A4,4,0,0,0,184.1,357.82Z" transform="translate(-1.28 -21.71)" fill="#68e1fd"/><path d="M173.61,353.89v19.49H155.86V328.72h5.08V315.19H157.5v-8.34h1.23l7.51-10H164a14.79,14.79,0,0,1-11.27-5.24l0,0a4,4,0,0,0,.78-4.59,2.7,2.7,0,0,1-.66,1.78,3.28,3.28,0,0,1-2.5,1.12h-23a3.32,3.32,0,0,1-2.49-1.12,2.7,2.7,0,0,1-.66-1.78,4.06,4.06,0,0,0,.83,4.62,14.5,14.5,0,0,1-7.48,4.73V284.54h1.23l7.51-10h-2.29a14.74,14.74,0,0,1-11.27-5.24l0,0a4.06,4.06,0,0,0,.77-4.59,2.7,2.7,0,0,1-.66,1.78,3.35,3.35,0,0,1-2.49,1.12h-23a3.36,3.36,0,0,1-2.5-1.12,2.7,2.7,0,0,1-.66-1.78,4,4,0,0,0,.83,4.62,14.77,14.77,0,0,1-11.26,5.24h-2.3l7.52,10h2.32v12a14.75,14.75,0,0,1-8.57-5l0,0a4.06,4.06,0,0,0,.77-4.59,2.7,2.7,0,0,1-.66,1.78,3.32,3.32,0,0,1-2.49,1.12h-23a3.29,3.29,0,0,1-2.5-1.12,2.7,2.7,0,0,1-.66-1.78,4,4,0,0,0,.84,4.62,14.79,14.79,0,0,1-11.27,5.24H31.37l7.51,10H41.2v8.34H36.67v13.53h5.07v44.66H36.67v9H79.41V328.72H118.2v53.63h77.28v-9.71a11.92,11.92,0,0,1,11.93-11.93,11.93,11.93,0,0,1,11.92,11.93v9.71h21.88V353.89Zm-123.24-47H68.26v8.34H50.37Zm-7.51,0h5.85v8.34H42.86Zm30.22,66.53h-25V328.72h25Zm2.69-58.19H69.92v-8.34h5.85Zm5.45,0H77.43v-8.34h1.26l2.53-3.39Zm49.22-8.34H148.3v8.34H130.44Zm-41.71,8.34H82.88v-14l3.33-4.42H83.88c-.31,0-.66,0-1-.05V284.54h5.85Zm19.55,0H90.39V284.54h17.89Zm7.51-18.55a12.11,12.11,0,0,1-2.09.17h-2.3l4.39,5.88v12.5h-5.85V284.54h5.85Zm5.45,18.55h-3.76V304.93l1.43,1.92h2.33Zm1.66-8.34h5.85v8.34H122.9Zm26.63,66.53h-25V328.72h25Zm6.31-58.19H150v-8.34h5.85Zm28.26,50.6a4,4,0,1,1,4-4A4,4,0,0,1,184.1,365.79Zm46.64,0a4,4,0,1,1,4-4A4,4,0,0,1,230.74,365.79Z" transform="translate(-1.28 -21.71)" fill="url(#linear-gradient-2)"/><polygon points="304.21 325.75 246.09 325.75 254.46 314.11 295.85 314.11 304.21 325.75" fill="url(#linear-gradient-3)"/><rect x="251.76" y="327.89" width="46.8" height="32.76" fill="url(#linear-gradient-4)"/><path d="M124.53,328.72v44.66h25V328.72Zm-76.45,0v44.66h25V328.72Zm-5.22-21.87v8.34h5.85v-8.34Zm7.51,0v8.34H68.26v-8.34Zm19.55,0v8.34h5.85v-8.34Zm8.77,0H77.43v8.34h3.79V303.46Zm4.19-22.31v12.22c.34,0,.69.05,1,.05h2.33l-3.33,4.42v14h5.85V284.54Zm7.51,0v30.65h17.89V284.54Zm25.4,12.1v-12.1h-5.85v30.65h5.85v-12.5l-4.39-5.88h2.3A12.11,12.11,0,0,0,115.79,296.64Zm3.12,10.21-1.43-1.92v10.26h3.76v-8.34Zm4,0v8.34h5.85v-8.34Zm7.54,0v8.34H148.3v-8.34Zm19.55,0v8.34h5.85v-8.34Zm0,0v8.34h5.85v-8.34Zm-25.46,66.53h25V328.72h-25Zm23.77-66.53H130.44v8.34H148.3Zm-19.55,0H122.9v8.34h5.85Zm-11.27-1.92v10.26h3.76v-8.34h-2.33Zm-7.54,10.26h5.85v-12.5l-4.39-5.88h2.3a12.11,12.11,0,0,0,2.09-.17v-12.1h-5.85Zm-19.55,0h17.89V284.54H90.39Zm-7.51-18.43c.34,0,.69.05,1,.05h2.33l-3.33,4.42v14h5.85V284.54H82.88Zm-5.45,10.09v8.34h3.79V303.46l-2.53,3.39Zm-7.51,8.34h5.85v-8.34H69.92ZM48.08,373.38h25V328.72h-25Zm20.18-66.53H50.37v8.34H68.26Zm-19.55,0H42.86v8.34h5.85Z" transform="translate(-1.28 -21.71)" fill="#68e1fd"/><path d="M479.33,316.26v-8.92h-7v-32c9.18-1.49,17.28-5,19.16-12.61a42.75,42.75,0,0,1-15.9,5.5v-8h-6.33V231.45c8.27-1.35,15.58-4.53,17.27-11.36a38.53,38.53,0,0,1-14.71,5v-6.92h-5.64V189.88c3.25-1.29,5.73-3.31,6.5-6.45,0,0-10.23,6.52-20.16,2.08,0,0,7.52-3.86,8.43-6.83,0,0-8.37,5.75-17.42-4.08a3.26,3.26,0,0,0-1.84-5.38V143.39a.6.6,0,0,0-.34-.53v-9.44h-.53v9.44a.6.6,0,0,0-.34.53v25.83a3.26,3.26,0,0,0-1.84,5.38c-9.05,9.83-17.42,4.08-17.42,4.08.9,3,8.43,6.83,8.43,6.83-9.93,4.44-20.16-2.08-20.16-2.08.77,3.14,3.25,5.16,6.5,6.45v28.29h-5.64v6.92a38.53,38.53,0,0,1-14.71-5c1.69,6.83,9,10,17.27,11.36v28.83h-6.33v8a42.75,42.75,0,0,1-15.9-5.5c1.88,7.58,10,11.12,19.16,12.61v32h-7v8.92a48.74,48.74,0,0,1-19.36-6.42c2.15,8.67,11.41,12.71,21.9,14.41v36.47H402.5L397.71,374h86.71l-4.79-13.23h-2.84V324.25c10.49-1.7,19.75-5.74,21.89-14.41A48.65,48.65,0,0,1,479.33,316.26Zm-65-7.41v5.42h-4v-5.42Zm26.76-30h0a7.15,7.15,0,0,1,7.15,7.14v21.3H433.92V286A7.14,7.14,0,0,1,441.06,278.9Zm30.75,30v5.42h-4v-5.42Zm-40.26,0v5.42h-4v-5.42Zm23,0v5.42h-4v-5.42Zm-5.75,0v5.42h-4v-5.42Zm-5.75,5.42h-4v-5.42h4Zm-5.76,0h-4v-5.42h4Zm28.76,0h-4v-5.42h4Zm-5.75,0h-4v-5.42h4Zm-34.51-5.42v5.42h-4v-5.42Zm-5.75,5.42h-4v-5.42h4Zm57.51,0h-4v-5.42h4Zm-21.22-6.93V289.81a6.07,6.07,0,0,1,12.13,0v17.53Zm-39.41-45.7v4.89h-3.59v-4.89Zm24.13-27h0a6.44,6.44,0,0,1,6.44,6.44v19.2H434.62v-19.2A6.45,6.45,0,0,1,441.06,234.64Zm27.72,27v4.89H465.2v-4.89Zm-36.29,0v4.89H428.9v-4.89Zm20.74,0v4.89h-3.59v-4.89Zm-5.19,0v4.89h-3.59v-4.89Zm-5.18,4.89h-3.59v-4.89h3.59Zm-5.19,0h-3.59v-4.89h3.59Zm25.93,0H460v-4.89h3.59Zm-5.19,0h-3.59v-4.89h3.59Zm-31.11-4.89v4.89h-3.59v-4.89Zm-5.18,4.89h-3.59v-4.89h3.59Zm51.85,0h-3.59v-4.89H474Zm-19.13-6.25v-15.8a5.47,5.47,0,1,1,10.93,0v15.8Zm-35.27-40.9v4.35h-3.2v-4.35Zm21.49-24h0a5.74,5.74,0,0,1,5.74,5.74v17.1H435.33v-17.1A5.74,5.74,0,0,1,441.06,195.33Zm24.7,24v4.35h-3.2v-4.35Zm-32.33,0v4.35h-3.2v-4.35Zm18.47,0v4.35h-3.2v-4.35Zm-4.62,0v4.35h-3.2v-4.35Zm-4.62,4.35h-3.19v-4.35h3.19Zm-4.62,0h-3.19v-4.35H438Zm23.1,0h-3.2v-4.35h3.2Zm-4.62,0h-3.2v-4.35h3.2Zm-27.71-4.35v4.35h-3.2v-4.35Zm-4.62,4.35H421v-4.35h3.2Zm46.18,0h-3.19v-4.35h3.19Zm-17-5.56V204.09a4.87,4.87,0,1,1,9.74,0v14.08Zm-34.27-14.08a4.87,4.87,0,1,1,9.74,0v14.08h-9.74Zm-7.31,15.29H415v4.35h-3.2Zm4.61,25.1a5.47,5.47,0,1,1,10.93,0v15.8H416.36Zm-8.2,17.16h3.59v4.89h-3.59Zm5.5,28.17a6.07,6.07,0,0,1,12.13,0v17.53H413.66Zm-9.09,19h4v5.42h-4Zm44.66,51.87H432.9V336.47a8.16,8.16,0,0,1,8.16-8.17h0a8.17,8.17,0,0,1,8.17,8.17Zm-39.49-20a6.93,6.93,0,1,1,13.86,0v20H409.74Zm48.79,20v-20a6.93,6.93,0,1,1,13.86,0v20Z" transform="translate(-1.28 -21.71)" fill="url(#linear-gradient-5)"/><rect x="387.8" y="354.32" width="103.97" height="6.34" fill="url(#linear-gradient-6)"/><path d="M378.83,369.35h-2.57V346.82h2.57l10.83-14.49h-3.31a21.26,21.26,0,0,1-16.24-7.55l-.05-.06a5.8,5.8,0,0,0,1.13-6.61,3.92,3.92,0,0,1-1,2.58,4.71,4.71,0,0,1-3.59,1.6H333.47a4.71,4.71,0,0,1-3.59-1.6,3.92,3.92,0,0,1-1-2.58,5.82,5.82,0,0,0,1.2,6.67,21.28,21.28,0,0,1-16.25,7.55h-3.31l10.84,14.49H324v22.53H321.4V378h-7.68v4.34H386.5V378h-7.67Zm-5-22.53v22.53h-8.43V346.82Zm-10.84,0v22.53H337.22V346.82Zm-36.64,0h8.44v22.53h-8.44Z" transform="translate(-1.28 -21.71)" fill="url(#linear-gradient-7)"/></g></svg>