<svg id="Layer_1" data-name="Layer 1" xmlns="http://www.w3.org/2000/svg" xmlns:xlink="http://www.w3.org/1999/xlink" viewBox="0 0 594.32 478.49"><defs><clipPath id="clip-path" transform="translate(5.87 -38.24)"><path d="M549.33,327.89c1.41-47.44-20-95-56.51-125.41-11.53-9.6-24.36-17.49-36.45-26.38C409.75,141.82,373.69,92.38,321,68.49,290.76,54.78,256.82,50.54,223.7,52.6c-50.93,3.17-103.54,23.16-133.14,64.72-8.92,12.52-15.47,26.54-22,40.46L42.51,213.71c-5,10.65-9.95,21.37-12.83,32.75-3,12-3.65,24.35-4.26,36.66l-4.05,81.4c-.4,8.1-.8,16.27.54,24.26,2.06,12.36,8.2,23.74,15.87,33.65,22,28.37,56.13,45.27,91.14,53.12s71.27,7.55,107.15,7.21l160.51-1.55c23.79-.23,48.25-.59,70.26-9.61,20.94-8.58,38-24.35,53.77-40.61,19-19.61,37.7-42.79,38.45-70.07" fill="none"/></clipPath><linearGradient id="linear-gradient" x1="506.62" y1="380.38" x2="627.27" y2="260.42" gradientUnits="userSpaceOnUse"><stop offset="0.01"/><stop offset="0.13" stop-opacity="0.69"/><stop offset="1" stop-opacity="0"/></linearGradient><linearGradient id="linear-gradient-2" x1="507.54" y1="391.87" x2="628.19" y2="271.91" xlink:href="#linear-gradient"/><linearGradient id="linear-gradient-3" x1="82.04" y1="343.06" x2="-58.61" y2="335.47" xlink:href="#linear-gradient"/><linearGradient id="linear-gradient-4" x1="97.14" y1="342.47" x2="-43.3" y2="334.9" xlink:href="#linear-gradient"/><linearGradient id="linear-gradient-5" x1="292.38" y1="316.54" x2="287.21" y2="503.73" xlink:href="#linear-gradient"/><linearGradient id="linear-gradient-6" x1="449.07" y1="240.96" x2="324.97" y2="500.54" xlink:href="#linear-gradient"/><linearGradient id="linear-gradient-7" x1="529.49" y1="221.98" x2="402.63" y2="412.96" xlink:href="#linear-gradient"/><linearGradient id="linear-gradient-8" x1="545.87" y1="292.26" x2="191.48" y2="420.16" xlink:href="#linear-gradient"/><linearGradient id="linear-gradient-9" x1="514.37" y1="205" x2="159.99" y2="332.89" xlink:href="#linear-gradient"/><linearGradient id="linear-gradient-10" x1="494.31" y1="234.29" x2="413.18" y2="313.81" xlink:href="#linear-gradient"/><linearGradient id="linear-gradient-11" x1="507.6" y1="247.85" x2="426.47" y2="327.37" xlink:href="#linear-gradient"/><linearGradient id="linear-gradient-12" x1="449.33" y1="289.6" x2="456.57" y2="344.24" xlink:href="#linear-gradient"/><linearGradient id="linear-gradient-13" x1="328.46" y1="280.76" x2="402.69" y2="271.8" xlink:href="#linear-gradient"/><linearGradient id="linear-gradient-14" x1="320.49" y1="291.16" x2="896.88" y2="256.68" xlink:href="#linear-gradient"/><linearGradient id="linear-gradient-15" x1="320.77" y1="295.73" x2="897.16" y2="261.26" xlink:href="#linear-gradient"/><linearGradient id="linear-gradient-16" x1="320.89" y1="297.86" x2="897.28" y2="263.38" xlink:href="#linear-gradient"/><linearGradient id="linear-gradient-17" x1="356.54" y1="267.29" x2="274.26" y2="352.55" xlink:href="#linear-gradient"/><linearGradient id="linear-gradient-18" x1="462.93" y1="276.83" x2="406.16" y2="305.33" xlink:href="#linear-gradient"/><linearGradient id="linear-gradient-19" x1="478" y1="271.86" x2="446.06" y2="369.53" xlink:href="#linear-gradient"/><linearGradient id="linear-gradient-20" x1="487.7" y1="324.66" x2="448.4" y2="349.02" xlink:href="#linear-gradient"/><linearGradient id="linear-gradient-21" x1="320.02" y1="283.19" x2="896.41" y2="248.72" xlink:href="#linear-gradient"/><linearGradient id="linear-gradient-22" x1="320.18" y1="285.86" x2="896.57" y2="251.39" xlink:href="#linear-gradient"/><linearGradient id="linear-gradient-23" x1="320.31" y1="288.04" x2="896.7" y2="253.57" xlink:href="#linear-gradient"/><linearGradient id="linear-gradient-24" x1="512.03" y1="287.43" x2="421.94" y2="313.06" xlink:href="#linear-gradient"/><linearGradient id="linear-gradient-25" x1="422.94" y1="330.57" x2="414.67" y2="440.88" xlink:href="#linear-gradient"/><linearGradient id="linear-gradient-26" x1="446.94" y1="334.17" x2="438.66" y2="444.49" xlink:href="#linear-gradient"/><linearGradient id="linear-gradient-27" x1="467.07" y1="331.51" x2="458.8" y2="441.82" xlink:href="#linear-gradient"/><linearGradient id="linear-gradient-28" x1="324.01" y1="350.02" x2="900.4" y2="315.55" xlink:href="#linear-gradient"/><linearGradient id="linear-gradient-29" x1="324.17" y1="352.55" x2="900.56" y2="318.08" xlink:href="#linear-gradient"/><linearGradient id="linear-gradient-32" x1="401.7" y1="372.48" x2="425.15" y2="209.77" xlink:href="#linear-gradient"/><linearGradient id="linear-gradient-33" x1="428.17" y1="376.29" x2="451.61" y2="213.58" xlink:href="#linear-gradient"/><linearGradient id="linear-gradient-34" x1="439.22" y1="255.22" x2="459.67" y2="189.95" xlink:href="#linear-gradient"/><linearGradient id="linear-gradient-35" x1="464.99" y1="263.29" x2="485.45" y2="198.02" xlink:href="#linear-gradient"/><linearGradient id="linear-gradient-36" x1="392.3" y1="240.51" x2="412.76" y2="175.24" xlink:href="#linear-gradient"/><linearGradient id="linear-gradient-37" x1="368.93" y1="233.19" x2="389.38" y2="167.92" xlink:href="#linear-gradient"/><linearGradient id="linear-gradient-38" x1="280.98" y1="377.27" x2="406.12" y2="268.68" xlink:href="#linear-gradient"/><linearGradient id="linear-gradient-39" x1="349.28" y1="335.98" x2="518.43" y2="266.35" xlink:href="#linear-gradient"/><linearGradient id="linear-gradient-40" x1="381.61" y1="342.08" x2="434.93" y2="288.76" xlink:href="#linear-gradient"/><linearGradient id="linear-gradient-41" x1="356.17" y1="254.95" x2="291.01" y2="691.38" xlink:href="#linear-gradient"/><linearGradient id="linear-gradient-42" x1="397.6" y1="241.11" x2="332.45" y2="677.54" xlink:href="#linear-gradient"/><linearGradient id="linear-gradient-43" x1="352.73" y1="334.75" x2="93.84" y2="432.99" xlink:href="#linear-gradient"/><linearGradient id="linear-gradient-44" x1="390.09" y1="291.43" x2="324.94" y2="727.86" xlink:href="#linear-gradient"/><linearGradient id="linear-gradient-45" x1="333.4" y1="183.93" x2="268.24" y2="620.36" xlink:href="#linear-gradient"/><linearGradient id="linear-gradient-46" x1="290.75" y1="206.88" x2="225.6" y2="643.31" xlink:href="#linear-gradient"/><linearGradient id="linear-gradient-47" x1="36.7" y1="391.35" x2="319.03" y2="283.79" xlink:href="#linear-gradient"/><linearGradient id="linear-gradient-48" x1="45.89" y1="226.13" x2="229.98" y2="145.47" xlink:href="#linear-gradient"/><linearGradient id="linear-gradient-49" x1="243.75" y1="107.51" x2="143.78" y2="279.87" xlink:href="#linear-gradient"/><linearGradient id="linear-gradient-50" x1="69.91" y1="162.13" x2="207.32" y2="162.13" xlink:href="#linear-gradient"/><linearGradient id="linear-gradient-51" x1="159.46" y1="150.64" x2="179.45" y2="286.81" xlink:href="#linear-gradient"/><linearGradient id="linear-gradient-52" x1="115.95" y1="157.03" x2="135.95" y2="293.2" xlink:href="#linear-gradient"/><linearGradient id="linear-gradient-53" x1="358.46" y1="210.84" x2="163.35" y2="381.83" xlink:href="#linear-gradient"/><linearGradient id="linear-gradient-54" x1="216.15" y1="266.42" x2="405.98" y2="341.35" xlink:href="#linear-gradient"/><linearGradient id="linear-gradient-55" x1="75" y1="228.64" x2="430.76" y2="297.59" xlink:href="#linear-gradient"/><linearGradient id="linear-gradient-56" x1="72.81" y1="239.94" x2="428.57" y2="308.89" xlink:href="#linear-gradient"/><linearGradient id="linear-gradient-57" x1="65.83" y1="275.96" x2="421.59" y2="344.91" xlink:href="#linear-gradient"/><linearGradient id="linear-gradient-58" x1="64.3" y1="283.88" x2="420.06" y2="352.82" xlink:href="#linear-gradient"/><linearGradient id="linear-gradient-59" x1="126.26" y1="259.48" x2="221.64" y2="338.54" xlink:href="#linear-gradient"/><linearGradient id="linear-gradient-60" x1="112.23" y1="274.57" x2="238.74" y2="337.31" xlink:href="#linear-gradient"/><linearGradient id="linear-gradient-61" x1="258.65" y1="278.63" x2="-48.85" y2="250.14" xlink:href="#linear-gradient"/><linearGradient id="linear-gradient-62" x1="258.24" y1="283.12" x2="-49.26" y2="254.62" xlink:href="#linear-gradient"/><linearGradient id="linear-gradient-63" x1="257.84" y1="287.41" x2="-49.66" y2="258.91" xlink:href="#linear-gradient"/><linearGradient id="linear-gradient-64" x1="257.24" y1="293.85" x2="-50.26" y2="265.36" xlink:href="#linear-gradient"/><linearGradient id="linear-gradient-65" x1="253.07" y1="338.92" x2="-54.43" y2="310.42" xlink:href="#linear-gradient"/><linearGradient id="linear-gradient-66" x1="252.53" y1="344.73" x2="-54.97" y2="316.24" xlink:href="#linear-gradient"/><linearGradient id="linear-gradient-67" x1="252.23" y1="347.89" x2="-55.27" y2="319.39" xlink:href="#linear-gradient"/><linearGradient id="linear-gradient-68" x1="252" y1="350.38" x2="-55.5" y2="321.88" xlink:href="#linear-gradient"/><linearGradient id="linear-gradient-69" x1="61.9" y1="344.95" x2="233.58" y2="356.9" xlink:href="#linear-gradient"/><linearGradient id="linear-gradient-70" x1="402.32" y1="235.44" x2="245.29" y2="297.49" xlink:href="#linear-gradient"/><linearGradient id="linear-gradient-71" x1="439.57" y1="243.89" x2="359.24" y2="306.46" xlink:href="#linear-gradient"/><linearGradient id="linear-gradient-72" x1="416.15" y1="250.86" x2="325.83" y2="309.47" xlink:href="#linear-gradient"/><linearGradient id="linear-gradient-73" x1="114.3" y1="218.27" x2="367.57" y2="476.59" xlink:href="#linear-gradient"/><linearGradient id="linear-gradient-74" x1="146.5" y1="186.71" x2="399.76" y2="445.02" xlink:href="#linear-gradient"/><linearGradient id="linear-gradient-75" x1="127.4" y1="205.43" x2="380.66" y2="463.75" xlink:href="#linear-gradient"/><linearGradient id="linear-gradient-76" x1="112.76" y1="219.79" x2="366.02" y2="478.1" xlink:href="#linear-gradient"/><linearGradient id="linear-gradient-77" x1="92.3" y1="239.84" x2="345.56" y2="498.16" xlink:href="#linear-gradient"/><linearGradient id="linear-gradient-78" x1="103.22" y1="337.57" x2="343.15" y2="399.63" xlink:href="#linear-gradient"/><linearGradient id="linear-gradient-79" x1="101.79" y1="343.11" x2="341.72" y2="405.16" gradientUnits="userSpaceOnUse"><stop offset="0.01"/><stop offset="0.13" stop-opacity="0.67"/><stop offset="0.24" stop-opacity="0.47"/><stop offset="1" stop-opacity="0"/></linearGradient><linearGradient id="linear-gradient-80" x1="209.82" y1="288.93" x2="273.6" y2="418.04" xlink:href="#linear-gradient"/><linearGradient id="linear-gradient-81" x1="177.17" y1="305.06" x2="240.95" y2="434.16" xlink:href="#linear-gradient"/><linearGradient id="linear-gradient-82" x1="157.24" y1="314.91" x2="221.02" y2="444.01" xlink:href="#linear-gradient"/><linearGradient id="linear-gradient-83" x1="140.63" y1="323.12" x2="204.4" y2="452.22" xlink:href="#linear-gradient"/><linearGradient id="linear-gradient-84" x1="171.33" y1="162.35" x2="424.6" y2="420.67" xlink:href="#linear-gradient"/><linearGradient id="linear-gradient-85" x1="153.82" y1="179.52" x2="407.08" y2="437.84" xlink:href="#linear-gradient"/><linearGradient id="linear-gradient-86" x1="139.81" y1="193.26" x2="393.07" y2="451.58" xlink:href="#linear-gradient"/><linearGradient id="linear-gradient-87" x1="126.98" y1="205.84" x2="380.24" y2="464.16" xlink:href="#linear-gradient"/><linearGradient id="linear-gradient-88" x1="156.81" y1="213.55" x2="205.53" y2="314.21" xlink:href="#linear-gradient"/><linearGradient id="linear-gradient-89" x1="171.76" y1="319.53" x2="205.32" y2="398.81" xlink:href="#linear-gradient"/></defs><title>Colosseum Rome</title><g clip-path="url(#clip-path)"><rect width="594.32" height="358.52" fill="#68e1fd" opacity="0.42" style="isolation:isolate"/><path d="M520.44,313.35a3.78,3.78,0,0,1,2.55-1.11,8.89,8.89,0,0,1,2.39,1c1.8.72,3.84-.08,5.77,0s4,2.35,2.71,3.79l15-4.75c3.19,8.17,4.09,17,5,25.74,1.84,18.46,3.68,37,3.16,55.52l-57.22-4.86a5.52,5.52,0,0,1-2.72-.72c-1.3-.91-1.56-2.69-1.7-4.27-1.28-14.62-3.55-31-1.55-45.65,1.52-11.15,7.93-22.58,17.59-10.95C513.33,321.86,516,317,520.44,313.35Z" transform="translate(5.87 -38.24)" fill="#68e1fd"/><path d="M520.44,313.35a3.78,3.78,0,0,1,2.55-1.11,8.89,8.89,0,0,1,2.39,1c1.8.72,3.84-.08,5.77,0s4,2.35,2.71,3.79l15-4.75c3.19,8.17,4.09,17,5,25.74,1.84,18.46,3.68,37,3.16,55.52l-57.22-4.86a5.52,5.52,0,0,1-2.72-.72c-1.3-.91-1.56-2.69-1.7-4.27-1.28-14.62-3.55-31-1.55-45.65,1.52-11.15,7.93-22.58,17.59-10.95C513.33,321.86,516,317,520.44,313.35Z" transform="translate(5.87 -38.24)" opacity="0.58" fill="url(#linear-gradient)"/><path d="M521.36,324.84a3.78,3.78,0,0,1,2.55-1.11,8.89,8.89,0,0,1,2.39,1c1.8.72,3.83-.08,5.77,0s4,2.35,2.71,3.79l15-4.75c3.19,8.17,4.09,17,5,25.75,1.83,18.45,3.67,37,3.16,55.51l-57.22-4.86a5.52,5.52,0,0,1-2.72-.72c-1.3-.9-1.56-2.69-1.7-4.27-1.28-14.62-3.55-31-1.55-45.65,1.52-11.15,7.93-22.58,17.59-10.95C514.25,333.35,516.9,328.47,521.36,324.84Z" transform="translate(5.87 -38.24)" opacity="0.58" fill="url(#linear-gradient-2)"/><rect x="26.2" y="350.25" width="537.78" height="128.24" fill="#68e1fd"/><path d="M47.49,292.78c.73-2.45-3.64-2.65-5.6-1a18.55,18.55,0,0,0-6.51,14.43c-1.47-1.76-4.59-.7-5.67,1.32s-.82,4.46-.71,6.75a15,15,0,0,1-.26,4.07,24.22,24.22,0,0,1-2.14,5,39.24,39.24,0,0,0,3.78,40,20.17,20.17,0,0,0-3.81,16.91,30.19,30.19,0,0,1,15.84-.06,22.32,22.32,0,0,1-9.78,8.54,24.18,24.18,0,0,1,10.68,9.38c8.11-4.16,17.84-1.61,26.86-.28s20,.38,24.54-7.56c2.68-4.75,2.12-10.56,2.84-16,.42-3.16,1.31-6.24,1.85-9.38a87.07,87.07,0,0,0,.78-15.74c-.14-12.27-.31-24.79-4.33-36.39a47.82,47.82,0,0,0-21.09-25.55C68.37,283.67,50.38,283.12,47.49,292.78Z" transform="translate(5.87 -38.24)" fill="#68e1fd"/><path d="M47.49,292.78c.73-2.45-3.64-2.65-5.6-1a18.55,18.55,0,0,0-6.51,14.43c-1.47-1.76-4.59-.7-5.67,1.32s-.82,4.46-.71,6.75a15,15,0,0,1-.26,4.07,24.22,24.22,0,0,1-2.14,5,39.24,39.24,0,0,0,3.78,40,20.17,20.17,0,0,0-3.81,16.91,30.19,30.19,0,0,1,15.84-.06,22.32,22.32,0,0,1-9.78,8.54,24.18,24.18,0,0,1,10.68,9.38c8.11-4.16,17.84-1.61,26.86-.28s20,.38,24.54-7.56c2.68-4.75,2.12-10.56,2.84-16,.42-3.16,1.31-6.24,1.85-9.38a87.07,87.07,0,0,0,.78-15.74c-.14-12.27-.31-24.79-4.33-36.39a47.82,47.82,0,0,0-21.09-25.55C68.37,283.67,50.38,283.12,47.49,292.78Z" transform="translate(5.87 -38.24)" opacity="0.58" fill="url(#linear-gradient-3)"/><path d="M62.66,297.45c.73-2.19-3.65-2.37-5.6-.9a15.87,15.87,0,0,0-6.51,12.88c-1.47-1.57-4.59-.62-5.68,1.18s-.81,4-.7,6a11.9,11.9,0,0,1-.26,3.62,19.82,19.82,0,0,1-2.15,4.48,31.92,31.92,0,0,0,3.79,35.73,16.53,16.53,0,0,0-3.81,15.1,33.79,33.79,0,0,1,15.84-.06,21.74,21.74,0,0,1-9.79,7.62,23.52,23.52,0,0,1,10.69,8.38c8.11-3.71,17.83-1.44,26.86-.25s20,.33,24.54-6.76c2.67-4.23,2.11-9.42,2.84-14.23.42-2.82,1.31-5.57,1.85-8.38a70.11,70.11,0,0,0,.78-14c-.14-11-.31-22.13-4.33-32.48a44.2,44.2,0,0,0-21.09-22.81C83.54,289.31,65.55,288.83,62.66,297.45Z" transform="translate(5.87 -38.24)" opacity="0.58" fill="url(#linear-gradient-4)"/><path d="M53.46,397.86c-8.65.68-18.82,6.41-17.66,15a3435.52,3435.52,0,0,0,462.28,6.2c18.28-1,40.7-5.18,46.15-22.65-18.1-4.92-37.09-5.2-55.84-5.45l-244.73-3.26c-33.06-.44-66.15-.88-99.2.23C113.19,389,83.88,395.46,53.46,397.86Z" transform="translate(5.87 -38.24)" opacity="0.58" fill="url(#linear-gradient-5)"/><polygon points="278.07 229.14 280.01 241.1 299.26 240.49 298.34 227.7 285.85 228.09 278.07 229.14" fill="#68e1fd"/><path d="M505.17,354.59l-2.79-22.35-.07-18.83-2.64-17.54-9.06-6.53-26.8-7.57-57.66-11.4-43.33-3-56.33-2.64-2.17,13.69,20.47,5,4.62,47.53,57.51,7,8.56,56.63,16.7.67,57.29.2,37,0,1.18-12.05ZM379.89,287.4l-7.86-.74.1-9.3,7.69.45Zm11.38,14.68-.88-3,.3-7,1.77-1.45,5.23.43,3,4.11.43,5.4.18,1.74Zm38.85-11.47-5.63-.39,0-6.29,5.86.9Z" transform="translate(5.87 -38.24)" fill="#68e1fd"/><path d="M505.17,354.59l-2.79-22.35-.07-18.83-2.64-17.54-9.06-6.53-26.8-7.57-57.66-11.4-43.33-3-56.33-2.64-2.17,13.69,20.47,5,4.62,47.53,57.51,7,8.56,56.63,16.7.67,57.29.2,37,0,1.18-12.05ZM379.89,287.4l-7.86-.74.1-9.3,7.69.45Zm11.38,14.68-.88-3,.3-7,1.77-1.45,5.23.43,3,4.11.43,5.4.18,1.74Zm38.85-11.47-5.63-.39,0-6.29,5.86.9Z" transform="translate(5.87 -38.24)" opacity="0.58" fill="url(#linear-gradient-6)"/><polygon points="447.94 281.08 448.48 357.04 475.35 357.14 512.33 357.17 513.51 345.12 511.05 316.35 508.25 294 508.18 275.17 505.55 257.63 496.48 251.1 469.68 243.53 445.68 238.78 447.94 281.08" opacity="0.58" fill="url(#linear-gradient-7)"/><polygon points="503.92 288.53 506.08 357.17 512.33 357.17 513.51 345.12 511.05 316.35 508.25 294 508.18 275.17 505.55 257.63 502.2 255.22 503.92 288.53" fill="#68e1fd"/><polygon points="505.83 259.53 505.55 257.63 496.48 251.1 469.68 243.53 412.02 232.13 368.7 229.09 312.36 226.45 311.94 229.09 323.39 229.31 347.4 230.96 391.76 233.57 416.82 235.58 441.46 240.41 468.74 246.77 487.61 250.57 505.83 259.53" fill="#68e1fd"/><polygon points="503.92 288.53 506.08 357.17 512.33 357.17 513.51 345.12 511.05 316.35 508.25 294 508.18 275.17 505.55 257.63 502.2 255.22 503.92 288.53" opacity="0.58" fill="url(#linear-gradient-8)"/><polygon points="505.83 259.53 505.55 257.63 496.48 251.1 469.68 243.53 412.02 232.13 368.7 229.09 312.36 226.45 311.94 229.09 323.39 229.31 347.4 230.96 391.76 233.57 416.82 235.58 441.46 240.41 468.74 246.77 487.61 250.57 505.83 259.53" opacity="0.58" fill="url(#linear-gradient-9)"/><polygon points="470.92 249.7 471.21 258.91 476.43 259.34 476.95 250.91 470.92 249.7" opacity="0.58" fill="url(#linear-gradient-10)"/><polygon points="491.69 256.06 492.77 265.64 496.69 265.91 497.48 257.88 491.69 256.06" opacity="0.58" fill="url(#linear-gradient-11)"/><polygon points="391.12 304.11 411.96 304.25 451.37 306.81 473.57 309.11 495.6 313.83 508.45 316.63 512.66 318.1 515.15 314.62 511.92 310.91 494.37 308.06 473.97 305.1 446.53 302.16 424.11 301.46 406.89 300.6 388.44 301.78 391.12 304.11" fill="#68e1fd"/><polygon points="391.12 304.11 411.96 304.25 451.37 306.81 473.57 309.11 495.6 313.83 508.45 316.63 512.66 318.1 515.15 314.62 511.92 310.91 494.37 308.06 473.97 305.1 446.53 302.16 424.11 301.46 406.89 300.6 388.44 301.78 391.12 304.11" opacity="0.58" fill="url(#linear-gradient-12)"/><polygon points="503.9 312.57 485.3 309.35 463.57 305.82 434.6 303.53 405.12 302.06 389.9 303.05 391.12 304.11 411.96 304.25 451.37 306.81 473.57 309.11 495.6 313.83 508.45 316.63 512.66 318.1 513.82 316.49 503.9 312.57" fill="#68e1fd"/><polygon points="337.79 264.72 347.96 265.2 351.96 268.07 353.75 275.43 353.26 292.68 336.82 291.8 337.79 264.72" fill="#68e1fd"/><polygon points="337.79 264.72 347.96 265.2 351.96 268.07 353.75 275.43 353.26 292.68 336.82 291.8 337.79 264.72" opacity="0.58" fill="url(#linear-gradient-13)"/><polygon points="367 266.2 362.15 269.36 360.04 276.44 359.77 292.67 378.03 293.9 378.03 277.27 376.19 268.51 370.39 266.29 367 266.2" fill="#68e1fd"/><polygon points="395.41 266.71 387.39 268.56 385.28 275.84 384.82 294.49 396.58 295.52 404.64 295.46 404.74 273.62 402.24 268.5 395.41 266.71" fill="#68e1fd"/><polygon points="421.48 267.69 413.96 268.73 410.96 272.83 409.33 295.31 427.32 295.95 428.45 282.1 425.74 270.76 421.48 267.69" fill="#68e1fd"/><polygon points="443.92 268.78 439.56 270.93 437.9 276.38 436.8 291.04 437.49 296.43 455.77 298.06 454.96 280.66 453.4 272.09 449.68 270 443.92 268.78" fill="#68e1fd"/><polygon points="443.92 268.78 439.56 270.93 437.9 276.38 436.8 291.04 437.49 296.43 455.77 298.06 454.96 280.66 453.4 272.09 449.68 270 443.92 268.78" opacity="0.58" fill="url(#linear-gradient-14)"/><polygon points="476.57 271.96 468.52 272.61 465.05 278.33 463.86 298.4 478.78 300.74 480.39 285.66 479.82 276.06 476.57 271.96" fill="#68e1fd"/><polygon points="476.57 271.96 468.52 272.61 465.05 278.33 463.86 298.4 478.78 300.74 480.39 285.66 479.82 276.06 476.57 271.96" opacity="0.58" fill="url(#linear-gradient-15)"/><polygon points="490.66 272.92 485.26 274.89 483.83 287.56 483.21 301.2 494.97 302.23 494.42 284.82 492.57 275.66 490.66 272.92" fill="#68e1fd"/><polygon points="490.66 272.92 485.26 274.89 483.83 287.56 483.21 301.2 494.97 302.23 494.42 284.82 492.57 275.66 490.66 272.92" opacity="0.58" fill="url(#linear-gradient-16)"/><polygon points="504.8 275.28 500.62 275.01 499.57 282.66 498.66 303.52 506.51 304.67 506.57 289.85 505.67 278.06 504.8 275.28" fill="#68e1fd"/><polygon points="347.96 265.2 337.79 264.72 337.73 266.28 345.71 268.27 348.22 273.41 348.45 280.61 346.56 292.32 353.26 292.68 353.75 275.43 351.96 268.07 347.96 265.2" fill="#68e1fd"/><polygon points="347.96 265.2 337.79 264.72 337.73 266.28 345.71 268.27 348.22 273.41 348.45 280.61 346.56 292.32 353.26 292.68 353.75 275.43 351.96 268.07 347.96 265.2" opacity="0.58" fill="url(#linear-gradient-17)"/><polygon points="370.39 266.29 367 266.2 364.89 267.57 369.96 269.11 371.93 273.65 371.8 286.08 371.38 293.45 378.03 293.9 378.03 277.27 376.19 268.51 370.39 266.29" fill="#68e1fd"/><polygon points="395.41 266.71 387.39 268.56 386.49 271.68 393.2 270.98 398.5 274.02 399.5 280.8 398.57 295.5 404.64 295.46 404.74 273.62 402.24 268.5 395.41 266.71" fill="#68e1fd"/><polygon points="427.32 295.95 428.45 282.1 425.74 270.76 421.48 267.69 413.96 268.73 411.75 271.76 417.69 271.41 421.94 273.88 422.44 281.68 421.72 295.75 427.32 295.95" fill="#68e1fd"/><polygon points="454.96 280.66 453.4 272.09 449.68 270 443.92 268.78 439.56 270.93 438.56 274.22 442.5 273.44 446.95 274.3 449.17 278.44 450.35 291.02 451.18 297.65 455.77 298.06 454.96 280.66" opacity="0.58" fill="url(#linear-gradient-18)"/><polygon points="474.02 299.99 478.78 300.74 480.39 285.66 479.82 276.06 476.57 271.96 468.52 272.61 466.39 276.13 469.66 275.79 474.95 278.42 475.85 282.4 475.31 290.03 474.02 299.99" opacity="0.58" fill="url(#linear-gradient-19)"/><path d="M484.79,311.16l-5.41,2-.54,4.82,2.34,2.54s.74,7,.76,7.59-.38,8.34-.55,11.71l7.71.68-.55-17.41-1.85-9.16Z" transform="translate(5.87 -38.24)" opacity="0.58" fill="url(#linear-gradient-20)"/><polygon points="430.9 356.99 430.96 336.9 431.21 328.28 426.02 320.83 421.32 320.38 414.47 326.21 412.49 337.49 414.07 356.78 418.05 356.94 430.9 356.99" fill="#68e1fd"/><polygon points="453.09 353.23 453.9 329.57 452.17 324.21 446.37 321.79 442.53 323.92 439.38 331.23 438.43 342.88 437.48 357.01 453.07 357.06 453.09 353.23" fill="#68e1fd"/><polygon points="472.58 335.39 472.04 326.4 466.19 322.57 460.47 322.95 459.58 327.79 458.67 340.24 457.04 357.07 473.26 357.13 472.58 335.39" fill="#68e1fd"/><polygon points="493 357.16 492.54 348.99 492.01 332.37 488.43 325.88 484.17 323.2 480.33 325.13 478.17 331.01 477.65 339.44 477.97 357.14 493 357.16" fill="#68e1fd"/><polygon points="509.45 357.17 508.46 333.66 506.69 327.11 500.68 326.29 497.72 331.59 497.51 341.42 497.51 357.16 509.45 357.17" fill="#68e1fd"/><polygon points="421.32 320.38 417.13 323.94 422 325.57 424.26 330.9 424.59 356.96 430.9 356.99 430.96 336.9 431.21 328.28 426.02 320.83 421.32 320.38" fill="#68e1fd"/><path d="M440.5,360l-3.85,2.13-1,2.31,3.73,1.61,1.49,6s-.73,17.74-.5,23.24l6.82,0,0-3.83.82-23.66-1.73-5.36Z" transform="translate(5.87 -38.24)" fill="#68e1fd"/><polygon points="466.19 322.57 460.47 322.95 459.68 327.23 465.29 327.21 468.82 331.91 468.51 338.52 468.61 357.12 473.26 357.13 472.58 335.39 472.04 326.4 466.19 322.57" fill="#68e1fd"/><polygon points="493 357.16 492.54 348.99 492.01 332.37 488.43 325.88 484.17 323.2 480.33 325.13 479.18 328.24 482.25 328.28 485.72 330.97 487.43 335.52 488 345.52 488.37 357.15 493 357.16" fill="#68e1fd"/><polygon points="509.45 357.17 508.46 333.66 506.69 327.11 500.68 326.29 498.93 329.43 503.66 330 504.46 338.79 504.8 357.17 509.45 357.17" fill="#68e1fd"/><polygon points="367 266.2 362.15 269.36 360.04 276.44 359.77 292.67 378.03 293.9 378.03 277.27 376.19 268.51 370.39 266.29 367 266.2" opacity="0.58" fill="url(#linear-gradient-21)"/><polygon points="395.41 266.71 387.39 268.56 385.28 275.84 384.82 294.49 396.58 295.52 404.64 295.46 404.74 273.62 402.24 268.5 395.41 266.71" opacity="0.58" fill="url(#linear-gradient-22)"/><polygon points="421.48 267.69 413.96 268.73 410.96 272.83 409.33 295.31 427.32 295.95 428.45 282.1 425.74 270.76 421.48 267.69" opacity="0.58" fill="url(#linear-gradient-23)"/><polygon points="504.8 275.28 500.62 275.01 499.57 282.66 498.66 303.52 506.51 304.67 506.57 289.85 505.67 278.06 504.8 275.28" opacity="0.58" fill="url(#linear-gradient-24)"/><polygon points="430.9 356.99 430.96 336.9 431.21 328.28 426.02 320.83 421.32 320.38 414.47 326.21 412.49 337.49 414.07 356.78 418.05 356.94 430.9 356.99" opacity="0.58" fill="url(#linear-gradient-25)"/><polygon points="453.09 353.23 453.9 329.57 452.17 324.21 446.37 321.79 442.53 323.92 439.38 331.23 438.43 342.88 437.48 357.01 453.07 357.06 453.09 353.23" opacity="0.58" fill="url(#linear-gradient-26)"/><polygon points="472.58 335.39 472.04 326.4 466.19 322.57 460.47 322.95 459.58 327.79 458.67 340.24 457.04 357.07 473.26 357.13 472.58 335.39" opacity="0.58" fill="url(#linear-gradient-27)"/><polygon points="493 357.16 492.54 348.99 492.01 332.37 488.43 325.88 484.17 323.2 480.33 325.13 478.17 331.01 477.65 339.44 477.97 357.14 493 357.16" opacity="0.58" fill="url(#linear-gradient-28)"/><polygon points="509.45 357.17 508.46 333.66 506.69 327.11 500.68 326.29 497.72 331.59 497.51 341.42 497.51 357.16 509.45 357.17" opacity="0.58" fill="url(#linear-gradient-29)"/><polygon points="493 357.16 492.54 348.99 492.01 332.37 488.43 325.88 484.17 323.2 480.33 325.13 479.18 328.24 482.25 328.28 485.72 330.97 487.43 335.52 488 345.52 488.37 357.15 493 357.16" opacity="0.58" fill="url(#linear-gradient-28)"/><polygon points="509.45 357.17 508.46 333.66 506.69 327.11 500.68 326.29 498.93 329.43 503.66 330 504.46 338.79 504.8 357.17 509.45 357.17" opacity="0.58" fill="url(#linear-gradient-29)"/><polygon points="430.09 259.8 430.1 268.42 431.08 283.21 430 298.27 433.39 298.37 436.14 270.23 435.81 259.42 430.09 259.8" fill="#68e1fd"/><polygon points="457.16 267.56 457.56 280.37 457.28 296.21 456.9 300.83 461.6 301.08 463.06 281.2 464.45 267.53 463.49 261.75 457.21 261.15 457.16 267.56" fill="#68e1fd"/><polygon points="380 256.97 379.68 271.61 379.11 295.07 382.77 295.35 385.1 262.02 384.91 256.02 380.19 254.77 380 256.97" fill="#68e1fd"/><polygon points="411.12 327.31 411.26 307.07 404.46 306.09 406.56 356.48 410.79 356.65 411.12 327.31" fill="#68e1fd"/><polygon points="435.83 357 436.99 321.69 437.08 308.06 433.16 307.78 433.36 322.2 432.57 338.46 432.66 357 435.83 357" fill="#68e1fd"/><polygon points="411.12 327.31 411.26 307.07 404.46 306.09 406.56 356.48 410.79 356.65 411.12 327.31" opacity="0.58" fill="url(#linear-gradient-32)"/><polygon points="435.83 357 436.99 321.69 437.08 308.06 433.16 307.78 433.36 322.2 432.57 338.46 432.66 357 435.83 357" opacity="0.58" fill="url(#linear-gradient-33)"/><polygon points="355.12 252.75 355.17 262.56 355.59 275.77 355.34 292.61 357.94 292.73 359.34 270.85 361.35 251.96 355.12 252.75" fill="#68e1fd"/><polygon points="430.09 259.8 430.1 268.42 431.08 283.21 430 298.27 433.39 298.37 436.14 270.23 435.81 259.42 430.09 259.8" opacity="0.58" fill="url(#linear-gradient-34)"/><polygon points="457.16 267.56 457.56 280.37 457.28 296.21 456.9 300.83 461.6 301.08 463.06 281.2 464.45 267.53 463.49 261.75 457.21 261.15 457.16 267.56" opacity="0.58" fill="url(#linear-gradient-35)"/><polygon points="380 256.97 379.68 271.61 379.11 295.07 382.77 295.35 385.1 262.02 384.91 256.02 380.19 254.77 380 256.97" opacity="0.58" fill="url(#linear-gradient-36)"/><polygon points="355.12 252.75 355.17 262.56 355.59 275.77 355.34 292.61 357.94 292.73 359.34 270.85 361.35 251.96 355.12 252.75" opacity="0.58" fill="url(#linear-gradient-37)"/><path d="M400.41,369.11,394,332.18l-10.44-.73-27.86-2.6-19.46-.45-3.15-44.78-3.3-5.5-11.49-1-35.07-.23-29.14.92-4.81,2,2.33,51.75L284.46,337l41.09,58.53,23.31,1.41,54.15-.65ZM275.59,330.78l-6.22-.08-2.88-13.19,6-8.47,8.38,1.6,3.88,1.75,2.32,2.2,2.07,16.1Zm42.2-.78-17.58-.2.25-13.9.1-1.69.19-1.63,6.44-3.57,6.61.33,4.59,2.26,3.8,18.45Z" transform="translate(5.87 -38.24)" fill="#68e1fd"/><path d="M400.41,369.11,394,332.18l-10.44-.73-27.86-2.6-19.46-.45-3.15-44.78-3.3-5.5-11.49-1-35.07-.23-29.14.92-4.81,2,2.33,51.75L284.46,337l41.09,58.53,23.31,1.41,54.15-.65ZM275.59,330.78l-6.22-.08-2.88-13.19,6-8.47,8.38,1.6,3.88,1.75,2.32,2.2,2.07,16.1Zm42.2-.78-17.58-.2.25-13.9.1-1.69.19-1.63,6.44-3.57,6.61.33,4.59,2.26,3.8,18.45Z" transform="translate(5.87 -38.24)" opacity="0.58" fill="url(#linear-gradient-38)"/><polygon points="338.72 291.33 342.12 289.75 339 245.38 335.7 239.88 326.87 239.13 333.41 244.22 335.62 270.06 338.31 289.21 338.72 291.33" fill="#68e1fd"/><polygon points="402.85 358.11 408.88 358.03 406.29 330.87 399.91 293.94 396.6 293.71 402.85 358.11" fill="#68e1fd"/><polygon points="258.15 247.13 295.62 245.95 325.11 245.28 332.06 245.6 331.08 247.5 257.86 248.74 258.15 247.13" fill="#68e1fd"/><polygon points="257.9 250.34 259.05 253.51 302.79 253.2 317.01 252.75 329.84 252.08 329.77 249.94 257.9 250.34" fill="#68e1fd"/><polygon points="335.7 239.88 324.22 238.9 289.14 238.67 260 239.59 255.2 241.61 255.26 242.99 270.86 242.72 292.01 241.79 311.46 241.71 337.05 242.12 335.7 239.88" fill="#68e1fd"/><polygon points="355.31 333.01 353.51 319.98 343.29 315.23 337.04 315.16 329.95 321.79 327.88 333.08 329.39 354.38 331.42 357.27 354.73 358.68 357.07 358.64 355.31 333.01" fill="#68e1fd"/><polygon points="395.59 333.08 391.81 323.31 384.75 319.53 376.39 318.72 370.3 323.73 367.97 337.96 370.19 358.49 395.14 358.2 395.59 333.08" fill="#68e1fd"/><polygon points="355.31 333.01 353.51 319.98 343.29 315.23 337.04 315.16 329.95 321.79 327.88 333.08 329.39 354.38 331.42 357.27 354.73 358.68 357.07 358.64 355.31 333.01" opacity="0.58" fill="url(#linear-gradient-39)"/><polygon points="395.59 333.08 391.81 323.31 384.75 319.53 376.39 318.72 370.3 323.73 367.97 337.96 370.19 358.49 395.14 358.2 395.59 333.08" opacity="0.58" fill="url(#linear-gradient-40)"/><polygon points="357.07 358.64 355.31 333.01 353.51 319.98 343.29 315.23 337.04 315.16 329.95 321.79 329.16 326.12 337.31 323.96 345.07 327.73 348.43 335.1 350.39 358.41 354.73 358.68 357.07 358.64" fill="#68e1fd"/><polygon points="395.14 358.2 395.59 333.08 391.81 323.31 384.75 319.53 376.39 318.72 370.3 323.73 369.71 327.3 379.36 324.78 386.16 331.24 387.45 339.21 386.66 358.29 395.14 358.2" fill="#68e1fd"/><polygon points="327.18 266.86 321.46 261.69 314.52 261.64 307.36 265.88 306.63 274.34 313.06 270.77 319.68 271.1 324.26 273.36 328.06 291.81 331.09 291.84 327.18 266.86" fill="#68e1fd"/><polygon points="291.78 267.44 286.41 262.27 278.04 261.19 270.18 265.18 268.06 274.86 268.95 292.46 275.24 292.46 272.36 279.27 278.34 270.8 286.73 272.4 290.6 274.15 292.93 276.36 291.78 267.44" fill="#68e1fd"/><polygon points="357.07 358.64 355.31 333.01 353.51 319.98 343.29 315.23 337.04 315.16 329.95 321.79 329.16 326.12 337.31 323.96 345.07 327.73 348.43 335.1 350.39 358.41 354.73 358.68 357.07 358.64" opacity="0.58" fill="url(#linear-gradient-41)"/><polygon points="395.14 358.2 395.59 333.08 391.81 323.31 384.75 319.53 376.39 318.72 370.3 323.73 369.71 327.3 379.36 324.78 386.16 331.24 387.45 339.21 386.66 358.29 395.14 358.2" opacity="0.58" fill="url(#linear-gradient-42)"/><polygon points="357.07 358.64 355.31 333.01 353.51 319.98 343.29 315.23 337.04 315.16 329.95 321.79 329.16 326.12 337.31 323.96 345.07 327.73 348.43 335.1 350.39 358.41 354.73 358.68 357.07 358.64" opacity="0.58" fill="url(#linear-gradient-43)"/><polygon points="395.14 358.2 395.59 333.08 391.81 323.31 384.75 319.53 376.39 318.72 370.3 323.73 369.71 327.3 379.36 324.78 386.16 331.24 387.45 339.21 386.66 358.29 395.14 358.2" opacity="0.58" fill="url(#linear-gradient-44)"/><polygon points="327.18 266.86 321.46 261.69 314.52 261.64 307.36 265.88 306.63 274.34 313.06 270.77 319.68 271.1 324.26 273.36 328.06 291.81 331.09 291.84 327.18 266.86" opacity="0.58" fill="url(#linear-gradient-45)"/><polygon points="291.78 267.44 286.41 262.27 278.04 261.19 270.18 265.18 268.06 274.86 268.95 292.46 275.24 292.46 272.36 279.27 278.34 270.8 286.73 272.4 290.6 274.15 292.93 276.36 291.78 267.44" opacity="0.58" fill="url(#linear-gradient-46)"/><polygon points="289.91 296.34 314.2 295.85 342.67 295.48 367.7 296.56 393.81 298.68 392.95 304.32 365.07 301.19 323.74 300.89 295.97 301.23 292.43 298.94 289.91 296.34" fill="#68e1fd"/><polygon points="297.1 303.87 322.77 303.05 354.03 303.4 378.73 304.76 393.73 307.22 393.78 308.56 355.15 306.04 325.97 305.62 297.85 305.71 297.1 303.87" fill="#68e1fd"/><path d="M327.57,382.63,304.28,348.9l-5.83-19.84-14.63-1.41-8-11.77L271,296.26,268.1,280.6l-1.73-10.9L254,263.41l-.92-6.92-3-30.61-14.83-7.82-16.95,1.87-50.5,6.4-41.31,11.45L96,250.23,70.06,266l.83,37.37,1.77,12.23,5.94,56.17L82,402.39l85.33-3,69.06-1.38,61.08-1.12,37.5.15Zm-178-106.31-4.1.89-.3-19.45,1-2.43,2.29.33.65,4.65Zm12.65-2.61-1.49-18,.51-5.89L166,248l1.77.54.46,3.94,1,19.73Zm34-3.93-10.39,1-.28-8.9-.95-8,2.59-6,5.15-2,3.2,2.65Zm31.11-15.41.39,12.54-13.56.26-.94-19.84,2.26-5.14,6.13-3.93,5.26,1.65Z" transform="translate(5.87 -38.24)" fill="#68e1fd"/><path d="M327.57,382.63,304.28,348.9l-5.83-19.84-14.63-1.41-8-11.77L271,296.26,268.1,280.6l-1.73-10.9L254,263.41l-.92-6.92-3-30.61-14.83-7.82-16.95,1.87-50.5,6.4-41.31,11.45L96,250.23,70.06,266l.83,37.37,1.77,12.23,5.94,56.17L82,402.39l85.33-3,69.06-1.38,61.08-1.12,37.5.15Zm-178-106.31-4.1.89-.3-19.45,1-2.43,2.29.33.65,4.65Zm12.65-2.61-1.49-18,.51-5.89L166,248l1.77.54.46,3.94,1,19.73Zm34-3.93-10.39,1-.28-8.9-.95-8,2.59-6,5.15-2,3.2,2.65Zm31.11-15.41.39,12.54-13.56.26-.94-19.84,2.26-5.14,6.13-3.93,5.26,1.65Z" transform="translate(5.87 -38.24)" opacity="0.58" fill="url(#linear-gradient-47)"/><polygon points="76.74 187.41 77.54 196.2 76.32 223.48 115.25 202.62 170.98 186.04 238.44 178.3 217.05 144.12 201.5 129.79 195.72 128.36 178.19 134.13 153.47 142.92 113.89 159.79 88.86 175.4 76.74 187.41" fill="#68e1fd"/><polygon points="76.74 187.41 77.54 196.2 76.32 223.48 115.25 202.62 170.98 186.04 238.44 178.3 217.05 144.12 201.5 129.79 195.72 128.36 178.19 134.13 153.47 142.92 113.89 159.79 88.86 175.4 76.74 187.41" opacity="0.58" fill="url(#linear-gradient-48)"/><polygon points="217.05 144.12 201.5 129.79 195.87 128.4 204.82 136.09 213.19 153.86 227.23 179.58 238.44 178.3 217.05 144.12" fill="#68e1fd"/><polygon points="217.05 144.12 201.5 129.79 195.87 128.4 204.82 136.09 213.19 153.86 227.23 179.58 238.44 178.3 217.05 144.12" opacity="0.58" fill="url(#linear-gradient-49)"/><polygon points="72.79 194.35 88.05 182.64 112.51 165.45 134.07 155.55 162.87 143.83 188.13 135.42 200.01 132.24 207.32 132.81 207.16 127.6 196.18 126.35 179.6 129.27 117.31 152.47 89.23 170.59 69.99 188.02 69.62 192.84 72.79 194.35" fill="#68e1fd"/><polygon points="69.91 192.98 72.79 194.35 88.05 182.64 112.51 165.45 134.07 155.55 162.87 143.83 188.13 135.42 200.01 132.24 207.32 132.81 207.23 129.92 188.01 131.81 166.86 138.09 134.95 150.31 92.98 173.68 69.91 192.98" fill="#68e1fd"/><polygon points="69.91 192.98 72.79 194.35 88.05 182.64 112.51 165.45 134.07 155.55 162.87 143.83 188.13 135.42 200.01 132.24 207.32 132.81 207.23 129.92 188.01 131.81 166.86 138.09 134.95 150.31 92.98 173.68 69.91 192.98" opacity="0.58" fill="url(#linear-gradient-50)"/><polygon points="167.04 143.96 170.84 143.31 173.37 157.38 169.22 158.05 167.04 143.96" fill="#68e1fd"/><polygon points="180.82 140.32 181.99 155.51 184.76 155.16 183.89 138.62 180.82 140.32" fill="#68e1fd"/><polygon points="193.88 136.17 195.46 153.21 199.24 152.03 197.67 135.25 193.88 136.17" fill="#68e1fd"/><polygon points="143.38 153.25 145.11 164.15 150.27 162.65 149.21 151.2 143.38 153.25" fill="#68e1fd"/><polygon points="75.79 201.33 90.71 189.91 122.42 171.28 138.54 164.9 159.16 158.37 180.21 153.96 191.95 151.99 205.81 151.02 205.53 153.16 205.23 154.78 175.87 159.44 149.69 166.14 129.09 173.74 112.35 182.28 92.96 195.18 75.98 207.2 75.79 201.33" fill="#68e1fd"/><polygon points="198.94 153.64 184.1 156.24 156.5 161.92 132.78 169.61 113.97 178.76 90.49 193.92 75.89 204.43 75.98 207.2 92.96 195.18 112.35 182.28 129.09 173.74 149.69 166.14 175.87 159.44 205.23 154.78 205.48 153.43 198.94 153.64" fill="#68e1fd"/><polygon points="75.44 212.29 75.51 214.43 88.47 207.07 113.15 196.68 153.29 181.25 177.8 176.74 199.88 172.31 217.18 170.16 217.44 167.48 202.22 169.3 172.87 174.5 146.32 180.67 125.09 190.16 105.19 197.73 87.37 205.24 75.44 212.29" fill="#68e1fd"/><polygon points="145.96 169.2 150.79 168.24 151.8 178.1 146.62 179.06 145.96 169.2" fill="#68e1fd"/><polygon points="170.04 162.03 173.83 161.11 174.21 173.12 170.76 173.76 170.04 162.03" fill="#68e1fd"/><polygon points="182.46 159.24 185.23 159.15 186.29 170.87 182.15 171.53 182.46 159.24" fill="#68e1fd"/><polygon points="195.93 157.21 200.08 156.54 200.46 168.55 196.99 168.66 195.93 157.21" fill="#68e1fd"/><polygon points="158.35 165.6 159.6 172.24 165.83 171.51 164.57 164.61 158.35 165.6" fill="#68e1fd"/><polygon points="121.94 178.24 122.47 184.1 117.32 185.86 116.82 181.07 121.94 178.24" fill="#68e1fd"/><polygon points="158.35 165.6 159.6 172.24 165.83 171.51 164.57 164.61 158.35 165.6" opacity="0.58" fill="url(#linear-gradient-51)"/><polygon points="121.94 178.24 122.47 184.1 117.32 185.86 116.82 181.07 121.94 178.24" opacity="0.58" fill="url(#linear-gradient-52)"/><polygon points="333.44 344.39 310.16 310.66 304.33 290.82 289.69 289.41 281.68 277.64 276.9 258.02 273.97 242.36 272.24 231.46 259.89 225.17 258.98 218.25 255.93 187.64 242.03 180.31 244.02 184.53 248.45 203.9 252.24 224.88 260.45 231.84 270.12 263.31 277.53 288.99 287.75 294.01 299.58 305.65 321.61 343.69 332.28 358.81 340.85 358.85 333.44 344.39" opacity="0.58" fill="url(#linear-gradient-53)"/><polygon points="74.99 241.95 87.07 228.49 106.83 216.64 134.61 205.62 166.66 197.93 212.61 190.6 239.27 188.16 245.2 188.77 256.52 195.63 258.86 192.62 258.61 184.61 254.65 180.19 242.05 176.85 234.39 176.29 192.18 181.1 170.73 183.91 148.03 190.77 113.3 201.48 94.87 211.68 79.81 218.57 74.77 224.07 72.59 231.88 72.49 239.89 74.99 241.95" fill="#68e1fd"/><polygon points="242.05 176.85 240.43 176.74 240.82 182.24 243.23 188.57 245.2 188.77 256.52 195.63 258.86 192.62 258.61 184.61 254.65 180.19 242.05 176.85" fill="#68e1fd"/><polygon points="242.05 176.85 234.39 176.29 192.18 181.1 170.73 183.91 148.03 190.77 113.3 201.48 94.87 211.68 79.81 218.57 74.77 224.07 72.92 230.69 86.88 222.62 117.27 206.43 146.47 196.43 175.76 189.09 207.2 184.1 234.26 183.25 243.61 182.41 258.73 188.5 258.61 184.61 254.65 180.19 242.05 176.85" fill="#68e1fd"/><polygon points="242.05 176.85 240.43 176.74 240.82 182.24 240.98 182.65 243.61 182.41 258.73 188.5 258.61 184.61 254.65 180.19 242.05 176.85" fill="#68e1fd"/><polygon points="222.4 189.71 216.4 189.42 196.66 191.1 173.15 194.52 145.9 200.19 124.92 206.73 100.26 217.38 83.91 227.52 72.81 240.15 74.99 241.95 87.07 228.49 106.83 216.64 134.61 205.62 166.66 197.93 212.61 190.6 222.4 189.71" fill="#68e1fd"/><polygon points="134.04 242.5 133.75 222.2 130.77 215.89 126.23 215.23 123.85 216.64 122.59 220.96 123.25 230.82 123.76 247.09 134.04 242.5" fill="#68e1fd"/><polygon points="116.44 245.99 116.2 227.3 112.86 220.72 106.97 221.18 105.8 228.16 107.89 250.26 116.44 245.99" fill="#68e1fd"/><polygon points="99.27 252.14 97 235.12 94.04 229.34 89.22 230.56 88.37 236.99 89.03 257.81 99.27 252.14" fill="#68e1fd"/><polygon points="133.75 222.2 133.02 220.66 130.27 222.31 128.51 232.52 130.02 244.29 134.04 242.5 133.75 222.2" fill="#68e1fd"/><polygon points="249.11 290.95 247.63 265.89 247.28 254.69 241.94 250.58 228.7 249.13 220.13 252.6 216.56 260.46 217.58 293.01 249.11 290.95" fill="#68e1fd"/><polygon points="249.11 290.95 247.63 265.89 247.28 254.69 241.94 250.58 228.7 249.13 220.13 252.6 216.56 260.46 217.58 293.01 249.11 290.95" opacity="0.58" fill="url(#linear-gradient-54)"/><polygon points="204.35 291.83 202.85 266.5 202.46 253.96 195.78 251.5 188.56 253.86 185 261.99 185.99 293.21 204.35 291.83" fill="#68e1fd"/><polygon points="176.3 294.32 175.21 270.85 174.1 257.53 170.16 253.91 165 255.41 162.07 261.65 162.13 274.46 162.44 295.29 176.3 294.32" fill="#68e1fd"/><polygon points="156.19 295.22 155.86 273.86 155.82 261.57 153.6 257.11 148.05 257.28 143.59 259.02 142.34 263.61 141.92 272.16 142 285.78 141.67 297.28 156.19 295.22" fill="#68e1fd"/><polygon points="232.94 273.57 232.26 263.17 235.08 253.47 243.24 251.58 241.94 250.58 228.7 249.13 220.13 252.6 216.56 260.46 217.58 293.01 233.81 291.95 232.94 273.57" fill="#68e1fd"/><polygon points="195.78 251.5 188.56 253.86 185 261.99 185.99 293.21 193.24 292.67 192.17 269.24 193.4 263.86 196.79 261.35 202.73 262.46 202.46 253.96 195.78 251.5" fill="#68e1fd"/><polygon points="170.16 253.91 165 255.41 162.07 261.65 162.13 274.46 162.44 295.29 168.58 294.86 167.56 281.51 167.13 267.9 169.41 263.28 174.65 264.12 174.1 257.53 170.16 253.91" fill="#68e1fd"/><polygon points="136.45 296.91 135.04 274.25 133.37 265.22 127.75 263.53 124.35 265.77 123.51 271.94 123 299.74 136.45 296.91" fill="#68e1fd"/><polygon points="117.09 299.66 116.91 283.1 117.64 272.93 114.02 268.23 109.17 268.65 107.94 274.04 108.2 282.31 109.51 301.5 117.09 299.66" fill="#68e1fd"/><polygon points="101.9 302.54 101.6 281.98 101.03 275.06 97.83 272.49 94.41 274.2 91.42 278.56 90.79 291.4 91.97 307.13 101.9 302.54" fill="#68e1fd"/><polygon points="116.44 245.99 116.2 227.3 112.86 220.72 106.97 221.18 105.8 228.16 107.89 250.26 116.44 245.99" opacity="0.58" fill="url(#linear-gradient-55)"/><polygon points="99.27 252.14 97 235.12 94.04 229.34 89.22 230.56 88.37 236.99 89.03 257.81 99.27 252.14" opacity="0.58" fill="url(#linear-gradient-56)"/><polygon points="117.09 299.66 116.91 283.1 117.64 272.93 114.02 268.23 109.17 268.65 107.94 274.04 108.2 282.31 109.51 301.5 117.09 299.66" opacity="0.58" fill="url(#linear-gradient-57)"/><polygon points="101.9 302.54 101.6 281.98 101.03 275.06 97.83 272.49 94.41 274.2 91.42 278.56 90.79 291.4 91.97 307.13 101.9 302.54" opacity="0.58" fill="url(#linear-gradient-58)"/><polygon points="148.05 257.28 143.59 259.02 142.34 263.61 141.92 272.16 142 285.78 141.67 297.28 147.85 296.4 146.35 269.62 148.95 263.93 155.83 263.71 155.82 261.57 153.6 257.11 148.05 257.28" fill="#68e1fd"/><polygon points="148.05 257.28 143.59 259.02 142.34 263.61 141.92 272.16 142 285.78 141.67 297.28 147.85 296.4 146.35 269.62 148.95 263.93 155.83 263.71 155.82 261.57 153.6 257.11 148.05 257.28" opacity="0.58" fill="url(#linear-gradient-59)"/><polygon points="127.75 263.53 124.35 265.77 123.51 271.94 123 299.74 128.17 298.65 127.57 279.56 127.32 271.82 129.99 268.26 133.88 267.97 133.37 265.22 127.75 263.53" fill="#68e1fd"/><polygon points="127.75 263.53 124.35 265.77 123.51 271.94 123 299.74 128.17 298.65 127.57 279.56 127.32 271.82 129.99 268.26 133.88 267.97 133.37 265.22 127.75 263.53" opacity="0.58" fill="url(#linear-gradient-60)"/><polygon points="290.85 315.04 282.5 314.74 276.28 315.49 270.49 319.01 268.63 326.03 267.97 338.29 268.63 359.33 297.76 358.79 296.43 337.95 296.34 324.04 290.85 315.04" fill="#68e1fd"/><polygon points="250.45 359.67 251.12 343.6 249.9 326.98 245.07 316.86 237.67 313.48 227.99 314.9 223.01 322 223.42 335.03 223.58 360.19 242.26 359.81 250.45 359.67" fill="#68e1fd"/><polygon points="207.55 360.51 206.89 339.3 206 322.23 202.03 317.54 191.59 316.54 188.19 319.05 184.98 327.43 184.84 344.8 184.45 360.97 207.55 360.51" fill="#68e1fd"/><polygon points="173.2 361.19 178.46 361.09 178.44 340.19 176.9 324.48 173.61 318.97 170.13 319.08 166.78 322.93 163.85 328.9 165.43 345.95 165.31 361.47 173.2 361.19" fill="#68e1fd"/><polygon points="156.72 361.76 158.12 334.42 157.04 322.17 153.82 319.33 146.58 320.9 142.86 323.96 142.93 337.31 143.07 362.23 156.72 361.76" fill="#68e1fd"/><polygon points="204.35 291.83 202.85 266.5 202.46 253.96 195.78 251.5 188.56 253.86 185 261.99 185.99 293.21 204.35 291.83" opacity="0.58" fill="url(#linear-gradient-61)"/><polygon points="176.3 294.32 175.21 270.85 174.1 257.53 170.16 253.91 165 255.41 162.07 261.65 162.13 274.46 162.44 295.29 176.3 294.32" opacity="0.58" fill="url(#linear-gradient-62)"/><polygon points="156.19 295.22 155.86 273.86 155.82 261.57 153.6 257.11 148.05 257.28 143.59 259.02 142.34 263.61 141.92 272.16 142 285.78 141.67 297.28 156.19 295.22" opacity="0.58" fill="url(#linear-gradient-63)"/><polygon points="136.45 296.91 135.04 274.25 133.37 265.22 127.75 263.53 124.35 265.77 123.51 271.94 123 299.74 136.45 296.91" opacity="0.58" fill="url(#linear-gradient-64)"/><polygon points="250.45 359.67 251.12 343.6 249.9 326.98 245.07 316.86 237.67 313.48 227.99 314.9 223.01 322 223.42 335.03 223.58 360.19 242.26 359.81 250.45 359.67" opacity="0.58" fill="url(#linear-gradient-65)"/><polygon points="207.55 360.51 206.89 339.3 206 322.23 202.03 317.54 191.59 316.54 188.19 319.05 184.98 327.43 184.84 344.8 184.45 360.97 207.55 360.51" opacity="0.58" fill="url(#linear-gradient-66)"/><polygon points="173.2 361.19 178.46 361.09 178.44 340.19 176.9 324.48 173.61 318.97 170.13 319.08 166.78 322.93 163.85 328.9 165.43 345.95 165.31 361.47 173.2 361.19" opacity="0.58" fill="url(#linear-gradient-67)"/><polygon points="156.72 361.76 158.12 334.42 157.04 322.17 153.82 319.33 146.58 320.9 142.86 323.96 142.93 337.31 143.07 362.23 156.72 361.76" opacity="0.58" fill="url(#linear-gradient-68)"/><polygon points="135.61 362.5 137.42 338.81 136.02 327.37 131.43 325.11 125.23 326.65 124.06 333.63 124.66 362.88 135.61 362.5" fill="#68e1fd"/><polygon points="118.05 363.1 117.33 340.25 116.32 330.4 112.06 327.33 107.32 331.22 108.24 338.4 109.03 363.42 118.05 363.1" fill="#68e1fd"/><polygon points="99.77 345.08 100.77 332.76 96.18 330.5 92.19 335.97 92.05 342.38 93.34 363.96 100.96 363.7 99.77 345.08" opacity="0.58" fill="url(#linear-gradient-69)"/><polygon points="283.41 332.34 283.79 322.45 287.14 318.6 293.03 318.6 290.85 315.04 282.5 314.74 276.28 315.49 270.49 319.01 268.63 326.03 267.97 338.29 268.63 359.33 283.61 359.06 283.41 332.34" fill="#68e1fd"/><polygon points="247.28 321.49 245.07 316.86 237.67 313.48 227.99 314.9 223.01 322 223.42 335.03 223.58 360.19 236.01 359.94 235.06 329.86 236.24 323.14 241.71 320.3 247.28 321.49" fill="#68e1fd"/><polygon points="206 322.23 202.03 317.54 191.59 316.54 188.19 319.05 184.98 327.43 184.84 344.8 184.45 360.97 190.55 360.85 189.69 333.43 192.56 325.59 199.09 323.25 206.2 326 206 322.23" fill="#68e1fd"/><polygon points="171.45 361.25 170.19 331.64 172.48 327.29 177.16 327.14 176.9 324.48 173.61 318.97 170.13 319.08 166.78 322.93 163.85 328.9 165.43 345.95 165.31 361.47 171.45 361.25" fill="#68e1fd"/><polygon points="157.36 325.83 157.04 322.17 153.82 319.33 146.58 320.9 142.86 323.96 142.93 337.31 143.07 362.23 148.89 362.03 147.91 341.16 147.23 330.49 150.9 325.84 157.36 325.83" fill="#68e1fd"/><polygon points="378.01 239.12 385.7 239.56 385.77 249.16 389.14 249.48 389.24 236.25 378.04 236.2 378.01 239.12" fill="#68e1fd"/><polygon points="440.49 242.85 430.3 241.77 430.36 251.98 430.32 245.69 436.19 246.59 435.99 252.37 430.36 251.98 440.28 252.67 440.49 242.85" fill="#68e1fd"/><polygon points="411.73 264.19 412.54 256.55 408.98 251.05 400.88 250.31 398.33 252.4 403.57 252.83 406.56 256.94 406.99 262.34 407.16 264.08 397.14 263.84 411.73 264.19" fill="#68e1fd"/><polygon points="378.01 239.12 385.7 239.56 385.77 249.16 389.14 249.48 389.24 236.25 378.04 236.2 378.01 239.12" opacity="0.58" fill="url(#linear-gradient-70)"/><polygon points="440.49 242.85 430.3 241.77 430.36 251.98 430.32 245.69 436.19 246.59 435.99 252.37 430.36 251.98 440.28 252.67 440.49 242.85" opacity="0.58" fill="url(#linear-gradient-71)"/><polygon points="411.73 264.19 412.54 256.55 408.98 251.05 400.88 250.31 398.33 252.4 403.57 252.83 406.56 256.94 406.99 262.34 407.16 264.08 397.14 263.84 411.73 264.19" opacity="0.58" fill="url(#linear-gradient-72)"/><polygon points="218 196.31 212.94 201.01 211.61 213.87 212.78 229.06 233.61 228.67 220.05 228.93 219.1 209.09 221.37 203.95 227.5 200.02 232.76 201.67 232.74 201.19 228.77 196.51 218 196.31" fill="#68e1fd"/><polygon points="191.43 223.59 190.48 215.61 193.07 209.65 198.22 207.62 201.43 210.26 201.36 208.05 197.33 201.5 189.3 200.16 184.58 204.58 183.93 216.89 184.44 233.16 191.71 232.49 191.43 223.59" fill="#68e1fd"/><polygon points="168.24 204.02 163.07 205.25 161.09 208.52 159.92 215.24 160.26 226.18 161.64 236.82 168.08 235.46 166.58 217.43 167.09 211.54 171.9 209.78 173.67 210.32 174.12 214.26 173.17 206 168.24 204.02" fill="#68e1fd"/><polygon points="151.32 238.97 151.02 219.52 151.99 217.09 154.27 217.42 154.92 222.07 153.58 212.5 151.4 209.63 144.46 209.59 140.04 212.66 140.94 241.21 155.43 238.08 151.32 238.97" fill="#68e1fd"/><polygon points="134.04 242.5 133.75 222.2 130.77 215.89 126.23 215.23 123.85 216.64 122.59 220.96 123.25 230.82 123.76 247.09 134.04 242.5" opacity="0.58" fill="url(#linear-gradient-73)"/><polygon points="232.94 273.57 232.26 263.17 235.08 253.47 243.24 251.58 241.94 250.58 228.7 249.13 220.13 252.6 216.56 260.46 217.58 293.01 233.81 291.95 232.94 273.57" opacity="0.58" fill="url(#linear-gradient-74)"/><polygon points="195.78 251.5 188.56 253.86 185 261.99 185.99 293.21 193.24 292.67 192.17 269.24 193.4 263.86 196.79 261.35 202.73 262.46 202.46 253.96 195.78 251.5" opacity="0.58" fill="url(#linear-gradient-75)"/><polygon points="170.16 253.91 165 255.41 162.07 261.65 162.13 274.46 162.44 295.29 168.58 294.86 167.56 281.51 167.13 267.9 169.41 263.28 174.65 264.12 174.1 257.53 170.16 253.91" opacity="0.58" fill="url(#linear-gradient-76)"/><line x1="127.57" y1="279.56" x2="127.32" y2="271.82" opacity="0.58" fill="url(#linear-gradient-77)"/><polygon points="135.61 362.5 137.42 338.81 136.02 327.37 131.43 325.11 125.23 326.65 124.06 333.63 124.66 362.88 135.61 362.5" opacity="0.58" fill="url(#linear-gradient-78)"/><polygon points="118.05 363.1 117.33 340.25 116.32 330.4 112.06 327.33 107.32 331.22 108.24 338.4 109.03 363.42 118.05 363.1" opacity="0.58" fill="url(#linear-gradient-79)"/><polygon points="247.28 321.49 245.07 316.86 237.67 313.48 227.99 314.9 223.01 322 223.42 335.03 223.58 360.19 236.01 359.94 235.06 329.86 236.24 323.14 241.71 320.3 247.28 321.49" opacity="0.58" fill="url(#linear-gradient-80)"/><polygon points="206 322.23 202.03 317.54 191.59 316.54 188.19 319.05 184.98 327.43 184.84 344.8 184.45 360.97 190.55 360.85 189.69 333.43 192.56 325.59 199.09 323.25 206.2 326 206 322.23" opacity="0.58" fill="url(#linear-gradient-81)"/><polygon points="171.45 361.25 170.19 331.64 172.48 327.29 177.16 327.14 176.9 324.48 173.61 318.97 170.13 319.08 166.78 322.93 163.85 328.9 165.43 345.95 165.31 361.47 171.45 361.25" opacity="0.58" fill="url(#linear-gradient-82)"/><polygon points="157.36 325.83 157.04 322.17 153.82 319.33 146.58 320.9 142.86 323.96 142.93 337.31 143.07 362.23 148.89 362.03 147.91 341.16 147.23 330.49 150.9 325.84 157.36 325.83" opacity="0.58" fill="url(#linear-gradient-83)"/><polygon points="218 196.31 212.94 201.01 211.61 213.87 212.78 229.06 233.61 228.67 220.05 228.93 219.1 209.09 221.37 203.95 227.5 200.02 232.76 201.67 232.74 201.19 228.77 196.51 218 196.31" opacity="0.58" fill="url(#linear-gradient-84)"/><polygon points="191.43 223.59 190.48 215.61 193.07 209.65 198.22 207.62 201.43 210.26 201.36 208.05 197.33 201.5 189.3 200.16 184.58 204.58 183.93 216.89 184.44 233.16 191.71 232.49 191.43 223.59" opacity="0.58" fill="url(#linear-gradient-85)"/><polygon points="168.24 204.02 163.07 205.25 161.09 208.52 159.92 215.24 160.26 226.18 161.64 236.82 168.08 235.46 166.58 217.43 167.09 211.54 171.9 209.78 173.67 210.32 174.12 214.26 173.17 206 168.24 204.02" opacity="0.58" fill="url(#linear-gradient-86)"/><polygon points="151.32 238.97 151.02 219.52 151.99 217.09 154.27 217.42 154.92 222.07 153.58 212.5 151.4 209.63 144.46 209.59 140.04 212.66 140.94 241.21 155.43 238.08 151.32 238.97" opacity="0.58" fill="url(#linear-gradient-87)"/><polygon points="253.6 224.03 231.4 224.73 197.79 227.13 148.41 235.63 104.02 248.52 80.4 259.41 74.31 264.68 75.55 270.79 77.77 274.99 83.14 269.21 103.71 260.82 167.39 243.04 215.19 239.14 248.48 237.82 262.02 237.66 273.51 238.63 276.88 235.32 274.13 225.52 253.6 224.03" fill="#68e1fd"/><polygon points="273.51 238.63 276.88 235.32 274.13 225.52 253.6 224.03 250.89 224.12 252.31 227.28 258.81 237.69 262.02 237.66 273.51 238.63" fill="#68e1fd"/><polygon points="275.09 228.94 274.13 225.52 253.6 224.03 231.4 224.73 197.79 227.13 148.41 235.63 104.02 248.52 80.4 259.41 74.31 264.68 74.82 267.18 89.03 257.81 115.78 247.34 153.68 237.6 188.55 231.43 216.96 229.2 240.17 227.4 250.93 227.32 275.09 228.94" fill="#68e1fd"/><polygon points="274.13 225.52 253.6 224.03 250.89 224.12 252.31 227.28 252.41 227.42 275.09 228.94 274.13 225.52" fill="#68e1fd"/><polygon points="276.47 235.72 265.4 234.88 243.19 235.31 194.68 238.45 165.93 240.69 124.61 251.87 90.92 262.55 75.96 271.57 77.77 274.99 83.14 269.21 103.71 260.82 167.39 243.04 215.19 239.14 248.48 237.82 262.02 237.66 273.51 238.63 276.47 235.72" fill="#68e1fd"/><polygon points="276.47 235.72 265.4 234.88 243.19 235.31 194.68 238.45 165.93 240.69 124.61 251.87 90.92 262.55 75.96 271.57 77.77 274.99 83.14 269.21 103.71 260.82 167.39 243.04 215.19 239.14 248.48 237.82 262.02 237.66 273.51 238.63 276.47 235.72" opacity="0.58" fill="url(#linear-gradient-88)"/><polygon points="276.47 235.72 265.4 234.88 257.16 235.04 258.81 237.69 262.02 237.66 273.51 238.63 276.47 235.72" fill="#68e1fd"/><polygon points="78.13 308.37 108.41 299.67 161.32 292.92 224.09 290.14 247.33 289.4 278.58 289.49 288.02 291.33 301.27 304.27 272.45 304.37 200.99 306.36 145.15 308.65 113.73 314.19 93.07 319.91 81.36 322.95 78.13 308.37" fill="#68e1fd"/><polygon points="288.02 291.33 278.58 289.49 247.33 289.4 224.09 290.14 161.32 292.92 108.41 299.67 78.13 308.37 79.57 314.9 105.5 306.43 136.22 300.65 173.63 297.87 215.95 296.54 261.39 294.84 293.18 296.37 288.02 291.33" fill="#68e1fd"/><path d="M209.19,339.61l-32.6,1.3-39.13,3.37-35.6,5.4-27,8.74.62,2.77,11.71-3,20.65-5.72,31.43-5.53,55.83-2.3,71.47-2,28.82-.1-3-2.95c-8-.52-18.69-1.17-20.38-1.12C269.23,338.52,209.19,339.61,209.19,339.61Z" transform="translate(5.87 -38.24)" fill="#68e1fd"/><path d="M209.19,339.61l-32.6,1.3-39.13,3.37-35.6,5.4-27,8.74.62,2.77,11.71-3,20.65-5.72,31.43-5.53,55.83-2.3,71.47-2,28.82-.1-3-2.95c-8-.52-18.69-1.17-20.38-1.12C269.23,338.52,209.19,339.61,209.19,339.61Z" transform="translate(5.87 -38.24)" opacity="0.58" fill="url(#linear-gradient-89)"/><line x1="107.74" y1="311.44" x2="80.75" y2="320.18" fill="#68e1fd"/></g></svg>