<svg id="Layer_1" data-name="Layer 1" xmlns="http://www.w3.org/2000/svg" xmlns:xlink="http://www.w3.org/1999/xlink" viewBox="0 0 457.54 401.1"><defs><linearGradient id="linear-gradient" x1="460.74" y1="250.91" x2="49.2" y2="285.11" gradientUnits="userSpaceOnUse"><stop offset="0" stop-color="#010101" stop-opacity="0"/><stop offset="0.95" stop-color="#010101"/></linearGradient><linearGradient id="linear-gradient-2" x1="144.77" y1="246.22" x2="144.24" y2="293.52" xlink:href="#linear-gradient"/><linearGradient id="linear-gradient-3" x1="185.65" y1="272.31" x2="182.97" y2="369.05" xlink:href="#linear-gradient"/><linearGradient id="linear-gradient-4" x1="144.05" y1="285.25" x2="145.06" y2="245.97" xlink:href="#linear-gradient"/><linearGradient id="linear-gradient-5" x1="100.58" y1="295.03" x2="98.17" y2="444.54" xlink:href="#linear-gradient"/><linearGradient id="linear-gradient-6" x1="190.61" y1="296.47" x2="188.2" y2="445.99" xlink:href="#linear-gradient"/></defs><title>FRANCE</title><path d="M146.22,312.67c1.26.66,2.17,1.11,3.36,1.74-1.31.62-2.28,1.11-3.53,1.71C146.11,315,146.14,314,146.22,312.67Z" transform="translate(-40.11 -4.62)" fill="#68e1fd" opacity="0.43" style="isolation:isolate"/><path d="M150.44,307.6,147,310.73c-.23-.08-.46-.14-.68-.2l.85-4Z" transform="translate(-40.11 -4.62)" fill="#68e1fd" opacity="0.43" style="isolation:isolate"/><path d="M147.9,282.74c.26-2.13.51-4.24.8-6.63,2.16,1.85,2,4.61,0,6.75C148.44,282.8,148.16,282.77,147.9,282.74Z" transform="translate(-40.11 -4.62)" fill="#68e1fd" opacity="0.43" style="isolation:isolate"/><path d="M272.53,365.52c.23,0,.46-.09.68-.12.2,1.51.4,3.05.69,4.9C270.94,368.88,272.84,367,272.53,365.52Z" transform="translate(-40.11 -4.62)" fill="#68e1fd" opacity="0.43" style="isolation:isolate"/><path d="M333.26,353.9c-.79-1.65-1.42-3-2.3-4.87,1.73.48,3,.09,3.39,1.85.11.46,1.79.57,2.93.88C337,354,335.11,354,333.26,353.9Z" transform="translate(-40.11 -4.62)" fill="#68e1fd" opacity="0.43" style="isolation:isolate"/><path d="M497.64,338c.11,8.32-.71,16.86-4.3,24.38-5.44,11.33-16.54,19-28.13,23.89-15.26,6.43-31.83,9-48.29,10.87-55.84,6.52-112.19,6.81-168.39,6.21q-62-.68-123.86-2.76c-12.93-.46-26.34-1.05-37.73-7.18-16.8-9.05-25.8-29.24-24.6-48.26S73.67,308.43,87.17,295c9.62-9.6,21-17.45,29.7-27.9,8.11-9.74,16.94-25.43,16.48-38.59a37,37,0,0,0-.77-6.23,4.57,4.57,0,0,0,3.65,1.14c1.68-.32,2.36.82,2.53,2.33.06.52.14,1,.26,1.8,3.42-1.88,4.73,1.28,7,2.82.2-2.28,1.06-3.22,3.42-1.71a8.23,8.23,0,0,1-.74,2.5,39.81,39.81,0,0,1-3.08,3.73c.32,0,.6,0,.92,0a24.42,24.42,0,0,1,2.27,2.28c.63.77.94,1.76,1.54,2.53,1.28,1.71.09,2-1.11,2.17.43,1.39.85,2.82,1.17,3.84-.88,1.11-2.17,2-2,2.68.37,2.39-1,2.93-2.79,3.1-.12,1.45-.2,2.73-.29,3.85.83.17,1.57.08,2,.39,2.79,2.22,5.41,4.62,8.25,6.75a16.24,16.24,0,0,1,6.67,12.62c.11,1.82.2,3.67.28,5.52a3.84,3.84,0,0,0,3.39,4,4,4,0,0,1,.83.35c-3.39,1.28-4.25-1.48-5.24-3.62a19.73,19.73,0,0,1-1.2-5.15c-.54-3.05-1.19-5.76-3.76-8.15-2.13-2-6-2.9-6-7.14a11.5,11.5,0,0,0-2.19,4.64c-1.11,8.94-2,17.88-3,26.82-.34,3.24-.57,6.49-.85,9.74.11,0,.22,0,.31,0,.91-2,1.82-4,3-6.61,1.51,1.94,2.59,3.3,4.13,5.24-1.74,0-2.74,0-3.73,0-.46,0-1.28,0-1.37.17a25.38,25.38,0,0,0-1.94,5.52c-.54,4-.45,8-1.13,12-1.14,6.75-2.65,13.44-4,20.16-.71,3.45-1.31,6.95-2.22,10.37a7.71,7.71,0,0,1-7.15,5.75,8.86,8.86,0,0,0-1.45.54c1.37,1.25,2.48,2.22,3.53,3.24a11.05,11.05,0,0,1,1.23,1.57c.62,1.05,1,1.77,2.5.68.91-.65,2.65-.37,4-.14.4.06,1,1.37.85,1.94a55.44,55.44,0,0,1-1.9,5.81c-.46,0-.46.17-.35.25l2.51,1.8c.4-.69.8-1.37,1.2-2,.28-.42.56-.85.59-.91.66,1,.91,2,1.48,2.25,1.94.89,4,1.43,5.93,2.28,3.07,1.34,6,3,9.71,1.68.28,1.08.22,2.31.79,2.82,1.68,1.59,3.62,2.93,4.84,3.9,1.4,0,2.14.09,2.85,0a30.15,30.15,0,0,0,3.05-.65c.65-.2,1.54-.92,1.93-.69,1.8,1,3.82,1.91,5.07,3.45,2.65,3.24,2.42,2.87,6.27,2,2.16-.48,4.61-2,6,1.51.79-.74,1.42-1.31,2-1.88a5.27,5.27,0,0,0,.05.71l9.77.51c-.06-.74.11-1.45-.17-1.7-1.54-1.48.14-3.05-.17-4.56-.06-.2.91-.94,1.25-.85,1.65.42,3.27,1.08,4.9,1.59a19,19,0,0,1,2.79.71c1.71.89,4.33.26,5,3,.06.26,1.08.49,1.65.43,3.1-.34,5.15.11,6.09,3.53a12.21,12.21,0,0,0,.8,1.62c.51-.62.8-1.19,1.25-1.39a6.51,6.51,0,0,1,2.71-.63c1.08.06,2.13.71,3.22.8,2,.14,2.42,1,1.56,2.73a13.75,13.75,0,0,0-.74,3c1.48.09,2.62-.14,3.5.26,1.34.57,3,1.28,3.62,2.45,1.51,2.73,2.71,3.21,5.24,1.33,2.85-2.07,4.93-2.22,7.63-.37.88.6,1.62,1.46,2.48,2.11.51.37,1.17.88,1.68.8,1.56-.2,3.1-.68,4.7-1.05,0-1.66.85-2.71,2.84-2.57.34,0,.86.09,1-.11,2-2.19,4.64-2.39,7.49-2.54.88,2.77,2.76,1.71,4.69,1.17a23.76,23.76,0,0,0-2.27-3.39,9,9,0,0,1-1.68-6.63,11,11,0,0,0,0-4.16c-.06-.42-1.23-.6-1.6-1.08s-.45-1.37-.2-1.65a9.35,9.35,0,0,0,2.39-5c.2-1.54.54-3.08.8-4.53.2-.09.71-.2.91-.51.69-1.06,1-2.39,1.91-3.22,2-1.82,4-4.5,6.32-4.84,3.28-.51,4-2.79,5.5-4.7-.83.46-1.66.94-2.48,1.43-.14-.15-.31-.29-.46-.43,1.43-1.45,2.85-2.93,4.27-4.39l.57.4-1.73,2.85c2.84-.06,8.85-4.7,9.31-7.12a17.3,17.3,0,0,0,2.16,0c1.94-.25,3.3.12,3.65,2.42a2.4,2.4,0,0,0,1.53,1.57,55.69,55.69,0,0,0,6.92.77,4.15,4.15,0,0,0,1.65-.6c-.71-1.14-1.31-2.11-1.9-3.08l.34-.25c.43.34.85.65,1.36,1.08,1.29-1.22,2-4.27,4.3-1.94a3,3,0,0,1-.22,4.3c.34.46.62.89,1.16,1.6l-1.53-.54c-.2,1.39-1.88,3.19,1,3.5,2.4.28,4.82.31,7.35.45-.08-.93-.17-1.82-.28-2.7,2.27-1.14,3.36-.74,4.3,1.51.22.51.68,1.34,1,1.34a24.8,24.8,0,0,0,6.35-.34c1.79-.49,2.65-.35,2.73,1.56a9.48,9.48,0,0,1-.25,1.74c-.29,1.65-.06,2.82,2,2.62,1.22-.09,3.1-.51,3.58.11a2.64,2.64,0,0,0,3.68.88.64.64,0,0,1,.6.18c1.19.91,2.33,1.85,3.55,2.84-.17.23-.48.6-1,1.28,1.17.46,2.25,1.29,3.16,1.11.65-.11,1.05-1.53,1.59-2.42,1.14.26,2.71.57,4.27.94.52.12,1,.35,1.49.52-.23.42-.46.88-.77,1.51l2.13.11c.2-1.22.17-2.85.51-2.93a10.37,10.37,0,0,1,3.76.11,6,6,0,0,1,1.77,1.05c-.51-2.5.94-2.9,2.48-3.18.65-.15,1.68,0,1.87-.38,1.14-2.1,2.05-1.05,3.28.52.85-1.88,1.59-3.5,2.39-5.24-.88-.29-1.51-.46-1.65-.51,1-1.8,2.08-3.59,3.16-5.47,3,.68,4.53-.17,5.81-3.36.8-2,3.36-3.25,4.87-2.82.71-1.45,1-3.47,2.13-4s2.37-3.11,4.3-1l2.68-3.67c.37.25.82.57,1.08.77.88-.6,1.62-1.09,2.48-1.66-.88-1.68-1.43-3,.31-5.09a56.42,56.42,0,0,0,4.33-6.1c.26-.42.63-1.05.48-1.36-.62-1.57-1.45-3-2.08-4.27a13.47,13.47,0,0,0-3.53.94c-3,1.71-5.52.82-8.14-.74a31.69,31.69,0,0,0-5.75-2.91c-1.79-.62-5.33-5.58-4.81-7.37.08-.23.37-.4.48-.66s.46-.79.37-.85c-2.93-2.62-.94-4.67.74-6.78.06,0,.06-.11.09-.2,1.16-2.84,1.16-2.84,3.53-3.7a24.15,24.15,0,0,1-1.14-4.58c-.14-2.14-1.05-3.11-3.16-2.68s-4.93-2.05-4.93-4.38c0-.92-.34-2.6-.6-2.6-2.53-.14-1.79-2.59-3-3.73,2-1.28,3.67-2.87,6.06-1.19.26.17,1.17-.2,1.51-.57,1.37-1.51,2.76-3.3,4.79-3.39a2.43,2.43,0,0,0,2.47-2,42.08,42.08,0,0,0,1-6.27,31.74,31.74,0,0,0-3.79-4,2.69,2.69,0,0,1-1.36-2.68c.08-1.08-.17-1.91-1.51-1.94-.32,0-.86-.34-.86-.51a3.89,3.89,0,0,0-2.84-3.79c-.26-.08-.46-.56-.52-.88a4,4,0,0,1,3.16-5.18c1.71-.48,3.76-3.13,3.62-4.7-.2-2.28-2.48-4.9-4.58-5.18.37-1.59.39-3-1.85-3.19-.23,0-.69-.82-.6-1.2a8.52,8.52,0,0,1,1-3.55,2.22,2.22,0,0,0-.25-3.31c-.88-.88-1.28-1.62-.37-2.84a2.3,2.3,0,0,0-.43-2.2c-2.28-1.88-8.09-1.45-10.34.43a4.09,4.09,0,0,1-2.36.91c-3.24.29-5,3.48-3,6.09,1.08,1.43.37,1.77-.51,2.62a31.49,31.49,0,0,0-3.1,3.62c-.54.66-1,1.37-1.83,2.51-.74-1.34-1.28-2.25-1.73-3.16s-.91-1.94-1.48-3.19c3.16-.69,5.18-2.51,5.12-6,0-.74.2-1.83-.23-2.17-1.76-1.54-1.5-3.05-.54-4.9.74-1.45.77-3.47,1.8-4.58,2.22-2.36,4.92-4.27,7.37-6.46a3.29,3.29,0,0,0,.77-1.8,13.23,13.23,0,0,0,.14-2.1c0-.92.37-2,.06-2.77-.43-1.14-.31-1.79.2-2.25,1.94,1.94,3.81,3.93,5.72,5.84a263.64,263.64,0,0,0,45.59,37c18.42,11.81,38.78,21.75,52.67,38.69C491.29,296.87,497.33,317.57,497.64,338Z" transform="translate(-40.11 -4.62)" fill="#68e1fd" opacity="0.4" style="isolation:isolate"/><path d="M273.21,365.4c-.22,0-.45.09-.68.12.31,1.51-1.59,3.36,1.37,4.78C273.61,368.45,273.41,366.91,273.21,365.4Zm-127-52.73c-.08,1.34-.11,2.31-.17,3.45,1.25-.6,2.22-1.09,3.53-1.71C148.39,313.78,147.48,313.33,146.22,312.67Zm1-6.18-.85,4c.22.06.45.12.68.2l3.42-3.13Zm1.51-30.38c-.29,2.39-.54,4.5-.8,6.63.26,0,.54.06.83.12C150.72,280.72,150.86,278,148.7,276.11Zm185.65,74.77c-.37-1.76-1.66-1.37-3.39-1.85.88,1.88,1.51,3.22,2.3,4.87,1.85.06,3.73.11,4-2.14C336.14,351.45,334.46,351.34,334.35,350.88Zm0,0c-.37-1.76-1.66-1.37-3.39-1.85.88,1.88,1.51,3.22,2.3,4.87,1.85.06,3.73.11,4-2.14C336.14,351.45,334.46,351.34,334.35,350.88Zm-61.82,14.64c.31,1.51-1.59,3.36,1.37,4.78-.29-1.85-.49-3.39-.69-4.9C273,365.43,272.76,365.49,272.53,365.52ZM148.7,276.11c-.29,2.39-.54,4.5-.8,6.63.26,0,.54.06.83.12C150.72,280.72,150.86,278,148.7,276.11Zm-2.36,34.42c.22.06.45.12.68.2l3.42-3.13-3.25-1.11Zm-.29,5.59c1.25-.6,2.22-1.09,3.53-1.71-1.19-.63-2.1-1.08-3.36-1.74C146.14,314,146.11,315,146.05,316.12Z" transform="translate(-40.11 -4.62)" fill="#68e1fd" opacity="0.43" style="isolation:isolate"/><path d="M422,105.1c-2.37-2.79-5.64-2.22-8.38-2.36-3.95-.2-6.86-1.26-8.77-4.76a2.62,2.62,0,0,0-3.61-.77c-3.08,2.71-4.81,2.88-7.92.71-.42.52-.88,1-1.39,1.63-1.51-4.67-1.88-4.93-6.3-4.33,0,.8-.08,1.57-.14,2.39l-2.79-.88c-.57-1-1-1.71-1.39-2.48-.94-2-2.2-4-2.65-6.18-.68-3.3-1.88-4.67-5.18-5a12.82,12.82,0,0,1-4.56-1.36c-2.13-1.17-3.13-1.23-4.81.57s-3.13,1.62-4.41-.2a3.27,3.27,0,0,0-1.2-.77c-1-.54-2-1.06-3.08-1.57-.51-.28-1.16-.85-1.53-.71-2.45.91-5.44-.29-7.55,2-.23.26-.88.15-1.37.2,0-4.38-1.76-6.46-4.72-5.86.48-2.17-.4-3.16-2.62-3.11a2.25,2.25,0,0,1-1.48-.68c-.88-1-1.45-2.59-2.51-3-1.45-.59-3-1.93-4.84-1-.4.2-1.11-.2-1.65-.32,0-1.93.48-3.93-.11-5.52-.77-2-1.88-3.7-1-5.92a28.52,28.52,0,0,0,1-3.68c.17-.68.28-1.39.42-2.07-1.05-.2-2.16-1.31-3.16.05-.82,1.14-2.19,2.34-2.19,3.5.06,4-3.39,4.39-5.67,6a3.44,3.44,0,0,1-1.82.34c-2.28,0-4.35-1.77-6.8-.77-.29.11-1.23-.86-1.57-1.48-1.11-1.94,1.28-2.45,1.71-3.62-.63-1.56-1.51-3-1.65-4.44s.4-3.33.68-5.3c-.8,0-1.65.06-2.48,0-.51-.06-1.33-.2-1.48-.55-1.11-2.62-3.1-2.81-5.49-2.27-.4.11-1.06.17-1.28-.06-1.85-2-2.74-.8-3.68,1.17a9.13,9.13,0,0,1-.79-3.59c.17-3.13-1.34-4.78-4-6a4.48,4.48,0,0,0-3.82,0,2.79,2.79,0,0,1-2-.4c-2.7-1.68-2.11-4.81-3-7.26-.23-.6-2.45-5.76-3.05-6a.89.89,0,0,0-.62-.06c-2.68.65-5.67.8-6.49,4.19C267,22.5,265.3,22,264.3,20c-.51-1-1.22-2.73-3.22-2.33-.25,0-1-1-1-1.57,0-1.56.23-3.1.31-4.67a3,3,0,0,0-.14-1.45c-.86-1.76-1.8-3.47-2.79-5.32l-.83.2c-4.38,1.08-8.85,2-13.15,3.3a62,62,0,0,0-10,4c-1.56.79-2.76,2.39-3.78,3.33-.4,2.65-.77,5.21-1.14,7.74a5.53,5.53,0,0,0,.05,1.34c.8,4,.49,8.11.15,12.22a12.66,12.66,0,0,0,.37,2.84c-2,1.26-2,4.13.22,5.73A11.51,11.51,0,0,1,231.44,48a4.62,4.62,0,0,0-.45.43c-1-.49-1.91-.94-3.19-1.6-.71,1.11-1.88,2.19-2.08,3.42-.37,2.19-1.77,3.22-3.39,4.33a49.93,49.93,0,0,0-5.21,4.1,13,13,0,0,1-5.44,2.62c-4.55,1.19-9.36,1.73-13.58,4.15-2.16,1.23-4.47,2.22-6.63,3.48s-4.22,2.76-4.93,5.41a39.56,39.56,0,0,1-1.48,4.38c-.57,1.43.77,4.3,2.28,4.44,2.36.29,4.75.4,7.14.57-1,.34-2.07.4-3.07.69a29.71,29.71,0,0,0-5.95,2c-1.57.83-2.68,2.48-4.22,3.39-2.22,1.34-4.61,2.28-7.31.85-2.28-1.22-4.7-2.42-7.35-2.28-4.21.2-8.2-.11-12.07-2.1-2.08-1.06-5,.45-5.75,2.87-.49-1.36-.69-2.19-1.06-3A7.23,7.23,0,0,0,146.25,84c-1.42-1.22-3.19-5.07-2.25-5.84,2.36-1.93,1.74-3.9.71-6.06a24.15,24.15,0,0,0-3.7-.6,3.85,3.85,0,0,0-2.56.74,4.78,4.78,0,0,1-5.81,1.08c-2.31-1.31-4.58-2.64-6.95-3.84a5.83,5.83,0,0,0-2.13-.26,15.81,15.81,0,0,0,.57,2.85c.2.46.94.71,1.45,1,1.71,1,2,2.33,1.37,4.15a4.83,4.83,0,0,0-.23,2.71c.57,2.39,1.36,4.73,2.16,7.4,2.85,1.08,3.22,4.47,4.76,7.15l1.56-.4c-.4.51-.91.85-.85,1.08a27.61,27.61,0,0,1,.23,6c0,1.74.88,3.48,1.14,5.27.39,2.91-1.17,5.72-.06,8.77.57,1.6,2.05,5,3.59,5.52a10.55,10.55,0,0,0,1.88.32c0,.25,0,.48,0,.74-1.71.08-3.39.2-5.1.31a11.22,11.22,0,0,0-1.28.17,28.82,28.82,0,0,1-5.38.91c-2.37,0-2.71-.88-1.82-3.13a4.56,4.56,0,0,0,0-1.39c-2.36.79-5,.68-5.72,3.61-2.53-1.93-3.5,1.43-5.52,1.37-.29-.66-.6-1.37-.94-2.17l-1.17.69c-.11-.8-.23-1.65-.43-3.08-.6.86-.71,1.2-.94,1.34-1.93,1-4.41,1.17-5.75,3.33-.25.43-1,.46-1.45.83-1.14,1-2.25,2.19-3.36,3.27-.2-.11-.4-.25-.6-.37.57-2.82-3.07-2.84-3.33-5.64-.2-1.93-2.51-3.7-4.1-5.86-1.31.17-2.51-.26-1.17-2.62H91c-.17-.85-.31-1.59-.48-2.56-1.17.71-2.08,1.25-3,1.82-.46-.63-.83-1.11-.88-1.2l-5.39,2.37c-.94-.46-1.76-1.17-2.44-1.06s-1.51,1-2.34,1.57l-1-1c.48,1.62.77,2.59,1,3.42-.28,1.11-.54,2.22-.85,3.36-1.2-.46-2.42-.91-3.65-1.4-3.13-1.28-4.12-.71-4.32,2.51,0,.08-.18.17-.43.45-.46-.91-.88-2.25-2.16-.68-.35-1.22-.63-2.22-.94-3.44-1.09.71-2,1.33-3.17,2.13-2.56-2-3.75,2.45-6.26,2-.65-1.88-1.85-1.94-4-.26-.57.46-1.59,1.14-2,.92-2-1.17-1.62.54-1.71,1.08a34.6,34.6,0,0,0-5.27,2.39,4.41,4.41,0,0,0-1.62,2.9,29.55,29.55,0,0,0,.34,5.21c.09.77.23,1.54.34,2.31.91-.2,1.85-.43,3.19-.74.46.06,1.43.14,2.39.26,1.71-1,3.42-2,5.13-2.94.08.2.2.37.28.57l-2,2.4c1.57.88,2.79,1.39,3.31,0l3.41,1.93c-1.76-.77-3.5,1.34-5.35,0a1.38,1.38,0,0,0-1-.11c-1.71.8-2.71.45-2.85-1.6a4.5,4.5,0,0,0-.63,0c-.51,1.08-1,2.16-1.36,2.93.74,1.68,1.45,3.27,2.19,4.9.77-1,1.51-2.71,2.53-2.91,1.17-.23,2.68.8,3.87,1.54s1.14,3.25.52,4.07c-1.37.14-2.42.2-3.45.37-2.39.43-4.78.88-7.14,1.43a6.6,6.6,0,0,0-1.74,1,8.38,8.38,0,0,0,1.65,1.11c1.79.6,3.84.66,5.32,1.63,3,1.93,5,4.61,3.28,8.54.77.14,1.42.28,2.08.37a7.89,7.89,0,0,0,2.13.25c2.31-.28,2.79-1.28,1.71-3.3,1.85.11,3.7.26,5.7.37.11-.45.25-1.08.54-2.31a11.75,11.75,0,0,0,.68,1.17c1.77,1.91,2.56,5.5,6.44,3.62.08,0,.25.14.37.17,1.68.54,3.33,1,5,1.59.48.17,1.19.54,1.28.94.48,2.31,2.13,2,3.19,2,1-1.2,1.71-2,2.39-2.85a2.83,2.83,0,0,1,.31.26c-.54,1.05-1.11,2.13-1.65,3.19l.69-.35c1.31.94,2.59,1.94,3.9,2.88,1.76,1.22,2,2.9,1.68,4.87-.15,1.08-.17,2.48,1.56,2.5-.34-1.59-.62-3-.91-4.35h5.55c-.14-.49-.42-1.34-.54-1.71,1.08.11,2.19.2,3.28.28.14-1.9,1.31-1,2.16-.74a19.21,19.21,0,0,1,1.94.94c-.23.6-.54,1.31-.86,2.08l-3.41-.51c-.54-.14-1.09-.26-1.63-.37-.14.23-.25.46-.37.65.54.46,1.34.77,1.65,1.34.63,1.17,1.2,1.91,2.74,1.43,1-.35,2.19,0,3.16-.37a9.86,9.86,0,0,1,6.26-.49c-1.93,1.6-1.19,2.79.23,3.82l-3.13,2.39c1.14,1.25,2.22,2.45,3.3,3.62l-.26.39c-.85-.25-1.73-.54-2.61-.79a4.3,4.3,0,0,0-.23.48c1.14.6,2.28,1.17,3.47,1.79,2.34-3,2.76.94,4.59,1.09.94-1,2-2.11,3.18-3.14a2.53,2.53,0,0,1,1.54-.37,8.39,8.39,0,0,1,1.88.18c1.88.28,3.7.62,5.55,1l-.08.6c-.26.06-.63.26-.77.17-2.42-1.56-5-.62-7.46-.31a1.36,1.36,0,0,0-.85,1c0,1.06.65,2.25.34,3.16s-1.51,1.23-2.42,1.88a41.39,41.39,0,0,1,5.18,1.71c1.34.69,2.65,1.74,1.82,3.62a13.37,13.37,0,0,1-3.44,5.09c-.94,2.2-.37,3.79,1.45,5.39a26.8,26.8,0,0,1,5.18,5.89c1.42,2.31,2.16,5,3.19,7.52.8.4,1.79.85,2.73,1.42.32.2.6.4.91.6a4.57,4.57,0,0,0,3.65,1.14c1.68-.32,2.36.82,2.53,2.33.06.52.14,1,.26,1.8,3.42-1.88,4.73,1.28,7,2.82.2-2.28,1.06-3.22,3.42-1.71a8.23,8.23,0,0,1-.74,2.5,39.81,39.81,0,0,1-3.08,3.73c.32,0,.6,0,.92,0a24.42,24.42,0,0,1,2.27,2.28c.63.77.94,1.76,1.54,2.53,1.28,1.71.09,2-1.11,2.17.43,1.39.85,2.82,1.17,3.84-.88,1.11-2.17,2-2,2.68.37,2.39-1,2.93-2.79,3.1-.12,1.45-.2,2.73-.29,3.85.83.17,1.57.08,2,.39,2.79,2.22,5.41,4.62,8.25,6.75a16.24,16.24,0,0,1,6.67,12.62c.11,1.82.2,3.67.28,5.52a3.84,3.84,0,0,0,3.39,4,4,4,0,0,1,.83.35c-3.39,1.28-4.25-1.48-5.24-3.62a19.73,19.73,0,0,1-1.2-5.15c-.54-3.05-1.19-5.76-3.76-8.15-2.13-2-6-2.9-6-7.14a11.5,11.5,0,0,0-2.19,4.64c-1.11,8.94-2,17.88-3,26.82-.34,3.24-.57,6.49-.85,9.74.11,0,.22,0,.31,0,.91-2,1.82-4,3-6.61,1.51,1.94,2.59,3.3,4.13,5.24-1.74,0-2.74,0-3.73,0-.46,0-1.28,0-1.37.17a25.38,25.38,0,0,0-1.94,5.52c-.54,4-.45,8-1.13,12-1.14,6.75-2.65,13.44-4,20.16-.71,3.45-1.31,6.95-2.22,10.37a7.71,7.71,0,0,1-7.15,5.75,8.86,8.86,0,0,0-1.45.54c1.37,1.25,2.48,2.22,3.53,3.24a11.05,11.05,0,0,1,1.23,1.57c.62,1.05,1,1.77,2.5.68.91-.65,2.65-.37,4-.14.4.06,1,1.37.85,1.94a55.44,55.44,0,0,1-1.9,5.81c-.46,0-.46.17-.35.25l2.51,1.8c.4-.69.8-1.37,1.2-2,.28-.42.56-.85.59-.91.66,1,.91,2,1.48,2.25,1.94.89,4,1.43,5.93,2.28,3.07,1.34,6,3,9.71,1.68.28,1.08.22,2.31.79,2.82,1.68,1.59,3.62,2.93,4.84,3.9,1.4,0,2.14.09,2.85,0a30.15,30.15,0,0,0,3.05-.65c.65-.2,1.54-.92,1.93-.69,1.8,1,3.82,1.91,5.07,3.45,2.65,3.24,2.42,2.87,6.27,2,2.16-.48,4.61-2,6,1.51.79-.74,1.42-1.31,2-1.88a5.27,5.27,0,0,0,.05.71l9.77.51c-.06-.74.11-1.45-.17-1.7-1.54-1.48.14-3.05-.17-4.56-.06-.2.91-.94,1.25-.85,1.65.42,3.27,1.08,4.9,1.59a19,19,0,0,1,2.79.71c1.71.89,4.33.26,5,3,.06.26,1.08.49,1.65.43,3.1-.34,5.15.11,6.09,3.53a12.21,12.21,0,0,0,.8,1.62c.51-.62.8-1.19,1.25-1.39a6.51,6.51,0,0,1,2.71-.63c1.08.06,2.13.71,3.22.8,2,.14,2.42,1,1.56,2.73a13.75,13.75,0,0,0-.74,3c1.48.09,2.62-.14,3.5.26,1.34.57,3,1.28,3.62,2.45,1.51,2.73,2.71,3.21,5.24,1.33,2.85-2.07,4.93-2.22,7.63-.37.88.6,1.62,1.46,2.48,2.11.51.37,1.17.88,1.68.8,1.56-.2,3.1-.68,4.7-1.05,0-1.66.85-2.71,2.84-2.57.34,0,.86.09,1-.11,2-2.19,4.64-2.39,7.49-2.54.88,2.77,2.76,1.71,4.69,1.17a23.76,23.76,0,0,0-2.27-3.39,9,9,0,0,1-1.68-6.63,11,11,0,0,0,0-4.16c-.06-.42-1.23-.6-1.6-1.08s-.45-1.37-.2-1.65a9.35,9.35,0,0,0,2.39-5c.2-1.54.54-3.08.8-4.53.2-.09.71-.2.91-.51.69-1.06,1-2.39,1.91-3.22,2-1.82,4-4.5,6.32-4.84,3.28-.51,4-2.79,5.5-4.7-.83.46-1.66.94-2.48,1.43-.14-.15-.31-.29-.46-.43,1.43-1.45,2.85-2.93,4.27-4.39l.57.4-1.73,2.85c2.84-.06,8.85-4.7,9.31-7.12a17.3,17.3,0,0,0,2.16,0c1.94-.25,3.3.12,3.65,2.42a2.4,2.4,0,0,0,1.53,1.57,55.69,55.69,0,0,0,6.92.77,4.15,4.15,0,0,0,1.65-.6c-.71-1.14-1.31-2.11-1.9-3.08l.34-.25c.43.34.85.65,1.36,1.08,1.29-1.22,2-4.27,4.3-1.94a3,3,0,0,1-.22,4.3c.34.46.62.89,1.16,1.6l-1.53-.54c-.2,1.39-1.88,3.19,1,3.5,2.4.28,4.82.31,7.35.45-.08-.93-.17-1.82-.28-2.7,2.27-1.14,3.36-.74,4.3,1.51.22.51.68,1.34,1,1.34a24.8,24.8,0,0,0,6.35-.34c1.79-.49,2.65-.35,2.73,1.56a9.48,9.48,0,0,1-.25,1.74c-.29,1.65-.06,2.82,2,2.62,1.22-.09,3.1-.51,3.58.11a2.64,2.64,0,0,0,3.68.88.64.64,0,0,1,.6.18c1.19.91,2.33,1.85,3.55,2.84-.17.23-.48.6-1,1.28,1.17.46,2.25,1.29,3.16,1.11.65-.11,1.05-1.53,1.59-2.42,1.14.26,2.71.57,4.27.94.52.12,1,.35,1.49.52-.23.42-.46.88-.77,1.51l2.13.11c.2-1.22.17-2.85.51-2.93a10.37,10.37,0,0,1,3.76.11,6,6,0,0,1,1.77,1.05c-.51-2.5.94-2.9,2.48-3.18.65-.15,1.68,0,1.87-.38,1.14-2.1,2.05-1.05,3.28.52.85-1.88,1.59-3.5,2.39-5.24-.88-.29-1.51-.46-1.65-.51,1-1.8,2.08-3.59,3.16-5.47,3,.68,4.53-.17,5.81-3.36.8-2,3.36-3.25,4.87-2.82.71-1.45,1-3.47,2.13-4s2.37-3.11,4.3-1l2.68-3.67c.37.25.82.57,1.08.77.88-.6,1.62-1.09,2.48-1.66-.88-1.68-1.43-3,.31-5.09a56.42,56.42,0,0,0,4.33-6.1c.26-.42.63-1.05.48-1.36-.62-1.57-1.45-3-2.08-4.27a13.47,13.47,0,0,0-3.53.94c-3,1.71-5.52.82-8.14-.74a31.69,31.69,0,0,0-5.75-2.91c-1.79-.62-5.33-5.58-4.81-7.37.08-.23.37-.4.48-.66s.46-.79.37-.85c-2.93-2.62-.94-4.67.74-6.78.06,0,.06-.11.09-.2,1.16-2.84,1.16-2.84,3.53-3.7a24.15,24.15,0,0,1-1.14-4.58c-.14-2.14-1.05-3.11-3.16-2.68s-4.93-2.05-4.93-4.38c0-.92-.34-2.6-.6-2.6-2.53-.14-1.79-2.59-3-3.73,2-1.28,3.67-2.87,6.06-1.19.26.17,1.17-.2,1.51-.57,1.37-1.51,2.76-3.3,4.79-3.39a2.43,2.43,0,0,0,2.47-2,42.08,42.08,0,0,0,1-6.27,31.74,31.74,0,0,0-3.79-4,2.69,2.69,0,0,1-1.36-2.68c.08-1.08-.17-1.91-1.51-1.94-.32,0-.86-.34-.86-.51a3.89,3.89,0,0,0-2.84-3.79c-.26-.08-.46-.56-.52-.88a4,4,0,0,1,3.16-5.18c1.71-.48,3.76-3.13,3.62-4.7-.2-2.28-2.48-4.9-4.58-5.18.37-1.59.39-3-1.85-3.19-.23,0-.69-.82-.6-1.2a8.52,8.52,0,0,1,1-3.55,2.22,2.22,0,0,0-.25-3.31c-.88-.88-1.28-1.62-.37-2.84a2.3,2.3,0,0,0-.43-2.2c-2.28-1.88-8.09-1.45-10.34.43a4.09,4.09,0,0,1-2.36.91c-3.24.29-5,3.48-3,6.09,1.08,1.43.37,1.77-.51,2.62a31.49,31.49,0,0,0-3.1,3.62c-.54.66-1,1.37-1.83,2.51-.74-1.34-1.28-2.25-1.73-3.16s-.91-1.94-1.48-3.19c3.16-.69,5.18-2.51,5.12-6,0-.74.2-1.83-.23-2.17-1.76-1.54-1.5-3.05-.54-4.9.74-1.45.77-3.47,1.8-4.58,2.22-2.36,4.92-4.27,7.37-6.46a3.29,3.29,0,0,0,.77-1.8,13.23,13.23,0,0,0,.14-2.1c0-.92.37-2,.06-2.77-.43-1.14-.31-1.79.2-2.25a4.44,4.44,0,0,1,1.45-.74c1.45-.48,2.68-1.62,4.13-2.13,2.11-.77,1.42-3.3,3.05-4.33a9.21,9.21,0,0,0,2.5-2c1.88-2.48,3.62-5.07,5.38-7.63a9,9,0,0,0,.69-1.51,12.63,12.63,0,0,0-2-.43c-.82,0-1.65.12-2.59.17,1.48-2.3,2.73-4.24,4-6.12.68,0,1.65-.06,2.62-.14s1.79-.12,1.85,1.34,1.94,2.25,3.19,1.71c.51-.23,1.17-.57,1.59-.4,2.25.82,2.94-.46,3.48-2.11a3.08,3.08,0,0,0,1.62-1.2,26.37,26.37,0,0,0,1.37-2.82,9.44,9.44,0,0,0,2.9.49c.31-.06.43-1.17.71-2.08-1,.11-1.62.2-2.3.29-.6-2.17-2.91-3.85-1.4-6.41.09-.17-.06-.46,0-.66a23.21,23.21,0,0,1,.71-5.06c.8-2.08,1.74-4,1.54-6.35a3.51,3.51,0,0,1,1.2-2.2c3.39-3.53,3.39-3.5,1.59-7.86-.65-1.53-1-3,.54-4.44.49-.4.43-1.45.52-2.22a15.07,15.07,0,0,1,.17-2.36c.82-2.71,2-5.27,1.53-8.26-.11-.8.63-1.79,1.14-2.53,1.11-1.6,2.34-3.08,3.56-4.62.14-.19.43-.28.66-.45,1.19-.94,2.76-1.68,3.47-2.91a58.06,58.06,0,0,0,3.16-7.28C425,106,422.87,106.1,422,105.1ZM148.73,282.86c-.29-.06-.57-.09-.83-.12.26-2.13.51-4.24.8-6.63C150.86,278,150.72,280.72,148.73,282.86Zm-2.68,33.26c.06-1.14.09-2.11.17-3.45,1.26.66,2.17,1.11,3.36,1.74C148.27,315,147.3,315.52,146.05,316.12Zm1-5.39c-.23-.08-.46-.14-.68-.2l.85-4,3.25,1.11Zm125.51,54.79c.23,0,.46-.09.68-.12.2,1.51.4,3.05.69,4.9C270.94,368.88,272.84,367,272.53,365.52Zm60.73-11.62c-.79-1.65-1.42-3-2.3-4.87,1.73.48,3,.09,3.39,1.85.11.46,1.79.57,2.93.88C337,354,335.11,354,333.26,353.9Z" transform="translate(-40.11 -4.62)" fill="#68e1fd" opacity="0.43" style="isolation:isolate"/><path d="M97.64,170.11l-3.27-.28.55,1.7H89.36l.92,4.36c-1.75,0-1.71-1.43-1.56-2.52.27-2,.06-3.63-1.68-4.87-1.33-.93-2.61-1.91-3.91-2.88l-.69.37c.55-1.07,1.11-2.14,1.67-3.21l-.33-.26-2.39,2.85c-1,0-2.7.34-3.2-2-.08-.4-.79-.77-1.28-.95-1.64-.57-3.31-1.05-5-1.57-.14,0-.31-.22-.39-.18-3.88,1.88-4.68-1.71-6.42-3.61a9.3,9.3,0,0,1-.68-1.18l-.54,2.31-5.7-.36c1.09,2,.6,3-1.71,3.28a7.93,7.93,0,0,1-2.15-.24c-.65-.09-1.29-.23-2.08-.38C54,156.6,52,153.94,49,152c-1.49-1-3.56-1-5.33-1.62a7.29,7.29,0,0,1-1.65-1.12,6.47,6.47,0,0,1,1.73-1c2.36-.54,4.74-1,7.13-1.41,1-.18,2.1-.23,3.45-.37.65-.85.64-3.36-.49-4.07s-2.73-1.77-3.9-1.55-1.76,1.95-2.52,2.89l-2.2-4.89,1.38-2.92a6,6,0,0,1,.63,0c.12,2,1.13,2.37,2.84,1.6a1.23,1.23,0,0,1,1.06.11c1.83,1.34,3.59-.76,5.35,0l-3.42-1.93c-.52,1.42-1.75.91-3.3,0l2.05-2.38-.3-.57-5.11,2.92-2.4-.24-3.19.75c-.11-.78-.26-1.55-.33-2.32a28,28,0,0,1-.35-5.23,4.32,4.32,0,0,1,1.62-2.88,34.8,34.8,0,0,1,5.28-2.41c.08-.52-.35-2.24,1.71-1.06.36.2,1.37-.48,1.94-.93,2.13-1.68,3.31-1.62,4,.26,2.52.39,3.7-4,6.27-2.06l3.14-2.13.94,3.44c1.3-1.55,1.72-.21,2.17.7.27-.28.43-.37.44-.47.19-3.22,1.19-3.79,4.33-2.5,1.22.49,2.45.94,3.65,1.4l.84-3.36-1-3.41,1.06,1c.82-.59,1.52-1.44,2.34-1.58s1.49.62,2.45,1.07l5.37-2.36.89,1.18,3-1.82.5,2.58h2c-1.36,2.35-.16,2.78,1.15,2.61,1.61,2.17,3.92,3.92,4.11,5.87.26,2.78,3.91,2.81,3.34,5.64l.59.37c1.12-1.1,2.21-2.22,3.37-3.27.4-.37,1.17-.42,1.43-.83,1.34-2.16,3.81-2.28,5.76-3.34.23-.13.34-.47,1-1.33l.41,3.06,1.17-.66,1,2.15c2,.07,3-3.31,5.52-1.35.68-3,3.36-2.83,5.71-3.63a4.26,4.26,0,0,1,0,1.39c-.87,2.26-.53,3.1,1.83,3.13a29.92,29.92,0,0,0,5.39-.91c.42-.07.85-.15,1.27-.18l5.1-.31,0-.72a10.5,10.5,0,0,1-1.86-.33c-1.56-.55-3-3.93-3.61-5.51-1.1-3,.47-5.89,0-8.79-.25-1.77-1.14-3.51-1.12-5.25a28.19,28.19,0,0,0-.24-6c-.05-.24.46-.59.88-1.09l-1.58.4c-1.53-2.68-1.91-6.07-4.76-7.14-.8-2.68-1.6-5-2.17-7.42a5,5,0,0,1,.23-2.7c.64-1.81.35-3.17-1.37-4.15-.52-.28-1.25-.54-1.43-1a14.31,14.31,0,0,1-.57-2.87,6.14,6.14,0,0,1,2.13.26c2.35,1.21,4.62,2.55,6.93,3.84a4.78,4.78,0,0,0,5.82-1.07A3.78,3.78,0,0,1,141,71.5a24.64,24.64,0,0,1,3.69.59c1,2.17,1.67,4.15-.69,6.08-.95.78.82,4.6,2.25,5.83a6.87,6.87,0,0,1,1.45,2.24,28.73,28.73,0,0,1,1,2.93c.76-2.39,3.67-3.92,5.74-2.86,3.9,2,7.89,2.29,12.1,2.09,2.65-.12,5.06,1.06,7.34,2.28,2.69,1.43,5.08.5,7.32-.84,1.53-.92,2.65-2.57,4.21-3.4a29.84,29.84,0,0,1,5.94-2c1-.29,2.09-.32,3.08-.67-2.39-.18-4.78-.3-7.16-.56-1.48-.17-2.82-3-2.26-4.46a39.51,39.51,0,0,0,1.47-4.38c.73-2.66,2.73-4.16,4.93-5.42s4.47-2.24,6.64-3.48c4.21-2.41,9-2.94,13.58-4.16a12.81,12.81,0,0,0,5.44-2.61,55.42,55.42,0,0,1,5.2-4.1c1.63-1.1,3-2.12,3.4-4.32.21-1.23,1.37-2.31,2.08-3.42L231,48.45l.46-.42a12,12,0,0,0-2.07-2.73c-2.17-1.6-2.23-4.47-.22-5.72a14.18,14.18,0,0,1-.38-2.85,44.65,44.65,0,0,0-.12-12.22,4.19,4.19,0,0,1-.06-1.32c.35-2.55.73-5.09,1.11-7.75,1.05-.94,2.23-2.54,3.81-3.33a64,64,0,0,1,10-4c4.33-1.32,8.79-2.21,13.19-3.29l.81-.19c1,1.85,1.93,3.55,2.79,5.3a3.13,3.13,0,0,1,.13,1.47c-.09,1.55-.33,3.11-.3,4.66,0,.55.76,1.61,1,1.56,2-.39,2.71,1.38,3.2,2.36,1,2,2.71,2.51,4.58,3.33.84-3.4,3.84-3.53,6.49-4.21a1.13,1.13,0,0,1,.65.07c.58.23,2.82,5.38,3,6,.87,2.47.26,5.59,3,7.27a2.78,2.78,0,0,0,2,.39,4.43,4.43,0,0,1,3.81.06c2.66,1.27,4.17,2.92,4,6a9.21,9.21,0,0,0,.78,3.59c1-1.95,1.84-3.2,3.7-1.16.21.23.86.16,1.27.07,2.38-.54,4.39-.37,5.49,2.27.14.34,1,.49,1.48.54a23.08,23.08,0,0,0,2.49,0c-.29,2-.84,3.67-.69,5.31.13,1.47,1,2.86,1.64,4.44-.43,1.15-2.8,1.66-1.69,3.62.34.62,1.26,1.57,1.55,1.46,2.47-1,4.53.82,6.81.79a3.56,3.56,0,0,0,1.83-.36c2.28-1.56,5.72-1.92,5.67-6,0-1.15,1.37-2.36,2.18-3.49,1-1.38,2.1-.25,3.16,0-.14.68-.26,1.37-.42,2a27.92,27.92,0,0,1-1,3.67c-.9,2.25.22,4,1,5.95.59,1.58.12,3.57.12,5.52.55.12,1.25.51,1.65.31,1.9-1,3.4.36,4.84,1,1.07.45,1.62,2,2.51,3a2.14,2.14,0,0,0,1.47.68c2.23-.05,3.12.94,2.64,3.12,2.94-.62,4.68,1.47,4.72,5.84.48,0,1.13.07,1.37-.19,2.11-2.26,5.1-1,7.54-2,.37-.14,1,.45,1.53.71,1,.52,2.06,1,3.07,1.58a3.25,3.25,0,0,1,1.2.76c1.29,1.84,2.81,1.93,4.43.21s2.66-1.75,4.81-.56A12.68,12.68,0,0,0,373.5,83c3.29.4,4.5,1.75,5.19,5,.45,2.15,1.71,4.14,2.65,6.18.35.77.82,1.48,1.39,2.5l2.78.86c.05-.8.1-1.58.15-2.37,4.41-.6,4.77-.36,6.29,4.31l1.39-1.6c3.11,2.14,4.84,2,7.93-.73a2.58,2.58,0,0,1,3.6.78c1.92,3.48,4.82,4.56,8.78,4.75,2.73.13,6-.44,8.38,2.36.83,1,3,.85,4.35,1.19a59.2,59.2,0,0,1-3.16,7.3c-.71,1.23-2.29,2-3.49,2.89a4.1,4.1,0,0,0-.66.47c-1.2,1.52-2.43,3-3.54,4.6-.53.76-1.25,1.76-1.14,2.54.45,3-.73,5.56-1.55,8.25a15.26,15.26,0,0,0-.16,2.36c-.1.77-.05,1.82-.51,2.24-1.57,1.39-1.2,2.89-.56,4.43,1.81,4.36,1.81,4.33-1.57,7.85a3.58,3.58,0,0,0-1.2,2.2c.2,2.34-.75,4.28-1.53,6.36a21.45,21.45,0,0,0-.72,5.06c0,.22.12.5,0,.65-1.51,2.58.81,4.26,1.4,6.41l2.31-.28c-.29.9-.4,2-.71,2.07a9.44,9.44,0,0,1-2.92-.47,26.77,26.77,0,0,1-1.35,2.83,3.43,3.43,0,0,1-1.62,1.19c-.55,1.63-1.22,2.92-3.47,2.09-.43-.16-1.09.18-1.6.39-1.27.55-3.15-.31-3.2-1.7s-.8-1.44-1.84-1.33-2,.11-2.64.15L387,181a21.82,21.82,0,0,1,2.6-.16,11.33,11.33,0,0,1,1.95.42,8.83,8.83,0,0,1-.68,1.5c-1.76,2.57-3.5,5.16-5.38,7.64a9.29,9.29,0,0,1-2.5,2c-1.63,1-.95,3.56-3.05,4.33-1.45.53-2.68,1.66-4.14,2.15-1.62.56-2.34,1.16-1.65,3a7.47,7.47,0,0,1-.05,2.78,14.62,14.62,0,0,1-.14,2.1,3.47,3.47,0,0,1-.77,1.8c-2.43,2.18-5.14,4.09-7.36,6.45-1,1.11-1.05,3.12-1.82,4.57-1,1.85-1.22,3.36.56,4.9.41.35.22,1.44.23,2.19.05,3.44-2,5.24-5.13,5.93.57,1.25,1,2.24,1.46,3.19s1,1.83,1.75,3.17c.82-1.14,1.29-1.86,1.82-2.52a35.72,35.72,0,0,1,3.1-3.61c.89-.84,1.59-1.19.53-2.61-2-2.63-.23-5.82,3-6.09a4.41,4.41,0,0,0,2.38-.91c2.22-1.9,8-2.31,10.32-.44a2.32,2.32,0,0,1,.44,2.2c-.92,1.21-.52,2,.36,2.84a2.21,2.21,0,0,1,.25,3.3,8.81,8.81,0,0,0-1,3.57c-.07.37.37,1.18.61,1.2,2.23.17,2.22,1.59,1.85,3.19,2.09.27,4.38,2.89,4.59,5.16.14,1.57-1.9,4.22-3.62,4.7a4,4,0,0,0-3.17,5.18c.07.33.25.81.51.91a3.86,3.86,0,0,1,2.86,3.76c0,.19.55.53.84.53,1.35,0,1.61.84,1.5,1.92a2.75,2.75,0,0,0,1.39,2.69,31.66,31.66,0,0,1,3.78,4,44.22,44.22,0,0,1-.95,6.26,2.51,2.51,0,0,1-2.51,2c-2,.06-3.4,1.88-4.76,3.37-.34.37-1.25.75-1.51.57-2.41-1.68-4.07-.08-6.09,1.2,1.27,1.14.52,3.58,3.07,3.72.26,0,.6,1.7.6,2.62,0,2.32,2.73,4.83,4.92,4.38s3,.52,3.15,2.67a25.6,25.6,0,0,0,1.15,4.58c-2.37.84-2.37.84-3.54,3.71a.44.44,0,0,1-.08.2c-1.69,2.09-3.68,4.14-.75,6.76.08.07-.19.59-.35.87s-.42.41-.49.66c-.52,1.79,3,6.74,4.8,7.36a30.7,30.7,0,0,1,5.75,2.9c2.63,1.57,5.19,2.46,8.15.75a14.33,14.33,0,0,1,3.55-.95c.62,1.26,1.43,2.73,2.06,4.26.15.34-.23,1-.48,1.38a58.82,58.82,0,0,1-4.32,6.1c-1.74,2.13-1.2,3.43-.33,5.09L403.82,340l-1.09-.76-2.68,3.68c-1.92-2.11-3.14.36-4.3,1s-1.41,2.6-2.11,4.07c-1.51-.44-4.08.79-4.87,2.8-1.28,3.19-2.84,4.06-5.82,3.37-1.08,1.87-2.12,3.68-3.16,5.47l1.65.5c-.79,1.74-1.52,3.36-2.38,5.24-1.23-1.57-2.14-2.6-3.29-.49-.19.35-1.22.23-1.86.35-1.55.3-3,.69-2.48,3.19a6.12,6.12,0,0,0-1.79-1.05,10.37,10.37,0,0,0-3.76-.11c-.32.07-.3,1.7-.49,2.94l-2.13-.13.75-1.51c-.49-.17-1-.39-1.48-.51-1.55-.36-3.11-.68-4.26-.92-.54.86-1,2.28-1.61,2.4-.91.16-2-.66-3.15-1.12l1-1.27c-1.22-1-2.37-1.93-3.54-2.86a.76.76,0,0,0-.61-.16,2.64,2.64,0,0,1-3.68-.89c-.49-.6-2.35-.2-3.58-.09-2.11.18-2.34-1-2.06-2.62a8.83,8.83,0,0,0,.27-1.75c-.1-1.92-.94-2-2.73-1.58a24.54,24.54,0,0,1-6.37.36c-.34,0-.79-.82-1-1.34-1-2.26-2-2.65-4.3-1.52.09.89.19,1.78.28,2.71-2.54-.14-4.95-.18-7.35-.44-2.85-.31-1.17-2.13-1-3.51l1.55.53-1.16-1.58a3,3,0,0,0,.22-4.3c-2.34-2.35-3,.72-4.29,1.92l-1.36-1.06-.35.24,1.91,3.08a4,4,0,0,1-1.66.6,59.37,59.37,0,0,1-6.91-.77,2.42,2.42,0,0,1-1.56-1.57c-.33-2.3-1.69-2.66-3.63-2.41a17.44,17.44,0,0,1-2.17,0c-.44,2.42-6.47,7.07-9.3,7.14.57-1,1.15-1.91,1.73-2.86l-.56-.4L287,356.34l.45.43,2.47-1.43c-1.5,1.91-2.2,4.2-5.5,4.7-2.31.34-4.35,3-6.32,4.85-.86.82-1.21,2.17-1.89,3.22-.2.31-.73.42-.92.51-.26,1.46-.59,3-.79,4.53a9.36,9.36,0,0,1-2.39,5,1.8,1.8,0,0,0,.2,1.64c.37.49,1.52.67,1.58,1.09a10.63,10.63,0,0,1,0,4.17,9,9,0,0,0,1.68,6.62,23.81,23.81,0,0,1,2.3,3.39c-2,.54-3.82,1.58-4.73-1.15-2.82.13-5.47.34-7.46,2.52-.18.2-.68.14-1,.12-2-.14-2.84.91-2.86,2.56-1.6.38-3.13.84-4.69,1.05-.52.07-1.18-.43-1.68-.8-.87-.66-1.6-1.5-2.49-2.11-2.7-1.84-4.78-1.71-7.61.38-2.54,1.87-3.73,1.38-5.26-1.35-.64-1.15-2.27-1.87-3.6-2.45-.88-.38-2-.17-3.5-.25a14.58,14.58,0,0,1,.72-3c.87-1.77.4-2.59-1.56-2.74-1.09-.08-2.14-.74-3.22-.8a6.56,6.56,0,0,0-2.71.64c-.44.19-.71.77-1.25,1.39a11.35,11.35,0,0,1-.79-1.63c-.92-3.4-3-3.86-6.09-3.53-.56.06-1.6-.15-1.66-.42-.68-2.72-3.31-2.09-5-3a16.39,16.39,0,0,0-2.78-.7c-1.65-.51-3.25-1.17-4.92-1.59-.34-.09-1.29.63-1.25.83.32,1.51-1.37,3.08.18,4.56.27.27.11,1,.16,1.71l-9.77-.49-.05-.73-2,1.87c-1.38-3.48-3.83-2-6-1.49-3.83.88-3.6,1.26-6.26-2-1.24-1.53-3.29-2.45-5.08-3.44-.4-.22-1.26.48-1.93.66a26.57,26.57,0,0,1-3,.66,24.79,24.79,0,0,1-2.83,0,62.21,62.21,0,0,1-4.86-3.9c-.57-.54-.51-1.74-.78-2.82-3.69,1.35-6.65-.36-9.72-1.7-1.93-.85-4-1.38-5.91-2.27-.58-.27-.84-1.23-1.48-2.25,0,.06-.34.48-.6.91-.42.67-.81,1.35-1.21,2-.84-.6-1.68-1.2-2.51-1.81-.1-.07-.11-.26.36-.24.66-1.93,1.43-3.83,1.91-5.81.14-.58-.47-1.87-.88-1.94-1.31-.21-3-.5-4,.16-1.5,1.06-1.87.35-2.5-.69a8.59,8.59,0,0,0-1.23-1.58c-1.05-1-2.15-2-3.52-3.25a8.94,8.94,0,0,1,1.44-.54,7.68,7.68,0,0,0,7.16-5.74c.91-3.41,1.52-6.91,2.23-10.38,1.37-6.71,2.87-13.39,4-20.14.67-3.94.59-8,1.15-12a23.66,23.66,0,0,1,1.92-5.52c.09-.21.9-.16,1.37-.17,1,0,2,0,3.73,0l-4.14-5.22c-1.16,2.58-2.06,4.59-3,6.59l-.34,0c.29-3.24.53-6.49.87-9.73.94-8.95,1.86-17.9,2.95-26.83a11.86,11.86,0,0,1,2.2-4.66c-.05,4.27,3.84,5.16,6,7.17,2.56,2.38,3.22,5.09,3.75,8.15a20.3,20.3,0,0,0,1.19,5.13c1,2.14,1.86,4.92,5.25,3.62a4.3,4.3,0,0,0-.84-.33,3.86,3.86,0,0,1-3.39-4c-.09-1.85-.15-3.7-.28-5.54a16.31,16.31,0,0,0-6.65-12.62c-2.85-2.11-5.47-4.52-8.25-6.72-.42-.33-1.17-.26-2-.41.08-1.11.17-2.4.27-3.85,1.83-.18,3.16-.71,2.8-3.09-.11-.68,1.16-1.57,2.06-2.69l-1.19-3.84c1.22-.21,2.41-.45,1.12-2.16-.59-.79-.92-1.77-1.53-2.54a27.49,27.49,0,0,0-2.29-2.29l-.9,0a43.39,43.39,0,0,0,3.08-3.72,8.39,8.39,0,0,0,.73-2.51c-2.36-1.5-3.23-.56-3.43,1.7-2.25-1.52-3.57-4.68-7-2.8-.12-.8-.2-1.29-.26-1.78-.18-1.52-.85-2.67-2.54-2.36-2,.37-3.15-.86-4.56-1.73-.93-.58-1.95-1-2.72-1.41-1-2.52-1.79-5.23-3.2-7.53a26.82,26.82,0,0,0-5.17-5.89c-1.84-1.61-2.41-3.22-1.42-5.42l0,0a13.65,13.65,0,0,0,3.46-5.09c.82-1.88-.5-3-1.82-3.61a36.48,36.48,0,0,0-5.2-1.7c.92-.68,2.15-1.13,2.42-1.9s-.3-2.09-.34-3.16a1.38,1.38,0,0,1,.85-1c2.5-.29,5-1.24,7.47.32.16.1.51-.12.78-.18l.09-.59c-1.85-.33-3.7-.67-5.56-1a9.2,9.2,0,0,0-1.88-.17,2.7,2.7,0,0,0-1.55.4c-1.18,1-2.24,2.16-3.19,3.11-1.81-.14-2.23-4.1-4.58-1.07l-3.47-1.8.23-.49,2.62.8.26-.41-3.32-3.59,3.14-2.4c-1.42-1-2.16-2.23-.22-3.81a9.93,9.93,0,0,0-6.28.47c-1,.37-2.17,0-3.16.36-1.54.5-2.11-.25-2.74-1.42-.31-.57-1.08-.88-1.65-1.31l.38-.68,1.64.37,3.4.52.87-2.06a16,16,0,0,0-2-1C99,169.08,97.78,168.19,97.64,170.11ZM333.25,353.89c1.85.06,3.76.13,4-2.12-1.13-.32-2.81-.43-2.92-.9-.39-1.76-1.64-1.36-3.4-1.83C331.83,350.91,332.48,352.26,333.25,353.89ZM147.89,282.74l.83.11c2-2.12,2.14-4.88,0-6.74Zm-1.56,27.79.69.19,3.43-3.13-3.25-1.09Zm-.27,5.58,3.52-1.7-3.37-1.75C146.15,314,146.11,315,146.06,316.11Zm127.82,54.18c-.25-1.84-.47-3.36-.68-4.88l-.68.11C272.84,367,270.94,368.87,273.88,370.29Z" transform="translate(-40.11 -4.62)" fill="#68e1fd" opacity="0.78" style="isolation:isolate"/><g id="qv8HC1"><path d="M455.43,337c2.27-.25,3.39.37,3.53,2.56.09,1.52.71,3,.87,4.52a5.56,5.56,0,0,1-.42,2.76c-1.11,2.56-1.49,4.9.25,7.48s1.58,5.84,1.39,8.92a11.24,11.24,0,0,0-.12,1.52,62.64,62.64,0,0,0,.65,6.72,7.47,7.47,0,0,1-2.15,6.81c-2.66,2.91-2.33,6.46-2.39,10a20.65,20.65,0,0,1-.75,5.66c-.22.74-1.61,1.13-2.69,1.83l2.29.38c-.86,1.33-1.65,2.41-2.28,3.57s-1,2.35-1.57,3.59l.91-.08.44.44c-.74.71-1.44,2-2.21,2-1,.06-2-.85-3.19-1.4.69-1.66-.6-2.06-1.8-2.66a58.82,58.82,0,0,1-6.48-3.55c-1.69-1.14-1.38-2.85.37-3.92a27.55,27.55,0,0,0,2.47-1.94l-4.73-1.51.1-.23-2.73-.3,2.78-3.67c-.62-1.1,2.61-2.8,0-4.18-2.76,1.52-3.59,1.3-5.06-1.5h1.42a32.58,32.58,0,0,1,2-2.81,1.64,1.64,0,0,0-.39-2.67c-2.73-.54-3.66-2.18-3.78-4.68,0-.31-.38-.6-.71-1.07l4.16-1.44-2.34-2.57.37-.36-1.65-.33c.3-.47.55-1,.89-1.4,1.05-1.33,2.79-2.31,2.16-4.48-.08-.27.18-.69.37-1,.53-.81,1.11-1.59,1.67-2.37l-.38-.53,2.35.44c1.07-2.24,3.05-2.93,5.4-3.16a3.57,3.57,0,0,0,2.32-1.27c2.14-3,4.08-3.24,6.59-.58.09.1.27.11.51.2a4,4,0,0,0,1.09-4.33c-.63-2.09-.7-3.94.81-5.71.27-.32,0-1.1-.05-1.66S455.53,337.74,455.43,337Z" transform="translate(-40.11 -4.62)" fill="#68e1fd"/><path d="M145.56,251.18c.22-3.4-2.06-4.86-3.94-6.76-.91-.92-.73-2.9-1.11-4.7a7.26,7.26,0,0,1,1.38.44c1.05.59,2.07,1.25,3.1,1.89a1.67,1.67,0,0,1,.2.08C147.17,243.38,147.64,249,145.56,251.18Z" transform="translate(-40.11 -4.62)" fill="#68e1fd"/><path d="M85.94,179.55A26,26,0,0,1,88.82,181a24,24,0,0,1,2.4,2.16c-.51,1-3.18,1.64-4.58.43-.91-.79-1-2.51-1.51-3.81Z" transform="translate(-40.11 -4.62)" fill="#68e1fd"/><path d="M138.6,232.12c2.18-.69,6,1.07,6.53,3.36-.88-.24-1.61-.46-2.34-.65-1.63-.41-2.83-2.11-4.91-1.45-.42.14-1.32-1.24-2-1.92l.27-.66a21.19,21.19,0,0,1,2.39.06A7.13,7.13,0,0,1,138.6,232.12Z" transform="translate(-40.11 -4.62)" fill="#68e1fd"/><path d="M119.16,201.39a7.2,7.2,0,0,1-1.39-.6,7.12,7.12,0,0,1-2-1.62,23,23,0,0,1-1.61-3.33c1.67-.17,2.9-.57,3.13,1.69.14,1.35,1.17,2.6,1.82,3.89Z" transform="translate(-40.11 -4.62)" fill="#68e1fd"/><path d="M97.64,170.11c.14-1.92,1.31-1,2.17-.75a16,16,0,0,1,2,1l-.87,2.06-3.4-.52Z" transform="translate(-40.11 -4.62)" fill="#68e1fd"/><path d="M290,355.34l-2.47,1.43-.45-.43L291.3,352l.56.4c-.58.95-1.16,1.9-1.73,2.86Z" transform="translate(-40.11 -4.62)" fill="#68e1fd"/><path d="M114.68,211.35c-.91-1-3.47.8-3-2.58l3.31,2.06Z" transform="translate(-40.11 -4.62)" fill="#68e1fd"/><path d="M46.43,135.73l5.11-2.92.3.57-2.05,2.38c1.55.89,2.78,1.4,3.3,0l3.42,1.93c-1.76-.75-3.52,1.35-5.35,0a1.23,1.23,0,0,0-1.06-.11c-1.71.77-2.72.43-2.84-1.6a6,6,0,0,0-.63,0Z" transform="translate(-40.11 -4.62)" fill="#68e1fd"/><path d="M333.25,353.89c-.77-1.63-1.42-3-2.3-4.85,1.76.47,3,.07,3.4,1.83.11.47,1.79.58,2.92.9C337,354,335.1,354,333.25,353.89Z" transform="translate(-40.11 -4.62)" fill="#68e1fd"/><path d="M147.89,282.74l.8-6.63c2.17,1.86,2,4.62,0,6.74Z" transform="translate(-40.11 -4.62)" fill="#68e1fd"/><path d="M146.33,310.53l.87-4,3.25,1.09L147,310.72Z" transform="translate(-40.11 -4.62)" fill="#68e1fd"/><path d="M146.06,316.11c.05-1.14.09-2.09.15-3.45l3.37,1.75Z" transform="translate(-40.11 -4.62)" fill="#68e1fd"/><path d="M273.88,370.29c-2.94-1.42-1-3.27-1.36-4.77l.68-.11C273.41,366.93,273.63,368.45,273.88,370.29Z" transform="translate(-40.11 -4.62)" fill="#68e1fd"/></g><path d="M377.62,394c-3.09-7.16-10.24-23.76-17.26-40.37h5.43V343H355.9c-6-14.25-11.15-26.93-12.67-31.59l3.31-1.49v-5.33H341c-5.72-12-9.48-125.38-10.34-154.19l3.93-3.71h-3a8,8,0,0,0,.09-1.1c0-2.94-1.7-5.37-3.92-5.83,0-.75-.05-1.59-.08-2.51a1.34,1.34,0,0,0-.09-2.38c0-.4,0-.81,0-1.23a1.51,1.51,0,0,0,.93-1.39,1.47,1.47,0,0,0-1-1.41c0-.33,0-.65,0-1a1.08,1.08,0,0,0-.08-2c-.1-2.77-.22-5.6-.34-8.19-.12,2.59-.24,5.42-.35,8.19a1.08,1.08,0,0,0-.07,2c0,.33,0,.65,0,1a1.48,1.48,0,0,0-1,1.41,1.51,1.51,0,0,0,.93,1.39c0,.42,0,.83,0,1.23a1.34,1.34,0,0,0-.08,2.38c0,.92-.06,1.76-.09,2.51-2.22.46-3.91,2.89-3.91,5.83a8,8,0,0,0,.08,1.1h-3l3.94,3.71c-.87,28.8-4.63,142.22-10.35,154.19h-5.52v5.33l3.32,1.49c-1.53,4.66-6.7,17.34-12.67,31.59h-9.89v10.59h5.43c-7,16.61-14.17,33.21-17.26,40.37h-3.78v6h22.8v-6h-1.23c1-1.85,2.11-4.08,3.26-6.62,13-19.53,29.54-18.21,29.54-18.21s16.56-1.32,29.54,18.21c1.15,2.54,2.24,4.77,3.26,6.62h-1.24v6H381.4v-6ZM345,305.76h.65v3H345Zm-1.68,0h.8v3h-.8Zm-34.42,3h-.52v-3h.52Zm1.67,0h-.8v-3h.8ZM291,351.23h-1v-5.89h1Zm3.33,0h-1.59v-5.89h1.59Zm3.33,0H296.1v-5.89h1.59Zm51.72-5.89H351v5.89h-1.6Zm-3.33,0h1.59v5.89h-1.59Zm-3.33,0h1.59v5.89h-1.59Zm-1.1-39.58h.8v3h-.8Zm-1.68,0h.81v3H340Zm1,39.58v5.89h-1.59v-5.89Zm-2.71-39.58h.8v3h-.8Zm-1.68,0h.8v3h-.8Zm-1.68,0h.8v3h-.8Zm-1.67,0h.8v3h-.8Zm-1.68,0h.8v3h-.8Zm-.88,0v3h-.8v-3ZM327,302.18h-1.35S326.82,290,327,280.71c.21,9.3,1.35,21.47,1.35,21.47Zm.32,3.58v3h-.79v-3Zm.88,0H329v3h-.81Zm-2.55,0v3h-.8v-3Zm-2.48,0h.8v3h-.8Zm-1.68,0h.81v3h-.81Zm-1.67,0h.8v3h-.8Zm-1.68,0h.8v3h-.8Zm-1.68,0h.8v3h-.8Zm-1.68,0h.8v3h-.8Zm10.39,4.15h3.66c.81,2.58,5.29,16.74,10.89,33.08H314.31C319.91,326.65,324.38,312.49,325.2,309.91Zm12.48,35.43v5.89h-1.6v-5.89Zm-3.34,0v5.89h-1.58v-5.89Zm-3.33,0v5.89h-1.59v-5.89Zm-3.33,0v5.89h-1.59v-5.89Zm-3.33,0v5.89h-1.59v-5.89Zm-3.33,0v5.89h-1.59v-5.89Zm-3.33,0v5.89h-1.6v-5.89Zm-4.55-39.58h.8v3h-.8Zm-.38,39.58h1.59v5.89h-1.59Zm-1.3-39.58h.8v3h-.8Zm-2,39.58H311v5.89h-1.59Zm-3.33,0h1.59v5.89H306.1Zm-3.34,0h1.59v5.89h-1.59Zm-3.33,0H301v5.89h-1.59Zm1.59,32,4.21-10.23h12.06S309.22,369.15,301,377.3Zm6.49-13.44v-1.17h39v1.17Zm29.25,3.21h12.07L353,377.3C344.84,369.15,336.76,367.07,336.76,367.07Zm17.57-15.84h-1.59v-5.89h1.59Zm8.41-5.89h1.31v5.89h-1.31Zm-5.07,5.89h-1.59v-5.89h1.59Zm1.74,0v-5.89H361v5.89Z" transform="translate(-40.11 -4.62)" fill="#68e1fd"/><path d="M377.08,394c-3.09-7.16-10.23-23.76-17.26-40.37h5.43V343h-9.89c-6-14.25-11.14-26.93-12.67-31.59l3.31-1.49v-5.33h-5.51c-5.72-12-9.48-125.38-10.35-154.19l3.94-3.71h-3a8,8,0,0,0,.08-1.1c0-2.94-1.69-5.37-3.91-5.83,0-.75-.06-1.59-.09-2.51a1.34,1.34,0,0,0-.08-2.38c0-.4,0-.81,0-1.23a1.51,1.51,0,0,0,.93-1.39,1.48,1.48,0,0,0-1-1.41c0-.33,0-.65,0-1a1.08,1.08,0,0,0-.08-2c-.11-2.77-.23-5.6-.34-8.19-.13,2.59-.25,5.42-.35,8.19a1.07,1.07,0,0,0-.75,1,1.09,1.09,0,0,0,.67,1c0,.33,0,.65,0,1a1.48,1.48,0,0,0-1,1.41,1.51,1.51,0,0,0,.94,1.39c0,.42,0,.83,0,1.23a1.34,1.34,0,0,0-.08,2.38c0,.92-.06,1.76-.09,2.51-2.22.46-3.91,2.89-3.91,5.83a8,8,0,0,0,.08,1.1h-3l3.93,3.71c-.86,28.8-4.62,142.22-10.34,154.19H307v5.33l3.31,1.49c-1.52,4.66-6.69,17.34-12.67,31.59h-9.89v10.59h5.43c-7,16.61-14.17,33.21-17.25,40.37h-3.79v6h22.81v-6h-1.24c1-1.85,2.11-4.08,3.27-6.62,13-19.53,29.54-18.21,29.54-18.21s16.56-1.32,29.53,18.21c1.16,2.54,2.25,4.77,3.26,6.62h-1.23v6h22.8v-6Zm-32.6-88.19h.65v3h-.65Zm-1.68,0h.79v3h-.79Zm-34.43,3h-.51v-3h.51Zm1.68,0h-.8v-3h.8Zm-19.56,42.51h-1v-5.89h1Zm3.33,0h-1.58v-5.89h1.58Zm3.34,0h-1.59v-5.89h1.59Zm51.72-5.89h1.59v5.89h-1.59Zm-3.33,0h1.59v5.89h-1.59Zm-3.33,0h1.58v5.89h-1.58Zm-1.1-39.58h.8v3h-.8Zm-1.68,0h.8v3h-.8Zm1,39.58v5.89h-1.59v-5.89Zm-2.71-39.58h.8v3h-.8Zm-1.68,0h.8v3h-.8Zm-1.67,0h.8v3h-.8Zm-1.68,0h.8v3h-.8Zm-1.68,0h.8v3h-.8Zm-.87,0v3h-.81v-3Zm-3.68-3.58h-1.36s1.14-12.17,1.36-21.47c.21,9.3,1.35,21.47,1.35,21.47Zm.32,3.58v3H326v-3Zm.88,0h.8v3h-.8Zm-2.56,0v3h-.8v-3Zm-2.47,0h.8v3h-.8Zm-1.68,0h.8v3H321Zm-1.68,0h.8v3h-.8Zm-1.68,0h.81v3h-.81Zm-1.67,0h.8v3H316Zm-1.68,0h.8v3h-.8Zm10.38,4.15h3.67c.81,2.58,5.28,16.74,10.88,33.08H313.77C319.37,326.65,323.85,312.49,324.66,309.91Zm12.48,35.43v5.89h-1.59v-5.89Zm-3.33,0v5.89h-1.59v-5.89Zm-3.33,0v5.89h-1.59v-5.89Zm-3.33,0v5.89h-1.59v-5.89Zm-3.34,0v5.89h-1.59v-5.89Zm-3.33,0v5.89h-1.59v-5.89Zm-3.33,0v5.89h-1.6v-5.89Zm-4.55-39.58h.81v3h-.81Zm-.37,39.58h1.59v5.89h-1.59Zm-1.31-39.58h.81v3h-.81Zm-2,39.58h1.58v5.89H308.9Zm-3.34,0h1.59v5.89h-1.59Zm-3.33,0h1.59v5.89h-1.59Zm-3.33,0h1.59v5.89H298.9Zm1.59,32,4.2-10.23h12.07S308.68,369.15,300.49,377.3ZM307,363.86v-1.17h39v1.17Zm29.25,3.21h12.06l4.21,10.23C344.3,369.15,336.23,367.07,336.23,367.07Zm17.57-15.84h-1.59v-5.89h1.59Zm8.41-5.89h1.3v5.89h-1.3Zm-5.07,5.89h-1.59v-5.89h1.59Zm1.74,0v-5.89h1.59v5.89Z" transform="translate(-40.11 -4.62)" fill="url(#linear-gradient)"/><rect x="86.06" y="256.66" width="116.91" height="25.67" fill="#68e1fd"/><rect x="86.06" y="256.66" width="116.91" height="25.67" fill="url(#linear-gradient-2)"/><path d="M184.63,292h-49V399.12h22.49V336.73c0-24,26.47-23.61,26.47-23.61s26.46-.41,26.46,23.61v62.39h22.49V292Z" transform="translate(-40.11 -4.62)" fill="#68e1fd"/><path d="M184.63,282.47H126.17v53.47H153c0-28.68,31.6-28.19,31.6-28.19s31.59-.49,31.59,28.19h26.86V282.47Z" transform="translate(-40.11 -4.62)" fill="#68e1fd"/><path d="M184.63,282.47H126.17v53.47H153c0-28.68,31.6-28.19,31.6-28.19s31.59-.49,31.59,28.19h26.86V282.47Z" transform="translate(-40.11 -4.62)" fill="url(#linear-gradient-3)"/><rect x="86.06" y="292.41" width="116.91" height="3.18" fill="#68e1fd"/><rect x="86.06" y="291.02" width="116.91" height="1.58" fill="#68e1fd"/><rect x="83.69" y="261.07" width="121.39" height="9.41" fill="#68e1fd"/><polygon points="205.08 263.64 144.51 263.64 83.95 263.64 77.63 267.32 144.51 270.48 211.4 267.32 205.08 263.64" fill="#68e1fd"/><polygon points="144.51 267.32 77.63 267.32 86.06 280.49 144.51 280.49 202.97 280.49 211.4 267.32 144.51 267.32" fill="#68e1fd"/><polygon points="144.51 267.32 77.63 267.32 86.06 280.49 144.51 280.49 202.97 280.49 211.4 267.32 144.51 267.32" fill="url(#linear-gradient-4)"/><rect x="86.06" y="331.33" width="26.86" height="63.18" fill="#68e1fd"/><rect x="176.11" y="331.33" width="26.86" height="63.18" fill="#68e1fd"/><rect x="86.06" y="331.33" width="26.86" height="63.18" fill="url(#linear-gradient-5)"/><rect x="176.11" y="331.33" width="26.86" height="63.18" fill="url(#linear-gradient-6)"/><rect x="90.01" y="336.59" width="18.17" height="52.38" fill="#68e1fd"/><rect x="91.89" y="339.13" width="14.4" height="47.13" fill="#68e1fd"/><rect x="90.01" y="302.08" width="18.17" height="24.2" fill="#68e1fd"/><rect x="91.89" y="304.59" width="14.4" height="19.18" fill="#68e1fd"/><rect x="180.85" y="302.08" width="18.17" height="24.2" fill="#68e1fd"/><rect x="180.85" y="336.59" width="18.17" height="52.38" fill="#68e1fd"/><rect x="84.21" y="330.89" width="29.76" height="1.74" fill="#68e1fd"/><rect x="84.21" y="330.02" width="29.76" height="1.74" fill="#68e1fd"/><rect x="175.05" y="330.89" width="29.76" height="1.74" fill="#68e1fd"/><rect x="175.05" y="330.02" width="29.76" height="1.74" fill="#68e1fd"/><rect x="182.73" y="304.59" width="14.4" height="19.18" fill="#68e1fd"/><rect x="182.73" y="339.13" width="14.4" height="47.13" fill="#68e1fd"/></svg>