<svg id="Layer_1" data-name="Layer 1" xmlns="http://www.w3.org/2000/svg" xmlns:xlink="http://www.w3.org/1999/xlink" viewBox="0 0 496.87 399.98"><defs><linearGradient id="linear-gradient" x1="242.66" y1="216.52" x2="238.48" y2="273.19" gradientUnits="userSpaceOnUse"><stop offset="0" stop-color="#010101" stop-opacity="0"/><stop offset="0.95" stop-color="#010101"/></linearGradient><linearGradient id="linear-gradient-2" x1="293.09" y1="220.24" x2="288.92" y2="276.9" xlink:href="#linear-gradient"/><linearGradient id="linear-gradient-3" x1="278" y1="228.45" x2="263.62" y2="228.45" xlink:href="#linear-gradient"/><linearGradient id="linear-gradient-4" x1="250.45" y1="228.28" x2="280.1" y2="228.82" xlink:href="#linear-gradient"/><linearGradient id="linear-gradient-5" x1="253.34" y1="202.1" x2="276.95" y2="220.33" xlink:href="#linear-gradient"/><linearGradient id="linear-gradient-6" x1="280.35" y1="204.64" x2="254" y2="216.94" xlink:href="#linear-gradient"/><linearGradient id="linear-gradient-7" x1="147.35" y1="316.31" x2="149.69" y2="358.04" xlink:href="#linear-gradient"/><linearGradient id="linear-gradient-8" x1="45.57" y1="291.98" x2="50.84" y2="462.41" xlink:href="#linear-gradient"/><linearGradient id="linear-gradient-9" x1="71.44" y1="291.18" x2="76.71" y2="461.61" xlink:href="#linear-gradient"/><linearGradient id="linear-gradient-10" x1="97.31" y1="290.38" x2="102.58" y2="460.81" xlink:href="#linear-gradient"/><linearGradient id="linear-gradient-11" x1="123.19" y1="289.58" x2="128.46" y2="460.01" xlink:href="#linear-gradient"/><linearGradient id="linear-gradient-12" x1="87.24" y1="301.24" x2="83.29" y2="369.32" xlink:href="#linear-gradient"/><linearGradient id="linear-gradient-13" x1="443.2" y1="279.19" x2="455.49" y2="518.14" xlink:href="#linear-gradient"/><linearGradient id="linear-gradient-14" x1="417.37" y1="280.52" x2="429.66" y2="519.47" xlink:href="#linear-gradient"/><linearGradient id="linear-gradient-15" x1="391.54" y1="281.85" x2="403.84" y2="520.8" xlink:href="#linear-gradient"/><linearGradient id="linear-gradient-16" x1="365.7" y1="283.18" x2="378" y2="522.13" xlink:href="#linear-gradient"/><linearGradient id="linear-gradient-17" x1="237.32" y1="286.46" x2="272.46" y2="175.18" xlink:href="#linear-gradient"/><linearGradient id="linear-gradient-18" x1="244.47" y1="306.18" x2="256.77" y2="194.91" xlink:href="#linear-gradient"/><linearGradient id="linear-gradient-19" x1="169.31" y1="376.02" x2="169.31" y2="209.11" xlink:href="#linear-gradient"/><linearGradient id="linear-gradient-20" x1="200.46" y1="376.02" x2="200.46" y2="209.11" xlink:href="#linear-gradient"/><linearGradient id="linear-gradient-21" x1="231.61" y1="376.02" x2="231.61" y2="209.11" xlink:href="#linear-gradient"/><linearGradient id="linear-gradient-22" x1="325.43" y1="376.02" x2="325.43" y2="209.11" xlink:href="#linear-gradient"/><linearGradient id="linear-gradient-23" x1="294.28" y1="376.02" x2="294.28" y2="209.11" xlink:href="#linear-gradient"/><linearGradient id="linear-gradient-24" x1="263.12" y1="376.02" x2="263.12" y2="209.11" xlink:href="#linear-gradient"/><linearGradient id="linear-gradient-25" x1="244.65" y1="231.19" x2="251.68" y2="263.69" xlink:href="#linear-gradient"/><linearGradient id="linear-gradient-26" x1="84.78" y1="331.72" x2="104.11" y2="230.69" xlink:href="#linear-gradient"/><linearGradient id="linear-gradient-27" x1="403.38" y1="331.72" x2="422.7" y2="230.69" xlink:href="#linear-gradient"/><linearGradient id="linear-gradient-28" x1="268.52" y1="199.7" x2="265.67" y2="255.71" xlink:href="#linear-gradient"/></defs><title>Germany</title><path d="M135.2,163l1.31-.84c-.13.53-.25,1-.35,1.37C135.85,163.37,135.51,163.21,135.2,163Z" transform="translate(-20.08 -0.68)" fill="#68e1fd" opacity="0.43" style="isolation:isolate"/><path d="M150,158.81c-.94,1.22-1.75,2.81-3.84,1.53-.47-.28-1.69.12-2.25.59-2.15,1.78-4.33,2.84-6.77.88,3.84-2.44,7.61-4.9,11.33-7.31.22.22.47.41.68.63C150.27,156.16,151.2,157.28,150,158.81Z" transform="translate(-20.08 -0.68)" fill="#68e1fd" opacity="0.43" style="isolation:isolate"/><g id="VaARhh"><path d="M136.73,161.46a6.78,6.78,0,0,1-.22.72l.62-.37A4.17,4.17,0,0,1,136.73,161.46Zm-8,.59c-1.25.19-2.37.29-3.47.5s-2,.57-3.09.88c.16,1.31.35,2.84.57,4.58.59.16,1.37.41,2.27.66,0,.12-.06.28-.09.4.53-.28,1.06-.56,1.59-.87,3-1.68,5.9-3.43,8.74-5.18-2.19-1.18-4.34-2.34-6.84-3.71C128.52,160.68,128.61,161.34,128.68,162.05Z" transform="translate(-20.08 -0.68)" fill="#68e1fd" opacity="0.6"/><path d="M493.19,219c-12.23-13.14-28.61-21.5-44.62-29.61-15.44-7.8-31.07-15.67-46.92-23-.59-.72-1.16-1.46-1.66-2.21a2,2,0,0,1,.29-1.88,8.59,8.59,0,0,0,2.46-7.76,4.13,4.13,0,0,1,.44-2c.56-1.37.78-2.53-.85-3.43a2.41,2.41,0,0,1-.81-1.72c0-1.34.32-2.71.16-4-.09-.88-.66-2.28-1.22-2.37-3.62-.75-3.71-3.9-4.49-6.46a2.91,2.91,0,0,1,1.37-3.68c.56-.35.53-1.81.63-2.75,0-.56-.44-1.22-.28-1.72.59-2.24-.85-3.18-2.34-4.24s-3-2.59-4.59-3.84c-2.15-1.71-4.12-3.83-6.55-4.93-1.87-.84-2.44-1.31-1.87-3.34.4-1.4.09-3,.15-4.55,0-.22.38-.47.63-.62a25.6,25.6,0,0,0,2.65-1.56c2.46-2.1,3.15-4.84,2.93-8a4.19,4.19,0,0,1,.62-3c1.69-1.56.53-3,.25-4.55-.18-1.09-.56-2.12-.84-3.21-.59-2.1-1.12-4.25-1.71-6.34s-1.35-4.4-2.09-6.58c-.54-1.53-1.25-3-1.94-4.65l.41-2.15c-3.62,2.37-9.18-.44-12.89-3.84.84-.34,1.81-.69,2.72-1,0,.28-.07.65-.07.65,2.72-.71,5.46-1.43,8.46-2.24-.1-.78.12-2.28-.5-2.87-2.65-2.62-5-5.62-8.67-7.12-1.22-.5-2.13-1.74-3.16-2.68-.56-.56-1.09-1.18-1.62-1.78-.44.66-.9,1.31-1.46,2.16-.35-.47-.78-1.07-1.1-1.47l-7.45,3.09c-.91-.91-1.22-3.22-3.78-3-.06-3.65-3.31-3.84-5.62-4.8-1.06-.47-1.56-.69-1.71-1.81a15.23,15.23,0,0,0-1-3.93,11.86,11.86,0,0,0-2.15-2.44l-2.5.85c0-.13-.09-.29-.12-.41.4-.25.84-.47,1.56-.91-4.93,0-9.58,1-14.07-1.43a14.15,14.15,0,0,1-.75,1.37,79.13,79.13,0,0,1-5.59,8.52c-1.87,2.25-5,3.46-5.33,7-.22-.47-.41-1-.66-1.47l-5.43,1.25a34.65,34.65,0,0,1-3.52.66c-1,.09-2.28-.44-3,0a44.17,44.17,0,0,0-5.43,4.3c-.4.35-.5,1.09-.78,1.75,1-.56,1.81-1,2.59-1.4a5.88,5.88,0,0,0,.44.43c-.84,1.13-1.65,2.19-2.5,3.31v0c-.56,1.41-1.12,2.87-1.68,4.28l-3.25-2.53L291.67,59c-2.16-3.87-4.31-6.27-11.2-2.18L277,55.75c-.12-.43-.21-1-.4-1.59-.75-2.24-.16-3,2.15-3.18A4.82,4.82,0,0,0,281,49.73c1-.84,1.78-1.84,2.65-2.74s2.15-1.53,2.34-2.47a10.63,10.63,0,0,0-.5-4.52c-.37-1.25-.78-2.25.62-3.12.35-.19.28-1,.41-1.5-1.34.25-2.59.94-3.37.56-2-.9-3.37.1-4.4,1.22-1.62,1.78-3.46,2.65-5.74,2.15-.56-.18-1.12-.37-1.69-.53a3.39,3.39,0,0,1,.5-.34c-.37-.59-.62-1.44-1.15-1.75a46.88,46.88,0,0,0-5-2.56c-3.56-1.59-3.56-1.59-6.68,1.06-.09.07-.22.07-.56.13.09-1.06.19-2,.28-3.06-3.18-3.74-7.05.66-11-.5,2.37-1.15,4.9-1.4,5.49-4a48.4,48.4,0,0,0,.68-5.68,5.21,5.21,0,0,0,0-2.12c-.43-1.22-1.18-2.34-1.65-3.56-.65-1.65-1.34-1.81-2.84-.81-.53.34-2.06.34-2.21.06-1-2.06-2.66-2.37-4.65-2.49a7,7,0,0,1-2.22-.85l.6-2.46-4.68,3.71c-.69-.59-1.16-1.06-1.63-1.46-2.34,1.71-3.46,1.56-5.3-.57-.22-.28-.5-.71-.78-.71a24.53,24.53,0,0,1-5.62-1.35c-3-.81-6.36.07-9.33-1.49-.25-.1-.71.15-1,.34-1.87,1.12-2.21,3-.93,5,.56.84,1.5,1.65,1.62,2.56a4.64,4.64,0,0,0,2.18,3.37c2.25,1.78,2.66,3.43,1.35,5.18l1.93-.59c.91,1.46,1.59,2.77,2.47,3.93,1.62,2.09,1.18,2.84-.57,4.71-2.12,2.24-4.64,1.09-7,1.59-2.53.53-4.09,1.87-4,4.62a3.69,3.69,0,0,0,1,1.87c1.16,1.37,2.22-.06,3.34-.16,2.06-.15,4.15,0,6.77,0l-3.68,2.12c-2.09,4.93-1.47,5.93,4.37,5.74.31,1.78.62,3.62,1,5.84L216.66,53c1.41,2.71,2.47,4.86,3.62,6.95a1.81,1.81,0,0,0,1.22.88c1.56.12,3.15,0,4.71.09,3.09.25,6.21.69,7.64,4a14.2,14.2,0,0,0,3.75,5.64,8.48,8.48,0,0,1,1.78,3.09c.15.41-.13,1-.25,2-2.31-4-4.22-7.33-6.15-10.67-1.37-2.34-6-3.62-8.58-2.75a53.31,53.31,0,0,1-6.33,1.44c-2.87.59-4.25-1.53-5.78-3.53-.81.53-1.74.81-2.09,1.44-1.21,2.24-2.27,4.55-3.27,6.89-.53,1.22-1.34,2.59-1.16,3.72.38,2,1.5,3.9,2.19,5.86a12.6,12.6,0,0,1,.28,2.47,14.27,14.27,0,0,0-1.75-2.22,37.77,37.77,0,0,0-4.8-3.15c-.6-.31-2.1-.25-2.31.12a26.31,26.31,0,0,0-1.56,4.31c1.15.13,1.74.16,2.34.22.09.72.5,1.56.28,2.18a31.07,31.07,0,0,1-1.87,3.62c-.85-.59-1.66-1.21-2.53-1.74a12.75,12.75,0,0,0-1.94-.91,4.52,4.52,0,0,0-.46.34c-.29-1.15-.6-2.31-1-3.83,1,.34,1.53.68,2,.62a2.23,2.23,0,0,0,1.38-.9,1.65,1.65,0,0,0-.07-1.47,14.92,14.92,0,0,1-4.18-8.49,21,21,0,0,0-4.58-.37c-3.22.4-6.4,1.09-9.58,1.65a5.47,5.47,0,0,1-2,.13c-4.71-1-8.83-.35-12.07,3.62-.85,1-1.19,1.52-.07,2.52.57.5.66,1.5.94,2.25-.22.09-.41.22-.59.31-1.41-1.4-2.41-.78-2.94.63a12.85,12.85,0,0,0-.9,4.11c0,3.34.22,3.4,3.62,3.72,1.5.15,3,.31,4.05.4-.49,1.34-.93,2.47-1.37,3.59a17.79,17.79,0,0,0-1.28,9.36c.35,2.12,1,4.34-.75,6.24-3.55,4-4.21,9-4.77,14-.06.62-.91,1.65-1.4,1.68a39.87,39.87,0,0,1-6.18-.43c-1.91-.28-3.31.84-3,2.65a7.46,7.46,0,0,0,.94,2l-2,.19a6,6,0,0,1,.25,1.5c-.09,2.59,1.09,3.84,3.62,4.06a21.23,21.23,0,0,1,3.87,1,8.16,8.16,0,0,1,.69-.53,13.91,13.91,0,0,1,2.4,1.8,3.13,3.13,0,0,1,.59,2,37.61,37.61,0,0,1-.59,5.27,4.17,4.17,0,0,1-1.31,2.16c-1.28,1.15-3,1.93-4.06,3.24a4.57,4.57,0,0,1-2.28,1.53c-1.49.62-2.62,2.15-3.83,3.37-.1.06.25.69.5.94a9.47,9.47,0,0,0,.81.74c.22.22.47.41.68.63,1.13,1,2.06,2.15.85,3.68-.94,1.22-1.75,2.81-3.84,1.53-.47-.28-1.69.12-2.25.59-2.15,1.78-4.33,2.84-6.77.88l-.62.37c-.13.53-.25,1-.35,1.37-.31-.18-.65-.34-1-.53-2.84,1.75-5.74,3.5-8.74,5.18-.53.31-1.06.59-1.59.87-23.43,13.14-49.08,24.81-65.55,46.87-7.74,10.33-12.89,22.31-17.76,34.22-14.13,34.76-26.67,72.42-19.31,109.21,1.78,8.89,4.84,17.78,10.86,24.55C45.37,397.65,66,399,84.43,399.36q193.48,3.61,387-2.77c4.56-.16,9.36-.38,13.29-2.75,5.09-3.09,7.52-9.08,9.64-14.69,9.89-26.4,19.88-53.23,22.19-81.34S512.41,239.65,493.19,219ZM370.54,50.67c-.12.75-.22,1.34-.31,1.9a4.5,4.5,0,0,0,.44.22c.62-.9,1.21-1.81,1.9-2.81,2.22.22,3.4,1.87,3.15,5.18A10.63,10.63,0,0,0,374,53.85a10.77,10.77,0,0,0-2.09-.62c0,.62,0,1.25.09,1.87a11.13,11.13,0,0,0,.47,1.62c-1.69-1.9-3.12-3.59-4.5-5.11Zm-32-17.85a1.2,1.2,0,0,1,.94,2.09,9.39,9.39,0,0,1-2,1.5c-.12-.94-.22-1.59-.28-1.87-1.12-.1-2-.19-2.78-.25a5.08,5.08,0,0,0,0-.69A33.17,33.17,0,0,1,338.53,32.82Zm-12.82,4.37c1.18-2.34,1.15-2.37,3.65-1.87-.1.44,0,1-.28,1.25-1,1-2.13,1.87-3,3-.37.44-.19,1.31-.28,2.28-.59-.66-1.28-1.41-1.9-2.12A19.25,19.25,0,0,0,325.71,37.19ZM206.21,83.8c.12,2.31.25,4.65.37,7l-.46,0c-.19-2.34-.38-4.64-.6-7C205.77,83.84,206,83.8,206.21,83.8Z" transform="translate(-20.08 -0.68)" fill="#68e1fd" opacity="0.4" style="isolation:isolate"/><path d="M298.3,55.66l2.52-3.32-.46-.44-2.59,1.38c.29-.66.39-1.38.8-1.74a44.47,44.47,0,0,1,5.42-4.3c.71-.46,2,.07,3,0a30.32,30.32,0,0,0,3.52-.67c1.77-.38,3.53-.81,5.44-1.24l.66,1.47c.33-3.53,3.45-4.76,5.31-7a83.51,83.51,0,0,0,5.61-8.52c.31-.48.55-1,.74-1.37,4.5,2.44,9.13,1.41,14.07,1.44l-1.56.89.13.42,2.5-.84a11.73,11.73,0,0,1,2.13,2.44,14.06,14.06,0,0,1,1,3.91c.15,1.14.66,1.35,1.71,1.8,2.31,1,5.58,1.18,5.64,4.81,2.55-.19,2.86,2.1,3.76,3l7.46-3.07,1.1,1.47L367.67,44c.54.59,1.05,1.23,1.64,1.78,1,.94,1.92,2.19,3.14,2.68,3.65,1.49,6,4.49,8.68,7.1.62.62.38,2.1.5,2.88l-8.48,2.27.07-.66-2.71,1c3.73,3.43,9.26,6.24,12.88,3.85L383,67.06c.69,1.63,1.4,3.11,1.94,4.64.76,2.17,1.44,4.37,2.08,6.58s1.15,4.23,1.72,6.35c.29,1.06.67,2.11.86,3.19.28,1.51,1.44,3-.25,4.56-.61.57-.71,2-.64,3,.24,3.15-.45,5.9-2.93,8a22.47,22.47,0,0,1-2.64,1.58c-.25.15-.62.4-.63.62-.07,1.53.24,3.15-.16,4.57-.57,2,0,2.49,1.88,3.34,2.43,1.08,4.41,3.19,6.55,4.9,1.55,1.25,3,2.68,4.58,3.84s2.94,2,2.33,4.25c-.13.5.34,1.15.29,1.71-.09,1-.07,2.41-.63,2.75a3,3,0,0,0-1.36,3.7c.78,2.56.88,5.68,4.5,6.43.56.12,1.12,1.52,1.21,2.37.15,1.33-.2,2.7-.15,4a2.27,2.27,0,0,0,.81,1.7c1.61.91,1.41,2.07.84,3.46a3.94,3.94,0,0,0-.43,2,8.63,8.63,0,0,1-2.46,7.75,2,2,0,0,0-.3,1.9c1.48,2.2,3.44,4.13,4.62,6.47.68,1.36.16,3.3.23,5,0,.8-.13,2,.31,2.33a16.24,16.24,0,0,0,5.37,2.6,3.46,3.46,0,0,1,2.15,2.21c.29,2.63.78,5,2.57,7.12.64.75.49,2.42.27,3.59-.83,4.38-1.81,8.75-2.81,13.1a12.15,12.15,0,0,1-1.09,2.42c-.57,1.23-1.18,2.44-1.7,3.69-.71,1.71-2.16,2.11-3.47.91-.22-.2-.46-.47-.72-.51-2.49-.34-2.65-1.56-.83-3.71l-3.18.57v-2.79l-3.65-2.64a3,3,0,0,1-4-.94c-.13-.17-1.52.17-1.61.49a7.19,7.19,0,0,0-.29,3.15,2.08,2.08,0,0,0,1.55,1.15c2,.12,2.14,1.46,2.2,3.21-1.37.21-2.73.38-4.07.63a1.68,1.68,0,0,0-1.1.54c-1.62,2.82-4.24,3.58-7.24,4a3.63,3.63,0,0,0-3.37,3c-.1.53-1.18,1-1.89,1.25a23.69,23.69,0,0,1-2.81.57c-.49.11-1,.55-1.43.47-2.76-.55-4.8.18-5.93,2.94a15.63,15.63,0,0,1-1.33,2.13c-2.45-1.25-4.17-.58-4.66,2.53-2.49-1.4-3,.69-3.67,1.93a3.67,3.67,0,0,1-2.86,2.33A6.73,6.73,0,0,0,352,236.4a2.6,2.6,0,0,1-3.54.87,4,4,0,0,0-4.93.88,2.11,2.11,0,0,1-1.59.55c-3.38-.71-5.31.79-7.34,3.47-1.82,2.42-3.77,4.5-4.05,7.68,0,.37-.76.79-1.25,1-.15.05-.73-.6-.84-1-.42-1.59-.45-3.38-2.7-3.68-.29,0-.4-.94-.74-1.29a5.62,5.62,0,0,0-1.31-.76,8.87,8.87,0,0,0-.48,1.16c-.11.41,0,.93-.2,1.25-1,1.41-.28,2.31.94,2.89a3.66,3.66,0,0,1,2.22,3.81,2.36,2.36,0,0,0,.71,1.7c2.26,1.85,4.63,3.58,6.92,5.41a2.57,2.57,0,0,1,.76,1.34c.29,1.25.83,2,2.27,2,.37,0,1.12.95,1,1.21a42.8,42.8,0,0,1-1.86,3.94c-.18.37-.55.84-.45,1.11.49,1.29-.09,1.89-1.13,2.53a2.08,2.08,0,0,0-.86,1.76,3.16,3.16,0,0,0,1.62,1.83,8.1,8.1,0,0,1,4.72,6.14,5.31,5.31,0,0,0,1.69,2.57c.09,2.28.73,4.25,3.14,5.31a2,2,0,0,1,1,.9c.94,2.08,2.17,2.64,4.61,2.13,2.15-.45,3.79,1.55,4.87,3.36.88,1.46,1.26,3,3.35,3.58,1,.27,1.57,2.09,2.33,3.2.2.3.39.85.61.86,4.14.14,5.53,3.3,7.22,6.29a15.05,15.05,0,0,0,2.75,2.95l3.63-1.68a43,43,0,0,0,3.07,3.86c1.12,1.13,2.79,1.83,3.64,3.11.69,1,.51,2.64.71,4,.15,1.05.3,2.11.46,3.17a6.89,6.89,0,0,1,.18,1.41c-.15,1.55-.38,3.1-.48,3.91l-2.78,3.49-6.71-3c-3.48,1.23-2.85,4.58-2.7,7.14.22,3.67-3.3,8.16-7.64,8.48-2.95.23-6,.93-7.49,4.14-.15.32-.49.84-.67.81-3.69-.6-3.81,3.62-6.26,4.73a3.6,3.6,0,0,0,.43,2.58c2.17,2.69,4.56,5.2,6.82,7.81a3.86,3.86,0,0,1,.43,5,8.48,8.48,0,0,0-.8,1.85c-1.16,3.47-1.14,3.4,2.5,2.82a2.8,2.8,0,0,1,2.32,1.21,9.32,9.32,0,0,1,.74,3.95c0,.71-.93,1.36-1.16,2.12a15.68,15.68,0,0,0-.45,3.07,15.47,15.47,0,0,0,0,1.67c-6.31-.44-8-3.36-9.61-9.76a21.07,21.07,0,0,1-3.55.18c-1.4-.16-2,.51-2.91,1.44-.56.58-2.3.42-3.3,0-.85-.33-1.39-1.45-1.84-2l-5.91.32-.6-2-2.26,2c.24.55.58,1.2.81,1.88.16.51.45,1.31.23,1.55a2.88,2.88,0,0,1-1.86.9c-1.52,0-3-.35-4.56-.37s-3.15-.31-4.17.38c-2.31,1.56-4.77.83-7.15,1.16-1.95.27-3.86.48-4.3,3.12-.09.57-1.7,1.14-2.67,1.27-1.54.21-3.2-.15-4.24,1.71l2,1.59c-2.84.95-4.89,3.18-8.15,2.49l1-2.07-9.59,2.49c-.23-2.82-.56-5-3.77-4.88l1-2c-1-.07-2-.46-2.51-.13-1.95,1.18-3.52.28-5-.72-1.82-1.23-3.28-1.47-4.35.83l-2.73-1,.13-2.06L269,385c-.37.47-1.06.95-1,1.41.06,1.84.36,3.67.54,5.51.06.63.32,1.46,0,1.85a43,43,0,0,1-5.12,6.24c-.76.69-2.54.28-4.25.41l1.29-4.67c-.85.26-1.24.41-1.65.5-1,.21-2,.39-3,.58a8,8,0,0,0-.16-2.7,15.89,15.89,0,0,0-2.07-3.09c-.4-.55-1.21-1-1.3-1.55-.26-1.53-1.06-1.92-2.38-1.47-1.5.51-2.44.39-3.15-1.34s-1.91-1.6-3.17.52l-2.75.23c-.78-1-1.49-2.67-3.74-2-.4.12-1.56-1-1.75-1.76-.55-2.11-2.08-2.62-3.82-2.45-2.3.24-3.74-1-5.25-2.36-2.18-2-4.46-3.89-6.69-5.83l-.6.76a36.75,36.75,0,0,0,3.9,2.86c1.78,1,1.77,2.66,2.37,4.12l-.49.52-8.1-4.24-.29.4c.5.58,1,1.15,1.58,1.8a17.17,17.17,0,0,1-1.85,1.39c-.73.41-1.54.7-2.31,1.05a16,16,0,0,0-.82-2.29,9.82,9.82,0,0,0-1.45-2.06c-.15-.17-1,0-1,0-.05.74,0,1.48,0,2.42a1.42,1.42,0,0,1-2.09-1.48c.25-2.28-.8-3.32-2.92-4l-1.07,2-.45-3.08c-1.84.19-6.47,4-6.78,5.54s1.59,2.67,3.53,2.4c1-.14,2-.15,3-.22-.19,1.21-.34,2.41-.56,3.61a7.53,7.53,0,0,1-.4,1.22c-2.37,0-4.59.1-6.8,0-1.17-.07-2.43,0-3.12-1.67-.25-.61-2.33-.92-3.35-.62-1.76.53-3.3,1.76-5,2.49a43.89,43.89,0,0,1-4.5,1.38c-1.26-3.08-2.8-3.32-5-1.15-2,2-3.94,1.81-5.23-.68l1.34-.61c.36-.17.7-.36,1.58-.82-1.78-.12-3.27.22-4-.38s-1.21-2.16-1.58-3.35a14,14,0,0,1-.58-3.41,10.34,10.34,0,0,1,.25-3.33c.77-2.7,1.76-5.34,2.55-8a3.57,3.57,0,0,0,.05-2.43c-2.38-4.29-1.47-8,1.62-11.5.65-.73.79-1.89,1.26-2.8s1.12-1.73,1.55-2.66a11.73,11.73,0,0,0,.52-2c.67-2.44,1.34-4.89,2-7.32.26-.92.89-1.85.8-2.72-.26-2.69,1.11-4.21,3.09-5.67,1.16-.85,1.85-2.31,2.87-3.37s2.26-2,3.38-3a6.64,6.64,0,0,0,1.68-1.71c1.1-2.25,2-4.58,3.13-7.09-1.57-.6-3.38-1.28-5.17-2a5.56,5.56,0,0,1-2-.95c-1-1-1.87-1.72-3.21-.63a.49.49,0,0,1-.43.09c-1.86-1.19-3.94-.28-5.88-.63a9.46,9.46,0,0,1-6.12-3.8,7.58,7.58,0,0,0-1.36-1.1l.66-1.48c-1-1.26-2.07-1.39-3.59-.78a2.77,2.77,0,0,1-2.56-.73c-.45-.91-.63-2.76-.1-3.2,2.17-1.78,1.42-3.74.5-5.46a9.64,9.64,0,0,1-.94-8.16,2,2,0,0,0-.29-1.4c-.71-1.4-4-2.84-5.79-3-1.24-.11-2.5-1.26-3.62-1.08-2.22.35-4.84-1-6.69,1.6-.66.95-2.31,1.33-3.58,1.7-3.3,1-6.65,1.56-10,0a7,7,0,0,0-1.57-.2c.3-1.28.2-2.83.92-3.55,1.77-1.76,1.56-4.71,4.13-6.06.78-.41.63-2.59.88-3.81l-7.8-4.27c-.26-.14-.64-.23-.76-.45a58.21,58.21,0,0,1-3.13-6.21,18,18,0,0,1-.61-4.39c-.39-3.73,1.84-6.48,3.57-9.4.1-.16.42-.16.61-.27,1.07-.59,2.13-1.2,3.2-1.81l-.28-.71,1.59.29c.26-1.8.85-3.54.62-5.16-.15-1.06-1.42-2-2.33-2.89-.44-.42-1.3-.35-1.84-.7-2.81-1.82-2.74-4.11.45-6.26-.76-.16-1.4-.12-1.75-.42a3.85,3.85,0,0,1-1-1.63c-.15-.43.2-1.1,0-1.43a52.2,52.2,0,0,0-3.44-4.75c-1.31-1.56-1.25-2.62.27-3.92a4.29,4.29,0,0,0,1.07-2c.74-2.56-1.7-3.92-2.45-5.93-.12-.33-1.86-.05-3.38-.05a28.84,28.84,0,0,1,.08-3,16.24,16.24,0,0,1,1.82,0c1.37-.94,3.33-1.67,4.25-3.08s3.64-1.64,2.7-4.33l-2.21,1.16c0-1.24-.37-2.48.08-3.24a54.08,54.08,0,0,1,4-5.37c.17-.22.55-.28.72-.51.43-.58.09-8.33-.34-8.94a32.67,32.67,0,0,1-2.14-3.13,6,6,0,0,1-.21-1.89c-.09-.59-.11-1.6-.4-1.69-2-.61-1.88-2-1.45-3.61L122.7,168l-.58-4.59c1.12-.32,2.09-.66,3.09-.87s2.21-.32,3.48-.5l-.33-2.73,7.79,4.24.59-2.11c2.62,2.46,4.89,1.36,7.17-.53.56-.46,1.76-.85,2.23-.57,2.11,1.26,2.91-.33,3.86-1.54,1.19-1.52.27-2.65-.86-3.68-.5-.46-1-.88-1.49-1.38-.25-.26-.59-.85-.51-.92,1.22-1.21,2.34-2.75,3.83-3.39a4.58,4.58,0,0,0,2.3-1.51c1-1.33,2.76-2.1,4-3.26a4.18,4.18,0,0,0,1.31-2.15,35.85,35.85,0,0,0,.59-5.28,3,3,0,0,0-.59-2,14.44,14.44,0,0,0-2.4-1.8l-.7.53a22,22,0,0,0-3.85-1c-2.52-.19-3.72-1.43-3.62-4a9.7,9.7,0,0,0-.24-1.5l2-.2a9.2,9.2,0,0,1-.94-2c-.34-1.81,1.09-2.93,3-2.65A38.7,38.7,0,0,0,158,123c.5,0,1.34-1,1.41-1.66.57-5,1.2-10,4.77-14,1.71-1.92,1.08-4.12.75-6.25a17.78,17.78,0,0,1,1.29-9.37l1.36-3.57c-1.05-.1-2.55-.27-4.05-.41-3.41-.3-3.59-.37-3.61-3.71a11.77,11.77,0,0,1,.9-4.11c.53-1.42,1.54-2,2.91-.63l.61-.32c-.3-.76-.38-1.75-.92-2.23-1.13-1-.8-1.54,0-2.55,3.26-3.94,7.37-4.65,12.08-3.61a5.43,5.43,0,0,0,2-.12c3.19-.56,6.36-1.26,9.57-1.66a22.54,22.54,0,0,1,4.6.37,14.88,14.88,0,0,0,4.17,8.49,1.56,1.56,0,0,1,.06,1.47,2.19,2.19,0,0,1-1.37.89c-.44.07-1-.28-2-.62l1,3.84.48-.35a18.9,18.9,0,0,1,1.93.91c.87.53,1.68,1.16,2.52,1.75A27.62,27.62,0,0,0,200.43,82c.22-.61-.17-1.44-.29-2.17l-2.33-.21a25.2,25.2,0,0,1,1.58-4.32c.22-.38,1.69-.45,2.31-.12a36.59,36.59,0,0,1,4.78,3.16,12.52,12.52,0,0,1,1.76,2.21A11.13,11.13,0,0,0,208,78c-.69-2-1.79-3.85-2.17-5.87-.2-1.13.62-2.51,1.14-3.7,1-2.34,2.07-4.68,3.28-6.92.34-.61,1.29-.9,2.1-1.43,1.52,2,2.9,4.12,5.78,3.51a49.24,49.24,0,0,0,6.31-1.4c2.56-.9,7.23.39,8.59,2.72,1.94,3.34,3.85,6.71,6.14,10.69.14-1.07.41-1.65.24-2a8.22,8.22,0,0,0-1.76-3.09,14.13,14.13,0,0,1-3.75-5.65c-1.42-3.3-4.54-3.75-7.64-4-1.57-.11-3.16,0-4.72-.11a1.81,1.81,0,0,1-1.22-.86c-1.15-2.1-2.22-4.25-3.61-7l5.88,1.1-1-5.83c-5.84.19-6.44-.81-4.36-5.74l3.69-2.13c-2.64,0-4.72-.11-6.79,0-1.12.08-2.18,1.5-3.33.13a3.68,3.68,0,0,1-1-1.86c-.14-2.74,1.43-4.1,4-4.63,2.29-.49,4.83.68,7-1.59,1.74-1.86,2.17-2.62.56-4.71-.89-1.15-1.56-2.46-2.47-3.92l-1.95.58c1.32-1.73.92-3.38-1.32-5.16a4.78,4.78,0,0,1-2.2-3.39c-.1-.9-1.05-1.71-1.61-2.56-1.29-1.92-.94-3.83.93-4.94.31-.18.8-.46,1-.34,3,1.56,6.37.68,9.35,1.48a25.23,25.23,0,0,0,5.61,1.34c.27,0,.55.46.78.73,1.83,2.12,3,2.26,5.29.55l1.62,1.49,4.7-3.72-.61,2.46a8,8,0,0,0,2.22.85c2,.1,3.7.42,4.67,2.5.13.28,1.66.28,2.21-.09,1.48-1,2.18-.83,2.83.84.47,1.21,1.23,2.31,1.67,3.54a5.13,5.13,0,0,1,0,2.1,49.19,49.19,0,0,1-.7,5.71c-.57,2.58-3.12,2.84-5.47,4,3.92,1.15,7.78-3.27,11,.51l-.29,3c.34-.08.49-.06.57-.13,3.12-2.64,3.13-2.66,6.68-1a53.12,53.12,0,0,1,5,2.54c.54.33.77,1.15,1.15,1.75l-.5.34,1.68.53c2.27.52,4.11-.37,5.74-2.14,1.05-1.13,2.43-2.12,4.4-1.22.78.36,2-.3,3.38-.55-.11.46-.06,1.29-.4,1.5-1.4.88-1,1.85-.64,3.1a10.36,10.36,0,0,1,.49,4.52c-.17.94-1.51,1.65-2.32,2.48S282,48.89,281,49.72A4.53,4.53,0,0,1,278.79,51c-2.31.19-2.9,1-2.17,3.2.18.56.29,1.15.4,1.58l3.44,1.1c6.89-4.1,9.06-1.69,11.2,2.19l1.73-1.62,3.25,2.51,1.7-4.34Zm74.2,1.06a14.27,14.27,0,0,1-.45-1.63c-.08-.62-.07-1.25-.1-1.87a12.15,12.15,0,0,1,2.1.63,10.59,10.59,0,0,1,1.67,1.32c.24-3.33-1-5-3.16-5.17l-1.89,2.81-.45-.25c.09-.56.18-1.13.31-1.9l-2.5.93Zm-48.59-17,1.89,2.11c.09-1-.09-1.84.28-2.29.87-1.09,2-1.94,3-3,.24-.26.19-.8.28-1.22-2.5-.5-2.46-.48-3.64,1.86A20.39,20.39,0,0,1,323.91,39.7Zm13.61-3.29a12,12,0,0,0,2-1.48,1.22,1.22,0,0,0-1-2.11,35.91,35.91,0,0,0-4.09.77v.69l2.79.27ZM206.13,90.82l.47,0c-.13-2.34-.25-4.67-.38-7l-.69.06Z" transform="translate(-20.08 -0.68)" fill="#68e1fd" opacity="0.42"/><path d="M361.83,32.38c2.77-1.27,3,2,4.5,2.5-.31,1.56-.58,2.94-.89,4.51l-2.38-1.81,1.49-.56c-.32-.47-.34-.56-.39-.57-1.26-.3-2.65-1.07-3.74-.75-1.75.51-3.29,1.73-4.92,2.65l.7.58v2.68a7.48,7.48,0,0,1-2.25-.24c-.44-.19-.65-.93-.74-1.09l-5.5-1.39c-.3-1.43-.61-2.92-.88-4.19l3.78-1.08L348,31.53c.82-2.21.82-2.21-.67-5.73,1.32-.23,3.29.27,2.72-2.35l-2.37,1.91c1-2.31,1.36-4.48,2.63-5.62s3.44-1.18,4.91-1.61a27.93,27.93,0,0,0-.08,4.7c.06.4,1.33.86,2.05.88a9.77,9.77,0,0,0,3.06-.55c1.28-.41,2.38-.45,3.1.86s.18,2.25-1,3C360.29,28.43,360.15,30.17,361.83,32.38Zm-8.3-9.07,0-.79-2.79,2.6.35.42,2.58-1.45-.11,2.13.38,0c0-.37,0-.75.05-1.13.8.62.9,1.61,1.45,2.09a7.09,7.09,0,0,0,2.46.85l.41-3.22-.76.54Z" transform="translate(-20.08 -0.68)" fill="#68e1fd"/><path d="M284.42,27.66c5.15.83,6.62,2.16,7.73,6.8-1.59.18-3.25-1-4.81.17-.15.12-1.24-.47-1.26-.78-.21-2.36-1.36-1.54-2.59-.76C282.11,30.9,284.23,29.5,284.42,27.66Z" transform="translate(-20.08 -0.68)" fill="#68e1fd"/><path d="M207.84,9.79C205.81,12,204,12,202.22,9c-.27,3-.47,5.12-.67,7.29l-1-.11a76.49,76.49,0,0,1,1-8,29.61,29.61,0,0,1,2.44-6,3,3,0,0,1,2-1.43c-.16.56-.27,1.13-.48,1.66s-.53.92-.77,1.4A5.12,5.12,0,0,0,204,5.61C204,8.81,204,8.81,207.84,9.79Z" transform="translate(-20.08 -0.68)" fill="#68e1fd"/><path d="M207.74,15.28c1,.66,2.27,1.07,2.58,1.87a2.82,2.82,0,0,1-1,2.6,3.74,3.74,0,0,1-3-.27,11.54,11.54,0,0,1-2.45-2.35Z" transform="translate(-20.08 -0.68)" fill="#68e1fd"/><path d="M214,26.86c-.49.93-.78,2.18-1.55,2.69-.48.31-1.7-.5-2.59-.81A5.64,5.64,0,0,1,211,27.13a10.65,10.65,0,0,1,2.34-.92Z" transform="translate(-20.08 -0.68)" fill="#68e1fd"/><path d="M202.93,18.46l1.42,4.24-1.71.39-1.81-3Z" transform="translate(-20.08 -0.68)" fill="#68e1fd"/><path d="M298.34,55.59,297,57.44l-3-1.1,3-2.47c.42.6.83,1.2,1.25,1.79Z" transform="translate(-20.08 -0.68)" fill="#68e1fd"/><path d="M151.72,75.61l-3-1.33c1.52-1,2.28-2.73,4-1.31Z" transform="translate(-20.08 -0.68)" fill="#68e1fd"/><path d="M170.69,68.64l-5.88.43c1.69-2.42,3.86-.86,5.77-1.3Z" transform="translate(-20.08 -0.68)" fill="#68e1fd"/><path d="M347.25,22.91l-2,6.62-.62-.14,1.58-6.73Z" transform="translate(-20.08 -0.68)" fill="#68e1fd"/><path d="M156.52,69.64l6.28-.3,0,.82-6.25.29Z" transform="translate(-20.08 -0.68)" fill="#68e1fd"/><path d="M179.32,66.85l-4.64.66C175.22,65.87,177.65,65.44,179.32,66.85Z" transform="translate(-20.08 -0.68)" fill="#68e1fd"/><path d="M372.5,56.72,368,51.59l2.5-.93c-.13.77-.22,1.34-.31,1.9l.45.25L372.56,50c2.21.19,3.4,1.84,3.16,5.17a10.59,10.59,0,0,0-1.67-1.32,12.15,12.15,0,0,0-2.1-.63c0,.62,0,1.25.1,1.87A14.27,14.27,0,0,0,372.5,56.72Z" transform="translate(-20.08 -0.68)" fill="#68e1fd"/><path d="M323.91,39.7a20.39,20.39,0,0,0,1.8-2.51c1.18-2.34,1.14-2.36,3.64-1.86-.09.42,0,1-.28,1.22-1,1-2.12,1.88-3,3-.37.45-.19,1.34-.28,2.29Z" transform="translate(-20.08 -0.68)" fill="#68e1fd"/><path d="M337.52,36.41l-.29-1.86-2.79-.27v-.69a35.91,35.91,0,0,1,4.09-.77,1.22,1.22,0,0,1,1,2.11A12,12,0,0,1,337.52,36.41Z" transform="translate(-20.08 -0.68)" fill="#68e1fd"/><path d="M206.13,90.82l-.6-7,.69-.06c.13,2.34.25,4.67.38,7Z" transform="translate(-20.08 -0.68)" fill="#68e1fd"/><path d="M353.53,23.31l4,2.08.76-.54-.41,3.22a7.09,7.09,0,0,1-2.46-.85c-.55-.48-.65-1.47-1.45-2.09,0,.38,0,.76-.05,1.13l-.38,0,.11-2.13-2.58,1.45-.35-.42,2.79-2.6Z" transform="translate(-20.08 -0.68)" fill="#68e1fd"/></g><path d="M246.18,235.58a4.08,4.08,0,0,1-4.09,4.09h0a4.09,4.09,0,0,1-4.1-4.09V212.9a4.09,4.09,0,0,1,4.1-4.08h0a4.07,4.07,0,0,1,4.09,4.08Z" transform="translate(-20.08 -0.68)" fill="#68e1fd"/><path d="M250,239.05a1.89,1.89,0,0,1-1.89,1.89h0a1.89,1.89,0,0,1-1.89-1.89V226.13a1.89,1.89,0,0,1,1.89-1.89h0a1.89,1.89,0,0,1,1.89,1.89Z" transform="translate(-20.08 -0.68)" fill="#68e1fd"/><path d="M288.71,235.58a4.08,4.08,0,0,0,4.09,4.09h0a4.08,4.08,0,0,0,4.09-4.09V212.9a4.08,4.08,0,0,0-4.09-4.08h0a4.08,4.08,0,0,0-4.09,4.08Z" transform="translate(-20.08 -0.68)" fill="#68e1fd"/><path d="M284.92,239.05a1.9,1.9,0,0,0,1.9,1.89h0a1.89,1.89,0,0,0,1.89-1.89V226.13a1.89,1.89,0,0,0-1.89-1.89h0a1.9,1.9,0,0,0-1.9,1.89Z" transform="translate(-20.08 -0.68)" fill="#68e1fd"/><path d="M271.13,234.7c0,2.75-1.65,5-3.68,5h0c-2,0-3.68-2.22-3.68-5V206.86c0-2.75,1.65-5,3.68-5h0c2,0,3.68,2.23,3.68,5Z" transform="translate(-20.08 -0.68)" fill="#68e1fd"/><path d="M269.69,236.33a5.2,5.2,0,0,0,5.2,5.21h0a5.21,5.21,0,0,0,5.21-5.21V220.57a5.2,5.2,0,0,0-5.21-5.2h0a5.2,5.2,0,0,0-5.2,5.2Z" transform="translate(-20.08 -0.68)" fill="#68e1fd"/><path d="M265.2,236.33a5.2,5.2,0,0,1-5.2,5.21h0a5.21,5.21,0,0,1-5.21-5.21V220.57a5.2,5.2,0,0,1,5.21-5.2h0a5.2,5.2,0,0,1,5.2,5.2Z" transform="translate(-20.08 -0.68)" fill="#68e1fd"/><path d="M268.55,213.55s-13.18,4.69-17.11-13.63C251.44,199.92,264.4,197.32,268.55,213.55Z" transform="translate(-20.08 -0.68)" fill="#68e1fd"/><path d="M266.35,213.55s13.18,4.69,17.1-13.63C283.45,199.92,270.49,197.32,266.35,213.55Z" transform="translate(-20.08 -0.68)" fill="#68e1fd"/><rect x="127.46" y="319.18" width="40.84" height="13.12" fill="#68e1fd"/><rect x="135.8" y="328.96" width="5.72" height="64.39" fill="#68e1fd"/><rect x="149.19" y="328.96" width="5.72" height="64.39" fill="#68e1fd"/><rect x="326.44" y="319.18" width="40.84" height="13.12" fill="#68e1fd"/><rect x="353.23" y="328.96" width="5.72" height="64.39" fill="#68e1fd"/><rect x="339.83" y="328.96" width="5.72" height="64.39" fill="#68e1fd"/><rect x="42.08" y="308.8" width="10.96" height="20.76" fill="#68e1fd"/><rect x="43.59" y="322.65" width="7.96" height="67.81" fill="#68e1fd"/><rect x="67.98" y="308.8" width="10.96" height="20.76" fill="#68e1fd"/><rect x="69.48" y="322.65" width="7.96" height="67.81" fill="#68e1fd"/><rect x="93.87" y="308.8" width="10.97" height="20.76" fill="#68e1fd"/><rect x="95.37" y="322.65" width="7.96" height="67.81" fill="#68e1fd"/><rect x="119.77" y="308.8" width="10.97" height="20.76" fill="#68e1fd"/><rect x="121.28" y="322.65" width="7.96" height="67.81" fill="#68e1fd"/><rect x="50.86" y="308.8" width="71.1" height="13.66" fill="#68e1fd"/><rect x="441.7" y="308.8" width="10.96" height="20.76" fill="#68e1fd"/><rect x="443.2" y="322.65" width="7.96" height="67.81" fill="#68e1fd"/><rect x="415.8" y="308.8" width="10.97" height="20.76" fill="#68e1fd"/><rect x="417.3" y="322.65" width="7.96" height="67.81" fill="#68e1fd"/><rect x="389.89" y="308.8" width="10.97" height="20.76" fill="#68e1fd"/><rect x="391.4" y="322.65" width="7.96" height="67.81" fill="#68e1fd"/><rect x="363.99" y="308.8" width="10.97" height="20.76" fill="#68e1fd"/><rect x="365.5" y="322.65" width="7.96" height="67.81" fill="#68e1fd"/><rect x="372.78" y="308.8" width="71.11" height="13.66" fill="#68e1fd"/><rect x="162.57" y="328.96" width="5.72" height="64.39" fill="#68e1fd"/><polygon points="247.38 244.73 157.81 244.73 157.81 264.5 247.38 264.5 336.94 264.5 336.94 244.73 247.38 244.73" fill="#68e1fd"/><polygon points="247.38 264.5 149.19 264.5 153.02 274.38 247.38 274.38 341.71 274.38 345.55 264.5 247.38 264.5" fill="#68e1fd"/><polygon points="247.38 274.38 157.81 274.38 157.81 285.51 247.38 285.51 336.94 285.51 336.94 274.38 247.38 274.38" fill="#68e1fd"/><polygon points="247.38 285.51 153.54 285.51 153.54 291.07 247.38 291.07 341.2 291.07 341.2 285.51 247.38 285.51" fill="#68e1fd"/><rect x="161.64" y="291.07" width="15.33" height="103.2" fill="#68e1fd"/><rect x="192.8" y="291.07" width="15.32" height="103.2" fill="#68e1fd"/><rect x="223.95" y="291.07" width="15.33" height="103.2" fill="#68e1fd"/><rect x="317.77" y="291.07" width="15.33" height="103.2" fill="#68e1fd"/><rect x="286.62" y="291.07" width="15.32" height="103.2" fill="#68e1fd"/><rect x="255.46" y="291.07" width="15.33" height="103.2" fill="#68e1fd"/><rect x="202.02" y="240.52" width="90.7" height="6.48" fill="#68e1fd"/><rect x="207.06" y="236.93" width="80.62" height="3.6" fill="#68e1fd"/><polygon points="272.73 243.57 262.22 243.57 232.52 243.57 153.54 243.57 153.54 249.13 232.52 249.13 262.22 249.13 272.73 249.13 341.2 249.13 341.2 243.57 272.73 243.57" fill="#68e1fd"/><polygon points="253.09 390.46 241.65 390.46 34.4 390.46 34.4 396.24 241.65 396.24 253.09 396.24 460.35 396.24 460.35 390.46 253.09 390.46" fill="#68e1fd"/><polygon points="87.95 282.11 34.4 310.53 87.95 310.53 141.51 310.53 87.95 282.11" fill="#68e1fd"/><polygon points="406.79 282.11 460.35 310.53 406.79 310.53 353.23 310.53 406.79 282.11" fill="#68e1fd"/><polygon points="406.79 282.11 460.35 310.53 406.79 310.53 353.23 310.53 406.79 282.11" fill="#68e1fd"/><path d="M246.18,235.58a4.08,4.08,0,0,1-4.09,4.09h0a4.09,4.09,0,0,1-4.1-4.09V212.9a4.09,4.09,0,0,1,4.1-4.08h0a4.07,4.07,0,0,1,4.09,4.08Z" transform="translate(-20.08 -0.68)" fill="#68e1fd"/><path d="M250,239.05a1.89,1.89,0,0,1-1.89,1.89h0a1.89,1.89,0,0,1-1.89-1.89V226.13a1.89,1.89,0,0,1,1.89-1.89h0a1.89,1.89,0,0,1,1.89,1.89Z" transform="translate(-20.08 -0.68)" fill="#68e1fd"/><path d="M288.71,235.58a4.08,4.08,0,0,0,4.09,4.09h0a4.08,4.08,0,0,0,4.09-4.09V212.9a4.08,4.08,0,0,0-4.09-4.08h0a4.08,4.08,0,0,0-4.09,4.08Z" transform="translate(-20.08 -0.68)" fill="#68e1fd"/><path d="M246.18,235.58a4.08,4.08,0,0,1-4.09,4.09h0a4.09,4.09,0,0,1-4.1-4.09V212.9a4.09,4.09,0,0,1,4.1-4.08h0a4.07,4.07,0,0,1,4.09,4.08Z" transform="translate(-20.08 -0.68)" fill="url(#linear-gradient)"/><path d="M288.71,235.58a4.08,4.08,0,0,0,4.09,4.09h0a4.08,4.08,0,0,0,4.09-4.09V212.9a4.08,4.08,0,0,0-4.09-4.08h0a4.08,4.08,0,0,0-4.09,4.08Z" transform="translate(-20.08 -0.68)" fill="url(#linear-gradient-2)"/><path d="M284.92,239.05a1.9,1.9,0,0,0,1.9,1.89h0a1.89,1.89,0,0,0,1.89-1.89V226.13a1.89,1.89,0,0,0-1.89-1.89h0a1.9,1.9,0,0,0-1.9,1.89Z" transform="translate(-20.08 -0.68)" fill="#68e1fd"/><path d="M269.69,236.33a5.2,5.2,0,0,0,5.2,5.21h0a5.21,5.21,0,0,0,5.21-5.21V220.57a5.2,5.2,0,0,0-5.21-5.2h0a5.2,5.2,0,0,0-5.2,5.2Z" transform="translate(-20.08 -0.68)" fill="#68e1fd"/><path d="M265.2,236.33a5.2,5.2,0,0,1-5.2,5.21h0a5.21,5.21,0,0,1-5.21-5.21V220.57a5.2,5.2,0,0,1,5.21-5.2h0a5.2,5.2,0,0,1,5.2,5.2Z" transform="translate(-20.08 -0.68)" fill="#68e1fd"/><path d="M269.69,236.33a5.2,5.2,0,0,0,5.2,5.21h0a5.21,5.21,0,0,0,5.21-5.21V220.57a5.2,5.2,0,0,0-5.21-5.2h0a5.2,5.2,0,0,0-5.2,5.2Z" transform="translate(-20.08 -0.68)" fill="url(#linear-gradient-3)"/><path d="M265.2,236.33a5.2,5.2,0,0,1-5.2,5.21h0a5.21,5.21,0,0,1-5.21-5.21V220.57a5.2,5.2,0,0,1,5.21-5.2h0a5.2,5.2,0,0,1,5.2,5.2Z" transform="translate(-20.08 -0.68)" fill="url(#linear-gradient-4)"/><path d="M268.55,213.55s-13.18,4.69-17.11-13.63C251.44,199.92,264.4,197.32,268.55,213.55Z" transform="translate(-20.08 -0.68)" fill="#68e1fd"/><path d="M266.35,213.55s13.18,4.69,17.1-13.63C283.45,199.92,270.49,197.32,266.35,213.55Z" transform="translate(-20.08 -0.68)" fill="#68e1fd"/><path d="M268.55,213.55s-13.18,4.69-17.11-13.63C251.44,199.92,264.4,197.32,268.55,213.55Z" transform="translate(-20.08 -0.68)" fill="url(#linear-gradient-5)"/><path d="M266.35,213.55s13.18,4.69,17.1-13.63C283.45,199.92,270.49,197.32,266.35,213.55Z" transform="translate(-20.08 -0.68)" fill="url(#linear-gradient-6)"/><rect x="127.46" y="319.18" width="40.84" height="13.12" fill="#68e1fd"/><rect x="127.46" y="319.18" width="40.84" height="13.12" fill="url(#linear-gradient-7)"/><rect x="135.8" y="328.96" width="5.72" height="64.39" fill="#68e1fd"/><rect x="149.19" y="328.96" width="5.72" height="64.39" fill="#68e1fd"/><rect x="326.44" y="319.18" width="40.84" height="13.12" fill="#68e1fd"/><rect x="353.23" y="328.96" width="5.72" height="64.39" fill="#68e1fd"/><rect x="339.83" y="328.96" width="5.72" height="64.39" fill="#68e1fd"/><rect x="42.08" y="308.8" width="10.96" height="20.76" fill="#68e1fd"/><rect x="43.59" y="322.65" width="7.96" height="67.81" fill="#68e1fd"/><rect x="67.98" y="308.8" width="10.96" height="20.76" fill="#68e1fd"/><rect x="69.48" y="322.65" width="7.96" height="67.81" fill="#68e1fd"/><rect x="93.87" y="308.8" width="10.97" height="20.76" fill="#68e1fd"/><rect x="95.37" y="322.65" width="7.96" height="67.81" fill="#68e1fd"/><rect x="119.77" y="308.8" width="10.97" height="20.76" fill="#68e1fd"/><rect x="121.28" y="322.65" width="7.96" height="67.81" fill="#68e1fd"/><rect x="43.59" y="322.65" width="7.96" height="67.81" fill="url(#linear-gradient-8)"/><rect x="69.48" y="322.65" width="7.96" height="67.81" fill="url(#linear-gradient-9)"/><rect x="95.37" y="322.65" width="7.96" height="67.81" fill="url(#linear-gradient-10)"/><rect x="121.28" y="322.65" width="7.96" height="67.81" fill="url(#linear-gradient-11)"/><rect x="50.86" y="308.8" width="71.1" height="13.66" fill="#68e1fd"/><rect x="50.86" y="308.8" width="71.1" height="13.66" fill="url(#linear-gradient-12)"/><rect x="441.7" y="308.8" width="10.96" height="20.76" fill="#68e1fd"/><rect x="443.2" y="322.65" width="7.96" height="67.81" fill="#68e1fd"/><rect x="415.8" y="308.8" width="10.97" height="20.76" fill="#68e1fd"/><rect x="417.3" y="322.65" width="7.96" height="67.81" fill="#68e1fd"/><rect x="389.89" y="308.8" width="10.97" height="20.76" fill="#68e1fd"/><rect x="391.4" y="322.65" width="7.96" height="67.81" fill="#68e1fd"/><rect x="363.99" y="308.8" width="10.97" height="20.76" fill="#68e1fd"/><rect x="365.5" y="322.65" width="7.96" height="67.81" fill="#68e1fd"/><rect x="443.2" y="322.65" width="7.96" height="67.81" fill="url(#linear-gradient-13)"/><rect x="417.3" y="322.65" width="7.96" height="67.81" fill="url(#linear-gradient-14)"/><rect x="391.4" y="322.65" width="7.96" height="67.81" fill="url(#linear-gradient-15)"/><rect x="365.5" y="322.65" width="7.96" height="67.81" fill="url(#linear-gradient-16)"/><rect x="372.78" y="308.8" width="71.11" height="13.66" fill="#68e1fd"/><rect x="162.57" y="328.96" width="5.72" height="64.39" fill="#68e1fd"/><polygon points="247.38 244.73 157.81 244.73 157.81 264.5 247.38 264.5 336.94 264.5 336.94 244.73 247.38 244.73" fill="#68e1fd"/><polygon points="247.38 244.73 157.81 244.73 157.81 264.5 247.38 264.5 336.94 264.5 336.94 244.73 247.38 244.73" fill="url(#linear-gradient-17)"/><polygon points="247.38 264.5 149.19 264.5 153.02 274.38 247.38 274.38 341.71 274.38 345.55 264.5 247.38 264.5" fill="#68e1fd"/><polygon points="247.38 274.38 157.81 274.38 157.81 285.51 247.38 285.51 336.94 285.51 336.94 274.38 247.38 274.38" fill="#68e1fd"/><polygon points="247.38 274.38 157.81 274.38 157.81 285.51 247.38 285.51 336.94 285.51 336.94 274.38 247.38 274.38" fill="url(#linear-gradient-18)"/><polygon points="247.38 285.51 153.54 285.51 153.54 291.07 247.38 291.07 341.2 291.07 341.2 285.51 247.38 285.51" fill="#68e1fd"/><rect x="161.64" y="291.07" width="15.33" height="103.2" fill="#68e1fd"/><rect x="192.8" y="291.07" width="15.32" height="103.2" fill="#68e1fd"/><rect x="223.95" y="291.07" width="15.33" height="103.2" fill="#68e1fd"/><rect x="317.77" y="291.07" width="15.33" height="103.2" fill="#68e1fd"/><rect x="286.62" y="291.07" width="15.32" height="103.2" fill="#68e1fd"/><rect x="255.46" y="291.07" width="15.33" height="103.2" fill="#68e1fd"/><rect x="161.64" y="291.07" width="15.33" height="103.2" fill="url(#linear-gradient-19)"/><rect x="192.8" y="291.07" width="15.32" height="103.2" fill="url(#linear-gradient-20)"/><rect x="223.95" y="291.07" width="15.33" height="103.2" fill="url(#linear-gradient-21)"/><rect x="317.77" y="291.07" width="15.33" height="103.2" fill="url(#linear-gradient-22)"/><rect x="286.62" y="291.07" width="15.32" height="103.2" fill="url(#linear-gradient-23)"/><rect x="255.46" y="291.07" width="15.33" height="103.2" fill="url(#linear-gradient-24)"/><rect x="202.02" y="240.52" width="90.7" height="6.48" fill="#68e1fd"/><rect x="202.02" y="240.52" width="90.7" height="6.48" fill="url(#linear-gradient-25)"/><rect x="207.06" y="236.93" width="80.62" height="3.6" fill="#68e1fd"/><polygon points="272.73 243.57 262.22 243.57 232.52 243.57 153.54 243.57 153.54 249.13 232.52 249.13 262.22 249.13 272.73 249.13 341.2 249.13 341.2 243.57 272.73 243.57" fill="#68e1fd"/><polygon points="253.09 390.46 241.65 390.46 34.4 390.46 34.4 396.24 241.65 396.24 253.09 396.24 460.35 396.24 460.35 390.46 253.09 390.46" fill="#68e1fd"/><polygon points="141.52 310.54 34.41 310.54 87.95 282.12 141.52 310.54" fill="#68e1fd"/><polygon points="129.16 310.54 48.51 310.54 88.82 289.13 129.16 310.54" fill="#68e1fd"/><polygon points="129.16 310.54 48.51 310.54 88.82 289.13 129.16 310.54" fill="url(#linear-gradient-26)"/><polygon points="447.76 310.54 367.1 310.54 407.42 289.13 447.76 310.54" fill="url(#linear-gradient-27)"/><path d="M271.13,234.7c0,2.75-1.65,5-3.68,5h0c-2,0-3.68-2.22-3.68-5V206.86c0-2.75,1.65-5,3.68-5h0c2,0,3.68,2.23,3.68,5Z" transform="translate(-20.08 -0.68)" fill="#68e1fd"/><path d="M271.13,234.7c0,2.75-1.65,5-3.68,5h0c-2,0-3.68-2.22-3.68-5V206.86c0-2.75,1.65-5,3.68-5h0c2,0,3.68,2.23,3.68,5Z" transform="translate(-20.08 -0.68)" fill="url(#linear-gradient-28)"/></svg>