<svg id="Layer_1" data-name="Layer 1" xmlns="http://www.w3.org/2000/svg" xmlns:xlink="http://www.w3.org/1999/xlink" viewBox="0 0 668.88 439.23"><defs><clipPath id="clip-path" transform="translate(104.65 -47.23)"><path d="M19.85,322.77c-5-16.22-8.51-33.55-7.15-50.81,1.11-14.2,5.47-27.75,11-40.31,25-56.89,72.71-93.43,121.36-118.35,38.67-19.8,79.65-34,121.51-36.27s84.75,8,120.79,34.18c19.7,14.33,37,33.09,54.11,51.73,23.81,25.9,48,52.45,63.83,86.31,11.76,25.17,18.49,55.36,12.54,83.43-5.09,24-19.08,44.25-36,57.9s-36.6,21.29-56.42,26.35c-63.69,16.25-129.65,7.22-194.29-1.87q-71.13-10-142.26-20c-12.91-1.8-28.24-.5-39.07-10.43C35.5,371.49,26,342.52,19.85,322.77Z" fill="none"/></clipPath><linearGradient id="linear-gradient" x1="428.09" y1="218.66" x2="434.23" y2="133.97" gradientUnits="userSpaceOnUse"><stop offset="0.02" stop-color="#fff" stop-opacity="0"/><stop offset="0.49" stop-color="#fff" stop-opacity="0.68"/><stop offset="1" stop-color="#fff"/></linearGradient><linearGradient id="linear-gradient-2" x1="5322.57" y1="210.58" x2="5328.71" y2="125.9" gradientTransform="matrix(-1, 0, 0, 1, 5354.04, 0)" xlink:href="#linear-gradient"/><linearGradient id="linear-gradient-3" x1="112.27" y1="325.35" x2="131.78" y2="118.82" gradientUnits="userSpaceOnUse"><stop offset="0.01"/><stop offset="0.13" stop-opacity="0.69"/><stop offset="1" stop-opacity="0"/></linearGradient><linearGradient id="linear-gradient-4" x1="146.62" y1="328.6" x2="166.13" y2="122.06" xlink:href="#linear-gradient-3"/><linearGradient id="linear-gradient-5" x1="183.44" y1="332.07" x2="202.95" y2="125.54" xlink:href="#linear-gradient-3"/><linearGradient id="linear-gradient-6" x1="221.05" y1="335.63" x2="240.55" y2="129.09" xlink:href="#linear-gradient-3"/><linearGradient id="linear-gradient-7" x1="227.15" y1="191" x2="224.46" y2="231.2" xlink:href="#linear-gradient"/><linearGradient id="linear-gradient-8" x1="227.15" y1="193.95" x2="224.46" y2="234.14" xlink:href="#linear-gradient"/><linearGradient id="linear-gradient-9" x1="227.15" y1="196.72" x2="224.46" y2="236.92" xlink:href="#linear-gradient"/><linearGradient id="linear-gradient-10" x1="227.15" y1="199.66" x2="224.46" y2="239.86" xlink:href="#linear-gradient"/><linearGradient id="linear-gradient-11" x1="227.15" y1="202.44" x2="224.46" y2="242.64" xlink:href="#linear-gradient"/><linearGradient id="linear-gradient-12" x1="227.15" y1="205.38" x2="224.46" y2="245.58" xlink:href="#linear-gradient"/><linearGradient id="linear-gradient-13" x1="228.9" y1="205.83" x2="225.5" y2="256.59" xlink:href="#linear-gradient"/><linearGradient id="linear-gradient-14" x1="228.9" y1="208.77" x2="225.5" y2="259.53" xlink:href="#linear-gradient"/><linearGradient id="linear-gradient-15" x1="228.9" y1="211.99" x2="225.5" y2="262.76" xlink:href="#linear-gradient"/><linearGradient id="linear-gradient-16" x1="228.9" y1="214.94" x2="225.5" y2="265.7" xlink:href="#linear-gradient"/><linearGradient id="linear-gradient-17" x1="228.9" y1="218.16" x2="225.5" y2="268.92" xlink:href="#linear-gradient"/><linearGradient id="linear-gradient-18" x1="228.9" y1="221.1" x2="225.5" y2="271.87" xlink:href="#linear-gradient"/><linearGradient id="linear-gradient-19" x1="228.9" y1="224.33" x2="225.5" y2="275.09" xlink:href="#linear-gradient"/><linearGradient id="linear-gradient-20" x1="228.9" y1="227.27" x2="225.5" y2="278.03" xlink:href="#linear-gradient"/><linearGradient id="linear-gradient-21" x1="228.9" y1="230.49" x2="225.5" y2="281.26" xlink:href="#linear-gradient"/><linearGradient id="linear-gradient-22" x1="228.9" y1="233.44" x2="225.5" y2="284.2" xlink:href="#linear-gradient"/><linearGradient id="linear-gradient-23" x1="228.9" y1="236.66" x2="225.5" y2="287.42" xlink:href="#linear-gradient"/><linearGradient id="linear-gradient-24" x1="228.9" y1="239.6" x2="225.5" y2="290.37" xlink:href="#linear-gradient"/><linearGradient id="linear-gradient-25" x1="228.9" y1="242.83" x2="225.5" y2="293.59" xlink:href="#linear-gradient"/><linearGradient id="linear-gradient-26" x1="228.9" y1="245.77" x2="225.5" y2="296.54" xlink:href="#linear-gradient"/><linearGradient id="linear-gradient-27" x1="228.9" y1="248.99" x2="225.5" y2="299.76" xlink:href="#linear-gradient"/><linearGradient id="linear-gradient-28" x1="228.9" y1="251.94" x2="225.5" y2="302.7" xlink:href="#linear-gradient"/><linearGradient id="linear-gradient-29" x1="378.02" y1="343.5" x2="378.02" y2="292.7" xlink:href="#linear-gradient-3"/><linearGradient id="linear-gradient-30" x1="476.8" y1="342.72" x2="479.04" y2="280.38" xlink:href="#linear-gradient-3"/><linearGradient id="linear-gradient-31" x1="560.52" y1="294.74" x2="562.76" y2="232.4" xlink:href="#linear-gradient-3"/><linearGradient id="linear-gradient-32" x1="537.99" y1="293.93" x2="540.23" y2="231.59" xlink:href="#linear-gradient-3"/><linearGradient id="linear-gradient-33" x1="539.49" y1="244.49" x2="534.84" y2="327.61" xlink:href="#linear-gradient-3"/><linearGradient id="linear-gradient-34" x1="539.59" y1="244.26" x2="534.93" y2="327.38" xlink:href="#linear-gradient-3"/><linearGradient id="linear-gradient-35" x1="539.69" y1="244.02" x2="535.04" y2="327.13" xlink:href="#linear-gradient-3"/><linearGradient id="linear-gradient-36" x1="539.79" y1="243.79" x2="535.13" y2="326.91" xlink:href="#linear-gradient-3"/><linearGradient id="linear-gradient-37" x1="539.9" y1="243.54" x2="535.24" y2="326.66" xlink:href="#linear-gradient-3"/><linearGradient id="linear-gradient-38" x1="539.99" y1="243.32" x2="535.33" y2="326.43" xlink:href="#linear-gradient-3"/><linearGradient id="linear-gradient-39" x1="540.1" y1="243.07" x2="535.44" y2="326.19" xlink:href="#linear-gradient-3"/><linearGradient id="linear-gradient-40" x1="540.19" y1="242.84" x2="535.54" y2="325.96" xlink:href="#linear-gradient-3"/><linearGradient id="linear-gradient-41" x1="540.3" y1="242.6" x2="535.64" y2="325.72" xlink:href="#linear-gradient-3"/><linearGradient id="linear-gradient-42" x1="540.39" y1="242.37" x2="535.74" y2="325.49" xlink:href="#linear-gradient-3"/><linearGradient id="linear-gradient-43" x1="540.5" y1="242.12" x2="535.84" y2="325.24" xlink:href="#linear-gradient-3"/><linearGradient id="linear-gradient-44" x1="540.6" y1="241.9" x2="535.94" y2="325.02" xlink:href="#linear-gradient-3"/><linearGradient id="linear-gradient-45" x1="540.7" y1="241.65" x2="536.04" y2="324.77" xlink:href="#linear-gradient-3"/><linearGradient id="linear-gradient-46" x1="540.8" y1="241.42" x2="536.14" y2="324.54" xlink:href="#linear-gradient-3"/><linearGradient id="linear-gradient-47" x1="540.9" y1="241.18" x2="536.24" y2="324.3" xlink:href="#linear-gradient-3"/><linearGradient id="linear-gradient-48" x1="541" y1="240.95" x2="536.34" y2="324.07" xlink:href="#linear-gradient-3"/><linearGradient id="linear-gradient-49" x1="541.1" y1="240.71" x2="536.44" y2="323.82" xlink:href="#linear-gradient-3"/><linearGradient id="linear-gradient-50" x1="541.2" y1="240.48" x2="536.54" y2="323.6" xlink:href="#linear-gradient-3"/><linearGradient id="linear-gradient-51" x1="541.3" y1="240.23" x2="536.65" y2="323.35" xlink:href="#linear-gradient-3"/><linearGradient id="linear-gradient-52" x1="541.4" y1="240" x2="536.74" y2="323.12" xlink:href="#linear-gradient-3"/><linearGradient id="linear-gradient-53" x1="561.86" y1="244.49" x2="557.2" y2="327.61" xlink:href="#linear-gradient-3"/><linearGradient id="linear-gradient-54" x1="561.96" y1="244.26" x2="557.3" y2="327.38" xlink:href="#linear-gradient-3"/><linearGradient id="linear-gradient-55" x1="562.06" y1="244.02" x2="557.41" y2="327.13" xlink:href="#linear-gradient-3"/><linearGradient id="linear-gradient-56" x1="562.16" y1="243.79" x2="557.5" y2="326.91" xlink:href="#linear-gradient-3"/><linearGradient id="linear-gradient-57" x1="562.26" y1="243.54" x2="557.61" y2="326.66" xlink:href="#linear-gradient-3"/><linearGradient id="linear-gradient-58" x1="562.36" y1="243.32" x2="557.7" y2="326.43" xlink:href="#linear-gradient-3"/><linearGradient id="linear-gradient-59" x1="562.47" y1="243.07" x2="557.81" y2="326.19" xlink:href="#linear-gradient-3"/><linearGradient id="linear-gradient-60" x1="562.56" y1="242.84" x2="557.9" y2="325.96" xlink:href="#linear-gradient-3"/><linearGradient id="linear-gradient-61" x1="562.67" y1="242.6" x2="558.01" y2="325.72" xlink:href="#linear-gradient-3"/><linearGradient id="linear-gradient-62" x1="562.76" y1="242.37" x2="558.11" y2="325.49" xlink:href="#linear-gradient-3"/><linearGradient id="linear-gradient-63" x1="562.87" y1="242.12" x2="558.21" y2="325.24" xlink:href="#linear-gradient-3"/><linearGradient id="linear-gradient-64" x1="562.96" y1="241.9" x2="558.31" y2="325.02" xlink:href="#linear-gradient-3"/><linearGradient id="linear-gradient-65" x1="563.07" y1="241.65" x2="558.41" y2="324.77" xlink:href="#linear-gradient-3"/><linearGradient id="linear-gradient-66" x1="563.17" y1="241.42" x2="558.51" y2="324.54" xlink:href="#linear-gradient-3"/><linearGradient id="linear-gradient-67" x1="563.27" y1="241.18" x2="558.61" y2="324.3" xlink:href="#linear-gradient-3"/><linearGradient id="linear-gradient-68" x1="563.37" y1="240.95" x2="558.71" y2="324.07" xlink:href="#linear-gradient-3"/><linearGradient id="linear-gradient-69" x1="563.47" y1="240.71" x2="558.81" y2="323.82" xlink:href="#linear-gradient-3"/><linearGradient id="linear-gradient-70" x1="563.57" y1="240.48" x2="558.91" y2="323.6" xlink:href="#linear-gradient-3"/><linearGradient id="linear-gradient-71" x1="563.67" y1="240.23" x2="559.01" y2="323.35" xlink:href="#linear-gradient-3"/><linearGradient id="linear-gradient-72" x1="563.77" y1="240" x2="559.11" y2="323.12" xlink:href="#linear-gradient-3"/><linearGradient id="linear-gradient-73" x1="272.34" y1="320.17" x2="275.03" y2="126.42" xlink:href="#linear-gradient-3"/><linearGradient id="linear-gradient-74" x1="270.71" y1="199.08" x2="268.02" y2="239.26" xlink:href="#linear-gradient"/><linearGradient id="linear-gradient-75" x1="270.71" y1="202.56" x2="268.02" y2="242.73" xlink:href="#linear-gradient"/><linearGradient id="linear-gradient-76" x1="270.71" y1="206.31" x2="268.02" y2="246.49" xlink:href="#linear-gradient"/><linearGradient id="linear-gradient-77" x1="270.71" y1="209.79" x2="268.02" y2="249.97" xlink:href="#linear-gradient"/><linearGradient id="linear-gradient-78" x1="270.71" y1="213.55" x2="268.02" y2="253.72" xlink:href="#linear-gradient"/><linearGradient id="linear-gradient-79" x1="270.71" y1="217.02" x2="268.02" y2="257.2" xlink:href="#linear-gradient"/><linearGradient id="linear-gradient-80" x1="270.71" y1="220.78" x2="268.02" y2="260.95" xlink:href="#linear-gradient"/><linearGradient id="linear-gradient-81" x1="270.71" y1="224.25" x2="268.02" y2="264.43" xlink:href="#linear-gradient"/><linearGradient id="linear-gradient-82" x1="270.71" y1="228.01" x2="268.02" y2="268.19" xlink:href="#linear-gradient"/><linearGradient id="linear-gradient-83" x1="270.71" y1="231.49" x2="268.02" y2="271.66" xlink:href="#linear-gradient"/><linearGradient id="linear-gradient-84" x1="270.71" y1="235.24" x2="268.02" y2="275.42" xlink:href="#linear-gradient"/><linearGradient id="linear-gradient-85" x1="270.71" y1="238.72" x2="268.02" y2="278.89" xlink:href="#linear-gradient"/><linearGradient id="linear-gradient-86" x1="270.71" y1="242.47" x2="268.02" y2="282.65" xlink:href="#linear-gradient"/><linearGradient id="linear-gradient-87" x1="270.71" y1="245.95" x2="268.02" y2="286.13" xlink:href="#linear-gradient"/><linearGradient id="linear-gradient-88" x1="270.71" y1="249.71" x2="268.02" y2="289.88" xlink:href="#linear-gradient"/><linearGradient id="linear-gradient-89" x1="270.71" y1="253.18" x2="268.02" y2="293.36" xlink:href="#linear-gradient"/><linearGradient id="linear-gradient-90" x1="270.71" y1="256.94" x2="268.02" y2="297.11" xlink:href="#linear-gradient"/><linearGradient id="linear-gradient-91" x1="270.71" y1="260.41" x2="268.02" y2="300.59" xlink:href="#linear-gradient"/><linearGradient id="linear-gradient-92" x1="270.71" y1="264.17" x2="268.02" y2="304.35" xlink:href="#linear-gradient"/><linearGradient id="linear-gradient-93" x1="270.71" y1="267.65" x2="268.02" y2="307.82" xlink:href="#linear-gradient"/><linearGradient id="linear-gradient-94" x1="352.99" y1="244.99" x2="350.63" y2="280.31" xlink:href="#linear-gradient"/><linearGradient id="linear-gradient-95" x1="352.99" y1="246.64" x2="350.63" y2="281.95" xlink:href="#linear-gradient"/><linearGradient id="linear-gradient-96" x1="352.99" y1="248.42" x2="350.63" y2="283.73" xlink:href="#linear-gradient"/><linearGradient id="linear-gradient-97" x1="352.99" y1="250.07" x2="350.63" y2="285.38" xlink:href="#linear-gradient"/><linearGradient id="linear-gradient-98" x1="352.99" y1="251.85" x2="350.63" y2="287.16" xlink:href="#linear-gradient"/><linearGradient id="linear-gradient-99" x1="352.99" y1="253.5" x2="350.63" y2="288.81" xlink:href="#linear-gradient"/><linearGradient id="linear-gradient-100" x1="352.99" y1="255.28" x2="350.63" y2="290.59" xlink:href="#linear-gradient"/><linearGradient id="linear-gradient-101" x1="352.99" y1="256.93" x2="350.63" y2="292.24" xlink:href="#linear-gradient"/><linearGradient id="linear-gradient-102" x1="352.99" y1="258.71" x2="350.63" y2="294.02" xlink:href="#linear-gradient"/><linearGradient id="linear-gradient-103" x1="352.99" y1="260.35" x2="350.63" y2="295.67" xlink:href="#linear-gradient"/><linearGradient id="linear-gradient-104" x1="352.99" y1="262.13" x2="350.63" y2="297.45" xlink:href="#linear-gradient"/><linearGradient id="linear-gradient-105" x1="352.99" y1="263.78" x2="350.63" y2="299.1" xlink:href="#linear-gradient"/><linearGradient id="linear-gradient-106" x1="352.99" y1="265.56" x2="350.63" y2="300.88" xlink:href="#linear-gradient"/><linearGradient id="linear-gradient-107" x1="352.99" y1="267.21" x2="350.63" y2="302.52" xlink:href="#linear-gradient"/><linearGradient id="linear-gradient-108" x1="352.99" y1="268.99" x2="350.63" y2="304.31" xlink:href="#linear-gradient"/><linearGradient id="linear-gradient-109" x1="352.99" y1="270.64" x2="350.63" y2="305.95" xlink:href="#linear-gradient"/><linearGradient id="linear-gradient-110" x1="352.99" y1="272.42" x2="350.63" y2="307.73" xlink:href="#linear-gradient"/><linearGradient id="linear-gradient-111" x1="352.99" y1="274.07" x2="350.63" y2="309.38" xlink:href="#linear-gradient"/><linearGradient id="linear-gradient-112" x1="352.99" y1="275.85" x2="350.63" y2="311.16" xlink:href="#linear-gradient"/><linearGradient id="linear-gradient-113" x1="352.99" y1="277.5" x2="350.63" y2="312.81" xlink:href="#linear-gradient"/><linearGradient id="linear-gradient-114" x1="426.91" y1="310.38" x2="430.95" y2="177.63" xlink:href="#linear-gradient-3"/><linearGradient id="linear-gradient-115" x1="352.44" y1="308.12" x2="356.48" y2="175.36" xlink:href="#linear-gradient-3"/><linearGradient id="linear-gradient-116" x1="384.63" y1="309.1" x2="388.67" y2="176.34" xlink:href="#linear-gradient-3"/><linearGradient id="linear-gradient-117" x1="310.02" y1="357.24" x2="314.06" y2="224.48" xlink:href="#linear-gradient-3"/><linearGradient id="linear-gradient-118" x1="340.21" y1="358.16" x2="344.25" y2="225.4" xlink:href="#linear-gradient-3"/><linearGradient id="linear-gradient-119" x1="320.53" y1="307.15" x2="324.57" y2="174.39" xlink:href="#linear-gradient-3"/><linearGradient id="linear-gradient-120" x1="151.59" y1="268.98" x2="243.75" y2="269.65" xlink:href="#linear-gradient-3"/><linearGradient id="linear-gradient-121" x1="192.88" y1="315.11" x2="192.88" y2="234.38" xlink:href="#linear-gradient-3"/><linearGradient id="linear-gradient-122" x1="214.82" y1="315.11" x2="214.82" y2="234.38" xlink:href="#linear-gradient-3"/><linearGradient id="linear-gradient-123" x1="241.97" y1="315.11" x2="241.97" y2="234.38" xlink:href="#linear-gradient-3"/><linearGradient id="linear-gradient-124" x1="273.3" y1="315.11" x2="273.3" y2="234.38" xlink:href="#linear-gradient-3"/><linearGradient id="linear-gradient-125" x1="235.99" y1="362.33" x2="235.99" y2="281.6" xlink:href="#linear-gradient-3"/><linearGradient id="linear-gradient-126" x1="436.73" y1="315.11" x2="436.73" y2="234.38" xlink:href="#linear-gradient-3"/><linearGradient id="linear-gradient-127" x1="114.08" y1="315.11" x2="114.08" y2="234.38" xlink:href="#linear-gradient-3"/><linearGradient id="linear-gradient-128" x1="66.19" y1="362.33" x2="66.19" y2="281.6" xlink:href="#linear-gradient-3"/><linearGradient id="linear-gradient-129" x1="144.1" y1="315.11" x2="144.1" y2="234.38" xlink:href="#linear-gradient-3"/><linearGradient id="linear-gradient-130" x1="286.87" y1="362.33" x2="286.87" y2="281.6" xlink:href="#linear-gradient-3"/><linearGradient id="linear-gradient-131" x1="614.2" y1="283.71" x2="641.11" y2="286.73" xlink:href="#linear-gradient-3"/><linearGradient id="linear-gradient-132" x1="590.21" y1="304.51" x2="594.25" y2="248" xlink:href="#linear-gradient-3"/><linearGradient id="linear-gradient-133" x1="536.83" y1="300.69" x2="540.87" y2="244.18" xlink:href="#linear-gradient-3"/><linearGradient id="linear-gradient-134" x1="145.26" y1="228.52" x2="139.43" y2="332.57" xlink:href="#linear-gradient-3"/><linearGradient id="linear-gradient-135" x1="145.38" y1="228.52" x2="139.55" y2="332.57" xlink:href="#linear-gradient-3"/><linearGradient id="linear-gradient-136" x1="145.51" y1="228.53" x2="139.68" y2="332.58" xlink:href="#linear-gradient-3"/><linearGradient id="linear-gradient-137" x1="145.63" y1="228.54" x2="139.8" y2="332.59" xlink:href="#linear-gradient-3"/><linearGradient id="linear-gradient-138" x1="145.76" y1="228.54" x2="139.93" y2="332.59" xlink:href="#linear-gradient-3"/><linearGradient id="linear-gradient-139" x1="145.88" y1="228.55" x2="140.05" y2="332.6" xlink:href="#linear-gradient-3"/><linearGradient id="linear-gradient-140" x1="146.01" y1="228.56" x2="140.18" y2="332.61" xlink:href="#linear-gradient-3"/><linearGradient id="linear-gradient-141" x1="146.14" y1="228.56" x2="140.31" y2="332.62" xlink:href="#linear-gradient-3"/><linearGradient id="linear-gradient-142" x1="146.27" y1="228.57" x2="140.44" y2="332.62" xlink:href="#linear-gradient-3"/><linearGradient id="linear-gradient-143" x1="146.39" y1="228.58" x2="140.56" y2="332.63" xlink:href="#linear-gradient-3"/><linearGradient id="linear-gradient-144" x1="146.52" y1="228.59" x2="140.69" y2="332.64" xlink:href="#linear-gradient-3"/><linearGradient id="linear-gradient-145" x1="146.64" y1="228.59" x2="140.81" y2="332.64" xlink:href="#linear-gradient-3"/><linearGradient id="linear-gradient-146" x1="146.77" y1="228.6" x2="140.94" y2="332.65" xlink:href="#linear-gradient-3"/><linearGradient id="linear-gradient-147" x1="146.89" y1="228.61" x2="141.06" y2="332.66" xlink:href="#linear-gradient-3"/><linearGradient id="linear-gradient-148" x1="147.02" y1="228.61" x2="141.19" y2="332.67" xlink:href="#linear-gradient-3"/><linearGradient id="linear-gradient-149" x1="147.14" y1="228.62" x2="141.31" y2="332.67" xlink:href="#linear-gradient-3"/><linearGradient id="linear-gradient-150" x1="147.27" y1="228.63" x2="141.44" y2="332.68" xlink:href="#linear-gradient-3"/><linearGradient id="linear-gradient-151" x1="147.39" y1="228.63" x2="141.56" y2="332.69" xlink:href="#linear-gradient-3"/><linearGradient id="linear-gradient-152" x1="147.53" y1="228.64" x2="141.69" y2="332.69" xlink:href="#linear-gradient-3"/><linearGradient id="linear-gradient-153" x1="147.65" y1="228.65" x2="141.82" y2="332.7" xlink:href="#linear-gradient-3"/><linearGradient id="linear-gradient-154" x1="174.78" y1="234.36" x2="169.47" y2="329.19" xlink:href="#linear-gradient-3"/><linearGradient id="linear-gradient-155" x1="174.89" y1="234.46" x2="169.58" y2="329.28" xlink:href="#linear-gradient-3"/><linearGradient id="linear-gradient-156" x1="175.01" y1="234.56" x2="169.7" y2="329.38" xlink:href="#linear-gradient-3"/><linearGradient id="linear-gradient-157" x1="175.12" y1="234.66" x2="169.81" y2="329.48" xlink:href="#linear-gradient-3"/><linearGradient id="linear-gradient-158" x1="175.24" y1="234.76" x2="169.93" y2="329.58" xlink:href="#linear-gradient-3"/><linearGradient id="linear-gradient-159" x1="175.35" y1="234.85" x2="170.04" y2="329.68" xlink:href="#linear-gradient-3"/><linearGradient id="linear-gradient-160" x1="175.47" y1="234.96" x2="170.16" y2="329.78" xlink:href="#linear-gradient-3"/><linearGradient id="linear-gradient-161" x1="175.58" y1="235.05" x2="170.27" y2="329.88" xlink:href="#linear-gradient-3"/><linearGradient id="linear-gradient-162" x1="175.7" y1="235.16" x2="170.39" y2="329.98" xlink:href="#linear-gradient-3"/><linearGradient id="linear-gradient-163" x1="175.81" y1="235.25" x2="170.5" y2="330.08" xlink:href="#linear-gradient-3"/><linearGradient id="linear-gradient-164" x1="175.93" y1="235.36" x2="170.62" y2="330.18" xlink:href="#linear-gradient-3"/><linearGradient id="linear-gradient-165" x1="176.04" y1="235.45" x2="170.73" y2="330.28" xlink:href="#linear-gradient-3"/><linearGradient id="linear-gradient-166" x1="176.16" y1="235.56" x2="170.85" y2="330.38" xlink:href="#linear-gradient-3"/><linearGradient id="linear-gradient-167" x1="176.27" y1="235.65" x2="170.96" y2="330.48" xlink:href="#linear-gradient-3"/><linearGradient id="linear-gradient-168" x1="176.39" y1="235.75" x2="171.07" y2="330.58" xlink:href="#linear-gradient-3"/><linearGradient id="linear-gradient-169" x1="176.5" y1="235.85" x2="171.18" y2="330.67" xlink:href="#linear-gradient-3"/><linearGradient id="linear-gradient-170" x1="176.62" y1="235.95" x2="171.3" y2="330.78" xlink:href="#linear-gradient-3"/><linearGradient id="linear-gradient-171" x1="176.73" y1="236.05" x2="171.41" y2="330.87" xlink:href="#linear-gradient-3"/><linearGradient id="linear-gradient-172" x1="176.85" y1="236.15" x2="171.53" y2="330.98" xlink:href="#linear-gradient-3"/><linearGradient id="linear-gradient-173" x1="176.96" y1="236.25" x2="171.64" y2="331.07" xlink:href="#linear-gradient-3"/><linearGradient id="linear-gradient-174" x1="243.01" y1="240.3" x2="237.83" y2="332.62" xlink:href="#linear-gradient-3"/><linearGradient id="linear-gradient-175" x1="243.11" y1="240.17" x2="237.94" y2="332.49" xlink:href="#linear-gradient-3"/><linearGradient id="linear-gradient-176" x1="243.23" y1="240.03" x2="238.06" y2="332.35" xlink:href="#linear-gradient-3"/><linearGradient id="linear-gradient-177" x1="243.34" y1="239.9" x2="238.16" y2="332.22" xlink:href="#linear-gradient-3"/><linearGradient id="linear-gradient-178" x1="243.45" y1="239.76" x2="238.28" y2="332.08" xlink:href="#linear-gradient-3"/><linearGradient id="linear-gradient-179" x1="243.56" y1="239.63" x2="238.39" y2="331.95" xlink:href="#linear-gradient-3"/><linearGradient id="linear-gradient-180" x1="243.68" y1="239.49" x2="238.5" y2="331.81" xlink:href="#linear-gradient-3"/><linearGradient id="linear-gradient-181" x1="243.78" y1="239.36" x2="238.61" y2="331.68" xlink:href="#linear-gradient-3"/><linearGradient id="linear-gradient-182" x1="243.9" y1="239.21" x2="238.73" y2="331.54" xlink:href="#linear-gradient-3"/><linearGradient id="linear-gradient-183" x1="244.01" y1="239.09" x2="238.83" y2="331.41" xlink:href="#linear-gradient-3"/><linearGradient id="linear-gradient-184" x1="244.12" y1="238.94" x2="238.95" y2="331.27" xlink:href="#linear-gradient-3"/><linearGradient id="linear-gradient-185" x1="244.23" y1="238.82" x2="239.06" y2="331.14" xlink:href="#linear-gradient-3"/><linearGradient id="linear-gradient-186" x1="244.35" y1="238.67" x2="239.17" y2="331" xlink:href="#linear-gradient-3"/><linearGradient id="linear-gradient-187" x1="244.45" y1="238.55" x2="239.28" y2="330.87" xlink:href="#linear-gradient-3"/><linearGradient id="linear-gradient-188" x1="244.57" y1="238.4" x2="239.4" y2="330.73" xlink:href="#linear-gradient-3"/><linearGradient id="linear-gradient-189" x1="244.68" y1="238.27" x2="239.5" y2="330.6" xlink:href="#linear-gradient-3"/><linearGradient id="linear-gradient-190" x1="244.79" y1="238.13" x2="239.62" y2="330.46" xlink:href="#linear-gradient-3"/><linearGradient id="linear-gradient-191" x1="244.9" y1="238" x2="239.73" y2="330.33" xlink:href="#linear-gradient-3"/><linearGradient id="linear-gradient-192" x1="245.02" y1="237.86" x2="239.84" y2="330.19" xlink:href="#linear-gradient-3"/><linearGradient id="linear-gradient-193" x1="245.12" y1="237.73" x2="239.95" y2="330.06" xlink:href="#linear-gradient-3"/><linearGradient id="linear-gradient-194" x1="373.55" y1="247.18" x2="364.99" y2="400.05" xlink:href="#linear-gradient-3"/><linearGradient id="linear-gradient-195" x1="373.73" y1="245.06" x2="365.16" y2="397.93" xlink:href="#linear-gradient-3"/><linearGradient id="linear-gradient-196" x1="373.92" y1="242.77" x2="365.36" y2="395.64" xlink:href="#linear-gradient-3"/><linearGradient id="linear-gradient-197" x1="374.1" y1="240.65" x2="365.53" y2="393.52" xlink:href="#linear-gradient-3"/><linearGradient id="linear-gradient-198" x1="374.29" y1="238.36" x2="365.73" y2="391.22" xlink:href="#linear-gradient-3"/><linearGradient id="linear-gradient-199" x1="374.47" y1="236.24" x2="365.9" y2="389.1" xlink:href="#linear-gradient-3"/><linearGradient id="linear-gradient-200" x1="374.66" y1="233.95" x2="366.1" y2="386.81" xlink:href="#linear-gradient-3"/><linearGradient id="linear-gradient-201" x1="374.84" y1="231.83" x2="366.27" y2="384.69" xlink:href="#linear-gradient-3"/><linearGradient id="linear-gradient-202" x1="375.03" y1="229.54" x2="366.47" y2="382.4" xlink:href="#linear-gradient-3"/><linearGradient id="linear-gradient-203" x1="375.21" y1="227.42" x2="366.64" y2="380.28" xlink:href="#linear-gradient-3"/><linearGradient id="linear-gradient-204" x1="375.4" y1="225.12" x2="366.84" y2="377.99" xlink:href="#linear-gradient-3"/><linearGradient id="linear-gradient-205" x1="375.58" y1="223" x2="367.01" y2="375.87" xlink:href="#linear-gradient-3"/><linearGradient id="linear-gradient-206" x1="375.77" y1="220.71" x2="367.21" y2="373.58" xlink:href="#linear-gradient-3"/><linearGradient id="linear-gradient-207" x1="375.95" y1="218.59" x2="367.38" y2="371.46" xlink:href="#linear-gradient-3"/><linearGradient id="linear-gradient-208" x1="376.14" y1="216.3" x2="367.58" y2="369.17" xlink:href="#linear-gradient-3"/><linearGradient id="linear-gradient-209" x1="376.32" y1="214.18" x2="367.75" y2="367.05" xlink:href="#linear-gradient-3"/><linearGradient id="linear-gradient-210" x1="376.51" y1="211.89" x2="367.95" y2="364.76" xlink:href="#linear-gradient-3"/><linearGradient id="linear-gradient-211" x1="376.69" y1="209.77" x2="368.12" y2="362.64" xlink:href="#linear-gradient-3"/><linearGradient id="linear-gradient-212" x1="376.88" y1="207.48" x2="368.32" y2="360.34" xlink:href="#linear-gradient-3"/><linearGradient id="linear-gradient-213" x1="377.06" y1="205.36" x2="368.49" y2="358.22" xlink:href="#linear-gradient-3"/></defs><title>Seattle</title><g clip-path="url(#clip-path)"><rect x="42.53" width="619.6" height="439.23" fill="#68e1fd" opacity="0.32" style="isolation:isolate"/><path d="M500.87,363.07c-3.12,4.64-8.67,8.77-14,6.93-2.23-.78-4-2.5-6.07-3.62-3.12-1.69-6.78-2-10.32-2.18-103.53-6.53-207.4-4.66-311.12-2.79-12.41.23-24.89.46-37.11,2.65-17.38,3.12-33.77,10.12-50.37,16.13-12.48,4.52-26.56,8.46-38.66,3-11.47-5.14-18.31-18.9-15.49-31.15.39-1.68,1-3.46,2.49-4.4a7.64,7.64,0,0,1,4.08-.83c62.9-1.11,125.8-2.22,188.71-2.72,63.46-.51,126.92-.41,190.37.92q26.82.57,53.64,1.43,13,.43,26,.93c7.59.3,18.72-1.1,25.52,1.76C508,353.61,503.43,359.28,500.87,363.07Z" transform="translate(104.65 -47.23)" fill="#68e1fd" opacity="0.32" style="isolation:isolate"/><path d="M564.22,238.52v0a177.94,177.94,0,0,1-6,29.88c-41.38,2.53-83-2.49-124.54-4-42.76-1.61-85.6.47-128.33-1.65-3.8-.19-8.12-.68-10.35-3.76s-1.37-7.6-3-11.11c-.91-1.91-2.55-3.46-3-5.51-.53-2.56.94-5.06,2.35-7.24q14.72-22.71,30.4-44.76c2.6-3.63,5.3-7.36,9.12-9.69s9-2.94,12.63-.28a7.47,7.47,0,0,1,7.07-5.57c1.14,0,2.35.27,3.39-.2,1.24-.55,1.8-2,2.48-3.13a12.38,12.38,0,0,1,15.89-4.62,25.08,25.08,0,0,1,20.45-9.26c9.58.46,18.07,6.4,27.54,7.9a34.08,34.08,0,0,0,14.61-1c2.65-.73,5.27-1.78,8-2a13.65,13.65,0,0,1,7.39,1.63,7.17,7.17,0,0,0,3.19,1.28c1.31,0,2.45-.89,3.5-1.69a39.91,39.91,0,0,1,34.77-6.3c1.88.55,3.8,1.27,5.74,1.09,2.72-.21,5-2,7.18-3.66l1.86-1.3h0a182.48,182.48,0,0,1,21.15,24.35C541.54,197,551.44,218.82,564.22,238.52Z" transform="translate(104.65 -47.23)" fill="url(#linear-gradient)"/><path d="M-104.65,230.45h0a178.06,178.06,0,0,0,6,29.89c41.38,2.53,83-2.49,124.54-4,42.76-1.61,85.6.47,128.32-1.66,3.81-.19,8.12-.67,10.36-3.75s1.36-7.61,3-11.11c.91-1.91,2.55-3.46,3-5.51.54-2.56-.94-5.07-2.34-7.24q-14.72-22.72-30.4-44.76c-2.6-3.63-5.31-7.36-9.12-9.69s-9-2.94-12.63-.28a7.47,7.47,0,0,0-7.07-5.57,8.41,8.41,0,0,1-3.4-.2c-1.23-.55-1.8-2-2.47-3.13a12.39,12.39,0,0,0-15.9-4.62,25,25,0,0,0-20.44-9.26c-9.58.45-18.08,6.4-27.54,7.9a34.23,34.23,0,0,1-14.61-1c-2.65-.74-5.28-1.79-8-2a13.61,13.61,0,0,0-7.39,1.63A7.22,7.22,0,0,1,6,157.35c-1.32,0-2.46-.89-3.51-1.69a39.85,39.85,0,0,0-34.76-6.3c-1.88.54-3.8,1.26-5.74,1.09-2.73-.22-5-2-7.18-3.66-.61-.44-1.24-.88-1.87-1.3h0a182.48,182.48,0,0,0-21.15,24.35C-82,189-91.87,210.75-104.65,230.45Z" transform="translate(104.65 -47.23)" fill="url(#linear-gradient-2)"/><path d="M562.53,348.18V292.34s-31-17.56-38-21.11-11.4-3.32-14.66-4.48-6.74-1.16-11.4,0-31.18,18.84-32.8,19.78a15.25,15.25,0,0,1-7,1.62,14.62,14.62,0,0,1-5.59-2.09c-1.16-.93-4.88-.93-7.44.93s-2.33,4.42-4.66,4.89-6.05.46-7.91,3c-.93.7-6.28-.23-7.68-.23s-4.88,2.79-6.05,3.72-8.6-1.16-11.63,1.86c-2.09.24-4.65-3.95-9.31-.23-3.25,0-5.35-.23-8.84,1.16s-3.95-2.09-5.58-.46-2.1,2.33-4,2.09-12.79-2.56-16.52-.46c-2.79-.7-17.91-.24-17.91-.24s-29.09-1.39-31.88,1.4-7,2.85-9.31,3.52-11.92-2.07-18.76,0-26.55-3.52-28.79-3.52S243,306.36,241.61,307s-48.86-3-56.77-2.59-10.7,4.65-16.52,6.05-4.88-3.66-12.8-3.46-24.89,23-34.66,22.31-16.06-7-23-4.19S69.2,342.36,58.73,342.83a40.47,40.47,0,0,0-18.15,5.35Z" transform="translate(104.65 -47.23)" fill="#68e1fd" opacity="0.32" style="isolation:isolate"/><polygon points="299.25 201.22 294.36 201.22 294.36 197.78 276.63 197.78 276.63 201.22 271.74 201.22 271.74 204.66 264.77 204.66 264.77 300.96 306.22 300.96 306.22 204.66 299.25 204.66 299.25 201.22" fill="#68e1fd" opacity="0.32" style="isolation:isolate"/><rect x="196.04" y="218.94" width="14.79" height="82.01" fill="#68e1fd" opacity="0.32" style="isolation:isolate"/><polygon points="174.44 227.78 167.05 227.78 167.05 300.96 174.44 300.96 181.84 300.96 189.23 300.96 189.23 207.7 174.44 207.7 174.44 227.78" fill="#68e1fd" opacity="0.32" style="isolation:isolate"/><path d="M137.08,256.9h6.67v4.83h11V244.58c0-.35.2-.63.46-.63s.46.28.46.63v17.15h0v86.45H119.88V251.75C134.34,251.75,137.08,256.9,137.08,256.9Z" transform="translate(104.65 -47.23)" fill="#68e1fd" opacity="0.32" style="isolation:isolate"/><polygon points="434.69 196.72 434.69 210.05 433.7 210.05 433.7 212.07 431.72 212.07 431.72 214.84 428.44 214.84 428.44 216.85 423.22 216.85 421.2 218.94 421.2 300.96 435.68 300.96 435.68 218.94 435.68 214.84 435.68 212.07 435.68 210.05 435.68 196.72 434.69 196.72" fill="#68e1fd"/><polygon points="156.5 205.9 156.5 199.87 134.09 199.87 134.09 205.9 134.09 300.96 163.4 300.96 163.4 205.9 156.5 205.9" fill="#68e1fd" opacity="0.32" style="isolation:isolate"/><polygon points="514.41 289.98 514.41 269.1 505.69 269.1 505.69 264.57 504.06 264.57 504.06 263.5 507.32 263.5 507.32 262.71 502.74 262.71 502.74 255.52 502.31 255.52 502.31 262.71 497.62 262.71 497.62 259.71 497.19 259.71 497.19 262.71 494.62 262.71 494.62 250.21 494.29 250.21 494.29 262.71 489.77 262.71 489.77 263.5 493.02 263.5 493.02 264.57 491.39 264.57 491.39 269.1 482.68 269.1 482.68 300.96 512.56 300.96 514.41 300.96 520.01 300.96 520.01 289.98 514.41 289.98" fill="#68e1fd"/><polygon points="135.66 203.32 135.66 191.53 135.17 191.53 135.17 190.01 134.03 190.01 134.03 189.35 132.28 189.35 132.28 188.37 131.3 188.37 131.3 191.53 128.79 191.53 128.79 189.68 126.93 189.68 126.93 187.93 128.57 187.93 128.57 186.79 106.52 184.33 106.52 191.53 102.59 191.53 102.59 300.96 136.89 300.96 136.89 203.32 135.66 203.32" fill="#68e1fd"/><polygon points="150.71 222.02 150.71 220.45 146.81 220.45 146.81 222.02 138.87 222.02 138.87 300.96 167.05 300.96 167.05 222.02 150.71 222.02" fill="#68e1fd"/><polygon points="202.56 217.14 202.56 215.51 200.93 215.51 200.93 212.83 200 212.83 200 209.81 197.44 209.81 193.95 205.74 186.04 205.74 183.25 209.81 180.69 209.81 180.69 212.83 179.76 212.83 179.76 215.51 178.13 215.51 178.13 217.14 177.25 217.14 177.25 300.96 203.43 300.96 203.43 217.14 202.56 217.14" fill="#68e1fd"/><polygon points="243.62 214.87 240.83 212.14 240.83 197.83 236.79 197.83 236.79 196.6 234.9 196.6 234.9 197.83 213.32 197.83 213.32 199.34 214.25 199.34 214.25 217.37 209.48 217.37 209.48 300.96 247.06 300.96 247.06 214.87 243.62 214.87" fill="#68e1fd"/><polygon points="135.66 203.32 135.66 191.53 135.17 191.53 135.17 190.01 134.03 190.01 134.03 189.35 132.28 189.35 132.28 188.37 131.3 188.37 131.3 191.53 128.79 191.53 128.79 189.68 126.93 189.68 126.93 187.93 128.57 187.93 128.57 186.79 106.52 184.33 106.52 191.53 102.59 191.53 102.59 300.96 136.89 300.96 136.89 203.32 135.66 203.32" opacity="0.58" fill="url(#linear-gradient-3)"/><polygon points="150.71 222.02 150.71 220.45 146.81 220.45 146.81 222.02 138.87 222.02 138.87 300.96 167.05 300.96 167.05 222.02 150.71 222.02" opacity="0.58" fill="url(#linear-gradient-4)"/><polygon points="202.56 217.14 202.56 215.51 200.93 215.51 200.93 212.83 200 212.83 200 209.81 197.44 209.81 193.95 205.74 186.04 205.74 183.25 209.81 180.69 209.81 180.69 212.83 179.76 212.83 179.76 215.51 178.13 215.51 178.13 217.14 177.25 217.14 177.25 300.96 203.43 300.96 203.43 217.14 202.56 217.14" opacity="0.58" fill="url(#linear-gradient-5)"/><polygon points="243.62 214.87 240.83 212.14 240.83 197.83 236.79 197.83 236.79 196.6 234.9 196.6 234.9 197.83 213.32 197.83 213.32 199.34 214.25 199.34 214.25 217.37 209.48 217.37 209.48 300.96 247.06 300.96 247.06 214.87 243.62 214.87" opacity="0.58" fill="url(#linear-gradient-6)"/><rect x="215.59" y="200.91" width="21.7" height="1.35" fill="url(#linear-gradient-7)"/><rect x="215.59" y="203.85" width="21.7" height="1.35" fill="url(#linear-gradient-8)"/><rect x="215.59" y="206.63" width="21.7" height="1.35" fill="url(#linear-gradient-9)"/><rect x="215.59" y="209.57" width="21.7" height="1.35" fill="url(#linear-gradient-10)"/><rect x="215.59" y="212.34" width="21.7" height="1.35" fill="url(#linear-gradient-11)"/><rect x="215.59" y="215.29" width="21.7" height="1.35" fill="url(#linear-gradient-12)"/><rect x="211.67" y="218.51" width="32.68" height="1.35" fill="url(#linear-gradient-13)"/><rect x="211.67" y="221.45" width="32.68" height="1.35" fill="url(#linear-gradient-14)"/><rect x="211.67" y="224.68" width="32.68" height="1.35" fill="url(#linear-gradient-15)"/><rect x="211.67" y="227.62" width="32.68" height="1.35" fill="url(#linear-gradient-16)"/><rect x="211.67" y="230.84" width="32.68" height="1.35" fill="url(#linear-gradient-17)"/><rect x="211.67" y="233.79" width="32.68" height="1.35" fill="url(#linear-gradient-18)"/><rect x="211.67" y="237.01" width="32.68" height="1.35" fill="url(#linear-gradient-19)"/><rect x="211.67" y="239.95" width="32.68" height="1.35" fill="url(#linear-gradient-20)"/><rect x="211.67" y="243.18" width="32.68" height="1.35" fill="url(#linear-gradient-21)"/><rect x="211.67" y="246.12" width="32.68" height="1.35" fill="url(#linear-gradient-22)"/><rect x="211.67" y="249.34" width="32.68" height="1.35" fill="url(#linear-gradient-23)"/><rect x="211.67" y="252.29" width="32.68" height="1.35" fill="url(#linear-gradient-24)"/><rect x="211.67" y="255.51" width="32.68" height="1.35" fill="url(#linear-gradient-25)"/><rect x="211.67" y="258.45" width="32.68" height="1.35" fill="url(#linear-gradient-26)"/><rect x="211.67" y="261.68" width="32.68" height="1.35" fill="url(#linear-gradient-27)"/><rect x="211.67" y="264.62" width="32.68" height="1.35" fill="url(#linear-gradient-28)"/><polygon points="338.3 226.66 338.3 223.89 341.56 223.89 369.36 251.94 369.36 300.96 338.3 300.96 338.3 226.66" fill="#68e1fd"/><polygon points="375.98 217.89 394.16 217.89 396.31 219.3 396.31 300.96 375.98 300.96 375.98 217.89" fill="#68e1fd"/><path d="M322.88,280.18V275.1h-1.13V258.26H321v.53h-3.35V257l-5.82-5.82v-.93l.56-.55-1.06-1.06-1.06,1.06.55.55v.93L305,257v1.79h-3.34v-.53h-.75V275.1h-1.14v5.08h-.9v68h24.92v-68ZM305.1,260.63h-3.28v-1.21h3.28Zm15.73,0h-3.27v-1.21h3.27Z" transform="translate(104.65 -47.23)" fill="#68e1fd"/><path d="M332.08,275.36v-2.44c0-.88.26-1.75.87-1.75v-3.92a21.53,21.53,0,0,1,3.49-.44V265.5h1.22v-4.8h5.56l1.71,1.72v1.13h-1.6v2.56h4.6v-1.34l2.38,1.57v6.11h.93v75.73H332.08Z" transform="translate(104.65 -47.23)" fill="#68e1fd"/><path d="M403.27,330v-7.77c.79.41,1.25.68,1.27.69a.78.78,0,0,0,.35.1.7.7,0,0,0,.36-1.31c-.48-.27-11.81-6.81-23-6.81s-21.22,5.64-21.64,5.88a.7.7,0,0,0-.34.61h-1.52a8,8,0,0,0-8,7.21h2.52V330h-4.88v18.14h59.33V330Zm-37.38-8.61h-3.47c.81-.4,2-1,3.47-1.57Zm2.93,0h-2.23v-1.84c.69-.28,1.44-.55,2.23-.82Zm3.14,0h-2.45v-2.89c.78-.26,1.6-.5,2.45-.73Zm3.5,0h-2.8v-3.81c.9-.23,1.84-.44,2.8-.62Zm3.26,0h-2.56v-4.56c.84-.14,1.69-.26,2.56-.35Zm3.84,0h-3.14v-5c.92-.08,1.85-.13,2.79-.13h.35Zm3.84,0h-3.14v-5.07a30,30,0,0,1,3.14.27Zm3.26,0H387.1v-4.69c.86.13,1.71.3,2.56.48Zm3.5,0h-2.81v-4.05c1,.23,1.9.49,2.81.77Zm3.14,0h-2.44v-3.06c.85.27,1.66.55,2.44.84Zm.7,0h0v-2c1.78.68,3.33,1.37,4.56,2Z" transform="translate(104.65 -47.23)" fill="#68e1fd"/><path d="M403.27,330v-7.77c.79.41,1.25.68,1.27.69a.78.78,0,0,0,.35.1.7.7,0,0,0,.36-1.31c-.48-.27-11.81-6.81-23-6.81s-21.22,5.64-21.64,5.88a.7.7,0,0,0-.34.61h-1.52a8,8,0,0,0-8,7.21h2.52V330h-4.88v18.14h59.33V330Zm-37.38-8.61h-3.47c.81-.4,2-1,3.47-1.57Zm2.93,0h-2.23v-1.84c.69-.28,1.44-.55,2.23-.82Zm3.14,0h-2.45v-2.89c.78-.26,1.6-.5,2.45-.73Zm3.5,0h-2.8v-3.81c.9-.23,1.84-.44,2.8-.62Zm3.26,0h-2.56v-4.56c.84-.14,1.69-.26,2.56-.35Zm3.84,0h-3.14v-5c.92-.08,1.85-.13,2.79-.13h.35Zm3.84,0h-3.14v-5.07a30,30,0,0,1,3.14.27Zm3.26,0H387.1v-4.69c.86.13,1.71.3,2.56.48Zm3.5,0h-2.81v-4.05c1,.23,1.9.49,2.81.77Zm3.14,0h-2.44v-3.06c.85.27,1.66.55,2.44.84Zm.7,0h0v-2c1.78.68,3.33,1.37,4.56,2Z" transform="translate(104.65 -47.23)" opacity="0.58" fill="url(#linear-gradient-29)"/><path d="M540.35,287.46h-4.63v-1.31H533v-1h-3.53v1h-1.18v-1H526v1h-2.7v1.31h-4.63v60.72h1.46v-1.74h1.5v1.74H537.4v-1.74h2v1.74h1.46V287.46Zm-3,49.9v-2.44h2v2.44Zm2,1.4v2.44h-2v-2.44Zm-2-5.23v-2.45h2v2.45Zm0-3.84v-2.45h2v2.45Zm0-3.84V323.4h2v2.45Zm0-3.84v-2.45h2V322Zm0-3.84v-2.44h2v2.44Zm0-3.84v-2.44h2v2.44Zm0-3.84v-2.44h2v2.44Zm0-3.84v-2.44h2v2.44Zm0-3.84v-2.44h2v2.44Zm0-3.84v-2.44h2V299Zm0-3.84v-2.44h2v2.44Zm0-3.83v-2.45h2v2.45Zm-17.32-2.45h1.5v2.45h-1.5Zm0,3.84h1.5v2.44h-1.5Zm0,3.84h1.5V299h-1.5Zm0,3.84h1.5v2.44h-1.5Zm0,3.84h1.5v2.44h-1.5Zm0,3.84h1.5v2.44h-1.5Zm0,3.84h1.5v2.44h-1.5Zm0,3.84h1.5v2.44h-1.5Zm0,3.83h1.5V322h-1.5Zm0,3.84h1.5v2.45h-1.5Zm0,3.84h1.5v2.45h-1.5Zm0,3.84h1.5v2.45h-1.5Zm0,3.84h1.5v2.44h-1.5Zm0,3.84h1.5v2.44h-1.5Zm0,6.28V342.6h1.5V345Zm17.32,0V342.6h2V345Z" transform="translate(104.65 -47.23)" fill="#68e1fd"/><path d="M485.91,304.62v-1.05h1.19v-1.4h-4.77s.35-4.07-2.55-4.07v-2h-3.26v2c-2.91,0-2.56,4.07-2.56,4.07h-4.77v1.4h1.19v1.05H467.5v1.16h2v42.4h17.27v-42.4h2v-1.16Z" transform="translate(104.65 -47.23)" fill="#68e1fd"/><polygon points="570.64 258.73 570.64 258.03 569.63 258.03 569.63 255.59 569.63 250.18 568.5 250.18 568.5 253.72 566.14 253.72 566.14 255.59 564.75 255.59 564.75 252.88 557.42 252.88 557.42 255.59 556.02 255.59 556.02 253.72 553.66 253.72 553.66 250.18 552.53 250.18 552.53 255.59 552.53 258.03 551.53 258.03 551.53 258.73 552.53 258.73 552.53 260.21 551.53 260.21 551.53 260.91 552.53 260.91 552.53 262.39 551.53 262.39 551.53 263.09 552.53 263.09 552.53 264.57 551.53 264.57 551.53 265.27 552.53 265.27 552.53 266.75 551.53 266.75 551.53 267.45 552.53 267.45 552.53 268.94 551.53 268.94 551.53 269.63 552.53 269.63 552.53 271.12 551.53 271.12 551.53 271.81 552.53 271.81 552.53 273.3 551.53 273.3 551.53 274 552.53 274 552.53 275.48 551.53 275.48 551.53 276.18 552.53 276.18 552.53 277.66 551.53 277.66 551.53 278.36 552.53 278.36 552.53 279.84 551.53 279.84 551.53 280.54 552.53 280.54 552.53 282.02 551.53 282.02 551.53 282.72 552.53 282.72 552.53 284.2 551.53 284.2 551.53 284.9 552.53 284.9 552.53 286.38 551.53 286.38 551.53 287.08 552.53 287.08 552.53 288.57 551.53 288.57 551.53 289.26 552.53 289.26 552.53 290.75 551.53 290.75 551.53 291.45 552.53 291.45 552.53 292.93 551.53 292.93 551.53 293.63 552.53 293.63 552.53 295.11 551.53 295.11 551.53 295.81 552.53 295.81 552.53 297.29 551.53 297.29 551.53 297.99 552.53 297.99 552.53 299.47 551.53 299.47 551.53 300.17 552.53 300.17 552.53 300.96 569.63 300.96 569.63 300.17 570.64 300.17 570.64 299.47 569.63 299.47 569.63 297.99 570.64 297.99 570.64 297.29 569.63 297.29 569.63 295.81 570.64 295.81 570.64 295.11 569.63 295.11 569.63 293.63 570.64 293.63 570.64 292.93 569.63 292.93 569.63 291.45 570.64 291.45 570.64 290.75 569.63 290.75 569.63 289.26 570.64 289.26 570.64 288.57 569.63 288.57 569.63 287.08 570.64 287.08 570.64 286.38 569.63 286.38 569.63 284.9 570.64 284.9 570.64 284.2 569.63 284.2 569.63 282.72 570.64 282.72 570.64 282.02 569.63 282.02 569.63 280.54 570.64 280.54 570.64 279.84 569.63 279.84 569.63 278.36 570.64 278.36 570.64 277.66 569.63 277.66 569.63 276.18 570.64 276.18 570.64 275.48 569.63 275.48 569.63 274 570.64 274 570.64 273.3 569.63 273.3 569.63 271.81 570.64 271.81 570.64 271.12 569.63 271.12 569.63 269.63 570.64 269.63 570.64 268.94 569.63 268.94 569.63 267.45 570.64 267.45 570.64 266.75 569.63 266.75 569.63 265.27 570.64 265.27 570.64 264.57 569.63 264.57 569.63 263.09 570.64 263.09 570.64 262.39 569.63 262.39 569.63 260.91 570.64 260.91 570.64 260.21 569.63 260.21 569.63 258.73 570.64 258.73" fill="#68e1fd"/><polygon points="548.92 262.39 548.92 261.11 547.7 261.11 547.7 256.23 544.04 256.23 544.04 254.94 540.43 254.94 540.43 253.03 540.43 249.77 539.04 249.77 539.04 253.03 536.65 253.03 536.65 254.94 532.87 254.94 532.87 256.23 529.21 256.23 529.21 261.11 527.98 261.11 527.98 262.39 529.21 262.39 529.21 263.32 527.98 263.32 527.98 264.6 529.21 264.6 529.21 265.53 527.98 265.53 527.98 266.81 529.21 266.81 529.21 267.74 527.98 267.74 527.98 269.02 529.21 269.02 529.21 269.95 527.98 269.95 527.98 271.23 529.21 271.23 529.21 272.16 527.98 272.16 527.98 273.44 529.21 273.44 529.21 274.37 527.98 274.37 527.98 275.65 529.21 275.65 529.21 276.67 527.98 276.67 527.98 277.95 529.21 277.95 529.21 278.97 527.98 278.97 527.98 280.25 529.21 280.25 529.21 281.27 527.98 281.27 527.98 282.55 529.21 282.55 529.21 283.56 527.98 283.56 527.98 284.84 529.21 284.84 529.21 285.86 527.98 285.86 527.98 287.14 529.21 287.14 529.21 288.16 527.98 288.16 527.98 289.44 529.21 289.44 529.21 290.46 527.98 290.46 527.98 291.74 529.21 291.74 529.21 292.75 527.98 292.75 527.98 294.03 529.21 294.03 529.21 295.05 527.98 295.05 527.98 296.33 529.21 296.33 529.21 297.35 527.98 297.35 527.98 298.63 529.21 298.63 529.21 299.68 527.98 299.68 527.98 300.96 529.21 300.96 547.7 300.96 548.92 300.96 548.92 299.68 547.7 299.68 547.7 298.63 548.92 298.63 548.92 297.35 547.7 297.35 547.7 296.33 548.92 296.33 548.92 295.05 547.7 295.05 547.7 294.03 548.92 294.03 548.92 292.75 547.7 292.75 547.7 291.74 548.92 291.74 548.92 290.46 547.7 290.46 547.7 289.44 548.92 289.44 548.92 288.16 547.7 288.16 547.7 287.14 548.92 287.14 548.92 285.86 547.7 285.86 547.7 284.84 548.92 284.84 548.92 283.56 547.7 283.56 547.7 282.55 548.92 282.55 548.92 281.27 547.7 281.27 547.7 280.25 548.92 280.25 548.92 278.97 547.7 278.97 547.7 277.95 548.92 277.95 548.92 276.67 547.7 276.67 547.7 275.65 548.92 275.65 548.92 274.37 547.7 274.37 547.7 273.44 548.92 273.44 548.92 272.16 547.7 272.16 547.7 271.23 548.92 271.23 548.92 269.95 547.7 269.95 547.7 269.02 548.92 269.02 548.92 267.74 547.7 267.74 547.7 266.81 548.92 266.81 548.92 265.53 547.7 265.53 547.7 264.6 548.92 264.6 548.92 263.32 547.7 263.32 547.7 262.39 548.92 262.39" fill="#68e1fd"/><path d="M485.91,304.62v-1.05h1.19v-1.4h-4.77s.35-4.07-2.55-4.07v-2h-3.26v2c-2.91,0-2.56,4.07-2.56,4.07h-4.77v1.4h1.19v1.05H467.5v1.16h2v42.4h17.27v-42.4h2v-1.16Z" transform="translate(104.65 -47.23)" opacity="0.58" fill="url(#linear-gradient-30)"/><polygon points="570.64 258.73 570.64 258.03 569.63 258.03 569.63 255.59 569.63 250.18 568.5 250.18 568.5 253.72 566.14 253.72 566.14 255.59 564.75 255.59 564.75 252.88 557.42 252.88 557.42 255.59 556.02 255.59 556.02 253.72 553.66 253.72 553.66 250.18 552.53 250.18 552.53 255.59 552.53 258.03 551.53 258.03 551.53 258.73 552.53 258.73 552.53 260.21 551.53 260.21 551.53 260.91 552.53 260.91 552.53 262.39 551.53 262.39 551.53 263.09 552.53 263.09 552.53 264.57 551.53 264.57 551.53 265.27 552.53 265.27 552.53 266.75 551.53 266.75 551.53 267.45 552.53 267.45 552.53 268.94 551.53 268.94 551.53 269.63 552.53 269.63 552.53 271.12 551.53 271.12 551.53 271.81 552.53 271.81 552.53 273.3 551.53 273.3 551.53 274 552.53 274 552.53 275.48 551.53 275.48 551.53 276.18 552.53 276.18 552.53 277.66 551.53 277.66 551.53 278.36 552.53 278.36 552.53 279.84 551.53 279.84 551.53 280.54 552.53 280.54 552.53 282.02 551.53 282.02 551.53 282.72 552.53 282.72 552.53 284.2 551.53 284.2 551.53 284.9 552.53 284.9 552.53 286.38 551.53 286.38 551.53 287.08 552.53 287.08 552.53 288.57 551.53 288.57 551.53 289.26 552.53 289.26 552.53 290.75 551.53 290.75 551.53 291.45 552.53 291.45 552.53 292.93 551.53 292.93 551.53 293.63 552.53 293.63 552.53 295.11 551.53 295.11 551.53 295.81 552.53 295.81 552.53 297.29 551.53 297.29 551.53 297.99 552.53 297.99 552.53 299.47 551.53 299.47 551.53 300.17 552.53 300.17 552.53 300.96 569.63 300.96 569.63 300.17 570.64 300.17 570.64 299.47 569.63 299.47 569.63 297.99 570.64 297.99 570.64 297.29 569.63 297.29 569.63 295.81 570.64 295.81 570.64 295.11 569.63 295.11 569.63 293.63 570.64 293.63 570.64 292.93 569.63 292.93 569.63 291.45 570.64 291.45 570.64 290.75 569.63 290.75 569.63 289.26 570.64 289.26 570.64 288.57 569.63 288.57 569.63 287.08 570.64 287.08 570.64 286.38 569.63 286.38 569.63 284.9 570.64 284.9 570.64 284.2 569.63 284.2 569.63 282.72 570.64 282.72 570.64 282.02 569.63 282.02 569.63 280.54 570.64 280.54 570.64 279.84 569.63 279.84 569.63 278.36 570.64 278.36 570.64 277.66 569.63 277.66 569.63 276.18 570.64 276.18 570.64 275.48 569.63 275.48 569.63 274 570.64 274 570.64 273.3 569.63 273.3 569.63 271.81 570.64 271.81 570.64 271.12 569.63 271.12 569.63 269.63 570.64 269.63 570.64 268.94 569.63 268.94 569.63 267.45 570.64 267.45 570.64 266.75 569.63 266.75 569.63 265.27 570.64 265.27 570.64 264.57 569.63 264.57 569.63 263.09 570.64 263.09 570.64 262.39 569.63 262.39 569.63 260.91 570.64 260.91 570.64 260.21 569.63 260.21 569.63 258.73 570.64 258.73" opacity="0.58" fill="url(#linear-gradient-31)"/><polygon points="548.92 262.39 548.92 261.11 547.7 261.11 547.7 256.23 544.04 256.23 544.04 254.94 540.43 254.94 540.43 253.03 540.43 249.77 539.04 249.77 539.04 253.03 536.65 253.03 536.65 254.94 532.87 254.94 532.87 256.23 529.21 256.23 529.21 261.11 527.98 261.11 527.98 262.39 529.21 262.39 529.21 263.32 527.98 263.32 527.98 264.6 529.21 264.6 529.21 265.53 527.98 265.53 527.98 266.81 529.21 266.81 529.21 267.74 527.98 267.74 527.98 269.02 529.21 269.02 529.21 269.95 527.98 269.95 527.98 271.23 529.21 271.23 529.21 272.16 527.98 272.16 527.98 273.44 529.21 273.44 529.21 274.37 527.98 274.37 527.98 275.65 529.21 275.65 529.21 276.67 527.98 276.67 527.98 277.95 529.21 277.95 529.21 278.97 527.98 278.97 527.98 280.25 529.21 280.25 529.21 281.27 527.98 281.27 527.98 282.55 529.21 282.55 529.21 283.56 527.98 283.56 527.98 284.84 529.21 284.84 529.21 285.86 527.98 285.86 527.98 287.14 529.21 287.14 529.21 288.16 527.98 288.16 527.98 289.44 529.21 289.44 529.21 290.46 527.98 290.46 527.98 291.74 529.21 291.74 529.21 292.75 527.98 292.75 527.98 294.03 529.21 294.03 529.21 295.05 527.98 295.05 527.98 296.33 529.21 296.33 529.21 297.35 527.98 297.35 527.98 298.63 529.21 298.63 529.21 299.68 527.98 299.68 527.98 300.96 529.21 300.96 547.7 300.96 548.92 300.96 548.92 299.68 547.7 299.68 547.7 298.63 548.92 298.63 548.92 297.35 547.7 297.35 547.7 296.33 548.92 296.33 548.92 295.05 547.7 295.05 547.7 294.03 548.92 294.03 548.92 292.75 547.7 292.75 547.7 291.74 548.92 291.74 548.92 290.46 547.7 290.46 547.7 289.44 548.92 289.44 548.92 288.16 547.7 288.16 547.7 287.14 548.92 287.14 548.92 285.86 547.7 285.86 547.7 284.84 548.92 284.84 548.92 283.56 547.7 283.56 547.7 282.55 548.92 282.55 548.92 281.27 547.7 281.27 547.7 280.25 548.92 280.25 548.92 278.97 547.7 278.97 547.7 277.95 548.92 277.95 548.92 276.67 547.7 276.67 547.7 275.65 548.92 275.65 548.92 274.37 547.7 274.37 547.7 273.44 548.92 273.44 548.92 272.16 547.7 272.16 547.7 271.23 548.92 271.23 548.92 269.95 547.7 269.95 547.7 269.02 548.92 269.02 548.92 267.74 547.7 267.74 547.7 266.81 548.92 266.81 548.92 265.53 547.7 265.53 547.7 264.6 548.92 264.6 548.92 263.32 547.7 263.32 547.7 262.39 548.92 262.39" opacity="0.58" fill="url(#linear-gradient-32)"/><g opacity="0.58"><rect x="531.1" y="257.25" width="15.31" height="0.72" fill="url(#linear-gradient-33)"/><rect x="531.1" y="258.75" width="15.31" height="0.72" fill="url(#linear-gradient-34)"/><rect x="531.1" y="260.37" width="15.31" height="0.72" fill="url(#linear-gradient-35)"/><rect x="531.1" y="261.86" width="15.31" height="0.72" fill="url(#linear-gradient-36)"/><rect x="531.1" y="263.48" width="15.31" height="0.72" fill="url(#linear-gradient-37)"/><rect x="531.1" y="264.98" width="15.31" height="0.72" fill="url(#linear-gradient-38)"/><rect x="531.1" y="266.6" width="15.31" height="0.72" fill="url(#linear-gradient-39)"/><rect x="531.1" y="268.1" width="15.31" height="0.72" fill="url(#linear-gradient-40)"/><rect x="531.1" y="269.72" width="15.31" height="0.72" fill="url(#linear-gradient-41)"/><rect x="531.1" y="271.21" width="15.31" height="0.72" fill="url(#linear-gradient-42)"/><rect x="531.1" y="272.83" width="15.31" height="0.72" fill="url(#linear-gradient-43)"/><rect x="531.1" y="274.33" width="15.31" height="0.72" fill="url(#linear-gradient-44)"/><rect x="531.1" y="275.95" width="15.31" height="0.72" fill="url(#linear-gradient-45)"/><rect x="531.1" y="277.45" width="15.31" height="0.72" fill="url(#linear-gradient-46)"/><rect x="531.1" y="279.07" width="15.31" height="0.72" fill="url(#linear-gradient-47)"/><rect x="531.1" y="280.56" width="15.31" height="0.72" fill="url(#linear-gradient-48)"/><rect x="531.1" y="282.18" width="15.31" height="0.72" fill="url(#linear-gradient-49)"/><rect x="531.1" y="283.68" width="15.31" height="0.72" fill="url(#linear-gradient-50)"/><rect x="531.1" y="285.3" width="15.31" height="0.72" fill="url(#linear-gradient-51)"/><rect x="531.1" y="286.8" width="15.31" height="0.72" fill="url(#linear-gradient-52)"/></g><g opacity="0.58"><rect x="553.47" y="257.25" width="15.31" height="0.72" fill="url(#linear-gradient-53)"/><rect x="553.47" y="258.75" width="15.31" height="0.72" fill="url(#linear-gradient-54)"/><rect x="553.47" y="260.37" width="15.31" height="0.72" fill="url(#linear-gradient-55)"/><rect x="553.47" y="261.86" width="15.31" height="0.72" fill="url(#linear-gradient-56)"/><rect x="553.47" y="263.48" width="15.31" height="0.72" fill="url(#linear-gradient-57)"/><rect x="553.47" y="264.98" width="15.31" height="0.72" fill="url(#linear-gradient-58)"/><rect x="553.47" y="266.6" width="15.31" height="0.72" fill="url(#linear-gradient-59)"/><rect x="553.47" y="268.1" width="15.31" height="0.72" fill="url(#linear-gradient-60)"/><rect x="553.47" y="269.72" width="15.31" height="0.72" fill="url(#linear-gradient-61)"/><rect x="553.47" y="271.21" width="15.31" height="0.72" fill="url(#linear-gradient-62)"/><rect x="553.47" y="272.83" width="15.31" height="0.72" fill="url(#linear-gradient-63)"/><rect x="553.47" y="274.33" width="15.31" height="0.72" fill="url(#linear-gradient-64)"/><rect x="553.47" y="275.95" width="15.31" height="0.72" fill="url(#linear-gradient-65)"/><rect x="553.47" y="277.45" width="15.31" height="0.72" fill="url(#linear-gradient-66)"/><rect x="553.47" y="279.07" width="15.31" height="0.72" fill="url(#linear-gradient-67)"/><rect x="553.47" y="280.56" width="15.31" height="0.72" fill="url(#linear-gradient-68)"/><rect x="553.47" y="282.18" width="15.31" height="0.72" fill="url(#linear-gradient-69)"/><rect x="553.47" y="283.68" width="15.31" height="0.72" fill="url(#linear-gradient-70)"/><rect x="553.47" y="285.3" width="15.31" height="0.72" fill="url(#linear-gradient-71)"/><rect x="553.47" y="286.8" width="15.31" height="0.72" fill="url(#linear-gradient-72)"/></g><polygon points="285.5 214.2 285.5 212.45 283.9 212.45 283.9 204.63 281.75 203.29 281.75 194.04 280.35 194.04 280.35 202.33 263.77 199.1 263.77 204.69 261.1 204.63 261.1 300.96 283.9 300.96 283.9 298.13 285.5 298.13 285.5 296.39 283.9 296.39 283.9 294.91 285.5 294.91 285.5 293.16 283.9 293.16 283.9 291.68 285.5 291.68 285.5 289.93 283.9 289.93 283.9 288.45 285.5 288.45 285.5 286.7 283.9 286.7 283.9 285.22 285.5 285.22 285.5 283.48 283.9 283.48 283.9 281.99 285.5 281.99 285.5 280.25 283.9 280.25 283.9 278.76 285.5 278.76 285.5 277.02 283.9 277.02 283.9 275.54 285.5 275.54 285.5 273.79 283.9 273.79 283.9 272.31 285.5 272.31 285.5 270.56 283.9 270.56 283.9 269.08 285.5 269.08 285.5 267.33 283.9 267.33 283.9 265.85 285.5 265.85 285.5 264.11 283.9 264.11 283.9 262.62 285.5 262.62 285.5 260.88 283.9 260.88 283.9 259.39 285.5 259.39 285.5 257.65 283.9 257.65 283.9 256.17 285.5 256.17 285.5 254.42 283.9 254.42 283.9 252.94 285.5 252.94 285.5 251.19 283.9 251.19 283.9 249.71 285.5 249.71 285.5 247.97 283.9 247.97 283.9 246.48 285.5 246.48 285.5 244.74 283.9 244.74 283.9 243.25 285.5 243.25 285.5 241.51 283.9 241.51 283.9 240.03 285.5 240.03 285.5 238.28 283.9 238.28 283.9 236.8 285.5 236.8 285.5 235.05 283.9 235.05 283.9 233.57 285.5 233.57 285.5 231.82 283.9 231.82 283.9 230.34 285.5 230.34 285.5 228.59 283.9 228.59 283.9 227.11 285.5 227.11 285.5 225.37 283.9 225.37 283.9 223.88 285.5 223.88 285.5 222.14 283.9 222.14 283.9 220.66 285.5 220.66 285.5 218.91 283.9 218.91 283.9 217.43 285.5 217.43 285.5 215.68 283.9 215.68 283.9 214.2 285.5 214.2" fill="#68e1fd"/><polygon points="285.5 214.2 285.5 212.45 283.9 212.45 283.9 204.63 281.75 203.29 281.75 194.04 280.35 194.04 280.35 202.33 263.77 199.1 263.77 204.69 261.1 204.63 261.1 300.96 283.9 300.96 283.9 298.13 285.5 298.13 285.5 296.39 283.9 296.39 283.9 294.91 285.5 294.91 285.5 293.16 283.9 293.16 283.9 291.68 285.5 291.68 285.5 289.93 283.9 289.93 283.9 288.45 285.5 288.45 285.5 286.7 283.9 286.7 283.9 285.22 285.5 285.22 285.5 283.48 283.9 283.48 283.9 281.99 285.5 281.99 285.5 280.25 283.9 280.25 283.9 278.76 285.5 278.76 285.5 277.02 283.9 277.02 283.9 275.54 285.5 275.54 285.5 273.79 283.9 273.79 283.9 272.31 285.5 272.31 285.5 270.56 283.9 270.56 283.9 269.08 285.5 269.08 285.5 267.33 283.9 267.33 283.9 265.85 285.5 265.85 285.5 264.11 283.9 264.11 283.9 262.62 285.5 262.62 285.5 260.88 283.9 260.88 283.9 259.39 285.5 259.39 285.5 257.65 283.9 257.65 283.9 256.17 285.5 256.17 285.5 254.42 283.9 254.42 283.9 252.94 285.5 252.94 285.5 251.19 283.9 251.19 283.9 249.71 285.5 249.71 285.5 247.97 283.9 247.97 283.9 246.48 285.5 246.48 285.5 244.74 283.9 244.74 283.9 243.25 285.5 243.25 285.5 241.51 283.9 241.51 283.9 240.03 285.5 240.03 285.5 238.28 283.9 238.28 283.9 236.8 285.5 236.8 285.5 235.05 283.9 235.05 283.9 233.57 285.5 233.57 285.5 231.82 283.9 231.82 283.9 230.34 285.5 230.34 285.5 228.59 283.9 228.59 283.9 227.11 285.5 227.11 285.5 225.37 283.9 225.37 283.9 223.88 285.5 223.88 285.5 222.14 283.9 222.14 283.9 220.66 285.5 220.66 285.5 218.91 283.9 218.91 283.9 217.43 285.5 217.43 285.5 215.68 283.9 215.68 283.9 214.2 285.5 214.2" opacity="0.58" fill="url(#linear-gradient-73)"/><rect x="261.67" y="208.81" width="16.65" height="1.68" fill="url(#linear-gradient-74)"/><rect x="261.67" y="212.29" width="16.65" height="1.68" fill="url(#linear-gradient-75)"/><rect x="261.67" y="216.04" width="16.65" height="1.68" fill="url(#linear-gradient-76)"/><rect x="261.67" y="219.52" width="16.65" height="1.68" fill="url(#linear-gradient-77)"/><rect x="261.67" y="223.28" width="16.65" height="1.68" fill="url(#linear-gradient-78)"/><rect x="261.67" y="226.75" width="16.65" height="1.68" fill="url(#linear-gradient-79)"/><rect x="261.67" y="230.51" width="16.65" height="1.68" fill="url(#linear-gradient-80)"/><rect x="261.67" y="233.98" width="16.65" height="1.68" fill="url(#linear-gradient-81)"/><rect x="261.67" y="237.74" width="16.65" height="1.68" fill="url(#linear-gradient-82)"/><rect x="261.67" y="241.22" width="16.65" height="1.68" fill="url(#linear-gradient-83)"/><rect x="261.67" y="244.97" width="16.65" height="1.68" fill="url(#linear-gradient-84)"/><rect x="261.67" y="248.45" width="16.65" height="1.68" fill="url(#linear-gradient-85)"/><rect x="261.67" y="252.2" width="16.65" height="1.68" fill="url(#linear-gradient-86)"/><rect x="261.67" y="255.68" width="16.65" height="1.68" fill="url(#linear-gradient-87)"/><rect x="261.67" y="259.44" width="16.65" height="1.68" fill="url(#linear-gradient-88)"/><rect x="261.67" y="262.91" width="16.65" height="1.68" fill="url(#linear-gradient-89)"/><rect x="261.67" y="266.67" width="16.65" height="1.68" fill="url(#linear-gradient-90)"/><rect x="261.67" y="270.14" width="16.65" height="1.68" fill="url(#linear-gradient-91)"/><rect x="261.67" y="273.9" width="16.65" height="1.68" fill="url(#linear-gradient-92)"/><rect x="261.67" y="277.38" width="16.65" height="1.68" fill="url(#linear-gradient-93)"/><rect x="339.96" y="253.89" width="24.81" height="0.8" fill="url(#linear-gradient-94)"/><rect x="339.96" y="255.53" width="24.81" height="0.8" fill="url(#linear-gradient-95)"/><rect x="339.96" y="257.31" width="24.81" height="0.8" fill="url(#linear-gradient-96)"/><rect x="339.96" y="258.96" width="24.81" height="0.8" fill="url(#linear-gradient-97)"/><rect x="339.96" y="260.74" width="24.81" height="0.8" fill="url(#linear-gradient-98)"/><rect x="339.96" y="262.39" width="24.81" height="0.8" fill="url(#linear-gradient-99)"/><rect x="339.96" y="264.17" width="24.81" height="0.8" fill="url(#linear-gradient-100)"/><rect x="339.96" y="265.82" width="24.81" height="0.8" fill="url(#linear-gradient-101)"/><rect x="339.96" y="267.6" width="24.81" height="0.8" fill="url(#linear-gradient-102)"/><rect x="339.96" y="269.25" width="24.81" height="0.8" fill="url(#linear-gradient-103)"/><rect x="339.96" y="271.03" width="24.81" height="0.8" fill="url(#linear-gradient-104)"/><rect x="339.96" y="272.68" width="24.81" height="0.8" fill="url(#linear-gradient-105)"/><rect x="339.96" y="274.46" width="24.81" height="0.8" fill="url(#linear-gradient-106)"/><rect x="339.96" y="276.1" width="24.81" height="0.8" fill="url(#linear-gradient-107)"/><rect x="339.96" y="277.88" width="24.81" height="0.8" fill="url(#linear-gradient-108)"/><rect x="339.96" y="279.53" width="24.81" height="0.8" fill="url(#linear-gradient-109)"/><rect x="339.96" y="281.31" width="24.81" height="0.8" fill="url(#linear-gradient-110)"/><rect x="339.96" y="282.96" width="24.81" height="0.8" fill="url(#linear-gradient-111)"/><rect x="339.96" y="284.74" width="24.81" height="0.8" fill="url(#linear-gradient-112)"/><rect x="339.96" y="286.39" width="24.81" height="0.8" fill="url(#linear-gradient-113)"/><polygon points="331.28 191.95 329.36 191.95 327.26 191.95 327.26 191.12 327.26 188.72 325.95 188.72 325.95 189.92 324.65 189.92 324.65 191.12 318.63 191.12 318.63 191.95 315.4 191.95 315.4 300.96 329.36 300.96 329.36 194.92 331.28 194.92 331.28 191.95" fill="#68e1fd"/><polygon points="434.69 196.72 434.69 210.05 433.7 210.05 433.7 212.07 431.72 212.07 431.72 214.84 428.44 214.84 428.44 216.85 423.22 216.85 421.2 218.94 421.2 300.96 435.68 300.96 435.68 218.94 435.68 214.84 435.68 212.07 435.68 210.05 435.68 196.72 434.69 196.72" opacity="0.58" fill="url(#linear-gradient-114)"/><polygon points="338.3 226.66 338.3 223.89 341.56 223.89 369.36 251.94 369.36 300.96 338.3 300.96 338.3 226.66" opacity="0.58" fill="url(#linear-gradient-115)"/><polygon points="375.98 217.89 394.16 217.89 396.31 219.3 396.31 300.96 375.98 300.96 375.98 217.89" opacity="0.58" fill="url(#linear-gradient-116)"/><rect x="377.97" y="220.75" width="16.65" height="1.05" fill="#68e1fd"/><rect x="377.97" y="222.92" width="16.65" height="1.05" fill="#68e1fd"/><rect x="377.97" y="225.26" width="16.65" height="1.05" fill="#68e1fd"/><rect x="377.97" y="227.43" width="16.65" height="1.05" fill="#68e1fd"/><rect x="377.97" y="229.77" width="16.65" height="1.05" fill="#68e1fd"/><rect x="377.97" y="231.93" width="16.65" height="1.05" fill="#68e1fd"/><rect x="377.97" y="234.28" width="16.65" height="1.05" fill="#68e1fd"/><rect x="377.97" y="236.44" width="16.65" height="1.05" fill="#68e1fd"/><rect x="377.97" y="238.78" width="16.65" height="1.05" fill="#68e1fd"/><rect x="377.97" y="240.95" width="16.65" height="1.05" fill="#68e1fd"/><rect x="377.97" y="243.29" width="16.65" height="1.05" fill="#68e1fd"/><rect x="377.97" y="245.46" width="16.65" height="1.05" fill="#68e1fd"/><rect x="377.97" y="247.8" width="16.65" height="1.05" fill="#68e1fd"/><rect x="377.97" y="249.97" width="16.65" height="1.05" fill="#68e1fd"/><rect x="377.97" y="252.31" width="16.65" height="1.05" fill="#68e1fd"/><rect x="377.97" y="254.47" width="16.65" height="1.05" fill="#68e1fd"/><rect x="377.97" y="256.81" width="16.65" height="1.05" fill="#68e1fd"/><rect x="377.97" y="258.98" width="16.65" height="1.05" fill="#68e1fd"/><rect x="377.97" y="261.32" width="16.65" height="1.05" fill="#68e1fd"/><rect x="377.97" y="263.49" width="16.65" height="1.05" fill="#68e1fd"/><path d="M322.88,280.18V275.1h-1.13V258.26H321v.53h-3.35V257l-5.82-5.82v-.93l.56-.55-1.06-1.06-1.06,1.06.55.55v.93L305,257v1.79h-3.34v-.53h-.75V275.1h-1.14v5.08h-.9v68h24.92v-68ZM305.1,260.63h-3.28v-1.21h3.28Zm15.73,0h-3.27v-1.21h3.27Z" transform="translate(104.65 -47.23)" opacity="0.58" fill="url(#linear-gradient-117)"/><path d="M332.08,275.36v-2.44c0-.88.26-1.75.87-1.75v-3.92a21.53,21.53,0,0,1,3.49-.44V265.5h1.22v-4.8h5.56l1.71,1.72v1.13h-1.6v2.56h4.6v-1.34l2.38,1.57v6.11h.93v75.73H332.08Z" transform="translate(104.65 -47.23)" opacity="0.58" fill="url(#linear-gradient-118)"/><polygon points="331.28 191.95 329.36 191.95 327.26 191.95 327.26 191.12 327.26 188.72 325.95 188.72 325.95 189.92 324.65 189.92 324.65 191.12 318.63 191.12 318.63 191.95 315.4 191.95 315.4 300.96 329.36 300.96 329.36 194.92 331.28 194.92 331.28 191.95" opacity="0.58" fill="url(#linear-gradient-119)"/><polygon points="199.42 265.33 199.42 263.73 198.06 263.73 195.79 263.73 195.79 260.47 189.97 260.47 189.97 263.73 187.7 263.73 186.34 263.73 186.34 265.33 187.7 265.33 187.7 266.61 186.34 266.61 186.34 268.21 187.7 268.21 187.7 269.49 186.34 269.49 186.34 271.09 187.7 271.09 187.7 272.37 186.34 272.37 186.34 273.97 187.7 273.97 187.7 275.25 186.34 275.25 186.34 276.85 187.7 276.85 187.7 278.13 186.34 278.13 186.34 279.73 187.7 279.73 187.7 281 186.34 281 186.34 282.6 187.7 282.6 187.7 283.88 186.34 283.88 186.34 285.48 187.7 285.48 187.7 286.76 186.34 286.76 186.34 288.36 187.7 288.36 187.7 289.64 186.34 289.64 186.34 291.24 187.7 291.24 187.7 292.52 186.34 292.52 186.34 294.12 187.7 294.12 187.7 295.4 186.34 295.4 186.34 297 187.7 297 187.7 298.28 186.34 298.28 186.34 299.88 187.7 299.88 187.7 300.96 198.06 300.96 198.06 299.88 199.42 299.88 199.42 298.28 198.06 298.28 198.06 297 199.42 297 199.42 295.4 198.06 295.4 198.06 294.12 199.42 294.12 199.42 292.52 198.06 292.52 198.06 291.24 199.42 291.24 199.42 289.64 198.06 289.64 198.06 288.36 199.42 288.36 199.42 286.76 198.06 286.76 198.06 285.48 199.42 285.48 199.42 283.88 198.06 283.88 198.06 282.6 199.42 282.6 199.42 281 198.06 281 198.06 279.73 199.42 279.73 199.42 278.13 198.06 278.13 198.06 276.85 199.42 276.85 199.42 275.25 198.06 275.25 198.06 273.97 199.42 273.97 199.42 272.37 198.06 272.37 198.06 271.09 199.42 271.09 199.42 269.49 198.06 269.49 198.06 268.21 199.42 268.21 199.42 266.61 198.06 266.61 198.06 265.33 199.42 265.33" fill="#68e1fd"/><polygon points="225 274.2 225 272.82 221.6 272.82 221.6 274.2 217.67 274.2 217.67 271.44 211.74 271.44 211.74 274.2 209.64 274.2 209.64 272.82 205.54 272.82 205.54 274.2 202.08 274.2 202.08 300.96 227.56 300.96 227.56 274.2 225 274.2" fill="#68e1fd"/><polygon points="247.64 249.42 247.64 248.14 249.39 248.14 249.39 245.99 234.55 245.99 234.55 248.14 236.3 248.14 236.3 249.42 232.02 249.42 232.02 300.96 251.92 300.96 251.92 249.42 247.64 249.42" fill="#68e1fd"/><polygon points="289.12 280.71 289.12 276.76 286.09 276.76 286.09 272.8 283.71 272.8 283.71 270.24 278.76 270.24 278.76 265.59 276.84 265.59 276.84 264.08 275.39 264.08 275.39 265.59 274.02 265.59 274.02 264.08 272.57 264.08 272.57 265.59 271.2 265.59 271.2 264.08 269.75 264.08 269.75 265.59 267.83 265.59 267.83 270.24 262.88 270.24 262.88 272.8 260.5 272.8 260.5 276.76 257.47 276.76 257.47 280.71 255.41 280.71 255.41 300.96 291.18 300.96 291.18 280.71 289.12 280.71" fill="#68e1fd"/><path d="M236,320.13a12.57,12.57,0,0,0-12.74,12.39h1.52v15.66h22.45V332.52h1.51A12.57,12.57,0,0,0,236,320.13Z" transform="translate(104.65 -47.23)" fill="#68e1fd"/><polygon points="446.8 274.66 446.8 273.29 444.59 273.29 440.17 273.29 440.17 270.13 430.39 270.13 430.39 273.29 426.67 273.29 426.67 274.66 426.67 283.97 426.67 292.48 426.67 300.96 444.59 300.96 444.59 292.48 446.8 292.48 446.8 283.97 444.59 283.97 444.59 274.66 446.8 274.66" fill="#68e1fd"/><polygon points="123.82 236.63 123.82 233.82 121.06 233.82 121.06 231.57 107.09 231.57 107.09 233.82 104.33 233.82 104.33 236.63 103.13 236.63 103.13 300.96 125.02 300.96 125.02 236.63 123.82 236.63" fill="#68e1fd"/><path d="M75.16,290.56v-1.28s-7.83-1.53-11.2,1h-2.4v2.57H60.47v10.54H58.84v14.94h-2v14.95H54.27v14.94H78.1V290.56Z" transform="translate(104.65 -47.23)" fill="#68e1fd"/><polygon points="146.83 237.65 146.83 234.11 141.37 234.11 141.37 237.65 134.09 237.65 134.09 300.96 154.12 300.96 154.12 237.65 146.83 237.65" fill="#68e1fd"/><path d="M219.92,211.37v-.67l.4-.29v-1s-6.59-2.54-8.9-3.24-2.37-1.49-2.34-1.81A10.81,10.81,0,0,0,211,203a11.89,11.89,0,0,0-1.84-.64,1.21,1.21,0,0,0-1.36-1.22v-.89h-.5v.89h-1.57a1.83,1.83,0,0,0-.59-1.62l-.7-9.13-.69,9.13c-.31.21-.59.66-.59,1.62h-1.57v-.89h-.5v.89a1.22,1.22,0,0,0-1.37,1.22,12.1,12.1,0,0,0-1.83.64,10.52,10.52,0,0,0,1.9,1.34c0,.32,0,1.1-2.34,1.81s-8.89,3.24-8.89,3.24v1l.39.29v.67l-3.33,1.11v.37c0,.21,1.57,1,4.77,1a2.92,2.92,0,0,1,.63,1V216L189.28,217a6.66,6.66,0,0,0,3.83,1.48h2.78s3.62,26.33,3.62,28.58.21,19.58-.86,27.18c-.83,6-4.06,33.14-5.42,44.63-1.57.5-2.49,1.11-2.49,1.77s.77,1.17,2.09,1.64c-.13,1.12-.2,1.75-.2,1.75l-2.86,24.11h2.68l1.71-17.3s.36-3.29.86-8a40.93,40.93,0,0,0,6.2.75v24.51h6.42v-5.07h8.28l.5,5.07h2.67l-2.85-24.11s-.08-.63-.21-1.75c1.33-.47,2.1-1,2.1-1.64s-.93-1.27-2.5-1.77c-1.36-11.49-4.58-38.68-5.42-44.63-1.07-7.6-.86-24.94-.86-27.18S213,218.52,213,218.52h2.78a6.65,6.65,0,0,0,3.82-1.48L217.85,216v-1.17a2.92,2.92,0,0,1,.63-1c3.2,0,4.77-.76,4.77-1v-.37Zm-9.89,78h-2.39v-8.84H209C209.36,284.2,209.75,287.28,210,289.39Zm.36,2.58c.09.67.36,3,.72,6.15h-3.47v-7.39h2.58C210.29,291.26,210.35,291.68,210.39,292Zm-2.75,16.22h4.59c.27,2.45.54,5,.81,7.39h-5.4Zm0-1.34v-7.39h3.62c.25,2.21.53,4.74.82,7.39ZM198,218.52h3.21v70.87h-2.39a257.12,257.12,0,0,0,2.39-31.58C201.22,243,199,222.48,198,218.52Zm-2.49,99.83c1.17-10.68,2.7-24.57,3-26.38,0-.29.1-.71.17-1.24h2.57v27A44,44,0,0,0,195.52,318.35Zm19.19,12.53.21,2.16h-7.28v-7.39h6.5C214.48,328.82,214.71,330.88,214.71,330.88Zm-7.07,10.89v-7.39h7.41l.73,7.39ZM214,324.31h-6.35v-.64a40.77,40.77,0,0,0,6.2-.75C213.89,323.4,213.94,323.86,214,324.31Zm-6.35-6.62v-.77h5.55l.15,1.43A43.81,43.81,0,0,0,207.64,317.69Zm0-59.88c0,7.35.58,15.1,1.21,21.4h-1.21V218.52h3.21C209.89,222.48,207.64,243,207.64,257.81Z" transform="translate(104.65 -47.23)" fill="#68e1fd"/><path d="M219.92,211.37v-.67l.4-.29v-1s-6.59-2.54-8.9-3.24-2.37-1.49-2.34-1.81A10.81,10.81,0,0,0,211,203a11.89,11.89,0,0,0-1.84-.64,1.21,1.21,0,0,0-1.36-1.22v-.89h-.5v.89h-1.57a1.83,1.83,0,0,0-.59-1.62l-.7-9.13-.69,9.13c-.31.21-.59.66-.59,1.62h-1.57v-.89h-.5v.89a1.22,1.22,0,0,0-1.37,1.22,12.1,12.1,0,0,0-1.83.64,10.52,10.52,0,0,0,1.9,1.34c0,.32,0,1.1-2.34,1.81s-8.89,3.24-8.89,3.24v1l.39.29v.67l-3.33,1.11v.37c0,.21,1.57,1,4.77,1a2.92,2.92,0,0,1,.63,1V216L189.28,217a6.66,6.66,0,0,0,3.83,1.48h2.78s3.62,26.33,3.62,28.58.21,19.58-.86,27.18c-.83,6-4.06,33.14-5.42,44.63-1.57.5-2.49,1.11-2.49,1.77s.77,1.17,2.09,1.64c-.13,1.12-.2,1.75-.2,1.75l-2.86,24.11h2.68l1.71-17.3s.36-3.29.86-8a40.93,40.93,0,0,0,6.2.75v24.51h6.42v-5.07h8.28l.5,5.07h2.67l-2.85-24.11s-.08-.63-.21-1.75c1.33-.47,2.1-1,2.1-1.64s-.93-1.27-2.5-1.77c-1.36-11.49-4.58-38.68-5.42-44.63-1.07-7.6-.86-24.94-.86-27.18S213,218.52,213,218.52h2.78a6.65,6.65,0,0,0,3.82-1.48L217.85,216v-1.17a2.92,2.92,0,0,1,.63-1c3.2,0,4.77-.76,4.77-1v-.37Zm-9.89,78h-2.39v-8.84H209C209.36,284.2,209.75,287.28,210,289.39Zm.36,2.58c.09.67.36,3,.72,6.15h-3.47v-7.39h2.58C210.29,291.26,210.35,291.68,210.39,292Zm-2.75,16.22h4.59c.27,2.45.54,5,.81,7.39h-5.4Zm0-1.34v-7.39h3.62c.25,2.21.53,4.74.82,7.39ZM198,218.52h3.21v70.87h-2.39a257.12,257.12,0,0,0,2.39-31.58C201.22,243,199,222.48,198,218.52Zm-2.49,99.83c1.17-10.68,2.7-24.57,3-26.38,0-.29.1-.71.17-1.24h2.57v27A44,44,0,0,0,195.52,318.35Zm19.19,12.53.21,2.16h-7.28v-7.39h6.5C214.48,328.82,214.71,330.88,214.71,330.88Zm-7.07,10.89v-7.39h7.41l.73,7.39ZM214,324.31h-6.35v-.64a40.77,40.77,0,0,0,6.2-.75C213.89,323.4,213.94,323.86,214,324.31Zm-6.35-6.62v-.77h5.55l.15,1.43A43.81,43.81,0,0,0,207.64,317.69Zm0-59.88c0,7.35.58,15.1,1.21,21.4h-1.21V218.52h3.21C209.89,222.48,207.64,243,207.64,257.81Z" transform="translate(104.65 -47.23)" opacity="0.58" fill="url(#linear-gradient-120)"/><path d="M287.94,311.75v-1.33h-8.76v1.42c-1.14,0-2.25.05-3.32.09v-2.28H267.1v2.64c-2.93.15-4.69.28-4.69.28v35.61h48.92V312.57S300.6,311.8,287.94,311.75Z" transform="translate(104.65 -47.23)" fill="#68e1fd"/><polygon points="199.42 265.33 199.42 263.73 198.06 263.73 195.79 263.73 195.79 260.47 189.97 260.47 189.97 263.73 187.7 263.73 186.34 263.73 186.34 265.33 187.7 265.33 187.7 266.61 186.34 266.61 186.34 268.21 187.7 268.21 187.7 269.49 186.34 269.49 186.34 271.09 187.7 271.09 187.7 272.37 186.34 272.37 186.34 273.97 187.7 273.97 187.7 275.25 186.34 275.25 186.34 276.85 187.7 276.85 187.7 278.13 186.34 278.13 186.34 279.73 187.7 279.73 187.7 281 186.34 281 186.34 282.6 187.7 282.6 187.7 283.88 186.34 283.88 186.34 285.48 187.7 285.48 187.7 286.76 186.34 286.76 186.34 288.36 187.7 288.36 187.7 289.64 186.34 289.64 186.34 291.24 187.7 291.24 187.7 292.52 186.34 292.52 186.34 294.12 187.7 294.12 187.7 295.4 186.34 295.4 186.34 297 187.7 297 187.7 298.28 186.34 298.28 186.34 299.88 187.7 299.88 187.7 300.96 198.06 300.96 198.06 299.88 199.42 299.88 199.42 298.28 198.06 298.28 198.06 297 199.42 297 199.42 295.4 198.06 295.4 198.06 294.12 199.42 294.12 199.42 292.52 198.06 292.52 198.06 291.24 199.42 291.24 199.42 289.64 198.06 289.64 198.06 288.36 199.42 288.36 199.42 286.76 198.06 286.76 198.06 285.48 199.42 285.48 199.42 283.88 198.06 283.88 198.06 282.6 199.42 282.6 199.42 281 198.06 281 198.06 279.73 199.42 279.73 199.42 278.13 198.06 278.13 198.06 276.85 199.42 276.85 199.42 275.25 198.06 275.25 198.06 273.97 199.42 273.97 199.42 272.37 198.06 272.37 198.06 271.09 199.42 271.09 199.42 269.49 198.06 269.49 198.06 268.21 199.42 268.21 199.42 266.61 198.06 266.61 198.06 265.33 199.42 265.33" opacity="0.58" fill="url(#linear-gradient-121)"/><polygon points="225 274.2 225 272.82 221.6 272.82 221.6 274.2 217.67 274.2 217.67 271.44 211.74 271.44 211.74 274.2 209.64 274.2 209.64 272.82 205.54 272.82 205.54 274.2 202.08 274.2 202.08 300.96 227.56 300.96 227.56 274.2 225 274.2" opacity="0.58" fill="url(#linear-gradient-122)"/><polygon points="247.64 249.42 247.64 248.14 249.39 248.14 249.39 245.99 234.55 245.99 234.55 248.14 236.3 248.14 236.3 249.42 232.02 249.42 232.02 300.96 251.92 300.96 251.92 249.42 247.64 249.42" opacity="0.58" fill="url(#linear-gradient-123)"/><polygon points="289.12 280.71 289.12 276.76 286.09 276.76 286.09 272.8 283.71 272.8 283.71 270.24 278.76 270.24 278.76 265.59 276.84 265.59 276.84 264.08 275.39 264.08 275.39 265.59 274.02 265.59 274.02 264.08 272.57 264.08 272.57 265.59 271.2 265.59 271.2 264.08 269.75 264.08 269.75 265.59 267.83 265.59 267.83 270.24 262.88 270.24 262.88 272.8 260.5 272.8 260.5 276.76 257.47 276.76 257.47 280.71 255.41 280.71 255.41 300.96 291.18 300.96 291.18 280.71 289.12 280.71" opacity="0.58" fill="url(#linear-gradient-124)"/><path d="M236,320.13a12.57,12.57,0,0,0-12.74,12.39h1.52v15.66h22.45V332.52h1.51A12.57,12.57,0,0,0,236,320.13Z" transform="translate(104.65 -47.23)" opacity="0.58" fill="url(#linear-gradient-125)"/><polygon points="446.8 274.66 446.8 273.29 444.59 273.29 440.17 273.29 440.17 270.13 430.39 270.13 430.39 273.29 426.67 273.29 426.67 274.66 426.67 283.97 426.67 292.48 426.67 300.96 444.59 300.96 444.59 292.48 446.8 292.48 446.8 283.97 444.59 283.97 444.59 274.66 446.8 274.66" opacity="0.58" fill="url(#linear-gradient-126)"/><polygon points="123.82 236.63 123.82 233.82 121.06 233.82 121.06 231.57 107.09 231.57 107.09 233.82 104.33 233.82 104.33 236.63 103.13 236.63 103.13 300.96 125.02 300.96 125.02 236.63 123.82 236.63" opacity="0.58" fill="url(#linear-gradient-127)"/><path d="M75.16,290.56v-1.28s-7.83-1.53-11.2,1h-2.4v2.57H60.47v10.54H58.84v14.94h-2v14.95H54.27v14.94H78.1V290.56Z" transform="translate(104.65 -47.23)" opacity="0.58" fill="url(#linear-gradient-128)"/><polygon points="146.83 237.65 146.83 234.11 141.37 234.11 141.37 237.65 134.09 237.65 134.09 300.96 154.12 300.96 154.12 237.65 146.83 237.65" opacity="0.58" fill="url(#linear-gradient-129)"/><path d="M287.94,311.75v-1.33h-8.76v1.42c-1.14,0-2.25.05-3.32.09v-2.28H267.1v2.64c-2.93.15-4.69.28-4.69.28v35.61h48.92V312.57S300.6,311.8,287.94,311.75Z" transform="translate(104.65 -47.23)" opacity="0.58" fill="url(#linear-gradient-130)"/><polygon points="617.36 277.24 617.36 275.91 627.72 275.91 627.72 273.38 650.1 273.38 650.1 271.84 660.71 271.84 660.71 273.38 663.61 273.38 663.61 275.91 663.61 276.47 663.61 277.24 663.61 278.57 663.61 300.96 615.5 300.96 615.5 277.24 617.36 277.24" fill="#68e1fd"/><polygon points="617.36 277.24 617.36 275.91 627.72 275.91 627.72 273.38 650.1 273.38 650.1 271.84 660.71 271.84 660.71 273.38 663.61 273.38 663.61 275.91 663.61 276.47 663.61 277.24 663.61 278.57 663.61 300.96 615.5 300.96 615.5 277.24 617.36 277.24" opacity="0.58" fill="url(#linear-gradient-131)"/><polygon points="598.09 281 598.09 279.74 594.13 279.74 593.27 279.74 593.27 281 589.15 281 589.15 279.74 585.18 279.74 584.33 279.74 584.33 281 578.4 281 578.4 279.74 575.3 279.74 574.63 279.74 574.63 281 566.85 281 566.85 300.96 615.5 300.96 615.5 281 598.09 281" fill="#68e1fd"/><polygon points="555.19 278.61 555.19 276.08 549.04 276.08 549.04 278.61 547.67 278.61 545.12 282.2 535.51 282.2 535.51 287.47 515.49 287.47 515.49 300.96 535.51 300.96 535.51 300.85 559.11 300.85 559.11 282.2 556.57 278.61 555.19 278.61" fill="#68e1fd"/><polygon points="598.09 281 598.09 279.74 594.13 279.74 593.27 279.74 593.27 281 589.15 281 589.15 279.74 585.18 279.74 584.33 279.74 584.33 281 578.4 281 578.4 279.74 575.3 279.74 574.63 279.74 574.63 281 566.85 281 566.85 300.96 615.5 300.96 615.5 281 598.09 281" opacity="0.58" fill="url(#linear-gradient-132)"/><polygon points="555.19 278.61 555.19 276.08 549.04 276.08 549.04 278.61 547.67 278.61 545.12 282.2 535.51 282.2 535.51 287.47 515.49 287.47 515.49 300.96 535.51 300.96 535.51 300.85 559.11 300.85 559.11 282.2 556.57 278.61 555.19 278.61" opacity="0.58" fill="url(#linear-gradient-133)"/><rect x="102.59" y="290.45" width="564.59" height="9.28" fill="#68e1fd"/><rect x="102.59" y="291.68" width="564.59" height="9.28" fill="#68e1fd"/><path d="M474.79,335.94v-2h-2.62L467.5,338h-1.75v-2.91H464v3.2h-1.46V341h-6.12V338H450V333.9h-3.78V338h-7.88c-4.37,0-6.12,5.83-6.12,5.83h-2c0,1.17,3.79,4.37,3.79,4.37h48.68v-4.37Zm-12.53,9.33H445.35v-2.33h16.91Z" transform="translate(104.65 -47.23)" fill="#68e1fd"/></g><g opacity="0.58"><rect x="136.01" y="244.42" width="16.65" height="1.05" fill="url(#linear-gradient-134)"/><rect x="136.01" y="246.59" width="16.65" height="1.05" fill="url(#linear-gradient-135)"/><rect x="136.01" y="248.93" width="16.65" height="1.05" fill="url(#linear-gradient-136)"/><rect x="136.01" y="251.09" width="16.65" height="1.05" fill="url(#linear-gradient-137)"/><rect x="136.01" y="253.43" width="16.65" height="1.05" fill="url(#linear-gradient-138)"/><rect x="136.01" y="255.6" width="16.65" height="1.05" fill="url(#linear-gradient-139)"/><rect x="136.01" y="257.94" width="16.65" height="1.05" fill="url(#linear-gradient-140)"/><rect x="136.01" y="260.11" width="16.65" height="1.05" fill="url(#linear-gradient-141)"/><rect x="136.01" y="262.45" width="16.65" height="1.05" fill="url(#linear-gradient-142)"/><rect x="136.01" y="264.62" width="16.65" height="1.05" fill="url(#linear-gradient-143)"/><rect x="136.01" y="266.96" width="16.65" height="1.05" fill="url(#linear-gradient-144)"/><rect x="136.01" y="269.12" width="16.65" height="1.05" fill="url(#linear-gradient-145)"/><rect x="136.01" y="271.47" width="16.65" height="1.05" fill="url(#linear-gradient-146)"/><rect x="136.01" y="273.63" width="16.65" height="1.05" fill="url(#linear-gradient-147)"/><rect x="136.01" y="275.97" width="16.65" height="1.05" fill="url(#linear-gradient-148)"/><rect x="136.01" y="278.14" width="16.65" height="1.05" fill="url(#linear-gradient-149)"/><rect x="136.01" y="280.48" width="16.65" height="1.05" fill="url(#linear-gradient-150)"/><rect x="136.01" y="282.65" width="16.65" height="1.05" fill="url(#linear-gradient-151)"/><rect x="136.01" y="284.99" width="16.65" height="1.05" fill="url(#linear-gradient-152)"/><rect x="136.01" y="287.16" width="16.65" height="1.05" fill="url(#linear-gradient-153)"/></g><g opacity="0.58"><rect x="166.74" y="248.83" width="14.4" height="1" fill="url(#linear-gradient-154)"/><rect x="166.74" y="250.9" width="14.4" height="1" fill="url(#linear-gradient-155)"/><rect x="166.74" y="253.13" width="14.4" height="1" fill="url(#linear-gradient-156)"/><rect x="166.74" y="255.19" width="14.4" height="1" fill="url(#linear-gradient-157)"/><rect x="166.74" y="257.42" width="14.4" height="1" fill="url(#linear-gradient-158)"/><rect x="166.74" y="259.49" width="14.4" height="1" fill="url(#linear-gradient-159)"/><rect x="166.74" y="261.72" width="14.4" height="1" fill="url(#linear-gradient-160)"/><rect x="166.74" y="263.78" width="14.4" height="1" fill="url(#linear-gradient-161)"/><rect x="166.74" y="266.01" width="14.4" height="1" fill="url(#linear-gradient-162)"/><rect x="166.74" y="268.07" width="14.4" height="1" fill="url(#linear-gradient-163)"/><rect x="166.74" y="270.3" width="14.4" height="1" fill="url(#linear-gradient-164)"/><rect x="166.74" y="272.37" width="14.4" height="1" fill="url(#linear-gradient-165)"/><rect x="166.74" y="274.6" width="14.4" height="1" fill="url(#linear-gradient-166)"/><rect x="166.74" y="276.66" width="14.4" height="1" fill="url(#linear-gradient-167)"/><rect x="166.74" y="278.89" width="14.4" height="1" fill="url(#linear-gradient-168)"/><rect x="166.74" y="280.96" width="14.4" height="1" fill="url(#linear-gradient-169)"/><rect x="166.74" y="283.19" width="14.4" height="1" fill="url(#linear-gradient-170)"/><rect x="166.74" y="285.25" width="14.4" height="1" fill="url(#linear-gradient-171)"/><rect x="166.74" y="287.48" width="14.4" height="1" fill="url(#linear-gradient-172)"/><rect x="166.74" y="289.54" width="14.4" height="1" fill="url(#linear-gradient-173)"/></g><g opacity="0.58"><rect x="234.22" y="254.44" width="15.95" height="0.86" fill="url(#linear-gradient-174)"/><rect x="234.22" y="256.23" width="15.95" height="0.86" fill="url(#linear-gradient-175)"/><rect x="234.22" y="258.16" width="15.95" height="0.86" fill="url(#linear-gradient-176)"/><rect x="234.22" y="259.94" width="15.95" height="0.86" fill="url(#linear-gradient-177)"/><rect x="234.22" y="261.87" width="15.95" height="0.86" fill="url(#linear-gradient-178)"/><rect x="234.22" y="263.66" width="15.95" height="0.86" fill="url(#linear-gradient-179)"/><rect x="234.22" y="265.59" width="15.95" height="0.86" fill="url(#linear-gradient-180)"/><rect x="234.22" y="267.38" width="15.95" height="0.86" fill="url(#linear-gradient-181)"/><rect x="234.22" y="269.31" width="15.95" height="0.86" fill="url(#linear-gradient-182)"/><rect x="234.22" y="271.09" width="15.95" height="0.86" fill="url(#linear-gradient-183)"/><rect x="234.22" y="273.02" width="15.95" height="0.86" fill="url(#linear-gradient-184)"/><rect x="234.22" y="274.81" width="15.95" height="0.86" fill="url(#linear-gradient-185)"/><rect x="234.22" y="276.74" width="15.95" height="0.86" fill="url(#linear-gradient-186)"/><rect x="234.22" y="278.53" width="15.95" height="0.86" fill="url(#linear-gradient-187)"/><rect x="234.22" y="280.46" width="15.95" height="0.86" fill="url(#linear-gradient-188)"/><rect x="234.22" y="282.25" width="15.95" height="0.86" fill="url(#linear-gradient-189)"/><rect x="234.22" y="284.18" width="15.95" height="0.86" fill="url(#linear-gradient-190)"/><rect x="234.22" y="285.96" width="15.95" height="0.86" fill="url(#linear-gradient-191)"/><rect x="234.22" y="287.89" width="15.95" height="0.86" fill="url(#linear-gradient-192)"/><rect x="234.22" y="289.68" width="15.95" height="0.86" fill="url(#linear-gradient-193)"/></g><g opacity="0.58"><rect x="350.77" y="271.06" width="42.86" height="0.51" fill="url(#linear-gradient-194)"/><rect x="350.77" y="272.11" width="42.86" height="0.51" fill="url(#linear-gradient-195)"/><rect x="350.77" y="273.25" width="42.86" height="0.51" fill="url(#linear-gradient-196)"/><rect x="350.77" y="274.31" width="42.86" height="0.51" fill="url(#linear-gradient-197)"/><rect x="350.77" y="275.44" width="42.86" height="0.51" fill="url(#linear-gradient-198)"/><rect x="350.77" y="276.5" width="42.86" height="0.51" fill="url(#linear-gradient-199)"/><rect x="350.77" y="277.63" width="42.86" height="0.51" fill="url(#linear-gradient-200)"/><rect x="350.77" y="278.69" width="42.86" height="0.51" fill="url(#linear-gradient-201)"/><rect x="350.77" y="279.82" width="42.86" height="0.51" fill="url(#linear-gradient-202)"/><rect x="350.77" y="280.88" width="42.86" height="0.51" fill="url(#linear-gradient-203)"/><rect x="350.77" y="282.01" width="42.86" height="0.51" fill="url(#linear-gradient-204)"/><rect x="350.77" y="283.07" width="42.86" height="0.51" fill="url(#linear-gradient-205)"/><rect x="350.77" y="284.2" width="42.86" height="0.51" fill="url(#linear-gradient-206)"/><rect x="350.77" y="285.26" width="42.86" height="0.51" fill="url(#linear-gradient-207)"/><rect x="350.77" y="286.39" width="42.86" height="0.51" fill="url(#linear-gradient-208)"/><rect x="350.77" y="287.45" width="42.86" height="0.51" fill="url(#linear-gradient-209)"/><rect x="350.77" y="288.58" width="42.86" height="0.51" fill="url(#linear-gradient-210)"/><rect x="350.77" y="289.64" width="42.86" height="0.51" fill="url(#linear-gradient-211)"/><rect x="350.77" y="290.78" width="42.86" height="0.51" fill="url(#linear-gradient-212)"/><rect x="350.77" y="291.83" width="42.86" height="0.51" fill="url(#linear-gradient-213)"/></g></svg>