<svg id="Layer_1" data-name="Layer 1" xmlns="http://www.w3.org/2000/svg" xmlns:xlink="http://www.w3.org/1999/xlink" viewBox="0 0 568.34 394.63"><defs><linearGradient id="linear-gradient" x1="486.23" y1="368.11" x2="484.54" y2="149.62" gradientUnits="userSpaceOnUse"><stop offset="0.01"/><stop offset="0.13" stop-opacity="0.69"/><stop offset="1" stop-opacity="0"/></linearGradient><linearGradient id="linear-gradient-2" x1="478.98" y1="354.62" x2="543.17" y2="194.32" xlink:href="#linear-gradient"/><linearGradient id="linear-gradient-3" x1="334.84" y1="218.36" x2="350.89" y2="356.89" xlink:href="#linear-gradient"/><linearGradient id="linear-gradient-4" x1="417.29" y1="254.68" x2="421.42" y2="324.51" xlink:href="#linear-gradient"/><linearGradient id="linear-gradient-5" x1="272.27" y1="438.96" x2="306.9" y2="101.93" xlink:href="#linear-gradient"/><linearGradient id="linear-gradient-6" x1="135.29" y1="467.23" x2="72.57" y2="200.06" xlink:href="#linear-gradient"/><linearGradient id="linear-gradient-7" x1="217.6" y1="294.95" x2="220.22" y2="235.63" xlink:href="#linear-gradient"/><linearGradient id="linear-gradient-8" x1="520.29" y1="266.59" x2="523.67" y2="208.77" xlink:href="#linear-gradient"/><linearGradient id="linear-gradient-9" x1="460.5" y1="184.46" x2="459.75" y2="98.49" xlink:href="#linear-gradient"/><linearGradient id="linear-gradient-10" x1="460.2" y1="151.64" x2="458.94" y2="119.82" xlink:href="#linear-gradient"/><linearGradient id="linear-gradient-11" x1="478.33" y1="157.39" x2="480.58" y2="224.21" xlink:href="#linear-gradient"/><linearGradient id="linear-gradient-12" x1="478.3" y1="223.86" x2="492.66" y2="154.03" xlink:href="#linear-gradient"/><linearGradient id="linear-gradient-13" x1="482.61" y1="209.51" x2="517.56" y2="209.51" gradientUnits="userSpaceOnUse"><stop offset="0.02" stop-color="#fff" stop-opacity="0"/><stop offset="0.44" stop-color="#fff" stop-opacity="0.39"/><stop offset="0.68" stop-color="#fff" stop-opacity="0.68"/><stop offset="1" stop-color="#fff"/></linearGradient><linearGradient id="linear-gradient-14" x1="427.77" y1="213.92" x2="427.49" y2="134.24" xlink:href="#linear-gradient"/><linearGradient id="linear-gradient-15" x1="360.25" y1="265.55" x2="364" y2="359.03" xlink:href="#linear-gradient"/><linearGradient id="linear-gradient-16" x1="372.79" y1="264.71" x2="368.57" y2="409.13" xlink:href="#linear-gradient-13"/><linearGradient id="linear-gradient-17" x1="382.8" y1="287.05" x2="477.78" y2="235.24" xlink:href="#linear-gradient-13"/><linearGradient id="linear-gradient-18" x1="387.52" y1="328.72" x2="406.67" y2="209.72" xlink:href="#linear-gradient"/><linearGradient id="linear-gradient-19" x1="414.01" y1="155.16" x2="403.31" y2="180.12" xlink:href="#linear-gradient"/><linearGradient id="linear-gradient-20" x1="490.03" y1="268.55" x2="492.28" y2="341.38" xlink:href="#linear-gradient"/><linearGradient id="linear-gradient-21" x1="498.66" y1="268.28" x2="500.91" y2="341.11" xlink:href="#linear-gradient"/><linearGradient id="linear-gradient-22" x1="507.28" y1="268.02" x2="509.54" y2="340.85" xlink:href="#linear-gradient"/><linearGradient id="linear-gradient-23" x1="169.87" y1="248.75" x2="244.58" y2="208.21" xlink:href="#linear-gradient"/><linearGradient id="linear-gradient-24" x1="144.87" y1="312.03" x2="226.8" y2="480.12" xlink:href="#linear-gradient"/><linearGradient id="linear-gradient-25" x1="116.4" y1="247.82" x2="337.14" y2="247.45" xlink:href="#linear-gradient"/><linearGradient id="linear-gradient-26" x1="116.41" y1="253.73" x2="337.15" y2="253.36" xlink:href="#linear-gradient"/><linearGradient id="linear-gradient-27" x1="116.42" y1="260.68" x2="337.16" y2="260.31" xlink:href="#linear-gradient"/><linearGradient id="linear-gradient-28" x1="116.43" y1="267.82" x2="337.18" y2="267.45" xlink:href="#linear-gradient"/><linearGradient id="linear-gradient-29" x1="116.44" y1="273.92" x2="337.19" y2="273.55" xlink:href="#linear-gradient"/><linearGradient id="linear-gradient-30" x1="116.46" y1="281.81" x2="337.2" y2="281.44" xlink:href="#linear-gradient"/><linearGradient id="linear-gradient-31" x1="116.47" y1="290.54" x2="337.21" y2="290.17" xlink:href="#linear-gradient"/><linearGradient id="linear-gradient-32" x1="116.48" y1="297.58" x2="337.23" y2="297.21" xlink:href="#linear-gradient"/><linearGradient id="linear-gradient-33" x1="116.49" y1="302.65" x2="337.23" y2="302.28" xlink:href="#linear-gradient"/><linearGradient id="linear-gradient-34" x1="134.35" y1="395.94" x2="190.29" y2="358.78" xlink:href="#linear-gradient"/><linearGradient id="linear-gradient-35" x1="155.57" y1="295.46" x2="190.48" y2="284.76" xlink:href="#linear-gradient-13"/><linearGradient id="linear-gradient-36" x1="181.31" y1="408.81" x2="219.6" y2="366.77" xlink:href="#linear-gradient"/><linearGradient id="linear-gradient-37" x1="264.86" y1="398.37" x2="247.12" y2="286.02" xlink:href="#linear-gradient"/><linearGradient id="linear-gradient-38" x1="304.69" y1="48.26" x2="304.03" y2="72.29" gradientTransform="matrix(1.01, -0.09, 0, 1, -66.83, 301.52)" gradientUnits="userSpaceOnUse"><stop offset="0.23" stop-opacity="0"/><stop offset="1"/></linearGradient><linearGradient id="linear-gradient-39" x1="304.97" y1="53.24" x2="304.31" y2="77.26" xlink:href="#linear-gradient-38"/><linearGradient id="linear-gradient-40" x1="306.17" y1="59.47" x2="305.51" y2="83.49" xlink:href="#linear-gradient-38"/><linearGradient id="linear-gradient-41" x1="307.83" y1="68.43" x2="307.18" y2="92.46" xlink:href="#linear-gradient-38"/><linearGradient id="linear-gradient-42" x1="308.12" y1="73.41" x2="307.46" y2="97.44" xlink:href="#linear-gradient-38"/><linearGradient id="linear-gradient-43" x1="309.31" y1="79.64" x2="308.66" y2="103.67" xlink:href="#linear-gradient-38"/><linearGradient id="linear-gradient-44" x1="312.64" y1="87.25" x2="311.99" y2="111.28" xlink:href="#linear-gradient-38"/><linearGradient id="linear-gradient-45" x1="312.93" y1="92.22" x2="312.27" y2="116.25" xlink:href="#linear-gradient-38"/><linearGradient id="linear-gradient-46" x1="314.12" y1="98.45" x2="313.47" y2="122.48" xlink:href="#linear-gradient-38"/><linearGradient id="linear-gradient-47" x1="199.13" y1="470.72" x2="207.02" y2="356.41" xlink:href="#linear-gradient"/><linearGradient id="linear-gradient-48" x1="218.54" y1="286.37" x2="217.22" y2="342.87" xlink:href="#linear-gradient"/><linearGradient id="linear-gradient-49" x1="189.2" y1="285.69" x2="187.88" y2="342.19" xlink:href="#linear-gradient"/><linearGradient id="linear-gradient-50" x1="203.33" y1="286.02" x2="202.01" y2="342.52" xlink:href="#linear-gradient"/><linearGradient id="linear-gradient-51" x1="181.78" y1="300.12" x2="226.69" y2="299.42" xlink:href="#linear-gradient"/><linearGradient id="linear-gradient-52" x1="245.44" y1="251.01" x2="246.95" y2="150.03" xlink:href="#linear-gradient-13"/><linearGradient id="linear-gradient-53" x1="363.87" y1="250.78" x2="439.92" y2="617.95" xlink:href="#linear-gradient"/><linearGradient id="linear-gradient-54" x1="366.85" y1="305.58" x2="354.66" y2="483.87" xlink:href="#linear-gradient"/><linearGradient id="linear-gradient-55" x1="200.68" y1="297.69" x2="212.57" y2="363.44" xlink:href="#linear-gradient"/><linearGradient id="linear-gradient-56" x1="137.37" y1="499.29" x2="151.23" y2="350.92" xlink:href="#linear-gradient"/><linearGradient id="linear-gradient-57" x1="292.63" y1="318.42" x2="229.56" y2="389" xlink:href="#linear-gradient"/><linearGradient id="linear-gradient-58" x1="241.2" y1="444.41" x2="290.38" y2="436.9" xlink:href="#linear-gradient"/><linearGradient id="linear-gradient-59" x1="210.28" y1="450.54" x2="265.74" y2="439.84" xlink:href="#linear-gradient"/><linearGradient id="linear-gradient-60" x1="296.6" y1="517.23" x2="385.3" y2="390.52" xlink:href="#linear-gradient"/><linearGradient id="linear-gradient-61" x1="361.72" y1="491.07" x2="361.72" y2="491.07" xlink:href="#linear-gradient"/><linearGradient id="linear-gradient-62" x1="298.71" y1="511.9" x2="372.71" y2="406.18" xlink:href="#linear-gradient"/><linearGradient id="linear-gradient-64" x1="157.47" y1="221.67" x2="379.52" y2="221.67" xlink:href="#linear-gradient-13"/><linearGradient id="linear-gradient-65" x1="482.36" y1="201.24" x2="558.75" y2="201.24" xlink:href="#linear-gradient-13"/><linearGradient id="linear-gradient-66" x1="2.49" y1="229.94" x2="151.05" y2="229.94" xlink:href="#linear-gradient-13"/><linearGradient id="linear-gradient-67" x1="160.39" y1="302.73" x2="187.14" y2="347.78" xlink:href="#linear-gradient"/><linearGradient id="linear-gradient-68" x1="157.15" y1="330.69" x2="207.97" y2="299.16" xlink:href="#linear-gradient-13"/><linearGradient id="linear-gradient-69" x1="200.31" y1="312.59" x2="207.29" y2="326.89" xlink:href="#linear-gradient"/><linearGradient id="linear-gradient-70" x1="210.27" y1="357.55" x2="209.71" y2="304.62" xlink:href="#linear-gradient-13"/><linearGradient id="linear-gradient-71" x1="219.97" y1="248.7" x2="218.96" y2="292.19" gradientTransform="matrix(0.99, -0.01, 0, 1, 42.98, 41.87)" xlink:href="#linear-gradient"/><linearGradient id="linear-gradient-72" x1="195.39" y1="248.17" x2="194.38" y2="291.7" gradientTransform="matrix(0.99, -0.01, 0, 1, 42.98, 41.87)" xlink:href="#linear-gradient"/><linearGradient id="linear-gradient-73" x1="207.22" y1="248.42" x2="206.21" y2="291.95" gradientTransform="matrix(0.99, -0.01, 0, 1, 42.98, 41.87)" xlink:href="#linear-gradient"/><linearGradient id="linear-gradient-74" x1="184.94" y1="372.8" x2="224.74" y2="339.01" xlink:href="#linear-gradient"/><linearGradient id="linear-gradient-75" x1="193.75" y1="301.79" x2="250.43" y2="276.64" xlink:href="#linear-gradient-13"/><linearGradient id="linear-gradient-76" x1="232.1" y1="399.48" x2="154.95" y2="548.71" xlink:href="#linear-gradient"/><linearGradient id="linear-gradient-77" x1="212.75" y1="318" x2="210.91" y2="310.17" xlink:href="#linear-gradient"/><linearGradient id="linear-gradient-78" x1="77.95" y1="274.6" x2="97.09" y2="428.14" xlink:href="#linear-gradient"/><linearGradient id="linear-gradient-79" x1="278.6" y1="448.3" x2="319.43" y2="427.89" xlink:href="#linear-gradient-13"/><linearGradient id="linear-gradient-80" x1="255.7" y1="461.52" x2="327.35" y2="418.98" xlink:href="#linear-gradient"/><linearGradient id="linear-gradient-81" x1="197.34" y1="443.54" x2="254.01" y2="426.03" xlink:href="#linear-gradient-13"/><linearGradient id="linear-gradient-82" x1="372.12" y1="245.89" x2="369.3" y2="353.45" xlink:href="#linear-gradient"/><linearGradient id="linear-gradient-83" x1="274.52" y1="155.22" x2="546.16" y2="155.22" xlink:href="#linear-gradient-13"/></defs><title>The Great Wall</title><path d="M563.56,295a208.73,208.73,0,0,1-7.93,28.17l-.18.49a1.07,1.07,0,0,1-.07.19c-13,36.08-35.7,68.68-64.15,94.56-.61.56-1.23,1.11-1.85,1.65A262.78,262.78,0,0,1,465.61,439a304.87,304.87,0,0,1-79.89,39.89L382,480.07q-6.9,2.21-13.9,4.11c-1.46.4-2.93.79-4.4,1.17-13.84,3.56-28,6.3-42.31,6.1l-1.77-.05h-.12c-.88,0-1.75-.07-2.62-.12s-2-.13-2.95-.23c-2.08-.18-4.16-.43-6.22-.73q-4.08-.6-8.1-1.49c-4.58-1-9.11-2.23-13.61-3.64-1.2-.37-2.4-.75-3.59-1.15-5.3-1.75-10.56-3.7-15.76-5.73q-2.57-1-5.1-2l0,0q-2.94-1.16-5.87-2.34l-6.87-2.79-3.2-1.32c-2.23-.92-4.47-1.85-6.7-2.8l-.62-.26-.33-.14-.49-.21-3.1-1.31c-2.77-1.18-5.53-2.38-8.29-3.58l-.53-.24-.8-.35c-1.32-.57-2.63-1.16-3.95-1.75-1-.42-1.93-.85-2.9-1.3-.39-.16-.78-.34-1.18-.52-1.51-.68-3-1.36-4.52-2.06-2.57-1.16-5.13-2.35-7.68-3.55l-3-1.42q-2.14-1-4.27-2-7.36-3.53-14.65-7.21c-2.15-1.1-4.31-2.2-6.45-3.31q-11.31-5.87-22.39-12.14c-2.11-1.19-4.2-2.39-6.29-3.61s-4.35-2.54-6.51-3.83a548.45,548.45,0,0,1-52.08-35.16c-15.21-11.64-31.05-23.72-45-36.94C32.29,335.25,22,323.61,14.41,310.82,2.94,291.6-2.6,269.76,2.49,244c.06-.33.13-.67.2-1a146.25,146.25,0,0,1,15.85-41.86,158,158,0,0,1,38-45.08c45.44-36.79,105.5-49.89,163.7-55.43a796.66,796.66,0,0,1,179.06,3.19,392.88,392.88,0,0,1,52.05,10h0c30.5,8.32,59.05,21.71,80.28,44.65a122.07,122.07,0,0,1,14.5,19.21,131.86,131.86,0,0,1,9.61,19q1.61,3.88,3,7.88a155,155,0,0,1,6.1,23.9c.46,2.63.86,5.27,1.18,7.93.18,1.39.33,2.78.47,4.18A181.86,181.86,0,0,1,563.56,295Z" transform="translate(-0.59 -97.02)" fill="#68e1fd" opacity="0.44" style="isolation:isolate"/><path d="M517.31,242.62c-3.91-1.81-4.73-6.94-8.82-8.28-3.7-1.2-10.5,1.24-14.38,1.48-6.7.41-13.15,2.58-19.46,4.87a443.63,443.63,0,0,0-72.83,34.23q45.48,24.4,93.08,44.54c15.46,6.54,31.86,12.85,48.55,11a15.18,15.18,0,0,0,7.14-2.2c2.22-1.55,3.61-4,4.83-6.43a116.66,116.66,0,0,0,11.72-64.3c-.3-2.92,3.6-19.62.76-21.26-3.08-1.77-10.06,2.53-13.41,3.31C543.47,242.19,527.59,247.4,517.31,242.62Z" transform="translate(-0.59 -97.02)" fill="#68e1fd"/><path d="M567.14,257.58a116.86,116.86,0,0,1-9.78,60.24c-.62,1.37-1.27,2.71-1.94,4.05-1.22,2.42-2.61,4.88-4.83,6.43a15.18,15.18,0,0,1-7.14,2.2c-16.69,1.81-33.1-4.5-48.56-11q-47.52-20.11-93.08-44.54a444.11,444.11,0,0,1,72.84-34.23c6.31-2.29,12.76-4.46,19.46-4.87,3.88-.23,10.68-2.68,14.38-1.48,4.09,1.34,4.91,6.47,8.81,8.28,10.28,4.79,26.17-.43,37.19-3,3.35-.78,10.33-5.08,13.4-3.3,2.73,1.56-.75,17-.77,20.84C567.12,257.32,567.13,257.46,567.14,257.58Z" transform="translate(-0.59 -97.02)" fill="url(#linear-gradient)"/><path d="M557.36,317.82a51.22,51.22,0,0,1-6.4-.75l-27.69-4.42a11,11,0,0,1-4.19-1.26,13.78,13.78,0,0,1-3-3.13,27.76,27.76,0,0,0-13-8.83,24.47,24.47,0,0,1,14.53-3.05c2.81-5.54,9.89-7.27,16.1-7.38s12.79.68,18.33-2.12l-36.4-.4a8.66,8.66,0,0,0-2.54.22c-1,.3-1.88,1-2.9,1.19s-2.36-.24-2.48-1.29l-9.91,4.15a9.89,9.89,0,0,1-3.12.91,12.56,12.56,0,0,1-4.2-.87c-6.45-1.93-13.54-1.07-19.89-3.3-4.28-1.51-7.95-4.32-11.91-6.52s-8.63-3.8-13-2.59c2.81-6.75,10.18-10.42,17.29-12.09a56.44,56.44,0,0,1,6.82-1.15c3.25-.34,6.65-.42,9.57-1.91,2.05-1,4.18-2.8,6.36-2.06.78.27,1.43.85,2.21,1.15,1.94.75,4.09-.39,5.69-1.73s3.12-3,5.16-3.39,4.62,1.21,4.1,3.23a30.15,30.15,0,0,1,9.41-1.46l8.67-.42c2.2-.11,4.72-.09,6.19,1.56.48.54.82,1.24,1.46,1.59,1.52.84,3.12-.83,4.65-1.67,1.92-1.06,4.27-.76,6.45-.58a49.45,49.45,0,0,0,14.36-.89c3.45-.72,7.92-3.19,11.52-2.06a7.8,7.8,0,0,1,1.49.66c0,.16,0,.3,0,.42A116.86,116.86,0,0,1,557.36,317.82Z" transform="translate(-0.59 -97.02)" fill="url(#linear-gradient-2)"/><path d="M400.28,256.51a142.59,142.59,0,0,0-33.37-2.63c-1.5.05-3.18.22-4.16,1.35a7.2,7.2,0,0,0-1.16,2.79c-1.8,6-7.52,9.87-12.88,13.16-4.17,2.55-8.68,5.16-13.56,4.91-3.07-.16-6-1.44-9.08-1.47a23.64,23.64,0,0,0-7.37,1.6A221,221,0,0,1,272.5,286c-1.05,1.34-.07,3.3,1.13,4.51,5.79,5.84,15.13,5.35,23.24,6.69,6.22,1,12.18,3.34,18.41,4.23,6.93,1,14,.2,21,0,14.86-.48,31,1.29,43.35-7,5.47-3.69,9.57-9,14.15-13.78s11.81-8.22,15.62-13.33C414.36,260.58,405.6,257.57,400.28,256.51Z" transform="translate(-0.59 -97.02)" fill="url(#linear-gradient-3)"/><path d="M429.65,265.72l-10.94,2.78a12.9,12.9,0,0,0-4.67,1.88c-1,.73-1.7,1.73-2.63,2.52a15.81,15.81,0,0,1-5.85,2.7L395,278.82a50.94,50.94,0,0,1,14.12,1.63c2.67.7,5.38,1.62,8.12,1.27,1.28-.17,2.52-.61,3.8-.79,4.1-.58,8,1.53,12.1,2.3a1.91,1.91,0,0,0,1.25-.06,2,2,0,0,0,.76-1l3.71-7.48c1.46-3,4.84-8.65,1.29-11.26C436.9,261.09,432.71,264.94,429.65,265.72Z" transform="translate(-0.59 -97.02)" fill="#68e1fd"/><path d="M429.65,265.72l-10.94,2.78a12.9,12.9,0,0,0-4.67,1.88c-1,.73-1.7,1.73-2.63,2.52a15.81,15.81,0,0,1-5.85,2.7L395,278.82a50.94,50.94,0,0,1,14.12,1.63c2.67.7,5.38,1.62,8.12,1.27,1.28-.17,2.52-.61,3.8-.79,4.1-.58,8,1.53,12.1,2.3a1.91,1.91,0,0,0,1.25-.06,2,2,0,0,0,.76-1l3.71-7.48c1.46-3,4.84-8.65,1.29-11.26C436.9,261.09,432.71,264.94,429.65,265.72Z" transform="translate(-0.59 -97.02)" fill="url(#linear-gradient-4)"/><path d="M555.45,323.69a1.07,1.07,0,0,1-.07.19c-13,36.08-35.7,68.68-64.15,94.56-.61.56-1.23,1.11-1.85,1.65A262.78,262.78,0,0,1,465.61,439l-10.18-.17c-18.73-.31-38.21-.46-55.14,7.55-10.9,5.16-20,13.39-29.42,21.09q-2.46,2-5,3.95c-2.12,1.64-4.27,3.22-6.48,4.7a67.66,67.66,0,0,1-13.75,7.32c-8.52,3.25-17.44,4.22-26.54,4.1-1.19,0-2.39,0-3.58-.09l-1.79-.09c-.65,0-1.29-.07-1.94-.12-1.93-.12-3.87-.29-5.81-.48-2.7-.25-5.4-.56-8.1-.88l-1-.12c-4.73-.57-9.44-1.17-14.1-1.65l-.41,0c-17.2-1.74-34.72-1.76-52.23-1.65h-.73l-8.86.06h-.51c-5.22,0-10.45.05-15.64,0-1.73,0-3.45,0-5.18-.07-1,0-2,0-3.05-.06-1.91,0-3.82-.1-5.72-.17l-2.09-.08c-1.09,0-2.17-.09-3.26-.15-1.62-.08-3.23-.17-4.84-.27l-1.73-.12-2.31-.17c-1.5-.12-3-.25-4.5-.39l-2-.2c-1.13-.11-2.27-.24-3.39-.37l-2.06-.25-.83-.11-2.49-.34c-.87-.12-1.75-.25-2.62-.39-1.67-.26-3.32-.53-5-.84l-1.35-.25-1.6-.31c-.79-.15-1.57-.31-2.35-.48l-.69-.15-1.77-.4c-.48-.1-.95-.21-1.42-.33l-1.62-.39c-.54-.13-1.09-.27-1.63-.42l-.63-.16-1.25-.33c-2-.55-4-1.15-6-1.79l-1.42-.46q-2.31-.75-4.61-1.61c-.75-.27-1.49-.55-2.23-.84l-.28-.11c-.8-.3-1.58-.62-2.37-.95s-1.68-.7-2.51-1.06c-9.75-4.26-19.15-9.86-26-18-6.09-7.17-10-16-15.59-23.5-.49-.67-1-1.33-1.54-2-13.66-16.58-37.79-24.46-45.66-44.45-2.69-6.86-3.08-14.31-3.23-21.8-.21-10.21,0-20.47-4.65-29.36-2.41-4.6-7.38-9-8.75-14a6.32,6.32,0,0,1,.21-4.55c1.27-2.51,4.72-3.1,8.61-.58,5.23-2.37,10.87-3.67,16.47-4.95l32.89-7.51a53.27,53.27,0,0,0,11.44-3.55c2.53-1.23,4.85-2.85,7.33-4.18,10.54-5.65,23.08-5.66,35-5.53l86.63.93c21.31.23,42.67.47,63.86,2.86,20.07,2.26,40.11,6.47,60.27,5.27,18.41-1.09,36.24-6.65,54.51-9.12,15.4-2.09,31.94-1.69,45.77,4.85a50,50,0,0,1,7.43,4.34,3.29,3.29,0,0,1,.47-2.66,4.9,4.9,0,0,1,2.38-1.74,8.63,8.63,0,0,1,7.31.63,30.22,30.22,0,0,1,4.27,3.68l.13.13c2,1.93,4,3.79,6.64,4.46a8.32,8.32,0,0,0,1.29.23c3.26.34,6.55-1.05,9.77-2.09l.72-.22a34,34,0,0,1,6.22-1.25,34.57,34.57,0,0,1,4.54-.2h0c.83,0,1.66.05,2.48.12,7.19.57,14.35,3,21.2,6.24q2,1,4,2c2.34,1.22,4.63,2.52,6.86,3.85h0l.12.07,1.11.66c5.9,3.57,11.88,7.36,18.06,10.56a81.7,81.7,0,0,0,11.49,5Z" transform="translate(-0.59 -97.02)" fill="#68e1fd"/><path d="M555.45,323.69a1.07,1.07,0,0,1-.07.19c-13,36.08-35.7,68.68-64.15,94.56-.61.56-1.23,1.11-1.85,1.65A262.78,262.78,0,0,1,465.61,439l-10.18-.17c-18.73-.31-38.21-.46-55.14,7.55-10.9,5.16-20,13.39-29.42,21.09q-2.46,2-5,3.95c-2.12,1.64-4.27,3.22-6.48,4.7a67.66,67.66,0,0,1-13.75,7.32c-8.52,3.25-17.44,4.22-26.54,4.1-1.19,0-2.39,0-3.58-.09l-1.79-.09c-.65,0-1.29-.07-1.94-.12-1.93-.12-3.87-.29-5.81-.48-2.7-.25-5.4-.56-8.1-.88l-1-.12c-4.73-.57-9.44-1.17-14.1-1.65l-.41,0c-17.2-1.74-34.72-1.76-52.23-1.65h-.73l-8.86.06h-.51c-5.22,0-10.45.05-15.64,0-1.73,0-3.45,0-5.18-.07-1,0-2,0-3.05-.06-1.91,0-3.82-.1-5.72-.17l-2.09-.08c-1.09,0-2.17-.09-3.26-.15-1.62-.08-3.23-.17-4.84-.27l-1.73-.12-2.31-.17c-1.5-.12-3-.25-4.5-.39l-2-.2c-1.13-.11-2.27-.24-3.39-.37l-2.06-.25-.83-.11-2.49-.34c-.87-.12-1.75-.25-2.62-.39-1.67-.26-3.32-.53-5-.84l-1.35-.25-1.6-.31c-.79-.15-1.57-.31-2.35-.48l-.69-.15-1.77-.4c-.48-.1-.95-.21-1.42-.33l-1.62-.39c-.54-.13-1.09-.27-1.63-.42l-.63-.16-1.25-.33c-2-.55-4-1.15-6-1.79l-1.42-.46q-2.31-.75-4.61-1.61c-.75-.27-1.49-.55-2.23-.84l-.28-.11c-.8-.3-1.58-.62-2.37-.95s-1.68-.7-2.51-1.06c-9.75-4.26-19.15-9.86-26-18-6.09-7.17-10-16-15.59-23.5-.49-.67-1-1.33-1.54-2-13.66-16.58-37.79-24.46-45.66-44.45-2.69-6.86-3.08-14.31-3.23-21.8-.21-10.21,0-20.47-4.65-29.36-2.41-4.6-7.38-9-8.75-14a6.32,6.32,0,0,1,.21-4.55c1.27-2.51,4.72-3.1,8.61-.58,5.23-2.37,10.87-3.67,16.47-4.95l32.89-7.51a53.27,53.27,0,0,0,11.44-3.55c2.53-1.23,4.85-2.85,7.33-4.18,10.54-5.65,23.08-5.66,35-5.53l86.63.93c21.31.23,42.67.47,63.86,2.86,20.07,2.26,40.11,6.47,60.27,5.27,18.41-1.09,36.24-6.65,54.51-9.12,15.4-2.09,31.94-1.69,45.77,4.85a50,50,0,0,1,7.43,4.34,3.29,3.29,0,0,1,.47-2.66,4.9,4.9,0,0,1,2.38-1.74,8.63,8.63,0,0,1,7.31.63,30.22,30.22,0,0,1,4.27,3.68l.13.13c2,1.93,4,3.79,6.64,4.46a8.32,8.32,0,0,0,1.29.23c3.26.34,6.55-1.05,9.77-2.09l.72-.22a34,34,0,0,1,6.22-1.25,34.57,34.57,0,0,1,4.54-.2h0c.83,0,1.66.05,2.48.12,7.19.57,14.35,3,21.2,6.24q2,1,4,2c2.34,1.22,4.63,2.52,6.86,3.85h0l.12.07,1.11.66c5.9,3.57,11.88,7.36,18.06,10.56a81.7,81.7,0,0,0,11.49,5Z" transform="translate(-0.59 -97.02)" fill="url(#linear-gradient-5)"/><path d="M220.38,482.46h-.29c-5.22,0-10.45.05-15.64,0-1.73,0-3.45,0-5.18-.07-1,0-2,0-3.05-.06-1.91,0-3.82-.1-5.72-.17l-2.09-.08c-1.09,0-2.17-.09-3.26-.15-1.62-.08-3.23-.17-4.84-.27l-1.73-.12-2.31-.17c-1.5-.12-3-.25-4.5-.39l-2-.2c-1.13-.11-2.27-.24-3.39-.37l-2.06-.25-.83-.11-2.49-.34c-.87-.12-1.75-.25-2.62-.39-1.67-.26-3.32-.53-5-.84l-1.35-.25-1.6-.31c-.79-.15-1.57-.31-2.35-.48l-.69-.15-1.77-.4c-.48-.1-.95-.21-1.42-.33l-1.62-.39c-.54-.13-1.09-.27-1.63-.42l-.63-.16-1.25-.33c-2-.55-4-1.15-6-1.79l-1.42-.46q-2.31-.75-4.61-1.61c-.75-.27-1.49-.55-2.23-.84l-.28-.11c-.8-.3-1.58-.62-2.37-.95s-1.68-.7-2.51-1.06c-9.75-4.26-19.15-9.86-26-18-6.09-7.17-10-16-15.59-23.5-.49-.67-1-1.33-1.54-2-13.66-16.58-37.79-24.46-45.66-44.45-2.69-6.86-3.08-14.31-3.23-21.8a33.43,33.43,0,0,0,4.33-2.45A87.73,87.73,0,0,0,43.8,346.11c3-3,6-6,9.23-8.76a4.41,4.41,0,0,1,1.78-1.09c3.09-.68,3.74,4.62,6.51,6.16a16.59,16.59,0,0,1,5.95-5.73c-.4,2.46,2.06,4.64,4.54,4.88s4.87-.89,7.07-2.06a123.7,123.7,0,0,0,13.66-8.46,62.49,62.49,0,0,0,11.08-9.7,9,9,0,0,0,5.93,4.3l3.89-5.25,3.56,1.86,5-8.52,2,2.05,6.2-3.78,3,3.4a6.64,6.64,0,0,1,6.65-3.4c1,.15,2,.53,3,.71a15,15,0,0,0,6.07-.63l31.16-7.68c-4.08,5.64-6.15,12.16-7.39,19-1.5,8.3-1.76,17.1-2.86,25.47-2.84,21.73-12,42.29-15,63.94-.19,1.37-.36,2.74-.5,4.11-.08.78-.15,1.57-.22,2.35q-.26,3.18-.34,6.36c-.11,4.08,0,8.17.18,12.26.34,6.76,1,13.53,1.76,20.27.09.86.19,1.71.28,2.56,2.83.73,5.68,1.39,8.55,2h0a219.66,219.66,0,0,0,24.59,3.82h0q7.68.75,15.39,1c2.19.06,4.4.09,6.59.09h0c2.39,0,4.77-.05,7.16-.14h.47l1.09,0q.48,6.3.54,12.62c0,.31,0,.63,0,.94C220.38,481.48,220.38,482,220.38,482.46Z" transform="translate(-0.59 -97.02)" fill="#68e1fd"/><path d="M220.38,482.46h-.29c-5.22,0-10.45.05-15.64,0-1.73,0-3.45,0-5.18-.07-1,0-2,0-3.05-.06-1.91,0-3.82-.1-5.72-.17l-2.09-.08c-1.09,0-2.17-.09-3.26-.15-1.62-.08-3.23-.17-4.84-.27l-1.73-.12-2.31-.17c-1.5-.12-3-.25-4.5-.39l-2-.2c-1.13-.11-2.27-.24-3.39-.37l-2.06-.25-.83-.11-2.49-.34c-.87-.12-1.75-.25-2.62-.39-1.67-.26-3.32-.53-5-.84l-1.35-.25-1.6-.31c-.79-.15-1.57-.31-2.35-.48l-.69-.15-1.77-.4c-.48-.1-.95-.21-1.42-.33l-1.62-.39c-.54-.13-1.09-.27-1.63-.42l-.63-.16-1.25-.33c-2-.55-4-1.15-6-1.79l-1.42-.46q-2.31-.75-4.61-1.61c-.75-.27-1.49-.55-2.23-.84l-.28-.11c-.8-.3-1.58-.62-2.37-.95s-1.68-.7-2.51-1.06c-9.75-4.26-19.15-9.86-26-18-6.09-7.17-10-16-15.59-23.5-.49-.67-1-1.33-1.54-2-13.66-16.58-37.79-24.46-45.66-44.45-2.69-6.86-3.08-14.31-3.23-21.8a33.43,33.43,0,0,0,4.33-2.45A87.73,87.73,0,0,0,43.8,346.11c3-3,6-6,9.23-8.76a4.41,4.41,0,0,1,1.78-1.09c3.09-.68,3.74,4.62,6.51,6.16a16.59,16.59,0,0,1,5.95-5.73c-.4,2.46,2.06,4.64,4.54,4.88s4.87-.89,7.07-2.06a123.7,123.7,0,0,0,13.66-8.46,62.49,62.49,0,0,0,11.08-9.7,9,9,0,0,0,5.93,4.3l3.89-5.25,3.56,1.86,5-8.52,2,2.05,6.2-3.78,3,3.4a6.64,6.64,0,0,1,6.65-3.4c1,.15,2,.53,3,.71a15,15,0,0,0,6.07-.63l31.16-7.68c-4.08,5.64-6.15,12.16-7.39,19-1.5,8.3-1.76,17.1-2.86,25.47-2.84,21.73-12,42.29-15,63.94-.19,1.37-.36,2.74-.5,4.11-.08.78-.15,1.57-.22,2.35q-.26,3.18-.34,6.36c-.11,4.08,0,8.17.18,12.26.34,6.76,1,13.53,1.76,20.27.09.86.19,1.71.28,2.56,2.83.73,5.68,1.39,8.55,2h0a219.66,219.66,0,0,0,24.59,3.82h0q7.68.75,15.39,1c2.19.06,4.4.09,6.59.09h0c2.39,0,4.77-.05,7.16-.14h.47l1.09,0q.48,6.3.54,12.62c0,.31,0,.63,0,.94C220.38,481.48,220.38,482,220.38,482.46Z" transform="translate(-0.59 -97.02)" fill="url(#linear-gradient-6)"/><path d="M189.62,273.48s15.63-6.1,21.82-15.86l.19-4.13s16.52,4.5,20.46,3.75l.19,3.94s11.26,7.32,15.39,7.89l-.75,2.25h-4.51l1,2.72-6.05,9.86-38.3,1.69Z" transform="translate(-0.59 -97.02)" fill="#68e1fd"/><path d="M189.62,273.48s15.63-6.1,21.82-15.86l.19-4.13s16.52,4.5,20.46,3.75l.19,3.94s11.26,7.32,15.39,7.89l-.75,2.25h-4.51l1,2.72-6.05,9.86-38.3,1.69Z" transform="translate(-0.59 -97.02)" fill="url(#linear-gradient-7)"/><path d="M566.5,240.52l-.3,0-22.8,6.19-13.23,3.66-2.84-1.71-12.09-7.3-10.42-5.91-27.59,3.38,5.91-4.79,11.27-1.4,15.76-.85,8.59,4.65,5.42,1.54,3.45-1.19.14.91H529l-.14-1.26,2.32-.71.78,1.13.84-.14-.07-1.41,2-.91.92,1V234l2.32-.42.56,1.41,1.83-.64-1-1.76,3.73-1.47.63,1.69,1.27-.64-.71-1.76,3-1,.63,1.19,1.13-.21-.42-1.55,3.24-1,1.4,2,1.13-1.69,10.33.26c.46,2.63.86,5.27,1.18,7.93C566.21,237.73,566.36,239.12,566.5,240.52Z" transform="translate(-0.59 -97.02)" fill="#68e1fd"/><path d="M566.5,240.52l-.3,0-22.8,6.19-13.23,3.66-2.84-1.71-12.09-7.3-10.42-5.91-27.59,3.38,5.91-4.79,11.27-1.4,15.76-.85,8.59,4.65,5.42,1.54,3.45-1.19.14.91H529l-.14-1.26,2.32-.71.78,1.13.84-.14-.07-1.41,2-.91.92,1V234l2.32-.42.56,1.41,1.83-.64-1-1.76,3.73-1.47.63,1.69,1.27-.64-.71-1.76,3-1,.63,1.19,1.13-.21-.42-1.55,3.24-1,1.4,2,1.13-1.69,10.33.26c.46,2.63.86,5.27,1.18,7.93C566.21,237.73,566.36,239.12,566.5,240.52Z" transform="translate(-0.59 -97.02)" fill="url(#linear-gradient-8)"/><polygon points="444.82 151.78 444.82 141.64 475.51 141.64 475.51 150.28 458.71 165.29 451.39 160.04 444.82 151.78" fill="#68e1fd"/><polygon points="444.82 151.78 444.82 141.64 475.51 141.64 475.51 150.28 458.71 165.29 451.39 160.04 444.82 151.78" fill="url(#linear-gradient-9)"/><polygon points="451.44 139.62 451.44 134.46 454.3 129.96 456.98 133.57 467.77 133.57 467.77 140.23 451.44 139.62" fill="#68e1fd"/><polygon points="451.44 139.62 451.44 134.46 454.3 129.96 456.98 133.57 467.77 133.57 467.77 140.23 451.44 139.62" fill="url(#linear-gradient-10)"/><polygon points="454.08 129.51 466.4 129.44 470.27 134.47 457.67 134.37 454.08 129.51" fill="#68e1fd"/><path d="M445.42,248.8l-.94,3.47.42.89-.84,1.17-.33-.75L442.65,257l.66,1.22-.64,1.52-1.05-.56L439,270.24l-2.18,6.27-2.74,5.2,1.47,2.89s5.42-12.81,7.11-21.12a72.63,72.63,0,0,1,3.8-13.16Z" transform="translate(-0.59 -97.02)" fill="#68e1fd"/><path d="M449.74,251.05s-2.45,18.39-3.1,20.74-5.54,16.71-5.54,16.71l6.95-.94,2.06-20,2.35-13.33S450.39,251,449.74,251.05Z" transform="translate(-0.59 -97.02)" fill="#68e1fd"/><polygon points="513.62 182.37 513.62 173.93 507.99 173.93 507.99 175.52 506.95 173.83 501.98 173.83 501.7 176.27 500.1 176.27 500.2 173.65 496.07 173.65 495.97 176.18 494.57 175.99 494 173.08 488.84 173.18 489.03 175.52 487.43 175.05 487.15 172.89 477.49 172.89 477.49 177.12 474.2 177.02 474.11 173.74 464.06 173.74 464.06 178.24 462.09 178.24 462 174.87 452.05 175.62 452.05 179.18 449.24 179.18 449.24 175.8 444.64 176.55 444.54 185.47 482.61 183.76 513.62 182.37" fill="#68e1fd"/><polygon points="513.62 182.37 513.62 173.93 507.99 173.93 507.99 175.52 506.95 173.83 501.98 173.83 501.7 176.27 500.1 176.27 500.2 173.65 496.07 173.65 495.97 176.18 494.57 175.99 494 173.08 488.84 173.18 489.03 175.52 487.43 175.05 487.15 172.89 477.49 172.89 477.49 177.12 474.2 177.02 474.11 173.74 464.06 173.74 464.06 178.24 462.09 178.24 462 174.87 452.05 175.62 452.05 179.18 449.24 179.18 449.24 175.8 444.64 176.55 444.54 185.47 482.61 183.76 513.62 182.37" fill="url(#linear-gradient-11)"/><polygon points="517.56 235.5 485.1 236.66 444.54 238.12 444.54 185.47 482.61 183.76 513.62 182.37 517 224.05 517.56 235.5" fill="#68e1fd"/><polygon points="517.56 235.5 485.1 236.66 444.54 238.12 444.54 185.47 482.61 183.76 513.62 182.37 517 224.05 517.56 235.5" fill="url(#linear-gradient-12)"/><polygon points="517.56 235.5 485.1 236.66 482.61 183.76 513.62 182.37 517 224.05 517.56 235.5" fill="#68e1fd"/><polygon points="517.56 235.5 485.1 236.66 482.61 183.76 513.62 182.37 517 224.05 517.56 235.5" fill="url(#linear-gradient-13)"/><path d="M476.67,289s-24.21,6.2-31.82,9.3-26.74,14.36-54.62,12.95-125.57-14.08-125.57-14.08V338.8s57.72,14.64,89.81,14.64,103.9-16.05,103.9-16.05l19.71-7.6Z" transform="translate(-0.59 -97.02)" fill="#68e1fd"/><polygon points="441.44 189.13 434.97 187.58 431.59 176.6 428.92 175.62 428.07 179.56 413.15 175.62 413.15 196.03 413.15 203.49 442.29 195.61 441.44 189.13" fill="#68e1fd"/><polygon points="441.44 189.13 434.97 187.58 431.59 176.6 428.92 175.62 428.07 179.56 413.15 175.62 413.15 196.03 413.15 203.49 442.29 195.61 441.44 189.13" fill="url(#linear-gradient-14)"/><path d="M458.09,283.19l-8.17,1.27-.56,5.21-1.69.42-.84-4.5-9.58,3.23-.28,5.49-1.83.43-.7-4.65L427,294.31v4.09l-2,.56-.28-3.8-9.15,4.08.28,5.07H413.6l-.14-4.08L404,304.31l-.28,4.08h-1.83v-3.94L391.36,308v3.66l-3.66.7-.28-3.66-9.15,1.69-113.9,4.51-.56,37.73s172-1.13,199.06-20Z" transform="translate(-0.59 -97.02)" fill="#68e1fd"/><path d="M458.09,283.19l-8.17,1.27-.56,5.21-1.69.42-.84-4.5-9.58,3.23-.28,5.49-1.83.43-.7-4.65L427,294.31v4.09l-2,.56-.28-3.8-9.15,4.08.28,5.07H413.6l-.14-4.08L404,304.31l-.28,4.08h-1.83v-3.94L391.36,308v3.66l-3.66.7-.28-3.66-9.15,1.69-113.9,4.51-.56,37.73s172-1.13,199.06-20Z" transform="translate(-0.59 -97.02)" fill="url(#linear-gradient-15)"/><path d="M476.67,289s-24.21,6.2-31.82,9.3-26.74,14.36-54.62,12.95-125.57-14.08-125.57-14.08V338.8s57.72,14.64,89.81,14.64,103.9-16.05,103.9-16.05l19.71-7.6Z" transform="translate(-0.59 -97.02)" fill="#68e1fd"/><path d="M478.08,329.79l-19.71,7.61s-71.8,16-103.9,16-89.82-14.64-89.82-14.64V297.13s97.71,12.67,125.58,14.08,47-9.85,54.62-12.95S476.67,289,476.67,289l.25,7.22Z" transform="translate(-0.59 -97.02)" fill="url(#linear-gradient-16)"/><path d="M383.1,260.34l-2.44,40.54s8.26,4.79,15.2,2.54,17.65-6.57,17.65-6.57l-.19-34.54-7.51-2.63-3.38.28-.09,2.35-2,.19L399.9,260h-4.51l-.47,2.63h-1.87l.28-2.81-5.35.37-.38,3.1-1.59.28.19-3.66Z" transform="translate(-0.59 -97.02)" fill="#68e1fd"/><path d="M383.1,260.34l-2.44,40.54s8.26,4.79,15.2,2.54,17.65-6.57,17.65-6.57l-.19-34.54-7.51-2.63-3.38.28-.09,2.35-2,.19L399.9,260h-4.51l-.47,2.63h-1.87l.28-2.81-5.35.37-.38,3.1-1.59.28.19-3.66Z" transform="translate(-0.59 -97.02)" fill="url(#linear-gradient-17)"/><path d="M382.91,266l23.09-.57,1,33.65s-12.81,6.48-18.44,4.65a81.54,81.54,0,0,1-7.88-2.87Z" transform="translate(-0.59 -97.02)" fill="#68e1fd"/><path d="M382.91,266l23.09-.57,1,33.65s-12.81,6.48-18.44,4.65a81.54,81.54,0,0,1-7.88-2.87Z" transform="translate(-0.59 -97.02)" fill="url(#linear-gradient-18)"/><path d="M396.4,173.74h0a2,2,0,0,1,2,2v8a0,0,0,0,1,0,0h-3.94a0,0,0,0,1,0,0v-8A2,2,0,0,1,396.4,173.74Z" fill="#68e1fd"/><path d="M386.82,173.74h0a2,2,0,0,1,2,2v8a0,0,0,0,1,0,0h-3.94a0,0,0,0,1,0,0v-8A2,2,0,0,1,386.82,173.74Z" fill="#68e1fd"/><polygon points="412.73 171.18 405.41 168.44 405.22 162.66 412.73 165.29 412.73 171.18" fill="url(#linear-gradient-19)"/><path d="M488.43,294.74h4.85s-.14-7.46-2.39-7.53S488.21,293.4,488.43,294.74Z" transform="translate(-0.59 -97.02)" fill="url(#linear-gradient-20)"/><path d="M497.06,294.74h4.86s-.14-7.46-2.4-7.53S496.85,293.4,497.06,294.74Z" transform="translate(-0.59 -97.02)" fill="url(#linear-gradient-21)"/><path d="M505.7,294.74h4.85s-.14-7.46-2.39-7.53S505.48,293.4,505.7,294.74Z" transform="translate(-0.59 -97.02)" fill="url(#linear-gradient-22)"/><polygon points="176.22 220.66 176.22 178.15 186.07 176.74 186.35 181.53 188.89 181.11 189.03 176.46 201.13 176.04 201.42 181.39 204.79 181.11 204.94 176.04 215.35 175.76 215.07 180.54 220.14 180.12 219.58 175.05 234.5 175.05 234.64 179.56 236.47 179.56 236.61 175.76 242.81 177.02 242.95 180.97 244.35 181.25 244.35 177.73 249 178.43 249.42 181.81 251.39 181.95 251.25 178.71 255.62 179.42 256.04 182.66 258.43 182.79 258.01 179.42 263.92 180.26 263.92 264.87 175.09 264.87 176.22 220.66" fill="#68e1fd"/><polygon points="176.22 220.66 176.22 178.15 186.07 176.74 186.35 181.53 188.89 181.11 189.03 176.46 201.13 176.04 201.42 181.39 204.79 181.11 204.94 176.04 215.35 175.76 215.07 180.54 220.14 180.12 219.58 175.05 234.5 175.05 234.64 179.56 236.47 179.56 236.61 175.76 242.81 177.02 242.95 180.97 244.35 181.25 244.35 177.73 249 178.43 249.42 181.81 251.39 181.95 251.25 178.71 255.62 179.42 256.04 182.66 258.43 182.79 258.01 179.42 263.92 180.26 263.92 264.87 175.09 264.87 176.22 220.66" fill="url(#linear-gradient-23)"/><path d="M147.43,339.65l4,131.77,69.92,8.63-3.38-113-9.38-6.76,17.64-10.88V324.63l-36.41.19S164.52,315.43,147.43,339.65Z" transform="translate(-0.59 -97.02)" fill="#68e1fd"/><path d="M147.43,339.65l1.93,136,72,4.41-3.38-113-9.38-6.76,17.64-10.88V324.63l-36.41.19S164.52,315.43,147.43,339.65Z" transform="translate(-0.59 -97.02)" fill="url(#linear-gradient-24)"/><polygon points="155.1 246.29 190.86 245.72 191.42 249.67 153.83 248.96 155.1 246.29" fill="url(#linear-gradient-25)"/><polygon points="155.1 252.2 190.86 251.64 191.42 255.58 153.83 254.88 155.1 252.2" fill="url(#linear-gradient-26)"/><polygon points="157.63 259.14 193.39 258.58 193.95 262.52 156.37 261.82 157.63 259.14" fill="url(#linear-gradient-27)"/><polygon points="161.57 266.28 197.33 265.71 197.9 269.66 160.31 268.95 161.57 266.28" fill="url(#linear-gradient-28)"/><polygon points="161.95 272.38 197.71 271.81 198.27 275.76 160.68 275.05 161.95 272.38" fill="url(#linear-gradient-29)"/><polygon points="163.64 280.26 199.4 279.7 199.96 283.64 162.37 282.94 163.64 280.26" fill="url(#linear-gradient-30)"/><polygon points="166.74 288.99 202.5 288.43 203.06 292.37 165.47 291.67 166.74 288.99" fill="url(#linear-gradient-31)"/><polygon points="167.3 296.03 203.06 295.47 203.62 299.41 166.03 298.7 167.3 296.03" fill="url(#linear-gradient-32)"/><polygon points="168.15 301.1 203.9 300.53 204.47 304.48 166.88 303.77 168.15 301.1" fill="url(#linear-gradient-33)"/><path d="M224.53,307.27l1.74,42.14-17.64,10.88s-16-10.65-14.64-33c0,0,1.4-10.28,14.35-9.15S224.53,307.27,224.53,307.27Z" transform="translate(-0.59 -97.02)" fill="#68e1fd"/><path d="M154,347s8.45,12.38,10.89,13.32a32.75,32.75,0,0,0,4.13,1.32l1.5,17.45,11.83,2.26.75,29.84-18.77,1.13-16.52.94-.38-73.58Z" transform="translate(-0.59 -97.02)" fill="#68e1fd"/><path d="M154,347s8.45,12.38,10.89,13.32a32.75,32.75,0,0,0,4.13,1.32l1.5,17.45,11.83,2.26.75,29.84-18.77,1.13-16.52.94-.38-73.58Z" transform="translate(-0.59 -97.02)" fill="url(#linear-gradient-34)"/><polygon points="165.42 265.71 165.42 315.08 182.5 314.14 181.75 284.3 169.93 282.05 168.43 264.59 165.42 265.71" fill="#68e1fd"/><polygon points="165.42 265.71 165.42 315.08 182.5 314.14 181.75 284.3 169.93 282.05 168.43 264.59 165.42 265.71" fill="url(#linear-gradient-35)"/><path d="M200.6,369.07h-8.45s6.43,11.64,12.72,13l9.67-.75S204.4,377.09,200.6,369.07Z" transform="translate(-0.59 -97.02)" fill="#68e1fd"/><path d="M192.15,369.07s4.18,35.85,12.72,41.72V382.07A29.38,29.38,0,0,1,192.15,369.07Z" transform="translate(-0.59 -97.02)" fill="#68e1fd"/><path d="M192.15,369.07s4.18,35.85,12.72,41.72V382.07A29.38,29.38,0,0,1,192.15,369.07Z" transform="translate(-0.59 -97.02)" fill="url(#linear-gradient-36)"/><path d="M138.24,449.17l3.09-35.76,89.54-3.94,34.35,7.6v44.21c0,.84-85,9.57-85,9.57Z" transform="translate(-0.59 -97.02)" fill="#68e1fd"/><polygon points="297.29 388.76 296.34 388.71 285.43 388.17 285.42 388.17 229.61 385.42 228.87 385.38 228.49 380.4 238.72 378.76 238.64 378.34 237.97 375.02 237.66 373.46 236.99 370.13 236.85 369.41 236.53 367.8 236.16 365.97 235.49 362.65 235.17 361.04 234.93 359.84 234.46 357.49 234.27 356.53 233.95 354.95 233.29 351.64 233.17 351.03 232.19 346.14 231.85 344.44 231.52 342.82 231.4 342.19 231.4 342.18 230.96 340.02 230.3 336.7 229.99 335.13 229.32 331.81 228.78 329.11 254.39 329.13 254.48 329.63 254.9 331.95 254.94 332.16 255.09 332.96 255.37 334.53 255.98 337.86 256.49 340.67 257.1 344 257.99 348.9 258.1 349.5 258.71 352.82 258.99 354.4 259.6 357.72 260.11 360.53 260.69 363.7 260.84 363.84 261.83 364.8 268.29 371.02 275.94 371.41 276.17 371.42 287.57 372 297.29 388.76" fill="url(#linear-gradient-37)"/><polygon points="256.5 332.84 227.55 335.34 227.55 331.96 256.5 329.46 256.5 332.84" fill="url(#linear-gradient-38)"/><polygon points="256.79 337.79 227.84 340.29 227.84 336.91 256.79 334.41 256.79 337.79" fill="url(#linear-gradient-39)"/><polygon points="258 343.92 229.06 346.41 229.06 343.03 258 340.54 258 343.92" fill="url(#linear-gradient-40)"/><polygon points="259.69 352.74 230.75 355.23 230.75 351.85 259.69 349.36 259.69 352.74" fill="url(#linear-gradient-41)"/><polygon points="259.98 357.69 231.03 360.18 231.03 356.8 259.98 354.31 259.98 357.69" fill="url(#linear-gradient-42)"/><polygon points="261.19 363.81 232.25 366.31 232.25 362.93 261.19 360.44 261.19 363.81" fill="url(#linear-gradient-43)"/><polygon points="264.57 371.13 235.63 373.63 235.63 370.25 264.57 367.75 264.57 371.13" fill="url(#linear-gradient-44)"/><polygon points="264.86 376.08 235.91 378.58 235.91 375.2 264.86 372.7 264.86 376.08" fill="url(#linear-gradient-45)"/><polygon points="266.07 382.21 237.13 384.7 237.13 381.32 266.07 378.83 266.07 382.21" fill="url(#linear-gradient-46)"/><path d="M138.24,449.17l3.09-35.76,89.54-3.94,34.35,7.6s-27.67,1.22-37.73,9.58c-3.35,2.78,2,19.5,2,19.71,0,.84-49.27,24.49-49.27,24.49Z" transform="translate(-0.59 -97.02)" fill="url(#linear-gradient-47)"/><path d="M189,296s-1.64-.61-2,2a35,35,0,0,0-.23,5.11l4,0S191.64,296.19,189,296Z" transform="translate(-0.59 -97.02)" fill="#68e1fd"/><path d="M203.09,295.77s-1.6,0-1.88,2.72a41.7,41.7,0,0,0-.23,4.74l3.89,0s.28-5.82-.19-6.67A1.94,1.94,0,0,0,203.09,295.77Z" transform="translate(-0.59 -97.02)" fill="#68e1fd"/><path d="M218.06,295.09a1.5,1.5,0,0,0-1.62,1.41c-.07,1.47-.07,5.91-.07,5.91l3.66.21s.07-5.49-.28-6.19S218.62,295,218.06,295.09Z" transform="translate(-0.59 -97.02)" fill="#68e1fd"/><path d="M218.06,295.09a1.5,1.5,0,0,0-1.62,1.41c-.07,1.47-.07,5.91-.07,5.91l3.66.21s.07-5.49-.28-6.19S218.62,295,218.06,295.09Z" transform="translate(-0.59 -97.02)" fill="url(#linear-gradient-48)"/><path d="M189,296s-1.64-.61-2,2a35,35,0,0,0-.23,5.11l4,0S191.64,296.19,189,296Z" transform="translate(-0.59 -97.02)" fill="url(#linear-gradient-49)"/><path d="M203.09,295.77s-1.6,0-1.88,2.72a41.7,41.7,0,0,0-.23,4.74l3.89,0s.28-5.82-.19-6.67A1.94,1.94,0,0,0,203.09,295.77Z" transform="translate(-0.59 -97.02)" fill="url(#linear-gradient-50)"/><path d="M220,302.62s.07-5.49-.28-6.19" transform="translate(-0.59 -97.02)" fill="url(#linear-gradient-51)"/><path d="M238.05,295.23s-2-.92-1.9,1.06.07,6.54.07,6.54l2.11-.07S239,297.76,238.05,295.23Z" transform="translate(-0.59 -97.02)" fill="#68e1fd"/><path d="M248,296.29s-.56-.29-.7.91,0,6.05,0,6.05h2s-.07-5.49-.07-5.7S249.31,296.64,248,296.29Z" transform="translate(-0.59 -97.02)" fill="#68e1fd"/><path d="M259.59,297.27s-1.83-.14-1.76,1.62S258,304,258,304l2.39.21S260.79,298.75,259.59,297.27Z" transform="translate(-0.59 -97.02)" fill="#68e1fd"/><polygon points="227.88 175.47 229.43 264.87 263.92 264.87 263.92 180.26 227.88 175.47" fill="#68e1fd"/><polygon points="227.88 175.47 229.43 264.87 263.92 264.87 263.92 180.26 227.88 175.47" fill="url(#linear-gradient-52)"/><path d="M555.38,323.88c-13,36.08-35.7,68.68-64.15,94.56-.61.56-1.23,1.11-1.85,1.65A262.78,262.78,0,0,1,465.61,439a304.87,304.87,0,0,1-79.89,39.89L382,480.07q-6.9,2.21-13.9,4.11c-1.46.4-2.93.79-4.4,1.17-13.84,3.56-28,6.3-42.31,6.1l-1.77-.05h-.12l0,0-.71-.67c-1.07-1-2.14-2.12-3.21-3.28-2.63-2.86-5.28-6.11-7.94-9.61,0,0,0,0,0,0-1.23-1.6-2.46-3.26-3.69-4.95-4.36-6-8.78-12.42-13.29-18.65-3.47-4.79-7-9.45-10.57-13.71l-.52-.61c-.52-.61-1-1.22-1.57-1.81a92.67,92.67,0,0,0-7.32-7.46,55,55,0,0,0-5.42-4.31c-.51-.35-1-.69-1.53-1a1.14,1.14,0,0,1-.25.18,5.24,5.24,0,0,1-1.12.66,7.36,7.36,0,0,1-2.74.57,13,13,0,0,1-4.1-.59l-.5-.16-.08,0a14.73,14.73,0,0,1-2.77-1.3l-.42-.27-.29-.21c-2.07-1.53-4.32-3-6.64-4.38-5.5-3.34-11.41-6.49-16.34-10.16-4.13-3.1-7.57-6.57-9.48-10.84a18.66,18.66,0,0,1-1.61-6.56c-.45-7.05,1.78-14.32-.19-21.11-.62-2.15-1.65-4.2-2.33-6.31a13.2,13.2,0,0,1-.69-3.46,10.35,10.35,0,0,1,1.1-5.09c2-4.18,6.62-7.39,11-9.51l.11-.05c3.54-1.7,7.21-3.13,10.87-4.55l9.78-3.82,1.47-13.42a21.06,21.06,0,0,1,2.11,8.5c4.4,2,10.2-1.85,10.29-6.6.06,1.46.11,2.93.17,4.39l3.07-1.08.51-.17,2.25-.79c0,2.33,3.29,3.41,5.31,2.25s3-3.53,3.74-5.72l3.62,4.54a62.26,62.26,0,0,0,18.91-4.49,22.71,22.71,0,0,0,7.63,10.51,23,23,0,0,0,14.19,4.64c3.43-.06,6.94-.89,10.22.08,1.86.55,3.56,1.66,5.48,1.83a11.62,11.62,0,0,0,4.19-.68l16.06-4.67c-.07,1.59-.14,3.17-.2,4.76,1.08-2,4.14-1.65,6-.32s3.11,3.36,5.12,4.38c4.14,2.09,9.8-2.31,8.79-6.84,3.53-3.87,10.66-3.46,13.71.81a14,14,0,0,1,7.84-4,5.11,5.11,0,0,0,2.1,5.62A7.16,7.16,0,0,0,410,339.45c.67-1.38.9-3,1.9-4.17s3.32-1.31,3.77.15a5.85,5.85,0,0,1,3.78-5.48,16.23,16.23,0,0,1,4.34,10.67c4.62,1.33,9.48-.57,13.9-2.43l7.41-3.12,17.27-7.28,11.73-4.94a19.62,19.62,0,0,1,3.67-1.25,6.78,6.78,0,0,1,3.26,0,8.39,8.39,0,0,0,3,.72,3,3,0,0,0,1.06-.36,8.34,8.34,0,0,0,1.31-1l10.13-8.77a11.6,11.6,0,0,1,1.51,6l6.32-1,6-15.49a6.33,6.33,0,0,0,1.71-.74,7,7,0,0,0,3.33-5.14l.14.16a38.38,38.38,0,0,1,2.42,3,40.29,40.29,0,0,1,3,4.79,24.39,24.39,0,0,0,1.79,2.82l.18.26h0C529.83,315.92,543.12,320.86,555.38,323.88Z" transform="translate(-0.59 -97.02)" fill="#68e1fd"/><path d="M555.38,323.88c-13,36.08-35.7,68.68-64.15,94.56-.61.56-1.23,1.11-1.85,1.65A262.78,262.78,0,0,1,465.61,439a304.87,304.87,0,0,1-79.89,39.89L382,480.07q-6.9,2.21-13.9,4.11c-1.46.4-2.93.79-4.4,1.17-13.84,3.56-28,6.3-42.31,6.1l-1.77-.05h-.12l0,0-.71-.67c-1.07-1-2.14-2.12-3.21-3.28-2.63-2.86-5.28-6.11-7.94-9.61,0,0,0,0,0,0-1.23-1.6-2.46-3.26-3.69-4.95-4.36-6-8.78-12.42-13.29-18.65-3.47-4.79-7-9.45-10.57-13.71l-.52-.61c-.52-.61-1-1.22-1.57-1.81a92.67,92.67,0,0,0-7.32-7.46,55,55,0,0,0-5.42-4.31c-.51-.35-1-.69-1.53-1a1.14,1.14,0,0,1-.25.18,3.67,3.67,0,0,1-1.35.39,26.23,26.23,0,0,1-7.24-.66l-.21,0c-.82-.16-1.66-.34-2.51-.54l-1-.23A94.76,94.76,0,0,1,240,420.91a17.86,17.86,0,0,1-3.45-1.67c-5.5-4.06-9.6-6.63-12.58-9.47a17.89,17.89,0,0,1-4.95-7.56,37.92,37.92,0,0,1-1.71-10c-.45-7.05,1.78-14.32-.19-21.11-.62-2.15-1.65-4.2-2.33-6.31a13.2,13.2,0,0,1-.69-3.46,10.35,10.35,0,0,1,1.1-5.09c2-4.18,6.62-7.39,11-9.51l.11-.05c3.54-1.7,7.21-3.13,10.87-4.55l9.78-3.82,1.47-13.42a21.06,21.06,0,0,1,2.11,8.5c4.4,2,10.2-1.85,10.29-6.6.06,1.46.11,2.93.17,4.39l3.07-1.08.51-.17,2.25-.79c0,2.33,3.29,3.41,5.31,2.25s3-3.53,3.74-5.72l3.62,4.54a62.26,62.26,0,0,0,18.91-4.49,22.71,22.71,0,0,0,7.63,10.51,23,23,0,0,0,14.19,4.64c3.43-.06,6.94-.89,10.22.08,1.86.55,3.56,1.66,5.48,1.83a11.62,11.62,0,0,0,4.19-.68l16.06-4.67c-.07,1.59-.14,3.17-.2,4.76,1.08-2,4.14-1.65,6-.32s3.11,3.36,5.12,4.38c4.14,2.09,9.8-2.31,8.79-6.84,3.53-3.87,10.66-3.46,13.71.81a14,14,0,0,1,7.84-4,5.11,5.11,0,0,0,2.1,5.62A7.16,7.16,0,0,0,410,339.45c.67-1.38.9-3,1.9-4.17s3.32-1.31,3.77.15a5.85,5.85,0,0,1,3.78-5.48,16.23,16.23,0,0,1,4.34,10.67c4.62,1.33,9.48-.57,13.9-2.43l7.41-3.12,17.27-7.28,11.73-4.94a19.62,19.62,0,0,1,3.67-1.25,6.78,6.78,0,0,1,3.26,0,8.39,8.39,0,0,0,3,.72,3,3,0,0,0,1.06-.36,8.34,8.34,0,0,0,1.31-1l10.13-8.77a11.6,11.6,0,0,1,1.51,6l6.32-1,6-15.49a6.33,6.33,0,0,0,1.71-.74,7,7,0,0,0,3.33-5.14l.14.16a38.38,38.38,0,0,1,2.42,3,40.29,40.29,0,0,1,3,4.79,24.39,24.39,0,0,0,1.79,2.82l.18.26,2.87-2.3c6.5,8.61,17.6,13.91,27.92,18.6Z" transform="translate(-0.59 -97.02)" fill="url(#linear-gradient-53)"/><path d="M489.38,420.09A262.78,262.78,0,0,1,465.61,439a304.87,304.87,0,0,1-79.89,39.89c-2.75-2.17-5.49-4.38-8.26-6.52-2.17-1.67-4.37-3.31-6.59-4.9a244.3,244.3,0,0,0-24.64-15.63c-7.39-4.09-15.53-7.91-23.94-7-6.39.66-12.77,4-18.94,2.22-5.5-1.58-9.34-6.91-14.88-8.34-3.41-.88-7.05-.17-10.51-.6a12.22,12.22,0,0,1-1.88-.36c-6.33-1.76-10.81-8.86-16.5-11a8.86,8.86,0,0,0-4.1-.59,4.26,4.26,0,0,0-.5.06,2.41,2.41,0,0,0-.08-.25,6.81,6.81,0,0,0-.26-.76c-2.22-6-8.24-9.83-13.49-13.67-8.92-6.53-12.75-15.75-9.29-26.63a9,9,0,0,0,5.52-5.08l2,2.17a8.82,8.82,0,0,1,3-3.39c1.33-.74,3.28-.58,4,.74a1.68,1.68,0,0,1,2.29.08,4.93,4.93,0,0,1,1.19,2.23,4.14,4.14,0,0,1,1.42-1.14,5.3,5.3,0,0,0,6.32.76l1.13,1.44a4.5,4.5,0,0,1,1.71-3.59c-.22,1.17,1.42,1.95,2.51,1.47a5.91,5.91,0,0,0,2.3-2.67,23.72,23.72,0,0,1,13.33-10.57l2,4.35a7.07,7.07,0,0,1,3.8-1.95c1.44-.09,3,1.16,2.71,2.57a3.58,3.58,0,0,1,2.18-.37c2.12.33,3.43,2.44,4.44,4.34a47.58,47.58,0,0,1,3.05,5.72c.48,1.33.35,3.3,1.34,4.38,1.82,2,4.85.74,7,0,3.22-1.13,6.56,1.08,9.26,3.17,7.61,5.88,15.56,12.2,19.14,21.13a14.53,14.53,0,0,0,2.38,4.67c1.39,1.49,3.45,2.11,5.4,2.68,11.18,3.23,23.12,6.46,34.25,3.07,3.67-1.11,7.15-2.94,10.94-3.55,8.63-1.39,17,3.67,25.7,4.21,14.72.93,27.28-10.8,41.84-13.17,12-2,24,2.64,35.26,7.35A34.6,34.6,0,0,0,489.38,420.09Z" transform="translate(-0.59 -97.02)" fill="url(#linear-gradient-54)"/><polygon points="140.74 316.4 175.75 332.54 264.91 326.34 264.63 320.06 230.28 312.45 140.74 316.4" fill="#68e1fd"/><polygon points="154.16 317.9 179.5 328.78 240.5 329.72 238.44 326.11 255.62 324 226.8 315.27 154.16 317.9" fill="url(#linear-gradient-55)"/><path d="M204,468.66c-.48,1.59,0,3.28.37,4.91a23.12,23.12,0,0,1,.09,8.89c-29.32-.26-58.13-2.38-84.8-14-9.75-4.26-19.15-9.86-26-18-6.09-7.17-10-16-15.59-23.5a18,18,0,0,1,5.35.9l1.38-1.76L91,430.17a42.35,42.35,0,0,1,12-8.08c-1.75-1.58,0-5.15,2.36-4.68-.29-.94-.57-1.87-.85-2.8,2.56-2.51,6.82-.93,10,.77l11.21,6.05,1.59,2.85a4.15,4.15,0,0,1,6.39,2.47l2.47-2.43A32.42,32.42,0,0,1,141,438.48a5,5,0,0,1,6.75,3.82,32.77,32.77,0,0,1,6.2-4.39c2.92-1.79,5.59-3.67,6.35-6.88q.81,4,1.61,8.07a4.76,4.76,0,0,1,3.22-3c.37,1.75.73,3.51,1.1,5.27-.64-3.1,15.69-4.76,17.85-3.15-1.24,3.27-4.42,7.74-8.45,7.2-.32,1.15-.65,2.3-1,3.44a9.2,9.2,0,0,0-7.74,1.23,3.44,3.44,0,0,1,4.21.42c.55.56.89,1.3,1.39,1.91a4.7,4.7,0,0,0,5.32,1.3c-.36.8-.73,1.59-1.09,2.38a15.54,15.54,0,0,1,8.2,5.48,5.71,5.71,0,0,1,3.82-4.56,4.21,4.21,0,0,1,1.15-4.66l2.57.94-1.51-2.91,8.14-2.69a2.12,2.12,0,0,1,1-.16c1,.12,1.3,1.34,1.4,2.32.33,3.21.67,6.43,1,9.64a5,5,0,0,0,3.36-3.46,9.72,9.72,0,0,1-.07,9.57c-.39.65-.86,1.27-1.23,1.92A5.71,5.71,0,0,0,204,468.66Z" transform="translate(-0.59 -97.02)" fill="#68e1fd"/><path d="M204,468.66c-.48,1.59,0,3.28.37,4.91a23.12,23.12,0,0,1,.09,8.89c-29.32-.26-58.13-2.38-84.8-14-9.75-4.26-19.15-9.86-26-18-6.09-7.17-10-16-15.59-23.5a18,18,0,0,1,5.35.9l1.38-1.76L91,430.17a42.35,42.35,0,0,1,12-8.08c-1.75-1.58,0-5.15,2.36-4.68-.29-.94-.57-1.87-.85-2.8,2.56-2.51,6.82-.93,10,.77l11.21,6.05,1.59,2.85a4.15,4.15,0,0,1,6.39,2.47l2.47-2.43A32.42,32.42,0,0,1,141,438.48a5,5,0,0,1,6.75,3.82,32.77,32.77,0,0,1,6.2-4.39c2.92-1.79,5.59-3.67,6.35-6.88q.81,4,1.61,8.07a4.76,4.76,0,0,1,3.22-3c.37,1.75.73,3.51,1.1,5.27-.64-3.1,15.69-4.76,17.85-3.15-1.24,3.27-4.42,7.74-8.45,7.2-.32,1.15-.65,2.3-1,3.44a9.2,9.2,0,0,0-7.74,1.23,3.44,3.44,0,0,1,4.21.42c.55.56.89,1.3,1.39,1.91a4.7,4.7,0,0,0,5.32,1.3c-.36.8-.73,1.59-1.09,2.38a15.54,15.54,0,0,1,8.2,5.48,5.71,5.71,0,0,1,3.82-4.56,4.21,4.21,0,0,1,1.15-4.66l2.57.94-1.51-2.91,8.14-2.69a2.12,2.12,0,0,1,1-.16c1,.12,1.3,1.34,1.4,2.32.33,3.21.67,6.43,1,9.64a5,5,0,0,0,3.36-3.46,9.72,9.72,0,0,1-.07,9.57c-.39.65-.86,1.27-1.23,1.92A5.71,5.71,0,0,0,204,468.66Z" transform="translate(-0.59 -97.02)" fill="url(#linear-gradient-56)"/><path d="M217.35,418.34h9.16l3,8.87-.56,2.53,1.83,4.23.28,3.52,2.25,3.94v3.1L236.64,458l1.41,6.9,1.27,10.84-10.14.7-8.59-35.61S214.4,420.88,217.35,418.34Z" transform="translate(-0.59 -97.02)" fill="#68e1fd"/><polygon points="287.57 372 278.14 373.27 276.11 372.77 271.81 371.72 261.67 372 253.37 322.87 253.63 314.61 253.65 314.14 263.97 313.96 269.13 319.78 271.39 325.12 277.3 332.73 278.99 343.14 282.08 349.62 287.57 372" fill="#68e1fd"/><polygon points="287.57 372 278.14 373.27 276.11 372.77 271.81 371.72 261.67 372 253.37 322.87 253.63 314.61 253.65 314.14 263.97 313.96 269.13 319.78 271.39 325.12 277.3 332.73 278.99 343.14 282.08 349.62 287.57 372" fill="url(#linear-gradient-57)"/><path d="M277,469.73l-.25.06-4.3-1.05-10.14.28L254,419.89l.26-8.26a8.19,8.19,0,0,1,1.33.66l5.82,6,.28,7,5,5.72,1,12.3,6.29,6.47Z" transform="translate(-0.59 -97.02)" fill="#68e1fd"/><path d="M277,469.73l-.25.06-4.3-1.05-10.14.28L254,419.89l.26-8.26a8.19,8.19,0,0,1,1.33.66l5.82,6,.28,7,5,5.72,1,12.3,6.29,6.47Z" transform="translate(-0.59 -97.02)" fill="url(#linear-gradient-58)"/><polygon points="260.78 321.28 269.13 319.78 271.57 326.34 261.06 328.32 260.78 321.28" fill="#68e1fd"/><polygon points="277.3 332.73 266.04 334.04 267.07 346.34 279.64 344.36 277.3 332.73" fill="#68e1fd"/><polygon points="282.65 351.68 273.64 353.37 276.11 372.77 287.57 372 282.65 351.68" fill="#68e1fd"/><polygon points="224.78 361.3 236.05 361.02 238.72 378.76 228.59 379.46 224.78 361.3" fill="#68e1fd"/><polygon points="220.63 344.83 232.67 344.41 232.88 348.49 235.06 357.5 223.45 357.22 220.63 344.83" fill="#68e1fd"/><path d="M217.35,418.34h9.16l3,8.87-.56,2.53,1.83,4.23.28,3.52,2.25,3.94v3.1L236.64,458l1.41,6.9,1.27,10.84-10.14.7-8.59-35.61S214.4,420.88,217.35,418.34Z" transform="translate(-0.59 -97.02)" fill="url(#linear-gradient-59)"/><polygon points="224.78 361.3 236.05 361.02 238.72 378.76 228.59 379.46 224.78 361.3" fill="#68e1fd"/><polygon points="220.63 344.83 232.67 344.41 232.88 348.49 235.06 357.5 223.45 357.22 220.63 344.83" fill="#68e1fd"/><polygon points="219.65 337.02 230.13 336.95 230.42 340.47 219.79 340.68 219.65 337.02" fill="#68e1fd"/><polygon points="219.15 329.96 219.11 333.38 228.31 332.73 228.77 329.11 219.15 329.96" fill="#68e1fd"/><path d="M377.46,477.79a12.51,12.51,0,0,1,4.55,2.28q-6.9,2.21-13.9,4.11c-1.46.4-2.93.79-4.4,1.17-13.84,3.56-28,6.3-42.31,6.1l.12.2a11.77,11.77,0,0,1-1.89-.25l-.15,0a7.81,7.81,0,0,1-1.49-.47,11.16,11.16,0,0,1-4.22-3.57c-.48-.59-.92-1.2-1.34-1.82q-2.58-3.75-4.81-7.7s0,0,0,0a104.65,104.65,0,0,1-7.26-15.68c-1.49-4.05-2.75-8.25-5.08-11.89-.53-.82-1.06-1.69-1.57-2.58-.24-.43-.47-.87-.69-1.31l-.27-.57-.24-.55a1.45,1.45,0,0,1-.09-.22,3.73,3.73,0,0,1-.15-.38,11.16,11.16,0,0,1-.62-2.27,4.26,4.26,0,0,1-.06-.5,5.56,5.56,0,0,1,.12-1.87,4.45,4.45,0,0,1,.6-1.43,1.13,1.13,0,0,1,.1-.13h0a4.78,4.78,0,0,1,.74-.86,7,7,0,0,1,1.22-.9,10.19,10.19,0,0,1,1.62-.76,3,3,0,0,0,3.86.81c1.38-.61,2.92-1.53,4.25-.85.63.32,1.07.95,1.73,1.21a3.53,3.53,0,0,0,2.9-.62L320.46,430a23.43,23.43,0,0,0,2.34,13.25,14.9,14.9,0,0,0,3.55-5.31l12.16-5.17,3.69,8.78a6.62,6.62,0,0,0,1.92,2.94c.92.68,2.14.86,3,1.6,1.14,1,1.33,2.62,1.69,4.07a16.35,16.35,0,0,0,1.7,4.12,41.83,41.83,0,0,0,5.53,7.1,11.91,11.91,0,0,0,2.91,2.58,7.83,7.83,0,0,1,1.87,1.13c1.25,1.29.68,3.6,1.82,5,.77.95,2,1.13,3.26,1.35A7.88,7.88,0,0,1,368,472c2.15,1.06,3,3.88,5.1,5C374.41,477.62,376,477.48,377.46,477.79Z" transform="translate(-0.59 -97.02)" fill="#68e1fd"/><path d="M321.4,491.45l.12.2a11.77,11.77,0,0,1-1.89-.25l-.15,0a7.81,7.81,0,0,1-1.49-.47,11.16,11.16,0,0,1-4.22-3.57c-.48-.59-.92-1.2-1.34-1.82q-2.58-3.75-4.81-7.7s0,0,0,0a104.65,104.65,0,0,1-7.26-15.68c-1.49-4.05-2.75-8.25-5.08-11.89-.53-.82-1.06-1.69-1.57-2.58-.24-.43-.47-.87-.69-1.31l-.27-.57-.24-.55a1.45,1.45,0,0,1-.09-.22,3.73,3.73,0,0,1-.15-.38,11.16,11.16,0,0,1-.62-2.27,4.26,4.26,0,0,1-.06-.5,5.56,5.56,0,0,1,.12-1.87,4.45,4.45,0,0,1,.6-1.43l.1-.14a4.78,4.78,0,0,1,.74-.86,6.33,6.33,0,0,1,1.22-.9,10.19,10.19,0,0,1,1.62-.76,3,3,0,0,0,3.86.81c1.38-.61,2.92-1.53,4.25-.85.63.32,1.07.95,1.73,1.21a3.53,3.53,0,0,0,2.9-.62L320.46,430a23.43,23.43,0,0,0,2.34,13.25,14.9,14.9,0,0,0,3.55-5.31l12.16-5.17,3.69,8.78a6.62,6.62,0,0,0,1.92,2.94c.92.68,2.14.86,3,1.6,1.14,1,1.33,2.62,1.69,4.07a16.35,16.35,0,0,0,1.7,4.12,41.83,41.83,0,0,0,5.53,7.1,11.91,11.91,0,0,0,2.91,2.58,7.83,7.83,0,0,1,1.87,1.13c1.25,1.29.68,3.6,1.82,5,.77.95,2,1.13,3.26,1.35A7.88,7.88,0,0,1,368,472c2.15,1.06,3,3.88,5.1,5,1.34.67,2.93.53,4.39.84a12.51,12.51,0,0,1,4.55,2.28q-6.9,2.21-13.9,4.11c-1.46.4-2.93.79-4.4,1.17C349.87,488.91,335.66,491.65,321.4,491.45Z" transform="translate(-0.59 -97.02)" fill="url(#linear-gradient-60)"/><path d="M361.72,491.07" transform="translate(-0.59 -97.02)" fill="url(#linear-gradient-61)"/><path d="M321.4,491.45l.12.2a11.77,11.77,0,0,1-1.89-.25l-.15,0a7.81,7.81,0,0,1-1.49-.47,11.16,11.16,0,0,1-4.22-3.57c-.48-.59-.92-1.2-1.34-1.82q-2.58-3.75-4.81-7.7s0,0,0,0a104.65,104.65,0,0,1-7.26-15.68c-1.49-4.05-2.75-8.25-5.08-11.89-.53-.82-1.06-1.69-1.57-2.58.35-.17.73-.34,1.15-.5a2.74,2.74,0,0,0,1.74,1.13,3.72,3.72,0,0,0,2.13-.32c1.37-.61,2.91-1.53,4.25-.85.63.32,1.07,1,1.72,1.21a3.54,3.54,0,0,0,2.91-.61l.37-.2,11.37-6.25a22.63,22.63,0,0,0-.12,4,23.3,23.3,0,0,0,2.47,9.21,14.92,14.92,0,0,0,3.54-5.31l7.71-3.28,4.45-1.89,1.77,4.21,1.92,4.57a6.65,6.65,0,0,0,1.92,3c.92.67,2.15.85,3,1.59,1.14,1,1.34,2.62,1.7,4.07,1.09,4.36,4.2,7.88,7.22,11.22a11.71,11.71,0,0,0,2.91,2.58,11.94,11.94,0,0,1,1.6.9,1.55,1.55,0,0,1,.27.24c1.25,1.29.68,3.59,1.82,5s3.6,1.09,5.32,1.94a4.83,4.83,0,0,1,1.27.93c-1.46.4-2.93.79-4.4,1.17C349.87,488.91,335.66,491.65,321.4,491.45Z" transform="translate(-0.59 -97.02)" fill="url(#linear-gradient-62)"/><path d="M361.72,491.07" transform="translate(-0.59 -97.02)" fill="url(#linear-gradient-61)"/><path d="M343.14,211.57c3.73-1.53,8.27,2.88,6.86,6.65L379.52,227c-3.58,3.87-9.67,3.6-14.92,3l-40.1-4.35c-1.32,3.37-4.81,5.54-8.39,6.09a21.87,21.87,0,0,1-10.63-1.55,8.34,8.34,0,0,0-3.9-.78,8.7,8.7,0,0,0-2.91,1.25,32,32,0,0,1-25.32,2.5c-1.9-.62-3.87-1.44-5.84-1.09A11.86,11.86,0,0,0,264,233.6a38.41,38.41,0,0,1-28.12,3.28c-3.19-.87-6.57-2.16-9.69-1.07-2.46.86-4.21,3-6.42,4.4-3.63,2.24-8.16,2.17-12.42,2L158,240.61c-2-5.89,2-12.5,7.46-15.49s12-3.24,18.2-3.38a7.4,7.4,0,0,0,3.85-.79c1.26-.79,1.91-2.22,2.67-3.5,5.51-9.27,18.1-11.31,28.83-10.26s21.67,4.16,32.1,1.41c8.31-2.18,15.9-8,24.46-7.35,5.75.44,11,3.81,16.71,4.21,5.51.38,10.77-2,16.07-3.5C318.44,199.06,336.23,203.34,343.14,211.57Z" transform="translate(-0.59 -97.02)" fill="url(#linear-gradient-64)"/><path d="M558.75,204.51l-15.41,1.94-4.68.59c-6.44.82-12.92,1.63-19.39,1.12-5.44-.43-10.89-1.8-16.29-1-3.61.52-7,2-10.63,2.51s-7.73-.12-10-3c3.29-4.87,8.95-6.66,14.51-7.27,6.73-.74,5-1.28,9.52-4.63,7.33-5.48,26.12,1.52,35.58,1.19,4.5-.16,9.52-.42,13.8.67Q557.38,200.52,558.75,204.51Z" transform="translate(-0.59 -97.02)" fill="url(#linear-gradient-65)"/><path d="M151.05,203.74c-5,7.23-14,10.83-22.67,12.1s-17.6.59-26.39,1.23a88.2,88.2,0,0,0-27.51,6.54c2.1,1.21,2.27,4.38,1,6.42s-3.58,3.21-5.79,4.21a114.88,114.88,0,0,1-21.89,7.39c1.93,4.16-.6,9.3-4.43,11.82s-8.59,3.07-13.16,3.56L9.46,259.22a6.74,6.74,0,0,1-4.27-.47c-1.9-1.15-2.18-3.74-2.26-6q-.15-4.36-.44-8.81c.06-.33.13-.67.2-1a146.25,146.25,0,0,1,15.85-41.86,104.64,104.64,0,0,1,12.11-.56c10,.23,19.65,3.16,29.47,4.51,13.56,1.86,26.31-1.72,39.68-3.36C116.81,199.62,134,201.68,151.05,203.74Z" transform="translate(-0.59 -97.02)" fill="url(#linear-gradient-66)"/><path d="M194.74,305l-2.63,2.48-.1.94-1.12.38-2.07,2.34-.18,1.69-.76-1-2.72,1.69v.94l-1-.66-3.85.66-.56.75-.94-.84-3.1-.1-.37.85L174,313.74l-3.37-.19-.47,1.13-1.79-1.41-3-.09-5.63.19s-2.63,0-3.47,2-8.83,24.31-8.83,24.31L154,347s2.26-11.83,3.38-13,5.07-6.19,5.07-6.19l15.77-.84s7.88-.57,9.57-1.13,4.51-5.07,4.51-5.07l5.63-5.07Z" transform="translate(-0.59 -97.02)" fill="#68e1fd"/><path d="M197.92,315.72l-5.63,5.06s-2.81,4.51-4.5,5.07-9.57,1.13-9.57,1.13l-15.77.84s-3.94,5.07-5.07,6.2-3.1,11.51-3.35,12.82l0,.13-6.57-7.32s8-22.34,8.82-24.31,3.48-2,3.48-2l5.63-.19,3,.1,1.78,1.4.47-1.12,3.38.18,1.32,1.32.37-.85,3.1.1.94.84.56-.75,3.85-.66,1,.66v-.94l2.72-1.69.75,1,.19-1.69,2.07-2.35,1.12-.38.1-.93,2.63-2.49,2.13.47Z" transform="translate(-0.59 -97.02)" fill="url(#linear-gradient-67)"/><path d="M197.92,315.72l-5.63,5.06s-2.81,4.51-4.5,5.07-9.57,1.13-9.57,1.13l-15.77.84s-3.94,5.07-5.07,6.2-3.1,11.51-3.35,12.82l-5.19-5.78s8-22.34,8.82-24.31,3.47-2,3.47-2l5.64-.19,3,.09,1.78,1.41L172,315l3.38.19,1.31,1.32.38-.85,3.1.1.94.84.56-.75,3.85-.66,1,.66v-.94l2.72-1.69.75,1,.19-1.69,2.06-2.34,1.13-.38.09-.94,3.36-3.42Z" transform="translate(-0.59 -97.02)" fill="#68e1fd"/><path d="M197.92,315.72l-5.63,5.06s-2.81,4.51-4.5,5.07-9.57,1.13-9.57,1.13l-15.77.84s-3.94,5.07-5.07,6.2-3.1,11.51-3.35,12.82l-5.19-5.78s8-22.34,8.82-24.31,3.47-2,3.47-2l5.64-.19,3,.09,1.78,1.41L172,315l3.38.19,1.31,1.32.38-.85,3.1.1.94.84.56-.75,3.85-.66,1,.66v-.94l2.72-1.69.75,1,.19-1.69,2.06-2.34,1.13-.38.09-.94,3.36-3.42Z" transform="translate(-0.59 -97.02)" fill="url(#linear-gradient-68)"/><path d="M197.93,315.71h22.9L210.69,325l-22.9.85S193.42,317.87,197.93,315.71Z" transform="translate(-0.59 -97.02)" fill="url(#linear-gradient-69)"/><path d="M226.27,349.41,208.62,360.3s-16-10.66-14.64-33a11.17,11.17,0,0,1,5.23-7.49,15,15,0,0,1,9.13-1.66c12.95,1.12,16.19-10.84,16.19-10.84l.12,3Z" transform="translate(-0.59 -97.02)" fill="url(#linear-gradient-70)"/><path d="M260.52,295.16s-1.28,0-1.34,1.1-.06,4.55-.06,4.55l3,.14s0-4.23-.24-4.77S261,295.1,260.52,295.16Z" transform="translate(-0.59 -97.02)" fill="url(#linear-gradient-71)"/><path d="M236.38,296.07s-1.37-.46-1.64,1.53a25.56,25.56,0,0,0-.19,3.94l3.34-.07S238.6,296.23,236.38,296.07Z" transform="translate(-0.59 -97.02)" fill="url(#linear-gradient-72)"/><path d="M248.1,295.81s-1.33,0-1.56,2.11a30.25,30.25,0,0,0-.19,3.65h3.23s.23-4.49-.16-5.13A1.64,1.64,0,0,0,248.1,295.81Z" transform="translate(-0.59 -97.02)" fill="url(#linear-gradient-73)"/><path d="M218.57,382.07s-12.38-2.26-17.45-12.2-13-24.41-7.13-42.61c0,0-2.45,19.52,11.82,30.22l12.2,9.57Z" transform="translate(-0.59 -97.02)" fill="#68e1fd"/><path d="M218.43,382.21S206.05,380,201,370s-12.95-24.4-7.14-42.61c0,0-2.44,19.52,11.83,30.22l12.2,9.57Z" transform="translate(-0.59 -97.02)" fill="url(#linear-gradient-74)"/><polygon points="217.42 270.03 212.91 270.78 212.91 284.3 204.28 285.05 204.28 313.77 218.73 313.2 217.42 270.03" fill="#68e1fd"/><polygon points="217.42 270.03 212.91 270.78 212.91 284.3 204.28 285.05 204.28 313.77 218.73 313.2 217.42 270.03" fill="url(#linear-gradient-75)"/><path d="M220.09,482.46c-5.22,0-10.45.05-15.64,0v-8.28h0l0-5.85V393.14L213,410.26l.73,1.47,1.37,15.14,2.34,25.85.47,5.18.81,8.92,0,.65.66,7.24.48,5.34Z" transform="translate(-0.59 -97.02)" fill="#68e1fd"/><path d="M220.09,482.46c-5.22,0-10.45.05-15.64,0v-8.28h0l0-5.85V393.14L213,410.26l.73,1.47,1.37,15.14,2.34,25.85.47,5.18.81,8.92,0,.65.66,7.24.48,5.34Z" transform="translate(-0.59 -97.02)" fill="url(#linear-gradient-76)"/><path d="M224.53,307.27s-3.24,12-16.19,10.84a15,15,0,0,0-9.13,1.66l-.35,0a41.52,41.52,0,0,1,14.08-3.38c7.42-.28,9.95-9,9.95-9Z" transform="translate(-0.59 -97.02)" fill="url(#linear-gradient-77)"/><path d="M137.76,346.74a3.79,3.79,0,0,0-4.66.62l-2.34-1c.73,1.76-2.17,2.85-3.93,2.11s-3.58-2.18-5.34-1.45c-1.46.61-2,2.41-3.06,3.55-1.64,1.7-4.4,1.69-6.63.91s-4.17-2.22-6.37-3.07a2.57,2.57,0,0,0-1.78-.19,2.89,2.89,0,0,0-1.22,1.11L96.76,357a5.57,5.57,0,0,1-2.71,2.34c-1.43.4-2.9-.38-4.13-1.21-2.12-1.4-5-3-6.94-1.35a15.58,15.58,0,0,0-1.43,1.79c-2.2,2.58-6.27,1.87-9.55,1s-7.44-1.38-9.43,1.37c-.81,1.12-1,2.56-1.7,3.77-1.75,3.11-5.83,3.83-9.37,4.22.08,1.64-1.89,2.76-3.51,2.46s-2.88-1.52-4.05-2.68c-3.72,2.12.8,8.63-1.82,12-1.69,2.19-5.09,1.54-7.71.68.48,3.77,3,7,5.88,9.48s6.25,4.36,9.22,6.73,5.64,5.29,8.76,7.55c3.94,2.87,8.6,4.7,12.28,7.88,4.49,3.88,7.15,9.43,11.11,13.85a9.32,9.32,0,0,0,2.74,2.27,11.24,11.24,0,0,0,4.72.8l57.77,1.23q-2.7-25.74-3.18-51.63a166,166,0,0,1,.47-19.19c.43-4.39,2.21-11.8-4.82-9.2A4.17,4.17,0,0,0,137.76,346.74Z" transform="translate(-0.59 -97.02)" fill="url(#linear-gradient-78)"/><path d="M321.52,491.65a11.77,11.77,0,0,1-1.89-.25h-.12c-.88,0-1.75-.07-2.62-.12s-2-.13-2.95-.23c-2.08-.18-4.16-.43-6.22-.73l-1.7-3.59-15.4-32.55-7.57-16L270,410.6l-4.88-18.77,4.32-3.75,7.74,9.43v5.07l8.17,10.84-.28,6.19,7.74,11.54-.42,7.24h0l-.11,1.88,0,.45,4.33,7.53,22.56,39.25,2.26,3.94Z" transform="translate(-0.59 -97.02)" fill="#68e1fd"/><path d="M321.52,491.65a11.77,11.77,0,0,1-1.89-.25h-.12c-.88,0-1.75-.07-2.62-.12s-2-.13-2.95-.23c-2.08-.18-4.16-.43-6.22-.73l-1.7-3.59-15.4-32.55-7.57-16L270,410.6l-4.88-18.77,4.32-3.75,7.74,9.43v5.07l8.17,10.84-.28,6.19,7.74,11.54-.42,7.24h0l-.11,1.88,0,.45,4.33,7.53,22.56,39.25,2.26,3.94Z" transform="translate(-0.59 -97.02)" fill="url(#linear-gradient-79)"/><path d="M313.94,491.05c-2.08-.18-4.16-.43-6.22-.73q-4.08-.6-8.1-1.49l-1.7-3,0-.07L288,468.35h0l-.81-1.44-4.05-18.18-.46-2.09-2.5-5.25-.59-1.23-.05-.3-.28-1.7-1.36-8.41L272,422.14l-2.26-5.34L264.56,411l.56-19.15s5.82,4.13,6,4.69.94,10.89.94,10.89l8.63,7.32L279.39,423l7.88,9.57-.36,5.8-.2,3.21,17.2,31.26,7.92,14.38Z" transform="translate(-0.59 -97.02)" fill="#68e1fd"/><path d="M313.94,491.05c-2.08-.18-4.16-.43-6.22-.73q-4.08-.6-8.1-1.49l-1.7-3,0-.07L288,468.35h0l-.81-1.44-4.05-18.18-.46-2.09-2.5-5.25-.59-1.23-.05-.3-.28-1.7-1.36-8.41L272,422.14l-2.26-5.34L264.56,411l.56-19.15s5.82,4.13,6,4.69.94,10.89.94,10.89l8.63,7.32L279.39,423l7.88,9.57-.36,5.8-.2,3.21,17.2,31.26,7.92,14.38Z" transform="translate(-0.59 -97.02)" fill="url(#linear-gradient-80)"/><path d="M230.2,482.44l-.74,0-8.86.06-.23-1.47-.15-.94-.83-5.34-1.13-7.23-.09-.61-1.48-9.49-.62-4-.88-5.62-2.06-8.26-.19-7.89-1.06-4.53-1-4.29.37-7.88-1.4-4.52-5.36-17.26s2.26-2.06,3.38-1.69,3.38,2.63,3.38,2.63l5.2,16,1.75,5.37-.34,2.86-.6,5,1,3.28,1.45,4.79.39,7.76h0l.17,3.3v0h0c.12.39,1.33,4.47,2.27,7.6.57,1.88,1,3.43,1.1,3.63a40.61,40.61,0,0,1,.19,4.51l.89,2.67.8,2.4.67,2.66,2.89,11.41,1.11,5Z" transform="translate(-0.59 -97.02)" fill="#68e1fd"/><path d="M230.2,482.44l-.74,0-8.86.06-.23-1.47-.15-.94-.83-5.34-1.13-7.23-.09-.61-1.48-9.49-.62-4-.88-5.62-2.06-8.26-.19-7.89-1.06-4.53-1-4.29.37-7.88-1.4-4.52-5.36-17.26s2.26-2.06,3.38-1.69,3.38,2.63,3.38,2.63l5.2,16,1.75,5.37-.34,2.86-.6,5,1,3.28,1.45,4.79.39,7.76h0l.17,3.3v0h0c.12.39,1.33,4.47,2.27,7.6.57,1.88,1,3.43,1.1,3.63a40.61,40.61,0,0,1,.19,4.51l.89,2.67.8,2.4.67,2.66,2.89,11.41,1.11,5Z" transform="translate(-0.59 -97.02)" fill="url(#linear-gradient-81)"/><line x1="258.29" y1="348.87" x2="229.34" y2="351.36" fill="none"/><path d="M476.92,296.19a171.23,171.23,0,0,0-32.35,9.67c-18.86,7.6-34.63,12.95-48.43,12.95-13.11,0-120.88-12.21-131.49-13.41v-8.27s97.71,12.67,125.58,14.08,47-9.85,54.62-12.95S476.67,289,476.67,289Z" transform="translate(-0.59 -97.02)" fill="url(#linear-gradient-82)"/><polygon points="444.82 137.37 446.23 137.37 446.23 138.73 447.78 138.68 447.78 137 450.08 137 450.08 138.36 452.33 138.36 452.33 136.81 455.34 136.81 455.34 138.73 457.45 138.73 457.45 136.62 460.36 136.62 460.36 138.64 462.33 138.64 462.33 136.43 465.19 136.43 465.19 138.82 467.63 138.82 467.63 136.57 469.84 136.57 469.84 138.78 472.04 138.78 472.04 136.38 475.51 136.38 475.51 141.64 444.82 141.64 444.82 137.37" fill="#68e1fd"/><path d="M546.16,177.66c-.07.51-.15,1-.24,1.52a97.2,97.2,0,0,0-48.82,12.9c-3.78,2.17-7.7,4.69-12.06,4.57-3.63-.11-6.92-2-10.28-3.42-24.86-10.22-54.32,9.42-79.52.06-6-2.22-11.25-5.95-17-8.75-12-5.9-25.65-7.55-39-9.11l-64.78-7.59c26.94-17.09,61.22-15.11,93.1-14,8.21.29,16.66.44,24.35-2.45,24.13-9,37.56-31.61,59.4-37.59h0c30.5,8.32,59.05,21.71,80.28,44.65A122.07,122.07,0,0,1,546.16,177.66Z" transform="translate(-0.59 -97.02)" fill="url(#linear-gradient-83)"/></svg>