<svg id="Layer_1" data-name="Layer 1" xmlns="http://www.w3.org/2000/svg" xmlns:xlink="http://www.w3.org/1999/xlink" viewBox="0 0 570.77 438.48"><defs><linearGradient id="linear-gradient" x1="307.79" y1="311.06" x2="298.37" y2="452.42" gradientUnits="userSpaceOnUse"><stop offset="0.01"/><stop offset="0.13" stop-opacity="0.69"/><stop offset="1" stop-opacity="0"/></linearGradient><linearGradient id="linear-gradient-2" x1="25.27" y1="232.86" x2="277" y2="232.86" xlink:href="#linear-gradient"/><linearGradient id="linear-gradient-3" x1="151.13" y1="232.86" x2="277" y2="232.86" xlink:href="#linear-gradient"/><linearGradient id="linear-gradient-4" x1="35.24" y1="313.04" x2="502.04" y2="178.59" xlink:href="#linear-gradient"/><linearGradient id="linear-gradient-5" x1="300.07" y1="213.82" x2="459.37" y2="213.82" xlink:href="#linear-gradient"/><linearGradient id="linear-gradient-6" x1="209.47" y1="294.25" x2="666.22" y2="198.75" xlink:href="#linear-gradient"/><linearGradient id="linear-gradient-7" x1="490.1" y1="81.49" x2="520.26" y2="433.94" xlink:href="#linear-gradient"/><linearGradient id="linear-gradient-8" x1="440.12" y1="232.86" x2="511.47" y2="232.86" xlink:href="#linear-gradient"/><linearGradient id="linear-gradient-9" x1="146.66" y1="209.66" x2="146.98" y2="351.02" xlink:href="#linear-gradient"/><linearGradient id="linear-gradient-10" x1="138.08" y1="209.68" x2="138.4" y2="351.03" xlink:href="#linear-gradient"/><linearGradient id="linear-gradient-11" x1="152.58" y1="209.64" x2="152.89" y2="351" xlink:href="#linear-gradient"/><linearGradient id="linear-gradient-12" x1="102.21" y1="209.75" x2="102.52" y2="351.11" xlink:href="#linear-gradient"/><linearGradient id="linear-gradient-13" x1="94.65" y1="209.77" x2="94.96" y2="351.13" xlink:href="#linear-gradient"/><linearGradient id="linear-gradient-14" x1="87.98" y1="209.79" x2="88.29" y2="351.15" xlink:href="#linear-gradient"/><linearGradient id="linear-gradient-15" x1="84.34" y1="209.79" x2="84.66" y2="351.15" xlink:href="#linear-gradient"/><linearGradient id="linear-gradient-16" x1="76.71" y1="209.81" x2="77.03" y2="351.17" xlink:href="#linear-gradient"/><linearGradient id="linear-gradient-17" x1="137.61" y1="209.68" x2="137.92" y2="351.04" xlink:href="#linear-gradient"/><linearGradient id="linear-gradient-18" x1="131.04" y1="209.69" x2="131.35" y2="351.05" xlink:href="#linear-gradient"/><linearGradient id="linear-gradient-19" x1="123.68" y1="209.71" x2="123.99" y2="351.07" xlink:href="#linear-gradient"/><linearGradient id="linear-gradient-20" x1="117.43" y1="209.72" x2="117.74" y2="351.08" xlink:href="#linear-gradient"/><linearGradient id="linear-gradient-21" x1="106.64" y1="209.75" x2="106.95" y2="351.1" xlink:href="#linear-gradient"/><linearGradient id="linear-gradient-22" x1="109.3" y1="209.74" x2="109.61" y2="351.1" xlink:href="#linear-gradient"/><linearGradient id="linear-gradient-23" x1="115.66" y1="209.73" x2="115.97" y2="351.08" xlink:href="#linear-gradient"/><linearGradient id="linear-gradient-24" x1="284.73" y1="328.06" x2="271.71" y2="513.36" xlink:href="#linear-gradient"/><linearGradient id="linear-gradient-25" x1="195.01" y1="371" x2="195.73" y2="416.26" gradientUnits="userSpaceOnUse"><stop offset="0.01"/><stop offset="0.16" stop-opacity="0.56"/><stop offset="1" stop-opacity="0"/></linearGradient><linearGradient id="linear-gradient-26" x1="201.78" y1="416.17" x2="202.91" y2="389.43" gradientUnits="userSpaceOnUse"><stop offset="0.02" stop-color="#fff" stop-opacity="0"/><stop offset="0.58" stop-color="#fff" stop-opacity="0.39"/><stop offset="0.68" stop-color="#fff" stop-opacity="0.68"/><stop offset="1" stop-color="#fff"/></linearGradient><linearGradient id="linear-gradient-27" x1="171.17" y1="419.52" x2="185.24" y2="393.47" xlink:href="#linear-gradient"/><linearGradient id="linear-gradient-28" x1="200.56" y1="406.15" x2="206.76" y2="429.66" xlink:href="#linear-gradient"/><linearGradient id="linear-gradient-29" x1="215.74" y1="405.39" x2="234.33" y2="423.83" xlink:href="#linear-gradient"/><linearGradient id="linear-gradient-30" x1="185.88" y1="399.83" x2="242.75" y2="382.93" xlink:href="#linear-gradient-25"/><linearGradient id="linear-gradient-31" x1="190.18" y1="398.08" x2="234.36" y2="384.96" xlink:href="#linear-gradient-25"/><linearGradient id="linear-gradient-32" x1="287.18" y1="373.56" x2="287.91" y2="418.81" xlink:href="#linear-gradient-25"/><linearGradient id="linear-gradient-33" x1="293.96" y1="418.73" x2="295.08" y2="391.98" xlink:href="#linear-gradient-26"/><linearGradient id="linear-gradient-34" x1="263.34" y1="422.07" x2="277.42" y2="396.03" xlink:href="#linear-gradient"/><linearGradient id="linear-gradient-35" x1="292.74" y1="408.71" x2="298.93" y2="432.22" xlink:href="#linear-gradient"/><linearGradient id="linear-gradient-36" x1="307.92" y1="407.94" x2="326.5" y2="426.38" xlink:href="#linear-gradient"/><linearGradient id="linear-gradient-37" x1="278.06" y1="402.38" x2="334.93" y2="385.49" xlink:href="#linear-gradient-25"/><linearGradient id="linear-gradient-38" x1="282.36" y1="400.64" x2="326.54" y2="387.52" xlink:href="#linear-gradient-25"/></defs><title>The Great Pyramid Giza</title><path d="M555,201.13A257.7,257.7,0,0,0,436,81.51C408.35,68.13,377.52,59.71,347,63c-36.58,4-69.48,24.26-105.59,31.37-26.49,5.21-54,3.18-80.49,8.31a152.92,152.92,0,0,0-91.61,56.81c-13.51,17.71-22.93,38.17-31.24,58.83C16.82,271.22,2,329.36,14.21,385.05c1.16,5.34,3.14,11.32,8.17,13.46a18,18,0,0,0,6.07,1.07L352.3,419.23c38.9,2.36,78.17,4.71,116.67-1.37,38.88-6.14,99.89-24.09,108-67.67C586.13,300.8,576.45,246.08,555,201.13Z" transform="translate(-9.65 -62.3)" fill="#68e1fd" opacity="0.42" style="isolation:isolate"/><path d="M564.13,390.44c-9.59,9.72-19.32,19.53-29.32,29.08C499.73,453,461.38,483.28,415,495c-82.73,20.94-167.72-22-253-23.8-26.14-.55-52.45,2.79-78.35-.75-24.56-3.35-49.74-14.31-62.88-35-.75-1.15-1.44-2.33-2.1-3.55C-36.34,330.38,178.29,352.31,218.15,352c110.87-.88,221.7,2.91,332.48,6.68,8.94.31,20,2.06,22.83,10.54C576.08,377,569.86,384.63,564.13,390.44Z" transform="translate(-9.65 -62.3)" fill="#68e1fd"/><path d="M87.7,385.08c14.74-.28,29.31-3.26,44-3.93,53.72-2.43,106.59,26,159.6,16.93,13.22-2.25,26-6.81,39.35-8.23,15.66-1.67,31.43,1,47.17.91,27.08-.23,53.66-8.82,80.72-8,20.44.62,40.4,6.59,60.82,7.59s43-4.3,54.94-20.89c-7.63-7.36-19.34-7.88-29.94-8-135.7-1.09-271.46-2.18-407.11,2.43q-28.17,1-56.32,2.26c-14.28.66-34.5-1.62-47.53,3.49C46.49,380.47,71.35,385.4,87.7,385.08Z" transform="translate(-9.65 -62.3)" opacity="0.58" fill="url(#linear-gradient)"/><polygon points="151.13 161.18 277 304.55 151.13 304.55 25.27 304.55 151.13 161.18" fill="#68e1fd"/><polygon points="151.13 161.18 277 304.55 151.13 304.55 25.27 304.55 151.13 161.18" opacity="0.58" fill="url(#linear-gradient-2)"/><polygon points="151.13 161.18 222.48 304.55 277 304.55 151.13 161.18" opacity="0.58" fill="url(#linear-gradient-3)"/><polygon points="151.13 161.18 222.48 304.55 277 304.55 151.13 161.18" fill="#68e1fd"/><polygon points="300.07 123.09 459.37 304.55 300.07 304.55 140.77 304.55 300.07 123.09" fill="#68e1fd"/><polygon points="300.07 123.09 459.37 304.55 300.07 304.55 140.77 304.55 300.07 123.09" opacity="0.58" fill="url(#linear-gradient-4)"/><line x1="336.06" y1="222.14" x2="286.38" y2="222.14" fill="#68e1fd"/><line x1="322.61" y1="222.14" x2="322.61" y2="214.44" fill="#68e1fd"/><line x1="296.74" y1="222.14" x2="296.74" y2="229.32" fill="#68e1fd"/><line x1="246.69" y1="242.39" x2="217.67" y2="242.39" fill="#68e1fd"/><line x1="222.51" y1="242.39" x2="222.51" y2="236.07" fill="#68e1fd"/><line x1="239.09" y1="242.39" x2="239.09" y2="248.88" fill="#68e1fd"/><line x1="225.07" y1="248.88" x2="255.68" y2="248.88" fill="#68e1fd"/><line x1="250.15" y1="248.88" x2="250.15" y2="255.8" fill="#68e1fd"/><line x1="231" y1="248.88" x2="231" y2="255.8" fill="#68e1fd"/><line x1="300.07" y1="272.07" x2="269.1" y2="272.07" fill="#68e1fd"/><line x1="277" y1="264.62" x2="277" y2="272.07" fill="#68e1fd"/><line x1="292.79" y1="272.07" x2="292.79" y2="278.12" fill="#68e1fd"/><line x1="365.45" y1="259.26" x2="332.28" y2="259.26" fill="#68e1fd"/><line x1="342.05" y1="259.26" x2="342.05" y2="250.43" fill="#68e1fd"/><polygon points="260.67 167.98 281.34 189 290.42 192.11 302.67 184.84 312.54 183.11 322.41 170.4 336.06 164.09 300.07 125.52 260.67 167.98" fill="#68e1fd"/><polygon points="260.67 167.98 281.34 186.57 290.42 189.69 302.67 182.42 312.54 180.69 322.41 167.98 336.06 164.09 300.07 123.09 260.67 167.98" fill="#68e1fd"/><polygon points="300.07 123.09 390.37 304.55 459.37 304.55 300.07 123.09" fill="#68e1fd"/><polygon points="300.07 123.09 390.37 304.55 459.37 304.55 300.07 123.09" opacity="0.58" fill="url(#linear-gradient-5)"/><polygon points="440.12 161.18 565.99 304.55 440.12 304.55 314.26 304.55 440.12 161.18" fill="#68e1fd"/><polygon points="440.12 161.18 565.99 304.55 440.12 304.55 314.26 304.55 440.12 161.18" opacity="0.58" fill="url(#linear-gradient-6)"/><polygon points="440.12 161.18 511.47 304.55 565.99 304.55 440.12 161.18" opacity="0.58" fill="url(#linear-gradient-7)"/><line x1="440.12" y1="161.18" x2="511.47" y2="304.54" opacity="0.58" fill="url(#linear-gradient-8)"/><line x1="208.69" y1="278.12" x2="208.69" y2="286.6" fill="#68e1fd"/><line x1="215.89" y1="286.6" x2="185.09" y2="286.6" fill="#68e1fd"/><line x1="193.39" y1="286.6" x2="193.39" y2="293.52" fill="#68e1fd"/><line x1="472.66" y1="254.85" x2="448.67" y2="254.85" fill="#68e1fd"/><line x1="453.41" y1="254.85" x2="453.41" y2="248.88" fill="#68e1fd"/><line x1="466.14" y1="254.85" x2="466.14" y2="259.26" fill="#68e1fd"/><line x1="389.73" y1="259.26" x2="389.73" y2="265.75" fill="#68e1fd"/><line x1="416.98" y1="265.75" x2="379.72" y2="265.75" fill="#68e1fd"/><line x1="404.54" y1="265.75" x2="404.54" y2="272.07" fill="#68e1fd"/><line x1="409.28" y1="272.07" x2="370.78" y2="272.07" fill="#68e1fd"/><line x1="379.72" y1="272.07" x2="379.72" y2="278.12" fill="#68e1fd"/><line x1="395.06" y1="278.12" x2="374.93" y2="278.12" fill="#68e1fd"/><line x1="389.73" y1="278.12" x2="389.73" y2="284.96" fill="#68e1fd"/><line x1="431.79" y1="218.29" x2="403.55" y2="218.29" fill="#68e1fd"/><line x1="409.28" y1="218.29" x2="409.28" y2="212.71" fill="#68e1fd"/><line x1="422.31" y1="218.29" x2="422.31" y2="223.61" fill="#68e1fd"/><line x1="434.75" y1="223.61" x2="413.23" y2="223.61" fill="#68e1fd"/><line x1="417.67" y1="223.61" x2="417.67" y2="229.32" fill="#68e1fd"/><line x1="460.66" y1="288.33" x2="429.02" y2="288.33" fill="#68e1fd"/><line x1="433.17" y1="288.33" x2="433.17" y2="282.58" fill="#68e1fd"/><line x1="451.53" y1="288.33" x2="451.53" y2="293.18" fill="#68e1fd"/><line x1="161.94" y1="242.39" x2="131.53" y2="242.39" opacity="0.58" fill="url(#linear-gradient-9)"/><line x1="138.15" y1="242.39" x2="138.15" y2="236.07" opacity="0.58" fill="url(#linear-gradient-10)"/><line x1="152.66" y1="242.39" x2="152.66" y2="248.88" opacity="0.58" fill="url(#linear-gradient-11)"/><line x1="102.31" y1="255.8" x2="102.31" y2="261.6" opacity="0.58" fill="url(#linear-gradient-12)"/><line x1="106.76" y1="261.6" x2="82.77" y2="261.6" opacity="0.58" fill="url(#linear-gradient-13)"/><line x1="88.1" y1="261.6" x2="88.1" y2="266.79" opacity="0.58" fill="url(#linear-gradient-14)"/><line x1="94.76" y1="266.79" x2="74.18" y2="266.79" opacity="0.58" fill="url(#linear-gradient-15)"/><line x1="76.85" y1="266.79" x2="76.85" y2="272.07" opacity="0.58" fill="url(#linear-gradient-16)"/><line x1="137.75" y1="273.15" x2="137.75" y2="277.82" opacity="0.58" fill="url(#linear-gradient-17)"/><line x1="143.58" y1="277.82" x2="118.8" y2="277.82" opacity="0.58" fill="url(#linear-gradient-18)"/><line x1="123.83" y1="277.82" x2="123.83" y2="283.96" opacity="0.58" fill="url(#linear-gradient-19)"/><line x1="131.19" y1="283.96" x2="103.99" y2="283.96" opacity="0.58" fill="url(#linear-gradient-20)"/><line x1="106.81" y1="283.96" x2="106.81" y2="288.98" opacity="0.58" fill="url(#linear-gradient-21)"/><line x1="118.8" y1="288.98" x2="100.14" y2="288.98" opacity="0.58" fill="url(#linear-gradient-22)"/><line x1="115.84" y1="288.98" x2="115.84" y2="294.69" opacity="0.58" fill="url(#linear-gradient-23)"/><path d="M534.81,419.52C499.73,453,461.38,483.28,415,495c-82.73,20.94-167.72-22-253-23.8-26.14-.55-52.45,2.79-78.35-.75-24.56-3.35-49.74-14.31-62.88-35,6.87-2.55,28.55,6.62,35.34,7.41,27.1,3.2,54.59-.39,81.27-5.29,40.47-7.44,81.53-17.84,122.27-11.94,16.93,2.46,33.31,7.68,49.95,11.71A360.82,360.82,0,0,0,534.8,418.44C534.81,418.8,534.81,419.16,534.81,419.52Z" transform="translate(-9.65 -62.3)" opacity="0.58" fill="url(#linear-gradient-24)"/><ellipse cx="195.25" cy="386.38" rx="42.02" ry="5.71" fill="url(#linear-gradient-25)"/><path d="M164.07,326.55a3,3,0,0,0-1.76,1.47" transform="translate(-9.65 -62.3)" fill="#68e1fd"/><path d="M236.75,404a20,20,0,0,1-13.51-6.55,16.32,16.32,0,0,0-1.35-2.3c-1.35-5.05-5.57-10.4-9.39-11.65-4.34-.85-2.94,6.7-6.69,6.51-5.88-.3-5.9-6.05-9.16-7.65-4.79-.76-8.66,6-8.83,12.17-1.07,4.41-1.55,9-5.25,8.6-7-.81-1.41-11-3.74-16.58a5.8,5.8,0,0,0,.42-1.39c.21-1.39-1.09-3.82-1.68-3.82s-.2,1-1.1,2.11c-1.6-1.28-4.59-1.24-7.87.7-.88.27-1.8.6-2.67.94l0,0-5.88.95.1,2a2.83,2.83,0,0,0-.36.79l-.09,0c-.7-.11-1.3.07-1.36.41s.42.65,1.06.78l.25.63h.08c-.4.15-.65.38-.63.61s.55.47,1.19.44c.05.1.09.19.15.29,1.06,1.74,4.53,1.12,6-1.11a4.94,4.94,0,0,1,1.12.09,4.19,4.19,0,0,0,3.48,2,14.59,14.59,0,0,0,.4,3,8.28,8.28,0,0,0-.57,4.74,15.82,15.82,0,0,1,1-3v0a8.28,8.28,0,0,0,.29,4.7,17.89,17.89,0,0,1,.31-2.63,8.61,8.61,0,0,0,1.5,5.08,19.66,19.66,0,0,1-.35-2.24l.39.89a8.53,8.53,0,0,0,2,4.54s-.26-.8-.46-1.67c3.11,5.31,7.71,9.37,13.33,6.46,2.48,6,3.55,8.06,2.23,12.66a4,4,0,0,0-1.06,2.48,2.52,2.52,0,0,0,1.33,2.63c.73,2.75,1.56,7.75-.76,11h0a2,2,0,0,0-.38,2.17,13.21,13.21,0,0,1-1.19,2.86c-3.77,2.13-7.93,4.92,1.67,3.84,4.59-.52,3.4-2.52,2-3.84-.31-.51-.28-1,.3-1.77a1.77,1.77,0,0,0,.41-.21,2,2,0,0,0,.92-1.72h0l-.06-.36a.09.09,0,0,0,0-.05c-.92-5.55-1.57-8.52-.43-12.71a4,4,0,0,0,1.07-2.49,2.69,2.69,0,0,0-.95-2.41,12.65,12.65,0,0,1,.54-7.3l.17.24,0,.05c.26.36.49.71.72,1a.86.86,0,0,0,.1.16,16.85,16.85,0,0,1,1.13,2s0,.09.05.13q.18.42.33.84a1.59,1.59,0,0,0,.07.2c.09.31.18.62.25.94,0,0,0,0,0,.06.07.34.13.7.17,1.07a1.79,1.79,0,0,0,0,.23c0,.3,0,.62.05,1a.92.92,0,0,0,0,.16,1.83,1.83,0,0,0-.24.46l0,0a2,2,0,0,0-.12.5.29.29,0,0,0,0,.09,3.93,3.93,0,0,0,0,.49v.14a3.73,3.73,0,0,0,.11.64,4,4,0,0,0,.18.52,1.3,1.3,0,0,0,.08.17c0,.11.11.22.17.33l.1.15a3.58,3.58,0,0,0,.28.37l.06.07.33.33.14.1a2.83,2.83,0,0,0,.28.2l.13.08a3.89,3.89,0,0,0,.42.19h0l.18.31.2.34.19.32.33.6.13.25c.12.21.23.44.34.66l.13.27.33.72s0,.1.07.16c.12.28.24.58.35.88l.09.24c.09.24.17.49.24.74,0,.07,0,.14.07.21.08.3.16.6.23.91l0,.2c.05.25.09.5.12.74,0,.08,0,.15,0,.23a6.53,6.53,0,0,1,0,.88s0,.09,0,.13a5.47,5.47,0,0,1-.08.72c0,.08,0,.15-.05.22a4.35,4.35,0,0,1-.24.8h0a1.25,1.25,0,0,0-.17.43s0,0,0,0a1.73,1.73,0,0,0,.12,1l0,0a3,3,0,0,0,.28.48l0,.26v.25c0,.15,0,.32,0,.48s0,.15,0,.23,0,.42-.08.62-.05.26-.07.38-.05.26-.08.39l0,0-.23.15-.1.06-.24.15-.08.05-.26.17-.05,0-.79.54-.11.07-.19.14-.12.09-.17.12-.12.1-.16.12-.12.11a.69.69,0,0,0-.13.11l-.14.12-.12.12-.17.17-.07.08a1.13,1.13,0,0,0-.1.13.24.24,0,0,0-.06.08l-.08.12a.25.25,0,0,0,0,.07l-.06.12,0,.06,0,.12v0a.42.42,0,0,0,.09.31l0,0a.36.36,0,0,0,.11.1.1.1,0,0,0,.05,0l.14.08.07,0,.19.07.09,0,.27.06h.07a5.86,5.86,0,0,0,.93.09H202l.53,0,.26,0,.63-.05.24,0,1-.1.69-.1h0c3.67-.63,2-2.42.36-3.61a1.33,1.33,0,0,1-.09-1.6,1.58,1.58,0,0,0,.57-.27,1.61,1.61,0,0,0,.05-2.37c-1.22-2.38-2.2-4.27-2.92-6h0c-.13-.3-.24-.6-.35-.89l0,0a15.52,15.52,0,0,1-1-4.85,2.89,2.89,0,0,0,.31-2.37,3.75,3.75,0,0,0-1.73-2.3,11.61,11.61,0,0,1-1.44-8.73c4.37,1.63,8.9.84,12.87-.77v.58c0,.17,0,.34,0,.51,0,.34,0,.67,0,1,0,.14,0,.28,0,.42,0,.34.05.68.07,1l0,.36.12,1c0,.1,0,.2,0,.3.05.33.1.66.16,1,0,.08,0,.16,0,.25.06.32.14.64.22,1a1.46,1.46,0,0,0,.05.2c.08.32.17.63.27.94a1.42,1.42,0,0,0,.05.16c.1.31.21.61.33.91a1.12,1.12,0,0,0,0,.13q.18.45.39.87l0,.1c.14.29.3.57.46.85l0,.06c.17.28.35.55.53.81l0,0c.2.27.4.52.62.77h0l.21.24h0c.06.17.11.36.16.56l0,.07c.05.2.11.41.16.63l.06.23c0,.2.09.41.13.63a1.18,1.18,0,0,1,0,.2c.06.26.1.52.15.8,0,.1,0,.21,0,.32s.05.38.07.58,0,.24,0,.36c0,.28.06.57.07.86,0,.1,0,.2,0,.31s0,.41,0,.62v.39c0,.2,0,.4,0,.6s0,.23,0,.35c0,.28-.08.56-.13.84,0,.12-.05.24-.08.36a5.36,5.36,0,0,1-.14.54c0,.12-.07.24-.11.36a5.56,5.56,0,0,1-.29.71l-.16.32c-.08.14-.16.28-.25.41a1.63,1.63,0,0,0-.4.43l0,0a1.11,1.11,0,0,0-.09.19l-.06.12c0,.06,0,.12,0,.18l0,.17a.86.86,0,0,0,0,.16.74.74,0,0,0,0,.21c0,.05,0,.09,0,.14l.06.24,0,.12a2,2,0,0,0,.14.3l0,0c0,.05,0,.1,0,.16L215,443a3.74,3.74,0,0,1-.12.45l-.06.22c-.08.23-.16.46-.25.69l-.09.22-.12.29c-.74.38-1.51.78-2.21,1.19l-.07,0-.3.18-.09.05-.25.16-.1.07a2,2,0,0,0-.24.16l-.08.05-.28.2h0a3,3,0,0,0-.26.21l0,0a.93.93,0,0,0-.18.16l-.06.06-.12.13,0,.06a.47.47,0,0,0-.09.12.15.15,0,0,1,0,.06l-.06.13a.43.43,0,0,0,0,.05.4.4,0,0,0,0,.15h0a.83.83,0,0,0,0,.15l0,0a.35.35,0,0,0,.08.1l0,0,.12.08.07,0,.16.07.09,0,.23.06.1,0a4.92,4.92,0,0,0,.89.12h.14l.42,0h1.72l.6,0h.28l1-.07c.31,0,.58-.05.83-.09l.17,0a6.16,6.16,0,0,0,1.25-.33h0c1.75-.72.85-2.08-.23-3.1-.28-.45-.25-.91.21-1.56a1.76,1.76,0,0,0,1.05-2.36,36.4,36.4,0,0,1-.84-6h0c0-.06,0-.12,0-.18s0-.12,0-.19a19.31,19.31,0,0,1,1-6.34,3.55,3.55,0,0,0,.54-1.94,2.92,2.92,0,0,0-1.52-2.61,12.48,12.48,0,0,1,.06-4.88,25.18,25.18,0,0,0,6,7.55l.31.25h0c1.8,2.79,5.16,8.65,4.08,12.13A1.62,1.62,0,0,0,229,441a8.49,8.49,0,0,1,.2,2.05c-3.19,2.15-7.85,5.54,2.33,4.55,4.53-.44,2.52-2.58.62-4a1.75,1.75,0,0,1,0-1.51,1.6,1.6,0,0,0,.5-.27,1.51,1.51,0,0,0-.09-2.24c-3.18-5.68-4.33-8.76-4.62-13.2a3.33,3.33,0,0,0-.2-2,5.05,5.05,0,0,0-2.56-2.76c-3.89-7.4-.6-9.86-1-13.67a13.53,13.53,0,0,0,.68-5.07,16.48,16.48,0,0,0-1.12-4.22,20.26,20.26,0,0,0,12.88,5.88.3.3,0,0,0,0,.13c1.65,3.38,7.41,1.76,10.3-3.06C243.48,404.31,237.73,403.07,236.75,404Z" transform="translate(-9.65 -62.3)" fill="#68e1fd"/><path d="M246.94,401.58c-2.88,4.82-8.65,6.44-10.3,3.06,0-.06,0-.09,0-.14a20.3,20.3,0,0,1-12.88-5.87,16.37,16.37,0,0,1,.89,2.84h0a13.05,13.05,0,0,1,.23,1.37,13.48,13.48,0,0,1-.68,5.06c.36,3.81-2.93,6.27,1,13.68a5,5,0,0,1,2.57,2.76,3.38,3.38,0,0,1,.19,2,22.3,22.3,0,0,0,.68,4.37,38,38,0,0,0,3.95,8.82,1.53,1.53,0,0,1,.08,2.25,1.44,1.44,0,0,1-.49.26,1.78,1.78,0,0,0,0,1.52c1.9,1.4,3.92,3.54-.61,4-10.19,1-5.53-2.39-2.33-4.54A9,9,0,0,0,229,441a1.61,1.61,0,0,1-.32-1.91c1.07-3.48-2.28-9.34-4.09-12.13v0a3.49,3.49,0,0,1-.32-.25,22.78,22.78,0,0,1-4.06-4.44,30.34,30.34,0,0,1-1.92-3.11c0,.19-.08.39-.11.6h0a12.81,12.81,0,0,0,.05,4.27,2.91,2.91,0,0,1,1.52,2.61,3.39,3.39,0,0,1-.54,1.94,19.35,19.35,0,0,0-1,6.35v.18a1.28,1.28,0,0,1,0,.19h0a36.68,36.68,0,0,0,.84,6,1.76,1.76,0,0,1-.65,2.16,2.09,2.09,0,0,1-.4.19,1.29,1.29,0,0,0-.2,1.57c1.07,1,2,2.38.22,3.1h0a5.66,5.66,0,0,1-1.24.32l-.17,0c-.26,0-.53.07-.83.09l-1,.06-.28,0-.6,0H212.2l-.42,0h-.15a7.73,7.73,0,0,1-.89-.12l-.1,0a.79.79,0,0,1-.22-.06l-.1,0-.16-.07-.07,0-.11-.08,0,0a.76.76,0,0,1-.08-.11l0,0a.4.4,0,0,1,0-.15h0a.41.41,0,0,1,0-.15.17.17,0,0,1,0-.05.61.61,0,0,1,0-.12l0-.06.09-.12,0-.07.12-.13.06-.06.18-.16,0,0,.26-.21h0a2.69,2.69,0,0,1,.27-.2l.08-.06.24-.16.1-.06.25-.16.1-.06.29-.17.07,0c.7-.41,1.47-.82,2.21-1.19l.12-.3a1.45,1.45,0,0,0,.09-.22c.09-.23.18-.46.25-.69,0-.07,0-.14.07-.22s.08-.3.11-.44a1.59,1.59,0,0,0,.06-.3c0-.05,0-.1,0-.16l0,0a1.94,1.94,0,0,1-.13-.3.5.5,0,0,1,0-.13,1.55,1.55,0,0,1,0-.23c0-.05,0-.1,0-.15v-.2a1,1,0,0,1,0-.17l0-.16c0-.06,0-.12,0-.18l.06-.12a1.24,1.24,0,0,1,.1-.2l0,0a1.63,1.63,0,0,1,.41-.42c.08-.14.17-.27.24-.42a3.07,3.07,0,0,0,.17-.31,6.15,6.15,0,0,0,.28-.71c.05-.12.08-.24.12-.37s.1-.35.14-.53.05-.24.08-.37.09-.55.12-.84l0-.34,0-.6c0-.13,0-.26,0-.4s0-.41,0-.62,0-.2,0-.31c0-.29,0-.57-.07-.86,0-.12,0-.24,0-.35s-.05-.39-.08-.59,0-.21,0-.32c0-.27-.09-.54-.14-.8a1.42,1.42,0,0,1,0-.2c-.05-.21-.09-.42-.14-.62s0-.16,0-.23-.11-.44-.17-.64c0,0,0,0,0-.06l-.16-.57,0,0h0a1.51,1.51,0,0,1-.21-.23h0a9.1,9.1,0,0,1-.61-.78l0,0c-.19-.26-.37-.54-.54-.81a.16.16,0,0,0,0-.07c-.16-.27-.31-.55-.46-.84a.31.31,0,0,0,0-.1c-.13-.28-.27-.58-.39-.88,0,0,0-.08,0-.13-.12-.29-.23-.6-.33-.91,0-.05,0-.1-.05-.16-.1-.3-.19-.62-.27-.94a1.17,1.17,0,0,1-.05-.2c-.08-.31-.15-.63-.22-1,0-.08,0-.16,0-.24-.06-.33-.12-.65-.17-1,0-.09,0-.19,0-.29,0-.33-.08-.66-.11-1l0-.35c0-.33-.06-.66-.08-1,0-.14,0-.28,0-.42l0-1v-.51c0-.2,0-.39,0-.58l-.25.1c-3.91,1.53-8.33,2.27-12.62.67a11.61,11.61,0,0,0,1.44,8.73,3.68,3.68,0,0,1,1.73,2.3,2.89,2.89,0,0,1-.3,2.37,15,15,0,0,0,1,4.85s0,0,0,0c.11.29.23.59.35.89v0c.32.77.69,1.58,1.12,2.45.52,1.06,1.12,2.23,1.79,3.54a1.53,1.53,0,0,1-.62,2.65,1.33,1.33,0,0,0,.09,1.6c1.65,1.19,3.31,3-.35,3.61h0c-.21,0-.44.07-.69.09s-.65.08-1,.1l-.24,0-.63.05h-.26l-.52,0h-1.48q-.54,0-.93-.09l-.07,0a1.81,1.81,0,0,1-.27-.06l-.08,0-.2-.07-.07,0-.14-.09-.05,0-.11-.1,0,0a.45.45,0,0,1-.09-.31.09.09,0,0,1,0,0,.5.5,0,0,1,0-.12l0-.07a.54.54,0,0,1,.05-.11s0-.05,0-.08l.08-.12.06-.08.11-.12.06-.08.17-.17.12-.12.14-.13.13-.11.13-.1.15-.12.12-.1.17-.13.13-.09.19-.14.1-.07c.26-.18.52-.36.79-.53l.06,0,.25-.16.08-.05.25-.16.1-.06.23-.14,0,0c0-.13.05-.26.08-.39s0-.25.07-.38l.09-.62c0-.08,0-.16,0-.23s0-.33,0-.49,0-.17,0-.25a2.3,2.3,0,0,0,0-.26,2.48,2.48,0,0,1-.27-.47l0,0a1.7,1.7,0,0,1-.13-1s0,0,0,0a1.43,1.43,0,0,1,.17-.43h0a4.27,4.27,0,0,0,.25-.79c0-.07,0-.15,0-.22a5.87,5.87,0,0,0,.08-.72.66.66,0,0,0,0-.14,6.38,6.38,0,0,0,0-.87,1.64,1.64,0,0,0,0-.23c0-.25-.07-.5-.11-.74a1.55,1.55,0,0,1,0-.21c-.07-.3-.14-.6-.23-.91l-.06-.2c-.07-.22-.14-.43-.22-.65l0-.1-.09-.24c-.11-.3-.22-.59-.35-.88,0-.05-.05-.1-.07-.16l-.33-.71c0-.09-.08-.18-.13-.27s-.22-.45-.33-.66l-.14-.25-.33-.6-.18-.33c-.07-.11-.14-.22-.2-.33l-.19-.31h0a2.17,2.17,0,0,1-.41-.19l-.14-.08-.28-.19-.13-.11a3.4,3.4,0,0,1-.34-.32l-.06-.07c-.1-.12-.19-.24-.28-.37l-.09-.16a1.74,1.74,0,0,1-.18-.33l-.08-.16a4.56,4.56,0,0,1-.18-.52,3,3,0,0,1-.1-.65s0-.09,0-.13a4.1,4.1,0,0,1,0-.5s0-.06,0-.09a3.51,3.51,0,0,1,.12-.49l0,0a1.89,1.89,0,0,1,.24-.47v-.16c0-.33,0-.64-.06-.95,0-.07,0-.15,0-.22a9.35,9.35,0,0,0-.17-1.08s0,0,0,0c-.07-.32-.15-.63-.25-.94,0-.07-.05-.14-.07-.21a8.36,8.36,0,0,0-.32-.83l-.06-.14a16.26,16.26,0,0,0-1.13-2l-.1-.15-.46-.68-.26-.36,0-.05-.18-.25a12.55,12.55,0,0,0-.53,7.3,2.76,2.76,0,0,1,1,2.42,4.05,4.05,0,0,1-1.07,2.48c-1.15,4.2-.5,7.16.43,12.72v0c0,.13.05.24.07.37h0a2.06,2.06,0,0,1-.93,1.73,3.17,3.17,0,0,1-.41.21c-.58.75-.61,1.25-.3,1.76,1.38,1.32,2.57,3.32-2,3.84-9.6,1.09-5.43-1.71-1.67-3.84a13.21,13.21,0,0,0,1.2-2.85,2,2,0,0,1,.37-2.17h0c2.33-3.28,1.49-8.28.76-11a2.55,2.55,0,0,1-1.33-2.64,4.1,4.1,0,0,1,1.06-2.47c1.29-4.5.3-6.55-2.06-12.26-.06-.13-.11-.27-.17-.41-5.62,2.91-10.22-1.14-13.33-6.46.2.88.46,1.67.46,1.67a8.42,8.42,0,0,1-2-4.54c-.14-.29-.27-.59-.4-.88a20.12,20.12,0,0,0,.35,2.24,8.64,8.64,0,0,1-1.5-5.09,18.86,18.86,0,0,0-.3,2.64,8.3,8.3,0,0,1-.3-4.71v0a15.36,15.36,0,0,0-1,3,8.34,8.34,0,0,1,.57-4.73,15,15,0,0,1-.4-2.9v-.09a4.19,4.19,0,0,1-3.48-2,4.43,4.43,0,0,0-1.12-.09c-1.45,2.23-4.93,2.84-6,1.1l-.15-.28c-.63,0-1.15-.15-1.18-.45s.22-.45.62-.6h-.07l-.26-.62c-.63-.13-1.1-.47-1.05-.79s.66-.52,1.36-.41l.09,0a3,3,0,0,1,.35-.79l-.1-2,5.88-.95,0,0c.88-.33,1.79-.66,2.67-.94,3.28-1.93,6.27-2,7.88-.7.89-1.09.47-2.1,1.09-2.11s1.9,2.44,1.68,3.83a5.73,5.73,0,0,1-.42,1.38c2.34,5.57-3.28,15.78,3.75,16.59,3.69.42,4.18-4.19,5.24-8.6.17-6.21,4-12.94,8.83-12.17,3.26,1.6,3.29,7.34,9.16,7.64,3.75.2,2.36-7.36,6.69-6.5,3.82,1.25,8,6.6,9.4,11.65a18.38,18.38,0,0,1,1.35,2.29,19.9,19.9,0,0,0,13.5,6.56C237.73,403.06,243.48,404.31,246.94,401.58Z" transform="translate(-9.65 -62.3)" opacity="0.69" fill="url(#linear-gradient-26)" style="isolation:isolate"/><path d="M189,413.18c-.06-.13-.11-.27-.17-.41-5.62,2.91-10.22-1.14-13.33-6.46.2.88.46,1.67.46,1.67a8.42,8.42,0,0,1-2-4.54c-.14-.29-.27-.59-.4-.88a20.12,20.12,0,0,0,.35,2.24,8.64,8.64,0,0,1-1.5-5.09,18.86,18.86,0,0,0-.3,2.64,8.3,8.3,0,0,1-.3-4.71v0a15.36,15.36,0,0,0-1,3,8.34,8.34,0,0,1,.57-4.73,15,15,0,0,1-.4-2.9c.6-.23,1.41-.47,1.48-.24a45.08,45.08,0,0,0,3.71,9.36,15.18,15.18,0,0,0,7.29,6.72,16.49,16.49,0,0,1,4.08,1.69A3.46,3.46,0,0,1,189,413.18Z" transform="translate(-9.65 -62.3)" fill="url(#linear-gradient-27)"/><path d="M203.24,435.63c.32.77.69,1.58,1.12,2.45a1.42,1.42,0,0,1-.45-.16,3.73,3.73,0,0,1-1.18-1.28c-.27-.41-.54-.82-.82-1.23l0-.1-.09-.24c-.11-.3-.22-.59-.35-.88,0-.05-.05-.1-.07-.16l-.33-.71c0-.09-.08-.18-.13-.27s-.22-.45-.33-.66l-.14-.25-.33-.6-.18-.33c-.07-.11-.14-.22-.2-.33l-.19-.31h0a2.17,2.17,0,0,1-.41-.19l-.14-.08-.28-.19-.13-.11a3.4,3.4,0,0,1-.34-.32l-.06-.07c-.1-.12-.19-.24-.28-.37l-.09-.16a1.74,1.74,0,0,1-.18-.33l-.08-.16a4.56,4.56,0,0,1-.18-.52,3,3,0,0,1-.1-.65s0-.09,0-.13a4.1,4.1,0,0,1,0-.5s0-.06,0-.09a3.51,3.51,0,0,1,.12-.49l0,0a1.89,1.89,0,0,1,.24-.47v-.16c0-.33,0-.64-.06-.95,0-.07,0-.15,0-.22a9.35,9.35,0,0,0-.17-1.08s0,0,0,0c-.07-.32-.15-.63-.25-.94,0-.07-.05-.14-.07-.21a8.36,8.36,0,0,0-.32-.83l-.06-.14a16.26,16.26,0,0,0-1.13-2l-.1-.15-.46-.68a11,11,0,0,1,1.27-4.33,3.12,3.12,0,0,1,1.23-1.49,3,3,0,0,1,1.53-.18l11.45.62a1.24,1.24,0,0,1,.76.22,1.26,1.26,0,0,1,.31.89c0,.58.07,1.18.07,1.79-3.91,1.53-8.33,2.27-12.62.67a11.61,11.61,0,0,0,1.44,8.73,3.68,3.68,0,0,1,1.73,2.3,2.89,2.89,0,0,1-.3,2.37,15,15,0,0,0,1,4.85s0,0,0,0c.11.29.23.59.35.89Z" transform="translate(-9.65 -62.3)" fill="url(#linear-gradient-28)"/><path d="M228.59,430.76a83.9,83.9,0,0,1-7.14-7.22c-.31-.34-.77-.79-1.26-1.29a11.15,11.15,0,0,1-2-2.5h0a2.2,2.2,0,0,1-.18-.55c-.24-1.45.91-3.92,1-5.52a5.83,5.83,0,0,1,.43-2.7c.5-.94,1.52-1.45,2.32-2.14a6,6,0,0,0,2-4.5c0-1.1-.16-2.52.84-3l.07.12h0a13.05,13.05,0,0,1,.23,1.37,13.48,13.48,0,0,1-.68,5.06c.36,3.81-2.93,6.27,1,13.68a5,5,0,0,1,2.57,2.76,3.38,3.38,0,0,1,.19,2A22.3,22.3,0,0,0,228.59,430.76Z" transform="translate(-9.65 -62.3)" fill="url(#linear-gradient-29)"/><path d="M197.89,385.29c.53,5.58-2.2,11.06-1.82,16.65a3.46,3.46,0,0,0,1.32,2.91c1.13.66,2.53,0,3.8-.24,3.18-.71,6.46.78,9.7.47a2.51,2.51,0,0,0,2-.95,2.86,2.86,0,0,0,.25-1.74q-.62-8.64-2-17.18c-1.7,0-2.86,2-4.56,2.08a4,4,0,0,1-1.62-.38,27.63,27.63,0,0,1-4.82-2.52c-.75-.49-1.67-1.11-2.59-.81A13.61,13.61,0,0,1,197.89,385.29Z" transform="translate(-9.65 -62.3)" fill="#68e1fd"/><path d="M197.89,385.29c.53,5.58-2.2,11.06-1.82,16.65a3.46,3.46,0,0,0,1.32,2.91c1.13.66,2.53,0,3.8-.24,3.18-.71,6.46.78,9.7.47a2.51,2.51,0,0,0,2-.95,2.86,2.86,0,0,0,.25-1.74q-.62-8.64-2-17.18c-1.7,0-2.86,2-4.56,2.08a4,4,0,0,1-1.62-.38,27.63,27.63,0,0,1-4.82-2.52c-.75-.49-1.67-1.11-2.59-.81A13.61,13.61,0,0,1,197.89,385.29Z" transform="translate(-9.65 -62.3)" fill="url(#linear-gradient-30)"/><path d="M199.73,385.9c.39,4.9-1.63,9.7-1.35,14.61a3.33,3.33,0,0,0,1,2.55c.84.57,1.87,0,2.81-.22,2.35-.62,4.79.69,7.18.42a1.77,1.77,0,0,0,1.48-.83,3,3,0,0,0,.18-1.54c-.3-5-.79-10.07-1.47-15.06-1.26,0-2.12,1.76-3.37,1.82a2.65,2.65,0,0,1-1.21-.33,20.49,20.49,0,0,1-3.57-2.21c-.55-.43-1.23-1-1.91-.71A14.22,14.22,0,0,1,199.73,385.9Z" transform="translate(-9.65 -62.3)" fill="url(#linear-gradient-31)"/><ellipse cx="287.43" cy="388.94" rx="42.02" ry="5.71" fill="url(#linear-gradient-32)"/><path d="M256.25,329.11a3,3,0,0,0-1.76,1.47" transform="translate(-9.65 -62.3)" fill="#68e1fd"/><path d="M328.92,406.6a19.94,19.94,0,0,1-13.5-6.56,17.23,17.23,0,0,0-1.35-2.29c-1.35-5.05-5.57-10.4-9.39-11.65-4.34-.86-2.95,6.7-6.69,6.5-5.88-.3-5.9-6-9.16-7.64-4.79-.77-8.67,6-8.83,12.17-1.07,4.41-1.55,9-5.25,8.6-7-.81-1.41-11-3.75-16.58a5.54,5.54,0,0,0,.43-1.39c.21-1.39-1.09-3.83-1.69-3.83s-.19,1-1.09,2.11c-1.61-1.28-4.59-1.23-7.87.7-.88.28-1.8.61-2.67.94l0,0-5.88.95.1,2a2.7,2.7,0,0,0-.36.79l-.09,0c-.7-.11-1.3.08-1.36.41s.42.66,1.06.79l.25.62h.07c-.39.15-.65.38-.62.6s.55.47,1.18.45c.06.09.1.19.16.28,1.06,1.75,4.53,1.13,6-1.1a4.46,4.46,0,0,1,1.12.09,4.18,4.18,0,0,0,3.48,2,14.54,14.54,0,0,0,.39,3,8.43,8.43,0,0,0-.57,4.73,15.36,15.36,0,0,1,1-3v0a8.31,8.31,0,0,0,.29,4.71,18.86,18.86,0,0,1,.3-2.64,8.64,8.64,0,0,0,1.51,5.09,20.12,20.12,0,0,1-.35-2.24c.12.29.26.59.39.88a8.35,8.35,0,0,0,2,4.54s-.26-.79-.46-1.67c3.11,5.32,7.7,9.37,13.33,6.46,2.47,6,3.55,8.06,2.23,12.67a4,4,0,0,0-1.06,2.47,2.55,2.55,0,0,0,1.33,2.64c.72,2.75,1.56,7.75-.77,11h0a2,2,0,0,0-.38,2.17,13.21,13.21,0,0,1-1.2,2.85c-3.76,2.13-7.92,4.93,1.68,3.84,4.58-.52,3.39-2.52,2-3.84-.31-.51-.29-1,.3-1.76a3.17,3.17,0,0,0,.41-.21,2,2,0,0,0,.92-1.73h0l-.06-.37a.06.06,0,0,0,0,0c-.92-5.55-1.57-8.52-.43-12.72a4.05,4.05,0,0,0,1.07-2.48,2.73,2.73,0,0,0-.95-2.42,12.57,12.57,0,0,1,.54-7.3l.17.25,0,.05c.26.36.49.7.71,1a.86.86,0,0,1,.1.16,15.62,15.62,0,0,1,1.14,2l.05.14c.12.27.23.55.33.83l.06.21a7.66,7.66,0,0,1,.25.94l0,0c.07.35.12.71.16,1.08a1.64,1.64,0,0,1,0,.22c0,.31.05.62.06.95v.16a3,3,0,0,0-.24.47v0a2.52,2.52,0,0,0-.13.49s0,.06,0,.09a2.75,2.75,0,0,0,0,.5V430a3.84,3.84,0,0,0,.11.65,3.2,3.2,0,0,0,.18.52l.07.16.18.33a1.4,1.4,0,0,0,.1.16,3.27,3.27,0,0,0,.28.37l.06.07a2.5,2.5,0,0,0,.33.32l.13.11.28.19.14.08a2.26,2.26,0,0,0,.42.19h0c.06.1.13.2.19.31l.2.33c.06.11.12.22.19.33l.33.6c0,.08.09.16.13.25s.23.43.34.66.08.18.13.27l.33.71a.77.77,0,0,0,.07.16c.12.29.24.59.35.88a2.25,2.25,0,0,1,.08.24c.09.25.18.5.25.75a1.52,1.52,0,0,1,.06.2c.09.31.17.61.23.91a1.55,1.55,0,0,1,0,.21,6,6,0,0,1,.11.74l0,.23a6.38,6.38,0,0,1,0,.87c0,.05,0,.09,0,.14a5.87,5.87,0,0,1-.08.72c0,.07,0,.15,0,.22a4.25,4.25,0,0,1-.24.79h0a1.3,1.3,0,0,0-.18.42s0,0,0,0a1.78,1.78,0,0,0,.13,1l0,0a2.08,2.08,0,0,0,.28.47,2.28,2.28,0,0,1,0,.26,2.09,2.09,0,0,1,0,.25c0,.16,0,.32,0,.49s0,.15,0,.23-.05.41-.09.62,0,.25-.07.38-.05.26-.07.39l0,0-.23.14-.1.06-.24.16-.08.05-.26.16-.05,0c-.27.17-.54.35-.79.53l-.11.07-.19.14-.12.09-.17.13-.13.1-.15.12-.12.1-.14.11a1.59,1.59,0,0,1-.13.13l-.13.12-.16.17-.07.08-.11.12-.05.08-.08.12,0,.08a.6.6,0,0,0-.06.11.19.19,0,0,0,0,.07.53.53,0,0,0,0,.12s0,0,0,0a.56.56,0,0,0,.09.31l0,0,.1.1.05,0,.15.09.07,0,.19.07.08,0a1.27,1.27,0,0,0,.28.06l.07,0c.26,0,.56.07.93.09h1.47l.53,0h.26l.63-.05.23,0,1-.09.69-.1h0c3.67-.63,2-2.42.36-3.61a1.32,1.32,0,0,1-.09-1.6,1.69,1.69,0,0,0,.57-.28,1.62,1.62,0,0,0,.05-2.37c-1.22-2.38-2.2-4.26-2.92-6v0c-.12-.3-.24-.6-.34-.89l0,0a15.52,15.52,0,0,1-1-4.85,2.89,2.89,0,0,0,.31-2.37,3.75,3.75,0,0,0-1.73-2.3,11.65,11.65,0,0,1-1.45-8.73c4.38,1.63,8.91.83,12.88-.77v1.09c0,.34,0,.67,0,1,0,.14,0,.28,0,.42,0,.34,0,.67.07,1l0,.35c0,.34.07.67.12,1a2.54,2.54,0,0,0,0,.29c.05.34.1.66.16,1,0,.08,0,.16,0,.24.06.33.14.65.21,1a1.94,1.94,0,0,1,.05.2c.09.32.18.64.27.94l.06.16c.1.32.21.62.33.91a.5.5,0,0,0,.05.13c.12.3.25.6.39.88l.05.1a8.52,8.52,0,0,0,.46.84l0,.07c.17.27.34.55.53.81l0,0c.2.27.4.53.61.78h0l.21.23h0l0,0h0c.05.18.11.36.16.57l0,.06c0,.2.11.42.16.64a1.55,1.55,0,0,1,.05.23c.05.2.1.41.14.62s0,.13,0,.2l.15.8c0,.11,0,.22,0,.32s.06.39.08.59,0,.23,0,.35c0,.29.05.57.07.86,0,.11,0,.21,0,.31s0,.42,0,.62,0,.27,0,.4,0,.4,0,.6,0,.23,0,.34q0,.44-.12.84c0,.13-.05.25-.08.37s-.09.36-.14.53-.07.25-.11.37-.18.48-.29.71-.11.21-.16.31-.16.28-.25.42a1.81,1.81,0,0,0-.41.42l0,0a1.24,1.24,0,0,0-.1.2.61.61,0,0,0-.05.12,1.21,1.21,0,0,0,0,.18.9.9,0,0,0,0,.16,1,1,0,0,0,0,.17,1.34,1.34,0,0,0,0,.2.76.76,0,0,0,0,.15.86.86,0,0,0,.06.23l0,.13c0,.1.08.2.13.3l0,0c0,.06,0,.11,0,.16l-.06.3a4.16,4.16,0,0,1-.12.44l-.06.23c-.08.22-.16.45-.25.68l-.09.22-.12.3c-.74.37-1.52.78-2.21,1.19l-.07,0-.3.17-.09.06-.26.16-.09.06-.25.16-.07.06a2.83,2.83,0,0,0-.28.2h0l-.27.21,0,0-.17.16-.06.06-.13.13a.18.18,0,0,1-.05.07.83.83,0,0,0-.08.12.21.21,0,0,0,0,.06l-.06.12a.08.08,0,0,1,0,0,.88.88,0,0,0,0,.16h0a.42.42,0,0,0,0,.15s0,0,0,0a.41.41,0,0,0,.07.11l0,0,.12.08.07,0,.16.07.09,0,.23.07.1,0a7.53,7.53,0,0,0,.88.12H304l.42,0h1.72l.6,0,.28,0,1-.06c.31,0,.58-.06.83-.09l.17,0a5.62,5.62,0,0,0,1.25-.32h0c1.74-.72.85-2.08-.23-3.1-.28-.46-.25-.92.21-1.57a2,2,0,0,0,.39-.19,1.75,1.75,0,0,0,.66-2.16,38,38,0,0,1-.85-6h0v-.19c0-.06,0-.12,0-.18a19.37,19.37,0,0,1,1-6.35,3.46,3.46,0,0,0,.53-1.94,2.91,2.91,0,0,0-1.52-2.61,12.68,12.68,0,0,1,.06-4.88,25,25,0,0,0,6,7.55,2.42,2.42,0,0,0,.31.25l0,0c1.8,2.79,5.16,8.65,4.08,12.13a1.62,1.62,0,0,0,.32,1.91,9,9,0,0,1,.2,2.05c-3.19,2.15-7.85,5.53,2.33,4.54,4.53-.44,2.51-2.58.62-4a1.78,1.78,0,0,1,0-1.52,1.28,1.28,0,0,0,.49-.26,1.51,1.51,0,0,0-.08-2.25c-3.18-5.68-4.34-8.75-4.62-13.19a3.4,3.4,0,0,0-.2-2,5,5,0,0,0-2.56-2.76c-3.89-7.41-.6-9.86-1-13.68a13.28,13.28,0,0,0,.68-5.06,16,16,0,0,0-1.11-4.22,20.3,20.3,0,0,0,12.87,5.87.68.68,0,0,0,0,.14c1.65,3.38,7.41,1.76,10.3-3.06C335.66,406.87,329.91,405.62,328.92,406.6Z" transform="translate(-9.65 -62.3)" fill="#68e1fd"/><path d="M339.11,404.14c-2.88,4.82-8.65,6.44-10.3,3.06,0-.06,0-.09,0-.14a20.3,20.3,0,0,1-12.88-5.87,16.37,16.37,0,0,1,.89,2.84h0a13.05,13.05,0,0,1,.23,1.37,13.48,13.48,0,0,1-.68,5.06c.36,3.81-2.93,6.27,1,13.68a5,5,0,0,1,2.57,2.76,3.38,3.38,0,0,1,.19,2,22.3,22.3,0,0,0,.68,4.37,38,38,0,0,0,3.95,8.82,1.53,1.53,0,0,1,.08,2.25,1.44,1.44,0,0,1-.49.26,1.78,1.78,0,0,0,0,1.52c1.9,1.4,3.92,3.54-.61,4-10.19,1-5.53-2.39-2.33-4.54a9,9,0,0,0-.2-2.05,1.61,1.61,0,0,1-.32-1.91c1.07-3.48-2.28-9.34-4.09-12.13v0a3.49,3.49,0,0,1-.32-.25,22.78,22.78,0,0,1-4.06-4.44,30.34,30.34,0,0,1-1.92-3.11c0,.19-.08.39-.11.6h0a12.81,12.81,0,0,0,.05,4.27,2.91,2.91,0,0,1,1.52,2.61,3.39,3.39,0,0,1-.54,1.94,19.35,19.35,0,0,0-1,6.35v.18a1.28,1.28,0,0,1,0,.19h0a36.68,36.68,0,0,0,.84,6,1.76,1.76,0,0,1-.65,2.16,2.09,2.09,0,0,1-.4.19,1.29,1.29,0,0,0-.2,1.57c1.07,1,2,2.38.22,3.1h0a5.66,5.66,0,0,1-1.24.32l-.17,0c-.26,0-.53.07-.83.09l-1,.06-.28,0-.6,0h-1.71l-.42,0h-.15a7.73,7.73,0,0,1-.89-.12l-.1,0a.79.79,0,0,1-.22-.06l-.1,0-.16-.07-.07,0-.11-.08,0,0a.76.76,0,0,1-.08-.11l0,0a.4.4,0,0,1,0-.15h0a.41.41,0,0,1,0-.15l0,0a.61.61,0,0,1,.05-.12l0-.06.09-.12.05-.07.12-.13.06-.06.18-.16,0,0,.26-.21h0a2.69,2.69,0,0,1,.27-.2l.08-.06.24-.16.1-.06.25-.16.1-.06.29-.17.07,0c.7-.41,1.47-.82,2.21-1.19l.12-.3a1.45,1.45,0,0,0,.09-.22c.09-.23.18-.46.25-.69,0-.07,0-.14.07-.22s.08-.3.11-.44a1.59,1.59,0,0,0,.06-.3c0-.05,0-.1,0-.16l0,0a1.94,1.94,0,0,1-.13-.3.5.5,0,0,1,0-.13,1.55,1.55,0,0,1-.05-.23c0-.05,0-.1,0-.15V444a1,1,0,0,1,0-.17l0-.16c0-.06,0-.12.05-.18l.06-.12a1.24,1.24,0,0,1,.1-.2l0,0a1.63,1.63,0,0,1,.41-.42c.08-.14.17-.27.24-.42a3.07,3.07,0,0,0,.17-.31,6.15,6.15,0,0,0,.28-.71c.05-.12.08-.24.12-.37s.1-.35.14-.53.05-.24.08-.37.09-.55.12-.84l0-.34,0-.6c0-.13,0-.26,0-.4s0-.41,0-.62,0-.2,0-.31c0-.29,0-.57-.07-.86,0-.12,0-.24,0-.35s-.05-.39-.08-.59,0-.21-.05-.32c0-.27-.09-.54-.14-.8a1.42,1.42,0,0,1,0-.2c-.05-.21-.09-.42-.14-.62s0-.16-.05-.23-.11-.44-.17-.64c0,0,0,0,0-.06l-.16-.57,0,0h0a1.51,1.51,0,0,1-.21-.23h0a9.1,9.1,0,0,1-.61-.78l0,0c-.19-.26-.37-.54-.54-.81a.16.16,0,0,0,0-.07c-.16-.27-.31-.55-.46-.84a.31.31,0,0,0-.05-.1c-.13-.28-.27-.58-.39-.88,0,0,0-.08-.05-.13-.12-.29-.23-.6-.33-.91,0-.05,0-.1-.05-.16-.1-.3-.19-.62-.27-.94a1.17,1.17,0,0,1-.05-.2c-.08-.31-.15-.63-.22-1,0-.08,0-.16,0-.24-.06-.33-.12-.65-.17-1,0-.09,0-.19,0-.29,0-.33-.08-.66-.11-1l0-.35c0-.33-.06-.66-.08-1,0-.14,0-.28,0-.42l0-1v-.51c0-.2,0-.39,0-.58l-.25.1c-3.91,1.53-8.33,2.27-12.62.67a11.61,11.61,0,0,0,1.44,8.73,3.68,3.68,0,0,1,1.73,2.3,2.89,2.89,0,0,1-.3,2.37,15,15,0,0,0,1,4.85v0c.11.29.23.59.35.89v0c.32.77.69,1.58,1.12,2.45.52,1.06,1.12,2.23,1.79,3.54a1.53,1.53,0,0,1-.62,2.65,1.33,1.33,0,0,0,.09,1.6c1.65,1.19,3.31,3-.35,3.61h0c-.21,0-.44.07-.69.09s-.65.08-1,.1l-.24,0-.63.05h-.26l-.52,0h-1.48q-.54,0-.93-.09l-.07,0a1.81,1.81,0,0,1-.27-.06l-.08,0-.2-.07-.07,0-.14-.09-.05,0-.11-.1,0,0a.45.45,0,0,1-.09-.31.09.09,0,0,1,0,0,.5.5,0,0,1,0-.12l0-.07a.54.54,0,0,1,.05-.11l0-.08.08-.12.06-.08.11-.12.06-.08.17-.17.12-.12.14-.13.13-.11.13-.1.15-.12.12-.1.17-.13.13-.09.19-.14.1-.07c.26-.18.52-.36.79-.53l.06,0,.25-.16.08-.05.25-.16.1-.06.23-.14,0,0c0-.13.05-.26.08-.39s.05-.25.07-.38l.09-.62c0-.08,0-.16,0-.23s0-.33,0-.49,0-.17,0-.25a2.3,2.3,0,0,0,0-.26,2.48,2.48,0,0,1-.27-.47l0,0a1.7,1.7,0,0,1-.13-1s0,0,0,0a1.43,1.43,0,0,1,.17-.43h0a4.27,4.27,0,0,0,.25-.79c0-.07,0-.15,0-.22a5.87,5.87,0,0,0,.08-.72.66.66,0,0,0,0-.14,6.38,6.38,0,0,0,0-.87,1.64,1.64,0,0,0,0-.23c0-.25-.07-.5-.11-.74a1.55,1.55,0,0,1,0-.21c-.07-.3-.14-.6-.23-.91l-.06-.2c-.07-.22-.14-.43-.22-.65l0-.1-.09-.24c-.11-.3-.22-.59-.35-.88,0-.05-.05-.1-.07-.16l-.33-.71c0-.09-.08-.18-.13-.27s-.22-.45-.33-.66l-.14-.25-.33-.6-.18-.33c-.07-.11-.14-.22-.2-.33l-.19-.31h0a2.17,2.17,0,0,1-.41-.19l-.14-.08-.28-.19-.13-.11a3.4,3.4,0,0,1-.34-.32l-.06-.07c-.1-.12-.19-.24-.28-.37l-.09-.16a1.74,1.74,0,0,1-.18-.33c0-.05,0-.11-.08-.16a4.56,4.56,0,0,1-.18-.52,3,3,0,0,1-.1-.65s0-.09,0-.13a4.1,4.1,0,0,1,0-.5s0-.06,0-.09a3.51,3.51,0,0,1,.12-.49l0,0a1.89,1.89,0,0,1,.24-.47v-.16c0-.33,0-.64-.06-.95,0-.07,0-.15,0-.22a9.35,9.35,0,0,0-.17-1.08s0,0,0,0c-.07-.32-.15-.63-.25-.94,0-.07-.05-.14-.07-.21a8.36,8.36,0,0,0-.32-.83l-.06-.14a16.26,16.26,0,0,0-1.13-2l-.1-.15-.46-.68-.26-.36,0-.05-.18-.25a12.55,12.55,0,0,0-.53,7.3,2.76,2.76,0,0,1,.95,2.42,4.05,4.05,0,0,1-1.07,2.48c-1.15,4.2-.5,7.16.43,12.72v0c0,.13.05.24.07.37h0a2.06,2.06,0,0,1-.93,1.73,3.17,3.17,0,0,1-.41.21c-.58.75-.61,1.25-.3,1.76,1.38,1.32,2.57,3.32-2,3.84-9.6,1.09-5.43-1.71-1.67-3.84a13.21,13.21,0,0,0,1.2-2.85,2,2,0,0,1,.37-2.17h0c2.33-3.28,1.49-8.28.76-11a2.55,2.55,0,0,1-1.33-2.64,4.1,4.1,0,0,1,1.06-2.47c1.29-4.5.3-6.55-2.06-12.26-.06-.13-.11-.27-.17-.41-5.62,2.91-10.22-1.14-13.33-6.46.2.88.46,1.67.46,1.67a8.42,8.42,0,0,1-2-4.54c-.14-.29-.27-.59-.4-.88a20.12,20.12,0,0,0,.35,2.24,8.64,8.64,0,0,1-1.5-5.09,18.86,18.86,0,0,0-.3,2.64,8.3,8.3,0,0,1-.3-4.71v0a15.36,15.36,0,0,0-1,3,8.34,8.34,0,0,1,.57-4.73,15,15,0,0,1-.4-2.9v-.09a4.19,4.19,0,0,1-3.48-2,4.43,4.43,0,0,0-1.12-.09c-1.45,2.23-4.93,2.84-6,1.1l-.15-.28c-.63,0-1.15-.15-1.18-.45s.22-.45.62-.6h-.07l-.26-.62c-.63-.13-1.1-.47-1-.79s.66-.52,1.36-.41l.09,0a3,3,0,0,1,.35-.79l-.1-2,5.88-.95,0,0c.88-.33,1.79-.66,2.67-.94,3.28-1.93,6.27-2,7.88-.7.89-1.09.47-2.1,1.09-2.11s1.9,2.44,1.68,3.83a5.73,5.73,0,0,1-.42,1.38c2.34,5.57-3.28,15.78,3.75,16.59,3.69.42,4.18-4.19,5.24-8.6.17-6.21,4-12.94,8.83-12.17,3.26,1.6,3.29,7.34,9.16,7.64,3.75.2,2.36-7.36,6.69-6.5,3.82,1.25,8,6.6,9.4,11.65a18.38,18.38,0,0,1,1.35,2.29,19.9,19.9,0,0,0,13.5,6.56C329.9,405.62,335.65,406.87,339.11,404.14Z" transform="translate(-9.65 -62.3)" opacity="0.69" fill="url(#linear-gradient-33)" style="isolation:isolate"/><path d="M281.2,415.74c-.06-.13-.11-.27-.17-.41-5.62,2.91-10.22-1.14-13.33-6.46.2.88.46,1.67.46,1.67a8.42,8.42,0,0,1-2-4.54c-.14-.29-.27-.59-.4-.88a20.12,20.12,0,0,0,.35,2.24,8.64,8.64,0,0,1-1.5-5.09,18.86,18.86,0,0,0-.3,2.64,8.3,8.3,0,0,1-.3-4.71v0a15.36,15.36,0,0,0-1,3,8.34,8.34,0,0,1,.57-4.73,15,15,0,0,1-.4-2.9c.6-.23,1.41-.47,1.48-.24a45.08,45.08,0,0,0,3.71,9.36,15.18,15.18,0,0,0,7.29,6.72,16.49,16.49,0,0,1,4.08,1.69A3.46,3.46,0,0,1,281.2,415.74Z" transform="translate(-9.65 -62.3)" fill="url(#linear-gradient-34)"/><path d="M295.41,438.19c.32.77.69,1.58,1.12,2.45a1.42,1.42,0,0,1-.45-.16,3.73,3.73,0,0,1-1.18-1.28c-.27-.41-.54-.82-.82-1.23l0-.1-.09-.24c-.11-.3-.22-.59-.35-.88,0-.05-.05-.1-.07-.16l-.33-.71c0-.09-.08-.18-.13-.27s-.22-.45-.33-.66l-.14-.25-.33-.6-.18-.33c-.07-.11-.14-.22-.2-.33l-.19-.31h0a2.17,2.17,0,0,1-.41-.19l-.14-.08-.28-.19-.13-.11a3.4,3.4,0,0,1-.34-.32l-.06-.07c-.1-.12-.19-.24-.28-.37l-.09-.16a1.74,1.74,0,0,1-.18-.33c0-.05,0-.11-.08-.16a4.56,4.56,0,0,1-.18-.52,3,3,0,0,1-.1-.65s0-.09,0-.13a4.1,4.1,0,0,1,0-.5s0-.06,0-.09a3.51,3.51,0,0,1,.12-.49l0,0a1.89,1.89,0,0,1,.24-.47v-.16c0-.33,0-.64-.06-.95,0-.07,0-.15,0-.22a9.35,9.35,0,0,0-.17-1.08s0,0,0,0c-.07-.32-.15-.63-.25-.94,0-.07-.05-.14-.07-.21a8.36,8.36,0,0,0-.32-.83l-.06-.14a16.26,16.26,0,0,0-1.13-2l-.1-.15-.46-.68a11,11,0,0,1,1.27-4.33,3.12,3.12,0,0,1,1.23-1.49,3,3,0,0,1,1.53-.18l11.45.62a1.24,1.24,0,0,1,.76.22,1.26,1.26,0,0,1,.31.89c0,.58.07,1.18.07,1.79-3.91,1.53-8.33,2.27-12.62.67a11.61,11.61,0,0,0,1.44,8.73,3.68,3.68,0,0,1,1.73,2.3,2.89,2.89,0,0,1-.3,2.37,15,15,0,0,0,1,4.85v0c.11.29.23.59.35.89Z" transform="translate(-9.65 -62.3)" fill="url(#linear-gradient-35)"/><path d="M320.76,433.32a83.9,83.9,0,0,1-7.14-7.22c-.31-.34-.77-.79-1.26-1.29a11.15,11.15,0,0,1-2-2.5h0a2.2,2.2,0,0,1-.18-.55c-.24-1.45.91-3.92,1-5.52a5.83,5.83,0,0,1,.43-2.7c.5-.94,1.52-1.45,2.32-2.14a6,6,0,0,0,2-4.5c0-1.1-.16-2.52.84-3l.07.12h0a13.05,13.05,0,0,1,.23,1.37,13.48,13.48,0,0,1-.68,5.06c.36,3.81-2.93,6.27,1,13.68a5,5,0,0,1,2.57,2.76,3.38,3.38,0,0,1,.19,2A22.3,22.3,0,0,0,320.76,433.32Z" transform="translate(-9.65 -62.3)" fill="url(#linear-gradient-36)"/><path d="M290.07,387.85c.53,5.58-2.2,11.06-1.82,16.65a3.47,3.47,0,0,0,1.32,2.91c1.13.65,2.53,0,3.8-.25,3.17-.71,6.46.79,9.7.48a2.55,2.55,0,0,0,2-.95,2.89,2.89,0,0,0,.25-1.75q-.62-8.62-2-17.18c-1.7,0-2.86,2-4.56,2.08a3.85,3.85,0,0,1-1.62-.38,27.24,27.24,0,0,1-4.82-2.51c-.75-.49-1.67-1.11-2.59-.81A13.61,13.61,0,0,1,290.07,387.85Z" transform="translate(-9.65 -62.3)" fill="#68e1fd"/><path d="M290.07,387.85c.53,5.58-2.2,11.06-1.82,16.65a3.47,3.47,0,0,0,1.32,2.91c1.13.65,2.53,0,3.8-.25,3.17-.71,6.46.79,9.7.48a2.55,2.55,0,0,0,2-.95,2.89,2.89,0,0,0,.25-1.75q-.62-8.62-2-17.18c-1.7,0-2.86,2-4.56,2.08a3.85,3.85,0,0,1-1.62-.38,27.24,27.24,0,0,1-4.82-2.51c-.75-.49-1.67-1.11-2.59-.81A13.61,13.61,0,0,1,290.07,387.85Z" transform="translate(-9.65 -62.3)" fill="url(#linear-gradient-37)"/><path d="M291.91,388.46c.39,4.89-1.63,9.7-1.35,14.6a3.28,3.28,0,0,0,1,2.55c.84.58,1.87,0,2.81-.21,2.35-.62,4.78.69,7.18.41A1.75,1.75,0,0,0,303,405a2.9,2.9,0,0,0,.19-1.53q-.45-7.56-1.47-15.07c-1.26,0-2.12,1.76-3.38,1.83a2.54,2.54,0,0,1-1.2-.34,19.51,19.51,0,0,1-3.57-2.2c-.55-.43-1.23-1-1.91-.71C291.74,387.44,291.87,388,291.91,388.46Z" transform="translate(-9.65 -62.3)" fill="url(#linear-gradient-38)"/></svg>