<svg id="Layer_1" data-name="Layer 1" xmlns="http://www.w3.org/2000/svg" xmlns:xlink="http://www.w3.org/1999/xlink" viewBox="0 0 356.38 404.32"><defs><linearGradient id="linear-gradient" x1="275.69" y1="216.98" x2="251.16" y2="302.22" gradientUnits="userSpaceOnUse"><stop offset="0" stop-color="#010101" stop-opacity="0"/><stop offset="0.95" stop-color="#010101"/></linearGradient><linearGradient id="linear-gradient-2" x1="172.95" y1="241.78" x2="171.8" y2="288.23" xlink:href="#linear-gradient"/><linearGradient id="linear-gradient-3" x1="212.17" y1="273.76" x2="197.45" y2="542.35" xlink:href="#linear-gradient"/><linearGradient id="linear-gradient-4" x1="213.18" y1="273.81" x2="198.46" y2="542.41" xlink:href="#linear-gradient"/><linearGradient id="linear-gradient-5" x1="126.82" y1="273.57" x2="112.11" y2="542.17" xlink:href="#linear-gradient"/><linearGradient id="linear-gradient-6" x1="77.76" y1="270.88" x2="63.04" y2="539.48" xlink:href="#linear-gradient"/><linearGradient id="linear-gradient-7" x1="83.44" y1="271.2" x2="68.72" y2="539.79" xlink:href="#linear-gradient"/><linearGradient id="linear-gradient-8" x1="89.12" y1="271.51" x2="74.4" y2="540.1" xlink:href="#linear-gradient"/><linearGradient id="linear-gradient-9" x1="94.8" y1="271.82" x2="80.08" y2="540.41" xlink:href="#linear-gradient"/><linearGradient id="linear-gradient-10" x1="100.48" y1="272.13" x2="85.76" y2="540.73" xlink:href="#linear-gradient"/><linearGradient id="linear-gradient-11" x1="193.38" y1="272.73" x2="178.66" y2="541.32" gradientTransform="translate(78.75 -30.77) rotate(11.8)" xlink:href="#linear-gradient"/><linearGradient id="linear-gradient-12" x1="111.84" y1="272.75" x2="97.13" y2="541.35" xlink:href="#linear-gradient"/><linearGradient id="linear-gradient-13" x1="204.74" y1="273.35" x2="190.02" y2="541.94" gradientTransform="translate(75.48 -32.24) rotate(11.36)" xlink:href="#linear-gradient"/><linearGradient id="linear-gradient-14" x1="123.2" y1="273.37" x2="108.48" y2="541.97" xlink:href="#linear-gradient"/><linearGradient id="linear-gradient-15" x1="128.88" y1="273.69" x2="114.17" y2="542.28" xlink:href="#linear-gradient"/><linearGradient id="linear-gradient-16" x1="134.56" y1="274" x2="119.84" y2="542.59" xlink:href="#linear-gradient"/><linearGradient id="linear-gradient-17" x1="140.24" y1="274.31" x2="125.52" y2="542.9" xlink:href="#linear-gradient"/><linearGradient id="linear-gradient-18" x1="145.93" y1="274.62" x2="131.21" y2="543.22" xlink:href="#linear-gradient"/><linearGradient id="linear-gradient-19" x1="151.6" y1="274.93" x2="136.88" y2="543.53" xlink:href="#linear-gradient"/><linearGradient id="linear-gradient-20" x1="244.5" y1="275.53" x2="229.78" y2="544.12" gradientTransform="translate(77.62 -41.6) rotate(11.8)" xlink:href="#linear-gradient"/><linearGradient id="linear-gradient-21" x1="162.97" y1="275.55" x2="148.25" y2="544.15" xlink:href="#linear-gradient"/><linearGradient id="linear-gradient-22" x1="168.64" y1="275.86" x2="153.92" y2="544.46" xlink:href="#linear-gradient"/><linearGradient id="linear-gradient-23" x1="261.54" y1="276.46" x2="246.83" y2="545.06" gradientTransform="translate(77.84 -45.48) rotate(11.88)" xlink:href="#linear-gradient"/><linearGradient id="linear-gradient-24" x1="337.96" y1="280.65" x2="323.24" y2="549.24" xlink:href="#linear-gradient"/><linearGradient id="linear-gradient-25" x1="337.36" y1="280.62" x2="322.65" y2="549.21" xlink:href="#linear-gradient"/><linearGradient id="linear-gradient-26" x1="249.78" y1="280.31" x2="235.07" y2="548.91" xlink:href="#linear-gradient"/><linearGradient id="linear-gradient-27" x1="299.03" y1="283.01" x2="284.31" y2="551.61" xlink:href="#linear-gradient"/><linearGradient id="linear-gradient-28" x1="293.22" y1="282.69" x2="278.5" y2="551.29" xlink:href="#linear-gradient"/><linearGradient id="linear-gradient-29" x1="287.4" y1="282.37" x2="272.68" y2="550.97" xlink:href="#linear-gradient"/><linearGradient id="linear-gradient-30" x1="281.59" y1="282.05" x2="266.88" y2="550.65" xlink:href="#linear-gradient"/><linearGradient id="linear-gradient-31" x1="275.78" y1="281.74" x2="261.06" y2="550.33" xlink:href="#linear-gradient"/><linearGradient id="linear-gradient-32" x1="357.19" y1="281.7" x2="342.47" y2="550.3" gradientTransform="translate(638.57 -54.12) rotate(78.2)" xlink:href="#linear-gradient"/><linearGradient id="linear-gradient-33" x1="264.15" y1="281.1" x2="249.44" y2="549.69" xlink:href="#linear-gradient"/><linearGradient id="linear-gradient-34" x1="345.56" y1="281.06" x2="330.84" y2="549.66" gradientTransform="translate(630.14 -42.57) rotate(78.64)" xlink:href="#linear-gradient"/><linearGradient id="linear-gradient-35" x1="252.53" y1="280.46" x2="237.81" y2="549.06" xlink:href="#linear-gradient"/><linearGradient id="linear-gradient-36" x1="246.72" y1="280.14" x2="232" y2="548.74" xlink:href="#linear-gradient"/><linearGradient id="linear-gradient-37" x1="240.91" y1="279.82" x2="226.19" y2="548.42" xlink:href="#linear-gradient"/><linearGradient id="linear-gradient-38" x1="235.1" y1="279.51" x2="220.38" y2="548.1" xlink:href="#linear-gradient"/><linearGradient id="linear-gradient-39" x1="229.27" y1="279.19" x2="214.56" y2="547.78" xlink:href="#linear-gradient"/><linearGradient id="linear-gradient-40" x1="223.47" y1="278.87" x2="208.75" y2="547.46" xlink:href="#linear-gradient"/><linearGradient id="linear-gradient-41" x1="304.87" y1="278.84" x2="290.16" y2="547.43" gradientTransform="translate(586.64 -12.01) rotate(78.2)" xlink:href="#linear-gradient"/><linearGradient id="linear-gradient-42" x1="211.84" y1="278.23" x2="197.12" y2="546.83" xlink:href="#linear-gradient"/><linearGradient id="linear-gradient-43" x1="206.03" y1="277.91" x2="191.31" y2="546.51" xlink:href="#linear-gradient"/><linearGradient id="linear-gradient-44" x1="287.43" y1="277.88" x2="272.72" y2="546.48" gradientTransform="translate(568.81 1.61) rotate(78.12)" xlink:href="#linear-gradient"/><linearGradient id="linear-gradient-45" x1="69.51" y1="161.01" x2="53.87" y2="321.99" xlink:href="#linear-gradient"/><linearGradient id="linear-gradient-46" x1="64.95" y1="307.26" x2="63.11" y2="212.52" xlink:href="#linear-gradient"/><linearGradient id="linear-gradient-47" x1="64.62" y1="180.47" x2="62.78" y2="565.42" xlink:href="#linear-gradient"/><linearGradient id="linear-gradient-48" x1="53.96" y1="222.25" x2="79.38" y2="235.59" xlink:href="#linear-gradient"/><linearGradient id="linear-gradient-49" x1="47.58" y1="222.25" x2="72.99" y2="235.59" xlink:href="#linear-gradient"/><linearGradient id="linear-gradient-50" x1="60.63" y1="222.25" x2="86.04" y2="235.59" xlink:href="#linear-gradient"/><linearGradient id="linear-gradient-51" x1="53.74" y1="250.21" x2="79.16" y2="263.55" xlink:href="#linear-gradient"/><linearGradient id="linear-gradient-52" x1="47.36" y1="250.21" x2="72.77" y2="263.55" xlink:href="#linear-gradient"/><linearGradient id="linear-gradient-53" x1="60.41" y1="250.21" x2="85.82" y2="263.55" xlink:href="#linear-gradient"/><linearGradient id="linear-gradient-54" x1="21.98" y1="304.3" x2="173.14" y2="356.42" xlink:href="#linear-gradient"/><linearGradient id="linear-gradient-55" x1="53.88" y1="316.33" x2="79.29" y2="329.67" xlink:href="#linear-gradient"/><linearGradient id="linear-gradient-56" x1="47.5" y1="316.33" x2="72.91" y2="329.67" xlink:href="#linear-gradient"/><linearGradient id="linear-gradient-57" x1="60.55" y1="316.33" x2="85.96" y2="329.67" xlink:href="#linear-gradient"/><linearGradient id="linear-gradient-58" x1="53.88" y1="345.15" x2="79.29" y2="358.49" xlink:href="#linear-gradient"/><linearGradient id="linear-gradient-59" x1="47.5" y1="345.15" x2="72.91" y2="358.49" xlink:href="#linear-gradient"/><linearGradient id="linear-gradient-60" x1="60.55" y1="345.15" x2="85.96" y2="358.49" xlink:href="#linear-gradient"/><linearGradient id="linear-gradient-61" x1="53.87" y1="287.69" x2="79.29" y2="301.03" xlink:href="#linear-gradient"/><linearGradient id="linear-gradient-62" x1="60.43" y1="287.69" x2="85.84" y2="301.03" xlink:href="#linear-gradient"/><linearGradient id="linear-gradient-63" x1="47.38" y1="287.69" x2="72.79" y2="301.03" xlink:href="#linear-gradient"/><linearGradient id="linear-gradient-64" x1="50.35" y1="159.15" x2="34.72" y2="320.13" xlink:href="#linear-gradient"/><linearGradient id="linear-gradient-65" x1="88.32" y1="162.84" x2="72.68" y2="323.82" xlink:href="#linear-gradient"/><linearGradient id="linear-gradient-66" x1="66.15" y1="227.82" x2="57.87" y2="291.52" xlink:href="#linear-gradient"/><linearGradient id="linear-gradient-67" x1="64.73" y1="314.14" x2="63.81" y2="456.72" xlink:href="#linear-gradient"/><linearGradient id="linear-gradient-68" x1="23" y1="364.48" x2="181.22" y2="443.12" xlink:href="#linear-gradient"/><linearGradient id="linear-gradient-69" x1="298.29" y1="161.01" x2="282.65" y2="321.99" xlink:href="#linear-gradient"/><linearGradient id="linear-gradient-70" x1="293.73" y1="307.26" x2="291.89" y2="212.52" xlink:href="#linear-gradient"/><linearGradient id="linear-gradient-71" x1="293.41" y1="180.47" x2="291.57" y2="565.42" xlink:href="#linear-gradient"/><linearGradient id="linear-gradient-72" x1="282.75" y1="222.25" x2="308.16" y2="235.59" xlink:href="#linear-gradient"/><linearGradient id="linear-gradient-73" x1="276.37" y1="222.25" x2="301.78" y2="235.59" xlink:href="#linear-gradient"/><linearGradient id="linear-gradient-74" x1="289.42" y1="222.25" x2="314.83" y2="235.59" xlink:href="#linear-gradient"/><linearGradient id="linear-gradient-75" x1="282.53" y1="250.21" x2="307.94" y2="263.55" xlink:href="#linear-gradient"/><linearGradient id="linear-gradient-76" x1="276.15" y1="250.21" x2="301.56" y2="263.55" xlink:href="#linear-gradient"/><linearGradient id="linear-gradient-77" x1="289.2" y1="250.21" x2="314.61" y2="263.55" xlink:href="#linear-gradient"/><linearGradient id="linear-gradient-78" x1="250.76" y1="304.3" x2="401.92" y2="356.42" xlink:href="#linear-gradient"/><linearGradient id="linear-gradient-79" x1="282.66" y1="316.33" x2="308.07" y2="329.67" xlink:href="#linear-gradient"/><linearGradient id="linear-gradient-80" x1="276.28" y1="316.33" x2="301.69" y2="329.67" xlink:href="#linear-gradient"/><linearGradient id="linear-gradient-81" x1="289.33" y1="316.33" x2="314.74" y2="329.67" xlink:href="#linear-gradient"/><linearGradient id="linear-gradient-82" x1="282.66" y1="345.15" x2="308.07" y2="358.49" xlink:href="#linear-gradient"/><linearGradient id="linear-gradient-83" x1="276.28" y1="345.15" x2="301.69" y2="358.49" xlink:href="#linear-gradient"/><linearGradient id="linear-gradient-84" x1="289.33" y1="345.15" x2="314.74" y2="358.49" xlink:href="#linear-gradient"/><linearGradient id="linear-gradient-85" x1="282.66" y1="287.69" x2="308.07" y2="301.03" xlink:href="#linear-gradient"/><linearGradient id="linear-gradient-86" x1="289.21" y1="287.69" x2="314.62" y2="301.03" xlink:href="#linear-gradient"/><linearGradient id="linear-gradient-87" x1="276.16" y1="287.69" x2="301.57" y2="301.03" xlink:href="#linear-gradient"/><linearGradient id="linear-gradient-88" x1="279.14" y1="159.15" x2="263.5" y2="320.13" xlink:href="#linear-gradient"/><linearGradient id="linear-gradient-89" x1="317.11" y1="162.84" x2="301.47" y2="323.82" xlink:href="#linear-gradient"/><linearGradient id="linear-gradient-90" x1="294.93" y1="227.82" x2="286.65" y2="291.52" xlink:href="#linear-gradient"/><linearGradient id="linear-gradient-91" x1="293.51" y1="314.14" x2="292.59" y2="456.72" xlink:href="#linear-gradient"/><linearGradient id="linear-gradient-92" x1="251.79" y1="364.48" x2="410" y2="443.12" xlink:href="#linear-gradient"/></defs><title>UK</title><path d="M435.86,355.92c-10.6,20-31.36,33.12-53.13,39.46s-44.75,6.74-67.42,7.12q-62.24,1-124.44,2c-14.24.22-28.7.41-42.53-3.07-28.41-7.18-52-30.92-58.93-59.4s3-60.4,24.87-79.87c19.95-17.75,47-24.5,72.23-33.28,21.17-7.34,41.05-17.28,55.76-34.59,8.24-9.75,14.8-15,23-17.28.35.25.66.53,1,.75-.6.66-1.13,1.7-1.85,1.85-1.41.32-2.95-.12-4.33.22a6.54,6.54,0,0,0-3.48,2c-2.48,3.2-4.58,6.71-7,9.94-1.16,1.57-1.47,2.7-.31,4.52,2.32,3.73,3.89,7.71,2.45,12.32-.54,1.7.4,2.39,2.13,1.7.56-.22,1.16-.32,2.19-.63a33.75,33.75,0,0,0,.07,4.77c.12.9.69,2.28,1.34,2.44a3.8,3.8,0,0,0,3-.81,43.74,43.74,0,0,0,4-4.3c2,3.14,2,3.39.15,5.77-1.12,1.47-2.47,2.67-1.19,5,.72,1.25-.09,2.91-2.13,2.79a10.35,10.35,0,0,1-2.41-.38c-1.85-.5-2.8.19-3.33,2s.53,2.7,1.85,3.64c3.33,2.38,3.29,3.73.06,6.11-1.16.88-2.38,1.67-3.51,2.61-.41.34-.91,1-.84,1.47.25,2.51.5,4.95,3.16,6.43a64.18,64.18,0,0,1,6.37,4.55c-.6.78-.91,1.22-1.25,1.63-2.11,2.47-2.17,2.47-4.08-.07-1.07-1.34-2-2.82-3.17-4-.44-.5-1.41-.5-2.13-.72-.13.75-.6,1.69-.32,2.29,1.48,3.26,1.38,3.76-2,5.8-.44-1.1-.91-2.13-1.32-3.2-1.51-4-4.55-4.83-7.9-2.1-2.26,1.82-4.27,1.6-6.12-.6l-2.79-3.29c-2.2,3.73-5.24,3.86-8.91,3a19.19,19.19,0,0,0,1-2.88,2.87,2.87,0,0,0-.19-2.2c-2.1-2.41-4.36-4.74-6.62-7.15-.78.6-1.22,1-1.75,1.35-2.67,1.63-3.11,3.6-1.29,6.21a16,16,0,0,1,2.29,4.61,3.72,3.72,0,0,1-.28,3.07c-2.89,3.58-5.46,7.47-9.91,9.44-.6.25-1,1.73-.85,2.54a14.35,14.35,0,0,0,1.51,3.36c2.66-1.92,5-3.55,7.34-5.27,1.19-.88,2-.82,3,.31,2.8,3.29,5.27,6.62,4.46,11.39-.28,1.63.34,3.45.09,5.11a7,7,0,0,1-1.66,3.95c-3.95,3.73-8,7.31-12.26,10.69-1.13.91-3.14,1.66-4.39,1.29-3.89-1.19-6.18.41-8.06,3.48-1.13,1.85-2.61,2.38-4.83,1.85a57.23,57.23,0,0,0-8.53-1.29c-.69-.06-2,.76-2.13,1.29a77.59,77.59,0,0,0-.66,8.62,3.67,3.67,0,0,0,1,2c1.07,1.29,2.48,2.35,3.36,3.76a6.6,6.6,0,0,0,10.88,1c1.69-1.92,7.28-3,9.41-1.73a1.85,1.85,0,0,1,.78,1.29c.25,1.79.32,3.6.63,5.36.25,1.35.72,3.7,1.22,3.73a8.49,8.49,0,0,0,5.24-1c3-2.13,5.86-1.51,7.06,2.13.56,1.73,1,3.45,1.63,5.18,1.47,4.17,7.43,7.74,11.26,6.36,1.63-.59,3-2.19,4.26-3.54,3.45-3.48,7.21-3.51,10.85.19a5,5,0,0,1-.85,1c-3.7,2.82-7.27,5.71-8.4,10.6-.09.47-1,1-1.63,1.16-4.58,1.5-9.1,2.29-13.11-1.57-.63-.59-1.57-.88-2.26-1.47-2.76-2.26-5.83-2.26-9.31-2.39-5.49-.22-8.47,1.89-10.45,6.75-1.09,2.69-5,2.57-6.46.09-.4-.66-.84-1.29-1.28-1.94-3.86,3-4,3.07-2.54,7.27.78,2.26.15,3.51-1.66,4.71-2.32,1.56-4.46,3.38-6.81,4.92a3.86,3.86,0,0,1-2.92.72c-1.94-.72-2.72.22-3.29,1.69a6.94,6.94,0,0,1-4.39,4.43,4.79,4.79,0,0,0-3.51,3.76c-.41,1.85-1.63,2.23-3.39,2.26-4,0-8,.31-12,.47-1.47.06-2.63.37-2.76,2.22-.12,1.67.66,2.14,2.1,2.48,4.74,1.07,9.35,2.42,11.36,8.06a37.35,37.35,0,0,0,5.33-7.12c1.69-3.16,2.73-4,5.89-2.47,2.51,1.22,3.7.53,4.39-1.82.82-2.76,2.39-2.86,4.71-1.73,7.87,3.86,15.8,7.56,23.68,11.48,1.91.94,2.94.66,3.89-1.16,2.66-5.14,5.48-10.19,8-15.43,1-2.16,2.07-2.6,4.36-1.94,11.51,3.41,23.05,6.64,34.59,10,2.2.63,3.26.16,3.26-2.32,0-3.36.35-3.51,3.55-3.23,4.51.37,9,.66,13.51.94A7.19,7.19,0,0,0,280,375c-.53-2.51-1-4.76-1.66-7.84,1.54,1,2.38,1.48,3.17,2,3.29,2.38,6.8,4.55,9.85,7.21,3.45,3.11,7.27,3.14,11.38,2.61l1.88-.29c6.81-1,13.2-.59,18.66,4.43.75.72,2.76.75,3.89.31,4.58-1.73,9-3.7,13.48-5.74,2-.91,3.83-1.76,5.37,1a28.19,28.19,0,0,0,2.51-2.76,7,7,0,0,1,6.65-3.39,12.08,12.08,0,0,0,4-.53c.56-.16,1.41-.73,1.5-1.23.82-3.86,1.48-7.71,2.29-12.13-4.1.62-7.74,1.16-11.35,1.78-3.82.63-3.89.63-4.77-3-1.19-4.92-1.19-4.89-6.3-5a34.88,34.88,0,0,1-4.73-.72c0-.44,0-.88.06-1.35,3.13-.15,6.27-.37,9.41-.44,4.58-.09,7.15-2.57,7.46-7.4l-4.45-1.88c4.42-2,9.88,1,13.29-3.83-1-1.47-1.88-2.88-2.91-4.51.75-.13,1.19-.32,1.44-.19,4.8,2.45,7.56-.34,10.07-3.86.69-.94,1.5-1.82,2.22-2.73a45.77,45.77,0,0,0,8.88-17.78v-2.19c-4.58-13.9-15.78-19.16-28.79-21.89a16.27,16.27,0,0,0-5.93.19c-2.82.53-4.7,2.25-4.7,5.39,0,1.63-.75,2.13-2.26,1.57-2.51-.94-5.46-2.26-5.46-5,0-1.82,2.39-3.64,3.74-5.46.12-.21.4-.31.65-.47,5.68-3.48,6.15-4.26,4-10.6-1.45-4.26-3.42-8.34-5.24-12.45-1.44-3.23-1.32-3.67,2.1-4.73,1.66-.5,2.54-1.35,1.6-3.17-2.07-3.92-4-7.87-6.18-11.73-2.63-4.73-2.48-6.18,2-9.16,2-1.31,2.29-2.6.59-4.26a25.22,25.22,0,0,0-3-2.73A23.54,23.54,0,0,1,326,211c-2-4.39-4.92-8-10-9.22a5.77,5.77,0,0,0-1-.29c-4.7.22-7.27-2.66-7.93-6.65a97.15,97.15,0,0,1-1.57-15.11c46.88,10.5,89.47,39.39,116.35,79.25C440.94,287.43,451.92,325.6,435.86,355.92Z" transform="translate(-87.22 -0.29)" fill="#68e1fd" opacity="0.4" style="isolation:isolate"/><g id="XQZDeD" opacity="0.74"><path d="M381.26,305.53v2.19a45.77,45.77,0,0,1-8.88,17.78c-.72.91-1.53,1.79-2.22,2.73-2.51,3.52-5.27,6.31-10.07,3.86-.25-.13-.69.06-1.44.19,1,1.63,1.94,3,2.91,4.51-3.41,4.87-8.87,1.82-13.29,3.83l4.45,1.88c-.31,4.83-2.88,7.31-7.46,7.4-3.14.07-6.28.29-9.41.44,0,.47,0,.91-.06,1.35a34.88,34.88,0,0,0,4.73.72c5.11.16,5.11.13,6.3,5,.88,3.67.95,3.67,4.77,3,3.61-.62,7.25-1.16,11.35-1.78-.81,4.42-1.47,8.27-2.29,12.13-.09.5-.94,1.07-1.5,1.23a12.08,12.08,0,0,1-4,.53,7,7,0,0,0-6.65,3.39,28.19,28.19,0,0,1-2.51,2.76c-1.54-2.8-3.36-1.95-5.37-1-4.45,2-8.9,4-13.48,5.74-1.13.44-3.14.41-3.89-.31-5.46-5-11.85-5.46-18.66-4.43l-1.88.29c-4.11.53-7.93.5-11.38-2.61-3.05-2.66-6.56-4.83-9.85-7.21-.79-.53-1.63-1-3.17-2,.63,3.08,1.13,5.33,1.66,7.84a7.19,7.19,0,0,1-1.85.35c-4.51-.28-9-.57-13.51-.94-3.2-.28-3.55-.13-3.55,3.23,0,2.48-1.06,2.95-3.26,2.32-11.54-3.33-23.08-6.56-34.59-10-2.29-.66-3.32-.22-4.36,1.94-2.48,5.24-5.3,10.29-8,15.43-.95,1.82-2,2.1-3.89,1.16-7.88-3.92-15.81-7.62-23.68-11.48-2.32-1.13-3.89-1-4.71,1.73-.69,2.35-1.88,3-4.39,1.82-3.16-1.54-4.2-.69-5.89,2.47A37.35,37.35,0,0,1,163,390.2c-2-5.64-6.62-7-11.36-8.06-1.44-.34-2.22-.81-2.1-2.48.13-1.85,1.29-2.16,2.76-2.22,4-.16,8-.44,12-.47,1.76,0,3-.41,3.39-2.26a4.79,4.79,0,0,1,3.51-3.76,6.94,6.94,0,0,0,4.39-4.43c.57-1.47,1.35-2.41,3.29-1.69a3.86,3.86,0,0,0,2.92-.72c2.35-1.54,4.49-3.36,6.81-4.92,1.81-1.2,2.44-2.45,1.66-4.71-1.48-4.2-1.32-4.26,2.54-7.27.44.65.88,1.28,1.28,1.94,1.51,2.48,5.37,2.6,6.46-.09,2-4.86,5-7,10.45-6.75,3.48.13,6.55.13,9.31,2.39.69.59,1.63.88,2.26,1.47,4,3.86,8.53,3.07,13.11,1.57.63-.19,1.54-.69,1.63-1.16,1.13-4.89,4.7-7.78,8.4-10.6a5,5,0,0,0,.85-1c-3.64-3.7-7.4-3.67-10.85-.19-1.29,1.35-2.63,2.95-4.26,3.54-3.83,1.38-9.79-2.19-11.26-6.36-.6-1.73-1.07-3.45-1.63-5.18-1.2-3.64-4-4.26-7.06-2.13a8.49,8.49,0,0,1-5.24,1c-.5,0-1-2.38-1.22-3.73-.31-1.76-.38-3.57-.63-5.36a1.85,1.85,0,0,0-.78-1.29c-2.13-1.25-7.72-.19-9.41,1.73a6.6,6.6,0,0,1-10.88-1c-.88-1.41-2.29-2.47-3.36-3.76a3.67,3.67,0,0,1-1-2,77.59,77.59,0,0,1,.66-8.62c.09-.53,1.44-1.35,2.13-1.29a57.23,57.23,0,0,1,8.53,1.29c2.22.53,3.7,0,4.83-1.85,1.88-3.07,4.17-4.67,8.06-3.48,1.25.37,3.26-.38,4.39-1.29,4.23-3.38,8.31-7,12.26-10.69a7,7,0,0,0,1.66-3.95c.25-1.66-.37-3.48-.09-5.11.81-4.77-1.66-8.1-4.46-11.39-1-1.13-1.78-1.19-3-.31-2.29,1.72-4.68,3.35-7.34,5.27a14.35,14.35,0,0,1-1.51-3.36c-.12-.81.25-2.29.85-2.54,4.45-2,7-5.86,9.91-9.44a3.72,3.72,0,0,0,.28-3.07,16,16,0,0,0-2.29-4.61c-1.82-2.61-1.38-4.58,1.29-6.21.53-.32,1-.75,1.75-1.35,2.26,2.41,4.52,4.74,6.62,7.15a2.87,2.87,0,0,1,.19,2.2,19.19,19.19,0,0,1-1,2.88c3.67.85,6.71.72,8.91-3l2.79,3.29c1.85,2.2,3.86,2.42,6.12.6,3.35-2.73,6.39-1.91,7.9,2.1.41,1.07.88,2.1,1.32,3.2,3.38-2,3.48-2.54,2-5.8-.28-.6.19-1.54.32-2.29.72.22,1.69.22,2.13.72,1.16,1.22,2.1,2.7,3.17,4,1.91,2.54,2,2.54,4.08.07.34-.41.65-.85,1.25-1.63a64.18,64.18,0,0,0-6.37-4.55c-2.66-1.48-2.91-3.92-3.16-6.43-.07-.47.43-1.13.84-1.47,1.13-.94,2.35-1.73,3.51-2.61,3.23-2.38,3.27-3.73-.06-6.11-1.32-.94-2.44-1.7-1.85-3.64s1.48-2.54,3.33-2a10.35,10.35,0,0,0,2.41.38c2,.12,2.85-1.54,2.13-2.79-1.28-2.32.07-3.52,1.19-5,1.86-2.38,1.86-2.63-.15-5.77a43.74,43.74,0,0,1-4,4.3,3.8,3.8,0,0,1-3,.81c-.65-.16-1.22-1.54-1.34-2.44a33.75,33.75,0,0,1-.07-4.77c-1,.31-1.63.41-2.19.63-1.73.69-2.67,0-2.13-1.7,1.44-4.61-.13-8.59-2.45-12.32-1.16-1.82-.85-3,.31-4.52,2.45-3.23,4.55-6.74,7-9.94a6.54,6.54,0,0,1,3.48-2c1.38-.34,2.92.1,4.33-.22.72-.15,1.25-1.19,1.85-1.85-.35-.22-.66-.5-1-.75a2.69,2.69,0,0,0-.78-.38,42.27,42.27,0,0,0-5.83-1,3.82,3.82,0,0,0-2.67.88c-1.41,1.5-2.38,2.29-4.8,1.28-1.47-.62-3.92.76-5.86,1.45-1.73.62-3.33,1.78-5.08,2.16a3.9,3.9,0,0,1-3.11-1.19c-2-2.23-3.82-4.67-6-7.37-1.44,3.61,1.07,7.56-2.72,10.22-2.39-3.45-4.74-6.8-7.22-10.38L218.37,175l-6.52-5.3A9.36,9.36,0,0,1,214,169c1.79-.06,2-1.16,2.39-2.66.5-2.2,1-4.65,2.32-6.43,3.35-4.58,7.05-8.91,10.82-13.14,1.41-1.57,1.78-2.83.53-4.49-.25-.37-.38-.85-.63-1.19-3.73-4.67-2.54-9.44-.31-14.18a3,3,0,0,1,2.19-1.38c1.85,0,3.7.29,5.71.22-2.38-1.88-5.77-2.76-6.08-6.42-.25-3-.54-6.06-.82-9.48-1,.44-1.82.73-2.54,1.13-3.51,2.07-6.93,4.27-10.5,6.24-1.82,1-2.14,2.11-1.48,4a17.14,17.14,0,0,1,.47,3.66c.25,2.64-1,4.33-3.29,5.62a5.14,5.14,0,0,0-1.88,2.76c-1.35,3.82-2.51,7.74-3.77,11.6-.75,2.29-4.86,4.58-7.15,4.08a2,2,0,0,1-1-3.58c3.51-3.45,4.89-7.81,6.34-12.35.81-2.64,3.35-4.74,5.33-7.37-.5-.6-1.29-1.57-2.17-2.61,1.45-1.66,2.86-3.23,4.83-5.48-2.13.22-3.48.34-4.83.47a1.86,1.86,0,0,0-.22-.38,21.87,21.87,0,0,1,3-1.85c2.67-1.1,3.36-3.26,3.45-5.83v-2.2c-.12-3.1.6-5.83,3.36-7.71a4.32,4.32,0,0,0,1.75-2c1.23-4.2,4.52-6.4,7.91-8.5,1.82-1.13,2.22-2.48.62-4.39-4.61,2.23-9.18,4.58-11.85,9.1-3.64,6.11-9.06,7.9-15.65,7.52a3.34,3.34,0,0,1-1.6-.22c-1.16-.84-2.22-1.82-3.35-2.76a14.21,14.21,0,0,1,3.63-.91c2.83.07,5.18-.62,6.81-3.07,2.16-3.29,1.19-5.39-2.7-6.12a22.74,22.74,0,0,1-3.6-1.34c.06-.35.09-.69.15-1,1.35-.25,2.67-.53,4.2-.85V83c0-3.23.73-3.79,3.92-2.79,1.82.56,3.58,1.29,5.4,1.72a2.79,2.79,0,0,0,2.16-.56c.25-.25-.06-1.38-.37-1.94-.51-1-1.29-1.76-1.85-2.67-1.13-1.82-1.16-3.7.44-5.21s3.23-1.91,5.26-.28c2.54,2,4.9,1.95,7.5.22,2.1-1.41,2.16-2.7.12-4.2-1.69-1.26-3.44-2.45-5.2-3.64l.28-1.16a38.62,38.62,0,0,1,5.05,0c2,.32,2.73-.69,2.76-2.35.06-5.27.78-10.57-2.76-15.37-1.63-2.26-2.2-5.33-3-8.09-.34-1.16-.06-2.54-.06-4.11,3.48,1.1,3.35,5.65,7.09,5.68,1.16-2.6-2.36-5.39.59-8.12,1,.91,2,1.75,3,2.63,1.35,1.26,2.85,1.76,4.3.25,1.6-1.69,0-2.79-1.07-3.79-1.66-1.57-3.67-2.92-1.47-5.84l5,2.92V18c1.7,1.29,2.79,2.45,4.14,3a5.58,5.58,0,0,0,3.95.31c2-.84,1.79-2.38-.09-3.51a23.85,23.85,0,0,1-3.14-2.1c-1.72-1.57-1.66-3,.54-3.67,3.45-1,4.17-3.6,5-6.43C252.3,3.8,253,2.05,253.62.29h1.1c4.8,3.14,8.28,7.15,8.81,13.17,0,.13.25.22.72.54a16.28,16.28,0,0,0,2.13-2.51,4.25,4.25,0,0,1,4.39-2.42c4.68.13,9.41-.12,14.09.19,3.95.28,7.87,1,11.76,1.69,2.16.38,2.88,1.6,1.81,3.71-2,3.88-4.1,7.55-7.9,10.12-7.56,5.12-15,10.45-22.45,15.72a6.73,6.73,0,0,0-1.38,1.85,7.73,7.73,0,0,0,2.13,1.41,32.21,32.21,0,0,0,4.17.44c.25.34.5.72.75,1.09a37.08,37.08,0,0,1-4.45,3.33,4.23,4.23,0,0,1-3.2.22c-3.07-1.16-5.11-.75-6.77,2.1a5.06,5.06,0,0,0-.72,3.73c.28.72,2.13,1.13,3.29,1.16,2.32.1,4.64-.19,7-.31,1.38-.1,2.89.09,4.14-.41a26.36,26.36,0,0,0,5.43-3c1.6-1.1,3.23-1.44,4.73-.28,4.17,3.2,9.13,2.94,13.93,3.6,7,.91,13.92,2.2,20.13,5.8,4.42,2.58,4.36,5.93-.09,8.38-2.64,1.41-4.33,3.51-4.42,6.36a17.11,17.11,0,0,1-4.52,10.79C302,94,295.39,100.93,288.93,108c-1.44,1.56-2.88,3.13-4.58,5,4.58,1.51,5.68,4.64,5.55,8.47-.09,2.45-1,3.07-3.32,2.1-1.32-.56-2.6-1.22-3.86-1.91-2-1.1-3.57-.85-4.17,1.5-.47,1.76-1.63,1.92-3.1,1.88a34.48,34.48,0,0,0-7,.13c-1.09.19-2,1.63-3,2.51,1,1,1.81,2.66,3,3a15.58,15.58,0,0,0,5.65-.07c4.36-.56,8.72-1.25,13.08-1.88a7,7,0,0,1,7.87,4.46,71.77,71.77,0,0,1,2.88,8.12c1.54,4.67,3.67,8.81,8.13,11.45a4.38,4.38,0,0,1,1.57,3.51c-.63,6.9-2,13.77-2.23,20.67,0,.94,0,1.91,0,2.85A97.15,97.15,0,0,0,307,194.85c.66,4,3.23,6.87,7.93,6.65a5.77,5.77,0,0,1,1,.29c5.08,1.19,8,4.83,10,9.22a23.54,23.54,0,0,0,8.37,10,25.22,25.22,0,0,1,3,2.73c1.7,1.66,1.41,2.95-.59,4.26-4.46,3-4.61,4.43-2,9.16,2.17,3.86,4.11,7.81,6.18,11.73.94,1.82.06,2.67-1.6,3.17-3.42,1.06-3.54,1.5-2.1,4.73,1.82,4.11,3.79,8.19,5.24,12.45,2.16,6.34,1.69,7.12-4,10.6-.25.16-.53.26-.65.47-1.35,1.82-3.74,3.64-3.74,5.46,0,2.73,2.95,4.05,5.46,5,1.51.56,2.23.06,2.26-1.57,0-3.14,1.88-4.86,4.7-5.39a16.27,16.27,0,0,1,5.93-.19C365.48,286.37,376.68,291.63,381.26,305.53Z" transform="translate(-87.22 -0.29)" fill="#68e1fd"/><path d="M381.27,307.71a46.28,46.28,0,0,1-8.89,17.78c-.73.92-1.54,1.79-2.22,2.74-2.52,3.51-5.28,6.3-10.08,3.85-.25-.13-.67.08-1.43.21l2.91,4.51c-3.41,4.86-8.87,1.8-13.28,3.82l4.43,1.89c-.31,4.83-2.89,7.3-7.44,7.38-3.14.06-6.28.3-9.42.46l-.07,1.35a39,39,0,0,0,4.75.73c5.1.15,5.1.09,6.3,5.05.88,3.64.93,3.65,4.76,3,3.61-.6,7.23-1.13,11.36-1.78-.82,4.42-1.48,8.29-2.3,12.14-.1.51-.92,1.08-1.51,1.23a12.81,12.81,0,0,1-4,.54A7,7,0,0,0,348.5,376a27.53,27.53,0,0,1-2.53,2.73c-1.54-2.77-3.35-1.92-5.36-1-4.44,2-8.91,4-13.47,5.72-1.14.43-3.13.42-3.9-.29-5.45-5-11.85-5.47-18.66-4.45-.63.1-1.25.2-1.88.28-4.11.55-7.94.5-11.4-2.57a111.39,111.39,0,0,0-9.84-7.21c-.78-.57-1.62-1-3.17-2L280,375a8,8,0,0,1-1.84.34c-4.5-.28-9-.56-13.51-.94-3.22-.27-3.56-.12-3.56,3.23,0,2.49-1.07,2.95-3.25,2.32-11.53-3.33-23.09-6.55-34.59-10-2.28-.68-3.32-.22-4.35,1.94-2.49,5.22-5.32,10.28-8,15.42-.93,1.81-2,2.11-3.89,1.16-7.85-3.92-15.8-7.63-23.68-11.49-2.3-1.13-3.89-1-4.69,1.73-.69,2.37-1.88,3-4.39,1.82-3.16-1.53-4.22-.68-5.89,2.48a37.48,37.48,0,0,1-5.35,7.14c-2-5.67-6.62-7-11.34-8.08-1.46-.34-2.24-.83-2.12-2.48.14-1.85,1.29-2.15,2.78-2.21,4-.16,7.95-.45,11.93-.49,1.77,0,3-.39,3.4-2.25a4.83,4.83,0,0,1,3.5-3.76,7,7,0,0,0,4.4-4.44c.57-1.45,1.36-2.41,3.3-1.67a3.86,3.86,0,0,0,2.91-.72c2.34-1.54,4.49-3.36,6.82-4.92,1.81-1.21,2.42-2.46,1.64-4.71-1.47-4.22-1.31-4.27,2.55-7.28.43.66.87,1.29,1.27,1.94,1.53,2.48,5.38,2.59,6.48-.1,2-4.84,4.94-6.95,10.44-6.74,3.47.14,6.55.12,9.31,2.4.69.57,1.63.86,2.27,1.48,4,3.83,8.52,3.06,13.11,1.55.63-.2,1.51-.68,1.63-1.18,1.12-4.89,4.7-7.76,8.39-10.58a7.11,7.11,0,0,0,.85-1c-3.63-3.7-7.4-3.69-10.83-.19-1.3,1.32-2.65,2.93-4.29,3.52-3.83,1.38-9.79-2.18-11.26-6.36-.59-1.7-1.07-3.45-1.63-5.16-1.19-3.64-4-4.29-7.06-2.14a8.31,8.31,0,0,1-5.21,1c-.53,0-1-2.4-1.24-3.74-.32-1.77-.37-3.59-.64-5.37a2,2,0,0,0-.76-1.29c-2.15-1.25-7.72-.19-9.42,1.72a6.61,6.61,0,0,1-10.9-1c-.86-1.4-2.27-2.46-3.34-3.75a3.57,3.57,0,0,1-1-2,75.43,75.43,0,0,1,.66-8.63c.07-.54,1.42-1.33,2.12-1.27a55.49,55.49,0,0,1,8.54,1.27c2.22.56,3.71,0,4.83-1.83,1.87-3.08,4.16-4.69,8.06-3.5,1.24.38,3.25-.37,4.38-1.27q6.35-5.1,12.28-10.69a7,7,0,0,0,1.67-4c.23-1.67-.4-3.47-.11-5.13.81-4.75-1.67-8.06-4.45-11.35-1-1.16-1.79-1.21-3-.32-2.3,1.73-4.67,3.35-7.35,5.26A13.82,13.82,0,0,1,205,265.5c-.11-.82.27-2.27.83-2.52,4.46-2,7-5.87,9.93-9.44a3.83,3.83,0,0,0,.29-3.08,17.39,17.39,0,0,0-2.28-4.61c-1.85-2.62-1.4-4.58,1.26-6.21a21.44,21.44,0,0,0,1.75-1.34c2.26,2.4,4.53,4.71,6.64,7.15a3,3,0,0,1,.18,2.2,19.59,19.59,0,0,1-1,2.88c3.66.84,6.72.72,8.9-3l2.8,3.29c1.86,2.21,3.86,2.4,6.12.59,3.36-2.71,6.38-1.9,7.9,2.12.4,1.06.87,2.09,1.32,3.18,3.38-2,3.48-2.53,2-5.79-.27-.6.19-1.53.31-2.3.73.22,1.69.23,2.14.71,1.17,1.25,2.11,2.71,3.16,4.08,1.93,2.52,2,2.52,4.09,0,.35-.41.66-.85,1.25-1.61a64.77,64.77,0,0,0-6.36-4.55c-2.68-1.48-2.93-3.93-3.19-6.44a2.2,2.2,0,0,1,.88-1.48c1.11-.92,2.32-1.72,3.48-2.58,3.26-2.41,3.28-3.75,0-6.13-1.33-.94-2.44-1.71-1.86-3.65s1.48-2.53,3.34-2a11.52,11.52,0,0,0,2.4.37c2,.11,2.86-1.54,2.16-2.79-1.31-2.31.06-3.52,1.18-5,1.83-2.38,1.85-2.63-.17-5.77a44.69,44.69,0,0,1-4,4.29,3.91,3.91,0,0,1-3,.82c-.63-.17-1.2-1.54-1.33-2.45a33.73,33.73,0,0,1-.06-4.76c-1,.29-1.64.4-2.2.62-1.74.68-2.66,0-2.13-1.7,1.45-4.61-.13-8.6-2.46-12.33-1.14-1.82-.85-2.93.34-4.5,2.44-3.24,4.53-6.75,7-10a6.68,6.68,0,0,1,3.49-2c1.36-.34,2.92.12,4.3-.19.73-.17,1.26-1.22,1.87-1.87a6.79,6.79,0,0,0-1.8-1.12,39.88,39.88,0,0,0-5.81-1,3.74,3.74,0,0,0-2.67.88c-1.41,1.49-2.39,2.27-4.79,1.26-1.5-.63-3.93.78-5.87,1.47-1.74.62-3.33,1.77-5.1,2.16a4,4,0,0,1-3.1-1.22c-2-2.21-3.82-4.67-6-7.34-1.45,3.59,1.07,7.55-2.72,10.2l-7.23-10.36L218.37,175l-6.53-5.3a9.88,9.88,0,0,1,2.2-.7c1.8-.07,2-1.18,2.38-2.66.52-2.22,1-4.67,2.33-6.44,3.37-4.57,7.06-8.91,10.83-13.16,1.38-1.56,1.76-2.81.52-4.48-.26-.36-.36-.85-.64-1.19-3.73-4.65-2.53-9.44-.29-14.18a2.93,2.93,0,0,1,2.18-1.36c1.85,0,3.72.28,5.71.22-2.4-1.88-5.75-2.75-6.08-6.44-.26-3-.53-6.06-.83-9.47-1,.44-1.79.72-2.53,1.15-3.5,2.06-6.94,4.26-10.5,6.21-1.81,1-2.12,2.12-1.48,4a16.38,16.38,0,0,1,.47,3.66c.25,2.65-1,4.34-3.29,5.6a5.23,5.23,0,0,0-1.87,2.79c-1.35,3.83-2.51,7.72-3.78,11.58-.75,2.29-4.87,4.6-7.16,4.08a2.05,2.05,0,0,1-1-3.58c3.53-3.44,4.91-7.78,6.34-12.34.83-2.63,3.36-4.74,5.33-7.36l-2.15-2.63,4.81-5.46-4.81.47-.22-.39a20,20,0,0,1,3-1.84c2.68-1.1,3.37-3.27,3.44-5.85,0-.73,0-1.45,0-2.17-.1-3.11.61-5.84,3.36-7.74a4.34,4.34,0,0,0,1.76-2c1.22-4.2,4.52-6.38,7.91-8.49,1.82-1.13,2.21-2.48.62-4.4-4.61,2.24-9.17,4.6-11.85,9.11-3.63,6.1-9.05,7.89-15.65,7.51-.54,0-1.2.07-1.59-.2-1.18-.84-2.25-1.83-3.36-2.77a13.84,13.84,0,0,1,3.62-.91c2.84.08,5.18-.63,6.81-3.08,2.18-3.27,1.21-5.39-2.68-6.11A22.65,22.65,0,0,1,200,87.27l.19-1,4.18-.85V83c0-3.22.74-3.79,3.93-2.8,1.8.56,3.56,1.29,5.4,1.73a2.71,2.71,0,0,0,2.14-.57c.26-.24,0-1.36-.36-1.94-.51-1-1.28-1.75-1.85-2.67-1.12-1.82-1.17-3.7.43-5.2s3.24-1.91,5.26-.29c2.56,2,4.9,2,7.51.22,2.1-1.4,2.16-2.69.12-4.2-1.7-1.25-3.46-2.43-5.19-3.64l.27-1.15a35.55,35.55,0,0,1,5.06.05c2,.29,2.73-.7,2.75-2.37.06-5.28.78-10.57-2.75-15.38-1.64-2.23-2.2-5.31-3-8.07-.34-1.18,0-2.54,0-4.12,3.48,1.11,3.35,5.66,7.09,5.69,1.16-2.61-2.36-5.41.59-8.12l2.94,2.63c1.37,1.24,2.87,1.76,4.3.25,1.6-1.69,0-2.8-1.05-3.8-1.68-1.56-3.67-2.93-1.49-5.85l5,2.94V18.05c1.7,1.26,2.79,2.43,4.14,3a5.71,5.71,0,0,0,4,.3c2-.85,1.79-2.38-.09-3.51a19.28,19.28,0,0,1-3.13-2.11c-1.73-1.56-1.67-3,.53-3.65,3.42-1,4.16-3.6,4.93-6.44.49-1.81,1.19-3.56,1.8-5.33h1.09c4.8,3.15,8.3,7.16,8.82,13.18,0,.11.26.2.71.52a14.58,14.58,0,0,0,2.14-2.51,4.28,4.28,0,0,1,4.38-2.42c4.7.14,9.42-.1,14.11.21A117,117,0,0,1,296.62,11c2.15.37,2.87,1.59,1.8,3.69-2,3.9-4.1,7.58-7.89,10.14-7.56,5.12-15,10.43-22.45,15.71a7.67,7.67,0,0,0-1.39,1.84,7.37,7.37,0,0,0,2.14,1.4,28.9,28.9,0,0,0,4.17.45l.75,1.09a37.36,37.36,0,0,1-4.46,3.35,4.27,4.27,0,0,1-3.18.22c-3.08-1.18-5.11-.77-6.78,2.1a5,5,0,0,0-.72,3.72c.28.72,2.12,1.13,3.28,1.17,2.32.08,4.66-.19,7-.33a13.79,13.79,0,0,0,4.15-.39,27,27,0,0,0,5.42-3c1.61-1.11,3.23-1.46,4.75-.29,4.16,3.21,9.12,3,13.92,3.59,7,.93,13.93,2.22,20.14,5.82,4.41,2.56,4.36,5.91-.11,8.35-2.63,1.44-4.32,3.52-4.41,6.38a17.24,17.24,0,0,1-4.53,10.8C302,94,295.38,100.94,288.93,108c-1.43,1.57-2.87,3.12-4.57,5,4.56,1.49,5.65,4.63,5.54,8.47-.08,2.42-1,3-3.3,2.1a42.62,42.62,0,0,1-3.89-1.93c-2-1.09-3.55-.84-4.17,1.52-.46,1.76-1.6,1.9-3.08,1.87a35.12,35.12,0,0,0-7,.12c-1.12.19-2,1.63-3,2.51,1,1,1.81,2.68,3,3a15.26,15.26,0,0,0,5.63-.08c4.38-.55,8.73-1.25,13.1-1.86,3.73-.53,6.38,1.13,7.86,4.43a78.45,78.45,0,0,1,2.9,8.13c1.52,4.67,3.64,8.8,8.11,11.45a4.39,4.39,0,0,1,1.57,3.51c-.64,6.9-2,13.77-2.23,20.67a92.76,92.76,0,0,0,1.57,18c.67,4,3.23,6.88,7.93,6.67a4.13,4.13,0,0,1,1,.28c5.07,1.17,8,4.8,10,9.21a23.58,23.58,0,0,0,8.38,10,25,25,0,0,1,3,2.72c1.68,1.67,1.4,2.94-.61,4.28-4.45,3-4.63,4.42-2,9.14,2.16,3.86,4.14,7.82,6.19,11.74.94,1.8.06,2.64-1.61,3.16-3.4,1-3.53,1.5-2.1,4.72,1.84,4.12,3.81,8.21,5.26,12.46,2.15,6.35,1.69,7.14-4,10.61a2.29,2.29,0,0,0-.66.46c-1.34,1.82-3.73,3.65-3.72,5.48,0,2.72,2.95,4,5.47,5,1.49.56,2.23.06,2.24-1.57,0-3.15,1.88-4.85,4.72-5.38a15.67,15.67,0,0,1,5.9-.2c13,2.72,24.24,8,28.82,21.9Z" transform="translate(-87.22 -0.29)" fill="#68e1fd"/><path d="M130.49,172.13c4.31-1.29,8.06-2.56,11.89-3.51,2.37-.59,2.75-1.6,1.55-3.58a19.8,19.8,0,0,1-1.09-2.7,34.22,34.22,0,0,1,4.89.32c1.93.43,3-.2,3.91-1.92,1.64-3.2,3.45-6.32,5.15-9.42,2.13.68,4,1.17,5.82,1.89,2,.8,2.92-.1,3.79-1.79,2.34-4.58,1.53-3.67,5.79-2.55a7.6,7.6,0,0,0,3-.12c2.24-.34,4.68-1.56,6.63-1,2.86.82,5.44,2.76,7.93,4.51.57.39.41,2,.4,3,0,1.89-.35,3.78-.26,5.66.11,2.43.89,4.41,3.58,5.42,2.41.91,2.66,3.35.75,5.18s-4.12,3.72-6.33,5.71c3.3,3.18,6.79,1.23,10.08,1,.2.3.47.52.46.73-.26,3.77-.59,7.54-.83,11.32-.11,1.62-.95,2.21-2.47,2.14-.45,0-.9.17-1.35.15-4.86-.28-8.38,1.26-10.14,6.3-.71,2-3,2.1-4.94,1.13a19.24,19.24,0,0,1-2.86-2.05c-1.52-1.17-3-2.32-4.17.42a1.78,1.78,0,0,1-1.53.58c-1.47-.31-2.89-.81-4.34-1.24,1.54-4.63,1.32-4.41-2.19-8-1.36-1.38-1.81-4-2.06-6.07-.48-4.06-.3-4.08-4.36-3.27s-4,.86-4.94,5.26c-.29,1.36.42,3.85-2,3.86s-5.34,1.32-7.47-1.56C139,182.72,134.85,177.69,130.49,172.13Z" transform="translate(-87.22 -0.29)" fill="#68e1fd"/></g><path d="M271.26,245H259.47l-86.81.05V259.2h4.22v-.13l82.59-.05h11.79l83,0v.12h4.23V245Zm79.92,1.26-4.86,4.85-4.86-4.84Zm-12.41,0-4.86,4.85-4.86-4.85Zm-12.41,0-4.85,4.86-4.87-4.85Zm-12.41,0-4.85,4.86-4.85-4.85Zm-12.4,0-4.86,4.85-4.86-4.85Zm-12.41,0-4.85,4.85-4.86-4.85Zm-17.88,0h5.48l-4.86,4.86L267,246.3Zm-.46,5.77-5.2,5.22-5.21-5.21,5.2-5.2Zm-11.33-5.76h4.7l-4.86,4.86-4.85-4.85Zm-7.71,0-4.86,4.85-4.85-4.85Zm-12.41,0-4.85,4.86-4.86-4.85Zm-12.4,0-4.85,4.86-4.87-4.86Zm-12.41,0-4.85,4.86-4.86-4.85ZM174,257.9V246.35l29.1,0,0,0,5.75,5.73L203,257.85l0,0Zm30.87,0,4.85-4.86,4.86,4.86Zm5.77-5.78,5.27-5.29,5.3,5.29-5.29,5.28Zm6.63,5.77L222.1,253l4.86,4.84ZM223,252.1l5.28-5.29,5.29,5.28-5.28,5.28Zm6.64,5.76L234.5,253l4.86,4.85Zm5.77-5.77,5.28-5.29,5.29,5.29-5.28,5.28Zm6.64,5.77L246.9,253l4.87,4.86Zm5.77-5.78,5.28-5.29,5.29,5.29-5.29,5.28Zm11.65,5.77h-5l4.86-4.86,4.85,4.86Zm11.79,0H267l4.85-4.86,4.86,4.85Zm1.53-5.78,5.28-5.28,5.29,5.28-5.28,5.29Zm6.63,5.78,4.86-4.86,4.86,4.86Zm5.78-5.78,5.28-5.29,5.29,5.29-5.28,5.29Zm6.63,5.78L296.7,253l4.85,4.85Zm5.77-5.79,5.28-5.29,5.29,5.29-5.28,5.29Zm6.64,5.77L309.1,253l4.86,4.86Zm5.77-5.77,5.29-5.29,5.28,5.28-5.28,5.28Zm6.64,5.77,4.85-4.87,4.86,4.86Zm5.77-5.78,5.28-5.29L333,252l-5.29,5.27Zm6.63,5.77,4.85-4.86,4.87,4.86Zm5.77-5.78,5.29-5.29,5.29,5.28-5.29,5.29Zm6.64,5.77,4.85-4.86,4.86,4.86Zm15.77,0H353l0,0L347.24,252l5.74-5.74,0,0h4.28Z" transform="translate(-87.22 -0.29)" fill="#68e1fd"/><path d="M358.54,259.08l0-14.14-87.26.06H259.46l-86.81,0,0,14.17h4.21v-.16l82.59,0h11.79l83-.07v.13Zm-7.38-12.84-4.83,4.87-4.87-4.87Zm-12.38,0-4.87,4.87L329,246.24Zm-12.42,0-4.86,4.87-4.87-4.83Zm-12.41,0-4.84,4.83-4.86-4.83Zm-12.42,0-4.83,4.86-4.87-4.86Zm-12.38,0-4.86,4.86-4.87-4.86Zm-17.9,0h5.49l-4.87,4.86L267,246.31Zm-7.09,0-4.83,4.83-4.87-4.83Zm-12.41,0-4.84,4.83L242,246.31Zm-12.39,0-4.86,4.87-4.87-4.87Zm-12.41,0-4.87,4.87-4.83-4.87Zm-12.41,0-4.84,4.87-4.87-4.84Zm-12.39,0-4.86,4.87-4.87-4.87Zm-12.41,0-4.87,4.87L180,246.34ZM174,257.91V246.34h4.28l0,0,5.75,5.75-5.75,5.74,0,0Zm6.08,0,4.83-4.87,4.84,4.83Zm5.78-5.78,5.26-5.3,5.29,5.3-5.29,5.26Zm6.63,5.74,4.84-4.83,4.86,4.83Zm5.75-5.74,5.29-5.3,5.3,5.26-5.3,5.3Zm6.63,5.74L209.7,253l4.84,4.86Zm5.78-5.78,5.26-5.29,5.3,5.29-5.26,5.3Zm6.64,5.78,4.86-4.86,4.84,4.86Zm5.78-5.78,5.26-5.29,5.29,5.29-5.29,5.3Zm6.63,5.78L234.5,253l4.86,4.86Zm5.75-5.78,5.29-5.29,5.3,5.29-5.3,5.3Zm6.63,5.78,4.87-4.86,4.87,4.83Zm5.79-5.78,5.29-5.29,5.29,5.29-5.29,5.26Zm6.63,5.75,4.87-4.87,4.83,4.87Zm5.94-5.78,5.2-5.19,5.19,5.19-5.19,5.23Zm6.64,5.78,4.83-4.87,4.87,4.87Zm5.75-5.78,5.29-5.29,5.29,5.29-5.29,5.29Zm6.66,5.78,4.84-4.87,4.86,4.87Zm5.75-5.78,5.29-5.29,5.29,5.29-5.29,5.29Zm6.63,5.78L296.7,253l4.87,4.84Zm5.78-5.78,5.3-5.29,5.26,5.29-5.26,5.26Zm6.64,5.75,4.86-4.84,4.84,4.84Zm5.78-5.75,5.29-5.29,5.26,5.26-5.26,5.29Zm6.63,5.75,4.84-4.87,4.86,4.87Zm5.78-5.78,5.26-5.26L333,252l-5.3,5.29Zm6.64,5.78,4.83-4.87,4.87,4.87Zm5.75-5.78,5.29-5.3,5.29,5.3-5.29,5.29Zm6.63,5.78,4.87-4.87,4.86,4.87Zm11.5,0,0,0L347.24,252l5.75-5.75,0,0h4.28v11.57Z" transform="translate(-87.22 -0.29)" fill="url(#linear-gradient)"/><polygon points="184.05 258.73 172.26 258.74 89.68 258.78 89.67 258.91 89.68 259.63 89.67 260.48 172.26 260.43 184.05 260.42 267.1 260.37 267.1 259.53 267.1 258.81 267.1 258.68 184.05 258.73" fill="#68e1fd"/><polygon points="267.1 259.53 267.1 260.37 174.57 260.43 172.26 260.43 172.19 260.43 170.68 260.43 77.81 260.49 77.81 259.63 74.24 259.63 74.24 264.03 170.69 263.97 172.19 263.97 172.26 263.97 174.57 263.97 270.67 263.91 270.67 259.53 267.1 259.53" fill="#68e1fd"/><polygon points="267.1 259.53 267.1 260.37 174.57 260.43 172.26 260.43 172.19 260.43 170.68 260.43 77.81 260.49 77.81 259.63 74.24 259.63 74.24 264.03 170.69 263.97 172.19 263.97 172.26 263.97 174.57 263.97 270.67 263.91 270.67 259.53 267.1 259.53" fill="url(#linear-gradient-2)"/><path d="M263,353.08,152.91,376.19l-1.21-5.76,110.09-23.12ZM153.82,374.79l107.8-22.63-.73-3.44-107.8,22.61Z" transform="translate(-87.22 -0.29)" fill="#68e1fd"/><path d="M155.36,387.83,152.67,375l110.09-23.1.88,4.18-.52.15ZM154.06,376l2.19,10.39,106-31.06-.42-1.95Z" transform="translate(-87.22 -0.29)" fill="#68e1fd"/><polygon points="69.14 386.97 68.02 386.63 72.32 372.75 80.63 380.91 83.29 371.03 91.11 378.55 94.06 368.87 101.79 375.21 105.31 366.59 112.42 372.23 114.65 364.33 120.69 369.25 123.07 362.61 128.96 367.59 131.94 360.82 137.06 364.79 139.36 359.46 143.58 362.75 146 358.1 149.44 360.84 150.91 356.85 154.64 359.38 156.07 355.75 159.52 358.33 160.85 354.75 164.14 357.06 166.14 353.76 169.19 355.76 170.55 352.75 173.08 354.6 174.01 352.62 175.08 353.11 173.55 356.41 171.03 354.56 169.71 357.51 166.52 355.4 164.49 358.75 161.42 356.59 160.07 360.23 156.59 357.63 155.2 361.19 151.49 358.67 149.98 362.78 146.39 359.91 143.96 364.55 139.84 361.32 137.53 366.65 132.41 362.68 129.41 369.51 123.6 364.6 121.23 371.22 115.29 366.38 113.08 374.26 105.81 368.49 102.28 377.13 94.68 370.9 91.67 380.73 83.92 373.26 81.23 383.16 72.88 374.95 69.14 386.97" fill="#68e1fd"/><polygon points="73.17 374.11 72.44 374.25 71.32 368.93 72.05 368.78 73.17 374.11" fill="#68e1fd"/><polygon points="78.93 372.9 78.21 373.05 77.09 367.72 77.81 367.57 78.93 372.9" fill="#68e1fd"/><polygon points="84.7 371.69 83.97 371.84 82.85 366.51 83.57 366.36 84.7 371.69" fill="#68e1fd"/><polygon points="90.45 370.48 89.74 370.63 88.62 365.3 89.34 365.15 90.45 370.48" fill="#68e1fd"/><polygon points="96.22 369.27 95.5 369.42 94.38 364.09 95.1 363.94 96.22 369.27" fill="#68e1fd"/><rect x="187.91" y="363.03" width="0.73" height="5.45" transform="translate(-158.02 45.93) rotate(-11.8)" fill="#68e1fd"/><polygon points="107.74 366.85 107.03 367 105.91 361.67 106.63 361.52 107.74 366.85" fill="#68e1fd"/><rect x="199.44" y="360.61" width="0.73" height="5.44" transform="translate(-154.87 46.19) rotate(-11.36)" fill="#68e1fd"/><polygon points="119.27 364.43 118.55 364.58 117.44 359.25 118.16 359.1 119.27 364.43" fill="#68e1fd"/><polygon points="125.04 363.22 124.32 363.37 123.2 358.05 123.92 357.89 125.04 363.22" fill="#68e1fd"/><polygon points="130.8 362.01 130.08 362.16 128.96 356.83 129.68 356.68 130.8 362.01" fill="#68e1fd"/><polygon points="136.56 360.81 135.84 360.95 134.72 355.63 135.45 355.47 136.56 360.81" fill="#68e1fd"/><polygon points="142.33 359.59 141.6 359.74 140.5 354.4 141.21 354.26 142.33 359.59" fill="#68e1fd"/><polygon points="148.09 358.38 147.37 358.54 146.25 353.2 146.97 353.06 148.09 358.38" fill="#68e1fd"/><rect x="239.79" y="352.14" width="0.73" height="5.45" transform="translate(-154.69 56.31) rotate(-11.8)" fill="#68e1fd"/><polygon points="159.63 355.96 158.9 356.11 157.78 350.78 158.5 350.63 159.63 355.96" fill="#68e1fd"/><polygon points="165.38 354.75 164.66 354.9 163.54 349.57 164.27 349.43 165.38 354.75" fill="#68e1fd"/><rect x="257.08" y="348.52" width="0.74" height="5.45" transform="translate(-154.02 60.25) rotate(-11.88)" fill="#68e1fd"/><path d="M279.06,347.35l110.1,23.12L388,376.22l-110.09-23.1Zm108.71,24L280,348.75l-.73,3.45L387,374.83Z" transform="translate(-87.22 -0.29)" fill="#68e1fd"/><path d="M277.74,356.3l-.52-.15.88-4.18,110.09,23.1-2.69,12.79Zm1.28-2.93-.42,1.95,106,31.06L386.8,376Z" transform="translate(-87.22 -0.29)" fill="#68e1fd"/><polygon points="297.28 387.01 298.4 386.67 294.1 372.79 285.8 380.95 283.13 371.07 275.32 378.59 272.37 368.91 264.64 375.25 261.11 366.63 254 372.27 251.77 364.37 245.74 369.29 243.35 362.65 237.46 367.63 234.49 360.86 229.36 364.83 227.06 359.5 222.85 362.79 220.42 358.14 216.99 360.88 215.52 356.89 211.78 359.42 210.35 355.78 206.9 358.37 205.57 354.79 202.28 357.1 200.29 353.8 197.23 355.8 195.87 352.79 193.34 354.64 192.42 352.65 191.35 353.15 192.87 356.45 195.39 354.6 196.72 357.55 199.91 355.44 201.93 358.79 205 356.63 206.36 360.27 209.83 357.66 211.22 361.23 214.93 358.71 216.44 362.82 220.04 359.95 222.46 364.58 226.59 361.36 228.89 366.69 234.01 362.72 237.01 369.55 242.82 364.64 245.2 371.26 251.13 366.42 253.34 374.3 260.62 368.53 264.14 377.17 271.75 370.94 274.75 380.76 282.5 373.3 285.19 383.2 293.54 374.99 297.28 387.01" fill="#68e1fd"/><polygon points="293.26 374.15 293.98 374.29 295.1 368.97 294.38 368.82 293.26 374.15" fill="#68e1fd"/><polygon points="287.5 372.94 288.21 373.09 289.33 367.76 288.62 367.61 287.5 372.94" fill="#68e1fd"/><polygon points="281.73 371.73 282.45 371.88 283.57 366.55 282.85 366.39 281.73 371.73" fill="#68e1fd"/><polygon points="275.97 370.52 276.69 370.67 277.81 365.33 277.08 365.19 275.97 370.52" fill="#68e1fd"/><polygon points="270.2 369.31 270.92 369.46 272.04 364.13 271.32 363.98 270.2 369.31" fill="#68e1fd"/><rect x="349.85" y="365.43" width="5.45" height="0.73" transform="translate(-164.79 635.86) rotate(-78.2)" fill="#68e1fd"/><polygon points="258.68 366.89 259.39 367.04 260.51 361.71 259.8 361.56 258.68 366.89" fill="#68e1fd"/><rect x="338.33" y="363.01" width="5.44" height="0.73" transform="translate(-169.6 625.89) rotate(-78.64)" fill="#68e1fd"/><polygon points="247.15 364.47 247.87 364.62 248.99 359.29 248.27 359.14 247.15 364.47" fill="#68e1fd"/><polygon points="241.39 363.26 242.1 363.41 243.22 358.09 242.5 357.93 241.39 363.26" fill="#68e1fd"/><polygon points="235.62 362.05 236.34 362.2 237.46 356.87 236.74 356.72 235.62 362.05" fill="#68e1fd"/><polygon points="229.86 360.85 230.58 360.99 231.7 355.66 230.98 355.51 229.86 360.85" fill="#68e1fd"/><polygon points="224.09 359.63 224.82 359.78 225.93 354.44 225.21 354.3 224.09 359.63" fill="#68e1fd"/><polygon points="218.33 358.42 219.05 358.58 220.17 353.23 219.45 353.1 218.33 358.42" fill="#68e1fd"/><rect x="297.98" y="354.54" width="5.45" height="0.73" transform="translate(-195.4 576.42) rotate(-78.2)" fill="#68e1fd"/><polygon points="206.8 356 207.53 356.15 208.65 350.81 207.92 350.67 206.8 356" fill="#68e1fd"/><polygon points="201.04 354.79 201.76 354.94 202.88 349.61 202.15 349.46 201.04 354.79" fill="#68e1fd"/><rect x="280.69" y="350.91" width="5.45" height="0.74" transform="translate(-205.91 556) rotate(-78.12)" fill="#68e1fd"/><path d="M263,353.08,152.91,376.19l-1.21-5.76,110.09-23.12ZM153.82,374.79l107.8-22.63-.73-3.44-107.8,22.61Z" transform="translate(-87.22 -0.29)" fill="url(#linear-gradient-3)"/><path d="M155.36,387.83,152.67,375l110.09-23.1.88,4.18-.52.15ZM154.06,376l2.19,10.39,106-31.06-.42-1.95Z" transform="translate(-87.22 -0.29)" fill="url(#linear-gradient-4)"/><polygon points="69.14 386.97 68.02 386.63 72.32 372.75 80.63 380.91 83.29 371.03 91.11 378.55 94.06 368.87 101.79 375.21 105.31 366.59 112.42 372.23 114.65 364.33 120.69 369.25 123.07 362.61 128.96 367.59 131.94 360.82 137.06 364.79 139.36 359.46 143.58 362.75 146 358.1 149.44 360.84 150.91 356.85 154.64 359.38 156.07 355.75 159.52 358.33 160.85 354.75 164.14 357.06 166.14 353.76 169.19 355.76 170.55 352.75 173.08 354.6 174.01 352.62 175.08 353.11 173.55 356.41 171.03 354.56 169.71 357.51 166.52 355.4 164.49 358.75 161.42 356.59 160.07 360.23 156.59 357.63 155.2 361.19 151.49 358.67 149.98 362.78 146.39 359.91 143.96 364.55 139.84 361.32 137.53 366.65 132.41 362.68 129.41 369.51 123.6 364.6 121.23 371.22 115.29 366.38 113.08 374.26 105.81 368.49 102.28 377.13 94.68 370.9 91.67 380.73 83.92 373.26 81.23 383.16 72.88 374.95 69.14 386.97" fill="url(#linear-gradient-5)"/><polygon points="73.17 374.11 72.44 374.25 71.32 368.93 72.05 368.78 73.17 374.11" fill="url(#linear-gradient-6)"/><polygon points="78.93 372.9 78.21 373.05 77.09 367.72 77.81 367.57 78.93 372.9" fill="url(#linear-gradient-7)"/><polygon points="84.7 371.69 83.97 371.84 82.85 366.51 83.57 366.36 84.7 371.69" fill="url(#linear-gradient-8)"/><polygon points="90.45 370.48 89.74 370.63 88.62 365.3 89.34 365.15 90.45 370.48" fill="url(#linear-gradient-9)"/><polygon points="96.22 369.27 95.5 369.42 94.38 364.09 95.1 363.94 96.22 369.27" fill="url(#linear-gradient-10)"/><rect x="187.91" y="363.03" width="0.73" height="5.45" transform="translate(-158.02 45.93) rotate(-11.8)" fill="url(#linear-gradient-11)"/><polygon points="107.74 366.85 107.03 367 105.91 361.67 106.63 361.52 107.74 366.85" fill="url(#linear-gradient-12)"/><rect x="199.44" y="360.61" width="0.73" height="5.44" transform="translate(-154.87 46.19) rotate(-11.36)" fill="url(#linear-gradient-13)"/><polygon points="119.27 364.43 118.55 364.58 117.44 359.25 118.16 359.1 119.27 364.43" fill="url(#linear-gradient-14)"/><polygon points="125.04 363.22 124.32 363.37 123.2 358.05 123.92 357.89 125.04 363.22" fill="url(#linear-gradient-15)"/><polygon points="130.8 362.01 130.08 362.16 128.96 356.83 129.68 356.68 130.8 362.01" fill="url(#linear-gradient-16)"/><polygon points="136.56 360.81 135.84 360.95 134.72 355.63 135.45 355.47 136.56 360.81" fill="url(#linear-gradient-17)"/><polygon points="142.33 359.59 141.6 359.74 140.5 354.4 141.21 354.26 142.33 359.59" fill="url(#linear-gradient-18)"/><polygon points="148.09 358.38 147.37 358.54 146.25 353.2 146.97 353.06 148.09 358.38" fill="url(#linear-gradient-19)"/><rect x="239.79" y="352.14" width="0.73" height="5.45" transform="translate(-154.69 56.31) rotate(-11.8)" fill="url(#linear-gradient-20)"/><polygon points="159.63 355.96 158.9 356.11 157.78 350.78 158.5 350.63 159.63 355.96" fill="url(#linear-gradient-21)"/><polygon points="165.38 354.75 164.66 354.9 163.54 349.57 164.27 349.43 165.38 354.75" fill="url(#linear-gradient-22)"/><rect x="257.08" y="348.52" width="0.74" height="5.45" transform="translate(-154.02 60.25) rotate(-11.88)" fill="url(#linear-gradient-23)"/><path d="M279.06,347.35l110.1,23.12L388,376.22l-110.09-23.1Zm108.71,24L280,348.75l-.73,3.45L387,374.83Z" transform="translate(-87.22 -0.29)" fill="url(#linear-gradient-24)"/><path d="M277.74,356.3l-.52-.15.88-4.18,110.09,23.1-2.69,12.79Zm1.28-2.93-.42,1.95,106,31.06L386.8,376Z" transform="translate(-87.22 -0.29)" fill="url(#linear-gradient-25)"/><polygon points="297.28 387.01 298.4 386.67 294.1 372.79 285.8 380.95 283.13 371.07 275.32 378.59 272.37 368.91 264.64 375.25 261.11 366.63 254 372.27 251.77 364.37 245.74 369.29 243.35 362.65 237.46 367.63 234.49 360.86 229.36 364.83 227.06 359.5 222.85 362.79 220.42 358.14 216.99 360.88 215.52 356.89 211.78 359.42 210.35 355.78 206.9 358.37 205.57 354.79 202.28 357.1 200.29 353.8 197.23 355.8 195.87 352.79 193.34 354.64 192.42 352.65 191.35 353.15 192.87 356.45 195.39 354.6 196.72 357.55 199.91 355.44 201.93 358.79 205 356.63 206.36 360.27 209.83 357.66 211.22 361.23 214.93 358.71 216.44 362.82 220.04 359.95 222.46 364.58 226.59 361.36 228.89 366.69 234.01 362.72 237.01 369.55 242.82 364.64 245.2 371.26 251.13 366.42 253.34 374.3 260.62 368.53 264.14 377.17 271.75 370.94 274.75 380.76 282.5 373.3 285.19 383.2 293.54 374.99 297.28 387.01" fill="url(#linear-gradient-26)"/><polygon points="293.26 374.15 293.98 374.29 295.1 368.97 294.38 368.82 293.26 374.15" fill="url(#linear-gradient-27)"/><polygon points="287.5 372.94 288.21 373.09 289.33 367.76 288.62 367.61 287.5 372.94" fill="url(#linear-gradient-28)"/><polygon points="281.73 371.73 282.45 371.88 283.57 366.55 282.85 366.39 281.73 371.73" fill="url(#linear-gradient-29)"/><polygon points="275.97 370.52 276.69 370.67 277.81 365.33 277.08 365.19 275.97 370.52" fill="url(#linear-gradient-30)"/><polygon points="270.2 369.31 270.92 369.46 272.04 364.13 271.32 363.98 270.2 369.31" fill="url(#linear-gradient-31)"/><rect x="349.85" y="365.43" width="5.45" height="0.73" transform="translate(-164.79 635.86) rotate(-78.2)" fill="url(#linear-gradient-32)"/><polygon points="258.68 366.89 259.39 367.04 260.51 361.71 259.8 361.56 258.68 366.89" fill="url(#linear-gradient-33)"/><rect x="338.33" y="363.01" width="5.44" height="0.73" transform="translate(-169.6 625.89) rotate(-78.64)" fill="url(#linear-gradient-34)"/><polygon points="247.15 364.47 247.87 364.62 248.99 359.29 248.27 359.14 247.15 364.47" fill="url(#linear-gradient-35)"/><polygon points="241.39 363.26 242.1 363.41 243.22 358.09 242.5 357.93 241.39 363.26" fill="url(#linear-gradient-36)"/><polygon points="235.62 362.05 236.34 362.2 237.46 356.87 236.74 356.72 235.62 362.05" fill="url(#linear-gradient-37)"/><polygon points="229.86 360.85 230.58 360.99 231.7 355.66 230.98 355.51 229.86 360.85" fill="url(#linear-gradient-38)"/><polygon points="224.09 359.63 224.82 359.78 225.93 354.44 225.21 354.3 224.09 359.63" fill="url(#linear-gradient-39)"/><polygon points="218.33 358.42 219.05 358.58 220.17 353.23 219.45 353.1 218.33 358.42" fill="url(#linear-gradient-40)"/><rect x="297.98" y="354.54" width="5.45" height="0.73" transform="translate(-195.4 576.42) rotate(-78.2)" fill="url(#linear-gradient-41)"/><polygon points="206.8 356 207.53 356.15 208.65 350.81 207.92 350.67 206.8 356" fill="url(#linear-gradient-42)"/><polygon points="201.04 354.79 201.76 354.94 202.88 349.61 202.15 349.46 201.04 354.79" fill="url(#linear-gradient-43)"/><rect x="280.69" y="350.91" width="5.45" height="0.74" transform="translate(-205.91 556) rotate(-78.12)" fill="url(#linear-gradient-44)"/><polygon points="64.28 166.27 76 214.44 64.31 214.44 52.63 214.45 64.28 166.27" fill="#68e1fd"/><polygon points="64.28 166.27 76 214.44 64.31 214.44 52.63 214.45 64.28 166.27" fill="url(#linear-gradient-45)"/><rect x="130.43" y="213.02" width="1.31" height="57.81" transform="translate(-88.37 0.34) rotate(-0.27)" fill="#68e1fd"/><polygon points="40.35 283.86 88.35 283.83 88.34 268.89 40.34 268.92 40.35 283.86" fill="#68e1fd"/><polygon points="40.35 283.86 88.35 283.83 88.34 268.89 40.34 268.92 40.35 283.86" fill="url(#linear-gradient-46)"/><rect x="38.35" y="212.72" width="51.97" height="57.81" fill="#68e1fd"/><rect x="38.35" y="212.72" width="51.97" height="57.81" fill="url(#linear-gradient-47)"/><rect x="62.98" y="222.66" width="2.86" height="10.16" fill="url(#linear-gradient-48)"/><rect x="56.6" y="222.66" width="2.86" height="10.16" fill="url(#linear-gradient-49)"/><rect x="69.65" y="222.66" width="2.86" height="10.16" fill="url(#linear-gradient-50)"/><rect x="62.76" y="250.62" width="2.86" height="10.16" fill="url(#linear-gradient-51)"/><rect x="56.38" y="250.62" width="2.86" height="10.16" fill="url(#linear-gradient-52)"/><rect x="69.43" y="250.62" width="2.86" height="10.16" fill="url(#linear-gradient-53)"/><rect x="42.62" y="279.62" width="43.52" height="78.59" fill="#68e1fd"/><rect x="42.62" y="279.62" width="43.52" height="78.59" fill="url(#linear-gradient-54)"/><rect x="62.9" y="316.74" width="2.86" height="10.16" fill="url(#linear-gradient-55)"/><rect x="56.52" y="316.74" width="2.86" height="10.16" fill="url(#linear-gradient-56)"/><rect x="69.57" y="316.74" width="2.86" height="10.16" fill="url(#linear-gradient-57)"/><rect x="62.9" y="345.56" width="2.86" height="10.16" fill="url(#linear-gradient-58)"/><rect x="56.52" y="345.56" width="2.86" height="10.16" fill="url(#linear-gradient-59)"/><rect x="69.57" y="345.56" width="2.86" height="10.16" fill="url(#linear-gradient-60)"/><rect x="62.89" y="288.1" width="2.86" height="10.16" fill="url(#linear-gradient-61)"/><rect x="69.45" y="288.1" width="2.86" height="10.16" fill="url(#linear-gradient-62)"/><rect x="56.4" y="288.1" width="2.86" height="10.16" fill="url(#linear-gradient-63)"/><polygon points="45.14 189.68 51.97 212.73 45.15 212.73 38.33 212.73 45.14 189.68" fill="#68e1fd"/><polygon points="83.46 189.64 90.3 212.7 83.48 212.71 76.66 212.71 83.46 189.64" fill="#68e1fd"/><polygon points="45.14 189.68 51.97 212.73 45.15 212.73 38.33 212.73 45.14 189.68" fill="url(#linear-gradient-64)"/><polygon points="83.46 189.64 90.3 212.7 83.48 212.71 76.66 212.71 83.46 189.64" fill="url(#linear-gradient-65)"/><rect x="51.03" y="202.51" width="3.22" height="10.65" fill="#68e1fd"/><rect x="74.39" y="202.5" width="3.22" height="10.65" fill="#68e1fd"/><path d="M155.85,288.24h4.55v10.43h-4.54Zm3.25,1.3h-1.95v7.84h1.95Z" transform="translate(-87.22 -0.29)" fill="#68e1fd"/><polygon points="69.28 293.83 72.53 293.82 72.53 292.52 69.28 292.53 69.28 293.83" fill="#68e1fd"/><path d="M142.75,288.25h4.55v10.44h-4.54Zm3.25,1.3h-1.95v7.83H146Z" transform="translate(-87.22 -0.29)" fill="#68e1fd"/><polygon points="56.19 293.83 59.43 293.83 59.43 292.53 56.18 292.53 56.19 293.83" fill="#68e1fd"/><path d="M148.81,287.09h5.46v12.76h-5.45Zm4.16,1.29h-2.86v10.17H153Z" transform="translate(-87.22 -0.29)" fill="#68e1fd"/><rect x="62.24" y="292.53" width="4.16" height="1.3" fill="#68e1fd"/><path d="M155.82,222.77h4.54V233.2h-4.55Zm3.24,1.3h-1.94v7.83h1.95Z" transform="translate(-87.22 -0.29)" fill="#68e1fd"/><polygon points="69.25 228.35 72.5 228.35 72.5 227.04 69.25 227.05 69.25 228.35" fill="#68e1fd"/><path d="M142.72,222.78h4.54V233.2h-4.55Zm3.25,1.3h-2v7.83H146Z" transform="translate(-87.22 -0.29)" fill="#68e1fd"/><rect x="56.15" y="227.06" width="3.25" height="1.3" fill="#68e1fd"/><path d="M148.77,221.61h5.46v12.75h-5.45Zm4.17,1.3h-2.86v10.16h2.86Z" transform="translate(-87.22 -0.29)" fill="#68e1fd"/><rect x="62.21" y="227.05" width="4.16" height="1.3" fill="#68e1fd"/><path d="M155.83,250.8h4.55v10.43h-4.54Zm3.25,1.3h-2v7.84h1.94Z" transform="translate(-87.22 -0.29)" fill="#68e1fd"/><rect x="69.27" y="255.08" width="3.25" height="1.3" fill="#68e1fd"/><path d="M142.73,250.8h4.55v10.44h-4.55Zm3.25,1.3H144v7.84h2Z" transform="translate(-87.22 -0.29)" fill="#68e1fd"/><rect x="56.16" y="255.08" width="3.25" height="1.3" fill="#68e1fd"/><path d="M148.8,249.65h5.45V262.4H148.8Zm4.15,1.29H150.1V261.1H153Z" transform="translate(-87.22 -0.29)" fill="#68e1fd"/><rect x="62.23" y="255.08" width="4.16" height="1.3" fill="#68e1fd"/><path d="M155.87,316.88h4.54v10.43h-4.54Zm3.25,1.3h-2V326h2Z" transform="translate(-87.22 -0.29)" fill="#68e1fd"/><rect x="69.3" y="321.16" width="3.24" height="1.3" fill="#68e1fd"/><path d="M142.77,316.89h4.54v10.43h-4.55Zm3.25,1.3h-2V326h2Z" transform="translate(-87.22 -0.29)" fill="#68e1fd"/><rect x="56.2" y="321.17" width="3.25" height="1.3" fill="#68e1fd"/><path d="M148.83,315.73h5.45v12.76h-5.45ZM153,317h-2.86v10.16H153Z" transform="translate(-87.22 -0.29)" fill="#68e1fd"/><polygon points="62.27 322.47 66.42 322.46 66.42 321.17 62.27 321.17 62.27 322.47" fill="#68e1fd"/><path d="M155.89,345.89h4.54v10.44h-4.55Zm3.24,1.3h-1.94V355h1.95Z" transform="translate(-87.22 -0.29)" fill="#68e1fd"/><rect x="69.32" y="350.18" width="3.25" height="1.3" fill="#68e1fd"/><path d="M142.78,345.9h4.55v10.44h-4.55Zm3.26,1.3h-2V355H146Z" transform="translate(-87.22 -0.29)" fill="#68e1fd"/><rect x="56.22" y="350.19" width="3.25" height="1.3" fill="#68e1fd"/><path d="M148.85,344.73h5.45v12.76h-5.45ZM153,346h-2.85v10.15H153Z" transform="translate(-87.22 -0.29)" fill="#68e1fd"/><rect x="62.28" y="350.18" width="4.15" height="1.3" fill="#68e1fd"/><rect x="38.35" y="239.55" width="51.96" height="4.51" fill="#68e1fd"/><rect x="38.35" y="239.55" width="51.96" height="4.51" fill="url(#linear-gradient-66)"/><rect x="40.4" y="355.62" width="47.99" height="18.19" fill="#68e1fd"/><rect x="40.4" y="355.62" width="47.99" height="18.19" fill="url(#linear-gradient-67)"/><rect x="36.16" y="369.58" width="56.5" height="30.96" fill="#68e1fd"/><rect x="36.16" y="369.58" width="56.5" height="30.96" fill="url(#linear-gradient-68)"/><polygon points="293.07 166.27 304.78 214.44 293.1 214.44 281.42 214.45 293.07 166.27" fill="#68e1fd"/><polygon points="293.07 166.27 304.78 214.44 293.1 214.44 281.42 214.45 293.07 166.27" fill="url(#linear-gradient-69)"/><rect x="359.22" y="213.02" width="1.31" height="57.81" transform="translate(-88.37 1.43) rotate(-0.27)" fill="#68e1fd"/><polygon points="269.14 283.86 317.14 283.83 317.13 268.89 269.13 268.92 269.14 283.86" fill="#68e1fd"/><polygon points="269.14 283.86 317.14 283.83 317.13 268.89 269.13 268.92 269.14 283.86" fill="url(#linear-gradient-70)"/><rect x="267.13" y="212.72" width="51.97" height="57.81" fill="#68e1fd"/><rect x="267.13" y="212.72" width="51.97" height="57.81" fill="url(#linear-gradient-71)"/><rect x="291.77" y="222.66" width="2.86" height="10.16" fill="url(#linear-gradient-72)"/><rect x="285.39" y="222.66" width="2.86" height="10.16" fill="url(#linear-gradient-73)"/><rect x="298.44" y="222.66" width="2.86" height="10.16" fill="url(#linear-gradient-74)"/><rect x="291.55" y="250.62" width="2.86" height="10.16" fill="url(#linear-gradient-75)"/><rect x="285.17" y="250.62" width="2.86" height="10.16" fill="url(#linear-gradient-76)"/><rect x="298.22" y="250.62" width="2.86" height="10.16" fill="url(#linear-gradient-77)"/><rect x="271.4" y="279.62" width="43.52" height="78.59" fill="#68e1fd"/><rect x="271.4" y="279.62" width="43.52" height="78.59" fill="url(#linear-gradient-78)"/><rect x="291.68" y="316.74" width="2.86" height="10.16" fill="url(#linear-gradient-79)"/><rect x="285.3" y="316.74" width="2.86" height="10.16" fill="url(#linear-gradient-80)"/><rect x="298.35" y="316.74" width="2.86" height="10.16" fill="url(#linear-gradient-81)"/><rect x="291.68" y="345.56" width="2.86" height="10.16" fill="url(#linear-gradient-82)"/><rect x="285.3" y="345.56" width="2.86" height="10.16" fill="url(#linear-gradient-83)"/><rect x="298.35" y="345.56" width="2.86" height="10.16" fill="url(#linear-gradient-84)"/><rect x="291.68" y="288.1" width="2.86" height="10.16" fill="url(#linear-gradient-85)"/><rect x="298.23" y="288.1" width="2.86" height="10.16" fill="url(#linear-gradient-86)"/><rect x="285.18" y="288.1" width="2.86" height="10.16" fill="url(#linear-gradient-87)"/><polygon points="273.92 189.68 280.76 212.73 273.94 212.73 267.11 212.73 273.92 189.68" fill="#68e1fd"/><polygon points="312.25 189.64 319.08 212.7 312.26 212.71 305.44 212.71 312.25 189.64" fill="#68e1fd"/><polygon points="273.92 189.68 280.76 212.73 273.94 212.73 267.11 212.73 273.92 189.68" fill="url(#linear-gradient-88)"/><polygon points="312.25 189.64 319.08 212.7 312.26 212.71 305.44 212.71 312.25 189.64" fill="url(#linear-gradient-89)"/><rect x="279.81" y="202.51" width="3.22" height="10.65" fill="#68e1fd"/><rect x="303.17" y="202.5" width="3.22" height="10.65" fill="#68e1fd"/><path d="M384.63,288.24h4.55v10.43h-4.55Zm3.25,1.3h-1.95v7.84h2Z" transform="translate(-87.22 -0.29)" fill="#68e1fd"/><polygon points="298.07 293.83 301.31 293.82 301.31 292.52 298.07 292.53 298.07 293.83" fill="#68e1fd"/><path d="M371.53,288.25h4.55v10.44h-4.55Zm3.26,1.3h-2v7.83h2Z" transform="translate(-87.22 -0.29)" fill="#68e1fd"/><polygon points="284.97 293.83 288.21 293.83 288.22 292.53 284.97 292.53 284.97 293.83" fill="#68e1fd"/><path d="M377.59,287.09h5.46v12.76h-5.45Zm4.16,1.29H378.9v10.17h2.86Z" transform="translate(-87.22 -0.29)" fill="#68e1fd"/><rect x="291.03" y="292.53" width="4.16" height="1.3" fill="#68e1fd"/><path d="M384.6,222.77h4.55V233.2H384.6Zm3.25,1.3h-2v7.83h1.94Z" transform="translate(-87.22 -0.29)" fill="#68e1fd"/><polygon points="298.04 228.35 301.28 228.35 301.28 227.04 298.03 227.05 298.04 228.35" fill="#68e1fd"/><path d="M371.5,222.78h4.55V233.2H371.5Zm3.25,1.3h-2v7.83h2Z" transform="translate(-87.22 -0.29)" fill="#68e1fd"/><rect x="284.94" y="227.06" width="3.25" height="1.3" fill="#68e1fd"/><path d="M377.56,221.61H383v12.75h-5.45Zm4.16,1.3h-2.86v10.16h2.86Z" transform="translate(-87.22 -0.29)" fill="#68e1fd"/><rect x="291" y="227.05" width="4.16" height="1.3" fill="#68e1fd"/><path d="M384.62,250.8h4.55v10.43h-4.55Zm3.24,1.3h-1.94v7.84h1.94Z" transform="translate(-87.22 -0.29)" fill="#68e1fd"/><rect x="298.05" y="255.08" width="3.25" height="1.3" fill="#68e1fd"/><path d="M371.52,250.8h4.55v10.44h-4.55Zm3.25,1.3h-2v7.84h2Z" transform="translate(-87.22 -0.29)" fill="#68e1fd"/><rect x="284.95" y="255.08" width="3.25" height="1.3" fill="#68e1fd"/><path d="M377.58,249.65H383V262.4h-5.45Zm4.16,1.29h-2.86V261.1h2.86Z" transform="translate(-87.22 -0.29)" fill="#68e1fd"/><rect x="291.01" y="255.08" width="4.16" height="1.3" fill="#68e1fd"/><path d="M384.65,316.88h4.55v10.43h-4.54Zm3.25,1.3H386V326h1.95Z" transform="translate(-87.22 -0.29)" fill="#68e1fd"/><rect x="298.09" y="321.16" width="3.24" height="1.3" fill="#68e1fd"/><path d="M371.55,316.89h4.55v10.43h-4.55Zm3.25,1.3h-1.95V326h2Z" transform="translate(-87.22 -0.29)" fill="#68e1fd"/><rect x="284.99" y="321.17" width="3.25" height="1.3" fill="#68e1fd"/><path d="M377.62,315.73h5.45v12.76h-5.44Zm4.15,1.29h-2.86v10.16h2.85Z" transform="translate(-87.22 -0.29)" fill="#68e1fd"/><polygon points="291.05 322.47 295.2 322.46 295.2 321.17 291.05 321.17 291.05 322.47" fill="#68e1fd"/><path d="M384.67,345.89h4.55v10.44h-4.54Zm3.24,1.3H386V355h1.95Z" transform="translate(-87.22 -0.29)" fill="#68e1fd"/><rect x="298.11" y="350.18" width="3.25" height="1.3" fill="#68e1fd"/><path d="M371.57,345.9h4.55v10.44h-4.56Zm3.25,1.3h-2V355h1.95Z" transform="translate(-87.22 -0.29)" fill="#68e1fd"/><rect x="285" y="350.19" width="3.25" height="1.3" fill="#68e1fd"/><path d="M377.63,344.73h5.45l0,12.76h-5.46Zm4.16,1.3h-2.86v10.15h2.85Z" transform="translate(-87.22 -0.29)" fill="#68e1fd"/><rect x="291.07" y="350.18" width="4.15" height="1.3" fill="#68e1fd"/><rect x="267.13" y="239.55" width="51.96" height="4.51" fill="#68e1fd"/><rect x="267.13" y="239.55" width="51.96" height="4.51" fill="url(#linear-gradient-90)"/><rect x="269.19" y="355.62" width="47.99" height="18.19" fill="#68e1fd"/><rect x="269.19" y="355.62" width="47.99" height="18.19" fill="url(#linear-gradient-91)"/><rect x="264.95" y="369.58" width="56.5" height="30.96" fill="#68e1fd"/><rect x="264.95" y="369.58" width="56.5" height="30.96" fill="url(#linear-gradient-92)"/></svg>