<svg id="Layer_1" data-name="Layer 1" xmlns="http://www.w3.org/2000/svg" xmlns:xlink="http://www.w3.org/1999/xlink" viewBox="0 0 568.87 497.01"><defs><linearGradient id="linear-gradient" x1="171.96" y1="339.52" x2="543.7" y2="784.63" gradientUnits="userSpaceOnUse"><stop offset="0" stop-color="#010101" stop-opacity="0"/><stop offset="0.95" stop-color="#010101"/></linearGradient><linearGradient id="linear-gradient-2" x1="376.29" y1="390.63" x2="623.46" y2="686.58" xlink:href="#linear-gradient"/><linearGradient id="linear-gradient-3" x1="354.72" y1="127.57" x2="306.45" y2="286.76" xlink:href="#linear-gradient"/><linearGradient id="linear-gradient-4" x1="391.09" y1="138.59" x2="342.82" y2="297.79" xlink:href="#linear-gradient"/><linearGradient id="linear-gradient-5" x1="345.4" y1="99.4" x2="183.64" y2="221.11" xlink:href="#linear-gradient"/><linearGradient id="linear-gradient-6" x1="326.51" y1="-1.41" x2="105.18" y2="183.97" xlink:href="#linear-gradient"/><linearGradient id="linear-gradient-7" x1="359.22" y1="128.53" x2="356.48" y2="233.98" xlink:href="#linear-gradient"/><linearGradient id="linear-gradient-8" x1="337.45" y1="331.78" x2="543.89" y2="257.32" gradientUnits="userSpaceOnUse"><stop offset="0" stop-color="#fff" stop-opacity="0"/><stop offset="0.95" stop-color="#fff"/></linearGradient><linearGradient id="linear-gradient-9" x1="274.21" y1="43.02" x2="150.62" y2="159.08" xlink:href="#linear-gradient"/><linearGradient id="linear-gradient-10" x1="327.02" y1="50.57" x2="203.43" y2="166.62" xlink:href="#linear-gradient"/><linearGradient id="linear-gradient-11" x1="388.18" y1="138.76" x2="291.3" y2="300.35" xlink:href="#linear-gradient"/><linearGradient id="linear-gradient-12" x1="428.09" y1="151.69" x2="374.68" y2="945.94" xlink:href="#linear-gradient"/><linearGradient id="linear-gradient-13" x1="376.27" y1="328.38" x2="405.03" y2="759.74" xlink:href="#linear-gradient"/><linearGradient id="linear-gradient-14" x1="357.65" y1="146.95" x2="304.24" y2="941.21" xlink:href="#linear-gradient"/><linearGradient id="linear-gradient-15" x1="342.92" y1="145.96" x2="289.51" y2="940.22" xlink:href="#linear-gradient"/><linearGradient id="linear-gradient-16" x1="347.41" y1="146.26" x2="294.01" y2="940.52" xlink:href="#linear-gradient"/><linearGradient id="linear-gradient-17" x1="292.22" y1="170.38" x2="517.48" y2="357.3" xlink:href="#linear-gradient"/></defs><title>US liberty</title><path d="M51.26,440.55c-10.29-27.23-9.63-57.31-6.89-86.3,1.7-17.94,4.36-36.47,14-51.69,27.1-42.69,93.2-39.64,128.94-75.41,21.3-21.33,29.13-54.07,52.58-73,16.08-13,37.17-17.54,57.42-21.7l132.48-27.23c17.52-3.6,36.34-7.08,52.77,0,15.83,6.8,26.09,21.94,37.76,34.62,9.82,10.67,21.31,20.25,27.86,33.18,18.55,36.65-9.68,80.68-3.42,121.27,4.49,29.18,25.94,52.27,43.16,76.25s31.18,55.43,18.87,82.27c-7.76,16.9-24.75,28.12-42.61,33.33s-36.75,5.2-55.35,5.15l-203.22-.45c-64.33-.14-130.78,4.49-194.47,2.31C83.05,492.15,60.6,465.25,51.26,440.55Z" transform="translate(-42.63 3.3)" fill="#68e1fd" opacity="0.24" style="isolation:isolate"/><path d="M115.14,492V453l3.85,0V423.41h3.85v-3.83h3.53v-2.64l3.45-4h14.9l3.45,4v2.64h3.15v3.83h3.85l-.11,14.3h3.55V368.93H156v-1.82h3.92v-19.5h1.56v-6.12h1.41v-5.85h1.41v-5.86h1.48v-5.85h1.82v-5.85h1.57v-5.85h1.49v-5.85h.64l1.16-23.18,1.15,23.18h.68v5.85h1.49v5.85h1.57v5.85h1.82v5.85h1.48v5.86h1.41v5.85h1.41l0,6.14H185v19.5H189v1.82h-2.6v68.88h2.33v-38.4h5v-5.17h3.49s-.56-6.61,12.13-8V275l12.23-1.5V268.1h5.74v-6.22l4.79.15,2-25.63,2,25.63,4.35-.15v6.22h5.94v4.84L258.9,275V385.64h5.28l.43,4.08,2,.63V368.79h1.79V347.7h2.84V332.85l.77,0v-4l1.92,0v-4.09h2.3v-3.43h2.41v-2.63h2.07v-2h1.43V302h1.66v-4.83l2.08.26L287,256.76l1.16,40.65,2.08-.26-.09,4.83h1.75v14.71l1.42.05v2h2.07v2.63h2.42v3.43h2.29v4.1h1.79v4h1v14.65h3v21.26h1.46v80h1.58v-2.2h2.87v-1.91h5.52v-38l8.95-7.16,18.09,7.16v31.9h2.95V436.3h10.83V439H361v2.26h3.24V444h2v48Z" transform="translate(-42.63 3.3)" fill="#68e1fd"/><path d="M115.14,492V453l3.85,0V423.41h3.85v-3.83h3.53v-2.64l3.45-4h14.9l3.45,4v2.64h3.15v3.83h3.85l-.11,14.3h3.55V368.93H156v-1.82h3.92v-19.5h1.56v-6.12h1.41v-5.85h1.41v-5.86h1.48v-5.85h1.82v-5.85h1.57v-5.85h1.49v-5.85h.64l1.16-23.18,1.15,23.18h.68v5.85h1.49v5.85h1.57v5.85h1.82v5.85h1.48v5.86h1.41v5.85h1.41l0,6.14H185v19.5H189v1.82h-2.6v68.88h2.33v-38.4h5v-5.17h3.49s-.56-6.61,12.13-8V275l12.23-1.5V268.1h5.74v-6.22l4.79.15,2-25.63,2,25.63,4.35-.15v6.22h5.94v4.84L258.9,275V385.64h5.28l.43,4.08,2,.63V368.79h1.79V347.7h2.84V332.85l.77,0v-4l1.92,0v-4.09h2.3v-3.43h2.41v-2.63h2.07v-2h1.43V302h1.66v-4.83l2.08.26L287,256.76l1.16,40.65,2.08-.26-.09,4.83h1.75v14.71l1.42.05v2h2.07v2.63h2.42v3.43h2.29v4.1h1.79v4h1v14.65h3v21.26h1.46v80h1.58v-2.2h2.87v-1.91h5.52v-38l8.95-7.16,18.09,7.16v31.9h2.95V436.3h10.83V439H361v2.26h3.24V444h2v48Z" transform="translate(-42.63 3.3)" fill="url(#linear-gradient)"/><path d="M338.51,492v-26l2.56,0V446.4h2.56v-2.55H346V442.1l2.29-2.69h9.91l2.29,2.69v1.75h2.1v2.55h2.56l-.07,9.51h2.35V410.18h-1.73V409h2.61V396h1v-4.07h.94V388h.93v-3.89h1v-3.89h1.21v-3.89h1v-3.89h1v-3.89h.43l.77-15.41.77,15.41h.45v3.89h1v3.89h1v3.89h1.21v3.89h1V388H383v3.9H384V396h1v13h2.61v1.21h-1.73V456h1.54V430.45h3.34V427h2.32s-.37-4.4,8.07-5.31v-74l8.13-1v-3.6h3.81V339l3.19.1,1.36-17,1.35,17,2.89-.1v4.14h3.95v3.21l8.27,1.39v73.55h3.51l.28,2.71,1.33.42V410.09h1.18v-14h1.9v-9.88l.51,0v-2.65l1.27,0v-2.72h1.53v-2.28h1.61v-1.75h1.37v-1.31h1v-9.81h1.1v-3.2l1.39.16.76-27,.77,27,1.39-.16-.07,3.2h1.17v9.79l.95,0v1.31h1.37v1.75H460v2.28h1.53v2.72h1.18v2.67h.67V396h2v14.14h1v53.17h1.05V461.8h1.91v-1.27h3.67V435.26l5.95-4.76,12,4.76v21.21h2V455h7.2v1.77H502v1.5h2.15v1.87h1.36V492Z" transform="translate(-42.63 3.3)" fill="#68e1fd"/><path d="M338.51,492v-26l2.56,0V446.4h2.56v-2.55H346V442.1l2.29-2.69h9.91l2.29,2.69v1.75h2.1v2.55h2.56l-.07,9.51h2.35V410.18h-1.73V409h2.61V396h1v-4.07h.94V388h.93v-3.89h1v-3.89h1.21v-3.89h1v-3.89h1v-3.89h.43l.77-15.41.77,15.41h.45v3.89h1v3.89h1v3.89h1.21v3.89h1V388H383v3.9H384V396h1v13h2.61v1.21h-1.73V456h1.54V430.45h3.34V427h2.32s-.37-4.4,8.07-5.31v-74l8.13-1v-3.6h3.81V339l3.19.1,1.36-17,1.35,17,2.89-.1v4.14h3.95v3.21l8.27,1.39v73.55h3.51l.28,2.71,1.33.42V410.09h1.18v-14h1.9v-9.88l.51,0v-2.65l1.27,0v-2.72h1.53v-2.28h1.61v-1.75h1.37v-1.31h1v-9.81h1.1v-3.2l1.39.16.76-27,.77,27,1.39-.16-.07,3.2h1.17v9.79l.95,0v1.31h1.37v1.75H460v2.28h1.53v2.72h1.18v2.67h.67V396h2v14.14h1v53.17h1.05V461.8h1.91v-1.27h3.67V435.26l5.95-4.76,12,4.76v21.21h2V455h7.2v1.77H502v1.5h2.15v1.87h1.36V492Z" transform="translate(-42.63 3.3)" fill="url(#linear-gradient-2)"/><path d="M306.26,154.85s-9.81,13.83-10,24.92,1.36,14.39,3.3,14.19S327,169.05,327,169.05Z" transform="translate(-42.63 3.3)" fill="#68e1fd"/><rect x="254.48" y="38.33" width="11.48" height="15.11" fill="#68e1fd"/><path d="M429.79,281.63c0,.36-.07.76-.11,1.24a1.17,1.17,0,0,1-.22,0Z" transform="translate(-42.63 3.3)" fill="#68e1fd"/><path d="M402,311l.91,13.61c-.88.47-1.42.73-1.42.73Z" transform="translate(-42.63 3.3)" fill="#68e1fd"/><path d="M429.79,281.63c0,.36-.07.76-.11,1.24a1.17,1.17,0,0,1-.22,0Z" transform="translate(-42.63 3.3)" fill="#68e1fd"/><path d="M333.12,173.12c1.08-1.47,2.31-2.7,4.14-2.78a2.42,2.42,0,0,0,1.85-1.22,7.36,7.36,0,0,0,.79-2.16c.26-1,.43-2.54,1.08-3.28a58.15,58.15,0,0,1,6,4.94l-2.42,18.24C340.72,182.28,337,177.66,333.12,173.12Z" transform="translate(-42.63 3.3)" fill="#68e1fd"/><path d="M377.77,165.44c.63.48-.19,1.68-.08,3.81.4,8.26.86,16.71,4.23,24.39,1.35,3.09,4.12,6.2-.27,7.57-2.58.8-5.89.5-8.59.69l-1.65-24.29V166.2a29.37,29.37,0,0,1,4.57-1A3.12,3.12,0,0,1,377.77,165.44Z" transform="translate(-42.63 3.3)" fill="#68e1fd"/><path d="M333.12,173.12c1.08-1.47,2.31-2.7,4.14-2.78a2.42,2.42,0,0,0,1.85-1.22,7.36,7.36,0,0,0,.79-2.16c.26-1,.43-2.54,1.08-3.28a58.15,58.15,0,0,1,6,4.94l-2.42,18.24C340.72,182.28,337,177.66,333.12,173.12Z" transform="translate(-42.63 3.3)" fill="url(#linear-gradient-3)"/><path d="M377.77,165.44c.63.48-.19,1.68-.08,3.81.4,8.26.86,16.71,4.23,24.39,1.35,3.09,4.12,6.2-.27,7.57-2.58.8-5.89.5-8.59.69l-1.65-24.29V166.2a29.37,29.37,0,0,1,4.57-1A3.12,3.12,0,0,1,377.77,165.44Z" transform="translate(-42.63 3.3)" fill="url(#linear-gradient-4)"/><polygon points="313.78 136.09 316.02 112.69 318.26 136.09 313.78 136.09" fill="#68e1fd"/><polygon points="335.91 152.61 359.31 154.86 335.91 157.1 335.91 152.61" fill="#68e1fd"/><polygon points="296.28 152.61 272.88 154.86 296.28 157.1 296.28 152.61" fill="#68e1fd"/><polygon points="325.87 138.18 343.42 122.54 329.17 141.22 325.87 138.18" fill="#68e1fd"/><polygon points="333.67 144.68 355.98 137.27 335.48 148.78 333.67 144.68" fill="#68e1fd"/><polygon points="297.61 144.68 275.3 137.27 295.8 148.78 297.61 144.68" fill="#68e1fd"/><polygon points="305.3 138.18 287.75 122.54 302.01 141.22 305.3 138.18" fill="#68e1fd"/><path d="M305.62,76.72s8,6.57,8.39,11.58.09,5.36.26,8,6.48,29.48,7.17,33.37.61,13.05,1.56,15.91,8.56,29.82,8.56,29.82l-20.49,7.09S309,171.3,307.7,163.69s-2.77-17.55-3.37-21-2.86-9.68-3.72-16.94-.26-33-.26-33Z" transform="translate(-42.63 3.3)" fill="#68e1fd"/><path d="M315.35,102c-.62-2.91-1-5-1.08-5.69-.17-2.5.07-2.91-.22-7.41,2.7-1.86-.28-15.54-1-15.17s-10.44,12.73-10.92,13.61l-1.27,3.85a36.85,36.85,0,0,0-.58,4.66c0,1.42-.06,3.25-.09,5.32,0,2.48,2.73,4.71,5.07,4.71,2.84,0,5-1.55,7.32,1.34,1.5,1.86,1.9,4.36,2.12,6.74a72,72,0,0,1,.3,7.48,62.48,62.48,0,0,0,0,6.42c.46,5.08,2.68,9.81,3.25,14.87a46.65,46.65,0,0,1-.11,12c-.86,5.92-2,11.82-3.24,17.66l9.49-22c-.69-2.4-1.22-4.19-1.43-4.81-.95-2.86-.86-12-1.56-15.91C320.92,126.7,317.23,110.77,315.35,102Z" transform="translate(-42.63 3.3)" fill="url(#linear-gradient-5)"/><polygon points="265.19 94.03 255.25 94.03 253.96 64.29 266.49 64.29 265.19 94.03" fill="#68e1fd"/><rect x="254.75" y="93.68" width="10.85" height="2.89" fill="#68e1fd"/><polygon points="263.03 102.68 257.41 102.68 255.14 96.33 265.3 96.33 263.03 102.68" fill="#68e1fd"/><rect x="257.85" y="101.15" width="4.65" height="3.06" rx="1.36" fill="#68e1fd"/><rect x="251.66" y="60.12" width="17.12" height="4.29" rx="1.67" fill="#68e1fd"/><polygon points="267.13 63.09 253.2 63.09 244.53 56.16 275.91 56.16 267.13 63.09" fill="#68e1fd"/><rect x="244.43" y="53.41" width="31.58" height="2.75" fill="#68e1fd"/><polygon points="276.01 44.75 260.22 44.75 244.43 44.75 245.73 49.09 244.43 53.44 260.22 53.44 276.01 53.44 274.71 49.09 276.01 44.75" fill="#68e1fd"/><path d="M297.12,35c-3.34-5.6-3.4-11.33-.73-17.21,1.45-3.2,3.28-6.26,4.22-9.65,1-3.71,1-7.62.89-11.47C301.39,0,303.26,3,305.43,5.44s4.7,4.62,6.42,7.41c2.3,3.74,5,22.18-3.25,22.18Z" transform="translate(-42.63 3.3)" fill="#68e1fd"/><path d="M297.12,35c-3.34-5.6-3.4-11.33-.73-17.21,1.45-3.2,3.28-6.26,4.22-9.65,1-3.71,1-7.62.89-11.47C301.39,0,303.26,3,305.43,5.44s4.7,4.62,6.42,7.41c2.3,3.74,5,22.18-3.25,22.18Z" transform="translate(-42.63 3.3)" fill="url(#linear-gradient-6)"/><path d="M341.24,159.72s-3.54-3.38-3.54-11.68,9.51-15.56,20.49-15.56c13.05,0,21.18,8.65,21.18,16.77,0,8-2.68,11.24-2.68,11.24S341.37,159.84,341.24,159.72Z" transform="translate(-42.63 3.3)" fill="#68e1fd"/><path d="M341.89,161.12s-3.43-3.26-3.43-11.31,9.21-15.08,19.85-15.08c12.66,0,20.53,8.38,20.53,16.26,0,7.7-2.6,10.89-2.6,10.89S342,161.25,341.89,161.12Z" transform="translate(-42.63 3.3)" fill="url(#linear-gradient-7)"/><path d="M345.31,150.12s.34,19.54,2.16,23.86-2.16,12.71-2.16,12.71l15.12,17.81,16.43-4.67s-5.27-4.41-5.36-8,.17-14.27.61-15.13,1.81-10.64,1.29-15.82-2.33-13.06-2.33-13.06-5.79-4.58-12.36-4.06S345.31,150.12,345.31,150.12Z" transform="translate(-42.63 3.3)" fill="#68e1fd"/><path d="M329,166.32s11.41,10.92,14.13,14.61,11.87,17.31,17.51,19.84,13.42-2.53,17.7-1.75,14,3.7,18.28,12.65,23,162.8,21.4,164.75-5.84,4.08-5.84,6.61,2.14,46.88,1.37,47.65-4.87,1.95-4.87,2.73,4.28,40.26,2.53,40.26H304s8.75-18.48,9.92-24.12-2.14-32.68-1-47.65,4.87-27.43,5.06-33.65c.07-2.37-.33-11.93-.76-23.53-.36-9.7-6.69-13.63-6.83-23.16-.13-9,5.9-23.84,6.42-27.42.57-3.85-10.39-.09-10.89-9.73-.78-15,12-29.08,12.32-35.58.63-15.29-9.76-11.33-11-17.32-1.09-5.46,3.2-12.21,3.5-21,.41-11.61-8.36-21.2-8.36-21.2Z" transform="translate(-42.63 3.3)" fill="#68e1fd"/><path d="M329,166.32s11.41,10.92,14.13,14.61,11.87,17.31,17.51,19.84,13.42-2.53,17.7-1.75,14,3.7,18.28,12.65,23,162.8,21.4,164.75-5.84,4.08-5.84,6.61,2.14,46.88,1.37,47.65-4.87,1.95-4.87,2.73,4.28,40.26,2.53,40.26H304s8.75-18.48,9.92-24.12-2.14-32.68-1-47.65,4.87-27.43,5.06-33.65c.07-2.37-.33-11.93-.76-23.53-.36-9.7-6.69-13.63-6.83-23.16-.13-9,5.9-23.84,6.42-27.42.57-3.85-10.39-.09-10.89-9.73-.78-15,12-29.08,12.32-35.58.63-15.29-9.76-11.33-11-17.32-1.09-5.46,3.2-12.21,3.5-21,.41-11.61-8.36-21.2-8.36-21.2Z" transform="translate(-42.63 3.3)" fill="url(#linear-gradient-8)"/><path d="M339.77,159.37c.2-3.29,1.47-4.49,1.47-4.5.28-.26.37-1.63.5-2a14.59,14.59,0,0,1,2.53-4.52,19,19,0,0,1,11.25-6.5,14.3,14.3,0,0,1,2.69-.23c3.64,0,7.14,1.35,10.53,2.68a10,10,0,0,1,2.61,1.32,15.13,15.13,0,0,1,4.34,6.41c.54,1.44.75,2.93,1.17,4.4.17.6,2.59,4,2.25,6.66s-5.86,6-5.86,6l-26.85-.34S339.43,165.16,339.77,159.37Z" transform="translate(-42.63 3.3)" fill="#68e1fd"/><path d="M450.33,247.85c-.84,3.46-2.92,6.42-5.18,9.26l.22-.11a5.07,5.07,0,0,1,1.09,1.65c.37.94,1.9,4.26,1.75,4.63s-7.55,15.43-8.79,16.6c-1.17,1-8.39,2.66-9.74,3,0-.48.08-.88.11-1.24l-.33,1.27a1.17,1.17,0,0,0,.22,0c-.73,7.44-3,27.39-7.29,30.64a103.57,103.57,0,0,1-10.07,6.13c-3.79,2.08-7.44,4-9.41,5L402,311,395.32,209.4a19.67,19.67,0,0,1,1.31,2.26c.7,1.46,1.75,6.68,3.07,14.49l18.67,19.4-12.8,20.87c.77,5.61,1.53,11.45,2.3,17.32l7-1.16c6-14.67,15.65-27.69,26.88-38.93,1.61-1.64,3.72-3.35,5.91-2.73a4.18,4.18,0,0,1,2.7,2.88A7.64,7.64,0,0,1,450.33,247.85Z" transform="translate(-42.63 3.3)" fill="#68e1fd"/><path d="M427.41,233.08a7.62,7.62,0,0,0-1.5.52c-3.36,1.57-4.9,5.39-7.13,8.36-1.49,2-3.36,3.64-5,5.47-3.83,4.2-8.29,11.23-9,16.84-.39,3.27.68,7.35,1,10.62.18,1.94.78,22.06,2.09,22.42l7,1.94a8.61,8.61,0,0,0,.54-.92l18.71-31.58,10.65-18c.88-1.49,3.11-4,3.38-5.7.6-4-8.3-7-11.86-8.48C433.48,233.42,430.29,232.42,427.41,233.08Z" transform="translate(-42.63 3.3)" fill="#68e1fd"/><polygon points="335.29 235.06 326.71 396.7 352.68 382.44 335.29 235.06" fill="#68e1fd"/><path d="M418,376.43c-1.53,1.94-5.84,4.09-5.84,6.6s2.16,46.88,1.39,47.64-4.89,2-4.89,2.74,4.31,40.27,2.55,40.27h-34c-6.19,0-14.2,1.38-20.23,0-5.32-1.22-4.42.29-3.65-5.78.22-1.74,5.13-15.66,2.66-16.58l-8.49-3.13a4,4,0,0,1-1.69-1c-1.32-1.51.2-3.78,1.64-5.18a362,362,0,0,0,25.41-27.43c3.11-3.72,8.59-7.93,6.42-13-1.55-3.64-9.7-3.84-10-8.21-.23-3.62,36.55-23.09,36.55-23.09l-3-45.7c2-1,5.62-2.88,9.41-5C416,350.28,418.63,375.63,418,376.43Z" transform="translate(-42.63 3.3)" fill="#68e1fd"/><path d="M315.12,383c0,.06,5.33-1.3,5.65-1.42,4.08-1.52,8.29-4.16,10.53-8C334.2,368.68,336,363,339,358a110.87,110.87,0,0,1,10.52-14.68c4.39-5.18,9.3-10,12.7-15.89a54.88,54.88,0,0,0,5-12.52,201.45,201.45,0,0,0,5.66-30.58c.16-1.33,3.1-21,2.53-21.15,1.47.53-.8,22.42-.89,24.19-.73,14.29-1.55,28.59-2.67,42.87-.36,4.49-.68,9-1.27,13.48-.12.9,0,3-.58,3.74-1.6,2.16-6.42.81-9.31,3a21.71,21.71,0,0,0-5.51,7.16C347.58,371.7,343.69,388,333,400.29c-3.73,4.27-7.34,8.19-12.51,3.2S314.68,389.63,315.12,383Z" transform="translate(-42.63 3.3)" fill="#68e1fd"/><path d="M323.94,148.64s-10.14,25.71-13.76,29-13.5,11.77-12,15.75c4.32,11.29,24.27-1.54,29.37-23.74C330.23,158.1,330.16,158.75,323.94,148.64Z" transform="translate(-42.63 3.3)" fill="#68e1fd"/><path d="M309.12,61l-11.73-.14s-.23-1.38-.81-1a4.29,4.29,0,0,0-1.29,3.7c.39,1.39-.86,6.38-.91,6.72-.07.52.26,4.41.26,4.41s3,.73,2.55,1.86-2.63,2.29-2.85,2.72,3.33,8,3.33,8,.17-1.77.26-3.24,3.11-3.72,5.53-2.85,4.73,6.43,4.73,6.43Z" transform="translate(-42.63 3.3)" fill="#68e1fd"/><polygon points="267.13 63.09 253.2 63.09 244.53 56.16 275.91 56.16 267.13 63.09" fill="url(#linear-gradient-9)"/><path d="M309.12,61l-11.73-.14s-.23-1.38-.81-1a4.29,4.29,0,0,0-1.29,3.7c.39,1.39-.86,6.38-.91,6.72-.07.52.26,4.41.26,4.41s3,.73,2.55,1.86-2.63,2.29-2.85,2.72,3.33,8,3.33,8,.17-1.77.26-3.24,3.11-3.72,5.53-2.85,4.73,6.43,4.73,6.43Z" transform="translate(-42.63 3.3)" fill="url(#linear-gradient-10)"/><path d="M356.2,168.45c-.76.15.52-1.47,1.81-1.3s3.12-.09,2.86-1.12-.95-8.3.43-9.34,7.95-.2,7.69-.71c-.15-.3-.61-.56-.86-.76a14.64,14.64,0,0,1-1.84-1.47c-.51-.55-.87-1.22-1.33-1.81a7.9,7.9,0,0,0-3.44-2.45,5.6,5.6,0,0,0-1.94-.4,6.91,6.91,0,0,0-1.89.48,11.64,11.64,0,0,0-1.18.39,6.59,6.59,0,0,0-2.75,2.06,12.38,12.38,0,0,0-.9,1.52,5.37,5.37,0,0,0-.74,1.11,2.49,2.49,0,0,1-.58.83,6.29,6.29,0,0,1-.79.76,12.58,12.58,0,0,1-1.22.72c-.23.13-.8.38-.48.59a2.27,2.27,0,0,0,1.07,0c1.32-.07,2.64-.26,4-.24.78,0,2.33.08,2.37,1.16.08,2.25-.95,3.29-3.81,3.2s-5.55.26-6,2.25.17,7.33.17,7.33l-.76,4.43s-5.18-8.27-5.27-12.29,2.84-7.36,5.76-9.88c1.41-1.21,2.39-2.66,4-3.66a17.55,17.55,0,0,1,5.46-2.11c3.23-.68,6.67.76,9.74,1.75a74.44,74.44,0,0,1,8.68,3.17c.48.22,1.52.56,1.75,1.11a7.64,7.64,0,0,1,.69,2.63c.09.69,2.38,3.46,2.27,5.79s-.81,2.58-.81,2.58l-6.21,11.95s-1.15,14.1-.53,15.82,13.48,8.51,13.48,8.51-9.11-1.28-10.61-1.59a30.22,30.22,0,0,1-16.95-10.55c-8.82-10.55-9.43-12.19-8.3-12.28a9.2,9.2,0,0,1,2.15.29c1.67.3,3.34.62,5,.84.82.11,1.64.2,2.46.23a2.53,2.53,0,0,0,2.22-.78c1-1,2.6-1.15,3.94-1.67a6.69,6.69,0,0,0,2.87-2.2,11.93,11.93,0,0,0,1.06-1.83,15.51,15.51,0,0,0,1.26-3.25,6.84,6.84,0,0,0,0-3.45,2,2,0,0,0-.36-.75,2.14,2.14,0,0,0-.63-.49,6.41,6.41,0,0,0-3.89-.71,3.86,3.86,0,0,0-1.84.69,2.19,2.19,0,0,0-.91,1.69,5.34,5.34,0,0,0,.45,1.64,10.71,10.71,0,0,1,.37,1.7l.35,2.08a2,2,0,0,1-1.64,2.73,4.18,4.18,0,0,1-1.3.26c-.17,0-.37-.06-.42-.22a.5.5,0,0,1,0-.21,5.56,5.56,0,0,0,.2-1.14c0-1.91-4.3-.78-5.41-.52a12.44,12.44,0,0,1,2.94-1.5C359.05,169.92,357.5,168.19,356.2,168.45Z" transform="translate(-42.63 3.3)" fill="url(#linear-gradient-11)"/><path d="M309.79,85.8c.07,2.3-2.44-5.28-2-8.3s-4.06-8.39-3.8-11.15,2-2.86,2.59-2.51a17.18,17.18,0,0,1,4.15,4.67,43.75,43.75,0,0,1,2.45,5.2C313.34,74.66,309.49,75.58,309.79,85.8Z" transform="translate(-42.63 3.3)" fill="#68e1fd"/><path d="M429.64,265.23c-.63.85,1.38,3.5,2.12,4.67s2.16,3.5,2.89,3.5,2.34-1.17,2.34-1.55a36.79,36.79,0,0,0-2.77-4.28C433.53,266.53,430.63,263.89,429.64,265.23Z" transform="translate(-42.63 3.3)" fill="#68e1fd"/><path d="M431.2,261.39c-.43,1,2.28,3.24,3.31,4.26s3.07,3.05,3.82,2.87,2.11-1.76,2-2.16-2.91-2.81-3.88-3.7S431.89,259.77,431.2,261.39Z" transform="translate(-42.63 3.3)" fill="#68e1fd"/><path d="M434.36,257.53c-.44,1,2.32,3.31,3.38,4.35s3.13,3.11,3.9,2.93,2.14-1.8,2.05-2.21-3-2.86-4-3.77S435.07,255.89,434.36,257.53Z" transform="translate(-42.63 3.3)" fill="#68e1fd"/><path d="M438,252.23c-.59,1,1.82,3.6,2.73,4.78s2.65,3.53,3.44,3.45,2.38-1.47,2.34-1.89-2.54-3.26-3.38-4.3S438.9,250.7,438,252.23Z" transform="translate(-42.63 3.3)" fill="#68e1fd"/><path d="M294.4,70.17a2.7,2.7,0,0,1-1.53-1.88A3.19,3.19,0,0,1,295,65.05c1.43-.39,7.61,0,7.74,1.3a2.12,2.12,0,0,1-2.51,2.42C295.33,68.46,294.92,70.22,294.4,70.17Z" transform="translate(-42.63 3.3)" fill="#68e1fd"/><path d="M294.12,70.28c.58-.49,5.62.26,7,.65s3.73.95,4.1,1.42c.52.65.39,2.29-.34,2.47a81.23,81.23,0,0,1-10.25-.13C294,74.43,292.27,71.84,294.12,70.28Z" transform="translate(-42.63 3.3)" fill="#68e1fd"/><path d="M294.56,75c.43-.46,4.29.41,5.44.65a8,8,0,0,1,3,1c.47.52.49,1.94-.1,2.14a64.85,64.85,0,0,1-8.53.44C293.83,79.09,293.16,76.46,294.56,75Z" transform="translate(-42.63 3.3)" fill="#68e1fd"/><rect x="253.07" y="476.97" width="121.78" height="17.9" fill="#68e1fd"/><path d="M307.34,281.3c-.7,2.18-.37,5.08.28,7.77,2.91,3.4,8.71,2.29,9.24,4.45,0-1.55.54-6.4,4.49-18.25,2.56-7.69,18.49-20.34,28.67-30.48,9.91-9.89,14.12-17.37,14.12-17.37s-3.58,4.59-18.37,15.48S309.09,275.85,307.34,281.3Z" transform="translate(-42.63 3.3)" fill="#68e1fd"/><path d="M348,269.47q-4.58,10.84-9.56,21.51a160.22,160.22,0,0,1-11.76,21.67,74,74,0,0,1-7.68,9.7c-2.42,2.55-5.2,4.35-6.68,7.54,1.62,3.84,3.32,7.53,4.7,11.46,2.55-1.7,4.43-7.08,5.85-9.88,1.76-3.49,3.39-7,5-10.6,3.16-7.15,6.09-14.4,9.37-21.5,4.85-10.54,10.44-20.71,15.42-31.18,2.44-5.15,4.93-10.28,7-15.59a81.34,81.34,0,0,0,2.78-8.19c.49-1.77,2.29-6.39,1.31-8-5.54,5.22-8.23,14.52-11,21.41Q350.42,263.68,348,269.47Z" transform="translate(-42.63 3.3)" fill="#68e1fd"/><path d="M450.33,247.85c-.84,3.46-2.92,6.42-5.18,9.26l.22-.11a5.07,5.07,0,0,1,1.09,1.65c.37.94,1.9,4.26,1.75,4.63s-7.55,15.43-8.79,16.6c-1.17,1-8.39,2.66-9.74,3,0-.48.08-.88.11-1.24l-.33,1.27a1.17,1.17,0,0,0,.22,0c-.73,7.44-3,27.39-7.29,30.64a103.57,103.57,0,0,1-10.07,6.13c-3.79,2.08-7.44,4-9.41,5L402,311,395.32,209.4a19.67,19.67,0,0,1,1.31,2.26c.7,1.46,1.75,6.68,3.07,14.49l18.67,19.4-12.8,20.87c.77,5.61,1.53,11.45,2.3,17.32l7-1.16c6-14.67,15.65-27.69,26.88-38.93,1.61-1.64,3.72-3.35,5.91-2.73a4.18,4.18,0,0,1,2.7,2.88A7.64,7.64,0,0,1,450.33,247.85Z" transform="translate(-42.63 3.3)" fill="url(#linear-gradient-12)"/><path d="M418,376.43c-1.53,1.94-5.84,4.09-5.84,6.6s2.16,46.88,1.39,47.64-4.89,2-4.89,2.74,4.31,40.27,2.55,40.27h-34c-6.2,0-14.22,1.39-20.24,0-5.33-1.2-4.41.29-3.65-5.76.22-1.75,5.14-15.69,2.66-16.6l-8.49-3.14a3.88,3.88,0,0,1-1.68-.95c-1.32-1.53.18-3.79,1.64-5.17a367.7,367.7,0,0,0,25.39-27.44c3.13-3.72,8.61-7.95,6.42-13-1.54-3.65-9.67-3.83-10-8.21v0l8.57-161.6L395,376.25c6.13-3.39,10.91-5.95,10.91-5.95l-3-45.7c2-1,5.62-2.88,9.41-5C416,350.28,418.63,375.63,418,376.43Z" transform="translate(-42.63 3.3)" fill="url(#linear-gradient-13)"/><path d="M315.12,383c0,.06,5.33-1.3,5.65-1.42,4.08-1.52,8.29-4.16,10.53-8C334.2,368.68,336,363,339,358a110.87,110.87,0,0,1,10.52-14.68c4.39-5.18,9.3-10,12.7-15.89a54.88,54.88,0,0,0,5-12.52,201.45,201.45,0,0,0,5.66-30.58c.16-1.33,3.1-21,2.53-21.15,1.47.53-.8,22.42-.89,24.19-.73,14.29-1.55,28.59-2.67,42.87-.36,4.49-.68,9-1.27,13.48-.12.9,0,3-.58,3.74-1.6,2.16-6.42.81-9.31,3a21.71,21.71,0,0,0-5.51,7.16C347.58,371.7,343.69,388,333,400.29c-3.73,4.27-7.34,8.19-12.51,3.2S314.68,389.63,315.12,383Z" transform="translate(-42.63 3.3)" fill="url(#linear-gradient-14)"/><path d="M307.34,281.3c-.7,2.18-.37,5.08.28,7.77,2.91,3.4,8.71,2.29,9.24,4.45,0-1.55.54-6.4,4.49-18.25,2.56-7.69,18.49-20.34,28.67-30.48,9.91-9.89,14.12-17.37,14.12-17.37s-3.58,4.59-18.37,15.48S309.09,275.85,307.34,281.3Z" transform="translate(-42.63 3.3)" fill="url(#linear-gradient-15)"/><path d="M348,269.47q-4.58,10.84-9.56,21.51a160.22,160.22,0,0,1-11.76,21.67,74,74,0,0,1-7.68,9.7c-2.42,2.55-5.2,4.35-6.68,7.54,1.62,3.84,3.32,7.53,4.7,11.46,2.55-1.7,4.43-7.08,5.85-9.88,1.76-3.49,3.39-7,5-10.6,3.16-7.15,6.09-14.4,9.37-21.5,4.85-10.54,10.44-20.71,15.42-31.18,2.44-5.15,4.93-10.28,7-15.59a81.34,81.34,0,0,0,2.78-8.19c.49-1.77,2.29-6.39,1.31-8-5.54,5.22-8.23,14.52-11,21.41Q350.42,263.68,348,269.47Z" transform="translate(-42.63 3.3)" fill="url(#linear-gradient-16)"/><path d="M294.51,65.5s-1.62-2.27-1.36-4,3.11-6.22,3.76-6.09,1.36,2.46,1.1,3.69-1.37,3.18-1.34,3.89.09,2,.09,2Z" transform="translate(-42.63 3.3)" fill="#68e1fd"/><path d="M315.31,208.42a27.18,27.18,0,0,1-.08,9.17c-1.44,8-.25,14.8,5.69,20.82a3.13,3.13,0,0,0,2.21,1.19,3,3,0,0,0,1.69-.83c6.42-5.37,6.9-14.9,6.86-23.26q0-13.26-.1-26.51c0-1.59,2.47-17.73,1.82-18.39-2.46-2.43-4.4-4.29-4.4-4.29s1.21-7-.54-9.79c0,0-.24-.54-.24-.55s-4.55,21.41-7.06,26.91c-3.91,8.59-11.18,11.46-10.5,12.71A40,40,0,0,1,315.31,208.42Z" transform="translate(-42.63 3.3)" fill="url(#linear-gradient-17)"/></svg>