<svg id="Layer_1" data-name="Layer 1" xmlns="http://www.w3.org/2000/svg" xmlns:xlink="http://www.w3.org/1999/xlink" viewBox="0 0 597.74 422.84"><defs><clipPath id="clip-path" transform="translate(46.13 -47.02)"><path d="M85,152.7c18.48-15.83,39.41-28.53,58.79-43.25,17.06-13,33-27.5,51.24-38.71C259.73,31,351.36,42.29,404.46,96.63c24.17,24.73,40.12,56.14,55.69,87,23.94,47.47,48.2,95.92,56.5,148.43,2.6,16.5,3.57,33.54-.41,49.76-7.52,30.68-32.31,55-60.87,68.55s-60.67,17.48-92.24,18.85c-53.94,2.35-107.94-2.37-161.65-7.92-38.94-4-78.13-8.57-115.47-20.35-20.48-6.46-40.63-15.3-56.75-29.49C-7.14,379.43,2.85,324.79,11.2,281.57,20.75,232.11,46.61,185.58,85,152.7Z" fill="none"/></clipPath><linearGradient id="linear-gradient" x1="440.92" y1="192.1" x2="445.91" y2="123.24" gradientUnits="userSpaceOnUse"><stop offset="0.02" stop-color="#fff" stop-opacity="0"/><stop offset="0.49" stop-color="#fff" stop-opacity="0.68"/><stop offset="1" stop-color="#fff"/></linearGradient><linearGradient id="linear-gradient-2" x1="389.52" y1="253.06" x2="395.35" y2="172.56" xlink:href="#linear-gradient"/><linearGradient id="linear-gradient-3" x1="66.75" y1="227.69" x2="71.7" y2="159.27" xlink:href="#linear-gradient"/><linearGradient id="linear-gradient-4" x1="88.13" y1="326.41" x2="88.67" y2="290.66" gradientUnits="userSpaceOnUse"><stop offset="0.01"/><stop offset="0.13" stop-opacity="0.69"/><stop offset="1" stop-opacity="0"/></linearGradient><linearGradient id="linear-gradient-5" x1="87.39" y1="330.54" x2="87.93" y2="294.79" xlink:href="#linear-gradient-4"/><linearGradient id="linear-gradient-6" x1="119.72" y1="323.91" x2="120.26" y2="288.16" xlink:href="#linear-gradient-4"/><linearGradient id="linear-gradient-7" x1="306.03" y1="273.36" x2="304.27" y2="633.05" xlink:href="#linear-gradient-4"/><linearGradient id="linear-gradient-8" x1="191.8" y1="387.93" x2="197.09" y2="294.48" gradientUnits="userSpaceOnUse"><stop offset="0.02" stop-color="#fff" stop-opacity="0"/><stop offset="0.32" stop-color="#fff" stop-opacity="0.39"/><stop offset="0.68" stop-color="#fff" stop-opacity="0.68"/><stop offset="1" stop-color="#fff"/></linearGradient><linearGradient id="linear-gradient-9" x1="280.51" y1="355.08" x2="324.79" y2="298.27" xlink:href="#linear-gradient-4"/><linearGradient id="linear-gradient-10" x1="371.46" y1="360.45" x2="369.5" y2="297.36" xlink:href="#linear-gradient-4"/><linearGradient id="linear-gradient-11" x1="390.74" y1="311.23" x2="394.85" y2="349.82" xlink:href="#linear-gradient-4"/><linearGradient id="linear-gradient-12" x1="396.2" y1="311.23" x2="400.32" y2="349.82" xlink:href="#linear-gradient-4"/><linearGradient id="linear-gradient-13" x1="401.66" y1="311.23" x2="405.78" y2="349.82" xlink:href="#linear-gradient-4"/><linearGradient id="linear-gradient-14" x1="407.12" y1="311.23" x2="411.24" y2="349.82" xlink:href="#linear-gradient-4"/><linearGradient id="linear-gradient-15" x1="412.58" y1="311.23" x2="416.7" y2="349.82" xlink:href="#linear-gradient-4"/><linearGradient id="linear-gradient-16" x1="390.74" y1="318.5" x2="394.85" y2="357.09" xlink:href="#linear-gradient-4"/><linearGradient id="linear-gradient-17" x1="396.2" y1="318.5" x2="400.32" y2="357.09" xlink:href="#linear-gradient-4"/><linearGradient id="linear-gradient-18" x1="401.66" y1="318.5" x2="405.78" y2="357.09" xlink:href="#linear-gradient-4"/><linearGradient id="linear-gradient-19" x1="407.12" y1="318.5" x2="411.24" y2="357.09" xlink:href="#linear-gradient-4"/><linearGradient id="linear-gradient-20" x1="412.58" y1="318.5" x2="416.7" y2="357.09" xlink:href="#linear-gradient-4"/><linearGradient id="linear-gradient-21" x1="371.31" y1="292.6" x2="371.31" y2="330.21" xlink:href="#linear-gradient-8"/><linearGradient id="linear-gradient-22" x1="370.4" y1="314.69" x2="371.97" y2="286.48" xlink:href="#linear-gradient-4"/><linearGradient id="linear-gradient-23" x1="369.92" y1="302.61" x2="372.85" y2="285.57" xlink:href="#linear-gradient-4"/><linearGradient id="linear-gradient-24" x1="362.54" y1="295.71" x2="383.11" y2="280.82" xlink:href="#linear-gradient-4"/><linearGradient id="linear-gradient-25" x1="360.69" y1="281" x2="384.59" y2="267.48" xlink:href="#linear-gradient-4"/><linearGradient id="linear-gradient-26" x1="371.9" y1="350" x2="372.64" y2="310.29" xlink:href="#linear-gradient-4"/><linearGradient id="linear-gradient-27" x1="358.48" y1="325.15" x2="359.8" y2="341.9" xlink:href="#linear-gradient-4"/><linearGradient id="linear-gradient-28" x1="358.48" y1="331.37" x2="359.8" y2="348.12" xlink:href="#linear-gradient-4"/><linearGradient id="linear-gradient-29" x1="365.09" y1="325.15" x2="366.41" y2="341.9" xlink:href="#linear-gradient-4"/><linearGradient id="linear-gradient-30" x1="365.09" y1="331.37" x2="366.41" y2="348.12" xlink:href="#linear-gradient-4"/><linearGradient id="linear-gradient-31" x1="371.7" y1="325.15" x2="373.02" y2="341.9" xlink:href="#linear-gradient-4"/><linearGradient id="linear-gradient-32" x1="371.7" y1="331.37" x2="373.02" y2="348.12" xlink:href="#linear-gradient-4"/><linearGradient id="linear-gradient-33" x1="378.31" y1="325.15" x2="379.64" y2="341.9" xlink:href="#linear-gradient-4"/><linearGradient id="linear-gradient-34" x1="378.31" y1="331.37" x2="379.64" y2="348.12" xlink:href="#linear-gradient-4"/><linearGradient id="linear-gradient-35" x1="384.93" y1="325.15" x2="386.25" y2="341.9" xlink:href="#linear-gradient-4"/><linearGradient id="linear-gradient-36" x1="384.93" y1="331.37" x2="386.25" y2="348.12" xlink:href="#linear-gradient-4"/><linearGradient id="linear-gradient-37" x1="491.29" y1="353.76" x2="497.17" y2="279.12" xlink:href="#linear-gradient-4"/><linearGradient id="linear-gradient-38" x1="194.73" y1="332.42" x2="197.66" y2="295.98" xlink:href="#linear-gradient-4"/><linearGradient id="linear-gradient-39" x1="192.61" y1="340.74" x2="193.2" y2="314.59" xlink:href="#linear-gradient-4"/><linearGradient id="linear-gradient-40" x1="247.99" y1="247.88" x2="447.65" y2="181.62" xlink:href="#linear-gradient-4"/><linearGradient id="linear-gradient-41" x1="197.24" y1="347.53" x2="196.06" y2="443.33" xlink:href="#linear-gradient-4"/><linearGradient id="linear-gradient-42" x1="197" y1="367.66" x2="196.39" y2="417.35" xlink:href="#linear-gradient-4"/><linearGradient id="linear-gradient-43" x1="66.96" y1="391.26" x2="54.03" y2="541.71" xlink:href="#linear-gradient-4"/><linearGradient id="linear-gradient-44" x1="339.48" y1="396.28" x2="386.27" y2="659.77" xlink:href="#linear-gradient-4"/><linearGradient id="linear-gradient-45" x1="357.9" y1="421.74" x2="400.22" y2="583.07" xlink:href="#linear-gradient-4"/><linearGradient id="linear-gradient-46" x1="323.74" y1="311.23" x2="327.85" y2="349.82" xlink:href="#linear-gradient-4"/><linearGradient id="linear-gradient-47" x1="329.2" y1="311.23" x2="333.31" y2="349.82" xlink:href="#linear-gradient-4"/><linearGradient id="linear-gradient-48" x1="334.66" y1="311.23" x2="338.78" y2="349.82" xlink:href="#linear-gradient-4"/><linearGradient id="linear-gradient-49" x1="340.12" y1="311.23" x2="344.24" y2="349.82" xlink:href="#linear-gradient-4"/><linearGradient id="linear-gradient-50" x1="345.58" y1="311.23" x2="349.7" y2="349.82" xlink:href="#linear-gradient-4"/><linearGradient id="linear-gradient-51" x1="323.74" y1="318.5" x2="327.85" y2="357.09" xlink:href="#linear-gradient-4"/><linearGradient id="linear-gradient-52" x1="329.2" y1="318.5" x2="333.31" y2="357.09" xlink:href="#linear-gradient-4"/><linearGradient id="linear-gradient-53" x1="334.66" y1="318.5" x2="338.78" y2="357.09" xlink:href="#linear-gradient-4"/><linearGradient id="linear-gradient-54" x1="340.12" y1="318.5" x2="344.24" y2="357.09" xlink:href="#linear-gradient-4"/><linearGradient id="linear-gradient-55" x1="345.58" y1="318.5" x2="349.7" y2="357.09" xlink:href="#linear-gradient-4"/></defs><title>Washington DC</title><g clip-path="url(#clip-path)"><path d="M85,152.7c18.48-15.83,39.41-28.53,58.79-43.25,17.06-13,33-27.5,51.24-38.71C259.73,31,351.36,42.29,404.46,96.63c24.17,24.73,40.12,56.14,55.69,87,23.94,47.47,48.2,95.92,56.5,148.43,2.6,16.5,3.57,33.54-.41,49.76-7.52,30.68-32.31,55-60.87,68.55s-60.67,17.48-92.24,18.85c-53.94,2.35-107.94-2.37-161.65-7.92-38.94-4-78.13-8.57-115.47-20.35-20.48-6.46-40.63-15.3-56.75-29.49C-7.14,379.43,2.85,324.79,11.2,281.57,20.75,232.11,46.61,185.58,85,152.7Z" transform="translate(46.13 -47.02)" fill="#68e1fd" opacity="0.32" style="isolation:isolate"/><path d="M551.61,208.25v0a145.55,145.55,0,0,1-4.87,24.3c-33.65,2.06-67.51-2-101.27-3.29-34.77-1.31-69.6.38-104.34-1.35-3.09-.15-6.61-.54-8.42-3.05s-1.11-6.18-2.46-9c-.74-1.55-2.07-2.81-2.42-4.48-.43-2.09.77-4.12,1.91-5.89q12-18.47,24.72-36.4c2.11-3,4.31-6,7.42-7.87s7.34-2.39,10.26-.23a6.08,6.08,0,0,1,5.75-4.53,6.71,6.71,0,0,0,2.76-.16c1-.45,1.47-1.59,2-2.55A10.08,10.08,0,0,1,395.59,150a20.35,20.35,0,0,1,16.63-7.53c7.78.37,14.69,5.2,22.39,6.42a27.94,27.94,0,0,0,11.88-.81,34.63,34.63,0,0,1,6.51-1.62,11.08,11.08,0,0,1,6,1.32,6,6,0,0,0,2.59,1,5,5,0,0,0,2.85-1.38,32.41,32.41,0,0,1,28.27-5.12,13.12,13.12,0,0,0,4.67.89c2.21-.18,4.06-1.67,5.84-3,.49-.36,1-.71,1.51-1.06h0A148.83,148.83,0,0,1,522,159C533.16,174.52,541.22,192.24,551.61,208.25Z" transform="translate(46.13 -47.02)" fill="url(#linear-gradient)"/><path d="M518.92,271.94v0a169.52,169.52,0,0,1-5.7,28.4c-39.34,2.41-78.91-2.36-118.38-3.83-40.64-1.54-81.36.44-122-1.58-3.61-.18-7.72-.64-9.84-3.57s-1.3-7.23-2.87-10.56c-.87-1.81-2.43-3.29-2.83-5.23-.51-2.44.89-4.82,2.23-6.89q14-21.58,28.9-42.55c2.47-3.45,5-7,8.67-9.2s8.58-2.8,12-.27a7.11,7.11,0,0,1,6.72-5.3,7.76,7.76,0,0,0,3.23-.19c1.17-.52,1.71-1.86,2.35-3a11.77,11.77,0,0,1,15.11-4.39A23.8,23.8,0,0,1,356,195c9.1.43,17.17,6.08,26.17,7.51a32.65,32.65,0,0,0,13.89-1c2.51-.69,5-1.69,7.61-1.88a12.85,12.85,0,0,1,7,1.54,7,7,0,0,0,3,1.22c1.25,0,2.33-.85,3.33-1.6a37.9,37.9,0,0,1,33-6c1.79.52,3.62,1.21,5.46,1,2.59-.21,4.75-1.94,6.83-3.48.58-.41,1.17-.83,1.77-1.23h0a173.27,173.27,0,0,1,20.11,23.14C497.35,232.5,506.77,253.22,518.92,271.94Z" transform="translate(46.13 -47.02)" fill="url(#linear-gradient-2)"/><path d="M178.19,241.52c-.35,1.66-1.69,2.94-2.43,4.47-1.34,2.85-.61,6.49-2.45,9s-5.33,2.89-8.42,3c-34.75,1.73-69.57,0-104.33,1.35-33.78,1.26-67.62,5.34-101.28,3.28A149.93,149.93,0,0,1-46.13,233a178.71,178.71,0,0,0,16.26-13.7C-14,203.67,1,187.16,17,171.62a32.43,32.43,0,0,1,24.55,6A4.88,4.88,0,0,0,44.41,179a5.77,5.77,0,0,0,2.6-1,10.91,10.91,0,0,1,6-1.32,35.37,35.37,0,0,1,6.53,1.6,27.55,27.55,0,0,0,11.87.82C79.1,177.81,86,173,93.8,172.6a20.34,20.34,0,0,1,16.63,7.55,10,10,0,0,1,12.92,3.74c.55,1,1,2.1,2,2.55a6.52,6.52,0,0,0,2.76.17,6.06,6.06,0,0,1,5.75,4.53c2.92-2.18,7.17-1.68,10.26.21s5.32,4.93,7.41,7.88q12.78,17.94,24.72,36.4C177.43,237.41,178.63,239.43,178.19,241.52Z" transform="translate(46.13 -47.02)" fill="url(#linear-gradient-3)"/><rect x="49.8" y="309.79" width="77.05" height="6.69" fill="#68e1fd"/><rect x="49.8" y="309.79" width="77.05" height="6.69" opacity="0.58" fill="url(#linear-gradient-4)"/><rect x="49.07" y="313.92" width="77.05" height="6.69" fill="#68e1fd"/><rect x="49.07" y="313.92" width="77.05" height="6.69" opacity="0.58" fill="url(#linear-gradient-5)"/><rect x="81.39" y="307.29" width="77.05" height="6.69" fill="#68e1fd"/><rect x="81.39" y="307.29" width="77.05" height="6.69" opacity="0.58" fill="url(#linear-gradient-6)"/><rect x="50.63" y="320.61" width="60.78" height="27.43" fill="#68e1fd"/><rect x="111.61" y="330.02" width="166.08" height="45.26" fill="#68e1fd"/><rect x="48.72" y="320.61" width="513.68" height="97.56" fill="#68e1fd"/><rect x="48.72" y="320.61" width="513.68" height="97.56" opacity="0.58" fill="url(#linear-gradient-7)"/><rect x="111.9" y="334.13" width="163.39" height="44.08" fill="#68e1fd"/><rect x="111.9" y="334.13" width="163.39" height="44.08" fill="url(#linear-gradient-8)"/><rect x="277.35" y="320.22" width="44.47" height="20.77" fill="#68e1fd"/><rect x="277.35" y="320.22" width="44.47" height="20.77" opacity="0.58" fill="url(#linear-gradient-9)"/><rect x="322.02" y="321.2" width="97.42" height="31.44" fill="#68e1fd"/><rect x="322.02" y="321.2" width="97.42" height="31.44" opacity="0.58" fill="url(#linear-gradient-10)"/><rect x="391.76" y="330.6" width="2.55" height="4.31" fill="url(#linear-gradient-11)"/><rect x="397.22" y="330.6" width="2.55" height="4.31" fill="url(#linear-gradient-12)"/><rect x="402.68" y="330.6" width="2.55" height="4.31" fill="url(#linear-gradient-13)"/><rect x="408.15" y="330.6" width="2.55" height="4.31" fill="url(#linear-gradient-14)"/><rect x="413.61" y="330.6" width="2.55" height="4.31" fill="url(#linear-gradient-15)"/><rect x="391.76" y="337.88" width="2.55" height="4.31" fill="url(#linear-gradient-16)"/><rect x="397.22" y="337.88" width="2.55" height="4.31" fill="url(#linear-gradient-17)"/><rect x="402.68" y="337.88" width="2.55" height="4.31" fill="url(#linear-gradient-18)"/><rect x="408.15" y="337.88" width="2.55" height="4.31" fill="url(#linear-gradient-19)"/><rect x="413.61" y="337.88" width="2.55" height="4.31" fill="url(#linear-gradient-20)"/><line x1="419.43" y1="321.2" x2="322.02" y2="321.2" fill="#68e1fd"/><rect x="319.67" y="323.55" width="101.24" height="1.32" fill="#68e1fd"/><rect x="319.67" y="325.71" width="101.24" height="1.32" fill="#68e1fd"/><rect x="352.95" y="303.42" width="36.73" height="18.15" fill="#68e1fd"/><rect x="352.95" y="309.22" width="36.73" height="7.45" fill="#68e1fd"/><rect x="352.95" y="309.22" width="36.73" height="7.45" fill="url(#linear-gradient-21)"/><rect x="356.4" y="295.71" width="29.68" height="7.86" fill="#68e1fd"/><rect x="356.4" y="295.71" width="29.68" height="7.86" opacity="0.58" fill="url(#linear-gradient-22)"/><polygon points="384.9 295.78 357.28 295.78 358.6 292.18 383.83 292.18 384.9 295.78" fill="#68e1fd"/><polygon points="384.9 295.78 357.28 295.78 358.6 292.18 383.83 292.18 384.9 295.78" opacity="0.58" fill="url(#linear-gradient-23)"/><path d="M369.87,280.7h2.86a11,11,0,0,1,11,11v1a0,0,0,0,1,0,0h-25a0,0,0,0,1,0,0v-.83A11.16,11.16,0,0,1,369.87,280.7Z" fill="#68e1fd"/><path d="M369.87,280.7h2.86a11,11,0,0,1,11,11v1a0,0,0,0,1,0,0h-25a0,0,0,0,1,0,0v-.83A11.16,11.16,0,0,1,369.87,280.7Z" opacity="0.58" fill="url(#linear-gradient-24)"/><rect x="366.54" y="278.79" width="9.31" height="2.79" fill="#68e1fd"/><rect x="368.35" y="271.05" width="5.83" height="7.93" fill="#68e1fd"/><rect x="368.35" y="271.05" width="5.83" height="7.93" opacity="0.58" fill="url(#linear-gradient-25)"/><polygon points="374.18 271.05 368.3 271.05 370.29 268.27 370.65 265.07 371.98 265.07 372.42 268.38 374.18 271.05" fill="#68e1fd"/><rect x="370.36" y="258.85" width="1.86" height="6.42" fill="#68e1fd"/><rect x="354.2" y="325.76" width="35.07" height="26.77" fill="#68e1fd"/><rect x="356.47" y="325.76" width="31.27" height="26.77" opacity="0.58" fill="url(#linear-gradient-26)"/><path d="M359.14,330.65h0a1.27,1.27,0,0,1,1.27,1.27v3.21a0,0,0,0,1,0,0h-2.53a0,0,0,0,1,0,0v-3.21A1.27,1.27,0,0,1,359.14,330.65Z" fill="url(#linear-gradient-27)"/><path d="M359.14,336.87h0a1.27,1.27,0,0,1,1.27,1.27v3.21a0,0,0,0,1,0,0h-2.53a0,0,0,0,1,0,0v-3.21a1.27,1.27,0,0,1,1.27-1.27Z" fill="url(#linear-gradient-28)"/><path d="M365.75,330.65h0a1.27,1.27,0,0,1,1.27,1.27v3.21a0,0,0,0,1,0,0h-2.53a0,0,0,0,1,0,0v-3.21A1.27,1.27,0,0,1,365.75,330.65Z" fill="url(#linear-gradient-29)"/><path d="M365.75,336.87h0a1.27,1.27,0,0,1,1.27,1.27v3.21a0,0,0,0,1,0,0h-2.53a0,0,0,0,1,0,0v-3.21A1.27,1.27,0,0,1,365.75,336.87Z" fill="url(#linear-gradient-30)"/><path d="M372.36,330.65h0a1.27,1.27,0,0,1,1.27,1.27v3.21a0,0,0,0,1,0,0h-2.53a0,0,0,0,1,0,0v-3.21A1.27,1.27,0,0,1,372.36,330.65Z" fill="url(#linear-gradient-31)"/><path d="M372.36,336.87h0a1.27,1.27,0,0,1,1.27,1.27v3.21a0,0,0,0,1,0,0h-2.53a0,0,0,0,1,0,0v-3.21A1.27,1.27,0,0,1,372.36,336.87Z" fill="url(#linear-gradient-32)"/><path d="M379,330.65h0a1.27,1.27,0,0,1,1.27,1.27v3.21a0,0,0,0,1,0,0h-2.53a0,0,0,0,1,0,0v-3.21A1.27,1.27,0,0,1,379,330.65Z" fill="url(#linear-gradient-33)"/><path d="M379,336.87h0a1.27,1.27,0,0,1,1.27,1.27v3.21a0,0,0,0,1,0,0h-2.53a0,0,0,0,1,0,0v-3.21A1.27,1.27,0,0,1,379,336.87Z" fill="url(#linear-gradient-34)"/><path d="M385.59,330.65h0a1.27,1.27,0,0,1,1.27,1.27v3.21a0,0,0,0,1,0,0h-2.53a0,0,0,0,1,0,0v-3.21a1.27,1.27,0,0,1,1.27-1.27Z" fill="url(#linear-gradient-35)"/><path d="M385.59,336.87h0a1.27,1.27,0,0,1,1.27,1.27v3.21a0,0,0,0,1,0,0h-2.53a0,0,0,0,1,0,0v-3.21a1.27,1.27,0,0,1,1.27-1.27Z" fill="url(#linear-gradient-36)"/><rect x="361.2" y="325.94" width="2.2" height="16.31" fill="#68e1fd"/><rect x="367.81" y="325.94" width="2.2" height="16.31" fill="#68e1fd"/><rect x="374.41" y="325.94" width="2.2" height="16.31" fill="#68e1fd"/><rect x="381.02" y="325.94" width="2.2" height="16.31" fill="#68e1fd"/><rect x="432.95" y="309.74" width="9.11" height="40.41" fill="#68e1fd"/><rect x="444.66" y="316.5" width="96.98" height="27.43" fill="#68e1fd"/><rect x="444.66" y="316.5" width="96.98" height="27.43" opacity="0.58" fill="url(#linear-gradient-37)"/><rect x="475.71" y="308.93" width="33.43" height="7.42" fill="#68e1fd"/><rect x="479.29" y="306.95" width="26.89" height="2.16" fill="#68e1fd"/><polygon points="506.17 306.95 478.99 306.95 487.86 301.07 497.31 301.07 506.17 306.95" fill="#68e1fd"/><rect x="486.73" y="299.94" width="11.31" height="1.67" fill="#68e1fd"/><rect x="488.44" y="296.76" width="8.03" height="3.97" fill="#68e1fd"/><path d="M492.35,292h0a4.33,4.33,0,0,1,4.33,4.33v.55a0,0,0,0,1,0,0H488a0,0,0,0,1,0,0v-.55A4.33,4.33,0,0,1,492.35,292Z" fill="#68e1fd"/><rect x="491.91" y="288.21" width="1.03" height="4.15" fill="#68e1fd"/><rect x="123.95" y="303.37" width="144.78" height="18.02" fill="#68e1fd"/><rect x="123.95" y="303.37" width="144.78" height="18.02" opacity="0.58" fill="url(#linear-gradient-38)"/><rect x="263.83" y="303.37" width="4.9" height="18.02" fill="#68e1fd"/><rect x="108.1" y="324.29" width="169.54" height="9.55" fill="#68e1fd"/><rect x="108.1" y="324.29" width="169.54" height="9.55" opacity="0.58" fill="url(#linear-gradient-39)"/><rect x="107.79" y="375.57" width="176.32" height="5.88" fill="#68e1fd"/><polygon points="108.11 333.84 109.41 336.63 114.7 336.63 116.09 333.69 108.11 333.84" fill="#68e1fd"/><polygon points="107.79 375.56 109.41 336.63 114.7 336.63 115.87 375.27 107.79 375.56" fill="#68e1fd"/><polygon points="120.84 333.84 122.14 336.63 127.43 336.63 128.83 333.69 120.84 333.84" fill="#68e1fd"/><polygon points="120.52 375.56 122.14 336.63 127.43 336.63 128.6 375.27 120.52 375.56" fill="#68e1fd"/><polygon points="135.92 333.84 137.23 336.63 142.51 336.63 143.91 333.69 135.92 333.84" fill="#68e1fd"/><polygon points="135.61 375.56 137.23 336.63 142.51 336.63 143.69 375.27 135.61 375.56" fill="#68e1fd"/><polygon points="150.81 333.84 152.12 336.63 157.4 336.63 158.8 333.69 150.81 333.84" fill="#68e1fd"/><polygon points="150.5 375.56 152.12 336.63 157.4 336.63 158.58 375.27 150.5 375.56" fill="#68e1fd"/><polygon points="165.7 333.84 167 336.63 172.29 336.63 173.69 333.69 165.7 333.84" fill="#68e1fd"/><polygon points="165.39 375.56 167 336.63 172.29 336.63 173.47 375.27 165.39 375.56" fill="#68e1fd"/><polygon points="180.59 333.84 181.89 336.63 187.18 336.63 188.58 333.69 180.59 333.84" fill="#68e1fd"/><polygon points="180.28 375.56 181.89 336.63 187.18 336.63 188.36 375.27 180.28 375.56" fill="#68e1fd"/><polygon points="195.48 333.84 196.78 336.63 202.07 336.63 203.47 333.69 195.48 333.84" fill="#68e1fd"/><polygon points="195.17 375.56 196.78 336.63 202.07 336.63 203.25 375.27 195.17 375.56" fill="#68e1fd"/><polygon points="210.37 333.84 211.67 336.63 216.96 336.63 218.36 333.69 210.37 333.84" fill="#68e1fd"/><polygon points="210.06 375.56 211.67 336.63 216.96 336.63 218.14 375.27 210.06 375.56" fill="#68e1fd"/><polygon points="225.26 333.84 226.56 336.63 231.85 336.63 233.25 333.69 225.26 333.84" fill="#68e1fd"/><polygon points="224.94 375.56 226.56 336.63 231.85 336.63 233.03 375.27 224.94 375.56" fill="#68e1fd"/><polygon points="240.15 333.84 241.45 336.63 246.74 336.63 248.13 333.69 240.15 333.84" fill="#68e1fd"/><polygon points="239.83 375.56 241.45 336.63 246.74 336.63 247.91 375.27 239.83 375.56" fill="#68e1fd"/><polygon points="255.04 333.84 256.34 336.63 261.63 336.63 263.02 333.69 255.04 333.84" fill="#68e1fd"/><polygon points="254.72 375.56 256.34 336.63 261.63 336.63 262.8 375.27 254.72 375.56" fill="#68e1fd"/><polygon points="269.93 333.84 271.23 336.63 276.52 336.63 277.91 333.69 269.93 333.84" fill="#68e1fd"/><polygon points="269.61 375.56 271.23 336.63 276.52 336.63 277.69 375.27 269.61 375.56" fill="#68e1fd"/><rect x="496.43" y="335.75" width="65.97" height="15.28" fill="#68e1fd"/><rect x="526.7" y="331.04" width="35.7" height="4.7" fill="#68e1fd"/><rect x="541.32" y="326.27" width="13.96" height="5" fill="#68e1fd"/><rect x="508.92" y="311.6" width="38.4" height="4.51" fill="#68e1fd"/><rect x="541.68" y="315.62" width="14.11" height="4.48" fill="#68e1fd"/><polygon points="294.2 367.24 300.86 116.08 309.82 83.17 318.3 115.49 322.21 367.44 294.2 367.24" fill="#68e1fd"/><polygon points="294.2 367.24 300.86 116.08 309.82 83.17 318.3 115.49 322.21 367.44 294.2 367.24" opacity="0.58" fill="url(#linear-gradient-40)"/><rect x="51.07" y="398.78" width="509.77" height="4.48" fill="#68e1fd"/><rect x="99.27" y="380.37" width="190.82" height="18.42" fill="#68e1fd"/><rect x="152.86" y="378.29" width="87.76" height="20.49" fill="url(#linear-gradient-41)"/><rect x="152.86" y="383.87" width="87.76" height="10.11" fill="url(#linear-gradient-42)"/><rect x="286.75" y="304.25" width="1.18" height="16.16" fill="#68e1fd"/><rect x="453.28" y="305.23" width="1.47" height="11.56" fill="#68e1fd"/><path d="M19.16,390.47c1.85-.18,3.5-1.3,5.34-1.52s3.79.52,5.64,1.05c4.24,1.21,8.7,1.3,13.11,1.38a8.24,8.24,0,0,0,4.64-.83c1.24-.79,2-2.18,3-3.25,3.18-3.4,8.55-3.14,13.18-2.62l.92,18a6.07,6.07,0,0,0,.44,2.33c1,2,4,2.61,4.4,4.78.16.81-.11,1.68.12,2.47.63,2.12,4.37,2.57,4.19,4.77a8.75,8.75,0,0,1,9.29-5.42,5.17,5.17,0,0,0,3.32,4.67,14.83,14.83,0,0,1,1.82-4.87A5,5,0,0,1,92.91,409l1.56,4.51c1.47-.83,3.34-1.66,4.75-.73s1.4,3,1.2,4.7l3.32-1c-1.15,2.39,2.54,4.41,2.93,7,.08.58,0,1.18.06,1.76a6.85,6.85,0,0,0,1.19,2.76c1.8,2.87,3.9,6,7.18,6.81l.56,2.38c1.7-1.2,4.23,0,5.17,1.84s.75,4,.53,6.11a2.59,2.59,0,0,1,2.74,2.31c-39.28-4.26-78.92-.13-118.43.17a2.39,2.39,0,0,1-1.54-.35,2.37,2.37,0,0,1-.65-1.5,103.08,103.08,0,0,1-.54-29.71c.5-4,1.23-7.91,1.51-11.9.2-2.88-.56-6.5.55-9.25C7.32,389.25,14.45,390.94,19.16,390.47Z" transform="translate(46.13 -47.02)" fill="#68e1fd"/><path d="M19.16,390.47c1.85-.18,3.5-1.3,5.34-1.52s3.79.52,5.64,1.05c4.24,1.21,8.7,1.3,13.11,1.38a8.24,8.24,0,0,0,4.64-.83c1.24-.79,2-2.18,3-3.25,3.18-3.4,8.55-3.14,13.18-2.62l.92,18a6.07,6.07,0,0,0,.44,2.33c1,2,4,2.61,4.4,4.78.16.81-.11,1.68.12,2.47.63,2.12,4.37,2.57,4.19,4.77a8.75,8.75,0,0,1,9.29-5.42,5.17,5.17,0,0,0,3.32,4.67,14.83,14.83,0,0,1,1.82-4.87A5,5,0,0,1,92.91,409l1.56,4.51c1.47-.83,3.34-1.66,4.75-.73s1.4,3,1.2,4.7l3.32-1c-1.15,2.39,2.54,4.41,2.93,7,.08.58,0,1.18.06,1.76a6.85,6.85,0,0,0,1.19,2.76c1.8,2.87,3.9,6,7.18,6.81l.56,2.38c1.7-1.2,4.23,0,5.17,1.84s.75,4,.53,6.11a2.59,2.59,0,0,1,2.74,2.31c-39.28-4.26-78.92-.13-118.43.17a2.39,2.39,0,0,1-1.54-.35,2.37,2.37,0,0,1-.65-1.5,103.08,103.08,0,0,1-.54-29.71c.5-4,1.23-7.91,1.51-11.9.2-2.88-.56-6.5.55-9.25C7.32,389.25,14.45,390.94,19.16,390.47Z" transform="translate(46.13 -47.02)" opacity="0.58" fill="url(#linear-gradient-43)"/><path d="M171.66,444.83c-1.37-2.2-2.81-4.68-2.3-7.23s4.16-4.31,5.78-2.28c.76,1,.78,2.37,1.6,3.27a3.26,3.26,0,0,0,3.81.42,9.7,9.7,0,0,0,3-2.82l-4.29-2c1.95-.4,1.07-3.32,1.2-5.31.19-2.95,3.47-4.52,6.26-5.49-2.41-1.7-.93-6.37,2-6.37A26.47,26.47,0,0,1,198.26,398a3.55,3.55,0,0,0,5.31,2.68,8.68,8.68,0,0,0,5.8,7.83c1.32-.06,1.78-1.83,1.53-3.12s-.83-2.7-.19-3.85a3.09,3.09,0,0,1,1.33-1.2,6.69,6.69,0,0,1,9.27,4.31l3.3-2.52a6.17,6.17,0,0,1-.51,6.92,6.23,6.23,0,0,1,4-.25,3.62,3.62,0,0,1-1.81,2.43,6.24,6.24,0,0,1,.2,3.57,29.59,29.59,0,0,0,1.43,13.36l3,.36,1-4.7a5.39,5.39,0,0,1,.48-1.52,5.57,5.57,0,0,1,1.51-1.59l9-7.21-2.29-3.16a37.85,37.85,0,0,1,11.56-7.17c1.32-.52,3-1.48,2.62-2.86-.47-1.85-4.24-2.34-3.37-4A5.56,5.56,0,0,0,253.6,398a1.88,1.88,0,0,0,2.38-.91l1.43,1.05a6.16,6.16,0,0,0,0-3.19l5.07.52-4.1-3.18A9.73,9.73,0,0,1,264,399.6a14,14,0,0,0,5.22-.64,7.66,7.66,0,0,0,2.82,2.57l-4.81,1a3.16,3.16,0,0,1,.43,3l5.48-3a3.37,3.37,0,0,1,1.39,2.93c1.73.45,1.86-2.44,2.74-4a5.41,5.41,0,0,1,2.36-1.9l16.57-8.84a8.82,8.82,0,0,0,7.42-3.05,27.63,27.63,0,0,0,14.69-2.81c1.22,1.1,3.1.81,4.73.62a25.09,25.09,0,0,1,14.77,2.83c1-1.09,2.29-2.16,3.78-2.17s3.09.36,3.85-.78a59.44,59.44,0,0,0,8.44.07,2.22,2.22,0,0,0,4.3-1.08,6.29,6.29,0,0,1,4,.38,2.17,2.17,0,0,1,1.82-1.49c.81-.15,1.66,0,2.48-.12,2.49-.22,4.53-2,6.89-2.84a9.1,9.1,0,0,1,7.31.65,3.35,3.35,0,0,0,2.18,2.27c1.67.53,3.43-.33,5-1.18a26.53,26.53,0,0,1,3.44-1.66,2,2,0,0,1,1.1-.21c.79.14,1.12,1.09,1.7,1.65a4.19,4.19,0,0,0,2.11.87l5.52,1.14c2.73.57,5.62,1.12,8.23.17a6.16,6.16,0,0,1,1.7-.51c2.93-.15,3.26,4.9,6,5.9,1.55.56,3.35-.38,4.89.19,1.79.66,2.82,3.18,4.72,2.95,2.23-.28,2.07-3.72,3.62-5.36,2.26-2.42,6.55.2,9.54-1.2,1.91-.9,2.85-3.25,4.82-4a7,7,0,0,1,2.63-.27l8.71.22a4.34,4.34,0,0,1,2,.38c1.41.79,1.56,2.9,2.92,3.79a4.65,4.65,0,0,0,2,.54l9.46,1.08a5.28,5.28,0,0,0,2.44-.1,8.73,8.73,0,0,0,2.12-1.53,6.67,6.67,0,0,1,7.2-.51,2.69,2.69,0,0,0-1-2.66,12.56,12.56,0,0,1,4.67,3.79,6.66,6.66,0,0,1,3.77,1.69c1.11.9,2.41,2.36,3.64,1.63l-2.55,1.65a12.46,12.46,0,0,0,1.38,4.7,2.3,2.3,0,0,0,.82,1c.91.53,2-.2,3-.54a30.55,30.55,0,0,1,3.72-.52,11.53,11.53,0,0,0,2.11-.75l12-5.17c.43,9.21,1.91,18.33,2.5,27.53s.24,18.62-2.86,27.29c-31.51,3.14-64.61,5.58-96.27,5.52-25-.06-50-.66-74.95-1.26C287.67,448,228.68,446.2,171.66,444.83Z" transform="translate(46.13 -47.02)" fill="#68e1fd"/><path d="M171.66,444.83c-1.37-2.2-2.81-4.68-2.3-7.23s4.16-4.31,5.78-2.28c.76,1,.78,2.37,1.6,3.27a3.26,3.26,0,0,0,3.81.42,9.7,9.7,0,0,0,3-2.82l-4.29-2c1.95-.4,1.07-3.32,1.2-5.31.19-2.95,3.47-4.52,6.26-5.49-2.41-1.7-.93-6.37,2-6.37A26.47,26.47,0,0,1,198.26,398a3.55,3.55,0,0,0,5.31,2.68,8.68,8.68,0,0,0,5.8,7.83c1.32-.06,1.78-1.83,1.53-3.12s-.83-2.7-.19-3.85a3.09,3.09,0,0,1,1.33-1.2,6.69,6.69,0,0,1,9.27,4.31l3.3-2.52a6.17,6.17,0,0,1-.51,6.92,6.23,6.23,0,0,1,4-.25,3.62,3.62,0,0,1-1.81,2.43,6.24,6.24,0,0,1,.2,3.57,29.59,29.59,0,0,0,1.43,13.36l3,.36,1-4.7a5.39,5.39,0,0,1,.48-1.52,5.57,5.57,0,0,1,1.51-1.59l9-7.21-2.29-3.16a37.85,37.85,0,0,1,11.56-7.17c1.32-.52,3-1.48,2.62-2.86-.47-1.85-4.24-2.34-3.37-4A5.56,5.56,0,0,0,253.6,398a1.88,1.88,0,0,0,2.38-.91l1.43,1.05a6.16,6.16,0,0,0,0-3.19l5.07.52-4.1-3.18A9.73,9.73,0,0,1,264,399.6a14,14,0,0,0,5.22-.64,7.66,7.66,0,0,0,2.82,2.57l-4.81,1a3.16,3.16,0,0,1,.43,3l5.48-3a3.37,3.37,0,0,1,1.39,2.93c1.73.45,1.86-2.44,2.74-4a5.41,5.41,0,0,1,2.36-1.9l16.57-8.84a8.82,8.82,0,0,0,7.42-3.05,27.63,27.63,0,0,0,14.69-2.81c1.22,1.1,3.1.81,4.73.62a25.09,25.09,0,0,1,14.77,2.83c1-1.09,2.29-2.16,3.78-2.17s3.09.36,3.85-.78a59.44,59.44,0,0,0,8.44.07,2.22,2.22,0,0,0,4.3-1.08,6.29,6.29,0,0,1,4,.38,2.17,2.17,0,0,1,1.82-1.49c.81-.15,1.66,0,2.48-.12,2.49-.22,4.53-2,6.89-2.84a9.1,9.1,0,0,1,7.31.65,3.35,3.35,0,0,0,2.18,2.27c1.67.53,3.43-.33,5-1.18a26.53,26.53,0,0,1,3.44-1.66,2,2,0,0,1,1.1-.21c.79.14,1.12,1.09,1.7,1.65a4.19,4.19,0,0,0,2.11.87l5.52,1.14c2.73.57,5.62,1.12,8.23.17a6.16,6.16,0,0,1,1.7-.51c2.93-.15,3.26,4.9,6,5.9,1.55.56,3.35-.38,4.89.19,1.79.66,2.82,3.18,4.72,2.95,2.23-.28,2.07-3.72,3.62-5.36,2.26-2.42,6.55.2,9.54-1.2,1.91-.9,2.85-3.25,4.82-4a7,7,0,0,1,2.63-.27l8.71.22a4.34,4.34,0,0,1,2,.38c1.41.79,1.56,2.9,2.92,3.79a4.65,4.65,0,0,0,2,.54l9.46,1.08a5.28,5.28,0,0,0,2.44-.1,8.73,8.73,0,0,0,2.12-1.53,6.67,6.67,0,0,1,7.2-.51,2.69,2.69,0,0,0-1-2.66,12.56,12.56,0,0,1,4.67,3.79,6.66,6.66,0,0,1,3.77,1.69c1.11.9,2.41,2.36,3.64,1.63l-2.55,1.65a12.46,12.46,0,0,0,1.38,4.7,2.3,2.3,0,0,0,.82,1c.91.53,2-.2,3-.54a30.55,30.55,0,0,1,3.72-.52,11.53,11.53,0,0,0,2.11-.75l12-5.17c.43,9.21,1.91,18.33,2.5,27.53s-.95,23.75-4,32.42c-31.51,3.14-63.42.45-95.08.39-25-.06-50-.66-74.95-1.26C287.67,448,228.68,446.2,171.66,444.83Z" transform="translate(46.13 -47.02)" opacity="0.58" fill="url(#linear-gradient-44)"/><path d="M144.63,458.45c1.06,1.73,2.8,3.72,4.71,3,1.72-.64,1.65-3.66-.1-4.21a5.28,5.28,0,0,1,2.93,1.61,5.74,5.74,0,0,1-1.5-3.63,4.51,4.51,0,0,1,4.8,3.52,2.79,2.79,0,0,0,2.85-3,4.36,4.36,0,0,1,.54,3.55,3.82,3.82,0,0,0,4.18-3.59,6.71,6.71,0,0,1,1.26,3.89c.43-.72.94-1.51,1.75-1.7s1.81.73,1.33,1.42a3.32,3.32,0,0,0,2.7-2.25c1.83,1.16,2.72,3.35,4.3,4.82s4.8,1.68,5.39-.4a3.32,3.32,0,0,1,1.82,2.48l5.63-1.66a1.3,1.3,0,0,1,1.11,0c.31.22.38.66.66.92.74.66,1.68-.48,2.32-1.24a3.78,3.78,0,0,1,4.63-.81c.63.36,1.14.9,1.77,1.27,1.54.88,3.45.58,5.21.4a30.37,30.37,0,0,1,10.74.83q-33.85,1.9-67.78,1.15C144.16,464.81,143.52,460,144.63,458.45Z" transform="translate(46.13 -47.02)" fill="#68e1fd"/><path d="M221,464.61a8.07,8.07,0,0,1,2-4.87,3.45,3.45,0,0,0,5.6-.91c.26-.7.28-1.47.57-2.15,1.27-2.95,5.67-1.92,8.51-.41a6.17,6.17,0,0,1,6.38-6.73c-2.13-.68-1.91-4.12-.07-5.4s4.3-1,6.51-.69l6.63,1a6.51,6.51,0,0,0,2.88,0,10.85,10.85,0,0,0,2.67-1.67c5.46-3.63,13,.6,19.29-1.31,1.48-.45,2.88-1.25,4.42-1.29,2.75-.07,4.91,2.18,7.19,3.71a31.28,31.28,0,0,0,8.22,3.48c9.33,2.92,19.52,5.83,28.67,2.38a37.44,37.44,0,0,0,16.86,1.86c5-.61,9.85-2.22,14.87-2.32A25,25,0,0,1,374,452c1.47.75,3,1.67,4.64,1.39,2.73-.48,4.73-4.21,7.31-3.21.76.29,1.34,1,2.13,1.14a4,4,0,0,0,2-.3,17.74,17.74,0,0,1,12,.54c2.1.89,4,2.23,6.3,2.62s5-.62,5.51-2.84a3.2,3.2,0,0,1,.43,3.64l2.36-1.15,0,2.22,5.27,1.81c4.35-6,14.68-6.38,19.5-.73l2.17-3.6a3.46,3.46,0,0,1,2.65,4.21,6.79,6.79,0,0,1,7.28,1.66l.17-5.16a6.7,6.7,0,0,1,6.54,4.42c1.91-4.77,8-6,13.11-6.49l18.95-1.91c1.84-.18,4-.23,5.17,1.22,1.47,1.87.38,5.31,2.46,6.48a4.29,4.29,0,0,0,2.41.32l13-.82c.6,1.92,2.06,6.08.92,7.75-92.29-1.1-186.9,3.82-278.63.64C231.88,465.64,226.7,465.21,221,464.61Z" transform="translate(46.13 -47.02)" fill="#68e1fd"/><g opacity="0.58"><path d="M221,464.61a8.07,8.07,0,0,1,2-4.87,3.45,3.45,0,0,0,5.6-.91c.26-.7.28-1.47.57-2.15,1.27-2.95,5.67-1.92,8.51-.41a6.17,6.17,0,0,1,6.38-6.73c-2.13-.68-1.91-4.12-.07-5.4s4.3-1,6.51-.69l6.63,1a6.51,6.51,0,0,0,2.88,0,10.85,10.85,0,0,0,2.67-1.67c5.46-3.63,13,.6,19.29-1.31,1.48-.45,2.88-1.25,4.42-1.29,2.75-.07,4.91,2.18,7.19,3.71a31.28,31.28,0,0,0,8.22,3.48c9.33,2.92,19.52,5.83,28.67,2.38a37.44,37.44,0,0,0,16.86,1.86c5-.61,9.85-2.22,14.87-2.32A25,25,0,0,1,374,452c1.47.75,3,1.67,4.64,1.39,2.73-.48,4.73-4.21,7.31-3.21.76.29,1.34,1,2.13,1.14a4,4,0,0,0,2-.3,17.74,17.74,0,0,1,12,.54c2.1.89,4,2.23,6.3,2.62s5-.62,5.51-2.84a3.2,3.2,0,0,1,.43,3.64l2.36-1.15,0,2.22,5.27,1.81c4.35-6,14.68-6.38,19.5-.73l2.17-3.6a3.46,3.46,0,0,1,2.65,4.21,6.79,6.79,0,0,1,7.28,1.66l.17-5.16a6.7,6.7,0,0,1,6.54,4.42c1.91-4.77,8-6,13.11-6.49l18.95-1.91c1.84-.18,4-.23,5.17,1.22,1.47,1.87.38,5.31,2.46,6.48a4.29,4.29,0,0,0,2.41.32l13-.82c.6,1.92,2.06,6.08.92,7.75-92.29-1.1-186.9,3.82-278.63.64C231.88,465.64,226.7,465.21,221,464.61Z" transform="translate(46.13 -47.02)" fill="url(#linear-gradient-45)"/></g><rect x="105.34" y="320.42" width="174.14" height="6.27" fill="#68e1fd"/><rect x="105.34" y="332.45" width="174.14" height="1.58" fill="#68e1fd"/><rect x="108.48" y="306.02" width="9.4" height="1.27" fill="#68e1fd"/><rect x="112.05" y="300.56" width="0.51" height="5.73" fill="#68e1fd"/><rect x="354.64" y="308.86" width="1.57" height="7.93" fill="#68e1fd"/><rect x="358.6" y="308.86" width="1.57" height="7.93" fill="#68e1fd"/><rect x="362.57" y="308.86" width="1.57" height="7.93" fill="#68e1fd"/><rect x="366.54" y="308.86" width="1.57" height="7.93" fill="#68e1fd"/><rect x="370.51" y="308.86" width="1.57" height="7.93" fill="#68e1fd"/><rect x="374.47" y="308.86" width="1.57" height="7.93" fill="#68e1fd"/><rect x="378.44" y="308.86" width="1.57" height="7.93" fill="#68e1fd"/><rect x="382.41" y="308.86" width="1.57" height="7.93" fill="#68e1fd"/><rect x="386.37" y="308.86" width="1.57" height="7.93" fill="#68e1fd"/><rect x="324.76" y="330.6" width="2.55" height="4.31" fill="url(#linear-gradient-46)"/><rect x="330.22" y="330.6" width="2.55" height="4.31" fill="url(#linear-gradient-47)"/><rect x="335.68" y="330.6" width="2.55" height="4.31" fill="url(#linear-gradient-48)"/><rect x="341.14" y="330.6" width="2.55" height="4.31" fill="url(#linear-gradient-49)"/><rect x="346.6" y="330.6" width="2.55" height="4.31" fill="url(#linear-gradient-50)"/><rect x="324.76" y="337.88" width="2.55" height="4.31" fill="url(#linear-gradient-51)"/><rect x="330.22" y="337.88" width="2.55" height="4.31" fill="url(#linear-gradient-52)"/><rect x="335.68" y="337.88" width="2.55" height="4.31" fill="url(#linear-gradient-53)"/><rect x="341.14" y="337.88" width="2.55" height="4.31" fill="url(#linear-gradient-54)"/><rect x="346.6" y="337.88" width="2.55" height="4.31" fill="url(#linear-gradient-55)"/><polygon points="300.86 116.08 318.3 116.08 309.82 83.17 300.86 116.08" fill="#68e1fd"/></g></svg>