<svg id="Layer_1" data-name="Layer 1" xmlns="http://www.w3.org/2000/svg" xmlns:xlink="http://www.w3.org/1999/xlink" viewBox="0 0 416.43 258.91"><defs><linearGradient id="linear-gradient" x1="212.75" y1="-103.32" x2="199.44" y2="782.22" gradientUnits="userSpaceOnUse"><stop offset="0" stop-opacity="0"/><stop offset="0.99"/></linearGradient><linearGradient id="linear-gradient-2" x1="391.94" y1="14.31" x2="-268.33" y2="323.92" xlink:href="#linear-gradient"/><linearGradient id="linear-gradient-3" x1="131.3" y1="169.15" x2="379.88" y2="49.3" xlink:href="#linear-gradient"/></defs><title>World Map 2</title><path d="M411.13,259.93a67.1,67.1,0,0,1-20.29,24.28,55.75,55.75,0,0,1-7.43,4.63c-18.69,9.78-40.82,9.07-61.86,10.07-25.94,1.24-51.63,5.42-77.51,7.55-11.53,1-23.21,1.46-34.62-.45-12.75-2.15-24.79-7.27-37.31-10.47-15.86-4-32.35-4.88-48.69-4.41-11.69.35-24.79.91-33.42-7-1.7-1.53-3.19-3.39-5.24-4.35s-4.67-1-7.06-.91L52,279.72c-4.37.14-8.9.24-13.34-.06-7.43-.47-14.6-2.07-20.49-6.42-.38-.28-.75-.58-1.12-.91-9.92-8.16-12.77-22.52-12-35.49,2.51-42.53,35.75-78.29,74.36-96.33S161.51,118.9,204,115.57c52.77-4.16,107.64-13.25,160.55-12.52,19.47.28,24.83,11.29,32.39,27.79,9.46,20.59,23.45,46.64,23.45,69.88C423.05,220.62,420.16,242.3,411.13,259.93Z" transform="translate(-4.91 -48.39)" fill="#68e1fd" opacity="0.18" style="isolation:isolate"/><rect x="36.29" width="346.23" height="238.59" fill="#68e1fd"/><rect x="36.29" width="346.23" height="238.59" fill="url(#linear-gradient)"/><rect x="45.48" y="7.18" width="327.86" height="222.76" fill="#68e1fd"/><path d="M53,268.7a2.09,2.09,0,0,0,1.39.65c.53.08,1,.21,1.58.3a9.15,9.15,0,0,0,4.13.2,1,1,0,0,1,.81.26,3.35,3.35,0,0,0,2,.76c.92.06,1.82.31,2.74.41,1.89.22,3.79.42,5.7.57a7,7,0,0,0,2.85-.08.88.88,0,0,1,.36,0c.58,0,1.17.08,1.75.05s.62-.08.84.67a2.74,2.74,0,0,1,2.37.11,2.36,2.36,0,0,0,1.12.09,1.55,1.55,0,0,1,1.27.25,1.8,1.8,0,0,0,1.6.36,1.26,1.26,0,0,1,.61,0,16.65,16.65,0,0,0,5.27.2,12,12,0,0,1,1.32.12l2.22.17-.29-1.56-.54-.15c-1.2-.35-2.4-.69-3.6-1.07a2.74,2.74,0,0,1-1.63-1.45,2.57,2.57,0,0,0-1.26-1.34c-.1,0-.18-.15-.28-.22a1.11,1.11,0,0,1-.52-1.16,1.16,1.16,0,0,1,1-.84c1.3-.22,2.59-.46,3.88-.72.69-.14,1.37-.34,2.07-.53-1.24-1.21-2.55-1.47-3.79-.65a2.52,2.52,0,0,1-.67.17,1.91,1.91,0,0,1-.11-.43c.1-.63-.19-.95-.74-1.26a4.54,4.54,0,0,0-1.71-.6A3.44,3.44,0,0,1,83,261l1.86-.08,0-.14c-.25-.06-.5-.13-.75-.17s-.67-.09-.81-.56c-.09-.29-.47-.5-.76-.78l.09-.8a26.85,26.85,0,0,1,2.84,0,3.78,3.78,0,0,1,1.45.62,3.27,3.27,0,0,0,2.8.55,2.46,2.46,0,0,0,.77-.4.71.71,0,0,1,.8-.19h0c.08.07.17.21.23.2.54-.14,1.08-.31,1.73-.5-.06-.32-.14-.66-.19-1-.08-.56.06-.78.59-1,.34-.16.67-.38,1-.54a1.3,1.3,0,0,1,.67-.18,5.74,5.74,0,0,0,2.1-.29c.43-.1.89-.13,1.31-.25a4.79,4.79,0,0,0,1.42-.5,2.57,2.57,0,0,1,3-.07c.56.35,1.16.63,1.69,1,1.89,1.32,3.1.66,4.33-1,.56-.73,1-1.57,1.6-2.24.43-.47.88-.94,1.33-1.4a2.54,2.54,0,0,1,2.81-.58c1.12.4,2.2.94,3.3,1.41a24.67,24.67,0,0,0,5.28,1.35,3.27,3.27,0,0,0,2.77-1.18,9.87,9.87,0,0,1,1.63-1.48,2.43,2.43,0,0,1,1.54-.17c.61.1,1,0,1.22-.57a4.44,4.44,0,0,1,.64-.79,3.3,3.3,0,0,0,.69.11.78.78,0,0,1,.86.73,1.1,1.1,0,0,0,1.17,1.1c.16,0,.31.17.48.22.42.13.85.25,1.28.34s.65.07,1,.1c1.54.14,3.08.31,4.63.4.49,0,1-.18,1.49-.2a7.13,7.13,0,0,1,2.07.12,5,5,0,0,0,1.66.24c.35,0,.7,0,1,0a3.8,3.8,0,0,1,.4-.59,4.5,4.5,0,0,1,.65-.5c.15,0,.47,0,.64.21a4.17,4.17,0,0,0,2.2.77c.37.1.86.14,1.05.4.4.53.84.34,1.28.26.64-.13,1.26-.35,1.9-.49a1.51,1.51,0,0,0,1.2-1c.08-.21.26-.39.36-.59s.23-.51.33-.73a4.47,4.47,0,0,1-1.56-3.56,3.3,3.3,0,0,0,.65-.21c.13-.08.28-.28.26-.39-.06-.27.06-.37.24-.51a.43.43,0,0,0,.12-.39c-.27-.48.06-.86.24-1.32l-.72-.29.06-1.06.78.71.31-1c.19-.12.68,0,.5-.48,0-.06.23-.23.38-.31.32-.16.66-.3,1-.46.1-.05.26-.13.27-.21.12-.71.8-.69,1.25-1a4.53,4.53,0,0,0,.83-.49c.76-.77,1.86-1,2.71-1.58a.48.48,0,0,1,.74.08c-.6.39-1.38.56-1.49,1.46a.83.83,0,0,0-1.05.23,12.28,12.28,0,0,1-1.2,1l-.77,1.83-.64-.59-.39.93a1.65,1.65,0,0,0-1.37,1.78,3.28,3.28,0,0,0,.78,1.06,1.1,1.1,0,0,0,.57-.11,5.46,5.46,0,0,0,.59-.56,3.54,3.54,0,0,0,.67,2c.13.15,0,.5,0,.86l.46.26-.11.46a3.46,3.46,0,0,1,.58.39c.13.14.3.45.25.51-.31.36.2.51.18.78l-.75.51.72.19-.15,1.41.64,0,.07.14-.75.59c0,.25.57.67-.16.84l.27.76c-.47.19-.81.94-1.61.66-.13.67-.11.64.48.77.29.07.7.25.77.48.16.44.49.47.82.57.77.22,1.45.46,1.49,1.49,0,.58.57.88,1.07,1.1a5.81,5.81,0,0,0,3.21.62,5.9,5.9,0,0,1,1.85.22,19.2,19.2,0,0,0,3.78.68,18.68,18.68,0,0,1,2.29.41,2.47,2.47,0,0,0,1,0,4,4,0,0,1,2.46,0,2.9,2.9,0,0,0,.7.14,1.06,1.06,0,0,0,1-.4,4.81,4.81,0,0,1,1.14-.82c.1-.07.27-.08.31-.17.57-1.1,1.7-.85,2.62-1.09.14,0,.31,0,.41-.07a8.43,8.43,0,0,1,3.25-1.18,3.52,3.52,0,0,0,.74-.32l-.36-.85a7.94,7.94,0,0,1,2.33-1.16l.12-.64-2-.74c.13-.18.2-.37.31-.39.85-.17,1.75-.63,2.54,0a2.49,2.49,0,0,0,1.51.53l.09-.88.59-.07c-.27-.79.76-.65.84-1.31l1.39.55c.51-.74,1.32-.71,2.08-.8a4,4,0,0,0,2.48-.88,1.51,1.51,0,0,0,.4-.65c.16-.59.39-.82,1-.77a5.23,5.23,0,0,1,1.31.24,1,1,0,0,0,.84,0c.68-.25.69-.23.53-1a3.15,3.15,0,0,1,.87,0,1.09,1.09,0,0,0,1.51-.73c.79.23,1.52-.32,2.31,0,.08,0,.33-.21.41-.37a.65.65,0,0,1,1.12-.67c1,1.28,2.4,1.36,3.82,1.48a.36.36,0,0,0,.29-.12,1.61,1.61,0,0,1,1.81-.33c.64.24,1.33.24,1.94.53a.76.76,0,0,0,.33.13c.76,0,1.52-.1,2.29-.16l1-1.51,1.11.71a2.55,2.55,0,0,1,2.13.19,4.91,4.91,0,0,0,1.25.45c.61.16,1.3,0,1.86.46a.46.46,0,0,0,.35,0c.64-.19,1.26-.45,1.91-.59a3.4,3.4,0,0,1,1.31,0,1.67,1.67,0,0,0,1.78-.53.86.86,0,0,1,.43-.27A6.55,6.55,0,0,0,239,246c.62-.54.82-.5,1.22.24.24.45.45.94,1,1a1.32,1.32,0,0,0,.79,0,1.17,1.17,0,0,1,1.58.5l.2.24a2.25,2.25,0,0,0,.94-1.47.52.52,0,0,1,.14-.32c1-1,1.87-2,3.36-2.18.56-.07,1.09-.3,1.64-.37a5.65,5.65,0,0,1,1.59,0,3.36,3.36,0,0,1,.95.52,2.39,2.39,0,0,0,.17-.56,2,2,0,0,1,1.51-1.87,1.58,1.58,0,0,0,.47-.23,2.85,2.85,0,0,1,2.53-.53,4.59,4.59,0,0,1,2,1.25l.09.3-.83.32.14.24a2.79,2.79,0,0,1,2,.54.2.2,0,0,0,.17,0,4.92,4.92,0,0,1,2.61.17.5.5,0,0,0,.34-.07,2.86,2.86,0,0,1,2.09-.15c.77.14,1.53.3,2.29.41a5.92,5.92,0,0,0,.94,0l.58,1.87,2-.26a5.88,5.88,0,0,1,1,2c.3-.14.62-.31,1-.46s.77-.29,1.15-.46,1-.22,1.14-1a1.2,1.2,0,0,1,.94-.87,5.93,5.93,0,0,0,1.08-.43c.16-.07.4-.14.45-.27.27-.64.87-.79,1.41-1,.95-.41,1.91-.79,2.87-1.18a.82.82,0,0,1,.44,0c.63.16,1.25.35,1.89.51a1.88,1.88,0,0,0,.87.09,3.59,3.59,0,0,1,1.84-.08c.28.05.72.24,1-.21,0-.06.24-.08.32,0a2.92,2.92,0,0,0,1.75.18c.34,0,.69.1,1,.14.12,0,.29.07.34,0,.4-.44.78-.22,1.2,0a2,2,0,0,0,.61.07l2.57.23a6.41,6.41,0,0,0,1,0,31.18,31.18,0,0,0,3.2-.45,7.8,7.8,0,0,0,2-.83,1.69,1.69,0,0,1,1.25-.23,12.87,12.87,0,0,1,2.58.88,18.18,18.18,0,0,0,2.23.56,8.84,8.84,0,0,1,1.16.41,5.44,5.44,0,0,0,3.71.5,15.68,15.68,0,0,0,1.9-.76c.59-.26,1.14-.71,1.85-.32a.48.48,0,0,0,.26,0c.8-.21,1.61-.41,2.4-.66a3.28,3.28,0,0,1,3.15.4,1.19,1.19,0,0,0,1.07.26,8.74,8.74,0,0,1,3.17.38,3.7,3.7,0,0,0,1.4.07,1.75,1.75,0,0,1,1.54.39,2,2,0,0,0,1.7.61,1.23,1.23,0,0,1,1.14.56c.25.28.46.65,1,.42.12-.06.33.08.49.14s.28.21.4.19c1.08-.17,1.84.62,2.78.89.08,0,.17.12.24.1.89-.19,1.66.36,2.51.41a3.62,3.62,0,0,0,.8,0,1.79,1.79,0,0,1,1.84.82,12.8,12.8,0,0,0,1.09,1l.76-1,.21,0,.28,1.08a2.18,2.18,0,0,0,1.61,0,1.1,1.1,0,0,1,1,.14c.7.43,1.48.73,2.22,1.1.18.09.33.25.52.33a3,3,0,0,0,.86.21c.33.26.31.56.15,1a1.92,1.92,0,0,1-2,1.38,7.37,7.37,0,0,0-1,.12c-.15.55-.27,1-.42,1.52a.51.51,0,0,1-.3.31c-.62.19-1.25.34-2,.53-.37.31-.45,1-1,1.31-.24.13-.24.74-.27,1.14a6.6,6.6,0,0,0,.15.87,4.85,4.85,0,0,1-.07.77l.5.1a6.47,6.47,0,0,0,.44.82c.14.18.21.47.62.36.15-.05.64.4.61.49-.21.55.37.61.63,1.07-.46-.11-.77-.17-1.07-.26-.11,0-.22-.16-.31-.15-1,.16-2.15,0-3.05.68a7.54,7.54,0,0,0-.83.86c.64,1,.41,2,.59,3.08a3.79,3.79,0,0,0,1.61.78c.47,0,.61.5.63,1a4,4,0,0,1,2.65,1.36,1.28,1.28,0,0,0,.63.3c1.22.26,2.46.44,3.67.74a6,6,0,0,0,2.85-.12,2.73,2.73,0,0,0,2.06.86c.71.06,1.4.25,2.11.35,1.29.18,2.59.32,3.89.49.77.1,1.53.25,2.3.33a10.43,10.43,0,0,0,1.25,0,7.92,7.92,0,0,1,2.57,0,3,3,0,0,0,1.16,0c.52-.07.89,0,1,.66a2.66,2.66,0,0,1,2.19.16,1.87,1.87,0,0,0,1.12.15,1.37,1.37,0,0,1,1.23.27v2.44H53Zm40-3.72,0-.19-.4,0Z" transform="translate(-4.91 -48.39)" fill="#fff"/><path d="M66.25,90.52a5.6,5.6,0,0,1-.27.55,1.54,1.54,0,0,1-2,.69c-.31-.11-.6-.27-1,.06l.61.2-.09.28c.24.16.61.27.66.47.17.67,1,1.14.59,2.09a3.83,3.83,0,0,1-.83-.07,2.15,2.15,0,0,0-1.85.24,5.77,5.77,0,0,1-.56.27,9,9,0,0,0-2.88,1.77A10.39,10.39,0,0,0,58,98c-.49-.22-1-.44-1.55-.69a.77.77,0,0,0-1.12.25,2.67,2.67,0,0,1-2.32,1v-16h.95a1.11,1.11,0,0,0,.43,1.1c.75.48.94.54,1.64.34l.75,1.44a1.88,1.88,0,0,0,1.73-.85L58,83.2a2.54,2.54,0,0,1,.6,0,7.6,7.6,0,0,0,2.73.15,1.55,1.55,0,0,1,1.27.54,1.42,1.42,0,0,0,1,.38,1.86,1.86,0,0,1,1.7.74A3.55,3.55,0,0,0,66.62,86,12.52,12.52,0,0,1,67.9,87a7.19,7.19,0,0,0,.83.52,1.58,1.58,0,0,1,1.09,1.7.8.8,0,0,1,1-.62A3.72,3.72,0,0,1,72,89a13.36,13.36,0,0,1,1.47,1.16c-.36.72-.38.73-1.68.79.52.65-.38,1-.27,1.51A1.77,1.77,0,0,1,70.08,92c-.16-.16-.56-.09-.89-.13-.06-.16-.15-.35-.21-.54-.26-.83-.73-1.08-1.45-.61-.56.37-.87-.11-1.3-.2.15-.27.52-.54,0-.86C65.81,90.23,65.81,90.23,66.25,90.52Z" transform="translate(-4.91 -48.39)" fill="#fff"/><path d="M53,248.38c1.14.16,2,1,3,1.36.31.11.61.28,1,.45a1.47,1.47,0,0,1-.55,1.59,3.64,3.64,0,0,1-2.53.52,2.4,2.4,0,0,1-.19,1.56.61.61,0,0,1-.75.45Z" transform="translate(-4.91 -48.39)" fill="#fff"/><path d="M53,187.61l1.22.74-.08.17L53,188.15Z" transform="translate(-4.91 -48.39)" fill="#fff"/><path d="M248.42,153.08c-.06.36-.13.73-.2,1.21.06.11.19.34.33.56.35.52.58.59,1.2.46a6.26,6.26,0,0,1,.87-.05,2.06,2.06,0,0,0,.75-.1,4.15,4.15,0,0,1,1.84-.54,4.85,4.85,0,0,0,1.41-.49,7.49,7.49,0,0,1-.69,3.47c-.28.6-.54,1.19-.8,1.79a12.18,12.18,0,0,1-1,2.27,11.28,11.28,0,0,1-2.6,2.83,7.15,7.15,0,0,0-2.45,3.12,5.07,5.07,0,0,1-1.09,1.33,3.56,3.56,0,0,0-.69,1c-.25.63-.35,1.31-.58,1.94A1,1,0,0,0,245,173c.36.31.28.63.21,1a2.46,2.46,0,0,0,.47,2.34.91.91,0,0,1,.26.56c.08,1,.16,1.9.18,2.85a11.08,11.08,0,0,1-.09,2,2.62,2.62,0,0,1-1.26,1.77,24.33,24.33,0,0,1-2.3,1.11,7.7,7.7,0,0,1-1,1.32.94.94,0,0,0-.29,1.18,12,12,0,0,1,.65,3.56.81.81,0,0,1-.55.83c-.34.18-.72.3-1.06.47s-.56.32-.81.47a3.2,3.2,0,0,1,.06,2.11,2,2,0,0,0-.14,1.11A3.88,3.88,0,0,0,238,197.2a16.94,16.94,0,0,1-1.72,2.27c-.09.11-.24.18-.32.3a3.69,3.69,0,0,1-2.94,1.56,14.13,14.13,0,0,0-2.57.24c-.27.08-.6,0-.9.17a1,1,0,0,1-1.33,0,1.76,1.76,0,0,0-.62-.18,4.18,4.18,0,0,1-.3-1c0-.28-.22-.56.12-.9a1.4,1.4,0,0,0,.06-1.18c-.34-1-.8-2-1.21-2.95-.06-.14-.1-.34-.21-.39-.75-.34-.82-1.1-.95-1.74a24.7,24.7,0,0,1-.41-3.43,5,5,0,0,0-.87-2.7,1.9,1.9,0,0,1-.33-.91,2.16,2.16,0,0,0-.65-1.41c-.1-.12-.29-.22-.29-.33a8.82,8.82,0,0,1,.09-2.9c.17-.44.28-.9.45-1.33a6.47,6.47,0,0,1,.65-1.44,2.5,2.5,0,0,0,.22-2.38,3.07,3.07,0,0,1-.19-1.39,3.33,3.33,0,0,0-.17-1.72c-.28-.84-.56-1.67-.85-2.5a2.3,2.3,0,0,0-.35-.63c-.49-.62-1-1.2-1.5-1.83-.33-.45-.58-.95-.87-1.42a4.79,4.79,0,0,0,.54-2.19,13.47,13.47,0,0,1,.31-1.66,1.64,1.64,0,0,0-1.31-1.93c-.22-.05-.35-.09-.55.07a1.61,1.61,0,0,1-.67.22c-.51.11-1.08-.22-1-.71.16-.8-.42-1-.86-1.26a1.64,1.64,0,0,0-1.77,0c-.64.5-1.42.44-2.09.76a19.9,19.9,0,0,1-2,.63,1.48,1.48,0,0,1-1.13,0,1.77,1.77,0,0,0-2,.2c-.89.71-1.7.51-2.56-.45a10.88,10.88,0,0,0-2.1-1.84c-.63-.42-.78-1.19-1.08-1.84a6.55,6.55,0,0,0-1.49-2.62c-.29-.25-.47-.64-.82-.89a1.14,1.14,0,0,1-.27-.64c-.16-.63-.28-1.26-.42-1.9a6.83,6.83,0,0,0,.57-4.54,1.35,1.35,0,0,1,0-.45,2.11,2.11,0,0,0-.26-1.45,1.25,1.25,0,0,1,.1-1.26c.63-1.21,1.15-2.48,1.82-3.66a5.32,5.32,0,0,1,1.54-2,6.2,6.2,0,0,0,2.13-2.13,1.8,1.8,0,0,0,.19-1.38,2.67,2.67,0,0,1,1.39-2.95,2.52,2.52,0,0,0,1.49-1.68c.13-.41.16-.9.73-1.11.29.8.95.74,1.61.67.28,0,.54-.18.85,0a.69.69,0,0,0,.66-.13c.4-.53,1-.56,1.54-.84l1-.52a1.43,1.43,0,0,1,.41-.17l2.66-.1h.36c.34,0,.75-.17,1,0s.63-.35,1-.07a.46.46,0,0,0,.35,0,2.22,2.22,0,0,1,2.25.34c0-.08,0,0,0,0a1.77,1.77,0,0,0-.27,1.57,1.27,1.27,0,0,1-.33,1.06c-.29.36-.26.64.18.86.18.09.3.29.47.39a2.5,2.5,0,0,0,.92.49,3.1,3.1,0,0,1,2.39,1.19c.51.65,1.27.72,1.95,1a10.18,10.18,0,0,0,1.21.3c.82-.61.84-.66.43-1.51a7.39,7.39,0,0,1,.59-.71,1.36,1.36,0,0,1,1.86,0,4.43,4.43,0,0,0,1.25.52,19.38,19.38,0,0,0,2.68,1,4.7,4.7,0,0,0,3.07-.15c.1,0,.29-.1.31-.06.4.54,1,.14,1.42.2.82.09,1.13-.31,1.45-1.37.2-.65.45-1.28.61-1.94a3.62,3.62,0,0,0,0-1c0-.58-.08-1.15-.13-1.81l-1.29.63a1.4,1.4,0,0,1-1.6-.06,5.26,5.26,0,0,0-1-.5l-.83.88-2.14-1.46c-.16-.75-.16-.75-.57-1,.09-.29.19-.56.25-.83s0-.58-.37-.7c-.09,0-.17-.33-.12-.46.17-.46-.11-.78-.26-1.12H232.4l.41.6-.63.35-.45-.48c-.08.18-.21.32-.18.43s.23.41.3.64a2.88,2.88,0,0,1,.08.65,3.49,3.49,0,0,1,1.31,1.13l-.51-.13c-.13.2,0,.81-.57.35,0,.23,0,.52-.1.55-.44.19-.86.54-1.46.24.28-.36-.63-.87.28-1.25l-.44-.1a10.67,10.67,0,0,0-1.13-1.87,1.44,1.44,0,0,1-.4-1.52,3.24,3.24,0,0,0,0-.7c-1-.49-1.9-1.38-3-1.85-.67-.28-.79-1-1-1.54a2.94,2.94,0,0,1-.06-.56l-.8.84-.24-1.23-.74.22a6.78,6.78,0,0,1-.22.91c-.15.39-.14.72.3.88a2,2,0,0,1,1.06,1.14c.28.61.62,1.17,1.41,1.22.08,0,.22,0,.24.09.23.84,1.19.83,1.62,1.44.15.2.31.34.18.64l-1-.51a.65.65,0,0,0-.22,1c.41.69,0,1.56-.93,2,.08-.32.15-.56.21-.8.14-.69.2-1.34-.55-1.79-.31-.19-.5-.58-.78-.83a2,2,0,0,0-.68-.38,3.91,3.91,0,0,1-1.91-1.79,3.07,3.07,0,0,1-.29-.75,1.89,1.89,0,0,0-1.42-1.3c-.59.45-1.15.91-1.75,1.31a.93.93,0,0,1-.66.09A7.08,7.08,0,0,1,217,120a1,1,0,0,0-1.43,1.14.8.8,0,0,1-.38.83,10.69,10.69,0,0,0-1.39,1,11.14,11.14,0,0,0-1.05,1.36l.34.69c-.69.41-.72,1.42-1.58,1.71a.67.67,0,0,0-.36.38.92.92,0,0,1-1,.52,2.21,2.21,0,0,0-1.36.27c-.62.31-.66.31-1-.27a.88.88,0,0,0-1.16-.51,2.21,2.21,0,0,1-1-.11c-.13-.69-.27-1.28-.34-1.88a1.71,1.71,0,0,1,.1-.84,4.76,4.76,0,0,0-.15-4c.73-.2,1.23-.91,2.18-.58a9,9,0,0,0,2,.18c.5,0,1,.15,1.49.25a.83.83,0,0,0,1.12-.8,10.28,10.28,0,0,0,0-1.84,1,1,0,0,0-.41-.61,2,2,0,0,1-.71-.87,3.25,3.25,0,0,0-1.92-1.41l.05-.78c.43.06.8-.4,1.33,0,.22.16.76-.1,1.22-.18l-.21-1.3c.16,0,.35,0,.37.06a.46.46,0,0,0,.57.31,1.91,1.91,0,0,0,.66-.22,12.47,12.47,0,0,0,1-.83l.06-.77a4.36,4.36,0,0,1,2.26-.67l.3-.8a1.73,1.73,0,0,1,1.8-1.22,5.29,5.29,0,0,0,1.43-.24.66.66,0,0,0,.36-.55,4.61,4.61,0,0,0-.38-2,4.89,4.89,0,0,1-.28-1.57,1.44,1.44,0,0,0,1.21-.84l-1,.41c0-.14,0-.23,0-.24.21-.15.43-.28.65-.42s.41-.21.6-.33.37-.28.64-.49c.21.8-.77,1.6.27,2.07l-.74,1c.5.32.5.32.51.82l-.64-.28c.23,1.13.23,1.13,1.25,1.8a2.26,2.26,0,0,0,.26-.2,1.18,1.18,0,0,1,1.45-.23,2.83,2.83,0,0,0,2.41-.17c.44-.17.88-.36,1.34-.49.29-.08.46.07.34.42.59,0,1.1-.07,1.12-.88,0-.17.49-.32.83-.52.09-2.11.28-2.67,1.13-3.07.63.88.63.88,1.36.72.33-.94-.21-1.86-.11-2.82a5,5,0,0,1,2.09-.46c.38,0,.76-.34,1.17,0,0,0,.19,0,.24-.08.49-.55,1.22-.39,1.84-.65-.4-.69-1.54-.18-1.74-1.16-.68.2-1.33.37-2,.57a2.21,2.21,0,0,0-.62.34c-.39.29-.76.64-1.21.07,0-.07-.34.06-.52.1-.27-.46.17-.45.43-.62a3.32,3.32,0,0,0-.56-.41c-.54-.23-.76-.43-.65-.91a2.19,2.19,0,0,0-.34-1.8,8.51,8.51,0,0,1,1.28-1.27,4.22,4.22,0,0,0,1-1.16c.09-.11.09-.35.19-.39.66-.31.5-.84.39-1.37-.58-.53-1.31-.2-1.92-.35-.65.66-1.47,1.19-1,2.23a2.09,2.09,0,0,1-1.42,1.17c-.87.24-1,1.21-1.67,1.58-.06.58-.14,1.16-.17,1.75a5.48,5.48,0,0,0,.09.89,2.69,2.69,0,0,1,.82.38c.26.24.68.51.5,1s-.33,1.11-1.08,1.19-.67.13-.74.83c0,.36-.13.71-.17,1.06s-.08.79-.14,1.36a4.37,4.37,0,0,1-.67.15c-.95.1-1,.12-1.3,1.08l-1.13.12a2.93,2.93,0,0,1,0-1c.24-.54,0-.88-.3-1.28s-.71-.69-.54-1.34c.07-.28-.29-.69-.49-1.12-.79.4-1.67.81-2.52,1.28-.4.23-.72.08-1.1,0a.82.82,0,0,1-.68-.59l.46-1-.91-.16,1-1.15c-.61.23-.86-.18-1.17-.47.34-.24-.09-.79.55-1l-.61-.06v-.54l.53-.11-.21-.38,1.16-.27-.22-.46c.39-.1,1,.05.72-.63l1.3-.57-.23-.69a8.93,8.93,0,0,1,1.11.4c.29.16.49.2.64-.18l-.6-.1c.7-.71,1.08-1.62,2.1-1.78-.09-.84.86-.68,1.17-1.25v-.74a7.1,7.1,0,0,0,1.95-1.47l-.3-.87.73.09-.28-.54.78-.42.3-1.11,0,0,1-.49c.08-.14-.49-.77.34-.47.13,0,.36-.22.6-.37l.67.24c.1-.25.12-.62.58-.43l-.43-.37c.14-.37.53-.28,1.39.31.22-.16.46-.33.69-.52s.26-.56.63-.16l.16-.56,1,.36-.55,1,.15.1,1.14-1.54.05.93.9-1.43c.57.24.57.24.39.86l.64-.37,1.53,1-1.29.65c.86.18,1.72-.12,2.58.21l-.22.39A16.34,16.34,0,0,1,246,87.9c.76.56.77,1.08.09,1.77a2.22,2.22,0,0,1-2.1.7,13.57,13.57,0,0,1-4.36-1.72,2.9,2.9,0,0,0,.17.54c.12.23.31.42.43.67a1.59,1.59,0,0,0,.87.62c.68.27.66.24.75,1,.06.5.21,1,.31,1.48.2,0,.48.06.51.15.18.63.77.44,1.17.61.14,0,.49-.08.51-.17a1.07,1.07,0,0,0-.08-.73,3,3,0,0,0-.66-.6l.31-.77a.55.55,0,0,1,.26,0,3.12,3.12,0,0,0,2.17.89l-.79-1.21,1.75-1.36,1.1.76c.17-.35.36-.75.54-1.15,0-.08.09-.21.05-.25-.65-.72.23-1.17.33-1.83l-.54-.71c1.19.1,2.17.38,2.49,1.67-1.24.52-1.24.52-.78,1.73l1.26-.37c.07-.13.11-.19.11-.24a1.19,1.19,0,0,1,.84-1.28c.77-.29,1.5-.72,2.28-.95a3.15,3.15,0,0,0,1.47-.81l.62.82-.59.27a2.32,2.32,0,0,0,1.62-.33,1.34,1.34,0,0,1,1.76-.08l1.3-.55.47,1.14.26-.65.69.09c.47-.56,0-1-.11-1.52a1.17,1.17,0,0,1,1.21-.37c.24.06.53-.13.72-.19l1.28.48c.09,0,.22.06.24.11.1.3.27.33.57.42a4.45,4.45,0,0,1,1.37.9,7.19,7.19,0,0,1,.7.74c.33-.32.51-.6.23-1.07a3.64,3.64,0,0,1-.23-1l-.77-.34a5.53,5.53,0,0,0,.32-1.29,5.57,5.57,0,0,0-.23-1.23,5.19,5.19,0,0,0,1.72-2c.18-.36.36-.73.78-.77.59-.06,1.22-.3,1.75.08a1.08,1.08,0,0,1,.38.83,6.92,6.92,0,0,1-.45,1.79.77.77,0,0,0,.14,1,1.06,1.06,0,0,1,.31,1.13,1.88,1.88,0,0,0,.63,2.32c-.32.76,0,1.68-.84,2.28a5.43,5.43,0,0,1-1,.45,6.66,6.66,0,0,1-1.27,0,.74.74,0,0,0,.9.62c.74-.15,1.18.17,1.54.89a1.35,1.35,0,0,0-.27-1.3,3.4,3.4,0,0,1,.75-.27.91.91,0,0,0,.83-.71c.12-.53.49-1,.25-1.64a.76.76,0,0,1,.26-.69,2.28,2.28,0,0,1,1.55-.46,2.7,2.7,0,0,1,.37,2.08c-.1.51.2.7.72.55a1,1,0,0,1,.39,0,.49.49,0,0,0,.36-.06l-.34-.16c-.84-.38-.87-.49-.23-1.21-.19-.38-.36-.79-.58-1.17a1.84,1.84,0,0,0-1.63-.45l-1.15.34a2.5,2.5,0,0,1-.2-1.55c.08-.34-.17-.76-.28-1.15l-.2,0a10.75,10.75,0,0,0,.68-1.19,4.12,4.12,0,0,0,.31-1.09,4.36,4.36,0,0,0-.05-.85,1,1,0,0,1,.43,1.18c-.26.68.29,1.14.26,1.73,0,.08.27.25.42.25.49,0,1-.1,1.69-.17l-1.26-.86c.25-.71.4-.73,1.34-.23.51-.19.31-.46,0-.7.87-.57,1.19-.6,2,0a2.15,2.15,0,0,0,1.69.61c.1,0,.21.07.45.17-.9.57-.59,1.52-1.06,2.37.81-.31.75,1,1.62.59l-.77-.63c.52-.46.5-.45.39-1.18a4.44,4.44,0,0,1,.12-.86c0-.18,0-.47-.09-.55a5.07,5.07,0,0,0-1.16-.59c-.8-.26-1-.56-.85-1.39a3.48,3.48,0,0,0,.1-.44c0-.56.36-.79.87-.82.78,0,1.54-.42,2.36-.1.19.08.46-.06.7-.11.71-.13.71-.13,1,.52.26-.4.13-.73-.59-1.42l.49-.36-.52-.48.85.16c-.13-.4.65-.47.32-.91a16.41,16.41,0,0,1,1.71-.59c.69-.16,1.41-.21,2.11-.34a7.5,7.5,0,0,1,2.6-.46c.42.06.15-.42.42-.42h.75l-.27,1c.87.22,1.39-.43,2-.81.09-.06.15-.2.22-.2.5,0,1,0,1.55,0l-.35-.55c.33-.34.66-.71,1-1a.67.67,0,0,1,.4-.18,12.75,12.75,0,0,0,1.4-.21c.37,0,.77.25,1.2.42l-.23.56,1.39.35v.79a10.27,10.27,0,0,1,1.78-.75,9.75,9.75,0,0,1,1.88,0,.89.89,0,0,0,.82.87,2.12,2.12,0,0,1,.77,1.19,2.29,2.29,0,0,1-.32.52,1.35,1.35,0,0,1,.23.3,2.84,2.84,0,0,1,.16.51c-.52.17-1,.36-1.52.5s-1.17.25-1.73.43c-.23.07-.54.26-.58.45-.21.87-.85,1.2-1.56,1.53a10,10,0,0,0-1.31.86c.76,0,1.15-.56,1.81-.51a4.43,4.43,0,0,0,1.52-.52c-.38-.48-.06-.79.27-1.09.34.07.73-.13,1,.37.15.32.72.22,1.25-.11l.32.42a1.3,1.3,0,0,0,.23-.15,2,2,0,0,1,2.26-.49,7.28,7.28,0,0,0,1.46.15v.9a5.66,5.66,0,0,0,1.5.51,5.1,5.1,0,0,1,2.07.41c.57.29.92.06,1.2-.62a4.74,4.74,0,0,1-.89-.49.51.51,0,0,1,.11-.88,1.32,1.32,0,0,1,1.52,0,8.64,8.64,0,0,0,1.08.61c-.19.62-.77.7-1.22.92,0,1,0,1,.9.69.19.2.09.75.59.67l.92-.19L317,81h.61l-.1.62a3.3,3.3,0,0,0,2.61,2l0,.66c1-.59.71-1.71,1.3-2.54l.61.91a3,3,0,0,0,.66-.31,1.1,1.1,0,0,1,1.47.06,6.87,6.87,0,0,0,1.17.62,1.19,1.19,0,0,0,.42,0l.31-.73,1,.5.16-.11c-.4-.59-.07-1.17-.08-1.81l.78-.13,0-.43,3.62.73v.1l-.71.14c.2.46.55.27.81.3a7.63,7.63,0,0,0,1-.06,2.37,2.37,0,0,1-.18.44c-.69-.08-.7.46-.87,1,.4,0,.73,0,.91-.46a3.11,3.11,0,0,1,.3-.44c.2-.28.26-.68.74-.67a2.91,2.91,0,0,1,1.86.49.57.57,0,0,1,.09.45,3.37,3.37,0,0,1-.68.17.85.85,0,0,0,.85.47c-.2.44-.39.81-1,.6a7.4,7.4,0,0,0,3.28,0,3.41,3.41,0,0,1,.85,0c.11,0,.26.08.34,0,.94-.54,2,.14,3-.26.24-.1.67.2,1,.37a6.36,6.36,0,0,1,.81.66c-.37.8.6,1.13.7,1.87A1.33,1.33,0,0,1,345.67,85a2.36,2.36,0,0,1,1.73.1c.12.07.31,0,.47,0s.59-.09.79,0a1.65,1.65,0,0,0,1.66-.08l.81,1.57a1.68,1.68,0,0,0,1.08-.44c.49-.47.49-.45.21-1.1a4.39,4.39,0,0,1-.14-.77c1.2.06,2.31.07,3.41.21a4.57,4.57,0,0,1,1.51.61,1.38,1.38,0,0,0,.78.23,1.79,1.79,0,0,1,1.56.58A2.77,2.77,0,0,0,361,87.18c.24.07.41.39.64.56a9.21,9.21,0,0,0,1.56,1,1.5,1.5,0,0,1,1,1.32,3.11,3.11,0,0,1,.65-.34,1.5,1.5,0,0,1,1.44.24c.5.46,1,.9,1.57,1.38l-.52.75L366,92l.45.46c-.15.3-.73.57-.05,1a2.33,2.33,0,0,1-1.67-.16,4.73,4.73,0,0,0-.89-.32.68.68,0,0,1-.6-.54c-.25-.87-.6-1-1.42-.62-.44.2-.44.2-1.17-.21.09-.34.27-.72-.23-1-.15.34-.41.6,0,1,.19.21-.07.86-.41,1a1.49,1.49,0,0,1-1.75,0h-.84c.36.54.58,0,.85,0l-.41.78.53-.07c.32.56.66,1.13,1,1.72a.48.48,0,0,1-.39.73,4.6,4.6,0,0,1-.52-.06,4,4,0,0,0-1.48,0A11.59,11.59,0,0,0,353,98.1c-.33.32-.62.68-1,1.1-.15-.15-.34-.31-.5-.5-.66-.83-1.28-.83-1.94,0-.19.24-.43.45-.75.78l-.12-1-1,.71-.73-.15c-.49.66-1,1.31-1.47,2-.27.41-.15.66.34.86.13,0,.26.12.46.22-.13.25-.22.45-.34.64-.4.62-.36.82.22,1.33a.52.52,0,0,1,.16.35s-.16.15-.26.17c-1.18.28-1.36.72-.64,1.88-.18.14-.35.38-.56.42-1.1.22-1.44.6-1.42,1.71,0,0,0,.06,0,.16a1.64,1.64,0,0,0-.51.18c-.18.12-.41.34-.4.51,0,.94-.65,1.31-1.41,1.81-.2-1-.39-2-.55-2.95-.11-.61-.12-1.25-.29-1.85a5,5,0,0,1,.23-2.55.44.44,0,0,1,.21-.27c.71-.28.62-.89.61-1.48a3.23,3.23,0,0,0,1.88-1c.49-.55,1-1.06,1.5-1.63a10.56,10.56,0,0,0,.76-1.28,3.79,3.79,0,0,1,.4-.13c.33-.1.83-.08,1-.29a2.64,2.64,0,0,0,.35-1.33.77.77,0,0,1,.57-.8c-.21-.38-.51-.27-.78-.14s-.43.47-.42,1.29c-.86-.13-.87-.13-1.53.63-.25.29-.48.59-.74.9l-.52-.7.33-.72c-.35-.13-.67-.25-1-.35a2.52,2.52,0,0,0-2.29.91,1.69,1.69,0,0,1-.93.88,1.48,1.48,0,0,0-.79,1.39l.73-.05c0,.14,0,.27,0,.3s-.31.28-.44.25c-.65-.12-1.13.32-1.7.44-.38.08-.79.22-.9-.45l.79-.21-.45-.63a9.55,9.55,0,0,1-1,.07c-.32,0-.64-.1-1-.16l-.27.81-1.9-.32-.29.22c-.08,0-.12,0-.13,0-.61-1.05-1.66-.19-2.43-.57a6.67,6.67,0,0,0-1.23.84,16.46,16.46,0,0,0-.91,1.42,5.76,5.76,0,0,1-.86.85,4.48,4.48,0,0,0-1.37,1.58c-.21.5-.79.85-1.21,1.26l-1.27,1.27,1.35.17c0,.14.07.31.09.48s0,.35,0,.57l.58-.36.08.77c.2-.16.38-.27.53-.41a.93.93,0,0,1,1.53,0c.36.37.75.72,1.14,1.08l-.53.1a2.16,2.16,0,0,1-.26,1.76c-.23.32-.12.9-.09,1.36a3.89,3.89,0,0,1-.43,1.94,7.83,7.83,0,0,1-.89,1.21s-.11.08-.12.13c-.38,1.41-1.51,2.31-2.33,3.43a17.63,17.63,0,0,1-1.21,1.63c-.51.57-.77.58-1.31,0l-.49-.5s-.06,0-.14,0c-.5.44-1,.94-1.55,1.37a.87.87,0,0,0-.42,1,.72.72,0,0,1-.3.79,7.05,7.05,0,0,1-1,.76.73.73,0,0,0-.4.91c.21.36.43.72.64,1.09a7.08,7.08,0,0,0,.41.77,3.42,3.42,0,0,1,.45,2,1.06,1.06,0,0,1-.83,1,6.37,6.37,0,0,0-1.24.66,1.54,1.54,0,0,1-.39,0,11.39,11.39,0,0,0,.31-3.77h-1.07l-.59-.76a5.5,5.5,0,0,1,.31-.48.69.69,0,0,0-.21-1.09,1.24,1.24,0,0,0-1.36,0l-1.27,1c-.32-.85.27-1.44.6-2.1-.86-.49-.94-.46-1.43.27a3.54,3.54,0,0,1-.67.67c-.13.12-.34.19-.41.34a1.09,1.09,0,0,1-1.2.58c-.36,1,.55,1.39.75,2.2a6.3,6.3,0,0,1,1.61-.7,7.11,7.11,0,0,1,1.85.31c-.3.27-.45.51-.66.58a4.24,4.24,0,0,0-2.16,1.86,1.19,1.19,0,0,0,.07,1.28c.33.63.72,1.23,1.09,1.84l.36.61-1,.15c.75.07,1.19.24,1.26.92l-.61.58,1.14.31c-.44.31-.1.9-.67,1.11-.09,0,0,.48,0,.62-.27.43-.47.81-.71,1.16a1.83,1.83,0,0,1-.49.51.66.66,0,0,0-.34.94c.1.26,0,.42-.19.67a11.4,11.4,0,0,1-2.05,1.94c-.08.08-.25.14-.26.23-.14,1.06-1.15.6-1.69,1-.05,0-.24-.12-.41-.21a2.11,2.11,0,0,1-1.42.9,4.22,4.22,0,0,0-1.49.93c-.13.1-.07.43-.1.66-.57,0-.69-.15-.72-1.2-.45-.27-.8-.11-1.22.15a8.15,8.15,0,0,0-1.68,1.69,1.2,1.2,0,0,0-.16,1.35,3.22,3.22,0,0,0,.62,1,7.6,7.6,0,0,1,1.8,2.5,5,5,0,0,1,.58,3.23,2.09,2.09,0,0,1-.75,1.07,2.56,2.56,0,0,1-2,.75l.32.55c-.69,0-.42,1-1.12,1a1,1,0,0,1-.24-1,.65.65,0,0,0-.46-.84c-.45-.16-.66-.54-.93-.9-.51-.69-1.07-1.36-1.64-2-.08-.1-.33-.06-.45-.08-.23,1.21-.48,2.37-.67,3.54a1.62,1.62,0,0,0,.17.82c.17.44.39.86.6,1.28.05.1.1.25.19.3.68.33.95,1,1.45,1.54a2.27,2.27,0,0,1,.79,2c-.13.79.33,1.36.59,2.06l-.7.39-.23-.09c-1.45-.76-1.83-2.16-2.11-3.61a9.29,9.29,0,0,0-.26-1.49,4.28,4.28,0,0,0-.8-1.26,1.62,1.62,0,0,1-.41-1.56,3.12,3.12,0,0,0,0-2.47c.18-1.14-.46-2.12-.69-3.17-.16-.73-.23-1.64-1-2a7.27,7.27,0,0,1-1.1,1c-.2.12-.57,0-1-.07a4.52,4.52,0,0,1,.13-.9,1.71,1.71,0,0,0-.12-1.61,6.3,6.3,0,0,1-.45-1.63l-.59.14a3.35,3.35,0,0,1-.65-1.72,1.3,1.3,0,0,0-1-1.24c-.43.22-.35.62-.24,1-.45.16-.79.3-1.15.4a1.11,1.11,0,0,1-.48,0c-.66-.14-1.17.12-1.22.79a1.07,1.07,0,0,1-.81,1,2.38,2.38,0,0,0-1.29,1.14,2.89,2.89,0,0,1-1.48,1.21c-.19.07-.45.19-.49.34-.21.73-.82,1-1.41,1.21a.59.59,0,0,0-.4.62c0,.86.05,1.72.05,2.58a1.47,1.47,0,0,1-.14.69,1.91,1.91,0,0,0-.21,1.74c-.33.49-.58.88-.86,1.24s-.6.69-1,1.18c-.29-.81-.8-1.25-.9-2a8.64,8.64,0,0,0-.9-2c-.2-.48-.38-1-.54-1.49s-.4-1.25-.54-1.89c-.28-1.18-.52-2.38-.77-3.57,0-.23-.1-.46-.13-.69s-.13-.51,0-.68c.4-.77,0-1.46-.22-2.21a3.36,3.36,0,0,1-.29,1.1,3.42,3.42,0,0,1-1,.66l-1.47-1.6,1.13-.59v-.16l-.63-.11c-.39-.08-.79-.13-.81-.66a.51.51,0,0,0-.17-.3c-.41-.37-.86-.68-1.24-1.08a3.79,3.79,0,0,1-.5-.88c-.8.12-1.56.22-2.32.36a14.08,14.08,0,0,1-4.2-.27.85.85,0,0,1-.73-.71,1.2,1.2,0,0,0-.73-1l-.67.35a1.86,1.86,0,0,1-2.59-.5,9.52,9.52,0,0,1-1.58-2.68,3.55,3.55,0,0,0-.2-.39c-.33-.08-.63-.17-.95-.22a.89.89,0,0,0-.84.31c-.28.28-.12.53,0,.8a9,9,0,0,0,1.51,2.6,1.42,1.42,0,0,1,.2.66c0,.23.05.46.08.87l.85-.77v1.41c.33.76,1,.07,1.42.31.64.36,1-.17,1.39-.5a13.39,13.39,0,0,0,1.14-1.31,2.5,2.5,0,0,1,.07.39,1.8,1.8,0,0,0,1.17,1.84,3.5,3.5,0,0,1,1.77,1.8c-.33.65-.66,1.38-1.06,2.07a2.2,2.2,0,0,0-.5,1.52c-.44.16-1,.28-1.13.85-.67.14-1,.79-1.62,1-.35.16-.73.26-1.08.41a1.08,1.08,0,0,0-.73.7,1.6,1.6,0,0,1-.78.8c-.94.44-1.82,1-2.78,1.39a4.34,4.34,0,0,1-1.74.59.24.24,0,0,0-.16.07c-.46.69-1.15.46-1.79.46a12,12,0,0,1-.53-3.21,2.18,2.18,0,0,0-.53-1.64,3.22,3.22,0,0,1-.64-1.23,2.19,2.19,0,0,0-1.12-1.42,1.63,1.63,0,0,1-.6-1,4.21,4.21,0,0,1-.25-1.87,1.37,1.37,0,0,0-.17-1,14.8,14.8,0,0,1-1.41-2.4c-.27-.61-.72-1.14-1-1.75-.19-.38-.65-.69-.78-.57-.43.42-.74,0-1.09,0a1.17,1.17,0,0,0-.62-1.15,1.54,1.54,0,0,0,.64,1.13,8.16,8.16,0,0,0,1,2.63,3.48,3.48,0,0,1,.74,1.93,1.71,1.71,0,0,0,.48,1.11,3.14,3.14,0,0,1,.91,2.92,1.2,1.2,0,0,0,.41,1.21,2.82,2.82,0,0,1,1.23,2.42,1.36,1.36,0,0,0,.34,1,10.67,10.67,0,0,1,2.23,2.42A2.69,2.69,0,0,0,248.42,153.08Zm34-67.71.58.39c-.08-.5-.35-.41-.61-.37-.08-.4-.08-.4-.52-.08Zm15.11-9.86a1.69,1.69,0,0,1-1.5.26l-.14.61.53.22.43-.35a3.3,3.3,0,0,0,.43-.3,2.06,2.06,0,0,0,.24-.44l.68.06L298,75.2Zm-20.3,40.08c-.43,0-.87,0-1.29,0a3,3,0,0,0-2.14.28c-.48.37-.93.79-1.41,1.2l.52.7a4,4,0,0,1,1.69-1.56,1.64,1.64,0,0,1,1.44-.35,2.38,2.38,0,0,0,.88,0c.12,0,.21-.17.31-.26.59.14.59.14.74-.49ZM243.42,118c0-.08,0-.22,0-.22.45-.09.6-.42.73-.78l-.3-.34,1.15-.84a2,2,0,0,0-1,.11c-1.06.31-2,1.09-3.22.93.31.37.55.66.8.93a.56.56,0,0,0,.33.1c.49,0,1,.06,1.48.09L240.53,119c0-.65-.16-1.06-.81-1.21l.95-.55a1.14,1.14,0,0,0-.81-.24c-.52,0-.74-.09-.82-.59-1.1,0-1.46.86-1.87,1.63-.14.26-.15.58-.41.83s-.21.54-.31.82a5,5,0,0,1-.26.64c-.18.34-.38.66-.61,1.06l1.11,1.3a6.91,6.91,0,0,0-.74.22,6.42,6.42,0,0,0-.68.37c.58-.27,1.66.48,1.69-.77a2.25,2.25,0,0,1,.59,0,1.81,1.81,0,0,0,1.65-.43,2.7,2.7,0,0,1,3.06-.1c.59.31,1.26.29,1.83.65.21.13.57,0,.87,0a3.79,3.79,0,0,1,.58,0,1.43,1.43,0,0,0,1.28-.62,1,1,0,0,0-.22-1.23,2.42,2.42,0,0,0-.56-.44A11.35,11.35,0,0,1,243.42,118Zm13.72.34c.07-.31.21-.56.13-.69a3.44,3.44,0,0,0-.78-1.15,14.63,14.63,0,0,0-1.73-1.08c-.56.28-.95.46-1.32.67a2.66,2.66,0,0,0-.81.51c-.19.22-.29.31-.58.17a.58.58,0,0,0-.5.19c-.22.6-.38,1.23-.58,1.89l.63.25c-.14,1.71,1.09,2.83,2.2,4.13-.68.23-.53.92-.8,1.38a2,2,0,0,0,.16,2.17c.93-.17,1.32.84,2,.91l1.65-.36a1.37,1.37,0,0,0,0-.47c-.1-.52-.28-1,.13-1.53.05-.07,0-.29-.08-.41-.18-.33-.39-.64-.61-1h-.49l.32-1.14c.87.48.87.48,1.39-.23-.18-.22-.38-.44-.54-.68-.32-.48-.42-.5-.86-.12l-.3.24-.16-.08.2-1.14c-.94-.18-1.16-1.17-1.94-1.77l.9-.07-.24-.49,1.11-.62Zm4.25,1.58c.16,0,.37-.13.41-.07.29.33.56.18.76,0,.33-.4.6-.84.91-1.27-.52-.29-.75-.63-.66-1.1a10.36,10.36,0,0,1,.32-1.17c-.93,0-1.33.69-1.87,1.15l-.28-.16a2.4,2.4,0,0,0-.48,2.28s.07.08.11.13l.66-.11ZM240.46,166c-.23,0-.47.06-.71.07-.63,0-.76.13-.79.79a10.22,10.22,0,0,1,0,1.35,1.16,1.16,0,0,0,.31,1.08c.4-.34.81-.62,1.23-.14l.53-.45c-.5-.68.22-1.22.21-1.7Zm57.08-55.46a.87.87,0,0,0,1.29,0,7.53,7.53,0,0,0,.65-.73c.2-.24.33-.5.72-.59a3.07,3.07,0,0,0,1-.66c.46-.35.34-1.11.95-1.38.08,0,.11-.2.17-.3a.29.29,0,0,0,0-.09V105l-.34.64a6.68,6.68,0,0,1-1.91,2.64,3.43,3.43,0,0,0-.94.92A3,3,0,0,1,297.54,110.54ZM240,98c-.94-1.67-1.44-1.9-2.28-1.15l1,1.79Zm-2.8,74.2a4.3,4.3,0,0,0-.37-2.62,2.7,2.7,0,0,0-.12,1,4.19,4.19,0,0,1,.11,1,1.58,1.58,0,0,0,.46,1.45,3.79,3.79,0,0,1,.93,1.73h.59v-.07c-.27-.4-.75-.78-.76-1.18C238,172.91,237.6,172.61,237.19,172.24Zm3.69,3.72-.16.11c.18,1.38-.25,2.83.54,4.33,0-1.15-.07-2.1-.1-3.05a5.33,5.33,0,0,0,0-.8A2.08,2.08,0,0,0,240.88,176Zm.79-80.62c.18.23.45.43.42.55s-.29.39-.56.7l1.23,1a3.59,3.59,0,0,0,0-.87,10.92,10.92,0,0,0-.53-1.27ZM249.46,126c.16.43.32.86.5,1.28s.4.34.69,0C250.32,126.85,250.17,126.25,249.46,126ZM224.15,99.58l-1,1.35c.7,0,1.11-.19,1.29-.66C224.51,100.12,224.28,99.86,224.15,99.58Zm19.29,1.17c.38.21.66.5,1,.52s.45-.33.41-.62C244.36,100.16,244,100.53,243.44,100.75ZM277,120.5c-.91,0-.91,0-1.36.34C276.11,121.22,276.46,120.93,277,120.5Zm-34.37,41.25c-.31.59-.42,1,.21,1.38Zm-.72-67.42c-.16-.35-.33-.56-.72-.51C241.26,94.14,241.32,94.45,241.87,94.33Zm-6.13,6-.21,0c-.1.55-.1.55.41.94Zm85,18.28h.23c0-.28.29-.59-.23-.88Zm-95.19,33.27-1.07-.22C224.71,152,224.83,152,225.51,151.93Zm10.89,16.7c.45-.26.47-.47.2-.71,0,0-.11,0-.2,0Zm11.71-42.91c-.48-.2-.48-.2-.81.11Zm-30-28.34,0,.14.38.09s0-.14,0-.14A3.58,3.58,0,0,0,218.16,97.38ZM236.66,167l.13.07.26-.45-.15-.08Zm7.16-12.38c-.3-.18-.38-.26-.42-.24a.8.8,0,0,0-.24.18c.08.06.14.17.23.18S243.6,154.7,243.82,154.63Z" transform="translate(-4.91 -48.39)" fill="#fff"/><path d="M106.09,84.3c1.08.07,1.83-.22,1.65-1.63.34-.2.55,0,.75.24l2.69,2.49L111.6,84l.37,1.24c1-1,1.85-.49,2.79,0s1.91.78,2.87,1.15a.58.58,0,0,0,.34,0c1-.28,1.16-.2,1.59.7-.38.08-.78.16-.77.68.67.47,2.07.34,3.51-.34.16.48,1,.32,1,1,.53.08.3.73.68.93.34-.28.34-.28,0-1.43l1.45-1,0-.14-1.7.58.44-1.08c.44-.06.9-.14,1.37-.17.83-.06.87,0,1.12.79,0,.09.07.16.12.29l.62-.15.15.39s0,0,.07,0c.75-.32,1.22.49,1.9.48,0,0,.06,0,.08,0a7.93,7.93,0,0,1,1.18-.23c.4,0,.8.11,1.21.14.1,0,.2-.1.3-.15,0-.29,0-.55.07-.81,0,0,.08-.09.16-.17l1.28.64v1.09l1,.71.08-.11-.37-.75a4.47,4.47,0,0,1,2.08-1.79l-.48-.06-.29,0v-.85c.7-.11.7-.11.82-.62l-.32,0-.39.13-.56-.92-.72.63a1,1,0,0,1-.11-.28c0-.08.08-.23.06-.24-.85-.45-.12-1.13-.25-1.69a.41.41,0,0,1,.11-.32c.14-.15.46-.33.45-.37-.16-.32.09-.4.22-.59a1,1,0,0,0,.12-.68,6.83,6.83,0,0,0-.28-1.25,1.46,1.46,0,0,1,.1-1.46c.42-.13.79-.27,1.18-.37a1.1,1.1,0,0,1,.54,0c.77.17,1.54.36,2.31.54-.25,1.22-.52,1.48-1.66,1.67l-1.32.22a1,1,0,0,0-.11.11c.44.47-.15.8-.2,1.24.68,1,2,1.18,2.93,2.16l-.88.17.31.39-.67.62a3.39,3.39,0,0,0,.8.48,1.07,1.07,0,0,1,.84.91,7.42,7.42,0,0,0,.38,1.12c.28-.39.56-.63.55-1.1a.73.73,0,0,1,.76-.81c.55.59.55.59.26,1.21a5.16,5.16,0,0,0-.31.73.68.68,0,0,0,0,.49,6.29,6.29,0,0,0,.82,1c.23.23.76,0,.93-.4.26-.59.49-1.2.77-1.78a2.61,2.61,0,0,0,.26-1.49l-.11-.66a11.58,11.58,0,0,1,1.85.22c.25.06.4.47.65.8h.55c0,.07.07.11.06.12-.21.36-.13.82-.27,1.16-.25.56-.31.93.21,1.23.29.17.51.33.48.66s-.35.48-.67.61c-.54.23-1,.55-1.68.9l-.79-.44.41.68c-.33.36-.62.29-1,0a2.7,2.7,0,0,0-.86-.28,1.19,1.19,0,0,1-.62,1.58c-.35-1-1.21-.54-1.87-.71v.43l1.89.25a4,4,0,0,0-.26.65c-.14.52-.51.88-1,.71a1.39,1.39,0,0,0-1.23.18c.1.42,0,.81-.53.87.35.7.23,1-.41,1.07s-.86.55-1.26.86a5.52,5.52,0,0,0-.55.63,5.34,5.34,0,0,0-1.23,2,2.15,2.15,0,0,0,.23,1.56h1.17l.93,2.17a3.14,3.14,0,0,1,.53-.1,2.17,2.17,0,0,1,.77.08c.5.19,1,.46,1.46.67a2,2,0,0,1,.88.78,2.68,2.68,0,0,0,1.14.71,5.15,5.15,0,0,0,2.37.67,3.21,3.21,0,0,1,.91.29,8.2,8.2,0,0,1,.07,1.54,3.17,3.17,0,0,0,1.17,2.7.79.79,0,0,0,1.35-.14,2.62,2.62,0,0,0,.18-1,5.29,5.29,0,0,0-.07-.8,1.51,1.51,0,0,0-.27-1,.64.64,0,0,1,.13-1,6.64,6.64,0,0,0,2.09-2c-.37-.25-.22-.57-.15-1s-.21-.65-.36-1a5.05,5.05,0,0,0-.59-1,6.43,6.43,0,0,0-.88-.75l1.19-1.36c-.15-.52-.29-1-.4-1.41a.56.56,0,0,1,.08-.42c.33-.4.42-.78-.05-1.11a1,1,0,0,1,1-.32,7.31,7.31,0,0,0,1.33.13,2.16,2.16,0,0,0,.83-.17c.53-.23.8-.24,1.21.16s.7.8,1,1.15l1,.17c-.08.69.46.27.75.42a3.09,3.09,0,0,0-.33,2,.59.59,0,0,0,.33.45,6.08,6.08,0,0,1,1.79,1.11c1.16-.6,1.28-1.94,2-2.91a7,7,0,0,0,.41,1.48,6,6,0,0,0,.94,1.08l-.31.41a1.35,1.35,0,0,1,.58.4c.4.56.37,1.38,1.22,1.74l-.84.41a2.87,2.87,0,0,0,.93,1.09c.57.36.88,1.13,1.73,1.06.14.34.29.58.73.31.12-.08.33.4.27.75l1.47.88a3.79,3.79,0,0,1,0,.38c0,.85-.28,1.29-1.1,1.46a1.72,1.72,0,0,0-1.48,1.07,2.23,2.23,0,0,1-2.26.85,7.9,7.9,0,0,0-1.46,0c-.65,0-1.29,0-1.94.07-.3,0-.75.1-.87.3-.53,1-1.63,1.36-2.23,2.27,0,.31.24.35.49.16.61-.46,1.18-1,1.81-1.4a2,2,0,0,1,1.54-.31c.6.11.82.49.52,1a2.5,2.5,0,0,1-.66.75c-.12.09-.37,0-.6,0l.09.46,1-.27-.16.89.31.55,0,0c-.34.31-.1.52.15.66a1.81,1.81,0,0,0,.58.09l0,0c0,.15,0,.39,0,.45a3.51,3.51,0,0,0,.73.35l.61-.47c.06.33.22.66.11.8a3,3,0,0,1-.9.8c-.45.26-1.08.18-1.29.89-.11.38-.74.47-1.09.3-.67-.3-.73-.63-.19-1.12a2.87,2.87,0,0,1,.52-.47,2.59,2.59,0,0,1,.72-.21c.13,0,.28,0,.39,0s.13-.18.25-.35c-.22,0-.37,0-.51,0a4.68,4.68,0,0,0-.51.08l.17-.92c-.58.84-1,1.49-2,1.24-.08.26-.08.58-.24.76a1.29,1.29,0,0,1-.7.27.76.76,0,0,0-.57.3c-.14.19-.52.2-.88.32l-.66,1.54.38.43c-.07.06-.14.17-.2.17a7.18,7.18,0,0,0-2.23.72c-.05,0,0,.16,0,.24l0,0c-.37.1-.45.3-.34.67.17.59-.29.94-.61,1.3-.12.14-.48.06-.73.08a1.86,1.86,0,0,1-.12,1.68l-.76-.31a1.72,1.72,0,0,1,.47-1.7c-.44-.06-.66,0-.76.5-.15.63-.43,1.25.08,1.82.28.32-.38.37-.15.64s.43.35.5.57-.1.41-.17.63l.46.41-.73.15a3.78,3.78,0,0,1-1.65,2.09c-1,.71-2,1.47-2.12,2.91a5.27,5.27,0,0,0,.25,1.61,20.17,20.17,0,0,0,.61,2.05,2.7,2.7,0,0,1-.33,2.32c-.28-.37-.52-.66-.73-1a4.34,4.34,0,0,1-.53-.9,4.52,4.52,0,0,1-.12-1l-.31,0a4.2,4.2,0,0,0,0-1.23,4.48,4.48,0,0,0-.66-1s-.13-.06-.15,0c-.69.61-1.27.05-1.71-.3a1.19,1.19,0,0,0-1.1-.23,1.73,1.73,0,0,1-.68,0,1.17,1.17,0,0,0-1.31.27c.55.09.42.64.65,1.14l-1.09-.61c-.5.73-.5.73-1.21.22a1.91,1.91,0,0,0-1.84-.29c-.44.16-.93.2-1.21.76-.18.36-.72.54-1.11.8a1.4,1.4,0,0,0-.62,1.9,1.41,1.41,0,0,1-.13,1.62c-.27.4-.13,1.08-.14,1.64s.08,1,.05,1.5a3.3,3.3,0,0,0,.68,2c.3.5.65,1,1,1.57.14.05.51.08.67.27a1,1,0,0,0,1.52.12A1.16,1.16,0,0,1,138,147a3.53,3.53,0,0,0,1-2.06.87.87,0,0,1,.71-.79,4.19,4.19,0,0,0,.79-.4.84.84,0,0,1,1,.05c.31.27.18.58.07.91s-.14.69-.26,1c-.18.52.05,1.21-.62,1.52,0,0,0,.11,0,.16a3.82,3.82,0,0,1-.55,2.52,9.82,9.82,0,0,0,2-.16c1.1-.35,1.79.27,2.47.91.15.14.13.59,0,.83a6.74,6.74,0,0,0-.37,2.8,3.29,3.29,0,0,0,.62,1.35c.19.32.44.62.73,1a2,2,0,0,0,1.94-.34.8.8,0,0,1,1.05.11c.47.48.87,1,1.34,1.56a7.66,7.66,0,0,1,.62-1.25,2.91,2.91,0,0,0,.52-1.18c0-.18.29-.34.48-.45.49-.26,1-.48,1.49-.75a3.22,3.22,0,0,0,.68-.55c.27-.28.49-.26.76.06l-.59.69.39.75c-.59.46-.5,1,0,1.47.59-.3.67-.46.3-1.08-.2-.35-.21-.61.06-.87a.64.64,0,0,1,.25-.11l.7-.23-.37-.52.07-.08,1.39.7a.47.47,0,0,1,.19.18,4.84,4.84,0,0,1,.18.49h1c.21,0,.48,0,.6.11.5.5,1,.32,1.56.14s1-.27,1.71-.45c-.22.42-.59.76,0,.92.32.09.63.15,1,.24l-.21,1a1.93,1.93,0,0,1,1.8.68c.48.5.5.48.17,1.13a.35.35,0,0,0,0,.31l.45-.49a2.21,2.21,0,0,1,.73.38,1.7,1.7,0,0,0,1.63.38,3.23,3.23,0,0,1,2.47,1,4.45,4.45,0,0,1,1.16,1.67,8.67,8.67,0,0,0,.3,1.11,5.69,5.69,0,0,0,.51.82c0,.13-.61.54.13.73l-.27,1c-.26.24-.74-.5-.93.11-.14.42-.77.77-.26,1.38l1.71-1.67a3,3,0,0,1,.8.45c.15.17.15.47.24.82a1,1,0,0,1,1.62,0,.59.59,0,0,0,.24.11,2,2,0,0,1,1.49,1.95c.19-.14.34-.19.4-.29a.55.55,0,0,1,.78-.2,6.32,6.32,0,0,0,2,.52,2.73,2.73,0,0,1,1.12.52c.43.31.79.72,1.19,1.07a.87.87,0,0,0,.42.26c1.13.05,1.49.92,1.75,1.75a3.53,3.53,0,0,1-.47,3.17,1.59,1.59,0,0,1-.55.57,2.67,2.67,0,0,0-1.18,1.51c-.19.41-.1,1.07-.87.94a6.7,6.7,0,0,0-.54,1.45,9.7,9.7,0,0,0,.12,1.51c0,.44-.07.89-.11,1.33l-.12.94s0,.06,0,.08c-.25.68-.45,1.37-.75,2s-.65,1.06-.94,1.61a1.58,1.58,0,0,0-.2.82c0,.53-.37.8-.64,1.1s-.58.14-.88.19c-.53.07-1.14,0-1.34.71,0,0-.17,0-.26.06a10.67,10.67,0,0,0-2.63,1.59,1,1,0,0,0-.42,1c.05.59.13,1.18.18,1.76a1.76,1.76,0,0,1-.49,1.29,14.54,14.54,0,0,0-1,1.74l-.46-.29c-.22.32-.42.6-.61.89-.3.47-.71.88-.66,1.51,0,.18-.14.38-.24.56s-.38.6-.56.91a1.5,1.5,0,0,1-1.39.73,3,3,0,0,1-2.48-1.12,1.11,1.11,0,0,0,.29,1.15c.27.33.71.56.5,1.12,0,.08.13.29.24.34.57.25.49.6.21,1a.35.35,0,0,0-.05.08c-.41,1.38-1.51,1.72-2.76,1.87l-1.75.24c.43.42.14,1,.18,1.5a1.11,1.11,0,0,1-.63,1.1.87.87,0,0,1-1.11-.3c-.06-.08-.2-.09-.29-.13-.5.56-.08,1.05.1,1.5,0,.14.55.12.92.18.08.31.18.59-.45.59-.26,0-.65.37-.76.66a15.35,15.35,0,0,0-.48,2c-.77-.07-1.11.62-1.58,1.08-.28.28-.12.64.14.87a10.13,10.13,0,0,0,1.11.75l.17.88c-.46.45-.92.87-1.33,1.33a1,1,0,0,0-.16.62c0,.64-.27.78-1,.38.1.36.28.64-.07.95s-.27.89,0,1.33a3.72,3.72,0,0,1,.24.41l-.93.28c.18.17.27.33.38.34.42,0,.52.25.64.67a2.47,2.47,0,0,0,1.62,1.63,8,8,0,0,0,.89.26c-.71.37-1.55,0-1.9.9-.39-.57-.71-.06-1.06,0a6.58,6.58,0,0,1-.75.14c-.35,0-.2-.37-.3-.55a.58.58,0,0,0-.34-.24c-.36-.12-.73-.21-1.11-.32l.22-.42a1.55,1.55,0,0,0-.39-.19c-.79-.16-.94-.33-1-1.12,0,0-.16-.05-.24-.08.06-.37.12-.73.17-1.05l.88-.59-1.13.25c0,.3-.08.61-.08.92a1.78,1.78,0,0,0,.17.47c-.1,0-.26.08-.29,0a4.77,4.77,0,0,1-.58-.76c-.45-.79-.44-.79.45-1a2.62,2.62,0,0,0,.47-.22c-.46-.54.08-1.47-.85-1.76-.11.18-.21.36-.32.53l-.14,0a21.76,21.76,0,0,1-.21-2.27c0-.27.31-.55.57-1l.45,1.05h.1a3.4,3.4,0,0,1,0-1.06c.12-.37.31-.7.08-1.08l-1-.12.16-.88a.58.58,0,0,1,.27-.06c.32.08.64.19,1.06.32,0-.51,0-.89,0-1.27a2.33,2.33,0,0,1,.13-1c.53-1.05.3-2.22.58-3.31,0,0-.08-.07-.18-.17a1.51,1.51,0,0,0-.39,1.3,2.14,2.14,0,0,1-.16.75c0,.07-.24.08-.55.16.41-.68-.14-1.41.51-1.91.05,0,0-.22,0-.32a3.24,3.24,0,0,1,.26-1.82,2.09,2.09,0,0,0,.12-.85c0-.53-.22-1-.21-1.57a3.12,3.12,0,0,1,.36-1.12,3.34,3.34,0,0,0,.45-1.77,3.48,3.48,0,0,1,.42-1.44,4.78,4.78,0,0,0,.38-3.18c-.06-.2.1-.46.13-.69s.2-.74,0-1.13a.94.94,0,0,1,0-.58c.17-.94.4-1.87.5-2.81s.07-2.06.14-3.09a16.07,16.07,0,0,1,.26-1.67,8.06,8.06,0,0,0,.07-3.17,2.54,2.54,0,0,0-1.26-1.74,9.83,9.83,0,0,1-2.57-1.61,2.54,2.54,0,0,1-1-1.88,1.49,1.49,0,0,0-.23-.77,14.2,14.2,0,0,1-1.18-3.23,2.77,2.77,0,0,0-.42-1c-.74-.93-1.52-1.82-2.35-2.8a3.47,3.47,0,0,0-.14-.79,1.18,1.18,0,0,1,.32-1.38c.19-.19.36-.39.56-.62-.32-.32-.66-.56-.58-1.06s-.09-.83.2-1.24a3.42,3.42,0,0,0,.29-1l.31-1.12a1.83,1.83,0,0,0,.82-1.32c0-.17.23-.33.37-.47s.56-.5.83-.74l-.2-.08a6.32,6.32,0,0,1,0-.75c.09-.88.21-1.76.31-2.58-.93-.6-.93-.6-.76-1.28l-.87-.95-.85.7c.17.29.49.66-.2.85-.57-.33-1-1.07-1.88-.88-.11-.3-.75-.12-.6-.68,0-.11-.16-.29-.28-.41s-.45-.38-.67-.58l-.36.33c-.23-.29-.64-.42-.39-1,.1-.2-.06-.58-.2-.82-.3-.51-.67-1-1-1.48a2.11,2.11,0,0,1-.18-.57,4.17,4.17,0,0,1-2.19-.37,6.63,6.63,0,0,1-2.22-1.85,2.11,2.11,0,0,0-2.44-.54,2.82,2.82,0,0,1-2.11-.31,2.07,2.07,0,0,0-.65-.28,5.09,5.09,0,0,1-1.79-.77c-.39-.21-.79-.39-1.18-.59a2.12,2.12,0,0,1-.42-.32c-.38-.33-.74-.68-1.12-1a1.55,1.55,0,0,1-.62-2,1.81,1.81,0,0,0-.37-1.68,14.45,14.45,0,0,0-2.67-3.55c-.26-.24-.25-.26,0-.8a13.38,13.38,0,0,1-3.54-5.52,3,3,0,0,1-.61.06,4,4,0,0,1-.65-.23,3.83,3.83,0,0,0,.16.81c.46.85,1,1.65,1.42,2.52.63,1.32,1.22,2.66,1.73,4a4.25,4.25,0,0,0,.78,1.22.54.54,0,0,1-.09.9,7.17,7.17,0,0,0-.6-.91,3.3,3.3,0,0,1-1.22-2.17c0-.43-.33-.67-.66-.9L118.76,137c.19-.34.73-.24.65-.72s0-1.28-.57-1.62c-1.18-.65-1.37-1.89-1.8-2.95a2.53,2.53,0,0,0-.77-1.16,20,20,0,0,0-1.85-1c-.33-.58-.74-1.25-1.1-2a3.1,3.1,0,0,1-.15-.84l-.46-.36.24-.75-.47.1s-.12-.07-.14-.11c-.17-.38-.33-.75-.49-1.13a5.84,5.84,0,0,1-.52-1.32,8.46,8.46,0,0,1,.18-1.3,9.09,9.09,0,0,0-.18-1,7.31,7.31,0,0,1-.07-1.32c.09-1.33.25-2.66.29-4a3.51,3.51,0,0,0-.47-1.24l-.31-.78,1.52.16,0-.16a5.82,5.82,0,0,1-1.33-.38,5.36,5.36,0,0,1-1-1c-.22-.21-.77,0-.74-.55l-1-.11-.34-.75c.9-.82.85-1.74-.2-2.25-.61-.3-.16-.69-.25-1.1l-.49.33c-.12-.19-.31-.36-.34-.57a4.3,4.3,0,0,0-.59-1.81c-.08-.12,0-.33,0-.51h-.47v1l-1.71-2c.39-.13.39-.13.82.12l.1-.4-.9-1.71c-.14-.26-.09-.68-.55-.69,0-.11-.08-.27-.17-.34a3.79,3.79,0,0,0-.59-.34l-.78.49,1,.51,0-.49.49.15c0,.2.09.39.13.59.1.54.08.56-.56.7,0-.14,0-.28,0-.42l-.22,0,.19.36.13.47c.38.17.58-.69.94-.13s-.17.72-.51,1.14c-.1-.16-.17-.41-.28-.43-.53-.08-.69-.49-.92-.87s-.43-.55-.61-.85a3.72,3.72,0,0,0-1.41-1.4.69.69,0,0,1-.38-.9,2.35,2.35,0,0,1-.71-.07,3.24,3.24,0,0,1-.65-.5c-.36-.1-.87-.25-1.38-.37s-.82-.33-1.3-.11a1,1,0,0,1-.76-.12c-.57-.32-1.25-.41-1.7-1s-1.16-.48-1.94-.36c.18.21.29.33.39.46.27.33.09.89-.31.83-.78-.12-1.2.42-1.67.81a2.09,2.09,0,0,1-1.09.42c-.19-.35.42-.35.13-.79s.18-1.49.67-1.69a3.12,3.12,0,0,1,.82-.1c0-.54-.5-.39-.86-.56-.49.52-1,1-1.5,1.58s-1.26.66-1.39,1.51l.51.27a4.63,4.63,0,0,1-1.39,1.43c-1,.85-1.89,1.84-2.91,2.65a6.36,6.36,0,0,1-1.85.78c-.07,0-.2-.14-.33-.24-.3.4-.4,1-1.16.92.61-.63.86-1.67,2.1-1.21a1.17,1.17,0,0,1,.84-.94,2.22,2.22,0,0,0,1.22-1.24c.3-.64.55-1.29.8-1.9l-1.57.26c-.33-.19-.72-.57-1.13-.58s-.75.37-1.16.59c-.28-.66-.08-1.46-.67-1.93-.29.13-.57.36-.83.34s-.46-.32-.65-.53-.4-.53-.67-.9l1,.1,0-.17c-.64-.1-1.34-.11-1.8-.86a8.86,8.86,0,0,0,.91-1.1c.07-.11.5-.15.19-.58s.46-.75.82-.5A.81.81,0,0,0,80,94a1.31,1.31,0,0,1,.49-.18c.72-.16.75-.2.65-1a3.15,3.15,0,0,1,0-.43,1.17,1.17,0,0,1,.09-.32A1.2,1.2,0,0,0,81,92c-.56-.24-1,.41-1.65.14-.45-.19-1.08.08-1.64.1a1.15,1.15,0,0,1-1.22-.56,5,5,0,0,1-.21-.72l-.8-.16A1.11,1.11,0,0,1,76.58,90a.78.78,0,0,0,.55-.28,5.46,5.46,0,0,1,1.22-.67l.19.11c.27.24,0,.81.44.89a7.37,7.37,0,0,0,1.41.06A2.21,2.21,0,0,0,80.9,90l-.55-.38.87-.09v-.11a2.85,2.85,0,0,1-.86-.33c-.55-.49-.58-.54-1.14-.42a1.48,1.48,0,0,1-.3,0c-.38-.92-1.44-1-2.1-1.68l.09-.83,2.31-.3a4.11,4.11,0,0,1,1-2,1.88,1.88,0,0,1,.57-.41,6.86,6.86,0,0,1,1.51-.5,3.61,3.61,0,0,0,1.9-.67.68.68,0,0,1,.59,0c.25.1.44.42.67.45s.55-.2.8.1a.3.3,0,0,0,.26.05c.81-.32,1.49.24,2.24.34.21,0,.44.18.61.13,1.26-.42,2.43.37,3.68.23a2.41,2.41,0,0,1,1,.23c.68.25,1.35-.06,2,0a1.59,1.59,0,0,1,.5.1,2.94,2.94,0,0,0,1.89.44.7.7,0,0,1,.43.07c.82.43,1.62.88,2.42,1.32l.66.32c-.11-.54-.42-.32-.66-.32.16-.15.32-.42.49-.43a1.07,1.07,0,0,0,1-.78,1.54,1.54,0,0,0,.44.28c.2,0,.54,0,.6-.06a1.47,1.47,0,0,1,1.54-.61l.32-.66.93.14,0,.18-.65.5c-.16.09-.32.27-.48.27-1.06,0-1.3.83-1.65,1.62.15,0,.21,0,.26,0a.27.27,0,0,0,.13-.1,1.42,1.42,0,0,1,1.37-1C106.2,85.08,106.25,84.7,106.09,84.3ZM144,116c-.12-.3-.24-.6-.37-.89s-.22-.79-.39-.82c-.74-.11-.9-.7-1.15-1.17a1.38,1.38,0,0,0-1.51.21c-.77.59-1.56,1.14-2.34,1.72a2.29,2.29,0,0,0-.3.41,1,1,0,0,0,.21.06c.09,0,.2,0,.27,0,.77.41,1.32,0,1.88-.47a2.75,2.75,0,0,1,.67-.31l.09.14-.46.5c.27.1.58.11.67.26.28.48.65.44,1.08.31s.62-.18,1-.28c.11.42.33.57.7.32l.06.58a1.51,1.51,0,0,1-.54.05c-.61-.24-1.12.11-1.62.28-.26.09-.38.55-.56.84.55.38.08.76-.05,1.07a3.5,3.5,0,0,0,0,2.45c.1.32.48.38.61.09.23-.53.64-1,.39-1.69a2.17,2.17,0,0,1,.05-.94c.11-.86.84-1.25,1.33-1.81,1,.38,1.28,1,.83,2.3l.66-.21.35.94c.46,0,.51-.3.48-.61a1.19,1.19,0,0,1,.61-1.2l.83.38.35-.51c-.09-.24-.1-.48-.23-.62s-.57-.67-.91-.72A9.56,9.56,0,0,1,144,116ZM111.68,89.49c.65.25,1.55-.16,2,.82l-.88-.1c.4.62-.48,1-.25,1.61l.88.29c.62-1,.7-1.1,1.39-.82l-.48.35,0,.08.9-.25-.08-.6,1.27.14.3-1.09-2.06-.45.75-.47A7.76,7.76,0,0,0,111.68,89.49Zm8.48,6.72a.8.8,0,0,0,1.15-.37,3.13,3.13,0,0,1,.66-.59l1.31-1.07L123.2,94c-.22,0-.47-.08-.63,0a3.66,3.66,0,0,0-1,.74c-.54.65-1.21.31-1.83.31-.09,0-.24-.2-.25-.32,0-.58-.52-.6-1.08-.89l.79,1.51a10.81,10.81,0,0,1-1,.62,11.47,11.47,0,0,1-1.13.37l1.2.71C118.85,96.87,119.76,97.2,120.16,96.21Zm12.39,10a2.81,2.81,0,0,0-.66.44,1,1,0,0,0,.35,1.46,4.42,4.42,0,0,1,1.18,1.34,1.53,1.53,0,0,1,.23.65c0,.22.06.45.1.74.75-.26.24-.85.38-1.17A10.54,10.54,0,0,1,132.55,106.2Zm12.16,15.22c.67.75.68.75,1.46.18a5.1,5.1,0,0,1,.71-.32c.5-.26,1.13-.37,1.3-1.23a8.23,8.23,0,0,0-1.08.29C146.29,120.68,145.5,121.06,144.71,121.42Zm4.77-2.59.4.46c-1.62-.12-1.62-.12-2,.55a5.06,5.06,0,0,0,2.64-.3l.33-.87Zm-40.87-8.21v.21c.32,0,.64.06.95.13s.55.09.64.24c.52.92,1.75,1,2.27,1.92.1-.18.16-.35.1-.46a2.53,2.53,0,0,0-.45-.54c-.14-.14-.22-.43-.54-.28,0,0-.15-.33-.28-.44s-.57-.36-.93-.58C109.83,111.32,109.25,110.3,108.61,110.62ZM124.68,99l-1.19-.13L122,100.54c.27.24.43.28.63,0a3.67,3.67,0,0,1,1.79-1.28C124.48,99.24,124.55,99.13,124.68,99Zm4.5,4,.5-1.79C128.84,101.45,128.61,102.12,129.18,103.07ZM154.8,223.86c-.18.39-.18.39.23,1.61.5-.19-.22-.54.13-.85S154.66,224.25,154.8,223.86ZM130.6,107.63l.49,1.41c.39-.66.34-1-.2-1.57ZM114.54,93.92c.63,0,1.2.49,1.71-.11C115.71,93.85,115.17,93.16,114.54,93.92Zm17,15.39,1,1.81A1.71,1.71,0,0,0,131.49,109.31Zm9.67,2.74-.42-.79C140.29,111.9,140.29,111.9,141.16,112.05Zm22.55-4.17,1.16-.68-.05-.11-1.28.46Zm-20.08,46.6-.83-.83-.15.14C142.79,154.12,142.83,154.53,143.63,154.48Zm9.29-43.89.15.17a.82.82,0,0,0,.62-.8ZM121.1,122.31c.14-.59,0-.77-.41-.73,0,0-.06.06-.09.1Zm32.52,102.77.5-.31-.47-.31Zm-1.34-5.55-.17-.09-.23.5.07,0Zm4.16-111.42-.21-.12-.22.45.17.09Zm-1.13,73.6a3.88,3.88,0,0,0,.4.23s.1-.1.08-.12a.53.53,0,0,0-.17-.24S155.48,181.63,155.31,181.71Z" transform="translate(-4.91 -48.39)" fill="#fff"/><path d="M192.58,82c0,.53,0,.53-.45.73l.51.51-.86.29c.07.13.12.3.18.3a6.77,6.77,0,0,0,.78,0,3.23,3.23,0,0,1,.87-.07c.54.09,1.07.26,1.59.39-.18.19-.38.39-.56.6a1.51,1.51,0,0,1-1.14.7,3.94,3.94,0,0,0-1.8.78,5.31,5.31,0,0,1-2.39.8,4,4,0,0,0-1.06.28,1.69,1.69,0,0,1-1.68,0,2.2,2.2,0,0,1,.16.4,1.82,1.82,0,0,1,0,.34l-.87.82c-.11.1-.21.25-.33.29a2.75,2.75,0,0,0-1.41,1.17c-.16.23-.22.55-.66.34-.09,0-.38.29-.63.49l-.4-.33A5.51,5.51,0,0,1,181,91c-.63,0-.43,1-1.15.6.16.42.43.81.34.94-.32.45-.12,1.11-.51,1.43s-.11.91-.74.79c.11.41-.26.64-.34,1a5.68,5.68,0,0,1-.31,1.18,2.27,2.27,0,0,0-.26,1.37c.06.55-.17.69-.66.45s-.86-.19-.72-.78c-.81,0-1-.09-1.15-.73l-1.38.67-1.2-2.2c-.16-.07-.54.42-.61-.17-.44,0-.25-.62-.74-.65-.29,0-.12-.67-.55-.85-.11,0-.06-.45-.09-.73a.83.83,0,0,0,.82-.82l-1,.5a2.7,2.7,0,0,0-1.46-2.15l.38-.9c-.13-.24-.42-.59-.34-.73s-.11-.51,0-.7.49-.46.58-.75a.89.89,0,0,1,.64-.56,4.2,4.2,0,0,1,.92-.08l-.11-1,.56.07c.05-.37-.25-.51-.36-.74s0-.57.09-1a5.19,5.19,0,0,1-1.19-.06,5.48,5.48,0,0,1-1-.57l-.1.14,1.28,1.21c-.95.89-1.58,1-2.33.59a1.54,1.54,0,0,1,.24-.1.3.3,0,0,0,.2-.15l-.92-.19.38-1.36.85-.15-.74-.51c.59-.51.66-.5,3.09.41a2.46,2.46,0,0,1-.1-.73,2.32,2.32,0,0,1,.33-.62l-2.7-.91c-.21.22-.34.48-.53.53a2.66,2.66,0,0,1-.87-.14,7,7,0,0,0,.3-1.25c0-.29.06-.4.34-.5a.62.62,0,0,0,.21-.59,10.13,10.13,0,0,0-.9-1.52c-.11-.16-.37-.23-.55-.33l.27-.58c-.62-.59-1.17-1.11-1.73-1.62,0-.05-.08-.11-.13-.12-1.06-.29-1.91-1.08-3-1.23-.19,0-.42.15-.64.24l-.27-.31-1.87.51c-.31-.27-.7-.61-1.22-.13-.06.06-.34-.13-.58-.23l-.19.66a1.84,1.84,0,0,1-1.63-.37,1.42,1.42,0,0,0-1-.87c-.14,0-.23-.33-.37-.54a1.46,1.46,0,0,1,1.12.12c1.07-.85,2.37-.74,3.77-.74a.89.89,0,0,0-1-.36,6.87,6.87,0,0,1-.88.12,4.41,4.41,0,0,1-.92-.27,1,1,0,0,1-1.29.25,3,3,0,0,1-1.38-1.22.91.91,0,0,1,.82-.55c1-.13,2-.36,3-.51a6.55,6.55,0,0,1,1.25-.06A1.46,1.46,0,0,0,160.59,68H158c0-.74.07-.84.65-1a24.32,24.32,0,0,1,2.37-.78,6.08,6.08,0,0,1,1.41,0l.38-1.1c.57-.24.82.12,1,.38.1-.18.15-.41.29-.52a1.62,1.62,0,0,1,.65-.26c.5-.1,1-.14,1.5-.27s.88.24,1.32,0c.1-.06.26,0,.36-.07.68-.35,1-.25,1.14.46a4.38,4.38,0,0,1,.06.71,1.75,1.75,0,0,1,1.45-.3c-.37-.37-1-.4-1.19-1.15l2.18,1-.57.25,1,.48.16-2.13a1.92,1.92,0,0,1,1.91,1A2.44,2.44,0,0,0,175.75,66c.3-.13.56-.69,1.13-.27a8.12,8.12,0,0,1-2.36-2.1c.64-.05,1.16-.13,1.68-.12a1.08,1.08,0,0,0,1.08-1.13l1.6-.3a4.61,4.61,0,0,0,.27.51c.21.26.43.38.76.12a10.32,10.32,0,0,1,1.22-.86,3.52,3.52,0,0,1,1-.33,4.65,4.65,0,0,1,1.71-.21c.58.08,1.19-.06,1.77,0,.74.12,1.51-.2,2.24.17a2.19,2.19,0,0,0,1,0,5.48,5.48,0,0,1,.89-.09c.73.07,1.46.19,2.34.31l-.72.63.05.12a5.59,5.59,0,0,0,.73-.2c.9-.38.93-.37,1.37.46l3.16.75c-.62.46-1,.84-1.69.78a4.61,4.61,0,0,0-1,.13,2,2,0,0,1-.54,0c-1.53-.28-3.09,0-4.63-.18a1.32,1.32,0,0,0-1.14.5l4-.15.17.61c.06,0,.12.07.17.06.36,0,.71-.06,1.07-.11.12,0,.31,0,.33-.07.4-.9,1.12-.32,1.72-.46,0,1.27-1.13,1.21-1.86,1.59.79.1,1.56.27,2.22-.36a2.8,2.8,0,0,1,.88-.44.69.69,0,0,1,.45,0,2.48,2.48,0,0,0,1.89-.3,3,3,0,0,1,1.4-.12c.71,0,1.42.12,2.14.17.33,0,.66,0,.72.44-.74.34-1.45.65-2.15,1a.9.9,0,0,0-.44.37,1.49,1.49,0,0,1-1.81.89c-.61-.08-1.22-.12-2-.18l.28.74c.72-.33,1.41-.67,2.17-.12-.24.58-.63.95-1.18.91l-1.08,2.09c-.47.09-.87-.44-1.32,0,.56.55,1.46.07,1.88.83l-.7,0,0,.54,1.27-.16.5,1.23-2.06-.4-.59,1a1,1,0,0,0,.38,0c.62-.2.6-.2.83.38a1.42,1.42,0,0,1,.12,1.27l-1-.13.45,1.38a4.11,4.11,0,0,1,.77-.12c.13,0,.26.16.39.25a3.48,3.48,0,0,1-.39.28.3.3,0,0,1-.25,0,.67.67,0,0,0-1,.11c-.14.15-.57,0-.89,0,.12.46.42.23.69.24a2.7,2.7,0,0,1,.78.37,2.41,2.41,0,0,1-2.73.66l1.54,1,.09,1.44-.93-.26c.61.78,1.5,1.34,1.06,2.42a2.19,2.19,0,0,1-2.32-1.26c-.14-.23-.51-.33-.77-.49l-2.26-.53c.13.21.22.43.28.43A13.19,13.19,0,0,0,192.58,82Zm1.32-1.86-.86-.26-.23.26.55.69.54,0Zm-3.81-17.51a4,4,0,0,0-2.49.24Zm8,4.37v.2l1.65-.22A1.45,1.45,0,0,0,198.06,67Zm-6.64,12.77-.18.16.6.51.09-.1Zm-.92,3.65v.09l.62,0v-.06Zm2.37-4.29c.32,0,.65,0,.65-.42Z" transform="translate(-4.91 -48.39)" fill="#fff"/><path d="M305.54,193.45c-.35-.37.35-.27.24-.58-.2-.57,0-1.28-.69-1.71.86-.56.23-1.41.52-2.15.32.34.5.14.74-.06.51-.44.84-1.1,1.54-1.3l.65-.2c.28-.09.66-.11.82-.3a2.73,2.73,0,0,1,1.56-.75,2.54,2.54,0,0,0,1.56-1.8c.1-.46-.05-1.07.63-1.26l.54.68v-1.2l.63.07a4.85,4.85,0,0,1,1.4-1.94c.64-.58.82-.55,1.34.15a4.46,4.46,0,0,1,.28.43l1.2.28-.27-.75.69-.84c0-.06.13-.17.11-.19-.26-.37.06-.62.26-.75a2.13,2.13,0,0,1,.92-.18,3.74,3.74,0,0,1,.75.08c.28-.7-.53-.6-.6-1.09a10.33,10.33,0,0,0,1.45.49c.71.15,1.43.2,2.15.31a.68.68,0,0,1,.4.21c.05.05-.06.23-.1.36a2.23,2.23,0,0,1-.18.45,2.88,2.88,0,0,1-.43.37l-.36,1.55c.42.27.85.51,1.24.8a24.23,24.23,0,0,1,1.93,1.55c.4.37.35.42,1.07.27a17.31,17.31,0,0,0,.55-1.77,9.43,9.43,0,0,0,.06-1.31c.06-.85.12-1.71.21-2.56a11.21,11.21,0,0,1,.28-1.2c.79,1.2,1.53,2.21,1.19,3.7l.74-.25a1.6,1.6,0,0,1,.71,1.59.69.69,0,0,0,.11.51,3.54,3.54,0,0,1,.62,2.29.65.65,0,0,0,.47.67,3.23,3.23,0,0,1,.94.43c.27.24.76.38.65.92a.38.38,0,0,0,.08.31,1.21,1.21,0,0,1,.42,1.45l.5.23a.7.7,0,0,1,.51.75,1.2,1.2,0,0,0,.44.93,9.19,9.19,0,0,1,1.1,1.5,1.74,1.74,0,0,1,.13.86,2.87,2.87,0,0,0,.37,2,1.08,1.08,0,0,1,.07.68c-.08.69-.21,1.38-.28,2.07a3.23,3.23,0,0,1-1.07,2.32,2.31,2.31,0,0,0-.54,1c-.21.55-.36,1.13-.55,1.69s-.4,1.1-.57,1.66c0,.11.08.26.11.4.11.46-.13.76-.63.77h-.91l-1.26,1.7c-.42-.63-1.24-.79-1.09-1.8l-1.32,1.5c-.29-.22-.53-.42-.79-.6s-.31-.28-.44-.27c-.71.07-1.09-.41-1.48-.84a1.35,1.35,0,0,1-.28-.62c-.13-.56-.22-1.14-.33-1.71l-.67.07c-.14-.49.07-1.09-.48-1.5-.25.35-.15,1-.78.91l.69-2.07-.14-.08-1.68,1.46c-.18-.25-.43-.46-.49-.72s-.09-.76-.57-.88c-.05,0,0-.2-.09-.3a4,4,0,0,0-.35-.64.34.34,0,0,0-.31-.11c-.79.3-1.19-.76-2-.52-1.22.34-2.52.42-3.74.78a5.14,5.14,0,0,0-1.73,1.15c-.3.26-.49.53-1,.44a3.7,3.7,0,0,0-1.24,0c-.56.08-1.22-.08-1.57.58-.7-.12-1,.71-1.85.58s-1.19-.83-2-1.34l.7-.08a6.2,6.2,0,0,0-.11-3.11c-.12-.38-.11-.82-.2-1.22a4.56,4.56,0,0,0-.28-.81c-.34-.77-.69-1.53-1-2.29Z" transform="translate(-4.91 -48.39)" fill="#fff"/><path d="M150.41,69.83l2.07.23c-.36.67-1,.75-1.35,1.16-.49.66-1.11.34-1.72.43l-.15.62-1.16.21,1.21.86c-.27.26-.49.61-1,.62a1.67,1.67,0,0,0-.61.28c-.19.11-.37.23-.64.41l-.21-.93c-.37,0-.74.11-1.11.13s-1,.25-1.45-.11a.52.52,0,0,0-.48.17c-.25.49-.6.45-1,.34s-.94-.18-1.4-.27c-.17.1-.52.34-.56.3-.33-.35-1.13.08-1.16-.69.44-.82,1.38-.58,2.07-1l-.72-.75a2,2,0,0,1,2.46.34c.37.38.8.12,1.17.29.07,0,.26-.17.54-.37A3.63,3.63,0,0,1,144,71.8a.56.56,0,0,1,0-.93c-.5.13-.9.27-1.3.35s-.85.09-1.28.13c-.17-.65-.13-.75.43-.94a3.49,3.49,0,0,0,.48-.23s0-.1.07-.18c-.58-.38-1,.23-1.43.34s-.76.56-1.14.85c0,0-.12.09-.16.07-.66-.31-1.27.38-1.94.08-.18-.54-.36-1.09-.55-1.64.38.27.69.08,1-.23l-1,.23-.91.07-.05-.15.33-.27a1.58,1.58,0,0,1-1.23-1.6c.1-.79.84-.53,1.47-.7-.67-.62-1.62,0-2.19-.73.48-.28.9,0,1.31,0,0-.49,0-.49-1.11-.77.45,0,.9,0,1.34,0s.87.21,1.31.25a1.14,1.14,0,0,1,.94.74c.35.74.47.79,1.24.8a6.23,6.23,0,0,1,2,.06c.53.18.57.12.68.83.54,0,.57-.5.64-1,.73,0,1.41-.07,2.09-.06a1.09,1.09,0,0,1,.92.75c.3.63.31.63,1.15.55-.86-.25-.86-.25-.9-1.17l3.11-.27-.64-.35,1.37-.36-.23-.32c-1.68.23-3.32.49-5,.66-.38,0-.73-.09-1.08.24a1,1,0,0,1-.86,0,4.22,4.22,0,0,0-1.79-.23c-.62,0-1.24,0-1.92,0V66.3l-.39,0-.06-.15.8-.41c-.53,0-.92,0-1.11-.51.41-.34.92-.21,1.48,0a5.89,5.89,0,0,1,.6-.5,5.68,5.68,0,0,1,.63-.27c.87.67,1.78.31,2.68.25-.66-.26-1.46.26-2.17-.56l1.32-.17V63.4c.94.51,2.06.3,2.83,1.3l.49-1c.27.1.63.35.81.26.45-.24,1,.15,1.4-.3.07-.08.27-.06.4-.09s.59,0,.76-.19A1.74,1.74,0,0,1,151,63c.7.07,1.45-.21,2,.24.37-.14.67-.26,1-.36.14,0,.36,0,.42-.1.45-.66,1.06-.33,1.63-.29s.88,0,1.32,0,.69,0,1.1.07l-.25.59c.11,0,.23,0,.27,0a1.24,1.24,0,0,1,1.52-.4c1.07.32,2.13.69,3.38,1.1a17.92,17.92,0,0,1-4,1.79l1.63-.4a2.16,2.16,0,0,1-1.89,1,3.64,3.64,0,0,0-2,.76c-.39.32-.91.17-1.29.53a5.08,5.08,0,0,1-1.22.66c-.18.1-.44.15-.53.31-.27.45-.68.4-1.09.4s-.8,0-1.2,0c-.08,0-.16.07-.23.1.32.39,1.11,0,1,.83-.18,0-.35,0-.44-.09-.65-.57-1.19-.18-1.74.17-.45-.14-.45-.14-.85.43Zm-4.76.18c-.6-.25-1.14,0-1.57-.32l.45-.37c-.64,0-.64,0-1.51.69Zm5.57-1.11c-.19-.51-.43-.13-.64-.1,0,0,0,0-.05.1Zm6.42-5.41,0-.1-.76.18.05.17Z" transform="translate(-4.91 -48.39)" fill="#fff"/><path d="M157,83.14l-.38.46.42.32.29-.41c.71.43.7.53-.17,1.18l.89.4s.05.1.11.21l-.7.09c.12.49.12.49-.24.9l1.9,1.33.86-.33v.45c.7-.22.69.3.77.77.37,0,.82-.2,1-.05.41.37.64,0,1-.16l.51.67-.39.75-.43-.28-.6,1.36-.35.15.1.71c-.12,0-.21.13-.27.11a1.75,1.75,0,0,1-1.12-.65,1.2,1.2,0,0,0-.44-.4,2.76,2.76,0,0,1-1.48-1.33c-.15.32-.35.54-.32.74.06.48-.41.1-.48.4.79.43,1,1.63,2.14,1.69.27,0,.48.56.29.78-.34.41-.23.78,0,1.3-.55-.4-.93-.73-1.59-.62a6.89,6.89,0,0,1-1.94-.34c.84,1.09,2,1.32,2.89,2l-.06.57c-1.55-.72-3.2-.2-4.87-.58l.58-.49c-.77,0-.84,0-1.34-.91a1.51,1.51,0,0,0-.88-.71c-.08,0-.22-.12-.24-.09-.4.44-1.05.18-1.47.55a1.05,1.05,0,0,1-1,.32c-.66-.17-.73-.26-.57-1,.06-.29.11-.58.16-.83l3.89-.54-1-1.39.68-.78c.2-.23.47-.41.34-.82,0-.13.22-.36.38-.58a6.89,6.89,0,0,0-.26-.76c-.12-.26-.22-.61-.43-.71-.47-.23-.27-.52-.15-1l-1.17.71c-.5-.51-.5-.51-.15-1.12a10.6,10.6,0,0,1-.93-1c-.25-.34-.49-.26-.8-.06l-.26-.62c-.07,0-.13-.08-.17-.07a4.28,4.28,0,0,1-1.85,0,.62.62,0,0,0-.27,0l-.51.07.48,1.1-1.08-.75.1.43-3.51-.43-.65-.69-.47.21a7.33,7.33,0,0,1-.87-.68c-.06-.06.1-.32.17-.54-.89.29-1.21-.45-1.78-1,.46-.86.92-1.76,1.43-2.63.28-.47.85-.41,1.3-.47a11.78,11.78,0,0,1,2.06,0c.19,0,.38.19.64.33a1.56,1.56,0,0,1,1.92,0c.48-.34.94-.69,1.57-.38.1,0,.28-.05.42-.09.8-.18.93-.11,1.25.69.07.16.12.32.2.54l-1,.29c.69.26,1.27.49,1.86.67a1.81,1.81,0,0,0,.69,0c.45,0,.78,0,1,.51.13.41.52.72,0,1.12,0,0,.09.25.17.46l.41-.5.28.51.72-.55c.07.43.69.32.61.84,0,0,0,.07,0,.07.5-.38.73.26,1.13.3A4.86,4.86,0,0,1,157,83.14Zm-13.09-2.66v-.16a1.13,1.13,0,0,1-.32,0,.53.53,0,0,1-.19-.9l.94-.89c-.79,0-1.39.16-1.62.74a2.08,2.08,0,0,0,.09,2.11,2.69,2.69,0,0,1,.28.69l.46.06.13-.8L143,80.7Zm13,9.2c-.32-.81-1.28-.55-1.71-1.18-.47.72,0,1.21.16,1.68ZM146.59,81.3c.63,0,.11-.49.37-.66s.41-.41.84-.2a1.81,1.81,0,0,1,.64.43l.28-.46.74.18c-.84-1-1.94-.56-2.87-.67Zm8.08,10.29v1.09l.87-.1-.2-.91Z" transform="translate(-4.91 -48.39)" fill="#fff"/><path d="M119.85,86.3c-.07-.59-.42-.83-1-.8a1.72,1.72,0,0,1-1.25-.6c-.31-.27-.26-.56-.09-.93,1.11.1,2.16-.52,3.31-.26a.75.75,0,0,0,.92-.57,4.61,4.61,0,0,0-.79-.16c-.43,0-.86,0-1.28,0-.82,0-1.63.08-2.44.08a2.34,2.34,0,0,1-.69-.23l0-.19,1.75-.61,0-.15-1.91.35.1-.47h-1.07a5.74,5.74,0,0,1,.35-.6,3.2,3.2,0,0,0,.79-1.1c.1-.33.72-.63,1.15-.69a2.55,2.55,0,0,0,1.44-.62c.22-.21.46-.37.7-.15a1,1,0,0,1,.22.62c0,1,.14,1.14,1.17,1.39l.11-1.51a1.67,1.67,0,0,1,1.39,1l.71-.85c.57-.05.87.44,1,.82a3,3,0,0,1-.1,1.28l.17.09.65-.87h1a.85.85,0,0,1,.9.67,12.22,12.22,0,0,0,1,1.78c.21.36.49.35.79,0,.39.78,1.07.87,1.9.73l.11,1.2-1.17-.7.24,1.15c-.95.65-1.37.7-3.42-.2l.08-.56c-.09,0-.16-.06-.19,0a10.59,10.59,0,0,1-2.85,1.43,5.29,5.29,0,0,1-1.21.23c-.23,0-.48,0-.71,0A2.26,2.26,0,0,1,119.85,86.3Zm8.82-1.77-.15.16c.18.24.31.58.89.34Z" transform="translate(-4.91 -48.39)" fill="#fff"/><path d="M330,174.48c-.33.44-.51.92-.77,1a7.23,7.23,0,0,1-1.86,0c-.11,0-.27-.17-.3-.29-.19-.72-.73-.59-1.23-.54a5.47,5.47,0,0,0-.8.19l-.1-.2.92-.72c0-.15-.1-.34-.14-.54-.09-.37-.16-.74-.26-1.1s-.17-.59-.3-.61c-.83-.13-1.31-1-2.21-1a.66.66,0,0,1-.63-.39c-.35-.53-.63-.56-1.15-.22l-.73-1.07,1.13-.26,0-.19c-.82.17-1.3-.42-2-.75.11-.19.17-.44.32-.55.7-.53,1.45-.29,2.27-.08a4.83,4.83,0,0,0,0,1.32,4.64,4.64,0,0,0,.7,1.08c.61,0,.68-.56,1-.84a11.81,11.81,0,0,1,1-.74,5.59,5.59,0,0,0,2.26.81c.22,0,.44.29.68.41.53.25,1.09.47,1.62.73s1.08.59,1.62.89a.13.13,0,0,1,.05.07,3,3,0,0,0,1.87,1.62c.34.13.32.51,0,.81a.71.71,0,0,0-.06,1.11c.42.47.82,1,1.24,1.42l1.08,1.22a3.75,3.75,0,0,1-2.32-.66c-.4-.43-.94-.74-1.12-1.36a.59.59,0,0,0-.39-.33C330.91,174.61,330.36,174.54,330,174.48Z" transform="translate(-4.91 -48.39)" fill="#fff"/><path d="M374.12,90.08l.19-.28c-.06-.07-.09-.14-.13-.14a5,5,0,0,1-1.31-.24,6.86,6.86,0,0,1-1-.92,7,7,0,0,0-.78-.5V87l1.41-.06c.55,0,1-.22,1.11-.84a2.79,2.79,0,0,1,.34-.82c.51-.8.68-.88,2-1v16l-1.24.64-.71-1.81-1,.46c-.32-.48-.61-.87-.85-1.3-.06-.11.06-.31.11-.54.06,0,0,0,0,0-.94-.32-1.07-.86-.36-1.54a7.29,7.29,0,0,1,.82-.62l-.36-.57a.7.7,0,0,1,.21-.14c.11,0,.29-.07.35,0,.77.72,1.37-.08,2-.25.2-.06.49-.57.42-.7a1.47,1.47,0,0,1,0-1.2c-.79,0-1.39.52-2.17.3a8.12,8.12,0,0,0-2.07-.1L370,91.38c.14-.56.67-.39,1.14-.38.24-.8.95-.84,1.65-1l.09,1c.61.14,1.23.4,1.82,0l-.41-.38,1,0v-.18Z" transform="translate(-4.91 -48.39)" fill="#fff"/><path d="M308.63,162.06a20.14,20.14,0,0,0,.33,2.16,3.63,3.63,0,0,0,.63.95l-.76.38a5.91,5.91,0,0,1-.53,2.33c-.14.23-.07.65-.33,1a2.23,2.23,0,0,1-1.29,1,2.06,2.06,0,0,0-1.64-.25c-.29.06-.57.12-.81-.18a.66.66,0,0,0-.54-.13c-.46.11-.67-.1-.77-.51a6.77,6.77,0,0,0-.22-.77,1.22,1.22,0,0,0-.23-.47,2.39,2.39,0,0,1-.2-3.43l1.16.41c.09-.14.28-.3.29-.48a.85.85,0,0,1,.93-.87,1,1,0,0,0,1-.67,2.17,2.17,0,0,1,1-1c.33-.19.86-.27.59-.89,0,0,.14-.17.21-.26l.77-1.11a1.09,1.09,0,0,1,1,.84c.09.32.57.54.86.8-.18.42-.84.37-.73,1A4.06,4.06,0,0,1,308.63,162.06Z" transform="translate(-4.91 -48.39)" fill="#fff"/><path d="M252.92,178.86a4.32,4.32,0,0,1,.76,1.13c.44,1.58.41,1.64.06,2.41l-.34-.24c0,.05-.11.1-.1.12.44,1.1-.11,2.08-.38,3.09-.16.6-.36,1.18-.53,1.78-.23.83-.43,1.67-.67,2.49-.16.58-.38,1.13-.53,1.71a1.48,1.48,0,0,1-1.33,1,1.44,1.44,0,0,1-1.16-.66,10.77,10.77,0,0,1-.88-2.58,2.67,2.67,0,0,1,.7-2.11,1.22,1.22,0,0,0,.25-1.39,3.49,3.49,0,0,1-.18-.79,1.79,1.79,0,0,1,1.12-2.28l.5-.19a1.49,1.49,0,0,0,1-.69c.17-.32.68-.45.65-.95a.27.27,0,0,1,0-.09c.12-.32.68-.25.63-.76a3.55,3.55,0,0,1,.15-1Z" transform="translate(-4.91 -48.39)" fill="#fff"/><path d="M260.08,83.5l-.89-.09a.81.81,0,0,1-.85.38,10,10,0,0,0-1.73,0c0-.43-.05-.87.76-1-.53-.2-1.06-.1-.93-.73l-1.29.29c-.44-.89-.39-1,.46-1.23l.32-1.55.73-.28c0-.4.11-.84-.5-1a10,10,0,0,0,2.18-1.78,1.59,1.59,0,0,1,1.14-.51,4.67,4.67,0,0,0,1.66-.57c.58-.19,1.15-.4,1.88-.66.26-.44.28-.47.9-.19s1.17,0,1.71-.19a14.41,14.41,0,0,0,1.85-.81c.48-.21.68-.17.91.21s.17.61-.29.85a5.83,5.83,0,0,1-1.33.52c-1,.26-2.08.46-3.12.7a2.42,2.42,0,0,0-.58.23,6.31,6.31,0,0,1-2,.89.61.61,0,0,0-.29.2,10.63,10.63,0,0,0-1.77,2c-.48.91-1,1.93-.4,3,.26.47.55.68,1.46,1.06Z" transform="translate(-4.91 -48.39)" fill="#fff"/><path d="M209,100.72a3.22,3.22,0,0,1,.63-.11,3.47,3.47,0,0,1,.63.11,2.82,2.82,0,0,1-.24.63,7,7,0,0,1-.65.74l2.09-.11c-.27.57-.48,1-.62,1.35a5.37,5.37,0,0,0-.15,1,3.48,3.48,0,0,1,1.11,1.48c.11.33.48.58.74.86s.61.3.54.8c0,.29.18.61.27.88a7.22,7.22,0,0,1,.8.08.36.36,0,0,1,.23.25c.13.77-.41,1.09-1.1,1.41l.63.36a.85.85,0,0,1-.86.48,3.45,3.45,0,0,0-1.8.19c-.13,0-.28,0-.42,0l-.73.13c-.13,0-.27.17-.38.15a1,1,0,0,0-1.09.43c-.05.08-.31,0-.55,0a8.29,8.29,0,0,1,1-1.37c.22-.2.65-.18,1-.21s.63,0,.53-.47a5.4,5.4,0,0,1-1.66.07c-.12,0-.3-.1-.32-.19a.44.44,0,0,1,.15-.35c.17-.17.42-.27.54-.46s0-.44-.25-.46l.22-1,1.06.23.25-1c-.19-.28-1-.18-.38-.89l-1.43.14v-1.53l-.53-.08.25-.46C207.73,102.74,208.61,101.78,209,100.72Z" transform="translate(-4.91 -48.39)" fill="#fff"/><path d="M297.34,167l.84.34c.13.5.06,1,.78,1.24.23.06.43.69.45,1.06a10.93,10.93,0,0,1-.19,1.69l-.86.28c-.1,0-.26.05-.31,0-.58-.55-1.42-.76-1.72-1.7a17,17,0,0,0-1.39-2.88,10.31,10.31,0,0,0-.87-1.13,2.8,2.8,0,0,1-.38-.7c-.19-.57-.15-1.27-.95-1.45-.35-1-1.27-1.62-1.89-2.44a1.15,1.15,0,0,1-.28-1.21,3.68,3.68,0,0,1,.57.06c.14,0,.27.25.37.23,1.2-.23,1.49.84,2.11,1.45l.64.6c.08.08.24.14.26.23.18.8.93,1.12,1.39,1.68a2.45,2.45,0,0,0,.65.5A1.56,1.56,0,0,1,297.34,167Z" transform="translate(-4.91 -48.39)" fill="#fff"/><path d="M138.91,73.8l.75.44-.58.42a.24.24,0,0,0,.09,0,2.56,2.56,0,0,1,.59.13,3.71,3.71,0,0,0,1.67.41,16.53,16.53,0,0,0,2.58-.39,4,4,0,0,1,2.15.18,2.15,2.15,0,0,0,.57.13,1.58,1.58,0,0,1,1.2.67L147.1,77a3.93,3.93,0,0,1-.92.1c-1.19-.14-2.36.15-3.54.11-.54,0-1.08,0-1.62,0s-.54,0-.9-.5c-.53.83-1.4.43-2.26.64a7.74,7.74,0,0,1,0-1.53c.1-.43.12-.8-.24-1a2.39,2.39,0,0,0-1.19-.5,2.19,2.19,0,0,1-2.18-.89c.08-.48.41-.51.79-.45s.7.11,1,.2a3.76,3.76,0,0,1,.55.23c.18.08.4.28.53.23a2.41,2.41,0,0,1,1.75.24Z" transform="translate(-4.91 -48.39)" fill="#fff"/><path d="M327.34,122.37a7,7,0,0,1,.92,1,1.81,1.81,0,0,1-.27,2.37c-.09.1-.25.22-.24.32.08.92-.36,1.81-.15,2.74a1.82,1.82,0,0,1-.19.83c-.36.31-.55-.28-.78.08l-.32.5a2,2,0,0,0-.63,0,1.33,1.33,0,0,1-1.21-.07,8.24,8.24,0,0,1-.69.95c-.14.14-.53.29-.6.22a1.54,1.54,0,0,1-.29-.69c0-.09,0-.22.06-.38l-.73-.13.41.78c0,.6-.51.63-.93.69l-.34.82-.6-.94a1.9,1.9,0,0,1,1.15-1c-.77-.12-1.49.55-2.29.08a2.69,2.69,0,0,0,1.56-1,.91.91,0,0,1,.38-.22,5.82,5.82,0,0,1,1-.2,4.53,4.53,0,0,1,.87.16l.74-2,.24.52c.49-.23,1-.38,1.22-.93s.66-.77.91-1.2a2.38,2.38,0,0,0,.37-1.57A5.26,5.26,0,0,1,327.34,122.37Z" transform="translate(-4.91 -48.39)" fill="#fff"/><path d="M111.39,77.63c.79-.24,1.55-.49,2.32-.7a.76.76,0,0,1,.49.12,4,4,0,0,0,2.39.51,2.38,2.38,0,0,1,2.12,1c0,.33-.34.3-.59.34a4.32,4.32,0,0,0-2.54,1.37,2.15,2.15,0,0,0-.41.66c-.36.93-.68,1.1-1.86.81a3.83,3.83,0,0,1-.44.57.59.59,0,0,1-.92-.09l-.9-1.07A7.43,7.43,0,0,0,111.39,77.63Z" transform="translate(-4.91 -48.39)" fill="#fff"/><path d="M226.64,71.43,225,70.65c-.35.12-.75.74-1.33.6a4.63,4.63,0,0,1-.63-1.12c-.08-.36,0-.75-.24-1.08,0,0,.18-.3.3-.33a10.22,10.22,0,0,1,1.15-.19l-.13.84c.7-.76.7-.76,1.53.27a1.57,1.57,0,0,1,.76-1.42,4,4,0,0,1,1,.45,3.25,3.25,0,0,1,1,1.22,1.21,1.21,0,0,0,1.11.85,2.17,2.17,0,0,1,.41.22c-.33.12-.54.18-.75.25-.39.15-.65.32-.58.85a1.15,1.15,0,0,1-.32.93c-.45.27-.61.93-1.26.92-.07,0-.16.19-.2.3-.19.43-.43.51-.65.15s-.86-.54-1.32-.74-.43-.12-.51-.76l.76,0,.26-.67-1.2.06-.1-.55c.47-.08.91-.17,1.36-.21s.86,0,1.29,0Z" transform="translate(-4.91 -48.39)" fill="#fff"/><path d="M193.77,92.15l1-.48,0-.48-1.22.25.69-1.1.72.42-.19-.55c.71-.09.8,0,1,1.33l.87-1.14a.64.64,0,0,1,.12.07,1.59,1.59,0,0,1,.15.21l.85-.58.16.49c.58-.45,1.53.06,1.93-.8,1,.44,1,.44,1.14,1.16a3.82,3.82,0,0,1,.38.11l.41.2.07.71c-1.08.64-1.94,1.75-3.42,1.43-.23.13.11.62-.4.62s-1,.26-1.34-.16-.88-.42-1.39-.42c-.21,0-.42,0-.63,0l-.05-.18.61-.38C194.79,92.33,194.79,92.33,193.77,92.15Z" transform="translate(-4.91 -48.39)" fill="#fff"/><path d="M150.3,250.12a1.43,1.43,0,0,1,1.89-.48c.9.46,1.42-.32,2.1-.53.13,0,.24-.42.22-.62a4.57,4.57,0,0,0-.3-1.21c-.29-.73-.19-1.07.48-1.42.16-.08.32-.12.52-.2a2.08,2.08,0,0,1,.22.41c.29.93.5,1.89.87,2.78a3.26,3.26,0,0,1,.16,1.92c-.06.29-.11.58-.17.87A4.33,4.33,0,0,1,150.3,250.12Z" transform="translate(-4.91 -48.39)" fill="#fff"/><path d="M353.65,209.27l.44.86H355a3.75,3.75,0,0,1-1,2.39c-.25.34-.27.33-.23.83l-1.29.56a4.39,4.39,0,0,1-1.19,2.33,1,1,0,0,1-1.15.23l-1.6-.61a3.9,3.9,0,0,1,2.25-2.51,3.13,3.13,0,0,0,1.69-1.77c.18-.55.67-1,.66-1.63C353.1,209.74,353.44,209.52,353.65,209.27Z" transform="translate(-4.91 -48.39)" fill="#fff"/><path d="M119.57,77.06a4.76,4.76,0,0,1,2.59-1,1.53,1.53,0,0,0-1.34-.32c-.37.09-.74.15-1.17.24l-.19-.91c-.08.32-.11.42-.14.53-.12.56-.12.54-.72.45a4.58,4.58,0,0,1-1.26-.22l.47-.39-.36-.22.63-.27-.19-.59a2.82,2.82,0,0,1,2.38,0,12.71,12.71,0,0,0,1.62.69,5.93,5.93,0,0,0,1.65.09c-.31-.27,0-.79-.53-1-.06,0-.06-.26-.06-.4,0-.29.06-.58.08-.87.31-.16.5,0,.51.26,0,.54.51.61.82.86.08.07.32,0,.55-.09a.91.91,0,0,0,.64.9l.14-.76a.53.53,0,0,1,.56.47,3.65,3.65,0,0,1,.11,1.14c0,.13-.29.3-.47.33a3.77,3.77,0,0,1-1.63.21,4,4,0,0,0-1.69.15,1.52,1.52,0,0,0-.92.45,1.6,1.6,0,0,1-1.46.51A2.43,2.43,0,0,1,119.57,77.06Z" transform="translate(-4.91 -48.39)" fill="#fff"/><path d="M58.65,208.56c.56.31.57.92,1.2.91.33,0,.31.48.18.75-.22.45-.52.86-.77,1.3s-.34.65-.54,1.06c-.69,0-1.09.52-1.38,1.26a6.81,6.81,0,0,1-1,1.61c-.3.38-.74.3-1.14.13a3.51,3.51,0,0,0-.56-.26c-.29,0-.64.07-.71-.34a1.06,1.06,0,0,1,.29-1.14,10.15,10.15,0,0,1,1.56-1.18,5.77,5.77,0,0,0,2.44-2.73c.09-.17,0-.41.11-.6A5.78,5.78,0,0,1,58.65,208.56Z" transform="translate(-4.91 -48.39)" fill="#fff"/><path d="M313.12,170.9c-.45-.16-.62.15-.82.6-.64-.59-.48-1.42-.94-2.11-.12.18-.28.31-.3.46-.08.6-.11,1.21-.17,1.87l-.81.09a1,1,0,0,1,0-1.12.57.57,0,0,0-.08-.8c-.46-.3-.27-.68-.22-1a9.12,9.12,0,0,1,.21-1,6.8,6.8,0,0,0,.36-2c0-.57.85-.93,1.45-.73a2.25,2.25,0,0,0,2.57-.37,1.6,1.6,0,0,1,.3-.17c0,1-.58,1.48-1.43,1.37s-1.41-.1-2.09-.15c-.32,1.06-.32,1.06.25,1.49l1.77-.11.05.82-1.6.38a6,6,0,0,1,1.47,2.57Z" transform="translate(-4.91 -48.39)" fill="#fff"/><path d="M133.45,78.75l-.79.29,1,.92.5-.18c.06.26.2.51.15.71a1.59,1.59,0,0,1-.43.91,14.82,14.82,0,0,1-1.84.9l-1.68-1.62c-1,.24-1.45-.12-1.49-1.21.66.11,1.22.78,2,.32l.07-.54-.85-.33c.18-.8.27-.85.95-.73.48.09.77-.38,1.21-.47.16,0,.28-.19.44-.3.12.24.16.5.31.63S133.53,78.28,133.45,78.75Z" transform="translate(-4.91 -48.39)" fill="#fff"/><path d="M228.8,68.23c.51-.15.56-.64.73-1l2.57,1.14.88-.63.25.55c.81-.86,1.53.16,2.36,0-.15.73-.74,1-1.17,1.34-.22.18-.55.22-.73.54-.07.12-.39.15-.58.13-.74-.09-1.47-.22-2.2-.32-.42-.06-.84-.08-1.25-.12s-.31,0-.53-.42l1.24-.21V69a1.45,1.45,0,0,0-1,0,.76.76,0,0,1-1-.19l.37-.66Z" transform="translate(-4.91 -48.39)" fill="#fff"/><path d="M169.79,114.29c-.15,0-.35-.09-.44,0a7.39,7.39,0,0,0-.77.72l-.18-.91c-.8,0-1.54,0-2.28,0-.28,0-.57.11-.86.13a.51.51,0,0,1-.38-.12.49.49,0,0,1,.06-.4c.16-.22.52-.37.19-.72l.83-.65c0-.07-.15-.2-.13-.32,0-.38.14-.74.2-1.12a1.28,1.28,0,0,1,1.39-1.24c0,.76-.8,1.24-.75,2,.75-.29.75-.29,1,.44l1.68-.09c-.08.48-.22.92.22,1.23l.69-.14c-.41.39,0,.92-.53,1.17Z" transform="translate(-4.91 -48.39)" fill="#fff"/><path d="M353.88,202.91c.9.27,1.53.54,1.53,1.49a5.42,5.42,0,0,0,.32,1.26l.5-.38a1.61,1.61,0,0,1,.25.42c.23,1,.53,1.15,1.46.82a1.67,1.67,0,0,1,.5,0,1.27,1.27,0,0,1,0,.55c-.2.43-.27,1-.86,1.12a.36.36,0,0,0-.19.27c0,.82-.73,1.26-.91,2,0,.07-.13.12-.25.22l-.81-.33c.08-.46.54-.9.13-1.34a13,13,0,0,0-1.06-.92,3.31,3.31,0,0,0,.39-.3,1.49,1.49,0,0,0,.5-1.45,4.11,4.11,0,0,0-.76-2A7.09,7.09,0,0,1,353.88,202.91Z" transform="translate(-4.91 -48.39)" fill="#fff"/><path d="M291.7,66.35c.5.41,1,.8,1.5,1.25.14.12.11.42.14.58l.87.82.31-.29.47.58a3.08,3.08,0,0,1-.15.28,2.25,2.25,0,0,1-2.34.61c-.81-.17-1.6-.36-2.57-.59l1.8-1.21a5.07,5.07,0,0,1-1.24.14,6.26,6.26,0,0,1-1.26-.45,3,3,0,0,0,1.18-.93C290.65,66.77,291.24,66.62,291.7,66.35Z" transform="translate(-4.91 -48.39)" fill="#fff"/><path d="M112.35,74.93l-.7-.82c1-.67,2-1.36,3-2a2.16,2.16,0,0,1,2-.09c.6-.72.77-.81,1.13-.58.54.33.56.61.11,1.42l-.5-.06c.17.8-.65.75-.91,1.17-.66-.13-.22-.57-.29-1-.5.6-.94,1.1-1.34,1.63-.21.27-.36.27-.72.2A6.43,6.43,0,0,0,112.35,74.93Z" transform="translate(-4.91 -48.39)" fill="#fff"/><path d="M59.81,207.22a1.86,1.86,0,0,0,.88-1.91c0-.42-.39-.8-.22-1.27,0,0-.07-.15-.13-.22a6.86,6.86,0,0,1-.56-.67,5.27,5.27,0,0,1-.31-.86c1.42.26,1.17,1.47,1.46,2.43l.68-.21c.08.33.17.66.25,1a1.44,1.44,0,0,0,1.87,0,1.79,1.79,0,0,1-.66,1.73,2,2,0,0,0-.48.69c-.3.64-.7,1.22-1.07,1.84l-.67-.24a3.57,3.57,0,0,0,0-1.32C60.65,207.79,60.19,207.56,59.81,207.22Z" transform="translate(-4.91 -48.39)" fill="#fff"/><path d="M208,105.64l.26.91c-.24.2-.56.36-.67.62a1.34,1.34,0,0,0,0,.86,1,1,0,0,1-.45,1.22,12.56,12.56,0,0,1-1.24.81,1.24,1.24,0,0,1-1.19-.13.35.35,0,0,1-.1-.57,5.6,5.6,0,0,0,.42-.62c.12-.2.2-.42.32-.66l-.73-.33c-.05-.48.91-.5.29-1.15a2.81,2.81,0,0,1,.61-.08c.4,0,.49-.27.64-.49s.14-.49.28-.56a1.39,1.39,0,0,1,.76,0A4.88,4.88,0,0,1,208,105.64Z" transform="translate(-4.91 -48.39)" fill="#fff"/><path d="M306.53,174.68c-.2,0-.43.1-.59,0-1.15-.55-2.49-.37-3.64-.91a.73.73,0,0,0-.44,0c-.85.22-1.53-.36-2.29-.51-.26-.05-.4-.57-.94-.28l.47-1.1c.52,0,1,0,1.56,0,.27,0,.51.23.78.3.45.13,1,.39,1.35.26a2.11,2.11,0,0,1,1.51.07,3,3,0,0,0,.46.07l.19.9,1.05.11.56,1.11Z" transform="translate(-4.91 -48.39)" fill="#fff"/><path d="M329.4,108.33c.07-.43-.37-.88.2-1.16.06,0,.15.06.15.09,0,.88.45,1.68.31,2.59a10.55,10.55,0,0,0,0,2.1c0,.16.17.31.27.45a2.24,2.24,0,0,1,.44.87l-.24-.16c-.43-.31-.75-.25-.84.24-.18,1-.66,2,.13,3,.12.14.1.39.18.76l-.81-.7-.47.39c0-.21,0-.35,0-.5a38.71,38.71,0,0,0,.12-5c0-.5-.11-1-.15-1.51A1.38,1.38,0,0,1,329.4,108.33Z" transform="translate(-4.91 -48.39)" fill="#fff"/><path d="M129.39,75l.68,0-.41-1.33.21-.13c.57.25.68,1,1.29,1.27.14-.37-.11-.65-.38-1l.47-.19-.37-.41c.54-.25.54-.25.89.57l.29-.69a.93.93,0,0,1,.21.06c.9.66.86,1.77,1.22,2.68,0,.12-.21.5-.35.5-.79,0-1.58,0-2.45,0l.28-.94-1.8.42.25-.93Z" transform="translate(-4.91 -48.39)" fill="#fff"/><path d="M331.57,120.3c-.22.08-.42.23-.6.21a1.11,1.11,0,0,0-1.31.88c-.76.07-.76.07-1.26-.43l-1,.16.52.6-.7.37-.38-1.1.57-.8.54.16c.08-.07.14-.11.15-.15a5.08,5.08,0,0,0,.19-.84c.05-.45.34-.91,0-1.36-.07-.08,0-.3.07-.46.15.07.34.1.43.21a6.41,6.41,0,0,1,.55.81c.25.41.43.84,1.09.67.23-.06.55.23.89.38Z" transform="translate(-4.91 -48.39)" fill="#fff"/><path d="M311.51,152.37c-.15-.34-.52-.6-.36-1.05,0,0,0-.15,0-.16-.69-.2-.41-.93-.82-1.37.66-.14.6-.66.67-1.08s.12-1.11.18-1.68l1.24.21c0,.22-.1.55,0,.74a1.26,1.26,0,0,1-.25,1.6,1.91,1.91,0,0,0-.22,1.91l1.63.17.31,1.31-.12.07c-.17-.15-.42-.27-.51-.46-.22-.47-.74-.27-1.07-.51-.1-.08-.45.17-.69.27Z" transform="translate(-4.91 -48.39)" fill="#fff"/><path d="M144.24,143.21a1,1,0,0,1,1-1.26,13.55,13.55,0,0,1,2.27.19c.79.76,1.94.9,2.77,1.63a9.82,9.82,0,0,0,1.88,1.06c-.4.51-.43.52-2.58.55l.22-.58a3.64,3.64,0,0,1-.7-.45,3.53,3.53,0,0,1-.45-.73,2,2,0,0,1-1.38-.54,4,4,0,0,0-1.4-.73,1.18,1.18,0,0,0-.81.22A6.24,6.24,0,0,0,144.24,143.21Z" transform="translate(-4.91 -48.39)" fill="#fff"/><path d="M313.26,157.38l.31.35a2,2,0,0,0,1.58-1.11,1.74,1.74,0,0,1,.63,1.65c-.16.35-.36.67-.48,1a10.62,10.62,0,0,0-.29,1.07c-1.45-.32-1.55-.81-1.22-1.57-.91-.27-1.17-.24-1.63.18C312,158.13,312.61,157.81,313.26,157.38Z" transform="translate(-4.91 -48.39)" fill="#fff"/><path d="M330.28,209.4c1.09,0,1.89,1,2.81.13.72.91-.18,1.73,0,2.64l-.4-.08c-.13.21-.23.55-.41.61a.72.72,0,0,1-.79-.44,10,10,0,0,1-.43-.94c-.15-.32-.3-.64-.43-1S330.42,209.78,330.28,209.4Z" transform="translate(-4.91 -48.39)" fill="#fff"/><path d="M127.14,71.12c.25-.89-.62-.89-.93-1.28.3-.68.75-.64,1.62.11l.24-.44.54.23a2.15,2.15,0,0,0,.45.14c.24.05.5.08.74.14.54.14.91.61,1.53.65.25,0,.5.54.66.87.06.12-.08.43-.22.52a.68.68,0,0,1-.55,0,10.06,10.06,0,0,1-.94-.67,2.46,2.46,0,0,0-2.8-.26A1.73,1.73,0,0,1,127.14,71.12Z" transform="translate(-4.91 -48.39)" fill="#fff"/><path d="M81,262.38l-.08,1a2.09,2.09,0,0,1-2.12.24c-.52-.25-.64-.57-.38-1.13a1.46,1.46,0,0,0-.15-1.4c.83-.26,1-.19,1.49.33A11.14,11.14,0,0,0,81,262.38Z" transform="translate(-4.91 -48.39)" fill="#fff"/><path d="M144.49,93.61c.07-.36.29-.7-.14-.74-.16,0-.41.28-.51.49s-.09.59-.23.84-.49.37-.78,0a1.08,1.08,0,0,0-.37-.24c-.12-.06-.25-.1-.37-.15a1.48,1.48,0,0,1,.2-.44,3.74,3.74,0,0,1,.55-.38,3.25,3.25,0,0,1,.14-1.91l.28.06-.1.5c1.18-.12,1.7.69,2.24,1.59h.79L146,94Z" transform="translate(-4.91 -48.39)" fill="#fff"/><path d="M375.12,263.11s0,.16,0,.27c-.07.89-.13,1-.8,1.12a1.68,1.68,0,0,1-1.74-.6.94.94,0,0,1,0-.66,1.15,1.15,0,0,0-.13-1.34,1,1,0,0,1,1.27,0Z" transform="translate(-4.91 -48.39)" fill="#fff"/><path d="M157.31,146.85c-.82-.24-1.37.29-2,.15-.16,0-.37.22-.57.35-.53-.41-1.18-.2-1.78-.24s-.46,0-.82-.53l1.76.17-.37-1.19,1.21-.07a1.54,1.54,0,0,1,.53,0c.57.22,1.13.46,1.68.73C157.05,146.34,157.11,146.54,157.31,146.85Z" transform="translate(-4.91 -48.39)" fill="#fff"/><path d="M298.52,70.8l-1.1.39c-.14,0-.31.19-.41.16a2.7,2.7,0,0,0-2.16.39s-.11,0-.15-.06c.4-.79.8-1.6,1.22-2.38a.46.46,0,0,1,.45-.11,15.56,15.56,0,0,1,1.75,1C298.3,70.27,298.38,70.55,298.52,70.8Z" transform="translate(-4.91 -48.39)" fill="#fff"/><path d="M278.11,156.3c.41.7.87,1.37,1.21,2.09a1.08,1.08,0,0,1-.46,1.53c-.49.28-.93.17-1-.38a3.3,3.3,0,0,1-.09-1.92,5.83,5.83,0,0,0,.22-1.26Z" transform="translate(-4.91 -48.39)" fill="#fff"/><path d="M326.15,75a5.94,5.94,0,0,1,.64.41c.7.56.75,1,.22,1.69a1.28,1.28,0,0,1-.14.23c-.23.2-.46.54-.71.56-.43,0-.63-.37-.78-.74C325,76.25,325.19,75.77,326.15,75Z" transform="translate(-4.91 -48.39)" fill="#fff"/><path d="M131.7,85.83l1.12-1.41c1,.17,1.86.44,1.83,1.71-.34.13-.73.3-1.13.44-.13.05-.36.07-.42,0A2.39,2.39,0,0,0,131.7,85.83Z" transform="translate(-4.91 -48.39)" fill="#fff"/><path d="M120.33,71.86c1-.22,1.82-1,3.07-.48l-.73.55a1.3,1.3,0,0,1,0,.59c-.07.15-.31.24-.48.33a3,3,0,0,1-.5.19C120.84,73.31,120.31,72.89,120.33,71.86Z" transform="translate(-4.91 -48.39)" fill="#fff"/><path d="M233,73a2.72,2.72,0,0,1-2.14.37,3.21,3.21,0,0,0-.86.11l.12-1.2-.83-.62c.64-.46.64-.46,1.51-.14l-.11.83a1.3,1.3,0,0,1,1.39.34A3.28,3.28,0,0,0,233,73Z" transform="translate(-4.91 -48.39)" fill="#fff"/><path d="M318.51,131.41l1.14-.74.82,1.22-.76,2-.82-.35.27-1.05C318.42,132.49,319,131.65,318.51,131.41Z" transform="translate(-4.91 -48.39)" fill="#fff"/><path d="M135.31,71.65l-1.34.43c-.62-.17-.52-1.18-1.38-1.19l.11-1,1.88.83C135.16,70.93,135.16,70.93,135.31,71.65Z" transform="translate(-4.91 -48.39)" fill="#fff"/><path d="M247.76,67.64a3.19,3.19,0,0,1,2.19-.8,4.09,4.09,0,0,1,3.1.43l-1.65.08c-.09,0-.22,0-.26,0-.51.49-1.16.29-1.74.41A4.87,4.87,0,0,1,247.76,67.64Z" transform="translate(-4.91 -48.39)" fill="#fff"/><path d="M85.82,264.12a2.12,2.12,0,0,1-2.08,1.47c0-.38-.07-.76-.08-1.14s.18-.72.67-.77A1.81,1.81,0,0,1,85.82,264.12Z" transform="translate(-4.91 -48.39)" fill="#fff"/><path d="M303.64,146.25c-.26.49-.24,1.11-.81,1.43a.86.86,0,0,1-1.23-.21.57.57,0,0,1,.08-.85,3.13,3.13,0,0,1,1.48-.73A.35.35,0,0,1,303.64,146.25Z" transform="translate(-4.91 -48.39)" fill="#fff"/><path d="M330.07,79.77l-2.83-.43c.63-.6,1-1.39,2-1A1.45,1.45,0,0,1,330.07,79.77Z" transform="translate(-4.91 -48.39)" fill="#fff"/><path d="M136.14,77.13l-1.89-.65c-.07-.63.42-.93.74-1.24s1.25.13,1.29.82A5.33,5.33,0,0,1,136.14,77.13Z" transform="translate(-4.91 -48.39)" fill="#fff"/><path d="M311.5,143.19a.81.81,0,0,1-.52-1,4.08,4.08,0,0,1,1.36-2.31c0,.32.14.53.08.68C312.07,141.41,312.29,142.46,311.5,143.19Z" transform="translate(-4.91 -48.39)" fill="#fff"/><path d="M336,76.16a1.73,1.73,0,0,1-2.1.54c-.61-.21-.69-.28-.66-1C334.18,75.7,335.16,75.51,336,76.16Z" transform="translate(-4.91 -48.39)" fill="#fff"/><path d="M219.71,123.09l.84-.6c.18.31.45.58.46.86a4.12,4.12,0,0,1-.23,1.38.57.57,0,0,1-.47.3.63.63,0,0,1-.37-.42C219.84,124.16,219.8,123.69,219.71,123.09Z" transform="translate(-4.91 -48.39)" fill="#fff"/><path d="M334,172.26l1.06-.42s.12-.07.14-.05c.67.44.86-.19,1.05-.55s.33-.51.76-.42l-.29-.74c.15.06.24.06.29.11.47.51.46.5,0,1-.32.34-.56.75-.9,1.06A1.54,1.54,0,0,1,334,172.26Z" transform="translate(-4.91 -48.39)" fill="#fff"/><path d="M66.29,81.38c.39.59,1.46-.1,1.7.9a5,5,0,0,1-2.81.09A2.08,2.08,0,0,1,66.29,81.38Z" transform="translate(-4.91 -48.39)" fill="#fff"/><path d="M312.69,177.37c.48-.47,1-.93,1.44-1.42a3,3,0,0,1,2.23-.79,10.4,10.4,0,0,1-1.8,1.45C313.94,176.9,313.39,177.42,312.69,177.37Z" transform="translate(-4.91 -48.39)" fill="#fff"/><path d="M255.14,67.29c-.13.16-.21.34-.31.35-1.05.11-2,.94-3.13.54l-.19-.7a3.14,3.14,0,0,1,.87.06,1.3,1.3,0,0,0,1.51-.42.45.45,0,0,1,.36-.1C254.53,67.08,254.79,67.18,255.14,67.29Z" transform="translate(-4.91 -48.39)" fill="#fff"/><path d="M119.85,70.81a1.76,1.76,0,0,1,2-.28,3.49,3.49,0,0,1,.65-.43,1.41,1.41,0,0,1,.76-.07.62.62,0,0,1,.4.39c0,.25-.12.44-.41.46-.12,0-.23.05-.35.06-.52,0-1.07-.43-1.56.11C121,70.67,120.49,70.94,119.85,70.81Z" transform="translate(-4.91 -48.39)" fill="#fff"/><path d="M150.12,248.77c0-.32.07-.53.12-.73a1.09,1.09,0,0,1,1.64-.59c.12.1.27.36.23.43-.16.27-.35.61-.61.7A6,6,0,0,1,150.12,248.77Z" transform="translate(-4.91 -48.39)" fill="#fff"/><path d="M264,67.12c-.21.09-.34.15-.47.19l-.42.07V68a4.15,4.15,0,0,1-1.12-.19c-.28-.14-.15-.48,0-.72C262.45,66.21,263.11,66.19,264,67.12Z" transform="translate(-4.91 -48.39)" fill="#fff"/><path d="M129.42,75l-1.15.51-.09-.14.18-.35-.74-.81.31-.41.53-.14c.57-.26.62.37.91.58.13.1,0,.52,0,.79Z" transform="translate(-4.91 -48.39)" fill="#fff"/><path d="M225.36,126.25l-.21,1.42a5,5,0,0,1-2.23-1.42Z" transform="translate(-4.91 -48.39)" fill="#fff"/><path d="M359.23,83.5l1.06-.82,1.31.38c.36.1.59.27.4.65h-2.69Z" transform="translate(-4.91 -48.39)" fill="#fff"/><path d="M126.42,80.38c-1.32,0-1.71-.56-1.29-1.7A2,2,0,0,1,126.42,80.38Z" transform="translate(-4.91 -48.39)" fill="#fff"/><path d="M88.26,101.91c-1.2.85-1.65.86-2,0C87.88,101.18,87.88,101.18,88.26,101.91Z" transform="translate(-4.91 -48.39)" fill="#fff"/><path d="M350.37,260.64c-.63,0-1.26,0-1.88-.06s-.56-.4-.24-1l2.16.84Z" transform="translate(-4.91 -48.39)" fill="#fff"/><path d="M104,106.71h.84l.58,2.06C104.49,108.4,104.29,107.6,104,106.71Z" transform="translate(-4.91 -48.39)" fill="#fff"/><path d="M346.87,187.28c.05,0,.14-.09.15-.07.74.75,1.47,1.51,2.24,2.31A2.78,2.78,0,0,1,346.87,187.28Z" transform="translate(-4.91 -48.39)" fill="#fff"/><path d="M137.23,72c-.37.71-.39.71-2.74.33A3.86,3.86,0,0,1,137.23,72Z" transform="translate(-4.91 -48.39)" fill="#fff"/><path d="M288.33,69.59c-.41-.48-.21-.81.05-1.16a1.86,1.86,0,0,1,1.56.89Z" transform="translate(-4.91 -48.39)" fill="#fff"/><path d="M368.44,262.37c.15-.17.28-.45.39-.44a4.34,4.34,0,0,1,1.18.29,2.82,2.82,0,0,1,.62.54A1.8,1.8,0,0,1,368.44,262.37Z" transform="translate(-4.91 -48.39)" fill="#fff"/><path d="M317.06,163.86l.09.93h.4v1l-.59-.12,0,.79A2.23,2.23,0,0,1,317.06,163.86Z" transform="translate(-4.91 -48.39)" fill="#fff"/><path d="M76.44,262a1.91,1.91,0,0,1-2.21-.31c.33-.61.33-.61.89-.38a5.8,5.8,0,0,1,.59.19A7.55,7.55,0,0,1,76.44,262Z" transform="translate(-4.91 -48.39)" fill="#fff"/><path d="M265.31,67.25l-.54-.44c.06-.12.08-.24.13-.26.58-.21,1.06-.91,1.91-.29Z" transform="translate(-4.91 -48.39)" fill="#fff"/><path d="M220.47,122.29c-.94-.53-.91-1.06.11-1.83A1.92,1.92,0,0,1,220.47,122.29Z" transform="translate(-4.91 -48.39)" fill="#fff"/><path d="M53.47,258.72c.38.47.7.76,1.25.62.23,0,.53.22.82.35-.54.3-.54.3-1,.17a1.65,1.65,0,0,0-.43-.09C53.26,259.77,53.24,259.75,53.47,258.72Z" transform="translate(-4.91 -48.39)" fill="#fff"/><path d="M222.75,105.92l-.91-.86c.19-.16.27-.29.37-.3.25,0,.52,0,.5-.37,0,0,.18-.13.29-.14a.26.26,0,0,1,.18.16,3.62,3.62,0,0,1,0,.87C223.16,105.46,223,105.61,222.75,105.92Z" transform="translate(-4.91 -48.39)" fill="#fff"/><path d="M314.1,153.38c.77-.16.79-.16.83.35s.06,1.29.09,2c-.37-.21-.4-.21-.45-.67A2.83,2.83,0,0,0,314.1,153.38Z" transform="translate(-4.91 -48.39)" fill="#fff"/><path d="M310.26,154.83c-.05.28,0,.65-.15.81-.57.58-.77,1.52-1.77,1.75,0-.13,0-.28.06-.32a3.7,3.7,0,0,0,1.38-1.81,3.11,3.11,0,0,1,.3-.44Z" transform="translate(-4.91 -48.39)" fill="#fff"/><path d="M313,155c.28-.1.4.37.74.18.12-.07.18,0,.1.59l0,0a1.24,1.24,0,0,0-.76,1l-.92-.76a.93.93,0,0,0,.84-1Z" transform="translate(-4.91 -48.39)" fill="#fff"/><path d="M375.43,104.8c.11-.16.21-.33.4-.63a1.73,1.73,0,0,1,.08.54c-.11.54-.47.7-1.44.62l-.48.7c-.08-.14-.18-.24-.17-.31A1.24,1.24,0,0,1,375.43,104.8Z" transform="translate(-4.91 -48.39)" fill="#fff"/><path d="M366.68,95v-.46l1.19-.23,1.13.82-.39.5-.69-.92Z" transform="translate(-4.91 -48.39)" fill="#fff"/><path d="M258.72,66.36l.46-.22-.55-.51a1.37,1.37,0,0,1,1.56,0C259.68,66.54,259.68,66.54,258.72,66.36Z" transform="translate(-4.91 -48.39)" fill="#fff"/><path d="M329.85,75.69a6.46,6.46,0,0,1,.72.11c.15,0,.37.16.39.26a.75.75,0,0,1-.17.54,2.05,2.05,0,0,1-.6.33C329.82,76.53,329.82,76.53,329.85,75.69Z" transform="translate(-4.91 -48.39)" fill="#fff"/><path d="M261.16,67.56c-.27.27-.42.81-1,.44a.23.23,0,0,0-.23,0c-.27.47-.59.16-1,.14.26-.52.87-.36,1-.58C260.46,67,260.79,67.59,261.16,67.56Z" transform="translate(-4.91 -48.39)" fill="#fff"/><path d="M160.22,111.72a3.07,3.07,0,0,1,2.32,1.21A3.4,3.4,0,0,1,160.22,111.72Z" transform="translate(-4.91 -48.39)" fill="#fff"/><path d="M313,175.11a2.53,2.53,0,0,1-2.48.16c.28-.33.28-.33,1.2-.26Z" transform="translate(-4.91 -48.39)" fill="#fff"/><path d="M261.15,83.94,262.73,85c-.83.34-1.29-.15-1.75-.4C260.72,84.47,260.85,84.14,261.15,83.94Z" transform="translate(-4.91 -48.39)" fill="#fff"/><path d="M339.8,173.51c-.94-.29-1.22-.73-1.25-1.93C339,172.3,339.7,172.59,339.8,173.51Z" transform="translate(-4.91 -48.39)" fill="#fff"/><path d="M165.51,222.21l-1.88.92a1.77,1.77,0,0,1,.83-1.27C164.6,221.76,165,222,165.51,222.21Z" transform="translate(-4.91 -48.39)" fill="#fff"/><path d="M308.83,174.75l1,.53,0,.2a14,14,0,0,1-1.45.18c-.11,0-.23-.19-.35-.3.13-.07.28-.22.38-.19C308.73,175.26,308.93,175.25,308.83,174.75Z" transform="translate(-4.91 -48.39)" fill="#fff"/><path d="M148.8,146.81a1.68,1.68,0,0,1,1.81.27C149.89,147.69,149.79,147.68,148.8,146.81Z" transform="translate(-4.91 -48.39)" fill="#fff"/><path d="M74.61,94l-.24.33a3.61,3.61,0,0,0-.87-.55,4.15,4.15,0,0,0-1.06,0c-.16-.2-.18-.41.13-.43.55,0,1.17-.3,1.56.4C74.2,93.85,74.42,93.89,74.61,94Z" transform="translate(-4.91 -48.39)" fill="#fff"/><path d="M151.76,87.36c-.29.31-.46.6-.7.72s-.51-.23-.49-.57.13-.63.49-.59C151.27,86.94,151.46,87.16,151.76,87.36Z" transform="translate(-4.91 -48.39)" fill="#fff"/><path d="M156.47,242.45c.19.66-.19,1.14-.37,1.73C155.49,243.59,155.62,243.09,156.47,242.45Z" transform="translate(-4.91 -48.39)" fill="#fff"/><path d="M163.68,115.51l-.59,1.7a.42.42,0,0,1-.4-.55,2.24,2.24,0,0,1,.83-1.27Z" transform="translate(-4.91 -48.39)" fill="#fff"/><path d="M169.76,114.31c.37,0,.69-.14.7-.8a6.38,6.38,0,0,1,.25,1,.74.74,0,0,1-.2.54c-.17.15-.31,0-.37-.2,0,0-.28,0-.46,0,0-.2.08-.42.11-.63Z" transform="translate(-4.91 -48.39)" fill="#fff"/><path d="M240.82,129.2c.17.46-.11.63-.41.78a.71.71,0,0,1-1-.24C239.8,129.29,240.35,129.34,240.82,129.2Z" transform="translate(-4.91 -48.39)" fill="#fff"/><path d="M319.15,169.8l-2-.22,0-.26a2.74,2.74,0,0,1,2,.26Z" transform="translate(-4.91 -48.39)" fill="#fff"/><path d="M226,86.35l.74.06c-.28.78-.57.93-1.19.59l.25-.34Z" transform="translate(-4.91 -48.39)" fill="#fff"/><path d="M116.28,75.7l-.66-.18,1-1.2C116.78,74.84,116.78,74.84,116.28,75.7Z" transform="translate(-4.91 -48.39)" fill="#fff"/><path d="M76,98.2a4.23,4.23,0,0,1,.81-.26c.16,0,.34.11.51.18-.11.15-.21.43-.34.44a5.67,5.67,0,0,1-1-.11Z" transform="translate(-4.91 -48.39)" fill="#fff"/><path d="M253.9,85.45l-.45.9c-.53-.33-.71-.66-.51-.91S253.5,85.23,253.9,85.45Z" transform="translate(-4.91 -48.39)" fill="#fff"/><path d="M232.31,129.24c.69.25,1.51-.13,2.22.36A2.1,2.1,0,0,1,232.31,129.24Z" transform="translate(-4.91 -48.39)" fill="#fff"/><path d="M231.06,101.68a2.44,2.44,0,0,1-.16-.23c0-.08-.06-.16-.12-.31.35-.18.66-.45,1.14-.21C231.9,101.48,231.46,101.52,231.06,101.68Z" transform="translate(-4.91 -48.39)" fill="#fff"/><path d="M119.69,71.48c-.29.17-.44.32-.61.34a.43.43,0,0,1-.52-.46c0-.16.32-.42.46-.4S119.39,71.24,119.69,71.48Z" transform="translate(-4.91 -48.39)" fill="#fff"/><path d="M164.89,238.66c.71.06.71.06.84.84C165,239.43,165,239.43,164.89,238.66Z" transform="translate(-4.91 -48.39)" fill="#fff"/><path d="M143.82,95.46l1.5-.85C145,95.36,144.59,95.6,143.82,95.46Z" transform="translate(-4.91 -48.39)" fill="#fff"/><path d="M366.71,98.84c-.33.28-.56.62-1,.35a.37.37,0,0,1,0-.62C366.05,98.31,366.35,98.52,366.71,98.84Z" transform="translate(-4.91 -48.39)" fill="#fff"/><path d="M197.92,75.48l.88.54c-.32.18-.62.58-1,.26A.47.47,0,0,1,197.92,75.48Z" transform="translate(-4.91 -48.39)" fill="#fff"/><path d="M228.72,102.08l-.54,1.31C227.68,102.77,227.8,102.45,228.72,102.08Z" transform="translate(-4.91 -48.39)" fill="#fff"/><path d="M93,255.54l-1.75.45c.45-.58.72-.67,1.72-.66Z" transform="translate(-4.91 -48.39)" fill="#fff"/><path d="M336.64,82.46l.87,1-1.27.1Z" transform="translate(-4.91 -48.39)" fill="#fff"/><path d="M313,155c-.18.11-.36.22-.54.31a4.3,4.3,0,0,1-.45.19l.19-1.09c.52-.08.71.19.77.61Z" transform="translate(-4.91 -48.39)" fill="#fff"/><path d="M311.27,176.92c-.6.29-.9-.25-1.44-.42C310.6,176.23,310.87,176.32,311.27,176.92Z" transform="translate(-4.91 -48.39)" fill="#fff"/><path d="M311.48,152.34l.39,1.14-.16.08-.86-1.19h.66Z" transform="translate(-4.91 -48.39)" fill="#fff"/><path d="M160.27,115.69a1.6,1.6,0,0,1,.32-.06c.23.48.68.4,1.07.43a.37.37,0,0,1,.39.44l-1-.1,0,0-.73-.75Z" transform="translate(-4.91 -48.39)" fill="#fff"/><path d="M357.77,185.17c.14-.46.49-.46.84-.34.08,0,.15.33.1.44S358.31,185.44,357.77,185.17Z" transform="translate(-4.91 -48.39)" fill="#fff"/><path d="M370.12,99.06l1.14-.31c.23.26.19.45-.08.6C370.76,99.58,370.47,99.4,370.12,99.06Z" transform="translate(-4.91 -48.39)" fill="#fff"/><path d="M163.06,221.87l.59,0c.06,0,.1.05.18.09a1.66,1.66,0,0,1-1.14.86Z" transform="translate(-4.91 -48.39)" fill="#fff"/><path d="M299.75,169.2c-.61-.14-.45-.79-.88-1.12C299.61,168.05,299.82,168.35,299.75,169.2Z" transform="translate(-4.91 -48.39)" fill="#fff"/><path d="M346.39,101.21a.82.82,0,0,1,.56-1.09C347.18,100.75,346.52,100.85,346.39,101.21Z" transform="translate(-4.91 -48.39)" fill="#fff"/><path d="M85.88,145.75l-.57.37a1,1,0,0,1-.21-.2c-.22-.38,0-.58.38-.8Z" transform="translate(-4.91 -48.39)" fill="#fff"/><path d="M151.31,222.08l.23-1.14.58.61-.53.64Z" transform="translate(-4.91 -48.39)" fill="#fff"/><path d="M138.72,72.4l.19-.87.22,0c.1.18.27.35.28.53C139.42,72.36,139.16,72.44,138.72,72.4Z" transform="translate(-4.91 -48.39)" fill="#fff"/><path d="M91.34,259.1l-.12-1.42c.71.33.8.64.39,1.1l-.27.31Z" transform="translate(-4.91 -48.39)" fill="#fff"/><path d="M316.58,169.72a.86.86,0,0,1-1.21-.22C315.82,169.41,316.23,169.06,316.58,169.72Z" transform="translate(-4.91 -48.39)" fill="#fff"/><path d="M207.23,101.92c.08-.51,0-1,.69-1.18C207.83,101.23,207.89,101.71,207.23,101.92Z" transform="translate(-4.91 -48.39)" fill="#fff"/><path d="M322.07,173.39l.2-1.17C322.77,172.5,322.76,172.72,322.07,173.39Z" transform="translate(-4.91 -48.39)" fill="#fff"/><path d="M227.79,85.74l-.64.31c-.05-.55-.05-.55.56-1,0,.26,0,.47.06.68Z" transform="translate(-4.91 -48.39)" fill="#fff"/><path d="M333,118.57l1.32-1c0,.86-.86.71-1.15,1.18Z" transform="translate(-4.91 -48.39)" fill="#fff"/><path d="M276.23,81.06c.6-.85.6-.85,1.28-.46Z" transform="translate(-4.91 -48.39)" fill="#fff"/><path d="M313.09,170.93l.39-.06c-.25.36.2.76-.31,1.08l-.42-.48.37-.57Z" transform="translate(-4.91 -48.39)" fill="#fff"/><path d="M160.22,239.5l.66-.56.16.87-.79-.09Z" transform="translate(-4.91 -48.39)" fill="#fff"/><path d="M158.37,146.9h1C159,147.48,158.91,147.5,158.37,146.9Z" transform="translate(-4.91 -48.39)" fill="#fff"/><path d="M373.17,106.48l-1.23.38C372.21,106.18,372.4,106.1,373.17,106.48Z" transform="translate(-4.91 -48.39)" fill="#fff"/><path d="M148.74,84.34c-.49.75-.49.75-1.25.41Z" transform="translate(-4.91 -48.39)" fill="#fff"/><path d="M153,122.48h1.13l0,.18-1.3.27.17-.47Z" transform="translate(-4.91 -48.39)" fill="#fff"/><path d="M152.54,214.3c-.37.16.33.88-.45.81C151.89,214.41,151.89,214.41,152.54,214.3Z" transform="translate(-4.91 -48.39)" fill="#fff"/><path d="M79.11,105.6l-1.25.48C78.24,105.34,78.29,105.32,79.11,105.6Z" transform="translate(-4.91 -48.39)" fill="#fff"/><path d="M164.25,116.28c-.1.55-.1.55-.54.82C163.61,116.53,163.61,116.53,164.25,116.28Z" transform="translate(-4.91 -48.39)" fill="#fff"/><path d="M255.86,67.82c.41-.3.76-.46,1.05.15C256.48,68.25,256.19,68,255.86,67.82Z" transform="translate(-4.91 -48.39)" fill="#fff"/><path d="M270.84,78.62c.42.68.42.68-.36.83Z" transform="translate(-4.91 -48.39)" fill="#fff"/><path d="M349.68,182.75c.26.16.44.21.47.31s.07.48,0,.53c-.31.17-.39-.11-.45-.34A3.87,3.87,0,0,1,349.68,182.75Z" transform="translate(-4.91 -48.39)" fill="#fff"/><path d="M343.62,176.31c-.54.26-.54.26-.83-.22Z" transform="translate(-4.91 -48.39)" fill="#fff"/><path d="M131.75,67.79l.49.81C131.59,68.47,131.59,68.47,131.75,67.79Z" transform="translate(-4.91 -48.39)" fill="#fff"/><path d="M167.21,237.62c-.31.3-.52.64-.91.13C166.5,237.43,166.73,237.28,167.21,237.62Z" transform="translate(-4.91 -48.39)" fill="#fff"/><path d="M223.14,106c-.56.69-.56.69-1,.26Z" transform="translate(-4.91 -48.39)" fill="#fff"/><path d="M258.57,64.71l.91-.31a.72.72,0,0,1-.86.51Z" transform="translate(-4.91 -48.39)" fill="#fff"/><path d="M359.66,183.26c-.09.69-.51.69-1,.78C358.86,183.57,359.23,183.48,359.66,183.26Z" transform="translate(-4.91 -48.39)" fill="#fff"/><path d="M64.06,184.11l-1,.13c.36-.56.64-.61,1-.39Z" transform="translate(-4.91 -48.39)" fill="#fff"/><path d="M261.15,68.75c.22-.38.42-.6.65-.29.06.09,0,.26,0,.39Z" transform="translate(-4.91 -48.39)" fill="#fff"/><path d="M349.55,216.41l.49.78-.61.21Z" transform="translate(-4.91 -48.39)" fill="#fff"/><path d="M128.46,73.66l-.53.14c-.23-.19-.27-.46,0-.57S128.5,73.24,128.46,73.66Z" transform="translate(-4.91 -48.39)" fill="#fff"/><path d="M160.38,94.31l.77.12c-.32.21-.47.35-.62.36s-.18-.21-.27-.33Z" transform="translate(-4.91 -48.39)" fill="#fff"/><path d="M351.26,84.7c-.16.07-.26.15-.31.13a1.75,1.75,0,0,1-.47-.29s0-.21.06-.21a3.25,3.25,0,0,1,.52.12C351.13,84.48,351.17,84.58,351.26,84.7Z" transform="translate(-4.91 -48.39)" fill="#fff"/><path d="M342.59,175l-.85-.67C342.42,174.2,342.46,174.66,342.59,175Z" transform="translate(-4.91 -48.39)" fill="#fff"/><path d="M56.63,83.89l-.43-.72C56.93,83.34,56.93,83.34,56.63,83.89Z" transform="translate(-4.91 -48.39)" fill="#fff"/><path d="M278.19,79.64c-.14.13-.27.31-.31.29a1.91,1.91,0,0,1-.42-.33c.12-.1.23-.27.36-.29S278,79.49,278.19,79.64Z" transform="translate(-4.91 -48.39)" fill="#fff"/><path d="M127.37,72.42c-.18-.23-.57-.39-.34-.82C127.48,71.75,127.5,72.05,127.37,72.42Z" transform="translate(-4.91 -48.39)" fill="#fff"/><path d="M137.66,166.85l-.5.32v-1Z" transform="translate(-4.91 -48.39)" fill="#fff"/><path d="M301.37,169.34l-.73.11c0-.11-.09-.26,0-.31S301,168.91,301.37,169.34Z" transform="translate(-4.91 -48.39)" fill="#fff"/><path d="M138.93,73.82a.24.24,0,0,0,0-.08c0-.2-.35-.42.05-.57.06,0,.22.08.25.16.12.28,0,.45-.3.47Z" transform="translate(-4.91 -48.39)" fill="#fff"/><path d="M164,236.24l.81-.45.11.18-.78.48Z" transform="translate(-4.91 -48.39)" fill="#fff"/><path d="M215.72,123.83l.33.42-.56.49.06-.88Z" transform="translate(-4.91 -48.39)" fill="#fff"/><path d="M230.79,83l.93-.42a.86.86,0,0,1-.86.63Z" transform="translate(-4.91 -48.39)" fill="#fff"/><path d="M236.62,70.31l.82.09v.15h-.81Z" transform="translate(-4.91 -48.39)" fill="#fff"/><path d="M287.27,66.27l.86-.06c-.27.42-.53.43-.82.33Z" transform="translate(-4.91 -48.39)" fill="#fff"/><path d="M324.5,180.89c-.14.08-.23.18-.29.17s-.15-.14-.22-.21l.27-.25Z" transform="translate(-4.91 -48.39)" fill="#fff"/><path d="M259.77,186.67c.13.22.2.42-.08.57-.05,0-.21,0-.23-.05C259.31,186.9,259.49,186.78,259.77,186.67Z" transform="translate(-4.91 -48.39)" fill="#fff"/><path d="M148.09,95.57l-.19.76c-.57-.41-.15-.58,0-.79Z" transform="translate(-4.91 -48.39)" fill="#fff"/><path d="M319.82,166.44c-.43.36-.66.25-.88-.06Z" transform="translate(-4.91 -48.39)" fill="#fff"/><path d="M229.36,98.94l-.4-.32c0-.06.14-.19.16-.18a3.83,3.83,0,0,1,.42.28Z" transform="translate(-4.91 -48.39)" fill="#fff"/><path d="M146.92,108.4l-.91-.32C146.49,107.89,146.49,107.89,146.92,108.4Z" transform="translate(-4.91 -48.39)" fill="#fff"/><path d="M76,107.66c.14-.19-.08-.86.6-.58Z" transform="translate(-4.91 -48.39)" fill="#fff"/><path d="M163,154.87l.1.68c-.13,0-.22,0-.24,0C162.69,155.34,162.56,155.11,163,154.87Z" transform="translate(-4.91 -48.39)" fill="#fff"/><path d="M254.64,68.72l.52-.33C255.34,69,255,68.9,254.64,68.72Z" transform="translate(-4.91 -48.39)" fill="#fff"/><path d="M207.68,102.28l.41.92A.69.69,0,0,1,207.68,102.28Z" transform="translate(-4.91 -48.39)" fill="#fff"/><path d="M306.56,174.71l-.17-.38.66.09c-.05.47-.16.65-.52.26Z" transform="translate(-4.91 -48.39)" fill="#fff"/><path d="M313.84,155.78h.08l.47.23c-.07.07-.14.2-.22.2-.32,0-.35-.22-.3-.47Z" transform="translate(-4.91 -48.39)" fill="#fff"/><path d="M232.05,83.74l-.27-.32a2.26,2.26,0,0,1,.31-.23s.16.1.15.13A2.69,2.69,0,0,1,232.05,83.74Z" transform="translate(-4.91 -48.39)" fill="#fff"/><path d="M325.56,106.43c-.11.06-.24.17-.33.15s-.16-.18-.24-.28c.1-.08.2-.22.31-.23s.26.09.4.14Z" transform="translate(-4.91 -48.39)" fill="#fff"/><path d="M335.52,117l-.38.54-.19-.12.33-.57Z" transform="translate(-4.91 -48.39)" fill="#fff"/><path d="M305.54,193.45l-.18.29-.38-.61Z" transform="translate(-4.91 -48.39)" fill="#fff"/><path d="M161.79,247.25l-.08-.76a.93.93,0,0,1,.26.09C162.2,246.8,162.08,247,161.79,247.25Z" transform="translate(-4.91 -48.39)" fill="#fff"/><path d="M129.71,71.55l.62.22c0,.1,0,.18-.07.2C130,72.15,129.78,72.06,129.71,71.55Z" transform="translate(-4.91 -48.39)" fill="#fff"/><path d="M228.81,68.21a.75.75,0,0,1-.84-.28c.39-.05.69-.11.83.3Z" transform="translate(-4.91 -48.39)" fill="#fff"/><path d="M195,90l-.5-.11,0-.16.5.13Z" transform="translate(-4.91 -48.39)" fill="#fff"/><path d="M160.5,226l-.5,0v-.19h.51Z" transform="translate(-4.91 -48.39)" fill="#fff"/><path d="M145.31,143.56c0-.16,0-.33,0-.49a.39.39,0,0,1,.15,0c0,.16.07.33.1.49Z" transform="translate(-4.91 -48.39)" fill="#fff"/><path d="M152.82,87.45c-.19.07-.3.15-.38.13s-.14-.14-.21-.22c.09-.06.18-.17.27-.17S152.66,87.31,152.82,87.45Z" transform="translate(-4.91 -48.39)" fill="#fff"/><path d="M313.71,154.19l-.55-.21.08-.21.61.23Z" transform="translate(-4.91 -48.39)" fill="#fff"/><path d="M149.38,140.66c-.22.05-.33.11-.4.08a.39.39,0,0,1-.16-.25s.13-.16.16-.14A2.58,2.58,0,0,1,149.38,140.66Z" transform="translate(-4.91 -48.39)" fill="#fff"/><path d="M293.7,167.29l.3.77C293.5,167.87,293.55,167.6,293.7,167.29Z" transform="translate(-4.91 -48.39)" fill="#fff"/><path d="M324.48,203.64h.61C324.87,204,324.68,204,324.48,203.64Z" transform="translate(-4.91 -48.39)" fill="#fff"/><path d="M305.11,77.94c0,.1-.05.25-.12.29s-.25,0-.46-.07l.42-.36Z" transform="translate(-4.91 -48.39)" fill="#fff"/><path d="M163.18,237l-.49-.09,0-.16.49.1Z" transform="translate(-4.91 -48.39)" fill="#fff"/><path d="M335.82,169.44l.64.28-.07.17-.63-.32Z" transform="translate(-4.91 -48.39)" fill="#fff"/><path d="M368.83,108.49l.43-.55.16.12-.42.58Z" transform="translate(-4.91 -48.39)" fill="#fff"/><path d="M54.75,216.06l0,.43-.25,0v-.43Z" transform="translate(-4.91 -48.39)" fill="#fff"/><path d="M340.26,173.32l.61.67C340.4,174,340.31,173.77,340.26,173.32Z" transform="translate(-4.91 -48.39)" fill="#fff"/><path d="M305.11,172.73h.58v.15h-.59Z" transform="translate(-4.91 -48.39)" fill="#fff"/><path d="M148.28,103.21l-.07.63-.15,0,.05-.63Z" transform="translate(-4.91 -48.39)" fill="#fff"/><path d="M75.27,107.51l-.44.35-.09-.09.4-.41Z" transform="translate(-4.91 -48.39)" fill="#fff"/><path d="M307.92,174.73l-.08.46-.24-.05.1-.44Z" transform="translate(-4.91 -48.39)" fill="#fff"/><path d="M341.08,175.2c-.07-.15-.13-.29-.19-.44l.14-.07.24.41Z" transform="translate(-4.91 -48.39)" fill="#fff"/><path d="M228.45,84.42l.15-.63c.22.43.22.43-.17.61Z" transform="translate(-4.91 -48.39)" fill="#fff"/><path d="M228.43,84.4c0,.11,0,.28,0,.3a.88.88,0,0,1-.37,0c0-.11,0-.25.1-.31s.21,0,.32,0Z" transform="translate(-4.91 -48.39)" fill="#fff"/><path d="M88.25,100.7l-.5.19C87.83,100.38,87.83,100.38,88.25,100.7Z" transform="translate(-4.91 -48.39)" fill="#fff"/><path d="M161.4,239.43c-.14-.52,0-.66.42-.61Z" transform="translate(-4.91 -48.39)" fill="#fff"/><path d="M147.62,74.68l.5-.19.08.1c-.07.1-.13.23-.22.27s-.22,0-.33,0Z" transform="translate(-4.91 -48.39)" fill="#fff"/><path d="M158.49,241.18l-.39.15-.09-.22.44-.08Z" transform="translate(-4.91 -48.39)" fill="#fff"/><path d="M370.51,107.91l-.35.38-.11-.09.3-.43Z" transform="translate(-4.91 -48.39)" fill="#fff"/><path d="M119.27,73.18a1.85,1.85,0,0,1-.29.21s-.14-.12-.13-.17A.29.29,0,0,1,119,73S119.14,73.1,119.27,73.18Z" transform="translate(-4.91 -48.39)" fill="#fff"/><path d="M260.37,64.26c-.1.06-.2.15-.23.13a1.11,1.11,0,0,1-.21-.22c.08,0,.16-.08.22-.07S260.27,64.18,260.37,64.26Z" transform="translate(-4.91 -48.39)" fill="#fff"/><path d="M292.68,165.08l-.45-.51.59.35Z" transform="translate(-4.91 -48.39)" fill="#fff"/><path d="M317.54,164l-.14-.46.15-.06.23.45Z" transform="translate(-4.91 -48.39)" fill="#fff"/><path d="M344.37,177.12l.43.3-.08.13-.46-.23Z" transform="translate(-4.91 -48.39)" fill="#fff"/><path d="M258.44,66.23l-.46-.1,0-.15.46.12Z" transform="translate(-4.91 -48.39)" fill="#fff"/><path d="M92.94,265l-.36-.17.4,0Z" transform="translate(-4.91 -48.39)" fill="#fff"/><path d="M66.25,90.52c-.44-.29-.44-.29,0-.85.48.32.11.59,0,.86Z" transform="translate(-4.91 -48.39)" fill="#fff"/><path d="M121.1,122.31l-.5-.63s.06-.1.09-.1C121.11,121.54,121.24,121.72,121.1,122.31Z" transform="translate(-4.91 -48.39)" fill="#fff"/><path d="M102.89,102.41l-.19-.36.22,0c0,.14,0,.28,0,.42Z" transform="translate(-4.91 -48.39)" fill="#fff"/><path d="M145.75,117.14l-.56-.14,0-.16.56.17Z" transform="translate(-4.91 -48.39)" fill="#fff"/><path d="M411.13,259.93a67.1,67.1,0,0,1-20.29,24.28c-.4.08-.79.14-1.19.18-.12-3.94-.06-11.43-.31-15.37-1.13-16.18-9.36-31.24-20.26-43.28-2.4-2.66-5.1-5.61-4.95-9.2a4,4,0,0,1,1.7-3.33c1.67-1,3.8-.12,5.54.77,2.5,1.32,10.77,7.41,13.42,6.88,3.13-.65,1.89-9,1.93-11.49q.31-15.59.65-31.14a71,71,0,0,1,18.82,34.41,138.78,138.78,0,0,1,2.26,15.67C409.58,238.83,410.66,249.37,411.13,259.93Z" transform="translate(-4.91 -48.39)" fill="#eea886"/><path d="M64.06,216.54c.14,3.59-2.56,6.54-5,9.2C48.22,237.78,40,252.84,38.86,269c-.26,3.55-.14,7.09-.22,10.64-7.43-.47-14.6-2.07-20.49-6.42-.38-.28-.75-.58-1.12-.91a26.49,26.49,0,0,1-.2-3.53c.08-13.54,1.46-27,2.9-40.49A138.78,138.78,0,0,1,22,212.64a71.07,71.07,0,0,1,18.84-34.41q.3,15.56.63,31.14c.06,2.52-1.18,10.84,1.93,11.49,2.66.53,10.92-5.56,13.44-6.88,1.74-.89,3.85-1.77,5.52-.77A4,4,0,0,1,64.06,216.54Z" transform="translate(-4.91 -48.39)" fill="#eea886"/><rect x="203.86" y="7.21" width="169.78" height="110.97" fill="url(#linear-gradient-2)"/><rect x="45.66" y="116.73" width="158.56" height="110.97" fill="url(#linear-gradient-3)"/></svg>